<svg xmlns="http://www.w3.org/2000/svg" width="10" height="10">
   <path
      d="M4.895 9.79H0V0h9.79v9.79zm.01-.432l4.62-.046V.392H.306l-.01 4.505-.012 4.506zm1.307-.352c-.027 0-1.082-1.431-2.346-3.18C1.632 2.732 1.555 2.664 1.05 3.34c-.286.383-.52.52-.52.305 0-.216.22-.685.487-1.043.455-.61.517-.601.967.135.264.432.581.786.704.786s.224-.34.224-.755.187-1.032.415-1.37c.23-.339.697-.616 1.04-.616.35 0 .852.431 1.147.987.289.542.606 1.866.706 2.943.124 1.335.342 2.083.686 2.356.277.22.502.789.5 1.266-.004.86-.007.859-.331-.068-.18-.514-.446-.866-.591-.783-.146.084-.256.46-.244.837.012.377 0 .685-.027.685zM5.55 6.958c.221-.062.438-.48.481-.927.044-.447-.104-1.038-.327-1.312-.223-.275-.586-.397-.807-.272-.22.125-.4.55-.4.945 0 .394.147.933.325 1.198.18.265.507.43.728.368zM3.95 5.091c.125 0 .296-.265.38-.588.083-.323.453-.587.821-.587.42 0 .67-.22.67-.588 0-.323-.238-.94-.53-1.37-.29-.43-.743-.783-1.004-.783-.262 0-.62.211-.794.47-.175.258-.318.798-.318 1.2 0 .402.124 1.072.274 1.488.15.417.376.758.501.758z" />
   <path
      d="M.347 4.873V.397H9.5v8.865l-2.717.044c-1.495.024-3.554.044-4.577.044H.347zm5.947 3.534c0-.355.035-.602.105-.737l.105-.204.154.144c.16.15.273.378.507 1.022.077.211.168.384.202.384.105 0 .07-.964-.048-1.327a2.434 2.434 0 00-.399-.68c-.343-.402-.455-.739-.597-1.798-.25-1.867-.464-2.816-.772-3.433-.186-.372-.702-.895-.97-.983-.565-.187-1.283.35-1.547 1.157-.082.248-.148.58-.149.735 0 .319-.113.783-.19.783-.088 0-.394-.353-.727-.837-.396-.578-.515-.609-.846-.221C.854 2.725.48 3.422.48 3.61c0 .262.165.203.544-.196.406-.426.482-.448.751-.219.239.204.893 1.052 2.246 2.913 1.84 2.532 2.137 2.916 2.21 2.871.034-.021.063-.279.063-.573z"
      fill="#b3b3b3" />
   <path
      d="M3.715 4.768c-.311-.53-.446-1.066-.454-1.799-.01-.79.114-1.19.46-1.494.315-.277.579-.322.862-.147.555.343 1.107 1.248 1.162 1.905.035.423-.1.567-.602.646-.468.074-.65.221-.881.71-.107.227-.234.427-.283.446-.054.02-.158-.085-.264-.267zM5.114 6.807c-.62-.396-.757-1.936-.205-2.298.182-.119.438-.06.673.152.483.436.554 1.583.13 2.087-.194.231-.312.243-.598.06z"
      fill="#b3b3b3" />
</svg>