<?xml version="1.0" encoding="UTF-8" standalone="no"?>
<svg
   xmlns:dc="http://purl.org/dc/elements/1.1/"
   xmlns:cc="http://creativecommons.org/ns#"
   xmlns:rdf="http://www.w3.org/1999/02/22-rdf-syntax-ns#"
   xmlns:svg="http://www.w3.org/2000/svg"
   xmlns="http://www.w3.org/2000/svg"
   xmlns:sodipodi="http://sodipodi.sourceforge.net/DTD/sodipodi-0.dtd"
   xmlns:inkscape="http://www.inkscape.org/namespaces/inkscape"
   viewBox="0 0 9.7895803 9.7895803"
   version="1.1"
   id="svg8"
   sodipodi:docname="avalanches.svg"
   width="9.7895803"
   height="9.7895803"
   inkscape:version="1.0.1 (3bc2e813f5, 2020-09-07)">
  <metadata
     id="metadata14">
    <rdf:RDF>
      <cc:Work
         rdf:about="">
        <dc:format>image/svg+xml</dc:format>
        <dc:type
           rdf:resource="http://purl.org/dc/dcmitype/StillImage" />
      </cc:Work>
    </rdf:RDF>
  </metadata>
  <defs
     id="defs12" />
  <sodipodi:namedview
     pagecolor="#ffffff"
     bordercolor="#666666"
     borderopacity="1"
     objecttolerance="10"
     gridtolerance="10"
     guidetolerance="10"
     inkscape:pageopacity="0"
     inkscape:pageshadow="2"
     inkscape:window-width="1627"
     inkscape:window-height="847"
     id="namedview10"
     showgrid="false"
     inkscape:zoom="26.5625"
     inkscape:cx="0.35839858"
     inkscape:cy="4.8271842"
     inkscape:window-x="0"
     inkscape:window-y="0"
     inkscape:window-maximized="0"
     inkscape:current-layer="svg8" />
  <g
     id="g6"
     transform="translate(-122.86117,-110.00997)">
    <path
       style="fill:#000000;stroke-width:0.32188"
       d="m 127.75596,119.79955 h -4.89479 v -4.89479 -4.89479 h 4.89479 4.89479 v 4.89479 4.89479 z m 0.01,-0.43194 4.62048,-0.0456 v -4.46023 -4.46024 h -4.60952 -4.60952 l -0.011,4.50582 -0.011,4.50583 z m 1.30694,-0.35123 c -0.0265,0 -1.08198,-1.43139 -2.34542,-3.18088 -2.23411,-3.09356 -2.31144,-3.16177 -2.81702,-2.4846 -0.28592,0.38296 -0.51985,0.52007 -0.51985,0.3047 0,-0.21537 0.2188,-0.68464 0.48622,-1.04282 0.45514,-0.6096 0.51696,-0.60096 0.96705,0.1351 0.26445,0.43249 0.58144,0.78634 0.7044,0.78634 0.12297,0 0.22358,-0.33984 0.22358,-0.7552 0,-0.41536 0.1871,-1.0321 0.41577,-1.37054 0.22868,-0.33844 0.69629,-0.61535 1.03913,-0.61535 0.35102,0 0.85239,0.43092 1.14759,0.98635 0.28832,0.54249 0.60606,1.86694 0.70608,2.94323 0.12407,1.33519 0.34189,2.08365 0.6856,2.35589 0.27706,0.21945 0.50199,0.78928 0.49984,1.26629 -0.004,0.85947 -0.007,0.85886 -0.33072,-0.0677 -0.17976,-0.51426 -0.4459,-0.86669 -0.59142,-0.78317 -0.14552,0.0835 -0.25513,0.46023 -0.24357,0.83713 0.0116,0.3769 -7.2e-4,0.68527 -0.0273,0.68527 z m -0.66072,-2.04838 c 0.22131,-0.0623 0.4379,-0.47937 0.4813,-0.92676 0.0434,-0.44738 -0.10391,-1.03799 -0.32736,-1.31245 -0.22345,-0.27446 -0.58638,-0.39673 -0.80652,-0.27171 -0.22013,0.12502 -0.40024,0.55002 -0.40024,0.94445 0,0.39442 0.14635,0.93374 0.32522,1.19847 0.17887,0.26473 0.50629,0.43033 0.7276,0.368 z m -1.60099,-1.86745 c 0.12484,0 0.2955,-0.26432 0.37927,-0.58737 0.0838,-0.32306 0.45368,-0.58738 0.82205,-0.58738 0.41896,0 0.66976,-0.21995 0.66976,-0.58737 0,-0.32306 -0.23812,-0.9398 -0.52916,-1.37055 -0.29104,-0.43074 -0.74348,-0.78316 -1.00542,-0.78316 -0.26194,0 -0.61912,0.21145 -0.79375,0.4699 -0.17462,0.25844 -0.3175,0.79866 -0.3175,1.20049 0,0.40183 0.12325,1.07143 0.27389,1.48802 0.15064,0.41658 0.37603,0.75742 0.50086,0.75742 z"
       id="path1277" />
    <path
       style="opacity:1;fill:#b3b3b3;fill-opacity:1;stroke-width:0.0668173"
       d="m 123.20793,114.88335 v -4.47676 h 4.57699 4.57699 v 4.43249 4.43249 l -2.71706,0.0443 c -1.49438,0.0244 -3.55402,0.0443 -4.57699,0.0443 h -1.85993 z m 5.94674,3.53406 c 0,-0.35563 0.0352,-0.602 0.10544,-0.7378 l 0.10543,-0.20389 0.15334,0.14406 c 0.16014,0.15044 0.27344,0.37849 0.50776,1.02205 0.0769,0.21131 0.1678,0.3842 0.20191,0.3842 0.10424,0 0.0694,-0.96396 -0.0479,-1.32736 -0.0605,-0.18724 -0.24021,-0.49304 -0.39942,-0.67956 -0.34297,-0.4018 -0.45484,-0.73864 -0.59711,-1.79797 -0.25079,-1.8673 -0.46424,-2.81595 -0.77243,-3.43293 -0.18582,-0.37202 -0.70167,-0.89519 -0.96995,-0.98373 -0.56461,-0.18634 -1.28297,0.35104 -1.54669,1.15701 -0.0814,0.24884 -0.1482,0.57958 -0.14841,0.735 -4.2e-4,0.31938 -0.11341,0.7837 -0.19072,0.7837 -0.088,0 -0.39417,-0.35273 -0.72656,-0.83715 -0.39648,-0.57783 -0.51493,-0.60878 -0.84666,-0.22124 -0.26783,0.3129 -0.64111,1.01086 -0.64111,1.19875 0,0.26264 0.16444,0.20365 0.54393,-0.19512 0.4061,-0.42674 0.48125,-0.44867 0.75066,-0.21906 0.23902,0.20371 0.89298,1.05182 2.24622,2.9131 1.84026,2.53114 2.13639,2.91586 2.20957,2.87063 0.0345,-0.0213 0.0627,-0.27904 0.0627,-0.57269 z"
       id="path1307" />
    <path
       style="opacity:1;fill:#b3b3b3;fill-opacity:1;stroke-width:0.0668173"
       d="m 126.57575,114.77814 c -0.31079,-0.53031 -0.44606,-1.06635 -0.45401,-1.79908 -0.009,-0.78995 0.11487,-1.19099 0.45984,-1.49388 0.31583,-0.27731 0.57949,-0.32223 0.86296,-0.14704 0.55498,0.343 1.10692,1.24806 1.16135,1.90434 0.0351,0.42337 -0.0989,0.56739 -0.60193,0.64691 -0.46763,0.0739 -0.64956,0.22061 -0.88099,0.71034 -0.10683,0.22605 -0.23403,0.42628 -0.28268,0.44494 -0.0537,0.0206 -0.15772,-0.0842 -0.26454,-0.26653 z"
       id="path1309" />
    <path
       style="opacity:1;fill:#b3b3b3;fill-opacity:1;stroke-width:0.0668173"
       d="m 127.97475,116.81722 c -0.61915,-0.39664 -0.75613,-1.93645 -0.20443,-2.29794 0.18143,-0.11888 0.43789,-0.0612 0.67278,0.15141 0.48262,0.43676 0.55408,1.58356 0.13008,2.08746 -0.19437,0.23099 -0.31195,0.2426 -0.59843,0.0591 z"
       id="path1311" />
  </g>
</svg>
