<?xml version="1.0" encoding="UTF-8" standalone="no"?>
<svg
   xmlns:dc="http://purl.org/dc/elements/1.1/"
   xmlns:cc="http://creativecommons.org/ns#"
   xmlns:rdf="http://www.w3.org/1999/02/22-rdf-syntax-ns#"
   xmlns:svg="http://www.w3.org/2000/svg"
   xmlns="http://www.w3.org/2000/svg"
   xmlns:sodipodi="http://sodipodi.sourceforge.net/DTD/sodipodi-0.dtd"
   xmlns:inkscape="http://www.inkscape.org/namespaces/inkscape"
   viewBox="0 0 9.7895832 9.7895832"
   version="1.1"
   id="svg1393"
   inkscape:version="1.0.1 (3bc2e813f5, 2020-09-07)"
   sodipodi:docname="canicule.svg"
   width="9.7895832"
   height="9.7895832">
  <metadata
     id="metadata12">
    <rdf:RDF>
      <cc:Work
         rdf:about="">
        <dc:format>image/svg+xml</dc:format>
        <dc:type
           rdf:resource="http://purl.org/dc/dcmitype/StillImage" />
      </cc:Work>
    </rdf:RDF>
  </metadata>
  <defs
     id="defs10" />
  <sodipodi:namedview
     pagecolor="#ffffff"
     bordercolor="#666666"
     borderopacity="1"
     objecttolerance="10"
     gridtolerance="10"
     guidetolerance="10"
     inkscape:pageopacity="0"
     inkscape:pageshadow="2"
     inkscape:window-width="1920"
     inkscape:window-height="1017"
     id="namedview8"
     showgrid="false"
     inkscape:zoom="13.28125"
     inkscape:cx="32"
     inkscape:cy="21.356251"
     inkscape:window-x="-8"
     inkscape:window-y="-8"
     inkscape:window-maximized="1"
     inkscape:current-layer="layer1" />
  <g
     inkscape:label="Calque 1"
     inkscape:groupmode="layer"
     id="layer1"
     transform="translate(-93.416825,-184.13111)">
    <g
       id="g1354"
       transform="translate(83.544975,194.58786)">
      <path
         style="fill:#000000;stroke-width:0.32188"
         d="M 14.766642,-0.6671688 H 9.87185 v -4.8947916 -4.8947916 h 4.894792 4.894791 v 4.8947916 4.8947916 z m 0,-0.3915833 h 4.630208 v -4.5032083 -4.5032086 h -4.630208 -4.630209 v 4.5032086 4.5032083 z m -0.15538,-0.7831667 c -0.268103,0 -0.602405,-0.3178666 -0.742892,-0.7063701 -0.156089,-0.4316497 -0.161285,-0.9266052 -0.01336,-1.2726458 0.13314,-0.3114517 0.243894,-1.7557101 0.246123,-3.2094632 0.0036,-2.3801332 0.05672,-2.6431874 0.533218,-2.6431874 0.475006,0 0.529167,0.2610555 0.529167,2.5506049 0,1.4028329 0.141664,2.8863302 0.31481,3.2966614 0.246885,0.5850823 0.239895,0.8796528 -0.0324,1.3652283 -0.190964,0.3405443 -0.566565,0.6191719 -0.834668,0.6191719 z m 0.02309,-6.2653332 c 0.145521,0 0.264583,-0.2643188 0.264583,-0.587375 0,-0.3230563 -0.119062,-0.587375 -0.264583,-0.587375 -0.145521,0 -0.264583,0.2643187 -0.264583,0.587375 0,0.3230562 0.119062,0.587375 0.264583,0.587375 z"
         id="path1281" />
      <path
         style="opacity:1;fill:#b3b3b3;fill-opacity:1;stroke-width:0.0668173"
         d="m 38.368978,-21.102496 v -16.920055 h 17.425131 17.425132 v 16.920055 16.9200556 H 55.794109 38.368978 Z m 19.192737,12.9286171 c 0.786446,-0.815923 1.280189,-1.6082285 1.506975,-2.4182291 0.351645,-1.255953 0.3343,-1.389389 -0.61121,-4.70201 -0.534112,-1.871277 -0.8623,-5.917059 -1.10622,-13.63706 -0.129136,-4.087135 -0.312249,-6.641055 -0.501234,-6.99083 -0.608382,-1.125998 -2.519368,-1.050578 -3.080353,0.121569 -0.227044,0.474398 -0.390561,2.95042 -0.537035,8.131952 -0.225981,7.994135 -0.487079,11.165905 -1.123743,13.651051 -0.464979,1.814988 -0.328379,3.353342 0.441552,4.9726541 0.686845,1.4445636 1.552219,2.084422 2.819069,2.084422 0.890867,0 1.173124,-0.1562479 2.192199,-1.213519 z"
         id="path1313"
         transform="scale(0.26458333)" />
      <path
         style="opacity:1;fill:#b3b3b3;fill-opacity:1;stroke-width:0.0668173"
         d="m 54.954766,-31.154804 c -0.825191,-0.911826 -0.339229,-4.283341 0.539143,-3.740477 0.472358,0.291934 0.771976,1.835308 0.548579,2.825817 -0.280059,1.241745 -0.570607,1.486066 -1.087722,0.91466 z"
         id="path1315"
         transform="scale(0.26458333)" />
    </g>
  </g>
</svg>
