<?xml version="1.0" encoding="UTF-8" standalone="no"?>
<svg
   xmlns:dc="http://purl.org/dc/elements/1.1/"
   xmlns:cc="http://creativecommons.org/ns#"
   xmlns:rdf="http://www.w3.org/1999/02/22-rdf-syntax-ns#"
   xmlns:svg="http://www.w3.org/2000/svg"
   xmlns="http://www.w3.org/2000/svg"
   xmlns:sodipodi="http://sodipodi.sourceforge.net/DTD/sodipodi-0.dtd"
   xmlns:inkscape="http://www.inkscape.org/namespaces/inkscape"
   viewBox="0 0 9.7895832 9.7895832"
   version="1.1"
   id="svg1393"
   inkscape:version="1.0.1 (3bc2e813f5, 2020-09-07)"
   sodipodi:docname="grand-froid.svg"
   width="9.7895832"
   height="9.7895832">
  <metadata
     id="metadata13">
    <rdf:RDF>
      <cc:Work
         rdf:about="">
        <dc:format>image/svg+xml</dc:format>
        <dc:type
           rdf:resource="http://purl.org/dc/dcmitype/StillImage" />
      </cc:Work>
    </rdf:RDF>
  </metadata>
  <defs
     id="defs11" />
  <sodipodi:namedview
     pagecolor="#ffffff"
     bordercolor="#666666"
     borderopacity="1"
     objecttolerance="10"
     gridtolerance="10"
     guidetolerance="10"
     inkscape:pageopacity="0"
     inkscape:pageshadow="2"
     inkscape:window-width="1920"
     inkscape:window-height="1017"
     id="namedview9"
     showgrid="false"
     inkscape:zoom="13.28125"
     inkscape:cx="31.999998"
     inkscape:cy="31.999996"
     inkscape:window-x="-8"
     inkscape:window-y="-8"
     inkscape:window-maximized="1"
     inkscape:current-layer="layer1" />
  <g
     inkscape:label="Calque 1"
     inkscape:groupmode="layer"
     id="layer1"
     transform="translate(-297.16489,-250.29584)">
    <g
       id="g1358"
       transform="translate(275.6,260.88623)">
      <path
         style="fill:#000000;stroke-width:0.32188"
         d="m 26.459684,-0.8008028 h -4.894792 v -4.8947916 -4.8947916 h 4.894792 4.894791 v 4.8947916 4.8947916 z m 0,-0.3915833 h 4.630208 v -4.5032083 -4.5032086 h -4.630208 -4.630209 v 4.5032086 4.5032083 z M 26.31061,-1.5839695 c -0.264635,0 -0.535253,-0.1321593 -0.601373,-0.2936875 -0.06612,-0.1615281 -0.05663,-1.9236531 0.02108,-3.9158332 0.124687,-3.1962107 0.199213,-3.6221458 0.63377,-3.6221458 0.430231,0 0.492468,0.3249209 0.492468,2.5710349 0,1.4140691 0.127324,2.9231392 0.282943,3.3534893 0.205991,0.5696468 0.19718,0.935397 -0.0324,1.3447981 -0.173438,0.3092894 -0.531861,0.5623442 -0.796496,0.5623442 z m 0.01678,-3.5242499 c 0.145521,0 0.264583,-0.8810625 0.264583,-1.9579166 0,-1.0768542 -0.119062,-1.9579167 -0.264583,-1.9579167 -0.145521,0 -0.264583,0.8810625 -0.264583,1.9579167 0,1.0768541 0.119062,1.9579166 0.264583,1.9579166 z"
         id="path1279" />
      <path
         style="opacity:0.190323;fill:#008080;fill-opacity:1;stroke-width:0.252538"
         d="m 82.563152,-21.607572 v -16.920055 h 17.425131 17.425127 v 16.920055 16.9200553 H 99.988283 82.563152 Z M 101.4081,-6.7687896 c 1.09153,-0.9583771 1.84981,-2.4800962 1.85763,-3.7279074 0.003,-0.486578 -0.22121,-1.677631 -0.49837,-2.646786 -0.61938,-2.165879 -0.96818,-6.366224 -1.22714,-14.777542 -0.2113,-6.863316 -0.32257,-7.448118 -1.47204,-7.736619 -1.366107,-0.34287 -1.95345,0.589065 -2.332094,3.700323 -0.387742,3.186007 -0.772713,12.731798 -0.775663,19.233389 l -0.0026,5.7269136 0.665402,0.5234055 c 1.063626,0.8366488 2.635405,0.7140667 3.784875,-0.2951767 z"
         id="path1317"
         transform="scale(0.26458333)" />
    </g>
    <path
       style="opacity:1;fill:#b3b3b3;fill-opacity:1;stroke-width:0.0668173"
       d="M 1.0974911,18.433415 V 1.6477006 H 18.41892 35.740348 V 18.433415 35.219129 H 18.41892 1.0974911 Z M 19.015268,33.903324 c 0.788791,-0.329579 2.189287,-1.96572 2.524361,-2.949104 0.3712,-1.089412 0.344714,-1.695791 -0.172083,-3.939834 C 20.774155,24.437761 20.443,20.732679 20.209559,14.058415 20.0063,8.2471094 19.795346,5.6919819 19.457625,4.9507637 19.211291,4.4101201 18.238005,4.0895385 17.59043,4.335746 c -1.419113,0.5395457 -1.947735,5.6308277 -2.149758,20.704812 -0.102384,7.639421 -0.09346,7.958025 0.230916,8.246564 0.956292,0.850638 2.223621,1.084191 3.34368,0.616202 z"
       id="path833"
       transform="matrix(0.26458333,0,0,0.26458333,297.16489,250.29584)" />
    <path
       style="opacity:1;fill:#b3b3b3;fill-opacity:1;stroke-width:0.0668173"
       d="m 17.811435,20.397701 c -0.378489,-1.042188 -0.509504,-2.393811 -0.590422,-6.091107 -0.09033,-4.127449 0.0745,-6.67487 0.504813,-7.8018485 0.172393,-0.451492 0.199122,-0.4615376 0.421701,-0.1584932 0.940863,1.2809953 0.940384,12.7177667 -5.86e-4,13.9957537 -0.201202,0.273264 -0.253348,0.28192 -0.335506,0.0557 z"
       id="path835"
       transform="matrix(0.26458333,0,0,0.26458333,297.16489,250.29584)" />
  </g>
</svg>
