<?xml version="1.0" encoding="UTF-8" standalone="no"?>
<svg
   xmlns:dc="http://purl.org/dc/elements/1.1/"
   xmlns:cc="http://creativecommons.org/ns#"
   xmlns:rdf="http://www.w3.org/1999/02/22-rdf-syntax-ns#"
   xmlns:svg="http://www.w3.org/2000/svg"
   xmlns="http://www.w3.org/2000/svg"
   xmlns:sodipodi="http://sodipodi.sourceforge.net/DTD/sodipodi-0.dtd"
   xmlns:inkscape="http://www.inkscape.org/namespaces/inkscape"
   viewBox="0 0 9.7895832 9.7895832"
   version="1.1"
   id="svg1393"
   inkscape:version="1.0.1 (3bc2e813f5, 2020-09-07)"
   sodipodi:docname="inondation.svg"
   width="9.7895832"
   height="9.7895832">
  <metadata
     id="metadata11">
    <rdf:RDF>
      <cc:Work
         rdf:about="">
        <dc:format>image/svg+xml</dc:format>
        <dc:type
           rdf:resource="http://purl.org/dc/dcmitype/StillImage" />
      </cc:Work>
    </rdf:RDF>
  </metadata>
  <defs
     id="defs9" />
  <sodipodi:namedview
     pagecolor="#ffffff"
     bordercolor="#666666"
     borderopacity="1"
     objecttolerance="10"
     gridtolerance="10"
     guidetolerance="10"
     inkscape:pageopacity="0"
     inkscape:pageshadow="2"
     inkscape:window-width="1920"
     inkscape:window-height="1017"
     id="namedview7"
     showgrid="false"
     inkscape:zoom="13.28125"
     inkscape:cx="32"
     inkscape:cy="20.943708"
     inkscape:window-x="-8"
     inkscape:window-y="-8"
     inkscape:window-maximized="1"
     inkscape:current-layer="layer1" />
  <g
     inkscape:label="Calque 1"
     inkscape:groupmode="layer"
     id="layer1"
     transform="translate(-52.954474,-125.5259)">
    <g
       id="g1371"
       transform="translate(62.392847,115.8038)">
      <path
         style="fill:#000000;stroke-width:0.32188"
         d="M -9.438373,14.616889 V 9.7220969 h 4.894792 4.89479095 V 14.616889 19.51168 H -4.543581 -9.438373 Z m 9.52499995,0 V 10.11368 H -4.543581 -9.17379 v 2.180097 c 0,2.075406 0.02859,2.16784 0.595313,1.924873 0.327422,-0.140372 0.932974,-0.609257 1.345671,-1.041967 l 0.750358,-0.786745 0.645938,0.898105 c 0.860196,1.196005 2.253584,1.197735 3.112244,0.0039 0.548344,-0.762411 0.676197,-0.806869 0.867263,-0.301574 0.123257,0.325967 0.581231,0.86826 1.01772095,1.205094 0.443833,0.342503 0.605269,0.613492 0.366278,0.614841 -0.235037,0.0013 -0.74105295,-0.362802 -1.12447895,-0.809175 l -0.69714,-0.811589 -0.69714,0.811588 c -0.867719,1.010171 -1.577534,1.024222 -2.654264,0.05254 -0.827969,-0.747189 -0.849716,-0.747172 -1.841881,0.0015 -0.552211,0.416669 -1.157439,0.75758 -1.344951,0.75758 -0.23686,0 -0.340931,0.657425 -0.340931,2.153708 v 2.153708 h 4.630209 4.63020795 z M -1.594659,16.353881 c -0.641189,-0.746452 -0.739524,-0.761433 -1.285177,-0.195792 -0.808842,0.838472 -2.379468,0.774277 -3.155338,-0.128967 -0.624976,-0.727577 -0.64851,-0.727577 -1.255618,0 -0.340287,0.407812 -0.873405,0.737605 -1.184705,0.732875 -0.391488,-0.006 -0.219295,-0.241516 0.558478,-0.764021 0.618464,-0.415482 1.124479,-0.955914 1.124479,-1.20096 0,-0.245046 0.366323,0.01066 0.81405,0.56823 1.070375,1.332978 2.239677,1.332249 3.180648,-0.002 0.673613,-0.955136 0.725974,-0.970932 0.877427,-0.264695 0.08859,0.41308 0.546644,1.035111 1.01790795,1.382291 0.47194,0.347678 0.664877,0.642484 0.429503,0.656278 -0.235037,0.01377 -0.73978195,-0.338691 -1.12165495,-0.783256 z"
         id="path1225" />
      <path
         style="opacity:1;fill:#b3b3b3;fill-opacity:1;stroke-width:0.0668173"
         d="m -34.542754,65.202413 c 0.07777,-3.784916 0.26455,-7.290867 0.415075,-7.791002 0.236883,-0.787068 0.519671,-1.0323 2.103118,-1.823816 1.006189,-0.502962 2.953106,-1.713161 4.326481,-2.68933 1.373376,-0.97617 2.756658,-1.774854 3.07396,-1.774854 0.317303,0 1.068727,0.397287 1.669833,0.88286 4.388442,3.544984 5.250451,4.00616 7.201769,3.852961 1.747561,-0.137202 2.900313,-0.934853 5.181739,-3.585525 l 1.8413944,-2.139421 0.8535511,0.936504 c 2.8130627,3.086456 3.398537,3.653318 4.4847515,4.342173 1.3549404,0.859279 1.8064659,0.939512 2.0286616,0.360481 0.1073489,-0.279747 -0.5646475,-1.099355 -2.2258459,-2.714785 -1.584005,-1.540361 -2.6301796,-2.802288 -3.1290232,-3.774321 -1.0206506,-1.988806 -1.4858258,-1.912819 -3.5284725,0.576383 -2.013984,2.454271 -3.446776,3.355628 -5.546629,3.489337 -2.753584,0.175335 -4.429197,-0.879719 -6.985902,-4.398694 -0.847595,-1.166605 -1.603106,-2.121101 -1.678913,-2.121101 -0.07581,0 -1.34103,1.167797 -2.811607,2.595103 -3.876779,3.762711 -5.918991,5.000783 -6.798341,4.121432 -0.368238,-0.368237 -0.431272,-1.337366 -0.511326,-7.861423 l -0.09131,-7.441408 H -17.217036 0.23571924 V 55.164022 72.084077 H -17.224214 -34.684147 Z m 33.2548425,-0.757615 c -0.011541,-0.433476 -0.6346789,-1.116324 -2.2896093,-2.50899 -1.7678629,-1.487703 -3.1077141,-3.446221 -3.6392765,-5.319692 -0.5497629,-1.937612 -1.007756,-1.914908 -2.5471578,0.126269 -1.8865739,2.501514 -3.1625869,3.738629 -4.5212689,4.383439 -2.683958,1.273768 -4.666502,0.50201 -8.217064,-3.19871 -1.324778,-1.380805 -2.580423,-2.510554 -2.790322,-2.510554 -0.209899,0 -0.516585,0.373199 -0.681525,0.82933 -0.376293,1.040621 -1.729622,2.37242 -4.546298,4.473971 -2.406408,1.795445 -2.993863,2.782846 -1.649428,2.772373 1.324658,-0.01032 2.912943,-0.98178 4.752533,-2.906851 0.991149,-1.037205 1.96814,-1.885827 2.171091,-1.885827 0.202951,0 1.093537,0.731032 1.979079,1.624516 2.19947,2.219196 3.967073,3.014104 6.709091,3.017147 2.45079,0.0027 4.131935,-0.669737 6.14575,-2.458289 0.7265402,-0.645272 1.5065042,-1.173222 1.7332506,-1.173222 0.2267464,0 1.2936519,0.905395 2.3709038,2.011989 1.0772494,1.106594 2.3368743,2.242592 2.7991655,2.524437 0.9378787,0.571802 2.2341039,0.687742 2.2210856,0.198664 z"
         id="path1285"
         transform="scale(0.26458333)" />
    </g>
  </g>
</svg>
