<?xml version="1.0" encoding="UTF-8" standalone="no"?>
<svg
   xmlns:dc="http://purl.org/dc/elements/1.1/"
   xmlns:cc="http://creativecommons.org/ns#"
   xmlns:rdf="http://www.w3.org/1999/02/22-rdf-syntax-ns#"
   xmlns:svg="http://www.w3.org/2000/svg"
   xmlns="http://www.w3.org/2000/svg"
   xmlns:sodipodi="http://sodipodi.sourceforge.net/DTD/sodipodi-0.dtd"
   xmlns:inkscape="http://www.inkscape.org/namespaces/inkscape"
   viewBox="0 0 9.7895832 9.7895832"
   version="1.1"
   id="svg1393"
   inkscape:version="1.0.1 (3bc2e813f5, 2020-09-07)"
   sodipodi:docname="neige.svg"
   width="9.7895832"
   height="9.7895832">
  <metadata
     id="metadata11">
    <rdf:RDF>
      <cc:Work
         rdf:about="">
        <dc:format>image/svg+xml</dc:format>
        <dc:type
           rdf:resource="http://purl.org/dc/dcmitype/StillImage" />
      </cc:Work>
    </rdf:RDF>
  </metadata>
  <defs
     id="defs9" />
  <sodipodi:namedview
     pagecolor="#ffffff"
     bordercolor="#666666"
     borderopacity="1"
     objecttolerance="10"
     gridtolerance="10"
     guidetolerance="10"
     inkscape:pageopacity="0"
     inkscape:pageshadow="2"
     inkscape:window-width="1920"
     inkscape:window-height="1017"
     id="namedview7"
     showgrid="false"
     inkscape:zoom="13.28125"
     inkscape:cx="32"
     inkscape:cy="31.999999"
     inkscape:window-x="-8"
     inkscape:window-y="-8"
     inkscape:window-maximized="1"
     inkscape:current-layer="layer1" />
  <g
     inkscape:label="Calque 1"
     inkscape:groupmode="layer"
     id="layer1"
     transform="translate(-42.484524,-105.98452)">
    <g
       id="g1362"
       transform="translate(58.404184,115.7731)">
      <path
         style="fill:#000000;stroke-width:0.32188"
         d="m -15.91966,-4.8937868 v -4.894792 h 4.894792 4.8947916 v 4.894792 4.89479122 h -4.8947916 -4.894792 z m 9.5250003,0 v -4.503209 h -4.6302083 -4.630208 v 4.503209 4.50320792 h 4.630208 4.6302083 z m -2.7575558,3.2241205 c -1.3426915,-1.1316125 -1.4408305,-1.6962305 -0.4412138,-2.5384175 0.4476353,-0.377137 0.7770746,-0.861916 0.732087,-1.077287 -0.044987,-0.215371 -0.6382777,-0.668805 -1.3184227,-1.007631 -1.29152,-0.643394 -2.129231,-1.459359 -0.977395,-0.952023 1.4306217,0.630129 2.3957751,1.364246 2.5437095,1.934802 0.1214908,0.468568 0.269897,0.506894 0.6861442,0.177196 0.6981238,-0.552964 0.3214717,-1.117238 -1.3229928,-1.982015 -0.6849714,-0.360207 -1.0072769,-0.664709 -0.7162356,-0.676671 0.7235301,-0.02974 2.778125,1.388767 2.778125,1.918035 0,0.235918 -0.3564348,0.729117 -0.792077,1.095999 -0.4356426,0.366882 -0.7928301,0.802068 -0.79375,0.967081 -9.261e-4,0.165013 0.4150457,0.594127 0.9243687,0.953589 0.5093229,0.359461 0.9260416,0.801666 0.9260416,0.9826784 0,0.4116586 -1.3929669,-0.6337804 -1.9572785,-1.4689614 -0.4162184,-0.616003 -0.9531381,-0.480201 -0.9531381,0.241075 0,0.206145 0.4167187,0.668913 0.9260416,1.028374 0.5093229,0.3594612 0.9260417,0.7971417 0.9260417,0.9726231 0,0.42440782 0.018881,0.43357992 -1.1700558,-0.5684466 z m -4.3722895,0.117056 c -0.237019,-0.2167985 -0.249346,-0.3847375 -0.04215,-0.5742555 0.354773,-0.324508 0.390963,-1.39638 0.04715,-1.39638 -0.135126,0 -0.418609,0.255928 -0.62996,0.568728 -0.211352,0.312801 -0.457981,0.459644 -0.548066,0.32632 -0.319084,-0.472245 -0.155491,-0.813229 0.50849,-1.059869 0.738112,-0.274176 0.643098,-1.009929 -0.13042,-1.009929 -0.266885,0 -0.553777,-0.264318 -0.63754,-0.587375 -0.08889,-0.342848 -0.004,-0.587375 0.203879,-0.587375 0.195896,0 0.504394,0.264319 0.685552,0.587375 0.457644,0.816113 0.79375,0.733207 0.79375,-0.195791 0,-0.430742 -0.123757,-0.783167 -0.275015,-0.783167 -0.158558,0 -0.130548,-0.230378 0.06614,-0.544041 0.430665,-0.68677 0.698303,-0.108042 0.53494,1.15673 -0.14775,1.143899 0.451461,1.325807 0.650812,0.197574 0.07943,-0.449554 0.28392,-0.670696 0.504397,-0.54548 0.557802,0.316792 0.445465,1.229768 -0.168843,1.372211 -0.744003,0.172516 -0.782151,0.880726 -0.05566,1.033428 0.64113,0.134762 0.779199,0.639408 0.295889,1.081487 -0.164682,0.150634 -0.408723,-0.01518 -0.542313,-0.368473 -0.13359,-0.353294 -0.356038,-0.642353 -0.494328,-0.642353 -0.366777,0 -0.308201,1.473065 0.06592,1.6576296 0.210471,0.1038323 0.180113,0.2345021 -0.09014,0.3879859 -0.22412,0.1272846 -0.558233,0.093543 -0.742474,-0.07498 z"
         id="path1231" />
      <path
         style="opacity:1;fill:#b3b3b3;fill-opacity:1;stroke-width:0.0668173"
         d="m -59.110743,-18.577114 v -16.920055 h 17.425132 17.425131 v 16.920055 16.9200549 h -17.425131 -17.425132 z m 29.041886,14.6410952 c 0,-0.9403308 -1.013671,-2.0990439 -3.558588,-4.0677732 -2.88909,-2.234978 -3.690923,-3.42008 -3.222723,-4.76316 0.572646,-1.642691 2.024642,-1.441013 3.345267,0.464648 1.610723,2.3242749 5.640992,5.5944822 6.894751,5.5944822 1.32439,0 0.206273,-1.7031223 -2.554376,-3.8908352 -1.169524,-0.926806 -2.535041,-2.137411 -3.034483,-2.690233 -0.865827,-0.958366 -0.891131,-1.03721 -0.543899,-1.694584 0.200298,-0.379198 1.238099,-1.541768 2.306221,-2.583488 2.124738,-2.072212 3.398287,-3.831379 3.398287,-4.694084 0,-2.279253 -10.331279,-8.844638 -11.034438,-7.012233 -0.200604,0.522764 0.36773,0.960936 3.784599,2.917837 3.876877,2.220356 5.482073,3.729265 5.482073,5.153238 0,0.581028 -1.917361,2.372552 -2.539201,2.372552 -0.358579,0 -0.664319,-0.376923 -1.094197,-1.348952 -0.328113,-0.741923 -1.026052,-1.778433 -1.550976,-2.303355 -1.260284,-1.260286 -4.266177,-3.205453 -6.851552,-4.433763 -2.417085,-1.148355 -3.251741,-1.39918 -3.471695,-1.043287 -0.271166,0.438757 2.192805,2.318985 5.326075,4.064268 3.278733,1.826307 5.037341,3.110148 5.271684,3.848501 0.220112,0.693508 -0.921845,2.47999 -2.470391,3.864693 -4.162203,3.721822 -3.706313,5.644509 2.582028,10.8895601 3.116101,2.5991124 3.535534,2.7599741 3.535534,1.3559681 z m -17.754887,-1.8684539 0.708563,-0.6118797 -0.699454,-0.7329566 c -0.3847,-0.4031241 -0.810858,-1.1213981 -0.947018,-1.5961597 -0.380853,-1.3279593 -0.302129,-3.3279073 0.156786,-3.9831013 0.379306,-0.541534 0.433038,-0.55133 0.867502,-0.158145 0.254733,0.23053 0.709399,0.948004 1.010368,1.594387 0.30097,0.646383 0.723702,1.3741151 0.939406,1.6171831 0.966,1.0885479 2.586751,-0.055432 2.586751,-1.8258181 0,-1.110422 -0.461152,-1.601556 -2.020305,-2.151658 -2.758113,-0.973118 -2.680707,-2.65506 0.174389,-3.78929 1.350749,-0.536605 1.845916,-1.303052 1.845916,-2.857209 0,-1.449239 -0.818361,-2.571143 -1.875493,-2.571143 -0.735092,0 -1.166141,0.697109 -1.639616,2.651651 -0.325517,1.343762 -0.888602,2.399112 -1.280052,2.399112 -0.62669,0 -0.839754,-1.24031 -0.790415,-4.60125 0.03082,-2.099778 -0.0566,-3.674497 -0.22106,-3.981793 -0.565483,-1.056615 -1.757741,-0.345475 -2.524572,1.505817 -0.293929,0.709608 -0.267709,0.820428 0.323816,1.368636 0.752823,0.697692 1.082642,2.337373 0.821049,4.081802 -0.29734,1.982805 -1.000795,1.801127 -2.696915,-0.69652 -1.919661,-2.826826 -4.167386,-2.864653 -3.64147,-0.06128 0.234204,1.248419 1.254406,2.337284 2.365138,2.524324 1.54676,0.260464 1.813078,0.379144 2.209933,0.984822 0.619507,0.945487 0.04882,1.778238 -1.931931,2.819093 -1.833934,0.963706 -2.410758,1.769212 -2.113905,2.951967 0.399064,1.5899974 1.636198,1.5102964 2.852799,-0.18379 0.446854,-0.622234 1.142395,-1.366266 1.545646,-1.653406 l 0.733183,-0.522073 0.396399,0.565938 c 0.701739,1.001873 0.318559,3.2821667 -0.768656,4.5742477 -0.783591,0.931247 -0.759984,1.3167263 0.135475,2.2121861 0.970048,0.9700495 2.438909,1.0233957 3.477743,0.1263095 z"
         id="path1301"
         transform="scale(0.26458333)" />
    </g>
  </g>
</svg>
