<?xml version="1.0" encoding="UTF-8" standalone="no"?>
<svg
   xmlns:dc="http://purl.org/dc/elements/1.1/"
   xmlns:cc="http://creativecommons.org/ns#"
   xmlns:rdf="http://www.w3.org/1999/02/22-rdf-syntax-ns#"
   xmlns:svg="http://www.w3.org/2000/svg"
   xmlns="http://www.w3.org/2000/svg"
   xmlns:sodipodi="http://sodipodi.sourceforge.net/DTD/sodipodi-0.dtd"
   xmlns:inkscape="http://www.inkscape.org/namespaces/inkscape"
   viewBox="0 0 9.7895832 9.7895832"
   version="1.1"
   id="svg1393"
   inkscape:version="1.0.1 (3bc2e813f5, 2020-09-07)"
   sodipodi:docname="orage.svg"
   width="9.7895832"
   height="9.7895832">
  <metadata
     id="metadata11">
    <rdf:RDF>
      <cc:Work
         rdf:about="">
        <dc:format>image/svg+xml</dc:format>
        <dc:type
           rdf:resource="http://purl.org/dc/dcmitype/StillImage" />
      </cc:Work>
    </rdf:RDF>
  </metadata>
  <defs
     id="defs9" />
  <sodipodi:namedview
     pagecolor="#ffffff"
     bordercolor="#666666"
     borderopacity="1"
     objecttolerance="10"
     gridtolerance="10"
     guidetolerance="10"
     inkscape:pageopacity="0"
     inkscape:pageshadow="2"
     inkscape:window-width="1920"
     inkscape:window-height="1017"
     id="namedview7"
     showgrid="false"
     inkscape:zoom="13.28125"
     inkscape:cx="32"
     inkscape:cy="31.999998"
     inkscape:window-x="-8"
     inkscape:window-y="-8"
     inkscape:window-maximized="1"
     inkscape:current-layer="layer1" />
  <g
     inkscape:label="Calque 1"
     inkscape:groupmode="layer"
     id="layer1"
     transform="translate(-37.514146,-156.95462)">
    <g
       id="g1338"
       transform="translate(52.995969,178.23579)">
      <path
         style="fill:#000000;stroke-width:0.32188"
         d="m -15.481823,-16.386376 v -4.894792 h 4.894792 4.8947909 v 4.894792 4.894791 h -4.8947909 -4.894792 z m 9.5249999,0 v -4.503209 h -4.6302079 -4.630209 v 4.503209 4.503208 h 4.630209 4.6302079 z m -3.4277969,1.975914 c -0.699178,-1.067625 -0.985125,-1.273847 -1.357425,-0.978959 -0.259411,0.205472 -0.540516,0.373586 -0.624679,0.373586 -0.14667,0 -1.469266,-4.166683 -1.469266,-4.628749 0,-0.123135 0.399437,0.349099 0.887638,1.04941 0.714204,1.024506 1.024381,1.222497 1.5875,1.013323 0.384924,-0.142983 0.699862,-0.174686 0.699862,-0.07045 0,0.104235 0.296155,1.180613 0.658122,2.391951 0.361967,1.211338 0.623448,2.202433 0.581069,2.202433 -0.04238,0 -0.475648,-0.608645 -0.962821,-1.352545 z"
         id="path1229" />
      <path
         style="opacity:1;fill:#b3b3b3;fill-opacity:1;stroke-width:0.0668173"
         d="m -57.342976,-62.013674 v -16.920055 h 17.298862 17.298863 v 16.920055 16.920055 h -17.298863 -17.298862 z m 25.495988,11.681235 c -0.115675,-0.5216 -1.211855,-4.497414 -2.435955,-8.835143 -2.497331,-8.849558 -2.097406,-8.206971 -4.660215,-7.487884 -2.522853,0.707877 -3.043724,0.362106 -6.566264,-4.358897 -2.506029,-3.358647 -3.292223,-4.047308 -3.058651,-2.6792 0.384231,2.250573 4.3726,15.091497 5.122745,16.493157 0.362776,0.677852 0.692494,0.621744 2.276495,-0.387386 0.757492,-0.482581 1.557191,-0.880329 1.77711,-0.883884 0.661111,-0.01069 2.13698,1.672056 4.595323,5.239455 1.280637,1.858383 2.436729,3.53313 2.569094,3.721657 0.409976,0.583934 0.600688,0.171805 0.380318,-0.821875 z"
         id="path1299"
         transform="scale(0.26458333)" />
    </g>
  </g>
</svg>
