<svg xmlns="http://www.w3.org/2000/svg" width="10" height="10">
   <path
      d="M4.895 9.79H0V0h9.79v9.79zm0-.392c2.546 0 4.63-.157 4.63-.35 0-.191-.327-.47-.728-.617-.4-.148-.928-.537-1.174-.865-.4-.534-.51-.53-1.051.03-.332.345-1.028.627-1.545.627-.517 0-1.202-.27-1.522-.602-.523-.543-.66-.543-1.368 0-.433.331-1.032.602-1.33.602-.306 0-.542.257-.542.588 0 .5.69.587 4.63.587zm4.432-1.19c.109.008.198-1.747.198-3.9V.391H.265V7.93l.842-.25c.464-.137 1.053-.531 1.31-.875.43-.577.524-.561 1.178.2.39.455 1.094.827 1.564.827s1.169-.366 1.552-.812c.384-.446.697-.614.697-.373 0 .242.387.688.86.992.473.305.95.56 1.059.569zm-3.87-2.346a8.794 8.794 0 01-.496-.411c-.322-.277-.463-.889-.463-2v-1.6l.795 1.48c.614 1.143.727 1.6.497 2.011-.164.293-.314.526-.332.52zm-2.71-.853c-.286.063-.604-.01-.707-.163-.104-.153-.185-.997-.18-1.876l.006-1.6.78 1.371c.428.754.743 1.547.7 1.762-.044.216-.314.443-.6.506zm4.705-.31c-.266 0-.564-.117-.661-.261-.097-.144-.176-.95-.176-1.792V1.115l.661 1.163c.364.64.662 1.446.662 1.792 0 .349-.217.629-.486.629z" />
   <path
      d="M8.705 7.852c-.69-.411-1.036-.718-1.207-1.072-.081-.166-.176-.303-.212-.303-.035 0-.288.212-.562.472-1.142 1.08-2.037 1.09-3.072.035-.729-.744-.82-.762-1.23-.245-.289.365-.933.78-1.464.942l-.561.172C.287 7.887.28 7.68.28 4.143V.397h9.24L9.475 3.92c-.042 3.468-.077 4.161-.21 4.204-.036.011-.289-.112-.56-.273zM5.761 5.448c.203-.412.208-.442.133-.804-.07-.336-.618-1.482-1.2-2.51l-.209-.368.025 1.47c.016.925.056 1.57.11 1.738.084.269.68.902.848.902.045 0 .177-.193.293-.428zm-2.856-.465c.68-.288.603-.755-.443-2.649-.7-1.27-.666-1.3-.624.535.02.863.069 1.678.108 1.81.11.37.507.495.959.304zm4.797-.329c.307-.235.331-.585.091-1.306-.16-.48-1.04-2.172-1.172-2.254-.128-.079-.03 2.88.109 3.318.042.132.451.32.7.322a.517.517 0 00.272-.08z"
      fill="#b3b3b3" />
   <path
      d="M1.295 9.274c-.868-.09-1.135-.3-.918-.72.096-.185.407-.338.69-.34.134 0 .74-.323 1.209-.644.555-.38.693-.376 1.165.037.97.85 2.186.839 3.187-.028.233-.202.462-.367.509-.367.046 0 .304.22.573.49.361.362.618.55.989.726.463.22.871.541.79.621-.069.07-.786.169-1.692.233-1.12.08-5.717.074-6.502-.008z"
      fill="#b3b3b3" />
</svg>