<?xml version="1.0" encoding="UTF-8" standalone="no"?>
<svg
   xmlns:dc="http://purl.org/dc/elements/1.1/"
   xmlns:cc="http://creativecommons.org/ns#"
   xmlns:rdf="http://www.w3.org/1999/02/22-rdf-syntax-ns#"
   xmlns:svg="http://www.w3.org/2000/svg"
   xmlns="http://www.w3.org/2000/svg"
   xmlns:sodipodi="http://sodipodi.sourceforge.net/DTD/sodipodi-0.dtd"
   xmlns:inkscape="http://www.inkscape.org/namespaces/inkscape"
   viewBox="0 0 9.7895832 9.7895832"
   version="1.1"
   id="svg1393"
   inkscape:version="1.0.1 (3bc2e813f5, 2020-09-07)"
   sodipodi:docname="pluie-inondation.svg"
   width="9.7895832"
   height="9.7895832">
  <metadata
     id="metadata12">
    <rdf:RDF>
      <cc:Work
         rdf:about="">
        <dc:format>image/svg+xml</dc:format>
        <dc:type
           rdf:resource="http://purl.org/dc/dcmitype/StillImage" />
      </cc:Work>
    </rdf:RDF>
  </metadata>
  <defs
     id="defs10" />
  <sodipodi:namedview
     pagecolor="#ffffff"
     bordercolor="#666666"
     borderopacity="1"
     objecttolerance="10"
     gridtolerance="10"
     guidetolerance="10"
     inkscape:pageopacity="0"
     inkscape:pageshadow="2"
     inkscape:window-width="1920"
     inkscape:window-height="1017"
     id="namedview8"
     showgrid="false"
     inkscape:zoom="13.28125"
     inkscape:cx="31.999996"
     inkscape:cy="31.999997"
     inkscape:window-x="-8"
     inkscape:window-y="-8"
     inkscape:window-maximized="1"
     inkscape:current-layer="layer1" />
  <g
     inkscape:label="Calque 1"
     inkscape:groupmode="layer"
     id="layer1"
     transform="translate(-213.68884,-291.55193)">
    <g
       id="g1367"
       transform="translate(242.17017,290.64973)">
      <path
         style="fill:#000000;stroke-width:0.32188"
         d="m -23.586534,10.691786 h -4.894792 V 5.7969944 0.90220321 h 4.894792 4.894791 V 5.7969944 10.691786 Z m 0,-0.391583 c 2.546614,0 4.630208,-0.15711 4.630208,-0.3491326 0,-0.192023 -0.327422,-0.47007 -0.727604,-0.617884 -0.400183,-0.147812 -0.928675,-0.536888 -1.174427,-0.864612 -0.400418,-0.533978 -0.509578,-0.530809 -1.051059,0.03051 -0.33233,0.344504 -1.027502,0.626371 -1.544827,0.626371 -0.517324,0 -1.202174,-0.271166 -1.521886,-0.602591 -0.523232,-0.542399 -0.659945,-0.542399 -1.368649,0 -0.433044,0.331425 -1.031391,0.602591 -1.329659,0.602591 -0.305661,0 -0.542306,0.256311 -0.542306,0.587375 0,0.4997336 0.690857,0.5873746 4.630209,0.5873746 z m 4.43177,-1.1900776 c 0.109141,0.0084 0.198438,-1.746797 0.198438,-3.9005056 V 1.2937865 h -4.630208 -4.630209 v 3.7689896 3.7689893 l 0.842535,-0.24939 c 0.463394,-0.137165 1.052906,-0.531158 1.310027,-0.875541 0.430504,-0.57661 0.523671,-0.56075 1.177522,0.200442 0.390516,0.454626 1.094635,0.826593 1.564708,0.826593 0.470073,0 1.168392,-0.365214 1.551818,-0.811587 0.383427,-0.446374 0.69714,-0.61408 0.69714,-0.37268 0,0.241399 0.386953,0.687822 0.859896,0.992052 0.472943,0.304229 0.949193,0.560041 1.058333,0.568471 z m -3.868855,-2.34608 c -0.01856,-0.0065 -0.242108,-0.191517 -0.49677,-0.411041 -0.321478,-0.277121 -0.46302,-0.8884646 -0.46302,-1.9998536 v -1.60072 l 0.794827,1.4802375 c 0.613853,1.1432021 0.726963,1.6012601 0.49677,2.0117611 -0.163932,0.292338 -0.313245,0.526165 -0.331807,0.519616 z m -2.711194,-0.852637 c -0.285632,0.06293 -0.603728,-0.01049 -0.70688,-0.163159 -0.103152,-0.152666 -0.184347,-0.9971084 -0.180432,-1.8765393 l 0.0071,-1.5989653 0.779041,1.3705417 c 0.428472,0.7537979 0.743365,1.5467541 0.699762,1.762125 -0.0436,0.2153709 -0.312976,0.4430699 -0.598608,0.5059969 z m 4.705918,-0.310205 c -0.266789,0 -0.564445,-0.1174753 -0.661459,-0.2610559 -0.09701,-0.1435803 -0.176389,-0.9500567 -0.176389,-1.7921692 V 2.0168645 l 0.661459,1.1634259 c 0.363802,0.6398842 0.661458,1.4463604 0.661458,1.7921693 0,0.3486349 -0.216101,0.6287437 -0.485069,0.6287437 z"
         id="path1273" />
      <path
         style="opacity:1;fill:#b3b3b3;fill-opacity:1;stroke-width:0.0668173"
         d="m -74.743427,33.085246 c -2.610825,-1.553157 -3.918869,-2.713108 -4.565276,-4.048404 -0.305371,-0.630816 -0.664657,-1.146939 -0.798409,-1.146939 -0.133754,0 -1.090955,0.802414 -2.127116,1.783143 -4.312977,4.082245 -7.69676,4.120595 -11.608036,0.131555 -2.755571,-2.810357 -3.100725,-2.878881 -4.649725,-0.92311 -1.092005,1.37877 -3.524801,2.943678 -5.532681,3.558919 -0.92365,0.28302 -1.87823,0.575835 -2.1213,0.650705 -0.41726,0.128522 -0.44194,-0.654622 -0.44194,-14.023029 V 4.9089325 h 17.460022 17.460025 l -0.162574,13.3213865 c -0.159971,13.108053 -0.290409,15.727479 -0.791096,15.886687 -0.138896,0.04417 -1.093748,-0.420125 -2.121894,-1.03176 z m -11.129306,-9.085733 c 0.766657,-1.557303 0.785334,-1.670445 0.501458,-3.037867 -0.263529,-1.269411 -2.33473,-5.601423 -4.535748,-9.486722 l -0.786844,-1.38896 0.09441,5.555839 c 0.05939,3.494784 0.212151,5.930577 0.411797,6.565992 0.319699,1.017509 2.569863,3.409265 3.207436,3.409265 0.171146,0 0.669517,-0.727896 1.107491,-1.617547 z m -10.794946,-1.756864 c 2.574636,-1.089727 2.280523,-2.851098 -1.671486,-10.010111 -2.649535,-4.7996071 -2.518795,-4.911557 -2.359435,2.020306 0.0751,3.264055 0.25862,6.343716 0.40795,6.84369 0.416269,1.393762 1.916544,1.868369 3.622971,1.146115 z m 18.133385,-1.242442 c 1.157549,-0.888739 1.249356,-2.213251 0.342068,-4.93507 -0.604935,-1.814777 -3.931587,-8.2122382 -4.430743,-8.520734 -0.481174,-0.2973818 -0.113282,10.883897 0.412627,12.540889 0.157743,0.497004 1.706427,1.210178 2.64401,1.217575 0.34724,0.0027 0.811658,-0.133457 1.032038,-0.30266 z"
         id="path1287"
         transform="scale(0.26458333)" />
      <path
         style="opacity:1;fill:#b3b3b3;fill-opacity:1;stroke-width:0.0668173"
         d="m -102.75038,38.462361 c -3.28057,-0.343476 -4.29074,-1.134834 -3.47133,-2.719396 0.36256,-0.70112 1.53957,-1.281012 2.60952,-1.285662 0.50515,-0.0022 2.79586,-1.224366 4.566649,-2.436463 2.098632,-1.436502 2.620636,-1.419891 4.403348,0.140119 3.669587,3.211173 8.264142,3.170399 12.048576,-0.106925 0.880388,-0.762416 1.744843,-1.386212 1.921014,-1.386212 0.176168,0 1.150592,0.832128 2.165383,1.849173 1.366595,1.369629 2.336256,2.082409 3.739113,2.748558 1.748713,0.830378 3.292549,2.042887 2.98839,2.347046 -0.263125,0.263125 -2.971614,0.635647 -6.397655,0.879925 -4.230321,0.301623 -21.607824,0.280293 -24.573008,-0.03016 z"
         id="path1289"
         transform="scale(0.26458333)" />
    </g>
  </g>
</svg>
