<?xml version="1.0" encoding="UTF-8" standalone="no"?>
<svg
   xmlns:dc="http://purl.org/dc/elements/1.1/"
   xmlns:cc="http://creativecommons.org/ns#"
   xmlns:rdf="http://www.w3.org/1999/02/22-rdf-syntax-ns#"
   xmlns:svg="http://www.w3.org/2000/svg"
   xmlns="http://www.w3.org/2000/svg"
   xmlns:sodipodi="http://sodipodi.sourceforge.net/DTD/sodipodi-0.dtd"
   xmlns:inkscape="http://www.inkscape.org/namespaces/inkscape"
   viewBox="0 0 9.7895832 9.7895832"
   version="1.1"
   id="svg1393"
   inkscape:version="1.0.1 (3bc2e813f5, 2020-09-07)"
   sodipodi:docname="vague-submersion.svg"
   width="9.7895832"
   height="9.7895832">
  <metadata
     id="metadata12">
    <rdf:RDF>
      <cc:Work
         rdf:about="">
        <dc:format>image/svg+xml</dc:format>
        <dc:type
           rdf:resource="http://purl.org/dc/dcmitype/StillImage" />
      </cc:Work>
    </rdf:RDF>
  </metadata>
  <defs
     id="defs10" />
  <sodipodi:namedview
     pagecolor="#ffffff"
     bordercolor="#666666"
     borderopacity="1"
     objecttolerance="10"
     gridtolerance="10"
     guidetolerance="10"
     inkscape:pageopacity="0"
     inkscape:pageshadow="2"
     inkscape:window-width="1920"
     inkscape:window-height="1017"
     id="namedview8"
     showgrid="false"
     inkscape:zoom="13.28125"
     inkscape:cx="32"
     inkscape:cy="32"
     inkscape:window-x="-8"
     inkscape:window-y="-8"
     inkscape:window-maximized="1"
     inkscape:current-layer="layer1" />
  <g
     inkscape:label="Calque 1"
     inkscape:groupmode="layer"
     id="layer1"
     transform="translate(-67.082348,-79.138244)">
    <g
       id="g1343"
       transform="translate(70.44034,99.149881)">
      <path
         style="fill:#000000;stroke-width:0.32188"
         d="m 1.5367999,-10.222054 h -4.894792 v -4.894791 -4.894792 h 4.894792 4.894791 v 4.894792 4.894791 z m -4.328005,-0.391583 c 0.166212,0 1.148478,-0.369793 2.18281205,-0.821762 1.034335,-0.45197 2.33065095,-1.192227 2.88070295,-1.645017 0.719979,-0.59267 0.948483,-0.993152 0.815827,-1.429842 -0.101347,-0.333623 -0.168559,-1.103822 -0.149359,-1.711554 0.02236,-0.707725 -0.0807,-1.049325 -0.28666,-0.950193 -0.176863,0.08512 -0.59838,0.890732 -0.936705,1.790237 -0.494216,1.313974 -0.76090195,1.635464 -1.35666495,1.635464 -0.407842,0 -0.888844,-0.262705 -1.068896,-0.583788 -0.180051,-0.321084 -0.274311,-1.118784 -0.209467,-1.772666 0.07172,-0.723234 0.0094,-1.135338 -0.15919205,-1.05218 -0.152401,0.07518 -0.660127,0.916937 -1.128281,1.870562 -0.582348,1.186238 -0.856737,2.197658 -0.868755,3.202301 -0.01023,0.854945 0.108691,1.468438 0.284638,1.468438 z m -0.182326,-3.915833 c 0.06593,0 0.309796,-0.592329 0.541918,-1.316285 0.232121,-0.723957 0.71956,-1.516913 1.083196,-1.762125 0.36363705,-0.245212 0.83414905,-0.44584 1.04558305,-0.44584 0.211434,0 0.384425,0.06103 0.384425,0.135629 0,0.0746 -0.186557,0.689096 -0.414572,1.365555 -0.228015,0.676458 -0.340051,1.408381 -0.248969,1.626495 0.09108,0.218114 0.452045,0.396571 0.802139,0.396571 0.392771,0 0.754084,-0.337407 0.94348995,-0.881063 0.168825,-0.484584 0.550956,-1.277541 0.849179,-1.762125 0.313769,-0.509845 0.852038,-0.881062 1.277548,-0.881062 0.732152,0 0.733469,0.0048 0.305347,1.108801 -0.236486,0.60984 -0.353748,1.402796 -0.260581,1.762125 0.09317,0.359328 0.262481,0.653324 0.376254,0.653324 0.113772,0 0.712821,-0.684494 1.33122,-1.521097 0.774207,-1.047388 1.124362,-1.840056 1.124362,-2.545291 v -1.024196 h -4.630208 -4.630209 v 2.545292 c 0,1.39991 0.05394,2.545292 0.119878,2.545292 z"
         id="path1275" />
      <path
         style="opacity:1;fill:#b3b3b3;fill-opacity:1;stroke-width:0.0668173"
         d="m -0.03156687,-55.188295 c -2.68648453,-0.789302 -2.75584083,-1.879675 -0.56826864,-8.933927 1.28187424,-4.133653 1.27535118,-4.193704 -0.45634019,-4.201038 -0.5491467,-0.0023 -1.6344213,0.357001 -2.7228331,0.901511 -1.3838423,0.692308 -2.0390283,1.212338 -2.784015,2.209709 -1.2275515,1.643418 -2.1722944,3.523075 -3.0672323,6.102555 -0.9636739,2.777598 -1.3293649,3.661803 -1.5144549,3.661803 -0.247356,0 -0.488862,-6.320022 -0.488862,-12.793105 v -5.894717 H 5.7915582 23.21669 l -0.003,2.335977 c -0.0036,2.771047 -0.414437,4.48012 -1.659978,6.904732 -1.514072,2.947355 -6.76188,9.699651 -7.53845,9.699651 -0.18305,0 -0.588407,-0.59413 -0.900792,-1.32029 -0.781301,-1.816183 -0.588955,-3.766155 0.775202,-7.858884 1.25837,-3.775339 1.213347,-3.954122 -0.994827,-3.950439 -1.116353,0.0019 -1.706316,0.165896 -2.750608,0.764784 -1.6963054,0.97281 -2.5471713,2.143109 -4.3996555,6.051376 -0.8229435,1.736199 -1.7360231,3.645341 -2.0290658,4.242536 -0.8173637,1.665714 -2.3177799,2.4977 -3.74707657,2.077766 z"
         id="path1303"
         transform="scale(0.26458333)" />
      <path
         style="opacity:1;fill:#b3b3b3;fill-opacity:1;stroke-width:0.0668173"
         d="m -11.003538,-41.14346 c -0.499971,-1.1966 -0.506177,-6.34419 -0.01045,-8.668739 0.446195,-2.092289 1.3240593,-4.68241 2.3542887,-6.94628 1.0398291,-2.284964 3.4916911,-6.625705 4.2205179,-7.471943 l 0.5920615,-0.68744 0.1389329,0.631345 c 0.076413,0.34724 0.1718918,2.506441 0.2121752,4.798225 0.068606,3.903094 0.1131052,4.237697 0.7029318,5.285567 0.8118101,1.442239 2.34707707,2.29095 4.1418085,2.289633 2.3906442,-0.0017 3.2602601,-1.04539 5.4409539,-6.529744 1.2415426,-3.122428 1.8801633,-4.427347 2.7053779,-5.528008 1.1763757,-1.569036 1.3364947,-1.151057 1.6204167,4.230014 0.120922,2.291783 0.291481,4.738819 0.379019,5.437856 0.146924,1.173258 0.09311,1.357576 -0.699919,2.397308 -2.2610602,2.964448 -8.6312968,6.796894 -16.493502,9.92278 -4.917835,1.955251 -4.843316,1.943459 -5.304611,0.839426 z"
         id="path1305"
         transform="scale(0.26458333)" />
    </g>
  </g>
</svg>
