<?xml version="1.0" encoding="UTF-8" standalone="no"?>
<svg
   xmlns:dc="http://purl.org/dc/elements/1.1/"
   xmlns:cc="http://creativecommons.org/ns#"
   xmlns:rdf="http://www.w3.org/1999/02/22-rdf-syntax-ns#"
   xmlns:svg="http://www.w3.org/2000/svg"
   xmlns="http://www.w3.org/2000/svg"
   xmlns:sodipodi="http://sodipodi.sourceforge.net/DTD/sodipodi-0.dtd"
   xmlns:inkscape="http://www.inkscape.org/namespaces/inkscape"
   viewBox="0 0 9.7895832 9.7895823"
   version="1.1"
   id="svg1393"
   inkscape:version="1.0.1 (3bc2e813f5, 2020-09-07)"
   sodipodi:docname="vent.svg"
   width="9.7895832"
   height="9.7895823">
  <metadata
     id="metadata14">
    <rdf:RDF>
      <cc:Work
         rdf:about="">
        <dc:format>image/svg+xml</dc:format>
        <dc:type
           rdf:resource="http://purl.org/dc/dcmitype/StillImage" />
      </cc:Work>
    </rdf:RDF>
  </metadata>
  <defs
     id="defs12" />
  <sodipodi:namedview
     pagecolor="#ffffff"
     bordercolor="#666666"
     borderopacity="1"
     objecttolerance="10"
     gridtolerance="10"
     guidetolerance="10"
     inkscape:pageopacity="0"
     inkscape:pageshadow="2"
     inkscape:window-width="1920"
     inkscape:window-height="1017"
     id="namedview10"
     showgrid="false"
     inkscape:zoom="13.28125"
     inkscape:cx="32"
     inkscape:cy="31.999995"
     inkscape:window-x="-8"
     inkscape:window-y="-8"
     inkscape:window-maximized="1"
     inkscape:current-layer="layer1" />
  <g
     inkscape:label="Calque 1"
     inkscape:groupmode="layer"
     id="layer1"
     transform="translate(-88.559827,-201.95268)">
    <g
       id="g1334"
       transform="translate(116.89975,212.88496)">
      <path
         style="fill:#000000;stroke-width:0.32188"
         d="m -28.339923,-6.0374836 v -4.8947914 h 4.894792 4.894791 v 4.8947914 4.8947913 h -4.894791 -4.894792 z m 9.525,0 v -4.5032084 h -4.630208 -4.630209 v 4.5032084 4.5032083 h 4.630209 4.630208 z m -6.740151,2.6564089 c -0.101453,-0.8003685 -0.421703,-1.9483185 -0.711668,-2.5509997 -0.412181,-0.8567068 -0.474665,-1.3294857 -0.286386,-2.1669299 0.429131,-1.9087327 1.247988,-1.9234387 3.84907,-0.069128 1.627579,1.1603009 2.244868,1.7839224 2.05052,2.0715564 -0.152928,0.2263344 -0.278052,0.820163 -0.278052,1.3196193 0,0.7399641 -0.110224,0.871056 -0.595312,0.7080179 -4.02829,-1.3539068 -3.949533,-1.3660533 -3.739623,0.5767467 0.213412,1.9752254 -0.0399,2.0727715 -0.288549,0.1111173 z m 4.423658,-2.2648255 c 0.09601,-0.7433231 0.01472,-0.9789583 -0.337723,-0.9789583 -0.427718,0 -0.785367,0.7278782 -0.785367,1.5983597 0,0.1977562 0.224245,0.3595569 0.498322,0.3595569 0.321436,0 0.543206,-0.3474946 0.624768,-0.9789583 z m -2.018756,-0.7940597 c 0.308139,-1.4570385 0.152978,-1.905917 -0.525594,-1.5205358 -0.566903,0.3219607 -0.805475,1.6464842 -0.420286,2.3333868 0.472245,0.8421508 0.623334,0.7123108 0.94588,-0.812851 z m -2.279334,-0.4981653 c 0,-0.6030383 0.14089,-1.3049514 0.31309,-1.5598069 0.404598,-0.598805 0.156983,-0.960134 -0.429653,-0.6269661 -0.600339,0.3409497 -0.942027,1.7353344 -0.636614,2.5979355 0.366142,1.0341199 0.753177,0.8228356 0.753177,-0.4111625 z"
         id="path1227" />
      <path
         style="opacity:1;fill:#b3b3b3;fill-opacity:1;stroke-width:0.0668173"
         d="m -106.08284,-22.870263 v -16.920055 h 17.425135 17.425132 v 16.920055 16.9200556 h -17.425132 -17.425135 z m 10.81498,11.277634 c -0.447433,-5.172736 -0.415715,-6.456802 0.170433,-6.89956 0.83042,-0.627274 2.934812,-0.239723 8.637337,1.590676 2.888743,0.92723 5.583292,1.740653 5.987889,1.807605 0.988512,0.16358 1.41043,-0.457383 1.412852,-2.07938 0.0026,-1.739213 0.453599,-4.40253 0.89645,-5.293832 0.200384,-0.403304 0.364334,-0.951541 0.364334,-1.218304 0,-1.494929 -8.954701,-8.602326 -14.034904,-11.139584 -5.06359,-2.52896 -7.031584,-1.721977 -8.450551,3.465179 -0.86214,3.151599 -0.65628,5.348055 0.842332,8.987518 1.282528,3.114693 2.414366,7.404584 3.051768,11.566813 0.218534,1.4270197 0.533279,2.8475468 0.699434,3.1567267 0.301058,0.5602053 0.302765,0.5596674 0.495144,-0.1557858 0.106175,-0.394861 0.07354,-2.0994934 -0.07252,-3.7880719 z"
         id="path1291"
         transform="scale(0.26458333)" />
      <path
         style="opacity:1;fill:#b3b3b3;fill-opacity:1;stroke-width:0.0668173"
         d="m -83.469174,-18.158671 c -0.396334,-0.289806 -0.445622,-0.593038 -0.338645,-2.083439 0.204356,-2.84709 1.609047,-4.920231 3.083108,-4.550265 1.004814,0.252192 1.154814,2.338457 0.356082,4.95257 -0.540444,1.768783 -1.941661,2.528531 -3.100545,1.681134 z"
         id="path1293"
         transform="scale(0.26458333)" />
      <path
         style="opacity:1;fill:#b3b3b3;fill-opacity:1;stroke-width:0.0668173"
         d="m -90.661282,-20.902399 c -1.288027,-2.25525 -1.26429,-5.293999 0.05976,-7.649972 0.699313,-1.244339 2.224113,-2.160656 2.888048,-1.73555 0.690099,0.441859 0.543579,4.316706 -0.283948,7.50921 -0.951681,3.671475 -1.441538,4.016511 -2.663856,1.876312 z"
         id="path1295"
         transform="scale(0.26458333)" />
      <path
         style="opacity:1;fill:#b3b3b3;fill-opacity:1;stroke-width:0.0668173"
         d="m -97.978494,-23.024495 c -2.029146,-2.579643 -1.475266,-8.576596 0.998559,-10.811548 1.094164,-0.988512 2.337623,-1.22194 2.617938,-0.491451 0.08797,0.229244 -0.17227,1.097568 -0.586571,1.95717 -0.864808,1.794329 -1.279457,3.812982 -1.299535,6.326581 -0.01487,1.862375 -0.412534,3.447641 -0.905127,3.608287 -0.15842,0.05166 -0.529788,-0.213403 -0.825264,-0.589039 z"
         id="path1297"
         transform="scale(0.26458333)" />
    </g>
  </g>
</svg>
