<?xml version="1.0"?>
<svg xmlns="http://www.w3.org/2000/svg" xmlns:xlink="http://www.w3.org/1999/xlink" width="64" height="64" viewBox="0 0 64 64" style="enable-background:new 0 0 64 64">
  <defs>
    <linearGradient id="0" gradientUnits="userSpaceOnUse" x1="10.5" x2="53.5">
      <stop style="stop-color:#c9d0e4"/>
      <stop offset=".0139" style="stop-color:#c4cadd"/>
      <stop offset=".0797" style="stop-color:#b0b4c3"/>
      <stop offset=".1524" style="stop-color:#a0a2af"/>
      <stop offset=".2346" style="stop-color:#9596a1"/>
      <stop offset=".3343" style="stop-color:#8e8e99"/>
      <stop offset=".5" style="stop-color:#8c8c96"/>
      <stop offset=".6327" style="stop-color:#8e8f99"/>
      <stop offset=".7393" style="stop-color:#9698a3"/>
      <stop offset=".8368" style="stop-color:#a4a6b4"/>
      <stop offset=".9283" style="stop-color:#b6bbcc"/>
      <stop offset="1" style="stop-color:#c9d0e4"/>
    </linearGradient>
    <linearGradient id="1" gradientUnits="userSpaceOnUse" x1="15.8943" y1="30.223" x2="49.8127" y2="10.6401">
      <stop style="stop-color:#ccd3e7"/>
      <stop offset=".1314" style="stop-color:#bfc5d7"/>
      <stop offset=".5145" style="stop-color:#9ea1af"/>
      <stop offset=".8172" style="stop-color:#8a8a95"/>
      <stop offset="1" style="stop-color:#82828c"/>
    </linearGradient>
  </defs>
  <path d="m4.5 6.5h55v57h-55z" style="fill:#8b96ac"/>
  <path d="m59 7v56h-54v-56h54m1-1h-1-54-1v1 56 1h1 54 1v-1-56-1z" style="fill:#676b72"/>
  <path d="m10.5 59.5v-42.54c6.55-.3 14.14-.46 21.99-.46 7.43 0 14.68.14 21.01.41v42.59h-43" style="fill:url(#0)"/>
  <path d="m32.49 17c7.25 0 14.31.14 20.51.39v41.61h-42v-41.57c6.42-.28 13.83-.43 21.49-.43m0-1c-8.33 0-16.07.18-22.49.48v43.52h44v-43.57c-6.22-.27-13.6-.43-21.51-.43z" style="fill:#666e7f"/>
  <path d="m14.5 1.5h35v11h-35z" style="fill:#e8422e"/>
  <path d="m49 2v10h-34v-10h34m1-1h-1-34-1v1 10 1h1 34 1v-1-10-1z" style="fill:#cc2215"/>
  <path d="m17.5 41.5h14v14h-14z" style="fill:#737a8e"/>
  <path d="m31 42v13h-13v-13h13m1-1h-15v15h15v-15z" style="fill:#3f434c"/>
  <path d="m18 48h11v1h-11z" style="fill:#4b5059"/>
  <circle cx="26" cy="48.5" r="2"/>
  <path d="m32 32.78c-11.85 0-21.5-6.6-21.5-14.7 0-.36.03-.74.1-1.19 6.57-.26 14.14-.39 21.91-.39 7.36 0 14.58.12 20.9.35.07.47.1.86.1 1.23-.01 8.11-9.65 14.7-21.51 14.7" style="fill:url(#1)"/>
  <path d="m32.5 17c7.2 0 14.25.12 20.45.34.03.27.04.51.04.74 0 7.83-9.42 14.2-21 14.2s-21-6.37-21-14.2c0-.22.01-.45.04-.71 6.47-.24 13.87-.37 21.47-.37m0-1c-8.23 0-15.9.15-22.34.41-.09.55-.17 1.1-.17 1.67 0 8.4 9.85 15.2 22 15.2s22-6.81 22-15.2c0-.58-.07-1.15-.17-1.71-6.22-.24-13.51-.37-21.32-.37z" style="fill:#666e7f"/>
  <g style="fill:#cc2215">
    <path d="m15 6h34v1h-34z"/>
    <path d="m44 2h1v4h-1z"/>
    <path d="m19 2h1v4h-1z"/>
  </g>
  <g transform="translate(106.80193-432.76044)">
    <path d="m-79.16 442.8v-1.34h-.5v1.34h.5" id="2" style="fill:#fff"/>
    <use xlink:href="#2"/>
    <g style="fill:#fff">
      <path d="m-73.43 441.46h-.67l-.21.55c-.02.05-.02.13-.02.13s-.01-.09-.02-.13l-.21-.55h-.67v1.34h.43v-.8c0 0 0 .05.02.09l.3.71h.29l.3-.72c.02-.04.02-.09.02-.09v.81h.43v-1.34"/>
      <path d="m-73.43 441.46h-.67l-.21.55c-.02.05-.02.13-.02.13s-.01-.09-.02-.13l-.21-.55h-.67v1.34h.43v-.8c0 0 0 .05.02.09l.3.71h.29l.3-.72c.02-.04.02-.09.02-.09v.81h.43v-1.34z"/>
    </g>
    <path d="m-69.71 441.46h-.47v.74c0 0 0-.05-.03-.08l-.56-.65h-.5v1.34h.5v-.74c0 0 0 .05.03.08l.54.65h.49v-1.34" id="3" style="fill:#fff"/>
    <use xlink:href="#3"/>
    <path d="m-71.42 442.8l-.68-1.34h-.53l-.68 1.34h.45.07l.13-.25h.58l.13.25h.02.46.05m-1.11-.59c0 0 .12-.24.14-.28.02-.04.02-.09.02-.09s0 .05.02.09l.14.28h-.32" id="4" style="fill:#fff"/>
    <use xlink:href="#4"/>
    <path d="m-78.24 442.44v-.19h.75v-.3h-.75v-.17h.91v-.33h-1.38v1.34h1.42v-.36l-.95.01" id="5" style="fill:#fff"/>
    <use xlink:href="#5"/>
    <path d="m-81.88 441.46l.72 1.34h.58l.71-1.34h-.56l-.4.82c-.02.04-.02.09-.02.09s0-.05-.02-.09l-.4-.81-.61-.01" id="6" style="fill:#fff"/>
    <use xlink:href="#6"/>
    <path d="m-75.57 440.76h-1.1c0 0-.43.01-.43.44 0 .44.43.43.43.43h.65c0 0 .09 0 .09.09 0 .08-.09.08-.09.08h-1.05v.37h1.09c0 0 .46.02.46-.46 0-.41-.46-.42-.46-.42h-.62c0 0-.1 0-.1-.08 0-.08.1-.08.1-.08h1.03v-.37" id="7" style="fill:#fff"/>
    <use xlink:href="#7"/>
    <path d="m-67.73 441.46h-.47v.74c0 0 0-.05-.03-.08l-.56-.65h-.5v1.34h.5v-.74c0 0 0 .05.03.08l.54.65h.49v-1.34" id="8" style="fill:#fff"/>
    <use xlink:href="#8"/>
    <path d="m-75.57 442.36h-1.1c0 0-.43.01-.43.44 0 .44.43.43.43.43h.65c0 0 .09 0 .09.09 0 .08-.09.08-.09.08h-1.05v.37h1.09c0 0 .46.02.46-.46 0-.41-.46-.42-.46-.42h-.62c0 0-.1 0-.1-.08 0-.08.1-.08.1-.08h1.03v-.37" id="9" style="fill:#fff"/>
    <use xlink:href="#9"/>
  </g>
</svg>
