<?xml version="1.0" encoding="UTF-8" standalone="no"?>
<!-- Created with Inkscape (http://www.inkscape.org/) -->
<svg xmlns:rdf="http://www.w3.org/1999/02/22-rdf-syntax-ns#" xmlns="http://www.w3.org/2000/svg" height="64" width="64" version="1.1" xmlns:cc="http://creativecommons.org/ns#" xmlns:xlink="http://www.w3.org/1999/xlink" xmlns:dc="http://purl.org/dc/elements/1.1/">
<defs>
<linearGradient id="linearGradient3805" y2="70.362" gradientUnits="userSpaceOnUse" x2="40" gradientTransform="matrix(1.9998887,0,0,1.2424276,-47.993281,955.21738)" y1="73.362" x1="40">
<stop stop-color="#FFF" offset="0"/>
<stop stop-color="#CCC" offset="1"/>
</linearGradient>
<linearGradient id="linearGradient3822" y2="70.362" gradientUnits="userSpaceOnUse" y1="73.362" gradientTransform="matrix(1.9998887,0,0,2.0000677,-47.871459,861.62697)" x2="40" x1="40">
<stop stop-color="#FFF" offset="0"/>
<stop stop-color="#cdcdcd" offset="1"/>
</linearGradient>
</defs>
<metadata>
<rdf:RDF>
<cc:Work rdf:about="">
<dc:format>image/svg+xml</dc:format>
<dc:type rdf:resource="http://purl.org/dc/dcmitype/StillImage"/>
<dc:title/>
<cc:license rdf:resource=""/>
<dc:creator>
<cc:Agent>
<dc:title>Simon Buttazzi</dc:title>
</cc:Agent>
</dc:creator>
</cc:Work>
</rdf:RDF>
</metadata>
<g transform="translate(0,-988.36218)">
<path style="baseline-shift:baseline;block-progression:tb;color:#000000;direction:ltr;text-indent:0;text-align:start;enable-background:accumulate;text-transform:none;" d="m12.253,994.45,9.187,0,30.498,0,0,51.689-39.685,0z" fill-rule="nonzero" fill="#FFF"/>
<path fill="#d3d3d3" d="m34,996.36,4,0,0,4-4,0z"/>
<path fill="#d3d3d3" d="m40,996.36,4,0,0,4-4,0z"/>
<path fill="#d3d3d3" d="m46,996.36,4,0,0,4-4,0z"/>
</g>
<g transform="translate(0,-988.36218)">
<path fill="url(#linearGradient3822)" d="m12,1002.4,40,0,0,6-40,0z"/>
<path fill="url(#linearGradient3805)" d="m12,1042.4,40,0,0,4-40,0z"/>
<path style="baseline-shift:baseline;block-progression:tb;color:#000000;direction:ltr;text-indent:0;text-align:start;enable-background:accumulate;text-transform:none;" d="m10,992.36,0,56,44,0,0.000001-56zm2,2,40,0,0,52-40,0z" fill-rule="nonzero" fill="#969696"/>
<path style="baseline-shift:baseline;block-progression:tb;color:#000000;direction:ltr;text-indent:0;text-align:start;enable-background:accumulate;text-transform:none;" d="m10.316,992.45,0,1,0,53.689,0,0.9999,0.93745,0,41.685,0,0.99994,0,0-0.9999,0-53.689,0-1-0.99994,0-31.498,0-10.187,0zm1.9374,2.0001,9.187,0,30.498,0,0,51.689-39.685,0z" fill="none"/>
<path d="m47.38,1023.6c0,8.5523-6.9324,15.485-15.484,15.485s-15.484-6.9331-15.484-15.485c0-8.5524,6.9324-15.485,15.484-15.485s15.484,6.933,15.484,15.485z" stroke="#4c4c4c" stroke-width="2.21210146" fill="none"/>
<path fill="#939393" d="m15,1020.4,6,0,0,6-6,0z"/>
<rect height="64.002" width="63.996" y="988.36" x="0.0040502" fill="none"/>
<path d="m19,10c0,1.6569-1.3431,3-3,3s-3-1.3431-3-3,1.3431-3,3-3c0.86924,0,1.6957,0.37702,2.2655,1.0335" fill-opacity="0" transform="translate(1.0192254,988.34924)" stroke="#acacac" stroke-miterlimit="4" stroke-dasharray="none" stroke-width="1.08299994"/>
<path fill="#4f4f4f" d="M17,10,19.672,7.6406,20.562,10z" transform="translate(0,988.36218)"/>
</g>
<g transform="translate(0,-988.36218)">
<path fill="#ffeca5" d="m44,994.36,8,0,0,8-8,0z"/>
<path fill="#FC0" d="m46,996.36,4,0,0,4-4,0z"/>
<path fill="#b8b8b8" d="m34,996.36,4,0,0,4-4,0z"/>
<path fill="#b8b8b8" d="m40,996.36,4,0,0,4-4,0z"/>
</g>
</svg>
