<?xml version="1.0"?>
<svg xmlns="http://www.w3.org/2000/svg" width="64" height="64" viewBox="0 0 64 64" style="enable-background:new 0 0 64 64">
  <path d="m4.5 8.5h13v43h-13z" style="fill:#ff4545"/>
  <path d="M17,9v42H5V9H17 M18,8H4v44h14V8L18,8z" style="fill:#d82b2b"/>
  <circle cx="11" cy="44" r="3" style="fill:#828b7d"/>
  <circle cx="11" cy="44" r="2"/>
  <path d="m6 14h10v16h-10z" style="fill:#e7f4f5"/>
  <path d="m8 16h6v3h-6z" style="fill:#fadc00"/>
  <g style="fill:#c8c8c8">
    <path d="m7 21h8v1h-8z"/>
    <path d="m7 24h8v1h-8z"/>
    <path d="m7 27h8v1h-8z"/>
  </g>
  <path d="m20.5 8.5h13v43h-13z" style="fill:#70ce2e"/>
  <path d="m33 9v42h-12v-42h12m1-1h-14v44h14v-44z" style="fill:#62b224"/>
  <circle cx="27" cy="44" r="3" style="fill:#828b7d"/>
  <circle cx="27" cy="44" r="2"/>
  <path d="m22 14h10v16h-10z" style="fill:#e7f4f5"/>
  <path d="m24 16h6v3h-6z" style="fill:#ff845c"/>
  <g style="fill:#c8c8c8">
    <path d="m23 21h8v1h-8z"/>
    <path d="m23 24h8v1h-8z"/>
    <path d="m23 27h8v1h-8z"/>
  </g>
  <path d="m61.368852 48.043948h-6.788852v43h-13z" style="fill:#1e82ff;stroke-width:.99999693"/>
  <path d="m46.76 8.12l13.96 39.61-11.32 3.99-13.96-39.61 11.32-3.99m.61-1.27l-13.2 4.65 14.63 41.5 13.2-4.65-14.63-41.5z" style="fill:#1271d8"/>
  <circle cx="52.74" cy="43.13" r="3" style="fill:#828b7d"/>
  <circle cx="52.74" cy="43.13" r="2"/>
  <g style="stroke-width:.99996368">
    <path d="m38.043814 16.50017h12.376186v16h-10z" style="fill:#e7f4f5"/>
    <path d="m40.601819 17.723352h6.328181v3h-6z" style="fill:#5fbc15"/>
    <g style="fill:#c8c8c8">
      <path d="m41.32009 22.768847h7.93991v1h-8z"/>
      <path d="m42.320082 25.59792h7.939918v1h-8z"/>
      <path d="m43.310543 28.430317h7.939457v1h-8z"/>
    </g>
  </g>
</svg>
