<?xml version="1.0" encoding="UTF-8" standalone="no"?>
<!-- Created with Inkscape (http://www.inkscape.org/) -->
<svg xmlns:rdf="http://www.w3.org/1999/02/22-rdf-syntax-ns#" xmlns="http://www.w3.org/2000/svg" height="64" width="64" version="1.1" xmlns:cc="http://creativecommons.org/ns#" xmlns:xlink="http://www.w3.org/1999/xlink" xmlns:dc="http://purl.org/dc/elements/1.1/">
<defs>
<linearGradient id="linearGradient4101">
<stop stop-color="#919191" offset="0"/>
<stop stop-color="#e4e4e4" offset="1"/>
</linearGradient>
<linearGradient id="linearGradient3805" y2="70.362" gradientUnits="userSpaceOnUse" x2="40" gradientTransform="matrix(1.9998887,0,0,1.2424276,-47.993281,955.21738)" y1="73.362" x1="40">
<stop stop-color="#FFF" offset="0"/>
<stop stop-color="#CCC" offset="1"/>
</linearGradient>
<linearGradient id="linearGradient3822" y2="70.362" gradientUnits="userSpaceOnUse" y1="73.362" gradientTransform="matrix(1.9998887,0,0,2.0000677,-47.871459,861.62697)" x2="40" x1="40">
<stop stop-color="#FFF" offset="0"/>
<stop stop-color="#cdcdcd" offset="1"/>
</linearGradient>
<linearGradient id="linearGradient3961" y2="51.362" gradientUnits="userSpaceOnUse" x2="33" gradientTransform="matrix(1.9998887,0,0,1.3168561,-47.993281,934.69788)" y1="48.362" x1="33">
<stop stop-color="#a6a6a6" offset="0"/>
<stop stop-color="#828282" stop-opacity="0" offset="1"/>
</linearGradient>
<radialGradient id="radialGradient4099" xlink:href="#linearGradient4101" gradientUnits="userSpaceOnUse" cy="62.362" cx="39" gradientTransform="matrix(1.9998887,0,0,2.0000677,-46.099351,898.87761)" r="7"/>
<radialGradient id="radialGradient4179" gradientUnits="userSpaceOnUse" cy="62.398" cx="41.416" gradientTransform="matrix(1.2081928,0,0,2.0310325,-9.4645969,896.94657)" r="7">
<stop stop-color="#919191" offset="0"/>
<stop stop-color="#FFF" offset="1"/>
</radialGradient>
</defs>
<metadata>
<rdf:RDF>
<cc:Work rdf:about="">
<dc:format>image/svg+xml</dc:format>
<dc:type rdf:resource="http://purl.org/dc/dcmitype/StillImage"/>
<dc:title/>
<cc:license rdf:resource=""/>
<dc:creator>
<cc:Agent>
<dc:title>Simon Buttazzi</dc:title>
</cc:Agent>
</dc:creator>
</cc:Work>
</rdf:RDF>
</metadata>
<g transform="translate(0,-988.36218)">
<path style="baseline-shift:baseline;block-progression:tb;color:#000000;direction:ltr;text-indent:0;text-align:start;enable-background:accumulate;text-transform:none;" d="m12.253,994.45,9.187,0,30.498,0,0,51.689-39.685,0z" fill-rule="nonzero" fill="#FFF"/>
<path d="m45.896,1023.6c0,7.7323-6.2677,14-13.999,14-7.7316,0-13.999-6.268-13.999-14s6.2677-14.001,13.999-14.001c7.7316,0,13.999,6.2687,13.999,14.001z" fill="url(#radialGradient4099)"/>
<path fill="#d3d3d3" d="m34,996.36,4,0,0,4-4,0z"/>
<path fill="#d3d3d3" d="m40,996.36,4,0,0,4-4,0z"/>
<path fill="#d3d3d3" d="m46,996.36,4,0,0,4-4,0z"/>
<path d="m45.896,1023.6c0,7.7323-6.2677,14-13.999,14-7.7316,0-13.999-6.268-13.999-14s6.2677-14.001,13.999-14.001c7.7316,0,13.999,6.2687,13.999,14.001z" fill="url(#radialGradient4099)"/>
</g>
<g transform="translate(0,-988.36218)">
<path fill="#c4c4c4" d="m22,994.36,2,0,0,8-2,0z"/>
<path fill="url(#linearGradient3822)" d="m12,1002.4,40,0,0,6-40,0z"/>
<path fill="url(#linearGradient3805)" d="m12,1042.4,40,0,0,4-40,0z"/>
<path d="m46,62.362c0,3.866-3.134,7-7,7s-7-3.134-7-7,3.134-7,7-7,7,3.134,7,7z" transform="matrix(1.9998887,0,0,2.0000677,-46.099351,898.87761)" stroke="#c0c0c0" fill="none"/>
<path fill="url(#linearGradient3961)" d="m14,998.36,6,0,0,4-6,0z"/>
<path style="baseline-shift:baseline;block-progression:tb;color:#000000;direction:ltr;text-indent:0;text-align:start;enable-background:accumulate;text-transform:none;" d="m10,992.36,0,56,44,0,0.000001-56zm2,2,40,0,0,52-40,0z" fill-rule="nonzero" fill="#969696"/>
<path style="baseline-shift:baseline;block-progression:tb;color:#000000;direction:ltr;text-indent:0;text-align:start;enable-background:accumulate;text-transform:none;" d="m10.316,992.45,0,1,0,53.689,0,0.9999,0.93745,0,41.685,0,0.99994,0,0-0.9999,0-53.689,0-1-0.99994,0-31.498,0-10.187,0zm1.9374,2.0001,9.187,0,30.498,0,0,51.689-39.685,0z" fill="none"/>
<path d="m46,62.362c0,3.866-3.134,7-7,7s-7-3.134-7-7,3.134-7,7-7,7,3.134,7,7z" transform="matrix(1.9998887,0,0,2.0000677,-46.099351,898.87761)" stroke="#c0c0c0" fill="none"/>
<path d="m46,62.362c0,3.866-3.134,7-7,7s-7-3.134-7-7,3.134-7,7-7,7,3.134,7,7z" transform="matrix(1.9998887,0,0,2.0000677,-46.099351,898.87761)" stroke="#4c4c4c" fill="none"/>
<path fill="#939393" d="m17,1020.4,5,0,0,6-5,0z"/>
<rect height="64.002" width="63.996" y="988.36" x="0.0040502" fill="none"/>
</g>
<g transform="translate(0,-988.36218)">
<rect height="6.0448" width="5.4005" y="1020.3" x="16.602" fill="#FFF"/>
<path d="m46,62.362c0,3.866-3.134,7-7,7s-7-3.134-7-7,3.134-7,7-7,7,3.134,7,7z" transform="matrix(1.9998887,0,0,2.0000677,-46.099351,898.87761)" stroke="#9b9b9b" fill="none"/>
<path fill="#b8b8b8" d="m40,996.36,4,0,0,4-4,0z"/>
<path fill="#b8b8b8" d="m46,996.36,4,0,0,4-4,0z"/>
<path fill="#b8b8b8" d="m34,996.36,4,0,0,4-4,0z"/>
<path d="m45.896,1023.6c0,7.7323-6.2677,14-13.999,14-7.7316,0-13.999-6.268-13.999-14s6.2677-14.001,13.999-14.001c7.7316,0,13.999,6.2687,13.999,14.001z" fill="url(#radialGradient4099)"/>
<path d="m46.112,1023.6c0,7.8521-3.7865,14.217-8.4574,14.217s-8.4574-6.365-8.4574-14.217c0-7.8519,3.7865-14.217,8.4574-14.217s8.4574,6.3653,8.4574,14.217z" fill="url(#radialGradient4179)"/>
<path d="m46,62.362c0,3.866-3.134,7-7,7s-7-3.134-7-7,3.134-7,7-7,7,3.134,7,7z" transform="matrix(1.2081928,0,0,2.0310325,-9.4645969,896.94657)" stroke="#4b4b4b" stroke-dasharray="none" stroke-miterlimit="4" stroke-width="1.38269734" fill="none"/>
<path fill="#939393" d="m29,1020.4,3,0,0,6-3,0z"/>
</g>
</svg>
