<?xml version="1.0"?>
<svg xmlns="http://www.w3.org/2000/svg" width="64" height="64" viewBox="0 0 64 64" style="enable-background:new 0 0 64 64">
  <path fill="#1E82FF" d="M30.4,61.5c-0.2,0-0.5-0.1-0.8-0.1c-0.6-0.1-1.2-0.1-1.7-0.3l0,0l-0.1,0c-8.6-1.5-15.9-10.2-16.3-19.3   l0-2.7c0.3-1.7,0.6-3.5,1.3-5.2c0.8-1.5,1.4-2.8,2.2-4l2.6-3.7c6.2-7.6,11-14.9,14.6-22.5L32.8,5c3.5,8.9,9.3,16.4,13.9,22   c0.6,0.9,1.2,1.8,1.9,2.6c1,1.5,2,3.2,2.8,5c0.5,1.3,0.9,2.9,1.1,4.6l0,2.5c-0.1,0.3-0.1,0.6-0.1,0.8c0,0.3,0,0.5-0.1,0.7l0,0.1   l0,0.1c-0.9,8.4-8,16.1-16.1,17.5l-0.1,0l0,0c-0.5,0.2-1.1,0.3-1.7,0.3c-0.3,0-0.6,0.1-0.8,0.1H30.4z"/>
  <path fill="#1271D8" d="M32.2,4.9l0.2,0.4c3.6,8.9,9.3,16.5,13.9,22.1c0.6,0.9,1.3,1.8,1.9,2.6c1,1.5,2,3.2,2.8,4.9   c0.5,1.3,0.8,2.8,1,4.5v2.4c-0.1,0.3-0.1,0.6-0.1,0.9c0,0.2,0,0.4-0.1,0.6l-0.1,0.1l0,0.1c-0.9,8.2-7.8,15.7-15.6,17.1l-0.1,0   l-0.1,0c-0.5,0.2-1,0.2-1.6,0.3c-0.3,0-0.6,0.1-0.8,0.1h-3c-0.3,0-0.5-0.1-0.8-0.1c-0.6-0.1-1.2-0.1-1.6-0.3l-0.1,0l-0.1,0   c-8.4-1.5-15.5-9.9-15.9-18.7v-2.6c0.3-1.7,0.6-3.4,1.3-5.1c0.7-1.3,1.4-2.7,2.2-3.9l2.6-3.6C24,19.3,28.6,12.1,32.2,4.9 M32.2,2.5   c-3.9,8.4-9.1,16.2-15,23.4l-2.6,3.7c-0.8,1.3-1.5,2.7-2.3,4.1c-0.7,1.7-1.1,3.6-1.3,5.4v2.7c0.4,9.2,7.7,18.1,16.7,19.7   c0.8,0.3,1.8,0.3,2.7,0.5h3.2c0.9-0.1,1.9-0.1,2.7-0.5c8.3-1.5,15.5-9.3,16.5-18c0.2-0.5,0.1-1.2,0.2-1.7v-2.6   c-0.2-1.6-0.5-3.2-1.1-4.8c-0.8-1.8-1.8-3.5-2.9-5.1c-0.7-0.9-1.3-1.7-1.9-2.6C41.5,20,36.5,12.9,33.3,4.8L32.2,2.5L32.2,2.5z"/>
</svg>
