<?xml version="1.0" encoding="UTF-8" standalone="no"?><!DOCTYPE svg PUBLIC "-//W3C//DTD SVG 1.1//EN" "http://www.w3.org/Graphics/SVG/1.1/DTD/svg11.dtd"><svg width="100%" height="100%" viewBox="0 0 900 450" version="1.1" xmlns="http://www.w3.org/2000/svg" xmlns:xlink="http://www.w3.org/1999/xlink" xml:space="preserve" xmlns:serif="http://www.serif.com/" style="fill-rule:evenodd;clip-rule:evenodd;stroke-linejoin:round;stroke-miterlimit:2;"><rect x="0" y="0" width="900" height="450" style="fill:none;fill-rule:nonzero;"/><clipPath id="_clip1"><rect x="0" y="0" width="900" height="450" clip-rule="nonzero"/></clipPath><g clip-path="url(#_clip1)"><g id="Ebene1"><rect x="-4.777" y="-2.478" width="906.518" height="454.315" style="fill:#fff;"/></g></g><path d="M763.603,327.192c11.207,1.47 22.513,2.054 33.812,1.746c6.955,-0.19 13.48,-0.706 19.526,-1.429c-2.709,-2.347 -5.57,-4.513 -8.563,-6.484c-6.368,-4.184 -13.285,-7.465 -20.553,-9.75c-11.973,-1.782 -24.136,-1.885 -36.138,-0.306c4.603,4.915 8.603,10.361 11.916,16.223Zm51.267,28.229c-6.975,0.656 -14.009,0.273 -20.871,-1.138l-5.342,3.572l7.5,9.827c6.165,1.06 12.445,1.277 18.669,0.647c5.129,-0.522 10.183,-1.617 15.068,-3.264l4.544,-9.081l-3.91,-3.868c-5.077,1.692 -10.33,2.801 -15.658,3.305Z" style="fill:#003;fill-rule:nonzero;"/><path d="M838.845,354.199l-0.101,-0.892c-0.044,-0.464 -0.075,-0.93 -0.128,-1.392c-0.137,-1.589 -0.381,-3.168 -0.731,-4.724c-0.01,-0.055 -0.017,-0.115 -0.027,-0.169l-0.185,-1.028l-0.075,0.041c-0.045,-0.173 -0.083,-0.348 -0.131,-0.521c-0.53,-1.786 -1.218,-3.522 -2.055,-5.186l0.017,-0.01l-0.146,-0.249c-0.868,-1.69 -1.888,-3.298 -3.047,-4.803c-0.482,-0.665 -0.993,-1.307 -1.534,-1.925l-0.358,-0.453l-0.038,0.038c-1.493,-1.645 -3.187,-3.097 -5.041,-4.321c-1.971,-1.271 -4.11,-2.262 -6.354,-2.944c-3.442,-3.397 -7.228,-6.425 -11.298,-9.036c-3.805,-2.521 -7.884,-4.602 -12.159,-6.202c-4.265,-1.547 -8.688,-2.62 -13.188,-3.201c-5.621,-0.767 -11.301,-1.001 -16.966,-0.7c-7.92,0.376 -13.642,0.647 -19.403,2.664c-11.251,3.94 -18.397,13.214 -22.435,20.372c-2.43,1.478 -4.197,3.839 -4.931,6.587c-0.318,1.394 -0.339,2.839 -0.062,4.241c-0.117,0.462 -0.235,0.958 -0.348,1.489c-0.402,1.936 -0.665,3.898 -0.789,5.872c-0.024,0.345 -0.037,0.633 -0.048,0.857c-0.068,1.455 -0.062,2.913 0.018,4.368c0.013,0.538 0.013,1.078 0.013,1.618c-0.163,1.457 -0.246,2.923 -0.25,4.389c-0.01,0.399 0.003,0.797 0.012,1.195l-0.044,0.88l0.073,0.005c0.096,1.694 0.354,3.376 0.789,5.019c0.211,0.692 0.457,1.372 0.737,2.039c0.334,0.763 0.665,1.341 1.025,2.027c0.854,1.618 2.556,2.617 4.385,2.573l7.443,-0.168c1.092,-0.024 2.099,-0.609 2.659,-1.547c0.228,-0.381 0.432,-0.776 0.613,-1.181c0.355,-0.874 0.609,-1.779 0.768,-2.701c2.244,0.404 4.5,0.745 6.756,1.005c3.823,0.439 7.714,0.674 11.562,0.699l0.139,0.001c0.17,0.597 0.352,1.191 0.552,1.78c0.589,1.698 1.305,3.35 2.141,4.941c1.038,1.965 3.106,3.179 5.328,3.126l9.045,-0.2c1.327,-0.029 2.55,-0.74 3.231,-1.88c0.276,-0.463 0.525,-0.942 0.745,-1.435c0.498,-1.233 0.839,-2.525 1.015,-3.843c8.827,0.598 17.303,0.903 24.679,0.903c5.746,0 10.827,-0.185 14.886,-0.559c0.873,-0.069 1.744,-0.173 2.615,-0.272c0.326,0.736 0.668,1.465 1.042,2.177c1.037,1.966 3.106,3.18 5.328,3.127l9.045,-0.2c1.327,-0.029 2.55,-0.74 3.231,-1.88c0.277,-0.463 0.526,-0.942 0.745,-1.435c0.905,-2.234 1.289,-4.645 1.124,-7.049l0.216,-0.089l0.028,-0.47c0.223,-3.794 0.171,-7.599 -0.154,-11.385l0.021,0.017Zm-1.338,10.809c-2.45,0.99 -4.951,1.847 -7.493,2.567c-4.751,1.33 -9.62,2.197 -14.538,2.588c-9.18,0.848 -23.638,0.715 -39.224,-0.338c0.243,-2.908 0.321,-7.673 -0.964,-12.52l7.969,-0.041l5.076,-4.568l-15.92,-2.122c-0.57,-0.919 -1.214,-1.789 -1.925,-2.604c-1.623,-1.838 -5.032,-5.664 -9.596,-5.48c-0.304,0.02 -0.603,0.071 -0.902,0.119c-0.497,-3.364 -0.202,-6.798 0.863,-10.027c0.17,-0.49 0.364,-0.973 0.573,-1.447c1.977,2.191 4.286,4.057 6.843,5.531l-1.736,1.62l0.229,0.494c1.07,2.297 2.766,4.248 4.892,5.627c2.356,1.486 4.6,1.79 7.213,2.144c2.467,0.29 4.953,0.392 7.435,0.305l0.14,-0.005l5.327,-2.275l22.362,3.803l11.327,-5.853l0.117,0.016c1.615,0.219 3.257,0.162 4.853,-0.168c1.278,-0.268 2.513,-0.71 3.672,-1.312c0.783,1.563 1.427,3.191 1.925,4.867c0.078,0.282 0.144,0.568 0.215,0.853l-3.97,2.176l4.929,3.931c0.418,4.025 0.521,8.077 0.308,12.119Zm-84.541,2.305c-0.406,-0.006 -0.813,-0.023 -1.219,-0.033c-1.28,-4.443 -1.299,-9.155 -0.057,-13.608c0.724,-2.451 1.818,-6.154 5.264,-8.331c1.192,-0.81 2.578,-1.287 4.016,-1.382c3.89,-0.121 6.83,3.19 8.419,4.989c5.756,6.529 5.786,16.133 5.396,20.772c-0.54,-0.038 -1.078,-0.075 -1.621,-0.115c-0.048,-2.653 -0.307,-5.299 -0.774,-7.911c-0.663,-3.718 -1.142,-6.403 -3.056,-9.089c-1.016,-1.428 -3.395,-4.771 -7.174,-4.861c-1.808,0.03 -3.55,0.689 -4.925,1.864c-0.593,0.474 -2.395,1.915 -3.648,6.561c-0.95,3.636 -1.161,7.425 -0.621,11.144Zm-25.017,-13.91c0.889,3.62 1.572,7.323 2.056,11.024c-0.419,-0.1 -0.842,-0.19 -1.259,-0.295c-0.485,-3.163 -1.237,-6.28 -2.248,-9.316c-2.143,-6.389 -3.793,-7.36 -5.008,-7.493c-0.751,-0.069 -1.503,0.138 -2.113,0.582c-0.226,0.165 -0.423,0.367 -0.584,0.596c0.052,-1.011 0.142,-2.019 0.27,-3.023c0.551,-0.629 1.292,-1.056 2.071,-1.189c0.904,-0.085 1.81,0.158 2.55,0.685c2.393,1.476 3.418,4.973 4.265,8.429Zm-7.778,1.414c0.512,-1.504 1.22,-2.417 1.895,-2.442l0.03,-0.001c0.668,0 1.431,0.853 2.045,2.292c0.72,1.684 1.166,3.953 1.259,6.392c0.093,2.439 -0.181,4.735 -0.77,6.469c-0.511,1.504 -1.22,2.417 -1.895,2.442l-0.03,0.001c-1.41,-0.001 -3.113,-3.686 -3.303,-8.684c-0.094,-2.438 0.18,-4.735 0.769,-6.469Zm11.398,9.976c-0.494,-3.954 -1.216,-7.876 -2.163,-11.747c-0.919,-3.758 -2.058,-7.574 -4.897,-9.326c-1.042,-0.723 -2.31,-1.049 -3.571,-0.918c-0.54,0.096 -1.062,0.278 -1.544,0.539c0.068,-0.386 0.118,-0.776 0.198,-1.158c0.121,-0.57 0.248,-1.102 0.376,-1.592l0.045,-0.174l-0.038,-0.175c-0.269,-1.232 -0.264,-2.508 0.015,-3.738c0.652,-2.423 2.236,-4.493 4.404,-5.755l0.179,-0.103l0.102,-0.181c3.892,-6.955 10.819,-16.047 21.72,-19.865c5.555,-1.943 11.186,-2.211 18.982,-2.581c5.573,-0.296 11.161,-0.065 16.691,0.688l0.006,0.001c4.389,0.566 8.702,1.613 12.862,3.121c4.169,1.562 8.147,3.592 11.857,6.052c4.037,2.59 7.79,5.599 11.195,8.977l0.134,0.133l0.182,0.054c2.171,0.643 4.24,1.592 6.144,2.817c1.768,1.167 3.381,2.554 4.8,4.127l-2.023,2.029c-1.636,0.962 -3.352,1.783 -5.128,2.452c-2.754,1.026 -5.632,1.683 -8.559,1.953c-5.403,0.256 -10.875,0.256 -16.267,0c-4.284,-0.202 -8.411,-0.562 -12.267,-1.073c-7.691,-1.017 -11.242,-1.542 -14.825,-3.35c-3.42,-1.753 -6.424,-4.222 -8.806,-7.238l-0.281,0.223c-2.101,-4.364 -4.658,-8.494 -7.628,-12.321c-2.715,-3.464 -4.185,-4.042 -5.394,-4.315c-4.175,-0.944 -8.199,2.615 -11.611,5.632c-3.311,2.948 -6.061,6.472 -8.116,10.4c2.06,0.158 4.141,0.303 6.232,0.442c-0.458,1.778 -0.833,3.577 -1.125,5.39c-1.557,10.635 -0.438,21.492 3.257,31.586c-1.721,-0.293 -3.434,-0.628 -5.138,-1.006Zm96.528,-27.524l2.113,-2.12c0.534,0.698 1.051,1.409 1.55,2.133c0.103,0.151 0.196,0.31 0.298,0.462c-1.116,0.979 -2.356,1.808 -3.688,2.464c1.181,-0.253 2.347,-0.571 3.493,-0.952c0.331,-0.108 0.633,-0.229 0.947,-0.344c0.181,0.286 0.374,0.564 0.55,0.853c-2.054,1.047 -4.352,1.523 -6.653,1.379l1.39,-3.875Zm-58.435,0.148c3.914,1.935 7.932,2.469 15.145,3.422c0.46,0.061 0.937,0.113 1.404,0.169l3.696,2.728l-3.798,1.622c-2.357,0.077 -4.716,-0.023 -7.058,-0.299c-2.523,-0.342 -4.516,-0.611 -6.588,-1.918c-1.733,-1.126 -3.145,-2.681 -4.101,-4.513l1.3,-1.211Zm-24.741,-8.985c0.5,-0.1 1.488,-0.298 2.518,-0.298c1.122,0 2.292,0.235 2.929,1.092c0.484,0.625 0.62,1.44 0.364,2.188c-0.203,0.432 -0.643,0.778 -1.306,1.028c-1.896,0.715 -5.099,0.443 -7.454,-0.635c-0.421,-0.192 -1.539,-0.702 -1.562,-1.053c-0.039,-0.54 2.011,-1.821 4.511,-2.322Zm-9.988,6.007c0.297,-1.857 0.684,-3.699 1.161,-5.519c1.205,0.077 2.414,0.152 3.629,0.223c-0.525,0.495 -0.857,1.065 -0.812,1.713c0.086,1.242 1.501,1.888 2.437,2.314c1.668,0.764 3.674,1.166 5.498,1.166c0.886,0 1.727,-0.098 2.469,-0.292l1.391,1.988l3.688,-2.444l-2.083,-2.371c0.074,-0.487 0.052,-0.985 -0.063,-1.464c2.704,0.108 5.389,0.202 8.045,0.277c-0.324,0.673 -0.611,1.363 -0.86,2.067c-1.155,3.496 -1.466,7.216 -0.909,10.855c-0.842,0.273 -1.642,0.662 -2.376,1.156c-3.893,2.46 -5.13,6.645 -5.872,9.155c-1.274,4.567 -1.296,9.393 -0.063,13.971c-2.592,-0.105 -5.18,-0.306 -7.757,-0.6c-1.354,-0.159 -2.706,-0.344 -4.053,-0.555l0.004,-0.001c-3.841,-10.076 -5.037,-20.97 -3.474,-31.639Zm38.767,17.821l11.212,1.494l-2.236,2.012l-7.43,0.039c-0.439,-1.213 -0.956,-2.397 -1.546,-3.545Zm-13.026,-1.221l0.05,-0.001c1.036,0 2.206,1.232 3.14,3.312c1.089,2.428 1.763,5.705 1.897,9.228c0.134,3.521 -0.289,6.841 -1.191,9.345c-0.785,2.179 -1.88,3.504 -2.93,3.544l-0.052,0.001c-2.166,-0.001 -4.752,-5.107 -5.035,-12.54c-0.285,-7.492 1.943,-12.806 4.121,-12.889Zm76.152,-0.973l0.096,0.68l-1.953,-1.559l1.589,-0.87c0.093,0.572 0.183,1.156 0.268,1.749Z" style="fill:#003;fill-rule:nonzero;"/><path d="M772.811,342.113c1.912,1.051 4.019,1.699 6.191,1.905c2.15,0.357 4.329,0.517 6.508,0.476l2.54,-0.952c-6.318,0.197 -12.589,-1.166 -18.255,-3.969c0.866,0.999 1.884,1.856 3.016,2.54Zm-427.052,-51.596l-0.145,-0.187l-0.124,0.175l-0.497,-0.023l0.246,0.376l-37.63,53.087l5.996,-0.444l0.154,-0.217l2.121,0l0,34.32l65.74,0l0,-0.088l6.943,-0.143l23.501,0l0,-0.486l0.024,0l0.74,-31.07l8.202,0.014l-36.374,-53.547l-38.897,-1.767Zm-0.077,2.997l0.62,0.799l-33.724,47.364l-1.092,0.081l34.196,-48.244Zm-27.867,48.8l11.617,-16.9l0,20.94l16.375,0l0,-21.687l-15.861,0l18.371,-26.725l17.098,26.725l-15.749,0l0,21.687l15.824,0l0,-21.57l13.237,20.689l0.649,0l0.171,21.342l-15.045,0l0,-13.218l-7.898,0l0,13.218l-38.484,0c-0.108,0 -0.204,0.036 -0.305,0.062l0,-24.563Zm26.015,0.049l-5.579,0l0,-15.718l5.579,0l0,15.718Zm-7.589,0l-4.832,0l0,-15.718l4.832,0l0,15.718Zm15.401,-0.131l0,-15.587l4.62,0l0,15.587l-4.62,0Zm6.747,0l0,-15.587l5.124,0l0,15.587l-5.124,0Zm23.093,24.746l-0.17,-21.214l29.583,0.049l-0.504,21.165l-28.909,0Zm0.801,-23.136l-33.618,-51.268l34.944,1.586l33.789,49.74l-35.115,-0.058Z" style="fill:#003;fill-rule:nonzero;"/><path d="M372.19,297.208l-7.839,-0.356l27.292,41.155l7.612,0.013l-27.065,-40.812Zm17.691,40.796l-27.345,-41.234l-8.466,-0.385l27.282,41.605l8.529,0.014Zm11.136,0.019l9.585,0.016l-27.395,-40.33l-9.202,-0.418l27.012,40.732Zm-14.057,9.819l-1.283,-0l-0,16.538l1.283,-0c2.215,-0 4.038,-1.823 4.038,-4.038l-0,-8.462c-0,-2.215 -1.823,-4.038 -4.038,-4.038Zm2.284,12.512l-2.218,-0l-0,-9.349l2.218,-0l-0,9.349Z" style="fill:#003;fill-rule:nonzero;"/><rect x="387.026" y="351.006" width="2.218" height="9.349" style="fill:#0fdd42;fill-rule:nonzero;"/><path d="M532.297,352.808l0,-43.254l5.502,0l0,43.254l-2.012,0c0.164,6.335 2.459,12.434 6.512,17.305c4.37,-2.126 7.389,-6.595 7.389,-11.782l0,-50.308c0,-7.24 -5.869,-13.109 -13.109,-13.109l-11.513,0l0,76.526l11.513,0c1.314,0 2.58,-0.198 3.777,-0.558c-4.101,-5.146 -6.409,-11.495 -6.569,-18.074l-1.49,0Z" style="fill:#003;fill-rule:nonzero;"/><path d="M599.591,336.98c-2.991,5.177 -5.981,10.354 -8.97,15.532l1.674,2.344c-1.418,14.306 -13.521,25.518 -28.193,25.518c-8.759,0 -16.601,-3.997 -21.803,-10.26c-4.053,-4.872 -6.348,-10.97 -6.512,-17.305l2.012,0l0,-43.254l-5.502,0l0,43.254l1.49,0c0.16,6.579 2.467,12.928 6.569,18.074c5.562,6.994 14.136,11.491 23.746,11.491c15.039,0 27.549,-11.002 29.923,-25.378l9.432,-8.733c3.56,6.188 7.729,5.513 7.729,5.513l-0.437,-17.014l-11.158,0.218Z" style="fill:#0fdd42;fill-rule:nonzero;"/><path d="M177.029,369.084l-35.409,-52.127l-0.809,16.229l25.01,36.701l11.484,0.019l-0.276,-0.822Zm-40.751,-39.176l-12.076,-17.721l-11.682,-0.532l22.928,34.902l0.83,-16.649Zm-0.991,19.863l-25.109,-38.222l-11.389,-0.518l35.714,54.465l0.784,-15.725Zm1.846,-36.997l-10.559,-0.48l9.861,14.471l0.698,-13.991Zm3.521,23.555l-0.842,16.871l10.946,16.663l12.762,0.02l-22.866,-33.554Zm-1.002,20.086l-0.67,13.428l9.501,0.016l-8.831,-13.444Z" style="fill:#003;fill-rule:nonzero;"/><path d="M143.037,252.386l-0.002,0c-3.263,0 -6.33,1.271 -8.638,3.577c-2.298,2.285 -3.588,5.398 -3.579,8.639c-0.007,2.443 0.725,4.832 2.099,6.852l0.334,0.492l-37.123,37.121l1.283,1.282l37.036,-37.036l0.507,0.448c1.401,1.237 3.067,2.136 4.869,2.63l0.558,0.152l-4.683,93.873l1.81,0.09l4.674,-93.689l0.864,0c1.233,0 2.459,-0.186 3.636,-0.553l0.672,-0.21l31.764,94.735l2.169,-0.726l-31.863,-95.035l0.454,-0.307c3.363,-2.266 5.382,-6.068 5.375,-10.123c-0.001,-6.734 -5.481,-12.212 -12.216,-12.212Z" style="fill:#ffcf64;fill-rule:nonzero;"/><path d="M409.637,174.548l2.197,-4.492l1.797,0.879l-2.197,4.491l-1.797,-0.878Z" style="fill:#000133;fill-rule:nonzero;"/><path d="M405.229,183.517l2.198,-4.491l1.795,0.879l-2.198,4.491l-1.795,-0.879Z" style="fill:#000133;fill-rule:nonzero;"/><path d="M414.035,165.57l2.198,-4.491l1.795,0.879l-2.198,4.491l-1.795,-0.879Z" style="fill:#000133;fill-rule:nonzero;"/><path d="M400.841,192.494l2.199,-4.491l1.795,0.879l-2.198,4.491l-1.796,-0.879Z" style="fill:#000133;fill-rule:nonzero;"/><path d="M365.674,264.372l2.198,-4.491l1.797,0.879l-2.198,4.491l-1.797,-0.879Z" style="fill:#000133;fill-rule:nonzero;"/><path d="M361.278,273.353l2.197,-4.49l1.796,0.879l-2.198,4.49l-1.795,-0.879Z" style="fill:#000133;fill-rule:nonzero;"/><path d="M370.071,255.39l2.198,-4.491l1.795,0.879l-2.198,4.491l-1.795,-0.879Z" style="fill:#000133;fill-rule:nonzero;"/><path d="M418.431,156.589l2.198,-4.491l1.796,0.879l-2.198,4.49l-1.796,-0.878Z" style="fill:#000133;fill-rule:nonzero;"/><path d="M357.686,280.692l1.394,-2.848l1.795,0.879l-1.394,2.848l-1.795,-0.879Z" style="fill:#000133;fill-rule:nonzero;"/><path d="M422.827,147.602l2.197,-4.491l1.797,0.878l-2.197,4.492l-1.797,-0.879Z" style="fill:#000133;fill-rule:nonzero;"/><path d="M383.259,228.44l2.197,-4.491l1.796,0.878l-2.197,4.492l-1.796,-0.879Z" style="fill:#000133;fill-rule:nonzero;"/><path d="M374.468,246.407l2.197,-4.49l1.796,0.879l-2.198,4.49l-1.795,-0.879Z" style="fill:#000133;fill-rule:nonzero;"/><path d="M396.449,201.497l2.198,-4.491l1.796,0.88l-2.198,4.491l-1.796,-0.88Z" style="fill:#000133;fill-rule:nonzero;"/><path d="M387.657,219.462l2.198,-4.491l1.795,0.879l-2.198,4.491l-1.795,-0.879Z" style="fill:#000133;fill-rule:nonzero;"/><path d="M392.049,210.459l2.198,-4.491l1.796,0.879l-2.199,4.49l-1.795,-0.878Z" style="fill:#000133;fill-rule:nonzero;"/><path d="M378.864,237.426l2.198,-4.491l1.796,0.879l-2.198,4.491l-1.796,-0.879Z" style="fill:#000133;fill-rule:nonzero;"/><path d="M431.383,141.545l0.029,-8.807l-7.453,4.692l7.424,4.115Z" style="fill:#000133;fill-rule:nonzero;"/><path d="M466.006,143.759l1.738,-0.99l2.473,4.346l-1.738,0.989l-2.473,-4.345Z" style="fill:#0fdd42;fill-rule:nonzero;"/><path d="M505.584,213.299l1.738,-0.99l2.474,4.345l-1.738,0.99l-2.474,-4.345Z" style="fill:#0fdd42;fill-rule:nonzero;"/><path d="M525.374,248.038l1.739,-0.99l2.473,4.345l-1.739,0.99l-2.473,-4.345Z" style="fill:#0fdd42;fill-rule:nonzero;"/><path d="M475.898,161.14l1.739,-0.989l2.473,4.346l-1.738,0.989l-2.474,-4.346Z" style="fill:#0fdd42;fill-rule:nonzero;"/><path d="M480.87,169.853l1.738,-0.989l2.472,4.346l-1.738,0.989l-2.472,-4.346Z" style="fill:#0fdd42;fill-rule:nonzero;"/><path d="M500.638,204.607l1.738,-0.989l2.473,4.345l-1.738,0.99l-2.473,-4.346Z" style="fill:#0fdd42;fill-rule:nonzero;"/><path d="M515.467,230.647l1.739,-0.989l2.472,4.344l-1.738,0.99l-2.473,-4.345Z" style="fill:#0fdd42;fill-rule:nonzero;"/><path d="M510.522,221.956l1.738,-0.989l2.472,4.345l-1.738,0.989l-2.472,-4.345Z" style="fill:#0fdd42;fill-rule:nonzero;"/><path d="M470.962,152.439l1.738,-0.99l2.473,4.346l-1.738,0.989l-2.473,-4.345Z" style="fill:#0fdd42;fill-rule:nonzero;"/><path d="M461.06,135.068l1.739,-0.989l2.473,4.345l-1.738,0.99l-2.474,-4.346Z" style="fill:#0fdd42;fill-rule:nonzero;"/><path d="M530.32,256.729l1.739,-0.99l2.473,4.346l-1.739,0.99l-2.473,-4.346Z" style="fill:#0fdd42;fill-rule:nonzero;"/><path d="M495.695,195.893l1.738,-0.989l2.473,4.345l-1.738,0.99l-2.473,-4.346Z" style="fill:#0fdd42;fill-rule:nonzero;"/><path d="M490.748,187.202l1.738,-0.989l2.474,4.345l-1.739,0.989l-2.473,-4.345Z" style="fill:#0fdd42;fill-rule:nonzero;"/><path d="M520.427,239.348l1.739,-0.99l2.473,4.345l-1.739,0.99l-2.473,-4.345Z" style="fill:#0fdd42;fill-rule:nonzero;"/><path d="M485.815,178.545l1.739,-0.989l2.472,4.346l-1.738,0.989l-2.473,-4.346Z" style="fill:#0fdd42;fill-rule:nonzero;"/><path d="M535.266,265.42l1.739,-0.99l2.473,4.345l-1.739,0.99l-2.473,-4.345Z" style="fill:#0fdd42;fill-rule:nonzero;"/><path d="M540.211,274.147l1.739,-0.989l2.471,4.347l-1.739,0.989l-2.471,-4.347Z" style="fill:#0fdd42;fill-rule:nonzero;"/><path d="M547.909,276.535l-7.56,3.852l7.282,4.946l0.278,-8.798Z" style="fill:#0fdd42;fill-rule:nonzero;"/><path d="M616.341,226.114l1.133,-1.646l4.119,2.834l-1.133,1.647l-4.119,-2.835Z" style="fill:#000133;fill-rule:nonzero;"/><path d="M492.748,141.036l1.133,-1.647l4.12,2.833l-1.133,1.648l-4.12,-2.834Z" style="fill:#000133;fill-rule:nonzero;"/><path d="M608.097,220.41l1.133,-1.647l4.12,2.833l-1.133,1.647l-4.12,-2.833Z" style="fill:#000133;fill-rule:nonzero;"/><path d="M698.688,282.738l1.134,-1.648l3.314,2.279l-1.134,1.648l-3.314,-2.279Z" style="fill:#000133;fill-rule:nonzero;"/><path d="M500.999,146.757l1.133,-1.647l4.119,2.834l-1.133,1.647l-4.119,-2.834Z" style="fill:#000133;fill-rule:nonzero;"/><path d="M533.956,169.431l1.133,-1.647l4.119,2.834l-1.133,1.647l-4.119,-2.834Z" style="fill:#000133;fill-rule:nonzero;"/><path d="M591.625,209.109l1.133,-1.646l4.119,2.834l-1.133,1.646l-4.119,-2.834Z" style="fill:#000133;fill-rule:nonzero;"/><path d="M632.819,237.452l1.133,-1.648l4.12,2.835l-1.134,1.647l-4.119,-2.834Z" style="fill:#000133;fill-rule:nonzero;"/><path d="M509.238,152.425l1.133,-1.647l4.119,2.834l-1.133,1.647l-4.119,-2.834Z" style="fill:#000133;fill-rule:nonzero;"/><path d="M624.58,231.782l1.133,-1.646l4.119,2.834l-1.133,1.647l-4.119,-2.835Z" style="fill:#000133;fill-rule:nonzero;"/><path d="M599.864,214.778l1.133,-1.647l4.12,2.834l-1.133,1.647l-4.12,-2.834Z" style="fill:#000133;fill-rule:nonzero;"/><path d="M641.058,243.12l1.133,-1.648l4.12,2.835l-1.134,1.647l-4.119,-2.834Z" style="fill:#000133;fill-rule:nonzero;"/><path d="M690.49,277.131l1.134,-1.647l4.119,2.834l-1.134,1.647l-4.119,-2.834Z" style="fill:#000133;fill-rule:nonzero;"/><path d="M674.013,265.793l1.133,-1.647l4.12,2.834l-1.134,1.647l-4.119,-2.834Z" style="fill:#000133;fill-rule:nonzero;"/><path d="M649.296,248.789l1.134,-1.647l4.119,2.834l-1.133,1.647l-4.12,-2.834Z" style="fill:#000133;fill-rule:nonzero;"/><path d="M665.77,260.09l1.134,-1.648l4.12,2.833l-1.134,1.648l-4.12,-2.833Z" style="fill:#000133;fill-rule:nonzero;"/><path d="M657.534,254.457l1.134,-1.647l4.119,2.834l-1.133,1.647l-4.12,-2.834Z" style="fill:#000133;fill-rule:nonzero;"/><path d="M682.25,271.462l1.134,-1.647l4.119,2.834l-1.133,1.648l-4.12,-2.835Z" style="fill:#000133;fill-rule:nonzero;"/><path d="M550.409,180.737l1.132,-1.647l4.121,2.834l-1.133,1.647l-4.12,-2.834Z" style="fill:#000133;fill-rule:nonzero;"/><path d="M583.351,203.393l1.132,-1.647l4.12,2.833l-1.133,1.647l-4.119,-2.833Z" style="fill:#000133;fill-rule:nonzero;"/><path d="M542.193,175.099l1.133,-1.647l4.12,2.834l-1.134,1.647l-4.119,-2.834Z" style="fill:#000133;fill-rule:nonzero;"/><path d="M517.444,158.054l1.133,-1.647l4.12,2.833l-1.133,1.647l-4.12,-2.833Z" style="fill:#000133;fill-rule:nonzero;"/><path d="M525.716,163.763l1.133,-1.647l4.119,2.834l-1.133,1.647l-4.119,-2.834Z" style="fill:#000133;fill-rule:nonzero;"/><path d="M558.67,186.436l1.133,-1.647l4.119,2.835l-1.133,1.646l-4.119,-2.834Z" style="fill:#000133;fill-rule:nonzero;"/><path d="M575.148,197.773l1.133,-1.647l4.12,2.834l-1.134,1.647l-4.119,-2.834Z" style="fill:#000133;fill-rule:nonzero;"/><path d="M566.91,192.104l1.133,-1.647l4.119,2.834l-1.133,1.647l-4.119,-2.834Z" style="fill:#000133;fill-rule:nonzero;"/><path d="M480.415,130.759l3.747,7.966l1.73,-2.382l2.739,1.884l1.133,-1.648l-2.696,-1.855l2.081,-2.864l-8.734,-1.101Z" style="fill:#000133;fill-rule:nonzero;"/><path d="M237.559,243.378l4.178,-2.747l1.1,1.671l-4.178,2.748l-1.1,-1.672Z" style="fill:#000133;fill-rule:nonzero;"/><path d="M229.212,248.856l4.179,-2.746l1.099,1.672l-4.179,2.746l-1.099,-1.672Z" style="fill:#000133;fill-rule:nonzero;"/><path d="M245.915,237.884l4.178,-2.747l1.099,1.672l-4.177,2.747l-1.1,-1.672Z" style="fill:#000133;fill-rule:nonzero;"/><path d="M254.271,232.39l4.178,-2.747l1.099,1.671l-4.178,2.747l-1.099,-1.671Z" style="fill:#000133;fill-rule:nonzero;"/><path d="M204.138,265.353l4.178,-2.747l1.099,1.672l-4.178,2.747l-1.099,-1.672Z" style="fill:#000133;fill-rule:nonzero;"/><path d="M287.699,210.408l4.178,-2.747l1.099,1.671l-4.178,2.747l-1.099,-1.671Z" style="fill:#000133;fill-rule:nonzero;"/><path d="M262.632,226.891l4.178,-2.747l1.098,1.671l-4.177,2.747l-1.099,-1.671Z" style="fill:#000133;fill-rule:nonzero;"/><path d="M296.049,204.921l4.178,-2.747l1.099,1.671l-4.178,2.747l-1.099,-1.671Z" style="fill:#000133;fill-rule:nonzero;"/><path d="M195.791,270.833l4.179,-2.746l1.099,1.672l-4.179,2.746l-1.099,-1.672Z" style="fill:#000133;fill-rule:nonzero;"/><path d="M179.081,281.822l4.178,-2.746l1.099,1.672l-4.178,2.746l-1.099,-1.672Z" style="fill:#000133;fill-rule:nonzero;"/><path d="M220.857,254.35l4.179,-2.746l1.099,1.672l-4.179,2.746l-1.099,-1.672Z" style="fill:#000133;fill-rule:nonzero;"/><path d="M212.502,259.845l4.179,-2.746l1.099,1.672l-4.179,2.746l-1.099,-1.672Z" style="fill:#000133;fill-rule:nonzero;"/><path d="M187.436,276.328l4.178,-2.746l1.099,1.673l-4.178,2.745l-1.099,-1.672Z" style="fill:#000133;fill-rule:nonzero;"/><path d="M321.121,188.432l4.178,-2.747l1.099,1.671l-4.178,2.747l-1.099,-1.671Z" style="fill:#000133;fill-rule:nonzero;"/><path d="M362.899,160.96l4.178,-2.747l1.099,1.672l-4.178,2.747l-1.099,-1.672Z" style="fill:#000133;fill-rule:nonzero;"/><path d="M354.543,166.454l4.178,-2.747l1.099,1.671l-4.178,2.747l-1.099,-1.671Z" style="fill:#000133;fill-rule:nonzero;"/><path d="M379.609,149.972l4.178,-2.747l1.099,1.671l-4.178,2.747l-1.099,-1.671Z" style="fill:#000133;fill-rule:nonzero;"/><path d="M346.187,171.948l4.178,-2.747l1.099,1.671l-4.178,2.747l-1.099,-1.671Z" style="fill:#000133;fill-rule:nonzero;"/><path d="M387.964,144.479l4.178,-2.747l1.099,1.671l-4.178,2.747l-1.099,-1.671Z" style="fill:#000133;fill-rule:nonzero;"/><path d="M396.321,138.984l4.178,-2.747l1.098,1.671l-4.177,2.747l-1.099,-1.671Z" style="fill:#000133;fill-rule:nonzero;"/><path d="M371.254,155.466l4.178,-2.747l1.099,1.671l-4.178,2.747l-1.099,-1.671Z" style="fill:#000133;fill-rule:nonzero;"/><path d="M270.982,221.403l4.178,-2.748l1.099,1.672l-4.178,2.747l-1.099,-1.671Z" style="fill:#000133;fill-rule:nonzero;"/><path d="M312.766,193.926l4.178,-2.747l1.099,1.671l-4.178,2.747l-1.099,-1.671Z" style="fill:#000133;fill-rule:nonzero;"/><path d="M304.405,199.426l4.178,-2.747l1.099,1.671l-4.178,2.747l-1.099,-1.671Z" style="fill:#000133;fill-rule:nonzero;"/><path d="M279.343,215.902l4.178,-2.747l1.099,1.671l-4.178,2.747l-1.099,-1.671Z" style="fill:#000133;fill-rule:nonzero;"/><path d="M329.477,182.937l4.178,-2.747l1.099,1.672l-4.178,2.747l-1.099,-1.672Z" style="fill:#000133;fill-rule:nonzero;"/><path d="M337.831,177.443l4.178,-2.747l1.099,1.671l-4.178,2.747l-1.099,-1.671Z" style="fill:#000133;fill-rule:nonzero;"/><path d="M409.37,130.995l-8.422,1.034l5.151,7.139l3.271,-8.173Zm-131.627,208.76l-72,0l0,1l72,0l0,4l8,-4.5l-8,-4.5l0,4Zm235,0.5l-8,-4.5l0,4l-72,0l0,1l72,0l0,4l8,-4.5Zm178,-0.5l-72,0l0,1l72,0l0,4l8,-4.5l-8,-4.5l0,4Zm-264,-223l46,0c7.732,0 14,-6.268 14,-14l0,-46c0,-7.732 -6.268,-14 -14,-14l-46,0c-7.732,0 -14,6.268 -14,14l0,46c0,7.732 6.268,14 14,14Zm21.139,-55.502l10.323,0l-6.883,13.764l6.883,0l-12.9,24.089l2.581,-17.206l-8.6,0l8.596,-20.647Z" style="fill:#000133;fill-rule:nonzero;"/><path d="M445.305,99.106l12.9,-24.089l-6.883,-0l6.883,-13.764l-10.323,-0l-8.596,20.647l8.6,0l-2.581,17.206Z" style="fill:#0fdd42;fill-rule:nonzero;"/><text x="431.324px" y="32.977px" style="font-family:'Arial-BoldMT', 'Arial', sans-serif;font-weight:700;font-size:18px;">evcc</text><g transform="matrix(0.829038,0.559193,-0.559193,0.829038,-124.969,-124.193)"><text x="742.886px" y="-137.986px" style="font-family:'Arial-BoldMT', 'Arial', sans-serif;font-weight:700;font-size:18px;">state of charge</text></g><g transform="matrix(0.829038,-0.559193,0.559193,0.829038,-322.159,-115.288)"><text x="252.639px" y="597.712px" style="font-family:'Arial-BoldMT', 'Arial', sans-serif;font-weight:700;font-size:18px;">production</text></g><g transform="matrix(0.438371,-0.898794,0.898794,0.438371,-689.552,398.211)"><text x="576.123px" y="879.351px" style="font-family:'Arial-BoldMT', 'Arial', sans-serif;font-weight:700;font-size:18px;">consumption</text></g><g transform="matrix(0.48481,0.87462,-0.87462,0.48481,-189.224,-489.465)"><text x="923.124px" y="-276.863px" style="font-family:'Arial-BoldMT', 'Arial', sans-serif;font-weight:700;font-size:18px;fill:#0fdd42;">control</text></g></svg>