<svg version="1.1" id="Ebene_1" xmlns="http://www.w3.org/2000/svg" x="0" y="0" viewBox="0 0 1440 354" xml:space="preserve"><style>.st1{fill:#003}.st2{fill:#0fdd42}.st4{fill:none}</style><path fill="#fff" d="M0 0h1440v354H0z"/><path class="st1" d="M525.2 268.2h25.5c.1-1.2.2-2.3.3-3.3h-24.7c-.4 1.1-.8 2.2-1.1 3.3zM798.7 123.6c.9.2 1.9.5 2.7.9l7.1 3.6-5.9-5.3-.3-.3-.3-.3c-.1-.1-.2-.2-.3-.4l-.3-.3c-.1-.1-.2-.3-.3-.4-.1-.1-.1-.2-.2-.4-.1-.1-.2-.3-.2-.4-.1-.1-.1-.2-.2-.3-.3-.6-.4-1.2-.6-1.8v-.2c0-.2-.1-.4-.1-.6v-.2-.6-.1c.1-1.8.7-3.6 2-5 .4-.5.9-.9 1.5-1.3h.1c.8-.6 1.7-1 2.6-1.2h.1c.3-.1.6-.1.8-.2h1.2c.3 0 .6 0 1 .1l2.9.3-2-2.1c-1.6-1.7-2.5-3.8-2.7-6.1-.1-2.9 1.2-5.6 3.8-8.1 3.8-3.5 9-3.6 12-3.2 1.4.2 2.3.4 2.4.4l1.3.4.1-1.4c.1-3.3 1.2-6.5 3.1-9.2 4-5.4 11.3-8.1 19.1-6.9l1.1.2.2-1.1c.5-3.7 2.6-6.7 5.5-8.5l.1-.1c.3-.2.6-.3.8-.5.1 0 .1-.1.2-.1.3-.1.6-.2.8-.4.1 0 .2-.1.3-.1.3-.1.5-.2.8-.3.1 0 .2-.1.3-.1.3-.1.5-.1.8-.2.1 0 .3-.1.4-.1.2 0 .5-.1.7-.1h1.6c.3 0 .5 0 .8.1h.4c.3 0 .5.1.8.1.1 0 .3 0 .4.1.3.1.5.2.8.2.1 0 .2.1.3.1.7.3 1.5.6 2.1 1 .2.1.3.2.5.3.2.1.3.2.5.3 1 .7 1.8 1.6 2.6 2.5l.9 1.2.8-1.3c1.4-2 3.4-3.5 5.7-4.2 1.7-.5 3.5-.5 5.2 0 1 .3 2 .7 2.9 1.2l2.9 1.8-1.3-3.2c-.5-1.1-2.6-6.8.4-12.4 2.2-4.1 7.4-8.1 13.4-7.1h.1c6.1 1 9 6.6 9.7 8.3.9 2.1 1.3 4.4 1.2 6.7l2.2.2c.1-.5.8-5.4 5-7.7 3.4-1.7 7.5-1.3 10.4.9.7.5 1.3 1.1 1.9 1.8 2.5 3.4 2.7 8 .4 11.6l-1.5 2.4 2.8-.8c.1 0 .2 0 .2-.1.2-.1.4-.1.6-.1.1 0 .2 0 .4-.1h1.1c.3 0 .6.1.9.1.1 0 .1 0 .2.1.3.1.5.1.8.3.1 0 .1 0 .2.1.7.3 1.3.7 1.9 1.2.1.1.2.1.2.2l.1.1c.7.7 1.3 1.6 1.6 2.7v.2c.1.2.1.5.2.7V72.5c0 .3-.1.5-.1.8 0 .1-.1.3-.1.4 0 .2-.1.4-.2.6 0 .1 0 .2-.1.3v.1l2 .8v-.1c.7-1.7 1.8-3.3 3.2-4.6 2.8-2.5 5.6-3.5 8.3-3 1.3.3 2.4.9 3.2 1.6 1.4 1.2 2.3 2.7 2.7 3.5 1.3 2.9 1.3 6.1 0 9l1.9 1c1.1-2 3.1-3.5 5.3-4.2 2.9-.7 6 .2 8.1 2.4.3.3.6.6.8 1 .9 1.5 1.3 3.2 1 4.9-.3 2.2-1.5 4.2-3.4 5.5l-5.8 4 6.7-2.1c2.4-.8 4.9-.9 7.3-.6 3.4.6 6.4 2.1 8.8 4.4 2.4 2.3 4.1 5.2 4.9 8.5.9 4.7-.9 8.8-2.4 12.4-1.2 2.7-2.7 5.2-4.6 7.4l-4.3 5.1 5.7-3.5c.4-.2 8.7-5.2 15.9-1.2 1.3.7 2.4 1.6 3.4 2.6 1 1.1 1.7 2.3 2.3 3.6.5 1.2 1.9 4.8 0 8.4-1.3 2.4-3.6 4.1-6.2 4.7l.4 2.1c.6-.1 5.5-.9 8.2 1.6l.2.2.3.3c2.6 3.2.5 8.9-1.6 12-6 8.8-20.4 8.3-25.1 8.2-5.9-.2-11.7-1.6-17.1-4l-2.9-1.3 1.5 2.8c2.1 3.8 1.5 8.5-1.4 11.1-3.5 3.1-8.4 1.7-10.8.3-1.2-.7-2.2-1.5-2.9-2.4-2.2-2.7-2.6-6-2.6-6.4l-.2-1.8-1.5 1c-3 2-11.1 6.4-21.1 4.3-3.5-.8-6.8-2.3-9.9-4.3-.4-.3-.8-.6-1.3-.9-.3.6-.7 1.2-1.2 1.8 3.6 2.6 7.6 4.4 11.9 5.5 7.3 1.4 14.9.1 21.4-3.7.8 3.7 3.1 7 6.4 8.9 2.1 1.1 4.4 1.8 6.8 1.8 2.4.1 4.8-.8 6.6-2.4 3-2.9 4.2-7.3 2.9-11.3 4.9 1.9 10.2 3 15.5 3.2 5 .2 20.3.7 27-9.1 2.1-3.1 5.1-10.2 1.5-14.6-1.5-1.7-3.5-2.7-5.7-3 1.3-1 2.3-2.2 3.1-3.6 2.3-4.5.6-8.8 0-10.3-1.3-3.1-3.6-5.8-6.6-7.4-5.1-2.8-10.6-1.8-14.2-.6.9-1.4 1.7-2.9 2.4-4.5 1.6-3.7 3.7-8.3 2.6-13.7-1.4-7.3-8-13.4-15.5-14.7-1.6-.3-3.1-.3-4.7-.1.9-1.3 1.5-2.8 1.7-4.3.3-2.2-.2-4.5-1.4-6.4-2.5-3.7-7-5.4-11.3-4.3-1.3.3-2.5.9-3.6 1.7.2-2.2-.2-4.4-1.2-6.4-.8-1.6-3-5.3-7.5-6.2-3.4-.7-6.8.5-10.2 3.5-.4.4-.9.8-1.2 1.3-.8-4.3-4.6-7.3-8.9-7.1 2.6-6.1-.2-13.2-6.3-15.8-3.3-1.4-7.1-1.3-10.3.4-1.9 1-3.4 2.5-4.4 4.4-.2-.9-.5-1.7-.9-2.6-.9-2-4.3-8.5-11.5-9.6-6-1-12.5 2.4-15.6 8.2-1.9 3.6-2.4 7.8-1.3 11.8-2.4-.9-5-1-7.5-.3-2.4.7-4.5 2.1-6.1 4-5.3-5.8-14.2-6.2-20-1-2.2 2-3.7 4.6-4.3 7.5-8.2-.9-15.9 2-20.1 7.9-1.9 2.7-3.1 5.8-3.5 9.1-3-.6-10-1.3-15.2 3.5-3.2 3-4.7 6.3-4.5 9.8.1 2 .8 4 1.9 5.7-5.7.5-9.8 5.6-9.3 11.3.1 1.4.5 2.7 1.2 3.9-2.7-.5-5.5.1-7.9 1.6 1 .3 1.9.6 2.9 1 1.7-.3 3.3-.5 4.9-.2zM444.5 106.4c-1.9 2.7-3.1 5.8-3.5 9.1-3-.6-10-1.3-15.2 3.5-3.2 3-4.7 6.3-4.5 9.8.1 2 .8 4 1.9 5.7-5.7.5-9.8 5.6-9.3 11.2.1 1.4.5 2.7 1.2 3.9-.5-.1-.9-.1-1.4-.1l.8 2.2c1.1.1 2.2.5 3.2 1l7.1 3.6-5.9-5.3c-3.4-3-3.7-8.2-.7-11.6 1.8-2.1 4.5-3.1 7.2-2.7l2.9.3-2-2.1c-1.6-1.7-2.5-3.8-2.7-6.1-.1-2.9 1.2-5.6 3.8-8.1 5.5-5.2 14.1-2.8 14.4-2.7l1.3.4.1-1.4c.1-3.3 1.2-6.5 3.1-9.2 4-5.4 11.3-8.1 19.1-6.9l1.1.2.2-1.1c.9-6.6 7-11.2 13.5-10.3 3.2.4 6.1 2.2 8 4.8l.9 1.2.8-1.3c1.4-2 3.4-3.5 5.7-4.2 2.8-.7 5.7-.3 8.1 1.2l2.9 1.8-1.3-3.2c-.5-1.1-2.6-6.8.4-12.4 2.2-4.1 7.4-8.1 13.4-7.1 6.1 1 9.1 6.6 9.8 8.4.9 2.1 1.3 4.4 1.2 6.7l2.2.2c.1-.5.8-5.4 5-7.7 4.2-2.1 9.4-1 12.3 2.7 2.5 3.4 2.7 8 .4 11.6l-1.5 2.4 2.8-.8c3.5-1.1 7.2.9 8.2 4.4.4 1.4.4 3-.2 4.4v.1l2 .8v-.1c.7-1.7 1.8-3.3 3.2-4.6 2.8-2.5 5.6-3.5 8.3-3 3.5.7 5.3 3.8 6 5 1.3 2.9 1.3 6.1 0 9l1.9 1c1.1-2 3.1-3.5 5.3-4.2 3.4-.9 6.9.5 8.9 3.4.9 1.5 1.3 3.2 1 4.9-.3 2.2-1.5 4.2-3.4 5.5l-5.8 4 6.7-2.1c2.4-.8 4.9-.9 7.3-.6 6.8 1.1 12.2 6.2 13.7 12.9 0 .1 0 .3.1.4.6-.5 1.3-.9 2-1.4-1.9-7.3-7.9-12.9-15.4-14.2-1.6-.2-3.1-.3-4.7-.1.9-1.3 1.5-2.8 1.7-4.3.3-2.2-.2-4.5-1.4-6.4-2.5-3.7-7-5.4-11.3-4.3-1.3.3-2.5.9-3.6 1.7.2-2.2-.2-4.4-1.2-6.4-.8-1.6-3-5.3-7.5-6.2-3.4-.7-6.8.5-10.2 3.5-.4.4-.9.8-1.2 1.3-.8-4.3-4.6-7.3-8.9-7.1 2.6-6.1-.2-13.2-6.3-15.8-3.3-1.4-7.1-1.3-10.3.4-1.9 1-3.4 2.5-4.4 4.4-.2-.9-.5-1.7-.9-2.6-.9-2-4.3-8.5-11.5-9.6-6-1-12.5 2.4-15.6 8.2-1.9 3.6-2.4 7.8-1.3 11.8-4.9-1.8-10.3-.3-13.6 3.7-5.3-5.8-14.2-6.2-20-1-2.2 2-3.7 4.6-4.3 7.5-8.2-.7-15.8 2.2-20.1 8.1zM672.8 324.7h-77.7c-.6 0-1.1.5-1.1 1.1 0 .6.5 1 1.1 1.1h78.7c-.3-.7-.6-1.5-1-2.2zM614.3 329.9c-.6 0-1.1.5-1.1 1.1 0 .6.5 1.1 1.1 1.1H677c-.5-.7-1-1.4-1.4-2.2h-61.3zM229.6 110.9c.6 0 1.1-.5 1.1-1.1 0-.2-.1-.4-.2-.6-6.9-10.8-18.2-16.6-28-14.5-3.7.9-7.2 2.7-10 5.4-4.6-5.3-15.2-15.3-28.5-14.8-7.3.3-14.6 3.7-19.4 6-4.2 2-8.2 4.3-12 7-4.5-1.2-9.1-1.9-13.7-2.1-6.6-.2-13.5-.4-19.6 3.9-3.3 2.3-5.9 5.5-7.6 9.2-.2.3-.1.7.1 1.1.2.3.6.5.9.5 21.3-.5 42.9-.8 64.2-.9 24.1 0 48.6.2 72.7.9zm-2.1-2.3c-6.1-.2-12.2-.3-18.3-.4-16.5-.3-33-.4-49.4-.4h-2.9c-6.8 0-13.7.1-20.5.1-14 .1-28 .4-41.9.7 1.5-2.7 3.5-5 6-6.7 3.8-2.7 8-3.4 12.4-3.6h1.9c1.3 0 2.7 0 4.1.1 4.6.1 9.2.9 13.7 2.1h.2c.2 0 .5-.1.7-.2 3.8-2.7 7.8-5.1 12.1-7.1 4.7-2.2 11.7-5.5 18.6-5.8h1.2c12.6.1 22.5 10.4 26.3 14.9.2.2.5.4.8.4.3 0 .6-.1.8-.3 2.6-2.8 6-4.7 9.7-5.6 1.1-.2 2.1-.4 3.2-.4 7.6-.1 15.7 4.4 21.3 12.2zM409.2 201.9l-26-39.2-.9 19.1 13.3 20.1zM425.5 202l-2.1-6.3-39-57.3-1 21.5 27.8 42zM378.6 155.8l-14.4-21.7-14-.7 27.5 41.5zM335 134.9l41.5 63.2 1-20.5-29.3-44.3-11.2-.5zM381.3 201.9h12.3l-11.5-17.3zM379.7 134.8l-13.4-.6 12.5 18.8zM380.1 126.2l-34.8-1.6-2.1 2.1 36.8 1.7zM407.9 153.4c.3-.2.7-.5 1-.7l-.7-2.1c-.6.3-1.1.6-1.7 1-1.2.9-2.2 2.1-2.9 3.4L385 127.5l-.2 3.6 33.4 49.2-2.6-7.6-10.6-15.5c.7-1.5 1.7-2.8 2.9-3.8zM293.1 215.3h26.2v-35h-26.2v35zm24.8-6.1v5.1-5.1zm-.8-26.7v26.7h-10.3v-26.7h10.3zm-21.7 0h9.1v26.7h-9.1v-26.7zm-.8 26.7v5.2-5.2zM326.8 180.3v35h25.3v-35h-25.3zm1.1 28.6h1.1v-26.5h8.8v26.5h2.4v-26.5h9.6v26.5H327.9zm0 5.3h22.9-22.9zM389 239.1v-15.5h2.5v14.9c.6 2.1 1.3 4.2 2 6.1.8-.7 1.2-1.6 1.4-2.6 0-.2.1-.5.1-.8v-18.4c0-2.5-2-4.6-4.6-4.6h-4.3v27.5h4.3c.3 0 .5 0 .8-.1-.8-2.1-1.5-4.3-2.2-6.6h.1l-.1.1z"/><path class="st2" d="M1060.6 203.7c-3.6 2.3-5.1 6.6-4 10.4.2.9.6 1.8 1.1 2.6l52.9 84.2c.2.4.5.7.8 1.1l.2.2c.1.2.3.3.4.5.1.1.2.1.2.2.2.1.3.3.5.4.1.1.2.1.3.2.2.1.3.2.5.3.1.1.2.1.3.2.2.1.3.2.5.3.1.1.2.1.3.2.2.1.3.2.5.2.1 0 .2.1.3.1.2.1.4.1.5.2.1 0 .2.1.3.1.2 0 .4.1.6.1.1 0 .2 0 .3.1.2 0 .4.1.6.1h2.1c.2 0 .4-.1.7-.1.1 0 .2 0 .3-.1.2 0 .4-.1.6-.2.1 0 .2-.1.3-.1.2-.1.4-.1.6-.2.1 0 .2-.1.3-.1.2-.1.3-.2.5-.2.1-.1.2-.1.3-.2.1-.1.3-.2.4-.3.3-.2.6-.4.9-.7l.1-.1 22.4-19.3c3.5-3.1 4.3-8.2 1.8-12.2l-37.5-60.1-13-20.8c-.1-.2-.2-.4-.4-.5-.1-.1-.1-.2-.2-.3-.1-.2-.3-.3-.4-.5-.1-.1-.1-.2-.2-.2-.2-.2-.3-.3-.5-.4l-.2-.2c-.2-.1-.4-.3-.5-.4-.1 0-.1-.1-.2-.1-.2-.1-.4-.3-.6-.4-.1 0-.1-.1-.2-.1-.2-.1-.4-.2-.7-.3-.1 0-.1-.1-.2-.1-.2-.1-.5-.2-.7-.3 0 0-.1 0-.1-.1-.2-.1-.5-.1-.7-.2h-.1c-.3-.1-.5-.1-.8-.1h-.1c-.3 0-.5-.1-.8-.1h-.9-.1c-.3 0-.5 0-.8.1h-.1c-.3 0-.5.1-.8.2h-.1c-.3.1-.5.2-.8.2h-.1c-.3.1-.5.2-.8.3 0 0-.1 0-.1.1-.2.1-.5.3-.7.4l-.1.1h-.1l-24.8 15.9zm40 19.8l3.5 17.1 6.2-4.8 5.3 30.6-9.8-17.2-7.7 6-6.8-24.5 9.3-7.2z"/><path class="st1" d="M360.8 51.9h105.9c.6 0 1.1-.5 1.1-1.1 0-.6-.5-1-1.1-1.1H360.8c-.6 0-1.1.5-1.1 1.1.1.6.6 1.1 1.1 1.1zM1058.4 77.2h105.9c.6 0 1.1-.5 1.1-1.1 0-.6-.5-1.1-1.1-1.1h-105.9c-.6 0-1.1.5-1.1 1.1s.5 1.1 1.1 1.1zM1076.3 84.2c0 .6.5 1.1 1.1 1.1h105.9c.6 0 1.1-.5 1.1-1.1s-.5-1.1-1.1-1.1h-105.9c-.7 0-1.1.5-1.1 1.1zM553.6 301.9h-44c-.6.7-1.2 1.5-1.8 2.2h46.7c-.3-.7-.6-1.4-.9-2.2zM506.3 301.9h-54.4c-.2 0-.4.1-.6.2-.3.2-.5.5-.5.9 0 .6.5 1.1 1.1 1.1h52.5c.7-.8 1.3-1.5 1.9-2.2zM478.9 309.3H499c.8-.7 1.6-1.4 2.3-2.2h-22.4c-.3 0-.6.1-.8.3-.2.2-.3.5-.3.8.1.6.5 1.1 1.1 1.1zM556.7 309.3c-.4-.7-.7-1.4-1.1-2.2h-50.8l-2.2 2.2h54.1zM559.5 314.3c-.4-.5-.7-1.1-1-1.6l-.3-.6h-58.7c-.9.8-1.7 1.5-2.6 2.2h62.6zM566.3 64.1c21.3-.5 42.9-.8 64.2-.9 24.1 0 48.6.3 72.7.9.6 0 1.1-.5 1.1-1.1 0-.2-.1-.4-.2-.6-6.9-10.8-18.2-16.6-28-14.5-3.7.8-7.2 2.7-10 5.4-4.6-5.3-15.2-15.3-28.5-14.8-7.3.3-14.6 3.7-19.4 6-4.2 2-8.2 4.3-12 7-4.5-1.2-9.1-1.9-13.7-2.1-6.6-.2-13.5-.4-19.6 3.9-3.3 2.3-5.9 5.5-7.6 9.2-.2.3-.1.7.1 1.1.2.4.5.5.9.5zm26.1-12.4c4.6.1 9.2.9 13.7 2.1h.2c.2 0 .5-.1.7-.2 3.8-2.7 7.8-5.1 12.1-7.1 4.7-2.2 11.7-5.5 18.6-5.8h1.2c3.5 0 6.8.9 9.8 2.1 5.2 2.2 9.5 5.6 12.6 8.7 1.6 1.6 2.9 3 3.8 4.1l.2.2c.1 0 .1.1.2.1s.1 0 .2.1H666.3c.1 0 .1-.1.2-.1 0 0 .1 0 .2-.1 0 0 .1 0 .1-.1 2.6-2.8 6-4.7 9.7-5.6 1-.2 2-.3 2.9-.4 7.7-.3 15.9 4.2 21.6 12.1-23.4-.6-47.2-.8-70.6-.8-20.7 0-41.7.3-62.4.8 1.5-2.7 3.5-5 6-6.7 4.4-3.1 9.2-3.6 14.3-3.6 1.4.1 2.8.2 4.1.2zM644.8 70.3c-3.4.2-6.8.6-10.2 1.2-2.8.5-4.6 1.2-4.6 2.6s1.8 2 4.6 2.6c3.4.6 6.8 1 10.2 1.2 8.9.7 20.8 1.1 33.4 1.1s24.5-.4 33.4-1.1c3.4-.2 6.8-.6 10.2-1.2 2.8-.5 4.6-1.2 4.6-2.6 0-1.4-1.8-2-4.6-2.6-3.4-.6-6.8-1-10.2-1.2-8.9-.7-20.8-1.1-33.4-1.1s-24.4.4-33.4 1.1zm33.5 6.5c-24.7 0-40.8-1.5-45.1-2.7 4.4-1.3 20.5-2.7 45.1-2.7s40.8 1.5 45.1 2.7c-4.4 1.2-20.5 2.7-45.1 2.7zM1223.3 104.3c2 5.5 3.1 11.4 3.3 17.2.2 5.8-.3 11.5-1.5 22.8-.4 3.4-.7 6.2-1 8.4-.7 5.9-1 8.5-.6 12.8.3 2.4.7 4.7 1.4 7 .1 2.4.4 4.7.8 7.1 1.2 6.9 1.9 11 5.1 13.5 1.5 1.1 3.4 1.7 5.3 1.7 2.1-.1 4.1-.6 6-1.5l-1.2-2.6c-1.6.7-5.5 2.2-8.4.1-2.4-1.8-3-5.6-4.1-11.8-.7-4.5-1-9.1-.9-13.8.1-10.1.2-15.7 2.4-17.2 1.3-.9 4.1-.8 8.4 2.1l.9-1.3c3.8 1.6 6.7 5.5 8.1 7.5 7.8 11.5 4.6 28.1 3.5 34.4-.1.5-.2.9-.2 1.3-1.3 7.6-1.2 8.7-1.1 12.2.2 4.7.7 13.5-1.4 46.3-3.6 56.3 2.7 70.9 7.7 77.1 5.1 6.3 12.1 11.1 20.7 14.3-2.6-5.2-4-11-4.4-16.8-.4-10.2 2.7-20.3 8.8-28.5l1.9-2.6.8 3.1c.3 1.1 7.1 27.4 32.6 36 18.3 6.2 34.2-.5 40.1-3.7-17.6-36.5-22.8-69.7-15.5-98.9 1.7-6.6 4-13 7.1-19 4.2-8.7 7.7-17.8 10.4-27.1 10.9-36.1 18.2-59.9 7.6-84.1-14.9-33.8-53.7-43.7-58.1-44.7-15.5-3.5-31.5-2.8-46.7 1.9-26.9 14.3-40.2 27.7-39.6 39.6.3 2.4.9 4.9 1.8 7.2zM697.2 177.2c35.4 4.6 71 6.5 106.7 5.5 21.9-.6 42.5-2.2 61.6-4.5-8.5-7.4-17.6-14.2-27-20.5-20.1-13.2-41.9-23.6-64.8-30.8-2.5-.4-4.9-.7-7.4-1h-.4c-2.3-.3-4.6-.6-6.9-.8-.5-.1-1.1-.1-1.6-.2l-5.7-.6c-.7-.1-1.4-.1-2.1-.2-1.7-.2-3.5-.3-5.2-.4-.8-.1-1.6-.1-2.4-.2-1.6-.1-3.3-.2-4.9-.3-.9 0-1.7-.1-2.6-.1-1.6-.1-3.2-.2-4.7-.2-.9 0-1.8-.1-2.7-.1-1.5-.1-3.1-.1-4.6-.1h-2.8c-1.5 0-3 0-4.6-.1h-6.9c-1 0-2.1 0-3.1.1-1.3 0-2.6.1-3.9.1-1 0-2 .1-3 .1-1.3 0-2.7.1-4 .2-1 0-1.9.1-2.9.2-1.4.1-2.7.1-4.1.2-.9.1-1.8.1-2.7.2-1.4.1-2.9.2-4.3.3-.8.1-1.6.1-2.4.2-1.5.1-3.1.3-4.6.4-.5.1-1.1.1-1.6.2-4 .4-8 .9-12 1.4 9.1 9.7 17.5 20.2 25.1 31.1 4.7 6.8 8.9 13.5 12.5 19.9zM906.4 296.7l14.3-28.7-12.3-12.2c-37.1 12.4-76.9 14.7-115.3 6.8l-16.9 11.3 23.7 31c35.6 6.2 72.2 3.3 106.5-8.2zM766.3 231.8l8-3h-7c-.5 0-1 0-1.5-.1-.7 0-1.4-.1-2.1-.1-.5 0-1-.1-1.5-.1-.7 0-1.4-.1-2.1-.2-.5 0-1-.1-1.5-.1-.7-.1-1.4-.1-2.1-.2-.5-.1-.9-.1-1.4-.2-.8-.1-1.6-.2-2.3-.3-.4-.1-.8-.1-1.1-.2l-3.3-.6h-.2c-.3-.1-.7-.1-1-.2-1-.2-1.9-.4-2.9-.6l-1.2-.3-2.7-.6c-.4-.1-.8-.2-1.3-.3-.9-.2-1.8-.5-2.6-.7-.4-.1-.8-.2-1.2-.4-.9-.3-1.8-.5-2.6-.8-.4-.1-.8-.3-1.2-.4l-2.7-.9c-.4-.1-.7-.3-1.1-.4-.9-.4-1.9-.7-2.8-1.1-.3-.1-.6-.2-.9-.4-1-.4-2.1-.9-3.1-1.3-.2-.1-.4-.2-.6-.2-1.2-.6-2.5-1.1-3.7-1.7 2.7 3.2 5.9 5.9 9.5 8 6.2 3.7 11.8 4.7 19.5 6 7 1 13.9 1.5 20.7 1.4z"/><path class="st2" d="M558.6 218.5l.8-.8c3.6 6.2 7.7 5.5 7.7 5.5-.1-5.7-.3-11.3-.4-17l-8 .2-2.8.1h-.3l-9 15.5 1.4 1.9c-2.6 2.7-5 5.6-7.3 8.5-7.6 9.7-13.4 20.7-17.1 32.5-.4 1.1-.7 2.2-1.1 3.3-.3 1.1-.7 2.1-1 3.1-1.5 4.9-3.1 9.7-5.2 14.5-2.3 5.3-5.4 10.6-10.1 16.1-.6.7-1.3 1.5-2 2.2l-.1.1c-1 1-1.9 2-2.9 3-.8.7-1.6 1.5-2.3 2.2-7.6 6.8-15.8 11.6-24.6 14.4-.2.1-.4.1-.7.2-1 .3-2.1.6-3.2.9-1.7.4-3.6.7-5.9 1-3.5.4-8.1.7-14.4 1-1 .1-2 .1-3.1.2-2.3.1-4.5.2-6.5.3-6.5.3-12 .3-19.1.4h-1.5c-2.2 0-4.6.1-7.3.1h-.2c-6.5.1-13.1.1-19.4.2-7.9.1-16 .1-24 .3h-2.2c-1.8 0-3.6.1-5.3.1-13.5.2-21.2-.2-24.4-5-1.9-3.1-2.6-6.8-1.8-10.4.8-3 2.6-5.6 5-7.4 6.9-5.8 21-4.9 40.6-3.6 6.4.4 13.6.9 21.3 1.1 3.9.1 7.4.2 10.6.1 5.5-.1 10.1-.5 13.8-1.4 4.5-1.1 7.6-3 9.3-6.1 1.6-3 2-6.4 1.2-9.7-1.7-6.3-8.1-8.9-14.9-11.6-3.5-1.3-6.9-2.9-10.1-4.7-.7-.4-1.4-.9-2-1.3 0 0-.1 0-.1-.1-.3-.2-.7-.5-1-.8-5.3-4.1-9.7-9.9-13.2-17.3 0-.1-.1-.2-.1-.3-.7-1.6-1.4-3.2-2.1-4.9 0-.1-.1-.2-.1-.3-.7-2-1.4-4-2-6.1v-14.9H389v15.5h.3-.2c.7 2.3 1.4 4.5 2.2 6.6.6 1.5 1.2 3 1.8 4.4 2.8 6.5 6.9 12.4 12.1 17.3.3.3.6.5.9.8 1.5 1.3 3.2 2.5 4.9 3.6 3.4 1.9 6.9 3.6 10.5 4.9 6.4 2.6 12 4.8 13.4 10 .6 2.6.3 5.4-1 7.8-3 5.2-11.2 6.8-31.4 6.1-7.6-.2-14.8-.7-21.2-1.1-20.1-1.3-34.6-2.2-42.3 4.2-2.8 2.2-4.9 5.3-5.9 8.7-1 4.2-.2 8.7 2.1 12.3 3.5 5.2 10.4 6.2 22 6.2 3 0 6.2-.1 9.8-.1h2.2c8-.1 16.1-.2 24-.3 6.4 0 13-.1 19.5-.2 2.8 0 5.4-.1 7.7-.1 10.1-.1 16.8-.2 27-.8 12.6-.7 18.9-1 23.8-2.2 9.4-2.4 18.2-6.8 25.7-12.9.9-.7 1.8-1.4 2.6-2.2 1.1-.9 2.1-1.9 3.1-2.8.7-.7 1.5-1.4 2.2-2.2l1.2-1.2c.6-.6 1.1-1.2 1.6-1.8.6-.7 1.3-1.5 1.8-2.2 8.1-10.1 11.2-19.7 14.3-29.8l1.2-3.9c.3-1.1.7-2.2 1.1-3.3 3.6-11.2 9.1-21.7 16.4-30.9 2.1-2.8 4.4-5.4 6.8-8l.4.5 5.3-4.9 1.5-1.4 2.2-1.9z"/><path d="M429.6 201l-36-107.5.4-.3c6.4-4.3 8.1-13 3.8-19.4-4.3-6.4-13-8.1-19.4-3.8-6.4 4.3-8.1 13-3.8 19.4l.3.4-42 42 1.7 1.7 41.9-41.9.4.4c1.6 1.4 3.5 2.4 5.6 3l.5.1-5.3 106.2 2.4.1 5.3-105.9h.8c1.4 0 2.8-.2 4.2-.6l.6-.2 35.9 107.1 2.7-.8z" fill="#ffcf64"/><path class="st4" d="M554.8 284.9c-.3-8.1.6-15.7 2.6-21.5 1.2-3.4 2.6-6 4.3-7.6-1.7 1.6-3.1 4.2-4.3 7.6-2 5.8-3 13.4-2.6 21.5.6 17.1 6.5 30.3 13.4 30.3-6.9 0-12.8-13.2-13.4-30.3zM724.6 228.3c2.1 1.3 4.2 2.3 6.4 3.1 4.7 1.7 9.5 2.4 14.9 3.1 7.5.9 15.1 1.2 22.6.9l13.1-5.6-9.2-7.6-3.3-2.5c-1.6-.2-3.1-.4-4.7-.6-18-2.4-29.6-3.9-39.7-7.4-2.8-1-5.5-2.1-8.2-3.5l-.1-.1-5.1 4.8c2.7 6.4 7.4 11.7 13.3 15.4zM907.7 176.6c.3-.2.5-.4.7-.6l.2-.2.1-.1c2-1.6 3.3-2.5 4.4-4.6.7-1.4 1.1-3 1.1-4.6-.6-.7-1.1-1.4-1.6-2.1.2-.4.5-.8.7-1.2l-2.5-2.2 2.5 2.2c-.2.4-.5.8-.7 1.2-.7 1.2-1.5 2.2-2.4 3.2l-.5.5c-1.7 1.6-3.3 2.7-4.5 3.8-.6.7-1.1 1.4-1.3 2.2-.1.7-.2 1.4-.2 2v3.8c1.5-1.2 2.9-2.4 4-3.3z"/><path class="st4" d="M573.4 263.6c-2.1-4.9-4.7-7.7-7.2-7.7h-.1c-2.5.1-4.9 3.1-6.7 8.2-.7 2.1-1.3 4.4-1.7 6.9-.7 4.2-1 8.9-.8 13.8.6 16.9 6.3 28.2 11.2 28.2h.1c2.5-.1 4.9-3.1 6.7-8.2.2-.7.5-1.4.7-2.2 1.4-5.2 2.1-11.7 1.8-18.5-.2-7.9-1.7-15.1-4-20.5zM579.3 279.4c-.4-4.7-1.3-9-2.5-12.8 1.2 3.7 2.1 8.1 2.5 12.8z"/><path class="st4" d="M571.8 232.5c-1.5-.9-4.6-2.9-8.6-2.3-2.9.5-5.6 2-7.5 4.3-.1.5-.1 1.1-.2 1.6-.1 1.3-.3 2.6-.4 4-.1.7-.1 1.5-.2 2.2-.1 1.1-.1 1.9-.1 2.6-.1 2.6-.1 5-.1 7 .2-1.5.4-2.9.7-4 .5-1.9 1.3-3.4 2.9-4.5 1.7-1.3 3.9-1.8 6-1.6 6.6.7 11.5 12.6 14.9 23 3.2 9.7 5.6 19.7 7.2 29.9 2 .5 4 1 6.1 1.5-1.5-12.2-3.8-24.4-6.7-36.3-2.8-11.3-6.2-22.6-14-27.4zM929.8 253.8c-.2-1.5-.4-3.1-.6-4.6-.3-2.3-.7-4.6-1.1-6.9l-7.5 4.1 9.2 7.4zM565.7 253.7h.4-.4zM894.9 222.1c3.5.3 7 .2 10.5-.3h.3c.3-.1.7-.1 1-.2.2 0 .4-.1.5-.1h.2c.9-.2 1.9-.4 2.8-.7.1 0 .1 0 .2-.1l2.7-.9c.1 0 .1 0 .2-.1.9-.3 1.8-.7 2.7-1.1 0 0 .1 0 .1-.1.9-.4 1.7-.8 2.6-1.3-.7-1.1-1.4-2.3-2.1-3.4-.3.1-.5.2-.8.3l-2.4.9c-.3.1-.5.2-.8.3-3.6 1.2-7.3 2.2-11 3 3.4-1.7 6.6-3.7 9.5-6 1-.8 2-1.6 2.9-2.5-.3-.4-.6-.9-.9-1.3-1.8-2.6-3.7-5.2-5.6-7.7l-7.6 7.6-5 13.7zM915.6 168.1c0 .4 0 .9-.1 1.3-.1.8-.3 1.6-.6 2.4.9-.5 1.7-1.1 2.4-1.8l.2-.2c.3-.3.5-.5.7-.8-.2.3-.5.5-.7.8l-.1-.1c-.6-.4-1.2-1-1.8-1.6 0-2.4-.8-4.3-1.1-4.3 0 0-.1 0-.1.1 0 0 0-.1.1-.1.3 0 1.1 1.9 1.1 4.3zM470.9 196.1c1.6-.1 2.8-.1 3.1-.4-.3.3-1.4.3-3.1.4zM319.6 127.1l-57.9 81.6 3.2-.2 56.4-79.3zM492.2 205.4c-1.7-1.3-3.6-2.4-5.5-3.4-4.8-2.5-8.1-4.3-12.3-4.3-.7 0-1.5 0-2.2.1-.5.1-1 .1-1.5.2.5 0 1-.1 1.5-.1-1.8 1.7-3.7 3.2-5.9 4.3-2.2 1.2-7.9 4.4-15.3 2.6-1-.2-2-.6-3-1-2.9-1.2-5.5-3.1-7.5-5.4-1.4 1.2-3 2.2-4.7 2.9-.2.1-.4.1-.6.2l8.8 12.9h-13.2l-.8 35.7h.1v17.3-2.5h76.7v-43.1c-1.7-2.3-3.2-4.3-4.4-5.8-6-7.5-9-9.8-10.2-10.6zM273.1 266.5h103.7c.3 0 .6-.1.8-.2-.2.2-.5.2-.8.2H273.1c-.8 0-1.4-.6-1.4-1.4 0 .7.6 1.4 1.4 1.4zM531.8 196.4c0-2.4-.8-4.3-1.2-4.3.4 0 1.1 1.9 1.2 4.3 0 .4 0 .9-.1 1.3-.1.8-.3 1.6-.6 2.4.9-.5 1.7-1.1 2.4-1.8l.2-.2c-.2-.2-.4-.4-.6-.5-.5-.4-.9-.8-1.3-1.2zM885.3 142.5l-.6.9-.3-.3s.1 0 .3.3c.4.5 1.4 1.9 3.7 5.6.7 1.1 1.3 2 1.7 2.6.3-.7.6-1.4 1-2-2.6-1.7-4.6-4.2-5.8-7.1zM529.5 191.6c-.2.4-.5.8-.7 1.2-.7 1.2-1.5 2.2-2.4 3.2-2.7 2.9-5.7 4-6.2 6.6-.1.7-.2 1.4-.2 2v3.8c1.5-1.5 2.8-2.6 4-3.6 2.6-2.1 4.2-3 5.4-5.4.7-1.4 1.1-3 1.1-4.6-.6-.7-1.1-1.4-1.6-2.1.2-.2.4-.6.6-1.1zM501.5 170.8l-.6.9-.3-.3s.1 0 .3.3c.4.5 1.4 1.9 3.8 5.6.7 1.1 1.3 2 1.7 2.6.3-.7.6-1.4 1-2-2.7-1.7-4.7-4.2-5.9-7.1zM1095.7 298.4c-.6.5-.9.8-.9 1.1-.1 1.1 1.7 2.8 3.8 3.6h.1l-3-4.7zM1082.4 278.2c0 .1.1.2.1.3v.1l.3.3s0 .1.1.1c.3.3.7.6 1.2.8l-1.5-2.4c-.1.3-.2.6-.2.8z"/><path class="st4" d="M915.6 246l11.9-6.5c-.3-1.1-.6-2.2-.9-3.4-1.7-5.7-3.9-11.2-6.6-16.4-.5.3-1 .5-1.5.8-7.6 3.8-16.2 5.3-24.6 4.4L856.6 244l-72.4-12.3-15.3 6.5h-.3c-.8 0-2.9.1-5.6.1-5.9 0-11.8-.3-17.7-1-.3 0-.6-.1-.9-.1-4.8-.7-9.3-1.3-13.7-2.8-2.6-.9-5.2-2.1-7.8-3.7-6.6-4.2-11.8-10.2-15.1-17.3l-.4-.9 5.9-5.5c-8.9-5-16.8-11.4-23.5-19.1-.9 2-1.8 4-2.5 6-3.5 10.6-4.4 22-2.6 33 1.3-.2 2.5-.4 3.8-.4h.4c13.8-.3 24.1 11.4 29 17 2.3 2.6 4.4 5.5 6.3 8.5l48.5 6.5-9.5 8.6-4.6 4.1-26 .1c1.2 4.3 2.1 8.7 2.7 13.2 1.2 9.4 1.4 18.8.5 28.2 72.8 5 113.7 2.2 124.9 1.1 15.6-1.2 31-4 46-8.2 8.3-2.3 16.4-5.1 24.3-8.4.7-13.1.4-26.3-1-39.4L915.6 246zM1057.7 216.7l52.9 84.2c.2.4.5.7.8 1.1 0 0 0 .1.1.1l.1.1c.1.2.3.3.4.5.1.1.2.1.2.2.2.1.3.3.5.4.1.1.2.1.3.2.2.1.3.2.5.3.1.1.2.1.3.2.2.1.3.2.5.3.1.1.2.1.3.2.2.1.3.2.5.2.1 0 .2.1.3.1.2.1.4.1.5.2.1 0 .2.1.3.1.2 0 .4.1.6.1.1 0 .2 0 .3.1.2 0 .4.1.6.1h2.1c.2 0 .4-.1.7-.1.1 0 .2 0 .3-.1.2 0 .4-.1.6-.2.1 0 .2-.1.3-.1.2-.1.4-.1.6-.2.1 0 .2-.1.3-.1.2-.1.3-.2.5-.2.1-.1.2-.1.3-.2.1-.1.3-.2.4-.3.3-.2.6-.4.9-.7l.1-.1 22.4-19.3c3.5-3.1 4.3-8.2 1.8-12.2l-37.5-60.1-13-20.8s0-.1-.1-.1c-.1-.1-.2-.3-.3-.4-.1-.1-.1-.2-.2-.3-.1-.2-.3-.3-.4-.5-.1-.1-.1-.2-.2-.2-.2-.2-.3-.3-.5-.4l-.2-.2c-.2-.1-.4-.3-.5-.4-.1 0-.1-.1-.2-.1-.2-.1-.4-.3-.6-.4-.1 0-.1-.1-.2-.1-.2-.1-.4-.2-.7-.3-.1 0-.1-.1-.2-.1-.2-.1-.5-.2-.7-.3 0 0-.1 0-.1-.1-.2-.1-.5-.1-.7-.2h-.1c-.3-.1-.5-.1-.8-.1h-.1c-.3 0-.5-.1-.8-.1h-.9-.1c-.3 0-.5 0-.8.1h-.1c-.3 0-.5.1-.8.2h-.1c-.3.1-.5.2-.8.2h-.1c-.3.1-.5.2-.8.3 0 0-.1 0-.1.1-.2.1-.5.3-.7.4l-.1.1h-.1l-24.8 16c-3.6 2.3-5.1 6.6-4 10.4.2.8.5 1.7 1.1 2.5z"/><path class="st4" d="M1158.5 295.4l-27.1 23.4-1.2.9-.1.1c-.1 0-.1.1-.2.1l-.6.3c-.1.1-.3.1-.4.2l-.6.3c-.1.1-.3.1-.4.2-.2.1-.4.1-.6.2-.2 0-.3.1-.5.1s-.4.1-.6.1c-.2 0-.3.1-.5.1s-.4 0-.6.1h-1.6c-.2 0-.4 0-.7-.1h-.4c-.2 0-.5-.1-.7-.1-.1 0-.2 0-.3-.1-.3-.1-.5-.1-.7-.2-.1 0-.2-.1-.3-.1-.3-.1-.5-.2-.7-.3-.1 0-.2-.1-.3-.1-.2-.1-.5-.2-.7-.4-.1-.1-.2-.1-.3-.2-.2-.1-.4-.3-.6-.4-.1-.1-.2-.1-.3-.2-.2-.1-.4-.3-.6-.4l-.3-.3-.5-.5-.3-.3c-.1-.1-.3-.3-.4-.5-.3-.3-.5-.7-.8-1 0-.1-.1-.1-.1-.2l-63.9-101.8c-.8-1.3-1.4-2.8-1.6-4.3-1.2 3-1 6.4.8 9.2l63.9 101.8.6.9c0 .1.1.1.2.2.2.2.4.4.5.6l.2.2.5.5c.1.1.2.2.3.2.2.1.3.3.5.4.1.1.3.2.4.2.2.1.3.2.5.3.2.1.3.2.5.2.1.1.3.1.4.2.2.1.4.1.5.2.1 0 .3.1.4.1.2.1.4.1.6.2.1 0 .3.1.4.1.2 0 .3.1.5.1h.5c.8.1 1.7.1 2.5-.1h.2c.2 0 .5-.1.7-.2.1 0 .2 0 .3-.1.2-.1.5-.1.7-.2.1 0 .2-.1.3-.1.2-.1.5-.2.7-.3.1 0 .1-.1.2-.1.2-.1.5-.3.7-.4.1 0 .1-.1.2-.1.4-.3.8-.5 1.2-.9l27.1-23.4c.9-.9 2-2.5 2.5-4.3zM1152.3 314.7c-.2-1.3-.7-2.8-1.4-4.3-.2-.4-.5-.8-.7-1.2l-.3-.5-7.3 6.3c.8.3 1.6.5 2.4.8 1 .3 3.1 1.1 4.8 1.4 1 .2 1.9.2 2.2-.2.4-.4.5-1.3.3-2.3z"/><path class="st4" d="M1191.8 282.4l-.1-.2v-.2c-.4-3.5-2.6-7.6-4.8-11.5-2.3-4.4-5.5-8.4-9.3-11.6-3.7-3.3-7-7-10.1-10.9-2.5-3.3-4.9-6.8-7.1-10.3-3.4-5.4-5.3-8.3-9.9-9.9-1-.4-2.1-.5-3.2-.5-2.5-.1-5.1-.4-7.5-.9-3.6-.7-7.2-1.6-10.7-2.7-1.5-.5-3-.9-4.6-1.1l5.3 8.5c3.5 3.1 7.7 5.2 12.3 6l1.2.2v1.2c0 1.4.2 2.7.6 4l1.5 4.6.1.3-3.9-3.4c-2.1-1.9-4.3-3.5-6.7-5l25.9 41.5c1.9 3 2.3 6.8 1 10.1.5 4.3-1.1 8.5-4.4 11.4l-5.6 4.8.3.2c.1 0 .2.1.2.1 1.5 1 3 1.9 4.5 2.7.1 0 .1.1.2.1l.5.3 1.5 5.3c11.4-8.2 23.6-15.2 36.3-21l-2.2-7.2c-.2-1.6-.7-3.3-1.3-4.9zM670.5 293.3c-.9-25 6.7-44.9 17.3-45.3h.3c3 0 5.8 1.5 8.3 4.2-2.6-2.7-5.4-4.2-8.3-4.2h-.3c-10.6.4-18.2 20.3-17.3 45.3.8 20.9 7.2 37.7 15.5 42.5-8.2-4.8-14.7-21.6-15.5-42.5z"/><path class="st4" d="M705.2 292c-.9-24.7-9.7-41-17.3-40.7h-.4c-7.4.9-14.6 17.6-13.7 41.8.9 24.7 9.7 41 17.3 40.7 1 0 1.9-.4 2.9-.9 6.4-3.8 12-19.4 11.2-40.9zM624.3 190.3c1.1.9 2.7 1.6 3.9 2.2.1.1.2.1.4.2.3.1.7.3 1 .4 7.5 3.1 17.4 3.9 23.3 1.6 2.4-.9 4-2.2 4.7-3.8 1.2-2.6.1-5.9-1.3-7.9-.8-1.1-1.9-1.9-3.2-2.5-2-1-4.5-1.3-6.9-1.3-.6 0-1.1 0-1.7.1-2.2.1-4.3.4-6.4.9-7.8 1.6-15.2 5.7-15 8.4 0 .5.5 1.1 1.2 1.7z"/><path class="st4" d="M656.1 259.7c2.3-7.8 6.1-20.7 18.1-28.3 2.5-1.6 5.2-2.9 8.1-3.8-1.9-11.6-1-23.5 2.7-34.6.8-2.3 1.7-4.6 2.8-6.8-9.1-.2-18.2-.6-27.4-.9.4 1.2.5 2.5.4 3.7l7.4 8.4-11.6 7.7-5-7.1c-2.4.6-4.8.8-7.2.8-5.1 0-10.2-1-14.9-2.8-.7-.3-1.4-.5-2-.8-2.9-1.3-6.9-3.1-7.1-6.5-.1-1.9 1.1-3.7 3-5.2-4.7-.3-9.3-.6-13.9-.9-1.5 5.7-2.7 11.5-3.6 17.3-5.2 32.7-1.5 66.5 11 100.4l-.9.3c4.8.8 9.7 1.5 14.5 2 8.5 1 17.2 1.6 25.8 2-3.1-11.1-5.4-27.4-.2-44.9zM706 317.8c-.8 3.3-1.9 6.2-3.1 8.8 1.2-2.5 2.3-5.5 3.1-8.8zM727.3 255.1c1.4 2.5 2.6 5.1 3.7 7.7.5 1.1.9 2.3 1.4 3.4.3.7.6 1.5.8 2.2l24.5-.1 8.9-8-39.3-5.2z"/><path class="st4" d="M692.3 229.3c-1.1-.1-2.3-.2-3.5-.1-4.7.3-9.3 1.9-13.2 4.6-11.1 7-14.6 18.9-17 26.8-5.1 17.3-2.7 33.4.4 44.2 1.9.1 3.8.1 5.8.1-1.9-12-1.3-24.2 1.8-35.9 3.9-14.3 9.4-18.7 11.2-20.2 4.8-3.9 9.9-5.8 15-5.7 3.2.1 6.1.9 8.6 2.3 6.5 3.3 10.9 9.5 13.1 12.7 5.9 8.3 7.3 16.2 9.5 28.3 1.5 8.5 2.3 17.1 2.4 25.7 2.3.2 4.7.3 7 .5 1.3-14.4 1.6-45.9-17.2-67.2-4.7-5.4-12.9-14.8-23.9-16.1z"/><path class="st1" d="M1428.6 342.4c-15.2-17.4-42.9-43-84.7-57.2 3.5 15.3 8.8 30 15.8 44l.6 1.3-1.2.7c-5 2.9-22.8 11.7-43.8 4.6-22.1-7.5-30.9-27.4-33.6-35.1-4.6 7.2-6.9 15.6-6.5 24.1.4 6.7 2.4 13.1 5.8 18.8l2 3.4-3.8-1.2c-10.9-3.4-19.6-8.9-25.8-16.5-2.8-3.4-9.4-11.6-9.4-50.3-4 .8-7.5 1.6-10.4 2.3-.3-.1-.6-.2-.9-.4l-1.2-42.8-.2-15.1h-2.8l.2 13.5c-2.8-.3-5.5-1.2-8-2.6-11.3-6.7-12.3-24.4-13.3-41.4-1-17.2-1.5-25.8 3.2-31.6.2-.2.4-.5.7-.8 2.4-2.8 6.7-7.9 7-14.6.1-1.9-.2-5-.2-5.6-.2-1.6-.4-2.9-.7-4.1-.4-1.8-.6-3.6-.7-5.5-.1-5.3 1.9-9.9 5.8-17.7-.3-1.5-.7-2.9-1-4.2-5.2 10-7.7 15.2-7.6 21.9.1 2 .3 4 .7 6 .2 1.2.5 2.4.6 3.9 0 .4.3 3.5.2 5.2-.2 5.7-4.1 10.3-6.3 12.8-.3.3-.5.6-.7.9-5.4 6.6-4.9 15.6-3.8 33.5 1 17.8 2.1 36.2 14.7 43.7 2.9 1.7 6.1 2.7 9.5 3l.4 14.3.1 3.3.7 25.2c-6.2 1.6-12.4 3.5-18.5 5.7-4.6 1.6-9.1 3.4-13.6 5.4l-2-6.7c-.3-1.8-.8-3.5-1.5-5.2-.5-4-2.8-8.3-5.1-12.4-.2-.4-.4-.7-.6-1h40.5l-.1-3.3h-42.5c-2-2.8-4.3-5.4-6.9-7.7l-.3-.3c-1-.9-2-1.9-3.1-3-2.4-2.4-4.6-4.9-6.7-7.6-2.5-3.2-4.8-6.6-6.9-10.1-3.5-5.5-5.8-9.2-11.5-11.1-1.3-.4-2.6-.7-4-.7-2.4-.1-4.8-.4-7.1-.9-3.5-.7-7-1.6-10.4-2.6-3.3-1-5.5-1.6-6.9-.8l-23.3-37.3c-3.4-5.4-10.4-7-15.8-3.7l-.1.1-29.9 19.3c-2.1 1.4-3.7 3.4-4.6 5.8-4.5 4.2-5.5 11.1-2.2 16.3l20.8 33.1 2.1 3.3 4.9 7.7H933.8c-.2-3.2-.5-6.4-.9-9.6-.5-5.2-1.3-10.4-2.4-15.5l-.3-1.7-.1.1c-.2-.9-.5-1.8-.8-2.8-1.7-5.9-4-11.6-6.8-17-2.7-5.3-5.9-10.3-9.5-15-1.2-1.6-2.7-3.6-4.6-5.7l-.6-.8c-1.1-1.3-2.4-2.6-3.8-4 .6-3.6 1.9-6.9 4-9.9 2.3-3 4.9-5.8 7.8-8.4 1.2-1 2.4-2.1 3.4-3.3.5-.6.9-1.2 1.2-1.8.3-.5.5-1 .6-1.5.3-1 .5-1.9.5-2.6 0-.7 0-1.2-.2-1.2-.3-.1-.8 2-2.4 4.3-3.2-2.6-5.6-6.1-7-10.1-1.5-4.7-1.5-9.7-.1-14.3l2.5-8.5-4.4 7.6c-1.4 2.4-3.5 4.3-6 5.4-2.7 1.3-5.8 1.6-8.7.8-.1 0-.2-.1-.2-.1-.1 0-.2-.1-.3-.1 0 0 0 .1-.1.1-.4.6-.7 1.2-.9 1.9l.9.3c3.4.9 7 .6 10.2-.9 1.5-.7 2.9-1.6 4-2.7-.1.7-.2 1.5-.2 2.3-.1 3 .3 6 1.2 8.9.3.8.6 1.6 1 2.4-.3.4-.5.7-.8 1.1-2 2.4-4.6 4.4-7.5 5.6-.8.3-1.6.6-2.4.8h-1.6c-1.1-.5-4.7-2.4-6-6.1-.4-1.1-.6-2.3-.6-3.5 0-1.8.3-3.6 1-5.3.4-1.2.6-2.1.9-2.9.2-.6.5-1.3.9-1.9 0 0 0-.1.1-.1.8-1.4 1.3-1.6 2.4-3.4.4-.6 1.7-2.7 1.7-3.5 0-.1 0-.2-.1-.2-.5-.4-3.9 2.3-6.4 5.8 0 .1-.1.1-.1.2-2.8-2-4.8-4.9-5.7-8.2l-.8-3.1-1.3 3c-1.4 3.1-3.7 5.7-6.5 7.6.4.4.9 1 1.5 1.6 1.9-1.3 3.5-2.9 4.9-4.8.3 1.1 1.1 3.1 1.3 3.4 1.7 3.9 2.5 4.5 3.1 6.4.7 2.4.1 4-.3 5.8-1.2-1.6-2.1-2.9-3.7-4.9-2.1-2.5-3.9-4.5-4.9-5.6l-.3-.3c-.6-.6-1.1-1.2-1.5-1.6-2.4-2.5-2.9-2.6-4.5-4.5-3.9-4.6-4.7-9.1-5.3-8.9-.3.1-.3 1.3 0 2.8.2.9.5 2 .9 3 1.2 2.9 3.3 5.3 5.9 6.9 0 0 .1 0 .1.1-1.1-.5-2.3-1-3.5-1.3-3.6-1-7.3-1.2-7.4-.7-.1.4 2.2.7 5.4 2.3 1.4.7 2.7 1.5 4 2.3-2.8.7-5.7.7-8.4 0-1.6-.4-3.2-1.1-4.7-2l-3.5-2.2 1.9 3.6c2.3 4.2 2.4 9.3.2 13.6.6.5 1.1 1 1.7 1.5 1.5-2.7 2.2-5.7 2.1-8.8-.1-1.5-.3-3-.8-4.4 3.9 1.6 8.2 2 12.2.9.5-.1 1-.3 1.4-.5.6.5 1.1.9 1.5 1.3 2.1 2 3.6 3.9 6.4 7.7 2.6 3.6 4 5.4 5 7.8 1.1 2.6 1.9 5.3 2.2 8.2v5.5c-2.7-3.1-5.9-5.7-9.5-7.7-1.8-1-3.8-1.9-5.8-2.6-2.1-.8-2.6-.8-6.4-2-1.6-.5-2.9-.9-3.9-1.3-1.5-1.3-2.9-2.6-4.4-3.9-.6-.5-1.1-1-1.7-1.5-7.4-6.3-15.2-12.1-23.4-17.3-11.9-7.9-24.7-14.4-38.1-19.5-1.2-.4-2.3-.8-3.5-1.2-1-.3-1.9-.7-2.9-1-11.4-3.7-23.2-6.3-35-7.8-17.5-2.4-35.2-3.2-52.9-2.2h-.5c-24.9 1.2-42.9 2-60.9 8.3-8.9 3.1-17.3 7.4-25.1 12.7-.7.4-1.3.9-2 1.4-20.3 14.4-34.3 33.9-43.4 50-3.6 2.2-11.2 7.8-14.5 17.6-3.1.5-6.2.4-9.2-.3-4-1-7.8-2.7-11.1-5.1.3-.5.5-1 .7-1.5.7-2 .6-3.8.4-3.8-.3-.1-.8 2-2.4 4.3-3.2-2.6-5.6-6.1-7-10.1-1.5-4.7-1.5-9.7-.1-14.3l2.5-8.5-4.5 7.6c-1.4 2.4-3.5 4.3-6 5.4-2.7 1.3-5.8 1.6-8.7.8-.2-.1-.4-.1-.5-.2l-.1.1c-.4.6-.7 1.2-.9 1.9l.9.3c3.4.9 7 .6 10.2-.9 1.5-.7 2.9-1.6 4-2.7-.2 1.4-.2 2.8-.2 4.2.1 2.4.5 4.7 1.2 6.9.3.8.6 1.6 1 2.4-1.1 1.5-2.3 2.8-3.7 3.9-1.4 1.1-3 2.1-4.6 2.8-.8.3-1.6.6-2.4.8h-1.6c-1.1-.5-4.7-2.4-6-6.1-.4-1.1-.6-2.3-.6-3.5 0-1.8.3-3.6 1-5.3.4-1.2.6-2.1.9-2.9.2-.6.5-1.3.9-1.9l.1-.1c.8-1.4 1.3-1.6 2.5-3.4.4-.7 2.1-3.4 1.7-3.7-.5-.4-3.9 2.3-6.4 5.8 0 .1-.1.1-.1.2-2.8-2-4.8-4.9-5.7-8.2l-.8-3.1-1.3 3c-1.4 3.1-3.7 5.7-6.5 7.6.4.4.9 1 1.5 1.6.3-.2.5-.4.8-.6 1.6-1.2 2.9-2.6 4.1-4.2.3 1.1 1.1 3.1 1.3 3.4 1.7 3.9 2.5 4.5 3.1 6.4.8 2.4.1 4-.3 5.9-1.2-1.6-2.1-2.9-3.7-4.9-2.1-2.5-3.9-4.5-4.9-5.6l-.3-.3c-.6-.6-1.1-1.2-1.5-1.6-2.4-2.5-2.9-2.6-4.5-4.5-3.9-4.6-4.7-9.1-5.3-8.9-.5.1-.2 3.1.8 5.8 1.2 2.9 3.3 5.3 6 7-1.1-.5-2.3-1-3.5-1.3-3.6-1-7.3-1.2-7.4-.7-.1.4 2.2.7 5.4 2.3 1.4.7 2.7 1.5 4 2.4-4.5 1.1-9.2.4-13.2-2.1l-3.5-2.2 1.9 3.6c1.1 2 1.7 4.1 1.8 6.4.1 3.3-.9 6.5-2.7 9.2l2 1c2-3.1 3.1-6.7 3-10.4-.1-1.5-.3-3-.8-4.4 3.4 1.4 7.1 1.9 10.7 1.2.2 0 .3-.1.5-.1.3-.1.7-.1 1-.2.4-.1.8-.3 1.2-.4.1 0 .1 0 .2-.1.6.5 1.1.9 1.5 1.3 2.1 2 3.6 3.9 6.4 7.7 2.6 3.6 4 5.4 5 7.8 1.1 2.6 1.9 5.3 2.2 8.2v5.5c-2.7-3.1-5.9-5.7-9.5-7.7-1.8-1-3.8-1.9-5.8-2.6-2.1-.8-2.6-.8-6.4-2-2.4-.7-4.7-1.5-7-2.5-.4-.2-1.1-.5-2.3-1.2-.5-.3-1.2-.6-2-1l-1.1-.6c-4.1-2.1-5-2.6-5.2-2.4-.3.4 1.5 2.5 3.6 4.1.5.4.9.6 1.2.9-.5.6-1.1 1.2-1.6 1.8-1 .1-2.1.1-3.4.3-1.7.3-3.4.7-5 1.2 1.8.3 3.7.4 5.5.5h.7c-1 .8-2.2 1.5-3.3 2.2-2 1.1-7.2 3.9-13.7 2.4-4-1-7.5-3.3-10.1-6.6l-.8-1-.9.9c-1.3 1.4-2.9 2.5-4.7 3.2-.4.1-.7.3-1.1.4l-6.9-10.2 2.6 7.6 10.3 15.1-59.7-.1-56.6-86.3 12.9.6 2.1-2.1-19.1-.9v.1l-62.2 87.7 6.9-.5h6.3v-.9 55h-74.4c-.9 0-1.6.8-1.6 1.7 0 .9.7 1.6 1.6 1.6H406c-.3-.2-.6-.5-.9-.8-5.2-4.9-9.3-10.7-12.1-17.3h-15.4c-.2-.2-.5-.3-.8-.3H351v-22h-13.1v22h-64.7-.4-.1v-41l50.9-74.1-1.3-2-52.9 77 52.9-77 1.3 2 50.9 79.5h1.6l.3 35.5h.3c.3 0 .6.1.8.3h1l-.3-35.8h2.3l-57-84.7-26.2 36.9 26.2-36.9 57 84.7 47.9.1v1.3l-.8 34.4h-32c3.5 7.4 7.9 13.2 13.2 17.3.3.3.7.5 1 .8h112.5c.3-1.1.7-2.2 1.1-3.3h-3.7v-43.3c.5-3.8 1.9-7.4 4.1-10.5 2.3-3 4.9-5.8 7.8-8.4 1.2-1 2.4-2.1 3.4-3.3.2-.2.4-.5.5-.7-.2.2-.3.5-.5.7 3.6 2.6 7.6 4.4 11.9 5.5 2.9.6 6 .8 9 .4 0 .1-.1.3-.1.4-.1.3-.1.5-.2.8l2.8-.1v-.1c1.4-6.1 4.7-10.6 7.9-13.7 2.5-2.5 4.9-4.1 6.5-5l.3-.2.2-.3c5.4-9.7 12.8-20.8 22.2-31.1 12-13.2 27.4-25.2 46.9-32 17.7-6.2 35.5-7 60.2-8.2h.5c17.5-.9 35-.2 52.4 2.2 13.9 1.8 27.6 5.1 40.8 9.9 13.2 5 25.8 11.4 37.6 19.2 12.8 8.2 24.7 17.7 35.5 28.5l.2.2.3.1c1.5.4 2.9.9 4.4 1.5 5.4 1.9 10.5 4.5 15.3 7.5 5.9 3.8 11.3 8.5 16 13.9l-7.3 7.3c-13.3 7.8-28.2 12.5-43.6 14-17.2.8-34.4.8-51.4 0-13.6-.6-26.7-1.8-38.8-3.4-24.4-3.2-35.7-4.9-47.1-10.7a86.03 86.03 0 01-28.1-23.1h-.1c-6.6-13.8-14.7-26.8-24.1-38.8-8.6-10.9-13.2-12.8-17-13.6-13.2-3-25.9 8.2-36.6 17.8-6.5 5.8-12.4 12.3-17.4 19.4-3 4.3-5.8 8.7-8.2 13.4 6.8.5 13.7 1 20.6 1.5-1.4 5.6-2.6 11.4-3.5 17.1-5.2 32.9-1.6 66.8 10.8 100.8-6.2-1-12.4-2.2-18.6-3.6-1.6-12.7-3.9-25.2-6.9-37.6-2.9-11.7-6.4-23.5-15.1-28.9-1.6-1-5.5-3.4-10.4-2.7-2.4.3-4.6 1.3-6.5 2.7.3-2 .7-4 1.1-5.9l1.2-5.1.1-.3-.1-.3v-.1l-1.9 1.8-1.5 1.4c-.2.7-.3 1.4-.5 2-1.3 6.1-2.1 12.2-2.5 18.4-.1 1.1-.1 2-.1 2.7-.2 5.2-.1 9.4 0 11.8-.2 1.1-.3 2.2-.5 3.4-.2 1.2-.4 2.8-.6 4.9-.1 1-.2 2.1-.3 3.3-.2 2.7-.3 5.8-.3 9.3 0 13.1 2 20.4 2.6 22.4.2.7.4 1.4.6 2 .3.8.5 1.5.8 2.2.5 1.3.9 2.3.9 2.3.1.3.2.5.4.8.4.8.7 1.5 1.1 2.2.5 1 1 1.9 1.5 2.8l.3.6c.3.6.6 1.1 1 1.6 2.9 4.2 7.7 6.6 12.8 6.5l23.5-.5c3.4-.1 6.6-1.9 8.4-4.9.7-1.2 1.4-2.4 1.9-3.7 1.3-3 2.2-6.2 2.6-9.5 7.1 1.3 14.2 2.3 21.3 3.2 12.1 1.4 24.2 2.1 36.4 2.2h.1c.6 2.2 1.3 4.4 2.1 6.6 1.2 3.6 2.7 7.1 4.3 10.5.3.7.7 1.5 1 2.2.5 1 1 2 1.5 2.9 0 .1.1.1.1.2 3.3 6.1 9.8 9.9 16.7 9.7l28.5-.6c4.2-.1 8-2.3 10.2-5.9 3.2-5.4 5.2-11.4 5.6-17.6 31.5 2.1 57 2.8 76.7 2.8 25.7 0 41.6-1.2 48-1.7 2.2-.2 4.8-.4 7.9-.8 1.2 2.8 2.5 5.4 3.7 7.8.5 1 1.1 1.9 1.8 2.7h24.6c.1 0 .2 0 .3.1-.1 0-.2-.1-.3-.1H793.2c-.6 0-1.1.5-1.1 1.1 0 .6.5 1 1.1 1.1h83.3c3.5 3.3 8.2 5.1 13.1 5l28.5-.6c4.2-.1 8-2.3 10.2-5.9.9-1.5 1.7-3 2.3-4.5 1-2.2 4.5-10.6 3.3-24.1.6-10 .6-20 0-30h142.7l4.3 6.9c-1.1.9-1.6 2.2-1.5 3.6.4 2.6 3.6 4.3 7 5.1l7.7 12.2c-1.2.7-2.1 2-2.2 3.4-.2 3.1 3.3 5.6 5.7 6.4 1 .4 2 .6 3.1.6l10.2 16.3c3.8 6 11.8 7.9 17.8 4.1.6-.3 1.1-.7 1.6-1.2l9.7-8.4c1.2.4 2.5.9 3.9 1.4 5.1 1.8 8.2 2.4 10 .5 1.8-1.7 1.3-4.7.6-7 .2.1.3.2.5.3l1.5 5.1c-10.2 7.5-19.8 15.9-28.6 25-4.2 4.3-7.7 8.3-10.5 11.6H1438c-2.3-3.9-5.4-7.8-9.4-12.4zM272.4 250s-.1 0-.1.1c0 0 .1 0 .1-.1zm-.3.3l-.1.1.1-.1zm-.3.4v0zm-.1 14.3c0 .8.6 1.4 1.4 1.4h103.7c.3 0 .6-.1.8-.2-.2.2-.5.2-.8.2H273.1c-.8.1-1.4-.6-1.4-1.4zm-6.8-56.5l-3.1.2 57.9-81.7 1.7 2.2-56.5 79.3zM474 195.7c-.3.3-1.4.3-3.1.4 1.7-.1 2.8-.1 3.1-.4zm32.7 69.2H430v2.5-17.3l.8-35.7H444l-8.8-12.9c.2-.1.4-.1.6-.2 1.7-.7 3.3-1.6 4.7-2.9 2.1 2.4 4.6 4.2 7.5 5.4 1 .4 2 .7 3 1 7.4 1.7 13.1-1.4 15.3-2.6 2.1-1.2 4.1-2.6 5.9-4.3-.5.1-1 .1-1.5.1.5 0 1-.1 1.5-.2.7-.1 1.5-.1 2.2-.1 4.3 0 7.5 1.8 12.3 4.3 1.9 1 3.8 2.1 5.5 3.4 1.1.8 4.1 3.1 10.1 10.5 1.2 1.6 2.8 3.5 4.4 5.8v43.2zm.6-87c-.4.7-.7 1.3-1 2-.4-.6-1-1.5-1.7-2.6-2.4-3.7-3.3-5.1-3.8-5.6-.2-.3-.3-.3-.3-.3s.1 0 .3.3l.6-.9c1.3 2.9 3.3 5.4 5.9 7.1zm23.1 17c-.1 1.6-.5 3.2-1.1 4.6-1.2 2.4-2.8 3.3-5.4 5.4-1.1.9-2.5 2.1-4 3.6v-3.8c0-.7.1-1.4.2-2 .5-2.6 3.5-3.7 6.2-6.6.9-1 1.7-2.1 2.4-3.2.2-.4.5-.8.7-1.2-.2.4-.5.8-.7 1.2.6.7 1.2 1.4 1.7 2zm3.2 3.2l-.2.2c-.7.7-1.5 1.3-2.4 1.8.3-.8.5-1.6.6-2.4.1-.4.1-.9.1-1.3 0-2.4-.8-4.3-1.1-4.3.4 0 1.1 1.9 1.2 4.3.4.4.9.8 1.3 1.2.2.2.3.4.5.5.1 0 .1 0 0 0zm357.5-48.5c-.4.7-.7 1.4-1 2-.4-.6-1-1.5-1.7-2.6-2.3-3.7-3.3-5.1-3.7-5.6-.2-.3-.3-.3-.3-.3s.1 0 .3.3l.6-.9c1.2 2.9 3.2 5.4 5.8 7.1zm23.3 14.2c.4 0 1.1 1.9 1.2 4.3.6.6 1.2 1.2 1.8 1.7l.1.1c.3-.3.5-.5.7-.8-.2.3-.5.5-.7.8l-.2.2c-.7.7-1.5 1.3-2.4 1.8.3-.8.5-1.6.6-2.4.1-.4.1-.9.1-1.3 0-2.5-.8-4.4-1.2-4.4zm-10.7 16.4v-3.8c0-.7.1-1.4.2-2 .2-.9.6-1.6 1.3-2.2 1.1-1.2 2.8-2.2 4.5-3.8l.5-.5c.9-1 1.7-2.1 2.4-3.2.2-.4.5-.8.7-1.2l-2.5-2.2 2.5 2.2c-.2.4-.5.8-.7 1.2.5.7 1 1.4 1.6 2.1-.1 1.6-.5 3.2-1.1 4.6-1 2-2.3 3-4.4 4.6l-.1.1-.2.2c-.2.2-.5.4-.7.6-1.1.6-2.5 1.8-4 3.3.1 0 .1 0 0 0zm-335.5 135c-6.9 0-12.8-13.2-13.4-30.3-.3-8.1.6-15.7 2.6-21.5 1.2-3.4 2.6-6 4.3-7.6-1.7 1.6-3.1 4.2-4.3 7.6-2 5.8-2.9 13.4-2.6 21.5.6 17.1 6.5 30.3 13.4 30.3zm7.4-12.6c-.2.7-.4 1.5-.7 2.2-1.8 5.1-4.2 8.1-6.7 8.2h-.1c-4.9 0-10.6-11.2-11.2-28.2-.2-4.9.1-9.6.8-13.8.4-2.5 1-4.9 1.7-6.9 1.8-5.1 4.2-8.1 6.7-8.2h.1c2.5 0 5.1 2.8 7.2 7.7 2.3 5.4 3.7 12.7 4 20.5.3 6.7-.3 13.2-1.8 18.5zm-10.2-48.9zm.3 0h.4-.4zm.4 0h.6-.6zm.6 0c.2 0 .4 0 .6.1-.2-.1-.4-.1-.6-.1zm10.1 12.8c1.2 3.8 2 8.2 2.5 12.8-.4-4.6-1.3-9-2.5-12.8zm15.6 29.5c-2-.5-4-1-6.1-1.5-1.5-10.1-3.9-20.1-7.2-29.9-3.5-10.3-8.3-22.3-14.9-23-2.1-.2-4.3.4-6 1.6-1.5 1.1-2.3 2.6-2.9 4.5-.3 1.2-.5 2.5-.7 4 0-2 0-4.4.1-7 0-.7.1-1.6.1-2.6.1-.8.1-1.5.2-2.2.1-1.3.2-2.7.4-4 .1-.5.1-1.1.2-1.6 1.9-2.3 4.5-3.8 7.5-4.3 4-.5 7.1 1.4 8.6 2.3 7.9 4.8 11.2 16.1 13.9 27.2 3 12.1 5.3 24.3 6.8 36.5zm335.7-53.7c.4 2.3.8 4.6 1.1 6.9.2 1.5.4 3.1.6 4.6l-9.2-7.4 7.5-4.1zm-28.3-33.9l7.6-7.6c1.9 2.5 3.8 5.1 5.6 7.7.3.4.6.9.9 1.3-.9.8-1.8 1.6-2.9 2.5-3 2.3-6.1 4.3-9.5 6 3.7-.8 7.4-1.8 11-3 .3-.1.5-.2.8-.3l2.4-.9c.3-.1.5-.2.8-.3.7 1.1 1.4 2.3 2.1 3.4-.9.5-1.7.9-2.6 1.3 0 0-.1 0-.1.1-.9.4-1.8.8-2.7 1.1-.1 0-.1 0-.2.1l-2.7.9c-.1 0-.1 0-.2.1-.9.3-1.8.5-2.8.7h-.1-.1c-.2 0-.4.1-.5.1-.3.1-.7.1-1 .2h-.3c-3.5.6-7 .7-10.5.3l5-13.7zm-183.7-.1l.1.1c2.7 1.4 5.4 2.5 8.2 3.5 10.1 3.5 21.8 5.1 39.7 7.4 1.6.2 3.1.4 4.7.6l3.3 2.5 9.2 7.6-13.1 5.6c-7.5.3-15.1-.1-22.6-.9-5.3-.7-10.2-1.4-14.9-3.1-2.1-.8-4.2-1.8-6.4-3.1-5.8-3.8-10.5-9-13.6-15.3l5.4-4.9zm-78-28.2c2.1-.5 4.3-.8 6.4-.9.6 0 1.1-.1 1.7-.1 2.4 0 4.8.3 6.9 1.3 1.2.6 2.3 1.4 3.2 2.5 1.5 2 2.5 5.2 1.3 7.9-.7 1.6-2.3 2.9-4.7 3.8-5.9 2.2-15.8 1.5-23.3-1.6-.3-.1-.7-.3-1-.4-.1-.1-.2-.1-.4-.2-1.2-.6-2.8-1.3-3.9-2.2-.7-.6-1.2-1.2-1.3-1.8-.2-2.6 7.3-6.7 15.1-8.3zm-7.7 122.5c-4.8-.6-9.7-1.2-14.5-2l.9-.3c-12.5-33.9-16.2-67.6-11-100.4.9-5.8 2.1-11.6 3.6-17.3 4.6.3 9.3.6 13.9.9-1.9 1.5-3.1 3.3-3 5.2.2 3.3 4.2 5.1 7.1 6.5.7.3 1.3.6 2 .8 4.8 1.8 9.8 2.8 14.9 2.8 2.4 0 4.8-.2 7.2-.8l5 7.1 11.6-7.7-7.4-8.4c.1-1.2-.1-2.5-.4-3.7 9.2.4 18.4.7 27.4.9-1.1 2.2-2 4.5-2.8 6.8-3.7 11.1-4.6 23-2.7 34.6-2.9.9-5.6 2.2-8.1 3.8-12 7.6-15.8 20.5-18.1 28.3-5.2 17.5-2.9 33.8.1 44.9-8.5-.4-17.2-1-25.7-2zm40.1-9.3c-.9-25 6.6-44.9 17.3-45.3h.3c3 0 5.8 1.5 8.3 4.2-2.6-2.7-5.4-4.2-8.3-4.2h-.3c-10.6.4-18.2 20.3-17.3 45.3.8 20.9 7.2 37.7 15.6 42.5-8.3-4.8-14.8-21.6-15.6-42.5zm23.4 39.7c-1 .6-1.9.9-2.9.9-7.6.3-16.3-16-17.3-40.7-.9-24.2 6.3-40.9 13.7-41.8h.4c7.6-.3 16.3 16 17.3 40.7.9 21.4-4.7 37-11.2 40.9zm9-6.4c1.2-2.6 2.2-5.5 3.1-8.8-.8 3.3-1.9 6.3-3.1 8.8zm30.5-14.2c-2.3-.2-4.6-.3-7-.5-.1-8.6-.9-17.2-2.4-25.7-2.2-12-3.6-20-9.5-28.3-2.2-3.1-6.6-9.3-13.1-12.7-2.5-1.3-5.4-2.2-8.6-2.3-5.1-.1-10.2 1.8-15 5.7-1.8 1.4-7.3 5.8-11.2 20.2-3.1 11.7-3.7 24-1.8 35.9-1.9 0-3.8-.1-5.8-.1-3.1-10.8-5.5-26.9-.4-44.2 2.3-7.9 5.8-19.8 17-26.8 3.9-2.7 8.5-4.2 13.2-4.6 1.2 0 2.4 0 3.5.1 11 1.3 19.2 10.7 23.8 15.9 18.9 21.6 18.6 53.1 17.3 67.4zm33.3-52.1l-8.9 8-24.5.1c-.3-.7-.5-1.5-.8-2.2-.4-1.2-.9-2.3-1.4-3.4-1.1-2.6-2.4-5.2-3.7-7.7l39.3 5.2zm132.9 66zm31.7-29.1c-8 3.2-16.1 6-24.3 8.4-15 4.2-30.5 7-46 8.2-11.2 1-52.2 3.9-124.9-1.1.9-9.4.7-18.9-.5-28.2-.6-4.4-1.5-8.8-2.7-13.2l26-.1 4.6-4.1 9.5-8.6-48.5-6.5c-1.9-3-4-5.8-6.3-8.5-5-5.6-15.3-17.3-29-17h-.4c-1.3.1-2.5.2-3.8.4-1.8-11.1-.9-22.4 2.6-33 .7-2.1 1.5-4.1 2.5-6 6.7 7.7 14.6 14.1 23.5 19.1l-5.9 5.5.4.9c3.3 7.1 8.5 13.1 15.1 17.3 2.6 1.6 5.2 2.8 7.8 3.7 4.4 1.5 8.8 2.1 13.7 2.8.3 0 .6.1.9.1 5.9.7 11.8 1.1 17.7 1 2.7 0 4.8-.1 5.6-.1h.3l15.3-6.5 72.4 12.3 37.3-19.3c8.5 1 17-.6 24.6-4.4.5-.3 1-.5 1.5-.8 2.7 5.3 4.9 10.8 6.6 16.4.3 1.2.6 2.3.9 3.4l-11.9 6.5 14.8 11.8c1.1 13.3 1.4 26.5.6 39.6zm129.3-93.5l24.8-16h.1l.1-.1c.2-.1.5-.3.7-.4 0 0 .1 0 .1-.1.3-.1.5-.2.8-.3h.1c.3-.1.5-.2.8-.2h.1c.3-.1.5-.1.8-.2h.1c.3 0 .5-.1.8-.1h1c.3 0 .5 0 .8.1h.1c.3 0 .5.1.8.1h.1c.2.1.5.1.7.2 0 0 .1 0 .1.1.2.1.5.2.7.3.1 0 .1.1.2.1.2.1.4.2.7.3.1 0 .1.1.2.1.2.1.4.2.6.4.1 0 .1.1.2.1.2.1.4.3.5.4l.2.2c.2.1.3.3.5.4.1.1.1.2.2.2.1.2.3.3.4.5.1.1.1.2.2.3.1.1.2.3.3.4 0 0 0 .1.1.1l13 20.8 37.5 60.1c2.5 4 1.7 9.2-1.8 12.2l-22.4 19.3-.1.1c-.3.2-.6.5-.9.7-.1.1-.3.2-.4.3-.1.1-.2.1-.3.2-.2.1-.3.2-.5.2-.1.1-.2.1-.3.1-.2.1-.4.1-.6.2-.1 0-.2.1-.3.1-.2.1-.4.1-.6.2-.1 0-.2 0-.3.1-.2 0-.4.1-.7.1H1117.7c-.2 0-.4 0-.6-.1-.1 0-.2 0-.3-.1-.2 0-.4-.1-.6-.1-.1 0-.2-.1-.3-.1-.2-.1-.4-.1-.5-.2-.1 0-.2-.1-.3-.1-.2-.1-.3-.1-.5-.2-.1-.1-.2-.1-.3-.2-.2-.1-.3-.2-.5-.3-.1-.1-.2-.1-.3-.2-.2-.1-.3-.2-.5-.3-.1-.1-.2-.1-.3-.2-.2-.1-.3-.3-.5-.4-.1-.1-.2-.1-.2-.2-.2-.1-.3-.3-.4-.5l-.1-.1s0-.1-.1-.1c-.3-.3-.6-.7-.8-1.1l-52.9-84.2c-.5-.8-.9-1.7-1.1-2.6-1.1-3.8.4-8 4-10.3zm23.5 76.2c-.5-.3-.9-.6-1.2-.8l-.1-.1-.3-.3v-.1c-.1-.1-.1-.2-.1-.3 0-.3.1-.5.3-.7l1.4 2.3zm14.5 23.2c-2.1-.8-3.9-2.5-3.8-3.6 0-.3.3-.6.9-1.1l3 4.8c0-.1 0-.1-.1-.1zm29.9 20.2l-1.2.9c-.1 0-.1.1-.2.1-.2.1-.5.3-.7.4-.1 0-.1.1-.2.1-.2.1-.5.2-.7.3-.1 0-.2.1-.3.1-.2.1-.5.2-.7.2-.1 0-.2 0-.3.1-.2.1-.5.1-.7.2h-.2c-.8.1-1.7.1-2.5.1h-.5c-.2 0-.3-.1-.5-.1-.1 0-.3-.1-.4-.1-.2 0-.4-.1-.6-.2-.1 0-.3-.1-.4-.1-.2-.1-.4-.1-.5-.2-.1-.1-.3-.1-.4-.2-.2-.1-.3-.2-.5-.2-.2-.1-.3-.2-.5-.3-.1-.1-.3-.2-.4-.2-.2-.1-.3-.2-.5-.4-.1-.1-.2-.2-.3-.2-.2-.1-.3-.3-.5-.5l-.2-.2c-.2-.2-.4-.4-.5-.6 0-.1-.1-.1-.2-.2l-.6-.9-63.9-101.8c-1.7-2.8-2-6.2-.8-9.2.2 1.5.8 3 1.6 4.3l63.9 101.8c0 .1.1.1.1.2.2.4.5.7.8 1 .1.2.3.3.4.5l.3.3.5.5.3.3c.2.2.4.3.6.4.1.1.2.1.3.2.2.1.4.3.6.4.1.1.2.1.3.2.2.1.5.2.7.4.1 0 .2.1.3.1.2.1.5.2.7.3.1 0 .2.1.3.1.2.1.5.1.7.2.1 0 .2.1.3.1.2 0 .5.1.7.1h.4c.2 0 .4 0 .7.1h1.6c.2 0 .4 0 .6-.1.2 0 .3-.1.5-.1s.4-.1.6-.1c.2 0 .3-.1.5-.1.2-.1.4-.1.6-.2.1-.1.3-.1.4-.2l.6-.3c.1-.1.3-.1.4-.2l.6-.3c.1 0 .1-.1.2-.1l.1-.1c.4-.3.9-.6 1.2-.9l27-23.4c-.6 1.8-1.6 3.3-3 4.6l-26.5 23.1zm23.5-6.3c-.3.3-1.2.3-2.2.2-1.7-.3-3.9-1-4.8-1.4-.8-.3-1.6-.6-2.4-.8l7.3-6.3.3.5c.3.4.5.8.7 1.2.8 1.5 1.3 3 1.4 4.3.2 1 .1 1.9-.3 2.3zm7-1.4c0 .1 0 .1 0 0l-1.5-5.3-.5-.3c-.1 0-.1-.1-.2-.1-1.5-.8-3-1.7-4.5-2.7-.1 0-.2-.1-.2-.1l-.3-.2 5.6-4.8c3.3-2.8 4.9-7.1 4.4-11.4 1.3-3.3.9-7.1-1-10.1l-25.9-41.5c2.4 1.4 4.6 3.1 6.7 5l3.9 3.4-.1-.3-1.5-4.6c-.4-1.3-.6-2.7-.6-4v-1.2l-1.2-.2c-4.6-.8-8.8-2.9-12.3-6l-5.3-8.5c1.6.2 3.1.6 4.6 1.1 3.5 1.1 7.1 2 10.7 2.7 2.5.5 5 .8 7.5.9 1.1 0 2.2.2 3.2.5 4.7 1.5 6.6 4.5 9.9 9.9 2.2 3.6 4.5 7 7.1 10.3 3 3.9 6.4 7.6 10.1 10.9 3.8 3.3 7 7.2 9.3 11.6 2.1 3.9 4.4 8 4.8 11.5v.2l.1.2c.6 1.6 1.1 3.3 1.4 5l2.2 7.2c-12.8 5.7-25 12.8-36.4 20.9z"/></svg>