<?xml version="1.0" encoding="utf-8"?>
<!-- Generator: Adobe Illustrator 17.1.0, SVG Export Plug-In . SVG Version: 6.00 Build 0)  -->
<!DOCTYPE svg PUBLIC "-//W3C//DTD SVG 1.1//EN" "http://www.w3.org/Graphics/SVG/1.1/DTD/svg11.dtd">
<svg version="1.1" id="Ebene_1" xmlns="http://www.w3.org/2000/svg" xmlns:xlink="http://www.w3.org/1999/xlink" x="0px" y="0px"
	 viewBox="0 -52 353 62.4" enable-background="new 0 -52 353 62.4" xml:space="preserve">
<g>
	<g>
		<path fill="#1D1D1B" d="M84.5,2.2c0,5.2-3.2,7.7-8.4,7.7H61.8c-4.5,0-6.2-1.2-8.5-4.3L25.1-31.6c-1.1-1.4-1.7-2.3-2.7-2.3
			c-0.9,0-1.6,0.5-1.6,2.2V4.5c0,3.4-1.4,5.4-4.8,5.4H7.8c-3.4,0-4.9-2.2-4.9-5.6v-48.2c0-5.2,3.2-7.7,8.4-7.7h14.7
			c4.5,0,6.2,1.2,8.5,4.3l27.8,37.3c1.1,1.4,1.7,2.3,2.7,2.3c0.9,0,1.6-0.5,1.6-2.2v-36.2c0-3.4,1.4-5.4,4.8-5.4h8.2
			c3.4,0,4.9,2.2,4.9,5.6L84.5,2.2L84.5,2.2z"/>
		<path fill="#1D1D1B" d="M158.7-4c3.3,0,5.4,1.4,5.4,4.8v4.3c0,3.4-2.1,4.8-5.4,4.8h-51.5c-6.5,0-12-2.8-12-10.1v-41.2
			c0-7.4,5.5-10.1,12-10.1h50.4c3.3,0,5.4,1.4,5.4,4.8v4c0,3.3-2.1,4.8-5.4,4.8h-41.6c-2.3,0-3.5,0.8-3.5,3v4.4
			c0,2.3,1.3,3.2,3.5,3.2h39.2c3.4,0,5.4,1.4,5.4,4.8v3.3c0,3.3-2,4.8-5.4,4.8h-39.2c-2.3,0-3.5,0.8-3.5,3v4.4
			c0,2.3,1.3,3.2,3.5,3.2L158.7-4L158.7-4z"/>
		<path fill="#1D1D1B" d="M235.2-4c3.3,0,5.4,1.4,5.4,4.8v4.3c0,3.4-2.1,4.8-5.4,4.8h-51.5c-6.5,0-12-2.8-12-10.1v-41.2
			c0-7.4,5.5-10.1,12-10.1h50.4c3.3,0,5.4,1.4,5.4,4.8v4c0,3.3-2.1,4.8-5.4,4.8h-41.6c-2.3,0-3.5,0.8-3.5,3v4.4
			c0,2.3,1.3,3.2,3.5,3.2h39.2c3.4,0,5.4,1.4,5.4,4.8v3.3c0,3.3-2,4.8-5.4,4.8h-39.2c-2.3,0-3.5,0.8-3.5,3v4.4
			c0,2.3,1.3,3.2,3.5,3.2L235.2-4L235.2-4z"/>
		<path fill="#1D1D1B" d="M286.7,10.4c-35.2,0-40.3-3.3-40.3-30.6v-1.3c0-27.3,5.1-30.6,40.3-30.6h2.8c35.2,0,40.3,3.3,40.3,30.6
			v1.3c0,27.3-5.1,30.6-40.3,30.6H286.7z M288.8-3.8c21.3,0,22.4-1.4,22.4-16.8v-0.5c0-15.7-1.1-17-22.4-17h-1.5
			c-21.3,0-22.4,1.3-22.4,17v0.5c0,15.5,1.1,16.8,22.4,16.8H288.8z"/>
	</g>
	<g>
		<path fill="#1D1D1B" d="M340.9-38.2c-7.3,0-8.7-0.8-8.7-6.8v-0.3c0-5.9,1.4-6.7,8.7-6.7h0.5c7.3,0,8.7,0.8,8.7,6.7v0.3
			c0,6-1.4,6.8-8.7,6.8C341.4-38.2,340.9-38.2,340.9-38.2z M341.4-39.2c6.8,0,7.5-0.7,7.5-5.8v-0.3c0-5.1-0.8-5.7-7.5-5.7h-0.5
			c-6.8,0-7.6,0.6-7.6,5.7v0.3c0,5.1,0.8,5.8,7.6,5.8C340.9-39.2,341.4-39.2,341.4-39.2z M345.9-46.4c0,0.6-0.2,1.2-0.9,1.5
			c-0.3,0.1-0.3,0.2-0.3,0.3c0,0.1,0.1,0.2,0.3,0.3c0.7,0.3,0.8,0.8,0.8,1.8v1c0,0.3-0.2,0.6-0.6,0.6H345c-0.4,0-0.6-0.2-0.6-0.6
			v-0.2c0-1.9-0.2-2.2-2.6-2.2h-3.2c-0.4,0-0.5,0.2-0.5,0.5v1.9c0,0.3-0.2,0.6-0.6,0.6h-0.2c-0.4,0-0.6-0.2-0.6-0.6v-6.1
			c0-1,0.4-1.5,1.8-1.5h4.1c2.5,0,3.2,0.4,3.2,2.4L345.9-46.4L345.9-46.4z M338.8-48.1c-0.4,0-0.6,0.2-0.6,0.5v2.1
			c0,0.3,0.2,0.5,0.5,0.5h3.5c1.7,0,2.2-0.3,2.2-1.3v-0.2c0-1.3-0.3-1.5-2.2-1.5L338.8-48.1L338.8-48.1z"/>
	</g>
</g>
</svg>
