<?xml version="1.0" encoding="UTF-8" standalone="no"?>
<svg width="279px" height="40px" viewBox="0 0 279 40" version="1.1" xmlns="http://www.w3.org/2000/svg" xmlns:xlink="http://www.w3.org/1999/xlink">
    <!-- Generator: Sketch 40.1 (33804) - http://www.bohemiancoding.com/sketch -->
    <title>Artboard</title>
    <desc>Created with Sketch.</desc>
    <defs></defs>
    <g id="Page-1" stroke="none" stroke-width="1" fill="none" fill-rule="evenodd">
        <g id="Artboard" fill="#ECF0F1">
            <g id="Shape-+-Shape-2" transform="translate(5.000000, 2.000000)">
                <path d="M12.9444032,1.2853163 C12.9444032,1.53189815 13.0728908,1.74600555 13.259875,1.85305925 L9.30549595,5.45055631 L7.21172344,1.26269616 C7.46356727,1.1899086 7.6487043,0.939967328 7.6487043,0.644113899 C7.6487043,0.289134577 7.38598213,0 7.06209496,0 C6.73553952,0 6.47363836,0.289134577 6.47363836,0.644113899 C6.47363836,0.939743366 6.65959639,1.1899086 6.91246648,1.26269616 L4.81951498,5.45055631 L0.861646602,1.85305925 C1.0494519,1.74578159 1.17773421,1.53167418 1.17773421,1.2853163 C1.17773421,0.930560936 0.91480679,0.644337861 0.589277607,0.644337861 C0.264569431,0.644337861 0,0.930560936 0,1.2853163 C0,1.6409675 0.264569431,1.92450304 0.589277607,1.92450304 C0.620475864,1.92450304 0.647774339,1.92450304 0.675278066,1.91979984 L2.35403165,8.02634003 L11.7685163,8.02634003 L13.4480908,1.91979984 C13.4757998,1.92450304 13.5047403,1.92450304 13.5340913,1.92450304 C13.8587995,1.92450304 14.1221374,1.6409675 14.1221374,1.2853163 C14.1221374,0.930784897 13.8587995,0.644337861 13.5340913,0.644337861 C13.2085621,0.644337861 12.9444032,0.930560936 12.9444032,1.2853163 Z" id="Shape"></path>
                <path d="M11.8320611,15.3358408 C11.8320611,15.6852237 11.4851559,15.9571284 11.0435402,15.9571284 L2.79233764,15.9571284 C2.34778515,15.9571284 2.00381679,15.6852237 2.00381679,15.3358408 L2.00381679,9.79424764 C2.00381679,9.44486473 2.34815225,9.17296003 2.79233764,9.17296003 L11.0435402,9.17296003 C11.4851559,9.17296003 11.8320611,9.44486473 11.8320611,9.79424764 L11.8320611,15.3358408 L11.8320611,15.3358408 Z M21.3693128,16.0526801 C20.3923384,15.8734059 20.0381679,15.4543348 20.0381679,15.0688237 L20.0381679,13.6638884 C20.0381679,13.6638884 20.6877667,13.7849343 20.8433818,13.8184944 C21.1601084,13.8879093 21.3614119,14.2934991 21.3693128,14.6477447 C21.379962,15.0017035 21.3693128,16.0526801 21.3693128,16.0526801 L21.3693128,16.0526801 Z M23.2507609,22.966982 L23.2507609,14.9332192 C23.2507609,14.0724797 22.896304,13.37322 22.1647109,12.7858885 L17.4953178,9.08322217 C17.1723194,9.08322217 16.2808732,9.79151778 16.2808732,9.79151778 C16.2808732,10.0488943 18.5985602,11.88201 18.5985602,11.88201 L18.5297905,14.9993851 C18.5297905,16.1061334 19.6586387,17.0033079 21.0530551,17.0033079 L21.678933,17.0100119 L21.4561629,22.9672735 L21.7678216,25.009963 L23.1710172,31.0377627 C23.2225945,32.0168429 22.0992333,32.5998022 21.213274,32.5998022 C20.3931581,32.5998022 19.4413555,32.0599819 19.4413555,31.3633455 L19.4585479,20.7995391 C19.4585479,19.5152797 18.1497278,18.4723654 16.5380282,18.4723654 L13.9401409,18.4723653 C13.9401409,18.4723653 13.925875,11.5543868 13.925875,10.0876611 L13.925875,9.81658503 C13.925875,8.56642871 12.645587,7.54858169 11.0737592,7.54858169 L2.85211577,7.54858169 C1.28028796,7.54858169 0,8.56642871 0,9.81658503 L0,33.7610572 L13.925875,33.9455639 L13.9258756,20.2435267 L16.5380289,20.2435267 C17.1408616,20.2435267 17.66395,20.3486201 17.66395,20.8289786 L17.66395,31.3633455 C17.66395,32.7776048 19.3213742,34.0163934 21.213274,34.0163934 C22.9994586,34.0163934 25,32.8845779 25,31.3633455 C24.9685415,31.0124039 23.5393743,24.7205237 23.5393743,24.7205237 C23.5393743,24.7068242 23.2507609,22.966982 23.2507609,22.966982 Z" id="Shape-2"></path>
            </g>
            <path d="M66.5558006,17.0116182 C66.8842812,17.0116182 67.1634855,17.1265847 67.393422,17.3565212 C67.6233584,17.5864576 67.7383249,17.8656619 67.7383249,18.1941425 C67.7383249,18.5061991 67.6315703,18.7730856 67.4180579,18.99481 C67.2045455,19.2165344 66.9499768,19.3438187 66.6543443,19.3766668 L61.7025239,19.3766668 C61.209803,19.4095149 60.8033143,19.5285873 60.4830457,19.7338877 C60.1627771,19.939188 59.9123144,20.1896508 59.7316501,20.4852833 C59.5509858,20.7809158 59.4278074,21.1011796 59.3621113,21.4460843 C59.2964151,21.7909889 59.2635676,22.1030408 59.2635676,22.3822493 L59.2635676,26.5703561 C59.2635676,26.8988367 59.1486011,27.178041 58.9186647,27.4079775 C58.6887282,27.6379139 58.4095239,27.7528804 58.0810433,27.7528804 C57.7525627,27.7528804 57.4733584,27.6379139 57.243422,27.4079775 C57.0134855,27.178041 56.898519,26.8988367 56.898519,26.5703561 L56.898519,22.3822493 C56.898519,21.8731044 56.9642142,21.3598611 57.0956064,20.8425042 C57.2269987,20.3251472 57.4240841,19.8365396 57.6868686,19.3766668 L49.606286,19.3766668 C49.2778054,19.3766668 48.9986011,19.2617003 48.7686647,19.0317639 C48.5387282,18.8018275 48.4237618,18.5226231 48.4237618,18.1941425 C48.4237618,17.8656619 48.5387282,17.5864576 48.7686647,17.3565212 C48.9986011,17.1265847 49.2778054,17.0116182 49.606286,17.0116182 L66.5558006,17.0116182 Z M69.2164802,27.3094338 C68.9701197,27.6050663 68.6662797,27.7528804 68.3049511,27.7528804 C67.9764705,27.7528804 67.6972661,27.6379139 67.4673297,27.4079775 C67.2373933,27.178041 67.1224268,26.8988367 67.1224268,26.5703561 C67.1224268,26.2747236 67.2045457,26.0365787 67.368786,25.8559144 L73.3553152,17.7999678 C73.6345237,17.4222151 74.0040588,17.1142691 74.4639317,16.8761207 C74.9238045,16.6379722 75.416518,16.5188998 75.942087,16.5188998 C76.4348079,16.5188998 76.9028858,16.6256544 77.3463346,16.8391668 C77.7897834,17.0526792 78.1511066,17.3483073 78.4303152,17.72606 L84.4168443,25.7327348 C84.5153885,25.847703 84.5975074,25.9749873 84.6632035,26.1145916 C84.7288996,26.2541958 84.7617472,26.4061158 84.7617472,26.5703561 C84.7617472,26.8988367 84.6467807,27.178041 84.4168443,27.4079775 C84.1869079,27.6379139 83.9077035,27.7528804 83.5792229,27.7528804 C83.1850462,27.7528804 82.8729943,27.5968544 82.6430579,27.2847979 L76.902888,19.623026 C76.7879198,19.4916338 76.6442116,19.3479257 76.4717593,19.1918974 C76.299307,19.0358691 76.1227513,18.9578561 75.942087,18.9578561 C75.7614227,18.9578561 75.584867,19.0358691 75.4124147,19.1918974 C75.2399624,19.3479257 75.1044661,19.4916338 75.005922,19.623026 L69.2164802,27.3094338 Z M104.002403,18.1941425 C104.002403,17.8656619 104.117369,17.5864576 104.347305,17.3565212 C104.577242,17.1265847 104.856446,17.0116182 105.184927,17.0116182 C105.513407,17.0116182 105.792612,17.1265847 106.022548,17.3565212 C106.252485,17.5864576 106.367451,17.8656619 106.367451,18.1941425 L106.367451,25.3631959 C106.367451,26.0365812 106.141624,26.6032017 105.689963,27.0630746 C105.238302,27.5229474 104.675788,27.7528804 104.002403,27.7528804 C103.772466,27.7528804 103.546639,27.7200328 103.324915,27.6543367 C103.10319,27.5886406 102.901999,27.4983098 102.721335,27.3833416 L91.4380821,20.4852833 C91.1260256,20.304619 90.867351,20.1609109 90.6620506,20.0541547 C90.4567502,19.9473985 90.2884064,19.8940212 90.1570142,19.8940212 C89.9106537,19.8940212 89.7546278,20.0500471 89.6889317,20.3621037 C89.6232355,20.6741603 89.590388,21.1258143 89.590388,21.7170794 L89.590388,26.5703561 C89.590388,26.8988367 89.4754215,27.178041 89.2454851,27.4079775 C89.0155486,27.6379139 88.7363443,27.7528804 88.4078637,27.7528804 C88.0793831,27.7528804 87.8001788,27.6379139 87.5702423,27.4079775 C87.3403059,27.178041 87.2253394,26.8988367 87.2253394,26.5703561 L87.2253394,19.4013027 C87.2253394,18.7279175 87.4511665,18.1612969 87.9028273,17.7014241 C88.3544881,17.2415512 88.9170027,17.0116182 89.590388,17.0116182 C89.8203244,17.0116182 90.0461514,17.0444658 90.2678758,17.1101619 C90.4896002,17.1758581 90.6907916,17.2661889 90.8714559,17.3811571 L102.154708,24.2792153 C102.466765,24.4598797 102.72544,24.6035878 102.93074,24.710344 C103.13604,24.8171002 103.304384,24.8704775 103.435776,24.8704775 C103.682137,24.8704775 103.838163,24.7144515 103.903859,24.4023949 C103.969555,24.0903384 104.002403,23.6386843 104.002403,23.0474192 L104.002403,18.1941425 Z M111.171456,21.199725 L116.862354,21.199725 C117.716404,21.199725 118.554017,21.0888645 119.375218,20.8671401 C120.19642,20.6454157 120.997079,20.3538935 121.77722,19.9925649 C122.557362,19.6312362 123.304644,19.2206416 124.019089,18.7607687 C124.733535,18.3008959 125.419228,17.832818 126.076189,17.3565212 C126.355397,17.1265847 126.634602,17.0116182 126.91381,17.0116182 C127.242291,17.0116182 127.521495,17.1265847 127.751432,17.3565212 C127.981368,17.5864576 128.096335,17.8656619 128.096335,18.1941425 C128.096335,18.4240789 128.030639,18.6252703 127.899247,18.7977226 C127.767855,18.9701749 127.611829,19.1220949 127.431165,19.2534872 C127.00414,19.5819678 126.593545,19.8899137 126.199369,20.1773343 C125.805192,20.4647548 125.411021,20.7316413 125.016844,20.9780017 C124.622668,21.2243622 124.216179,21.4625071 123.797366,21.6924435 C123.378553,21.9223799 122.931005,22.1523129 122.454708,22.3822493 C122.931005,22.6121857 123.378553,22.8421187 123.797366,23.0720551 C124.216179,23.3019916 124.622668,23.5401364 125.016844,23.7864969 C125.411021,24.0328573 125.805192,24.2997438 126.199369,24.5871644 C126.593545,24.8745849 127.00414,25.1825308 127.431165,25.5110115 C127.611829,25.6424037 127.767855,25.7943237 127.899247,25.966776 C128.030639,26.1392283 128.096335,26.3404197 128.096335,26.5703561 C128.096335,26.8988367 127.981368,27.178041 127.751432,27.4079775 C127.521495,27.6379139 127.242291,27.7528804 126.91381,27.7528804 C126.634602,27.7528804 126.355397,27.6379139 126.076189,27.4079775 C125.402804,26.9152566 124.708899,26.4389668 123.994454,25.979094 C123.280008,25.5192211 122.536832,25.1086265 121.764903,24.7472979 C120.992973,24.3859692 120.19642,24.098553 119.375218,23.8850406 C118.554017,23.6715282 117.716404,23.5647736 116.862354,23.5647736 L111.171456,23.5647736 L111.171456,26.5703561 C111.171456,26.8988367 111.056489,27.178041 110.826553,27.4079775 C110.596617,27.6379139 110.325624,27.7528804 110.013568,27.7528804 C109.685087,27.7528804 109.405883,27.6379139 109.175946,27.4079775 C108.94601,27.178041 108.831043,26.8988367 108.831043,26.5703561 L108.831043,18.1941425 C108.831043,17.8656619 108.94601,17.5864576 109.175946,17.3565212 C109.405883,17.1265847 109.676875,17.0116182 109.988932,17.0116182 C110.317412,17.0116182 110.596617,17.1265847 110.826553,17.3565212 C111.056489,17.5864576 111.171456,17.8656619 111.171456,18.1941425 L111.171456,21.199725 Z M130.559927,18.1941425 C130.559927,17.8656619 130.674893,17.5864576 130.90483,17.3565212 C131.134766,17.1265847 131.41397,17.0116182 131.742451,17.0116182 L149.20932,17.0116182 C149.537801,17.0116182 149.817005,17.1265847 150.046941,17.3565212 C150.276878,17.5864576 150.391844,17.8656619 150.391844,18.1941425 C150.391844,18.5226231 150.276878,18.8018275 150.046941,19.0317639 C149.817005,19.2617003 149.537801,19.3766668 149.20932,19.3766668 L131.742451,19.3766668 C131.41397,19.3766668 131.134766,19.2617003 130.90483,19.0317639 C130.674893,18.8018275 130.559927,18.5226231 130.559927,18.1941425 L130.559927,18.1941425 Z M133.565509,27.7528804 C133.204181,27.7528804 132.842857,27.6748674 132.481529,27.5188391 C132.1202,27.3628108 131.799936,27.1451957 131.520728,26.8659872 C131.241519,26.5867787 131.011586,26.2500911 130.830922,25.8559144 C130.650258,25.4617376 130.559927,25.0182955 130.559927,24.5255746 L130.559927,22.3083416 C130.559927,21.8648927 130.687211,21.5692646 130.941784,21.4214483 C131.196356,21.2736321 131.594633,21.199725 132.136626,21.199725 L148.66733,21.199725 C148.99581,21.199725 149.275015,21.3146915 149.504951,21.544628 C149.734888,21.7745644 149.849854,22.0537687 149.849854,22.3822493 C149.849854,22.7107299 149.734888,22.9899343 149.504951,23.2198707 C149.275015,23.4498071 148.99581,23.5647736 148.66733,23.5647736 L132.924975,23.5647736 L132.924975,24.7719338 C132.924975,24.9361741 132.994776,25.0798822 133.134381,25.2030624 C133.273985,25.3262427 133.458753,25.3878318 133.688689,25.3878318 L149.20932,25.3878318 C149.537801,25.3878318 149.817005,25.5027983 150.046941,25.7327348 C150.276878,25.9626712 150.391844,26.2418755 150.391844,26.5703561 C150.391844,26.8988367 150.276878,27.178041 150.046941,27.4079775 C149.817005,27.6379139 149.537801,27.7528804 149.20932,27.7528804 L133.565509,27.7528804 Z M168.696335,23.5647736 C169.139783,23.8439821 169.591437,24.1437162 170.05131,24.4639848 C170.511183,24.7842533 170.979261,25.1332588 171.455558,25.5110115 C171.636222,25.6424037 171.792248,25.7943237 171.92364,25.966776 C172.055033,26.1392283 172.120728,26.3404197 172.120728,26.5703561 C172.120728,26.8988367 172.005761,27.178041 171.775825,27.4079775 C171.545888,27.6379139 171.266684,27.7528804 170.938204,27.7528804 C170.658995,27.7528804 170.379791,27.6379139 170.100582,27.4079775 C169.427197,26.9152566 168.737398,26.4389668 168.031165,25.979094 C167.324931,25.5192211 166.589967,25.1086265 165.82625,24.7472979 C165.062532,24.3859692 164.270085,24.098553 163.448883,23.8850406 C162.627682,23.6715282 161.773645,23.5647736 160.886747,23.5647736 L155.984199,23.5647736 C155.770686,23.5976216 155.590025,23.6961644 155.442208,23.8604047 C155.294392,24.024645 155.220485,24.2299423 155.220485,24.4763027 L155.220485,26.5703561 C155.220485,26.8988367 155.101413,27.178041 154.863264,27.4079775 C154.625116,27.6379139 154.350017,27.7528804 154.037961,27.7528804 C153.70948,27.7528804 153.430276,27.6379139 153.200339,27.4079775 C152.970403,27.178041 152.855437,26.8988367 152.855437,26.5703561 L152.855437,24.2053076 C152.855437,23.7947068 152.933449,23.4046419 153.089478,23.0351013 C153.245506,22.6655606 153.454909,22.3452968 153.717694,22.0743003 C153.980478,21.8033038 154.29253,21.5897946 154.653859,21.4337663 C155.015188,21.277738 155.409358,21.199725 155.836383,21.199725 L168.893422,21.199725 C169.139782,21.199725 169.357398,21.1135002 169.546274,20.9410479 C169.73515,20.7685955 169.829587,20.5509804 169.829587,20.2881959 C169.829587,20.0418355 169.73515,19.8283263 169.546274,19.6476619 C169.357398,19.4669976 169.139782,19.3766668 168.893422,19.3766668 L154.037961,19.3766668 C153.70948,19.3766668 153.430276,19.2617003 153.200339,19.0317639 C152.970403,18.8018275 152.855437,18.5226231 152.855437,18.1941425 C152.855437,17.8656619 152.970403,17.5864576 153.200339,17.3565212 C153.430276,17.1265847 153.70948,17.0116182 154.037961,17.0116182 L168.794878,17.0116182 C169.254751,17.0116182 169.685875,17.0978431 170.088264,17.2702954 C170.490653,17.4427478 170.843764,17.6767867 171.147609,17.9724192 C171.451453,18.2680518 171.689598,18.6129512 171.862051,19.007128 C172.034503,19.4013047 172.120728,19.8283231 172.120728,20.2881959 C172.120728,20.7480688 172.034503,21.1750872 171.862051,21.5692639 C171.689598,21.9634406 171.451453,22.3083401 171.147609,22.6039726 C170.843764,22.8996052 170.490653,23.1336441 170.088264,23.3060964 C169.685875,23.4785487 169.254751,23.5647736 168.794878,23.5647736 L168.696335,23.5647736 Z M176.924733,21.199725 L182.615631,21.199725 C183.46968,21.199725 184.307293,21.0888645 185.128495,20.8671401 C185.949696,20.6454157 186.750356,20.3538935 187.530497,19.9925649 C188.310639,19.6312362 189.057921,19.2206416 189.772366,18.7607687 C190.486811,18.3008959 191.172504,17.832818 191.829466,17.3565212 C192.108674,17.1265847 192.387878,17.0116182 192.667087,17.0116182 C192.995568,17.0116182 193.274772,17.1265847 193.504708,17.3565212 C193.734645,17.5864576 193.849611,17.8656619 193.849611,18.1941425 C193.849611,18.4240789 193.783916,18.6252703 193.652524,18.7977226 C193.521132,18.9701749 193.365106,19.1220949 193.184441,19.2534872 C192.757417,19.5819678 192.346822,19.8899137 191.952645,20.1773343 C191.558469,20.4647548 191.164298,20.7316413 190.770121,20.9780017 C190.375944,21.2243622 189.969456,21.4625071 189.550643,21.6924435 C189.13183,21.9223799 188.684282,22.1523129 188.207985,22.3822493 C188.684282,22.6121857 189.13183,22.8421187 189.550643,23.0720551 C189.969456,23.3019916 190.375944,23.5401364 190.770121,23.7864969 C191.164298,24.0328573 191.558469,24.2997438 191.952645,24.5871644 C192.346822,24.8745849 192.757417,25.1825308 193.184441,25.5110115 C193.365106,25.6424037 193.521132,25.7943237 193.652524,25.966776 C193.783916,26.1392283 193.849611,26.3404197 193.849611,26.5703561 C193.849611,26.8988367 193.734645,27.178041 193.504708,27.4079775 C193.274772,27.6379139 192.995568,27.7528804 192.667087,27.7528804 C192.387878,27.7528804 192.108674,27.6379139 191.829466,27.4079775 C191.15608,26.9152566 190.462176,26.4389668 189.74773,25.979094 C189.033285,25.5192211 188.290109,25.1086265 187.518179,24.7472979 C186.74625,24.3859692 185.949696,24.098553 185.128495,23.8850406 C184.307293,23.6715282 183.46968,23.5647736 182.615631,23.5647736 L176.924733,23.5647736 L176.924733,26.5703561 C176.924733,26.8988367 176.809766,27.178041 176.57983,27.4079775 C176.349893,27.6379139 176.078901,27.7528804 175.766844,27.7528804 C175.438364,27.7528804 175.159159,27.6379139 174.929223,27.4079775 C174.699286,27.178041 174.58432,26.8988367 174.58432,26.5703561 L174.58432,18.1941425 C174.58432,17.8656619 174.699286,17.5864576 174.929223,17.3565212 C175.159159,17.1265847 175.430152,17.0116182 175.742208,17.0116182 C176.070689,17.0116182 176.349893,17.1265847 176.57983,17.3565212 C176.809766,17.5864576 176.924733,17.8656619 176.924733,18.1941425 L176.924733,21.199725 Z M211.31648,25.3878318 C211.874897,25.3878318 212.334763,25.2851832 212.696092,25.0798828 C213.057421,24.8745824 213.340731,24.6241197 213.546031,24.3284872 C213.751332,24.0328546 213.890934,23.7084849 213.964842,23.3553682 C214.03875,23.0022516 214.075704,22.6778819 214.075704,22.3822493 C214.075704,22.0866168 214.03875,21.762247 213.964842,21.4091304 C213.890934,21.0560137 213.751332,20.731644 213.546031,20.4360115 C213.340731,20.1403789 213.057421,19.8899162 212.696092,19.6846158 C212.334763,19.4793154 211.874897,19.3766668 211.31648,19.3766668 L201.363568,19.3766668 C200.788727,19.3766668 200.324755,19.4793154 199.971638,19.6846158 C199.618521,19.8899162 199.339317,20.1403789 199.134017,20.4360115 C198.928716,20.731644 198.789114,21.0560137 198.715206,21.4091304 C198.641298,21.762247 198.604344,22.0866168 198.604344,22.3822493 C198.604344,22.6778819 198.641298,23.0022516 198.715206,23.3553682 C198.789114,23.7084849 198.928716,24.0328546 199.134017,24.3284872 C199.339317,24.6241197 199.618521,24.8745824 199.971638,25.0798828 C200.324755,25.2851832 200.788727,25.3878318 201.363568,25.3878318 L211.31648,25.3878318 Z M216.366844,22.3822493 C216.366844,23.0063625 216.264196,23.6345722 216.058895,24.2668974 C215.853595,24.8992225 215.553861,25.474055 215.159684,25.9914119 C214.765507,26.5087689 214.289218,26.9316813 213.730801,27.2601619 C213.172384,27.5886425 212.540068,27.7528804 211.833835,27.7528804 L200.599854,27.7528804 C199.926469,27.7200323 199.327001,27.5352648 198.801432,27.1985721 C198.275863,26.8618795 197.828315,26.4389671 197.458774,25.9298221 C197.089233,25.4206772 196.805923,24.8540566 196.608835,24.2299435 C196.411746,23.6058303 196.313204,22.9899384 196.313204,22.3822493 C196.313204,21.7581362 196.415852,21.1299264 196.621153,20.4976013 C196.826453,19.8652761 197.126187,19.2904437 197.520364,18.7730867 C197.91454,18.2557297 198.39083,17.8328173 198.949247,17.5043367 C199.507664,17.1758561 200.13998,17.0116182 200.846213,17.0116182 L212.080194,17.0116182 C212.753579,17.0444663 213.353047,17.2292339 213.878616,17.5659265 C214.404185,17.9026191 214.851733,18.3255316 215.221274,18.8346765 C215.590815,19.3438214 215.874125,19.910442 216.071213,20.5345551 C216.268302,21.1586683 216.366844,21.7745602 216.366844,22.3822493 L216.366844,22.3822493 Z M235.6075,18.1941425 C235.6075,17.8656619 235.722466,17.5864576 235.952403,17.3565212 C236.182339,17.1265847 236.461543,17.0116182 236.790024,17.0116182 C237.118504,17.0116182 237.397709,17.1265847 237.627645,17.3565212 C237.857582,17.5864576 237.972548,17.8656619 237.972548,18.1941425 L237.972548,25.3631959 C237.972548,26.0365812 237.746721,26.6032017 237.29506,27.0630746 C236.843399,27.5229474 236.280885,27.7528804 235.6075,27.7528804 C235.377563,27.7528804 235.151736,27.7200328 234.930012,27.6543367 C234.708287,27.5886406 234.507096,27.4983098 234.326432,27.3833416 L223.043179,20.4852833 C222.731123,20.304619 222.472448,20.1609109 222.267148,20.0541547 C222.061847,19.9473985 221.893504,19.8940212 221.762111,19.8940212 C221.515751,19.8940212 221.359725,20.0500471 221.294029,20.3621037 C221.228333,20.6741603 221.195485,21.1258143 221.195485,21.7170794 L221.195485,26.5703561 C221.195485,26.8988367 221.080519,27.178041 220.850582,27.4079775 C220.620646,27.6379139 220.341441,27.7528804 220.012961,27.7528804 C219.68448,27.7528804 219.405276,27.6379139 219.175339,27.4079775 C218.945403,27.178041 218.830437,26.8988367 218.830437,26.5703561 L218.830437,19.4013027 C218.830437,18.7279175 219.056264,18.1612969 219.507924,17.7014241 C219.959585,17.2415512 220.5221,17.0116182 221.195485,17.0116182 C221.425421,17.0116182 221.651249,17.0444658 221.872973,17.1101619 C222.094697,17.1758581 222.295889,17.2661889 222.476553,17.3811571 L233.759805,24.2792153 C234.071862,24.4598797 234.330537,24.6035878 234.535837,24.710344 C234.741137,24.8171002 234.909481,24.8704775 235.040873,24.8704775 C235.287234,24.8704775 235.44326,24.7144515 235.508956,24.4023949 C235.574652,24.0903384 235.6075,23.6386843 235.6075,23.0474192 L235.6075,18.1941425 Z M242.801189,26.5703561 C242.801189,26.8988367 242.686222,27.178041 242.456286,27.4079775 C242.22635,27.6379139 241.947145,27.7528804 241.618665,27.7528804 C241.290184,27.7528804 241.01098,27.6379139 240.781043,27.4079775 C240.551107,27.178041 240.43614,26.8988367 240.43614,26.5703561 L240.43614,18.1941425 C240.43614,17.8656619 240.551107,17.5864576 240.781043,17.3565212 C241.01098,17.1265847 241.290184,17.0116182 241.618665,17.0116182 C241.947145,17.0116182 242.22635,17.1265847 242.456286,17.3565212 C242.686222,17.5864576 242.801189,17.8656619 242.801189,18.1941425 L242.801189,26.5703561 Z M251.768665,22.3822493 C251.768665,22.0537687 251.883631,21.7745644 252.113568,21.544628 C252.343504,21.3146915 252.622708,21.199725 252.951189,21.199725 L262.386747,21.199725 C262.797348,21.199725 263.183307,21.277738 263.544636,21.4337663 C263.905964,21.5897946 264.222122,21.8033038 264.493119,22.0743003 C264.764115,22.3452968 264.973518,22.6655606 265.121335,23.0351013 C265.269151,23.4046419 265.343058,23.7947068 265.343058,24.2053076 L265.343058,24.7472979 C265.343058,25.1578986 265.269151,25.5479635 265.121335,25.9175042 C264.973518,26.2870449 264.764115,26.6073086 264.493119,26.8783051 C264.222122,27.1493016 263.905964,27.3628108 263.544636,27.5188391 C263.183307,27.6748674 262.797348,27.7528804 262.386747,27.7528804 L249.551432,27.7528804 C248.878046,27.7528804 248.278578,27.5886425 247.753009,27.2601619 C247.22744,26.9316813 246.779892,26.5087689 246.410352,25.9914119 C246.040811,25.474055 245.757501,24.8951166 245.560412,24.2545794 C245.363324,23.6140422 245.264781,22.9899384 245.264781,22.3822493 C245.264781,21.7581362 245.36743,21.1299264 245.57273,20.4976013 C245.778031,19.8652761 246.077765,19.2904437 246.471941,18.7730867 C246.866118,18.2557297 247.342408,17.8328173 247.900825,17.5043367 C248.459242,17.1758561 249.091558,17.0116182 249.797791,17.0116182 L264.160534,17.0116182 C264.489014,17.0116182 264.768219,17.1265847 264.998155,17.3565212 C265.228091,17.5864576 265.343058,17.8656619 265.343058,18.1941425 C265.343058,18.5226231 265.228091,18.8018275 264.998155,19.0317639 C264.768219,19.2617003 264.489014,19.3766668 264.160534,19.3766668 L250.339781,19.3766668 C249.76494,19.3766668 249.300968,19.4793154 248.947852,19.6846158 C248.594735,19.8899162 248.315531,20.1403789 248.11023,20.4360115 C247.90493,20.731644 247.765328,21.0560137 247.69142,21.4091304 C247.617511,21.762247 247.580558,22.0866168 247.580558,22.3822493 C247.580558,22.6778819 247.617511,23.0022516 247.69142,23.3553682 C247.765328,23.7084849 247.90493,24.0328546 248.11023,24.3284872 C248.315531,24.6241197 248.594735,24.8745824 248.947852,25.0798828 C249.300968,25.2851832 249.76494,25.3878318 250.339781,25.3878318 L262.288204,25.3878318 C262.485292,25.3878318 262.661848,25.297501 262.817876,25.1168367 C262.973904,24.9361724 263.051917,24.7226632 263.051917,24.4763027 C263.051917,24.2299423 262.982116,24.0164331 262.842512,23.8357687 C262.702907,23.6551044 262.51814,23.5647736 262.288204,23.5647736 L252.951189,23.5647736 C252.622708,23.5647736 252.343504,23.4498071 252.113568,23.2198707 C251.883631,22.9899343 251.768665,22.7107299 251.768665,22.3822493 L251.768665,22.3822493 Z" id="Tankerkonig"></path>
            <path d="M214.50357,6.49642851 C214.50357,6.78351124 214.68907,7.03278562 214.959022,7.1574228 L209.250023,11.345806 L206.227211,6.47009303 C206.590802,6.38535018 206.858087,6.09435624 206.858087,5.74990911 C206.858087,5.33662471 206.478791,5 206.01119,5 C205.539737,5 205.161626,5.33662471 205.161626,5.74990911 C205.161626,6.09409549 205.430097,6.38535018 205.795169,6.47009303 L202.773543,11.345806 L197.059507,7.1574228 C197.330644,7.03252487 197.515847,6.78325049 197.515847,6.49642851 C197.515847,6.08340485 197.136255,5.75016986 196.666283,5.75016986 C196.197497,5.75016986 195.815534,6.08340485 195.815534,6.49642851 C195.815534,6.91049515 196.197497,7.24060118 196.666283,7.24060118 C196.711325,7.24060118 196.750736,7.24060118 196.790443,7.23512549 L199.214086,14.3446602 L212.805924,14.3446602 L215.230752,7.23512549 C215.270756,7.24060118 215.312538,7.24060118 215.354912,7.24060118 C215.823698,7.24060118 216.203883,6.91049515 216.203883,6.49642851 C216.203883,6.0836656 215.823698,5.75016986 215.354912,5.75016986 C214.884941,5.75016986 214.50357,6.08340485 214.50357,6.49642851 Z" id="Path"></path>
        </g>
    </g>
</svg>