<?xml version="1.0" encoding="UTF-8" standalone="no"?>
<svg
   xmlns="http://www.w3.org/2000/svg"
   height="150"
   width="212"
   version="1.1"
   viewBox="-10 40 550 170"
>  
  <path 
style="stroke-width:0.625;stroke-linejoin:round;stroke:#000000;stroke-opacity:1;fill:#000000;fill-opacity:1;"
d = "m 195,90 l 15,10 c 0,0 -5,-5 0,-20 z m 10,3 l 120,0 l 0,-6 l -120,0 z m 130,-3 l -15,-10 c 0,0 5,5 0,20 z"
  />
 <path
     d="M 439.99946,0 C 390.29519,0 350,40.295076 350,90.000539 350,139.70815 390.29519,180 439.99946,180 489.70911,180 530,139.70815 530,90.000539 530,40.2983 489.70911,0.004299 439.99839,0.004299 Z m 41.27318,129.80661 c -1.61207,2.64385 -5.07264,3.48214 -7.71642,1.85929 -21.13096,-12.90758 -47.73219,-15.83086 -79.05999,-8.67312 -3.01886,0.68783 -6.02805,-1.2037 -6.71586,-4.22371 -0.69104,-3.02001 1.19292,-6.02927 4.21931,-6.7171 34.28326,-7.83267 63.69055,-4.46015 87.41371,10.03803 2.64378,1.62285 3.48206,5.07276 1.85925,7.71661 z m 11.01578,-24.50613 c -2.03121,3.30159 -6.35154,4.34408 -9.6509,2.31283 -24.19173,-14.870044 -61.06826,-19.176511 -89.68242,-10.490495 -3.71098,1.120949 -7.63045,-0.970487 -8.75674,-4.675102 -1.1177,-3.711063 0.97476,-7.623102 4.67928,-8.751575 32.68517,-9.917663 73.31889,-5.113594 101.10015,11.958587 3.29936,2.031251 4.34183,6.351685 2.31063,9.646825 z m 0.94574,-25.51853 C 464.22773,62.552857 416.37088,60.968697 388.67667,69.374207 384.22952,70.723 379.52659,68.212417 378.1789,63.76516 c -1.34768,-4.449407 1.16069,-9.149228 5.61107,-10.501246 31.791,-9.651129 84.63988,-7.786462 118.03543,12.039193 4.00866,2.374092 5.31981,7.540347 2.9447,11.535141 -2.36436,4.000167 -7.54446,5.318868 -11.53164,2.943702 z"
     style="fill:#1ed760;stroke-width:1.07472312"
 />
  <g
     transform="matrix(1.0671711,0,0,1.0802403,-242.07004,-3.638968)">
    <path
       d="m 235.55996,122.32139 65.99684,-65.245439 9.61127,-9.494429 9.61126,9.494429 48.71786,48.127399 -0.0713,0.24287 -0.96104,2.79606 -1.09061,2.7291 -1.22617,2.66469 -1.34976,2.59982 -1.22704,2.10395 -52.40328,-51.76861 c -22.86589,22.605906 -45.73092,45.21138 -68.59595,67.81602 -2.64028,-3.84168 -5.09265,-7.79865 -7.01216,-12.06586 z"
       style="clip-rule:evenodd;fill:#e64a19;fill-rule:evenodd;stroke-width:0.87332809"
/>
    <path
       d="m 311.16893,3.3686968 c 46.45255,0 84.33469,37.4250352 84.33469,83.3154142 0,45.887409 -37.88214,83.314139 -84.33469,83.314139 -25.37318,0 -48.18501,-11.17665 -63.66633,-28.79057 l 2.98008,-2.95501 2.16319,-2.13785 2.16749,-2.14377 2.16835,-2.14209 0.0884,-0.0865 c 13.00665,15.21415 32.43854,24.9082 54.09884,24.9082 39.00964,0 70.82522,-31.42855 70.82522,-69.966579 0,-38.540154 -31.81558,-69.969554 -70.82522,-69.969554 -39.01137,0 -70.82694,31.4294 -70.82694,69.969554 0,5.189918 0.58434,10.24717 1.67968,15.121749 l -4.69923,4.65206 -6.27207,6.2012 c -2.73168,-8.18222 -4.217,-16.909931 -4.217,-25.97501 0,-45.89038 37.88214,-83.3154145 84.33556,-83.3154145 z"
       style="clip-rule:evenodd;fill:#474747;fill-rule:evenodd;stroke-width:0.87332809"
/>
  </g>
</svg>
