<?xml version="1.0" encoding="UTF-8" standalone="no"?>
<svg
   height="64"
   width="64"
   viewBox="0 0 36 36"
   version="1.1"
   id="svg10"
   sodipodi:docname="moon_day-26.svg"
   inkscape:version="1.4.2 (ebf0e940d0, 2025-05-08)"
   xmlns:inkscape="http://www.inkscape.org/namespaces/inkscape"
   xmlns:sodipodi="http://sodipodi.sourceforge.net/DTD/sodipodi-0.dtd"
   xmlns="http://www.w3.org/2000/svg"
   xmlns:svg="http://www.w3.org/2000/svg">
  <defs
     id="defs10" />
  <sodipodi:namedview
     id="namedview10"
     pagecolor="#ffffff"
     bordercolor="#000000"
     borderopacity="0.25"
     inkscape:showpageshadow="2"
     inkscape:pageopacity="0.0"
     inkscape:pagecheckerboard="0"
     inkscape:deskcolor="#d1d1d1"
     inkscape:zoom="13.125"
     inkscape:cx="31.961905"
     inkscape:cy="32"
     inkscape:window-width="1920"
     inkscape:window-height="1043"
     inkscape:window-x="0"
     inkscape:window-y="0"
     inkscape:window-maximized="1"
     inkscape:current-layer="svg10" />
  <circle
     fill="#ffd983"
     cx="-18"
     cy="-18"
     r="18"
     id="circle1"
     transform="scale(-1)" />
  <path
     fill="#66757f"
     d="M 36,18 C 36,8.059 27.941,0 18,0 12.6,2.6 9,9.7 9,18 c 0,8.3 3.6,15.4 9,18 9.941,0 18,-8.059 18,-18 z"
     id="path1" />
  <g
     fill="#5b6876"
     id="g10"
     transform="rotate(180,18,18)">
    <circle
       cx="10.5"
       cy="8.5"
       r="3.5"
       id="circle2" />
    <circle
       cx="20"
       cy="16"
       r="3"
       id="circle3" />
    <circle
       cx="21.5"
       cy="27.5"
       r="3.5"
       id="circle4" />
    <circle
       cx="21"
       cy="6"
       r="2"
       id="circle5" />
    <circle
       cx="3"
       cy="18"
       r="1"
       id="circle6" />
    <circle
       fill="#ffcc4d"
       cx="30"
       cy="9"
       r="1"
       id="circle7" />
    <circle
       cx="15"
       cy="31"
       r="1"
       id="circle8" />
    <circle
       fill="#ffcc4d"
       cx="32"
       cy="19"
       r="2"
       id="circle9" />
    <circle
       cx="10"
       cy="23"
       r="2"
       id="circle10" />
  </g>
</svg>
