<?xml version="1.0" encoding="UTF-8" standalone="no"?>
<svg
   height="64"
   width="64"
   viewBox="0 0 36 36"
   version="1.1"
   id="svg10"
   sodipodi:docname="moon_day-27.svg"
   inkscape:version="1.4.2 (ebf0e940d0, 2025-05-08)"
   xmlns:inkscape="http://www.inkscape.org/namespaces/inkscape"
   xmlns:sodipodi="http://sodipodi.sourceforge.net/DTD/sodipodi-0.dtd"
   xmlns="http://www.w3.org/2000/svg"
   xmlns:svg="http://www.w3.org/2000/svg">
  <defs
     id="defs10" />
  <sodipodi:namedview
     id="namedview10"
     pagecolor="#ffffff"
     bordercolor="#000000"
     borderopacity="0.25"
     inkscape:showpageshadow="2"
     inkscape:pageopacity="0.0"
     inkscape:pagecheckerboard="0"
     inkscape:deskcolor="#d1d1d1"
     inkscape:zoom="13.125"
     inkscape:cx="32.038095"
     inkscape:cy="32"
     inkscape:window-width="1920"
     inkscape:window-height="1043"
     inkscape:window-x="0"
     inkscape:window-y="0"
     inkscape:window-maximized="1"
     inkscape:current-layer="svg10" />
  <circle
     fill="#ffd983"
     cx="-18"
     cy="-18"
     r="18"
     id="circle1"
     transform="scale(-1)" />
  <path
     fill="#66757f"
     d="M 36,18 C 36,8.059 27.941,0 18,0 17.705,0 17.42,0.029 17.13,0.043 11.239,2.607 7,9.668 7,18 7,26.331 11.239,33.393 17.13,35.956 17.42,35.97 17.705,36 18,36 27.941,36 36,27.941 36,18 Z"
     id="path1" />
  <circle
     fill="#5b6876"
     cx="-25.5"
     cy="-27.5"
     r="3.5"
     id="circle2"
     transform="scale(-1)" />
  <circle
     fill="#5b6876"
     cx="-16"
     cy="-20"
     r="3"
     id="circle3"
     transform="scale(-1)" />
  <circle
     fill="#5b6876"
     cx="-14.5"
     cy="-8.5"
     r="3.5"
     id="circle4"
     transform="scale(-1)" />
  <circle
     fill="#5b6876"
     cx="-15"
     cy="-30"
     r="2"
     id="circle5"
     transform="scale(-1)" />
  <circle
     fill="#5b6876"
     cx="-33"
     cy="-18"
     r="1"
     id="circle6"
     transform="scale(-1)" />
  <circle
     fill="#ffcc4d"
     cx="-6"
     cy="-27"
     r="1"
     id="circle7"
     transform="scale(-1)" />
  <circle
     fill="#5b6876"
     cx="-21"
     cy="-5"
     r="1"
     id="circle8"
     transform="scale(-1)" />
  <circle
     fill="#ffcc4d"
     cx="-4"
     cy="-17"
     r="2"
     id="circle9"
     transform="scale(-1)" />
  <circle
     fill="#5b6876"
     cx="-26"
     cy="-13"
     r="2"
     id="circle10"
     transform="scale(-1)" />
</svg>
