<svg height="64" width="64" xmlns="http://www.w3.org/2000/svg" viewBox="0 0 36 36">
    <path fill="#FFD983"
        d="M30.312.776C32 19 20 32 .776 30.312c8.199 7.717 21.091 7.588 29.107-.429C37.9 21.867 38.03 8.975 30.312.776z" />
    <path
        d="M30.705 15.915a1.163 1.163 0 101.643 1.641 1.163 1.163 0 00-1.643-1.641zm-16.022 14.38a1.74 1.74 0 000 2.465 1.742 1.742 0 100-2.465zm13.968-2.147a2.904 2.904 0 01-4.108 0 2.902 2.902 0 010-4.107 2.902 2.902 0 014.108 0 2.902 2.902 0 010 4.107z"
        fill="#FFCC4D" />
</svg>