<svg height="64" width="64" viewBox="0 0 274 274" xmlns="http://www.w3.org/2000/svg">
   <path fill="#e86016"
      d="M273.95 219.16c0 30.261-24.528 54.792-54.79 54.792H54.79C24.53 273.952 0 249.422 0 219.16V54.79C0 24.53 24.53 0 54.79 0h164.37c30.262 0 54.79 24.53 54.79 54.79z" />
   <path fill="#fff"
      d="M242.472 154.694c-8.047 2.6-30.666-6.893-13.476-11.978 9.757-7.122 8.74-22.482 6.57-33.425-3.442-14.589-6.888-29.314-14.665-42.308-6.247-11.25-14.817-26.588-29.768-25.468-6.19 3.33-10.682 15.083-21.09 10.388-9.857-3.109-19.806-6.254-29.348-9.831-16.995-7.126-37.566-5.395-52.192-17.96-6.967 20.558-18.466 39.259-25.815 59.654-5.905 8.397-10.077 20.385-12.079 28.564-9.277.965-22.21-2.03-27.74 7.447.072 12.16 7.202 23.53 9.75 35.507a110.63 110.63 0 0019.886 37.096c6.638 13.591 24.91 17.723 37.382 9.774 4.418-2.23 9.445-8.302 5.104-.411-4.227 11.845-4.287 29.622 9.118 35.478 20.156 6.391 43.285-6.852 51.264-25.739 1.517-9.046-10.33-19.482-4.55-28.785 13.424 1.47 15.566 18.693 19.71 29.081 3.802 12.846 6.727 26.234 13.826 37.78 14.722 8.837 3.956-13.924.274-19.497-6.41-9.814-9.378-21.045-14.845-31.38-4.588-6.81-10.484-25.704 4.314-21.486.396 12.902 11.933 24.107 25.161 22.177 20.442-1.558 38.827-15.744 47.2-34.158 1.546-3.985-.345-8.441-3.991-10.52zm-10.614 11.915c.026 12.516-17.03-2.675-24.752.86-13.22 3.091-5.641 15.499 3.873 17.816 9.91 9.024-12.87 2.34-15.256-4.025-3.927-4.593-12.669-9.16-6.387.326 4.796 8.313-8.43-5.6-12.464-7.129-8.143-6.487-22.18-8.65-28.093 1.962-8.37 7.286-2.457 19.544-.907 28.64-.808 6.498-12.284-14.501-11.966.176-.35 6.937 4.4 19.905-5.749 21.256 4.305-6.551-4.614-23.869-8.163-9.63-.81 4.919-1.056 17.409-6.089 6.586-1.336-9.474-13.289 9.969-10.195-2.951 4.053-4.636 8.759-8.566.947-12.242-9.676-7.277 21.537 1.607 14.472-10.206-4.948-3.109-9.543-2.385-1.315-3.024 9.677-2.333 24.108-8.608 22.324-20.57-6.092-11.699-20.639-3.973-28.56 1.49-11.184 7.602-23.452 18.752-38.02 15.481 8-7.745 21.264-9.723 31.267-15.276 10.777-2.073 12.846-17.731-.29-16.217-12.06-2.043-21.407 6.085-31.019 10.65-5.353 2.359-17.961-3.654-5.903-4.054 10.134 2.708 21.227-11.456 7.642-15.567-7.64-1.74-25.423 4.629-26.27-4.717 7.667 2.325 12.817-8.191 2.486-7.655-5.177-.138-21.307 1.19-12.198-6.85-8.004-.434-9.75-19.414-1.213-8.802 5.334 11.36 24.16-1.108 25.114 14.439 4.73 14.553 19.902 4.151 15.332-2.96 3.804 10.283 13.782 19.426 24.937 20.424 8.842.93 3.023-17.32 9.176-7.145 7.106 7.099 14.685 16.593 25.482 17.086 14.939-6.738-2.714-23.225-11.953-26.542-17.725-7.963-39.092-9.218-53.172-24.08-7.353-11.234 15.11 3.97 19.703 5.607 10.37 4.638 21.052 14.168 33.04 11.25 10.485-10.177-5.957-23.101-15.453-26.66-9.968-4.834-23.413-9.26-25.614-21.754 8.326 6.987 17.766 13.829 28.664 15.794 13.586-5.693-3.647-19.524-11.732-23.117-4.586-2.087-13.043-9.908-2.149-6.288 11.749-1.527-1.638-11.742-7.946-12.116-12.774-5.271 10.39-2.369 3.131-10.134-2.141-4.52-4.67-16.838 1.703-6.26 2.672 7.858 11.221 6.17 16.534 3.26-2.188 4.234-7.136 24.078 1.993 12.758 5.77-10.585 3.258 10.34 2.655 15.105-3.325 7.468 3.623 25.299 9.88 19.139-.257-7.257-2.222-20.927 3.804-24.013 6.18 12.118-1.101 25.499-1.286 38.15-3.159 9.275 4.69 27.079 14.899 20.37 9.607-20.381 7.497-43.918 15.965-64.658 4.607 17.924-2.363 35.836-6.3 53.17-6.95 11.057-11.3 25.375-7.662 38.275 4.562 11.59 26.057 2.528 19.768-9.17-1.034-4.967-13.004-17.726-5.997-17.127 4.558 14.929 20.39 3.814 20.224-7.308 4.518-12.362-7.678-18.765-11.888-28.3 6.016 8.35 22.215 11.248 20.317-3.19-.068-6.44-10.112-13.314-8.57-17.829 13.275 10.189 10.994-9.985 12.89-18.313 11.935 3.437 4 17.397 3.37 26.04 1.187 8.852 15.721-9.944 8.968 3.342-3.824 9.2-17.727 15.72-15.06 26.289 8.334 4.85 14.344-15.093 24.946-10.877-4.42 10.572-17.415 13.754-24.836 21.985-9.131 3.674-14.148 23.834.597 18.353 11.027-4.016 20.308-12.16 31.788-14.897 7.114 4.652-10.562 11.054-15.134 13.44-15.133 6.588-35.23 9.586-42.77 26.307 1.31 10.66 17.716 4.492 22.7-1.967 4.325-6.854 20.949-7.405 8.564-.033-5.362 11.006 18.27 5.852 20.835-1.786 2.5 6.274 21.51 2.71 17.927 7.78-1.821.73-3.704 1.286-5.586 1.833z" />
</svg>