<svg height="64" width="64" xmlns="http://www.w3.org/2000/svg" viewBox="0 0 274 274">
   <path fill="#02b1e8"
      d="M273.95 219.161c0 30.26-24.528 54.79-54.79 54.79H54.79c-30.26 0-54.79-24.53-54.79-54.79V54.79C0 24.53 24.53 0 54.79 0h164.37c30.262 0 54.79 24.53 54.79 54.79z" />
   <path fill="#02b1e8"
      d="M273.95 219.161c0 30.26-24.528 54.79-54.79 54.79H54.79c-30.26 0-54.79-24.53-54.79-54.79V54.79C0 24.53 24.53 0 54.79 0h164.37c30.262 0 54.79 24.53 54.79 54.79z" />
   <path fill="#02b1e8"
      d="M273.95 219.161c0 30.26-24.528 54.79-54.79 54.79H54.79c-30.26 0-54.79-24.53-54.79-54.79V54.79C0 24.53 24.53 0 54.79 0h164.37c30.262 0 54.79 24.53 54.79 54.79z" />
   <path fill="#fff"
      d="M100.332 115.657l-1.429 41.814 35.498 22.144 36.927-19.672 1.427-41.814-35.498-22.143zm60.627 36.523l-25.622 14.353-25.242-15.013.38-29.365 25.624-14.353 25.24 15.013z" />
   <path fill="#fff"
      d="M240.36 175.275l-15.436 7.932-22.482-12.807 21.133-12.515-4.24-7.923-16.14 9.041-16.96-10.625.134-5.418.092.174.258-13.714 17.358-10.835 16.828 10.986 6.061-8.217-23.098-13.86 22.187-13.662 18.07 9.363 3.965-7.716-19.526-9.163 1.74-19.808-8.949-.747-.848 17.336-22.333 13.066-.271-24.56-8.983-.288-.24 18.56-18.433 8.98-3.94-2.582.115.006-1.34-.807-5.921-3.881.24.456-4.576-2.76-.707-20.45 17.926-9.078-4.083-9.36-23.552 13.074-.739-26.045 17.146-10.969-4.7-7.291-17.7 12.33-16.283-11.412-5.122 7.377 14.59 9.401.15 25.874-21.406-12.044-4.74 7.636 15.883 9.447-.526 19.81-10.91 5.813.282.015-6.219 3.435-18.061-9.614 1.1-20.065-10.148-1.143-.454 26.934L53.627 80.58 52.7 60.248l-8.665.425 1.83 21.492-18.027 8.396 3.829 8.124 15.436-7.934 22.482 12.807-21.133 12.516 4.242 7.923 16.122-9.03 16.016 9.804.534 16.953-.054 2.816-17.356 10.836-16.828-10.986-6.063 8.216 23.098 13.86-22.186 13.665-18.07-9.365-3.965 7.717 19.527 9.161-1.741 19.809 8.95.747.846-17.336 22.334-13.066.27 24.56 8.984.286.24-18.46 16.966-9.4 5.195 2.786-.071-.003 6.181 3.726.358.235-.013-.027 5.245 3.162.705 20.45-17.927 9.079 4.085 9.361 23.551-13.075.74 26.046-17.146 10.969 4.7 7.29 17.7-12.33 16.284 11.412 5.12-7.378-14.59-9.4-.148-25.873 21.406 12.042 4.74-7.634-15.91-9.463.83-19.826 12.27-6.785-.119-.004 4.408-2.435 18.062 9.613-1.1 20.066 10.147 1.143.454-26.935 22.925 12.383.927 20.333 8.665-.426-1.83-21.492 18.026-8.395zm-45.046-.984a2.727 2.727 0 01-3.747.93l-17.508-10.547-36.84 19.625-.583 22.075a2.731 2.731 0 01-2.728 2.658h-.073a2.73 2.73 0 01-2.657-2.802l.577-21.832-33.078-20.633-18.364 10.365a2.727 2.727 0 01-3.72-1.035 2.73 2.73 0 011.036-3.718l15.772-8.903-.062-.038 1.486-43.493-15.497-9.335a2.731 2.731 0 012.818-4.677l14.297 8.612 37.767-20.119.55-20.814c.04-1.507 1.272-2.722 2.801-2.657a2.73 2.73 0 012.656 2.8l-.535 20.31 36.426 22.724 17.294-9.763a2.73 2.73 0 012.685 4.755l-17.895 10.1-1.403 41.066 17.596 10.6a2.728 2.728 0 01.929 3.747zm-11.41-35.984l-.091.145-.009-.336z" />
</svg>