<svg height="64" width="64" xmlns="http://www.w3.org/2000/svg" viewBox="0 0 274 274">
   <path fill="#ffcf09"
      d="M273.95 219.16c0 30.261-24.528 54.792-54.79 54.792H54.79C24.53 273.952 0 249.422 0 219.16V54.79C0 24.53 24.53 0 54.79 0h164.37c30.262 0 54.79 24.53 54.79 54.79z" />
   <path fill="#fff"
      d="M77.52 154.764C68.87 122.778 88.027 89.9 120.31 81.33c32.284-8.572 65.465 10.41 74.117 42.397 8.65 31.984-10.509 64.862-42.792 73.433-32.283 8.57-65.465-10.412-74.115-42.396zM112.168 209.398l-39.871 39.111 14.25-53.767 10.963 10.497zM206.77 162.814l39.474 39.504-54.266-14.12 10.595-10.863zM159.753 69.08l39.868-39.108-14.249 53.765L174.41 73.24zM65.15 115.666L25.68 76.163l54.263 14.116-10.593 10.864zM69.079 172.166l-56.102-.277 48.445-28.037.262 15.105zM169.218 205.504l-.281 55.587-28.292-48 15.243-.26zM202.867 106.287l56.104.276-48.447 28.037-.26-15.104zM102.727 72.947l.278-55.585 28.295 48-15.244.257z" />
</svg>