<svg height="64" width="64" viewBox="0 0 574 574" xmlns="http://www.w3.org/2000/svg">
	<path fill="#FFCF09"
		d="M273.95 519.16c0 30.261-24.528 54.792-54.79 54.792H54.79C24.53 573.952 0 549.422 0 519.16V354.79C0 324.53 24.53 300 54.79 300h164.37c30.262 0 54.79 24.53 54.79 54.79v164.37z" />
	<path fill="#FFF"
		d="M77.52 454.764c-8.65-31.986 10.508-64.864 42.79-73.434 32.284-8.572 65.466 10.41 74.117 42.397 8.65 31.984-10.509 64.862-42.792 73.433-32.282 8.57-65.465-10.412-74.114-42.396zm34.648 54.634l-39.87 39.111 14.25-53.767 10.962 10.497 14.658 4.159zm94.602-46.584l39.475 39.504-54.267-14.12 10.596-10.863 4.196-14.521zm-47.017-93.734l39.869-39.108-14.25 53.765-10.962-10.497-14.657-4.16zM65.15 415.666l-39.47-39.503 54.262 14.116-10.593 10.864-4.198 14.523zm3.93 56.5l-56.103-.277 48.445-28.037.262 15.105 7.395 13.209zm100.138 33.338l-.281 55.587-28.292-48 15.243-.26 13.33-7.327zm33.65-99.217l56.103.276-48.446 28.037-.26-15.104-7.397-13.21zm-100.141-33.34l.278-55.585 28.295 48-15.244.257-13.329 7.328z" />
	<path fill="#e86016"
		d="M573.95 519.16c0 30.261-24.528 54.792-54.79 54.792H354.79c-30.26 0-54.79-24.53-54.79-54.791V354.79c0-30.26 24.53-54.79 54.79-54.79h164.37c30.262 0 54.79 24.53 54.79 54.79z" />
	<path fill="#fff"
		d="M542.472 454.694c-8.095.618-34.962-5.61-14.91-11.072 19.423-11.34 3.68-36.773 4.35-54.698-8.701-17.34-16.423-35.546-32.232-47.698-12.893-15.69-17.523 29.623-35.234 7.42-5.087-4.843-15.726 3.478-20.89-5.412-12.707-9.119-17.385 1.173-28.741-8.85-13.605 5.831-32.897-27.809-30.452.71-4.848 17.215-14.53 26.34-20.465 45.932-1.231 14.16-16.926 11.437-8.564 26.023-4.686 15.075-44.45-4.866-29.096 20.352 1.812 22.77 10.474 46.182 26.217 62.714 7.001 24.12 33.428 18.524 46.27 4.79-8.766 13.304-11.034 43.504 15.143 43.463 18.25 2.727 42.573-16.66 41.392-34.166-7.766-7.978-11.088-33.092 4.249-18.204 10.143 18.996 14.775 40.232 22.766 60.056 15.176 22.317 11.551-7.928 1.115-16.689-6.445-17.974-19.915-35.99-19.314-54.924 18.654.451 15.364 38.803 40.044 23.98 19.254-3.862 37.915-17.45 42.985-36.743l-1.307-3.455zm-10.613 11.915c-1.287 6.288 6.579 8.865-6.213 3.345-12.815-6.798-42.453 4.691-17.017 13.657 23.404 10.546-14.678 7.244-16.54-6.245-11.69-9.7-10.542-5.908-2.02 4.11 3.993 19.367-13.397-18.882-26.398-12.32-26.92-.714-15.74 33.97-15.448 41.513-3.957-9.53-16.792-20.555-11.282-2.609 3.394 11.055-11.308 32.559-5.93 9.545-2.154-22.837-10.952 1.632-10.998 11.235-6.159 7.33 1.056-20.725-11.063-5.751-18.517 13.825 18.933-21.656-8.448-14.712.591-7.463 37.15-1.926 18.259-10.058-20.362-7.52 24.025-.378 22.699-17.682 5.827-26.166-28.93-5.159-38.328 3.106-7.352 6.341-48.288 16.306-24.436 4.27 10.989-5.977 56.606-17.128 31.4-28.408-15.638-3.557-41.288 20.063-48.656 7.908 12.447 3.27 38.004-14.465 12.967-15.862-8.638 1.656-42.134-5.036-18.354-5.663 20.272-9.88-35.667-5.02-13.76-12.455-8.388-6.385-15.417-23.836-.429-9.163 3.798 5.219 18.717 11.94 14.638-1.009 6.806 18.244 30.345 33.02 22.964 7.943 4.333 11.905 24.972 33.245 32.234 19.187-2.317-21.91 11.99 16.391 23.445 13.596 29.21 1.143-4.55-33.237-21.597-30.533-13.203-3.161-43.557-17.41-41.197-25.59 19.57 10.64 39.342 23.235 62.07 25.402-3.165-21.78-23.425-30.436-40.448-38.985-11.36-4.978-12.743-18.684-.002-7.202 6.593 10.025 37.01 21.25 24.852-.075-3.091-7.65-41.714-24.741-18.846-18.742 25.327 8.253-11.408-17.387-13.05-15.093 19.054 7.166 7.893-12.12 5.704-19.411 6.737 7.094 16.05 20.712 22.434 7.706-4.556 7.736-4.87 34.514.559 14.115 12.805-17.842-.7 18.987 4.455 26.546 1.58 12.81 12.714 18.206 9.78 1.772-4.128-10.545 4.207-34.837 5.325-11.952 2.713 18.28-10.19 37.206 1.49 54.025 16.37 13.026 16.165-32.875 20.909-44.328-.535-11.016 7.408-31.855 6.959-8.718-1.605 23.021-9.023 44.945-17.885 66.13-5.16 19.94 20.842 27.731 23.352 5.802-6.809-5.13-17.835-38.915-7.357-17.836 19.521 22.079 27.913-23.187 9.537-32.36-11.133-24.649 18.292 22.842 18.271-5.517 3.866-7.328-20.89-29.913-4.81-17.617 16.296 12.593 4.277-43.576 12.056-18.691 1.52 8.951 15.288 1.332 3.296 13.358-5.726 6.989-3.631 26.034 3.142 9.907 16.004-5.367-14.768 23.28-14.139 31.676 7.689 11.694 24.556-24.199 29.188-12.311-9.419 14.665-43.15 25.285-35.301 43.136 15.03.144 38.947-24.887 46.185-16.27-17.422 14.09-41.15 17.647-58.438 30.835-20.626 17.07 19.472 15.776 24.222 1.051 16.259-10.135 7.542 4.246-1.814 8.951 9.862 10.655 30.504-16.19 31.629-1.61 8.947-1.718 27.92-.5 6.183 4.951z" />
	<path fill="#B3D92C"
		d="M573.95 219.161c0 30.26-24.528 54.79-54.79 54.79H354.79c-30.26 0-54.79-24.53-54.79-54.79V54.79C300 24.53 324.53 0 354.79 0h164.37c30.262 0 54.79 24.53 54.79 54.79v164.371z" />
	<path fill="#FFF"
		d="M359.327 47.752c.134-5.21-10.975-12.162-2.503-15.06 1.876-4.213.151-13.643 7.969-10.093 5.798 2.704 7.042-6.582 13.051-2.65 5.59 1.696 2.748 7.193-1.475 7.104-5.4 5.457 1.817 13.38 7.447 15.97 4.35 3.515 6.982-1.383 3.878-4.996-2.594-7.048 9.057-6.65 6.894.315-3.642 4.486-4.362 12.287 2.546 14.886 4.469 2.05 5.16-2.723 3.197-5.86-1.308-5.633 8.317-7.725 7.508-1.184-2.545 4.68-7.905 11.691-1.026 16.248 5.11 2.815 5.487-4.123 4.969-7.395 2.635-6.223 11.845 1.794 5.228 4.87-6.527 3.395-3.876 11.038 1.097 15.41 7.745 8.905 13.528 19.411 18.047 30.197 4.223 10.732 6.845 22.451 5.34 33.523-2.578 6.614-13.932 5.103-15.71-2.307-3.272-7.964-1.87-16.506-4.26-24.63-3.01-16.025-8.384-32.128-17.96-45.886-5.537-5.726-9.81 7.168-15.161 1.77-3.193-6.276 6.12-7.713 9.49-5.807 2.723-5.111-7.004-11.448-11.103-8.002-2.845 3.144-10.035 6.586-10.041-1.006 1.103-6.63 8.978 2.036 10.789-2.978-.624-5.679-8.301-7.356-12.772-8.777-7.192-1.63-5.789 8.887-11.632 9.586-1.745-.2-3.08-1.659-3.807-3.246v-.002z" />
	<path fill="#fff"
		d="M330.194 178.158c7.83-9.708 13.718-22.133 5.602-32.763.768-13.887 17.744-19.206 29.399-16.293 9.198.385 24.411 10.679 30.08 2.104-6.376-12.222-22.082-5.79-32.881-7.355-9.719-.113-21.323-1.07-27.837-9.213-5.752-9.844 13.154-16.235 4.115-26.32-9.522-10.848 7.956-14.977 15.573-14.118 12.838-6.788 28.405-2.975 38.338 6.992 13.225 10.584 22.264 26.44 24.059 43.335-12.562-4.862-14.465-23.593-28.996-24.98-16.543 3.086-1.706 22.16 8.402 24.44 8.457.873 18.892 19.29 4.017 16.64-11.925-3.771-25.377 6.953-16.015 18.183-2.13 7.008-8.12 21.317 5.45 18.276 11.027-2.49 14.04-19.08 26.532-17.681-6.529 9.912-16.746 17.057-21.121 28.483-5.448 9.466-12.064 19.555-22.888 23.284-13.407-2.278-25.388-9.564-37.594-14.89-4.682-4.507-7.503-12.015-4.235-18.124zm114.085-64.918c-7.43-21.746-7.424-49.743 10.939-66.177 10.154-4.625 22.868 3.982 31.42-5.422 13.09-2.195 23.775 13.727 18.056 25.302 5.807 9.008 15.1 21.499 2.613 29.836-10.982 9.949-27.658 9.275-38.588 19.432-3.16 4.061-16.772 15.177-10.495 2.669 7.29-10.58 18.478-19.99 20.81-33.05-4.736-15.93-21.107-1.964-23.702 8.093-3.562 3.506-4.733 26.868-11.053 19.317zm47.284 66.323c-12.266-9.947-27.314-15.753-42.518-19.471.136 11.003 26.328 13.608 14.663 25.28-12.948 4.143 9.225 22.667-7.649 25.535-12.364 4.053-11.656-17.762-16.956-18.676-8.14 10.362-22.498-.465-16.716-11.423 3.039-4.343 12.982-17.947 1.696-16.634-14.381 7.699-22.859 23.571-26.515 39.01-2.818 11.29.12 24.94 11.074 30.806 11.382 7.288 26.715-4.537 37.008 5.625 10.183 13.766 33.394 13.7 43.618.046 3.721-13.149 13.973-24.246 15.646-37.679-.966-9.013-7.509-16.031-13.351-22.419zm59.432-34.556c-8.404-5.868-25.064-5.565-19.14-19.821-5.595-13.078-22.547-14.018-34.724-12.386-17.085 2.92-31.762 13.5-43.547 25.756 4.891 3.536 11.492-8.3 18.437-7.258 8.456-4.212 25.05-.972 16.82 10.483 4.185 6.2 20.832 3.343 14.565 15.823-8.623 7.643-20.286-4.192-30.117-4.737-4.88-1.62-20.178-2.905-18.102 1.87 11.5 7.069 25.71 9.04 35.544 18.936 10.652 8.382 20.94 22.007 36.144 19.65 11.831-4.13 12.329-19.209 24.108-23.535 7.517-6.889 8.11-18.108.012-24.781z" />
	<g>
		<path fill="#02B1E8"
			d="M273.95 219.161c0 30.26-24.528 54.79-54.79 54.79H54.79c-30.26 0-54.79-24.53-54.79-54.79V54.79C0 24.53 24.53 0 54.79 0h164.37c30.262 0 54.79 24.53 54.79 54.79v164.371z" />
		<path fill="#02B1E8"
			d="M273.95 219.161c0 30.26-24.528 54.79-54.79 54.79H54.79c-30.26 0-54.79-24.53-54.79-54.79V54.79C0 24.53 24.53 0 54.79 0h164.37c30.262 0 54.79 24.53 54.79 54.79v164.371z" />
		<path fill="#02B1E8"
			d="M273.95 219.161c0 30.26-24.528 54.79-54.79 54.79H54.79c-30.26 0-54.79-24.53-54.79-54.79V54.79C0 24.53 24.53 0 54.79 0h164.37c30.262 0 54.79 24.53 54.79 54.79v164.371z" />
		<path fill="#FFF"
			d="M100.332 115.657l-1.429 41.814 35.498 22.144 36.927-19.672 1.427-41.814-35.498-22.143-36.925 19.67zm60.626 36.523l-25.621 14.353-25.242-15.013.38-29.365 25.624-14.353 25.24 15.013-.38 29.365z" />
		<path fill="#FFF"
			d="M240.36 175.275l-15.436 7.932-22.482-12.807 21.133-12.515-4.24-7.923-16.14 9.041-16.96-10.625.134-5.418.092.174.258-13.714 17.358-10.835 16.828 10.986 6.061-8.217-23.098-13.86 22.187-13.662 18.07 9.363 3.965-7.716-19.526-9.163 1.74-19.808-8.949-.747-.848 17.336-22.333 13.066-.271-24.56-8.983-.288-.24 18.56-18.433 8.98-3.94-2.582.115.006-1.34-.807-5.921-3.881.24.456-4.576-2.76-.707-20.45 17.926-9.078-4.083-9.36-23.552 13.074-.739-26.045 17.146-10.969-4.7-7.291-17.7 12.33-16.283-11.412-5.122 7.377 14.59 9.401.15 25.874-21.406-12.044-4.74 7.636 15.883 9.447-.526 19.81-10.91 5.813.282.015-6.219 3.435-18.061-9.614 1.1-20.065-10.148-1.143-.454 26.934L53.627 80.58 52.7 60.248l-8.665.425 1.83 21.492-18.027 8.396 3.829 8.124 15.436-7.934 22.482 12.807-21.133 12.516 4.242 7.923 16.122-9.03 16.016 9.804.534 16.953-.054 2.816-17.356 10.836-16.828-10.986-6.063 8.216 23.098 13.86-22.186 13.665-18.07-9.365-3.965 7.717 19.527 9.161-1.741 19.809 8.95.747.846-17.336 22.334-13.066.27 24.56 8.984.286.24-18.46 16.966-9.4 5.195 2.786-.071-.003 6.181 3.726.358.235-.013-.027 5.245 3.162.705 20.45-17.927 9.079 4.085 9.361 23.551-13.075.74 26.046-17.146 10.97 4.7 7.29 17.7-12.33 16.284 11.41 5.12-7.377-14.59-9.4-.148-25.873 21.406 12.042 4.74-7.634-15.91-9.462.83-19.827 12.27-6.785-.119-.004 4.408-2.435 18.062 9.613-1.1 20.067 10.147 1.142.454-26.935L218.4 193.38l.927 20.333 8.665-.425-1.83-21.493 18.026-8.395-3.828-8.124zm-45.046-.984a2.727 2.727 0 01-3.747.93l-17.508-10.547-36.84 19.625-.583 22.075a2.731 2.731 0 01-2.728 2.658l-.073-.001a2.73 2.73 0 01-2.657-2.801l.577-21.833-33.078-20.632-18.364 10.365a2.727 2.727 0 01-3.72-1.035 2.73 2.73 0 011.036-3.719l15.772-8.902-.062-.039 1.486-43.493-15.497-9.334a2.731 2.731 0 012.818-4.677l14.297 8.612 37.767-20.12.55-20.814c.04-1.506 1.272-2.722 2.801-2.657a2.73 2.73 0 012.656 2.801l-.535 20.31 36.426 22.723 17.294-9.763a2.73 2.73 0 012.685 4.755l-17.895 10.101-1.403 41.065 17.596 10.6a2.728 2.728 0 01.929 3.747zm-11.41-35.984l-.091.145-.009-.336.1.19z" />
	</g>
</svg>