<svg height="64" width="64" viewBox="0 0 274 274" xmlns="http://www.w3.org/2000/svg">
   <path fill="#b3d92c"
      d="M273.95 219.161c.876 30.481-27.57 57.17-57.89 54.79-54.696-.047-109.395.095-164.09-.071-29.767-.72-54.535-29.06-51.97-58.593.047-54.439-.095-108.88.071-163.317C.791 22.203 29.131-2.565 58.664 0c54.438.047 108.879-.095 163.316.071 29.767.719 54.535 29.06 51.97 58.593v160.497z" />
   <path fill="#fff"
      d="M59.326 47.752c.084-5.102-7.718-8.716-4.822-13.795 5.78-1.578 1.14-14.6 9.583-11.653 5.513 3.516 9.222-6.93 14.708-1.995 5.124 2.671-.354 6.923-3.295 7.794-3.115 5.324 1.89 10.896 6.157 13.714 2.917 4.026 9.887 1.95 6.552-3.1-4.801-6.694 9.217-7.815 6.379-.375-4.35 4.573-3.47 13.645 3.34 15.192 7.784.425-1.975-10.58 5.97-11.323 8.348.411.112 9.044-.347 13.232-2.178 5.073 7.467 11.46 8.233 4.114-1.392-4.437 2.875-9.661 6.698-4.918 3.411 5.692-8.77 6.975-4.995 13.691 1.767 5.66 7.217 8.903 10.071 13.945 10.443 15.462 18.837 33.547 18.31 52.583 1.234 5.655-4.691 9.858-9.789 8.024-5.595-1.226-7.07-7.39-8.005-12.218-1.024-7.199-1.162-14.526-3.143-21.569-3.25-15.334-8.488-30.683-17.883-43.364-5-4.282-12.656 9.533-15.293.123.024-5.936 8.37-3.523 10.506-4.647.457-7.106-10.154-10.842-14.24-4.795-4.588 5.2-11.013-4.238-4.646-5.862 3.575 2.016 11.316 1.546 6.532-3.926-4.206-3.063-12.1-8.134-16.442-3.078-1.675 4.356-6.58 11.564-10.139 4.206z" />
   <path fill="#fff"
      d="M30.193 178.158c4.608-9.605 17.084-19.721 5.754-29.74-2.211-16.767 18.688-23.231 31.787-18.573 7.931.218 26.717 10.589 27.567.71-7.397-11.673-23.966-4.857-35.345-6.767-11.123 1.473-36.356-7.846-22.993-21.269 13.002-7.561-12.562-24.345 7.304-27.807 12.853 2.427 28.784-11.315 40.915 1.379 17.206 10.11 29.346 28.551 31.459 48.436-13.127-4.976-15.468-26.956-31.92-24.86-13.781 9.26 4.963 21.24 13.508 25.684 11.348 2.63 13.831 20.766-.956 15.514-12.584-3.455-21.774 7.84-12.98 18.278-3.84 7.588-7.606 22.599 6.872 17.289 8.542-2.362 17.166-22.502 24.541-15.565-7.58 8.005-15.467 15.884-20.255 26.049-5.898 9.925-13.079 22.73-25.61 24.134-12.202-3.837-24.678-9.069-35.651-15.02-4.565-4.505-7.192-11.87-3.997-17.872zm114.085-64.918c-7.328-21.768-7.532-49.76 10.94-66.177 10.147-4.928 22.3 4.432 31.152-5.363 17.055-2.358 21.527 15.985 19.307 28.539 11.842 8.36 9.127 24.549-3.68 30.555-12.118 5.662-26.004 8.007-35.963 17.72-3.985 4.966-13.76 12.025-8.283.705 7.525-9.657 16.584-18.801 20.687-30.536 2.088-18.243-19.07-8.557-21.357 3.042-7.402 3.072-3.749 29.112-12.803 21.515zm47.285 66.323c-11.239-8.71-31.742-19.584-42.174-17.45 4.107 8.328 30.031 17.45 10.619 24.874-4.266 6.69 10.558 18.994-3.266 23.836-14.589 5.402-10.552-18.573-18.48-19.141-11.517 16.405-24.167-10.312-11.156-17.955 9.628-14.346-9.227-10.533-13.474-1.613-12.21 13.982-21.862 34.672-14.088 52.998 8.381 15.895 27.27 9.516 40.495 10.898 10.497 8.906 23.488 18.82 38.043 11.944 16.484-5.907 15.187-25.927 25.441-37.795 5.296-11.344-4.652-22.843-11.96-30.596zm59.431-34.556c-5.797-7.654-26.316-2.437-18.485-17.349-2.573-13.896-20.233-16.232-31.948-15.327-18.45 1.929-34.435 13.175-46.978 26.225 1.506 5.762 12.117-8.488 18.63-6.918 9.208-4.473 25.956-1.715 16.357 10.561 4.762 4.238 20.764 4.112 14.633 16.142-12.958 6.393-27.835-10.015-42.537-6.825-17.348 4.13 12.834 9.14 18.177 13.985 13.415 7.618 23.287 20.533 37.291 27.09 12.52 5.115 22.706-6.667 25.283-16.332 11.796-4.399 22.004-19.843 10.526-30.217.072-.496-.95-.566-.949-1.035z" />
</svg>