<svg height="800" width="800" xmlns="http://www.w3.org/2000/svg" viewBox="0 0 512 512">
	<circle cx="256" cy="256" r="256" fill="#273b7a" />
	<path
		d="M499.243 335.974L314.109 150.84l4.525 93.667 1.453 1.453-9.573.627-134.967-134.968 2.3 26.577 1.15 1.15-38.21 38.216-1.652-1.652-25.788-2.084L404.249 464.73c44.066-31.354 77.764-76.32 94.994-128.756zM353.844 492.618L175.981 314.756l.85 16.653 3.172 6.404-3.879 22.769-13.002-13.002-19.035-.934 160.689 160.689a253.73 253.73 0 0049.068-14.717z"
		fill="#121149" />
	<path
		d="M175.55 236.03c0-60.23-62.204-62.204-62.204-62.204 60.23 0 62.204-62.204 62.204-62.204 0 60.23 62.204 62.204 62.204 62.204-60.23.001-62.204 62.204-62.204 62.204z"
		fill="#ffc61b" />
	<path d="M175.55 111.621c0 60.23 62.204 62.204 62.204 62.204-60.23 0-62.204 62.204-62.204 62.204V111.621z"
		fill="#e09112" />
	<path
		d="M175.981 378.54c0-30.88-31.892-31.892-31.892-31.892 30.88 0 31.892-31.892 31.892-31.892 0 30.88 31.892 31.892 31.892 31.892-30.878 0-31.892 31.892-31.892 31.892z"
		fill="#ffc61b" />
	<path d="M175.981 314.756c0 30.88 31.892 31.892 31.892 31.892-30.88 0-31.892 31.892-31.892 31.892v-63.784z"
		fill="#e09112" />
	<path
		d="M314.109 355.268c0-98.968-102.214-102.214-102.214-102.214 98.968 0 102.214-102.214 102.214-102.214 0 98.968 102.214 102.214 102.214 102.214-98.967 0-102.214 102.214-102.214 102.214z"
		fill="#ffc61b" />
	<path d="M314.109 150.84c0 98.968 102.214 102.214 102.214 102.214-98.968 0-102.214 102.214-102.214 102.214V150.84z"
		fill="#e09112" />
</svg>