<svg height="64" width="64" xmlns="http://www.w3.org/2000/svg" viewBox="0 0 496.158 496.158">
	<path
		d="M248.082.003C111.07.003 0 111.063 0 248.085c0 137.001 111.07 248.07 248.082 248.07 137.006 0 248.076-111.069 248.076-248.07C496.158 111.062 385.088.003 248.082.003z"
		fill="#58d1dd" />
	<path
		d="M344.312 157.14c-5.491-3.849-16.838 2.863-25.344 14.994-8.506 12.127-10.953 25.083-5.461 28.931 5.492 3.85 16.838-2.863 25.343-14.991 8.506-12.128 10.951-25.084 5.462-28.934z"
		fill="#282828" />
	<path
		d="M343.024 161.293a.403.403 0 00-.401-.369c-.243-.003-24.346.061-25.26 27.641-.009.311-.016.623-.021.94a.412.412 0 00.387.417.412.412 0 00.432-.371c.02-.231 2.516-23.075 24.545-27.817a.417.417 0 00.324-.388c-.005-.017-.003-.035-.006-.053z"
		fill="#a9a9a9" />
	<path
		d="M343.033 109.093c-.175-.288-17.908-28.701-56.699-28.701-4.635 0-9.453.407-14.316 1.209a1.869 1.869 0 00-.207 3.639c8.756 2.504 28.189 10.813 32.746 20.818.76 1.669 2.654 7.723 1.054 10.16-.218.331-.903 1.378-3.419 1.327-2.353-1.16-16.93-8.776-30.277-25.46a1.87 1.87 0 00-3.27 1.632c.701 2.721 17.609 66.678 59.037 71.439a1.888 1.888 0 00.731-.062c.65-.187 15.949-4.755 21.487-18.848 4.051-10.307 1.742-22.804-6.867-37.153z"
		fill="#1e1e1e" />
	<path
		d="M282.853 83.424c-.706 0-1.42.007-2.142.021a.933.933 0 00-.042 1.866c.525.034 52.71 3.992 65.154 53.776a.935.935 0 001.841-.247c-.012-.554-1.965-55.416-64.811-55.416z"
		fill="#a9a9a9" />
	<ellipse transform="rotate(-163.416 294.357 194.043)" cx="294.36" cy="194.046" rx="26.824" ry="12.142"
		fill="#1e1e1e" />
	<path
		d="M317.713 200.275c-.112-.252-13.402-22.499-45.295-14.935-.387.093-.76.232-1.145.355-.268.086-.41.335-.324.565.089.231.375.362.652.297.289-.072 26.216-4.147 45.169 14.126.161.154.396.248.622.18.021-.009.044-.016.063-.029.246-.101.357-.343.258-.559z"
		fill="#a9a9a9" />
	<path
		d="M341.749 202.06s-1.244-1.557-3.424-.934l.312 10.897s-13.393 20.963-27.789 19.247c-.491-.059-3.637 1.914-4.736 3.981-1.1 2.066-1.51 4.762 1.023 5.522 4.594 1.38 12.731 2.286 22.162-3.534 0 0 14.633-9.028 16.5-17.435 0 .002-.313-13.385-4.048-17.744z"
		fill="#282828" />
	<path d="M318.088 231.714c18.68-1.401 21.715-18.212 21.715-18.212-9.807 14.71-21.715 18.212-21.715 18.212z"
		fill="#a9a9a9" />
	<path
		d="M307.933 229.29l-22.188-18.603a5.448 5.448 0 00-7 8.35l22.188 18.602a5.446 5.446 0 007.674-.674 5.45 5.45 0 00-.674-7.675z"
		fill="#1e1e1e" />
	<path
		d="M306.486 229.783l-18.596-15.59c-1.93-1.62-3.835-2.532-4.251-2.036-.416.495.813 2.211 2.745 3.831l18.594 15.589c1.934 1.621 3.838 2.533 4.25 2.036.416-.496-.81-2.209-2.742-3.83z"
		fill="#a9a9a9" />
	<path
		d="M340.869 241.592s-1.227-1.536-3.376-.921l.306 10.749s-13.21 20.68-27.413 18.986c-.483-.058-3.587 1.889-4.67 3.928-1.085 2.039-1.489 4.698 1.009 5.448 4.531 1.361 12.56 2.254 21.863-3.486 0 0 14.433-8.906 16.275-17.199 0 0-.308-13.205-3.994-17.505z"
		fill="#282828" />
	<path d="M317.529 270.845c18.426-1.381 21.42-17.966 21.42-17.966-9.674 14.511-21.42 17.966-21.42 17.966z"
		fill="#a9a9a9" />
	<path
		d="M307.511 268.454l-21.886-18.352a5.376 5.376 0 00-7.574.667 5.377 5.377 0 00.667 7.571l21.887 18.35a5.372 5.372 0 007.57-.665 5.372 5.372 0 00-.664-7.571z"
		fill="#1e1e1e" />
	<path
		d="M306.084 268.939L287.74 253.56c-1.904-1.598-3.783-2.498-4.193-2.009-.41.49.803 2.181 2.709 3.779l18.342 15.378c1.906 1.599 3.785 2.498 4.192 2.008.409-.488-.802-2.178-2.706-3.777z"
		fill="#a9a9a9" />
	<path
		d="M338.033 279.285s-1.172-1.468-3.227-.88l.293 10.273s-12.627 19.764-26.201 18.146c-.461-.055-3.428 1.806-4.463 3.754-1.038 1.948-1.425 4.489.965 5.207 4.33 1.301 12.002 2.155 20.895-3.332 0 0 13.795-8.512 15.555-16.438 0 0-.294-12.62-3.817-16.73z"
		fill="#282828" />
	<path d="M315.725 307.243c17.613-1.322 20.474-17.17 20.474-17.17-9.246 13.868-20.474 17.17-20.474 17.17z"
		fill="#a9a9a9" />
	<path
		d="M306.152 304.958l-20.918-17.54a5.137 5.137 0 00-6.601 7.874l20.918 17.538a5.135 5.135 0 007.236-.636 5.138 5.138 0 00-.635-7.236z"
		fill="#1e1e1e" />
	<path
		d="M304.787 305.423l-17.531-14.699c-1.819-1.527-3.616-2.388-4.006-1.92-.395.468.766 2.084 2.586 3.613l17.53 14.697c1.825 1.529 3.62 2.387 4.008 1.92.393-.468-.765-2.083-2.587-3.611z"
		fill="#a9a9a9" />
	<path
		d="M324.529 326.425s-.6-1.612-2.557-1.691l-2.692 9.018s-16.654 13.563-27.991 8.258c-.389-.181-3.499.586-4.961 1.984-1.463 1.395-2.528 3.495-.654 4.803 3.391 2.376 9.816 5.319 19.123 3.102 0 0 14.439-3.443 18.249-9.83 0 .001 3.367-11.058 1.483-15.644z"
		fill="#282828" />
	<path d="M297.105 344.335c15.693 3.905 22.731-9.056 22.731-9.056-12.022 9.407-22.731 9.056-22.731 9.056z"
		fill="#a9a9a9" />
	<path
		d="M289.435 339.599l-13.154-21.258a4.709 4.709 0 00-6.48-1.522 4.7 4.7 0 00-1.522 6.475l13.155 21.256a4.706 4.706 0 008.001-4.951z"
		fill="#1e1e1e" />
	<path
		d="M288.113 339.611l-11.027-17.816c-1.141-1.849-2.457-3.113-2.932-2.818-.475.292.068 2.033 1.213 3.883l11.027 17.814c1.147 1.853 2.461 3.115 2.933 2.82.475-.294-.065-2.031-1.214-3.883z"
		fill="#a9a9a9" />
	<path
		d="M174.351 172.134c-8.506-12.131-19.854-18.843-25.344-14.994-5.489 3.851-3.045 16.807 5.461 28.934 8.505 12.128 19.852 18.841 25.344 14.991 5.491-3.849 3.045-16.804-5.461-28.931z"
		fill="#282828" />
	<path
		d="M175.957 188.565c-.914-27.58-25.018-27.644-25.26-27.641a.401.401 0 00-.401.369c-.004.018-.003.036-.005.054a.414.414 0 00.324.388c22.029 4.742 24.523 27.586 24.544 27.817a.415.415 0 00.433.371.412.412 0 00.387-.417c-.006-.318-.014-.63-.022-.941z"
		fill="#a9a9a9" />
	<path
		d="M223.701 91.58a1.864 1.864 0 00-2.295.504c-13.348 16.685-27.925 24.301-30.277 25.46-2.516.052-3.203-.996-3.42-1.327-1.602-2.437-1.041-5.232 1.055-10.16 3.904-9.173 23.99-18.314 32.746-20.818a1.867 1.867 0 00-.208-3.639c-4.863-.803-9.681-1.209-14.315-1.209-38.792 0-56.524 28.414-56.699 28.701-8.611 14.349-10.918 26.846-6.867 37.154 5.539 14.093 20.838 18.661 21.487 18.848a1.855 1.855 0 00.732.062c41.428-4.762 58.336-68.718 59.036-71.439a1.875 1.875 0 00-.975-2.137z"
		fill="#1e1e1e" />
	<path
		d="M212.607 83.445c-.723-.014-1.436-.021-2.141-.021-62.846 0-64.799 54.862-64.813 55.416a.936.936 0 00.935.955.935.935 0 00.906-.708c12.444-49.785 64.63-53.743 65.155-53.776a.935.935 0 00-.042-1.866z"
		fill="#a9a9a9" />
	<ellipse transform="rotate(-106.589 198.974 194.046)" cx="198.975" cy="194.05" rx="12.14" ry="26.826"
		fill="#1e1e1e" />
	<path
		d="M222.047 185.695c-.386-.123-.758-.262-1.145-.355-31.895-7.563-45.184 14.683-45.297 14.935-.098.216.014.458.258.559.021.013.042.02.064.029.226.068.461-.025.621-.18 18.953-18.273 44.881-14.198 45.169-14.126.277.065.563-.065.653-.297.087-.23-.056-.479-.323-.565z"
		fill="#a9a9a9" />
	<path
		d="M187.208 235.251c-1.101-2.067-4.245-4.04-4.735-3.981-14.396 1.716-27.789-19.247-27.789-19.247l.312-10.897c-2.181-.623-3.425.934-3.425.934-3.736 4.359-4.047 17.746-4.047 17.746 1.867 8.406 16.5 17.435 16.5 17.435 9.43 5.819 17.568 4.914 22.161 3.534 2.534-.762 2.123-3.457 1.023-5.524z"
		fill="#282828" />
	<path d="M153.517 213.501s3.035 16.812 21.715 18.212c0 .001-11.908-3.501-21.715-18.212z" fill="#a9a9a9" />
	<path
		d="M215.251 211.364a5.45 5.45 0 00-7.677-.676l-22.187 18.603a5.447 5.447 0 00-.673 7.675 5.445 5.445 0 007.674.674l22.188-18.602a5.448 5.448 0 00.675-7.674z"
		fill="#1e1e1e" />
	<path
		d="M209.68 212.157c-.416-.496-2.32.416-4.25 2.036l-18.596 15.59c-1.932 1.622-3.16 3.334-2.744 3.83.412.497 2.317-.415 4.251-2.036l18.594-15.589c1.932-1.62 3.161-3.336 2.745-3.831z"
		fill="#a9a9a9" />
	<path
		d="M187.603 274.333c-1.084-2.039-4.187-3.985-4.67-3.928-14.203 1.693-27.414-18.986-27.414-18.986l.307-10.749c-2.148-.615-3.376.921-3.376.921-3.685 4.299-3.993 17.504-3.993 17.504 1.842 8.293 16.275 17.199 16.275 17.199 9.303 5.74 17.331 4.847 21.863 3.486 2.499-.748 2.094-3.408 1.008-5.447z"
		fill="#282828" />
	<path d="M154.371 252.878s2.992 16.585 21.42 17.966c0 .001-11.746-3.454-21.42-17.966z" fill="#a9a9a9" />
	<path
		d="M215.269 250.769a5.378 5.378 0 00-7.574-.667l-21.887 18.352a5.372 5.372 0 00-.664 7.571 5.372 5.372 0 007.57.665l21.887-18.35a5.375 5.375 0 00.668-7.571z"
		fill="#1e1e1e" />
	<path
		d="M209.773 251.552c-.411-.489-2.289.411-4.193 2.009l-18.345 15.379c-1.904 1.599-3.116 3.289-2.705 3.778.407.49 2.285-.41 4.191-2.008l18.343-15.378c1.907-1.599 3.119-3.291 2.709-3.78z"
		fill="#a9a9a9" />
	<path
		d="M188.885 310.578c-1.037-1.949-4.002-3.809-4.465-3.754-13.573 1.618-26.2-18.146-26.2-18.146l.294-10.273a3.085 3.085 0 00-3.227.88c-3.523 4.11-3.816 16.73-3.816 16.73 1.76 7.926 15.555 16.438 15.555 16.438 8.893 5.487 16.563 4.633 20.895 3.332 2.387-.718 2.001-3.259.964-5.207z"
		fill="#282828" />
	<path d="M157.121 290.073s2.861 15.849 20.473 17.17c0 0-11.227-3.302-20.473-17.17z" fill="#a9a9a9" />
	<path
		d="M215.324 288.057a5.138 5.138 0 00-7.238-.638l-20.918 17.54a5.136 5.136 0 006.601 7.871l20.918-17.538a5.138 5.138 0 00.637-7.235z"
		fill="#1e1e1e" />
	<path
		d="M210.07 288.804c-.391-.468-2.188.393-4.006 1.92l-17.532 14.699c-1.823 1.528-2.979 3.143-2.587 3.611.389.467 2.184-.391 4.008-1.92l17.531-14.697c1.821-1.528 2.981-3.145 2.586-3.613z"
		fill="#a9a9a9" />
	<path
		d="M206.991 343.994c-1.462-1.398-4.571-2.165-4.96-1.984-11.338 5.305-27.992-8.258-27.992-8.258l-2.692-9.018c-1.958.08-2.556 1.691-2.556 1.691-1.885 4.586 1.483 15.645 1.483 15.645 3.808 6.387 18.249 9.83 18.249 9.83 9.307 2.217 15.731-.726 19.123-3.102 1.873-1.309.808-3.409-.655-4.804z"
		fill="#282828" />
	<path d="M173.482 335.279s7.038 12.961 22.731 9.056c.001 0-10.707.351-22.731-9.056z" fill="#a9a9a9" />
	<path
		d="M223.517 316.819a4.707 4.707 0 00-6.479 1.522l-13.154 21.258a4.706 4.706 0 001.526 6.474 4.7 4.7 0 006.474-1.523l13.156-21.256a4.7 4.7 0 00-1.523-6.475z"
		fill="#1e1e1e" />
	<path
		d="M219.166 318.977c-.475-.295-1.791.969-2.932 2.818l-11.027 17.816c-1.149 1.853-1.689 3.589-1.215 3.884.473.295 1.786-.968 2.934-2.82l11.027-17.814c1.143-1.851 1.688-3.592 1.213-3.884z"
		fill="#a9a9a9" />
	<path
		d="M268.014 184.537c-.069-.099-6.133-11.279-4.371-27.574a1.867 1.867 0 00-3.624-.804c-.038.111-3.909 11.111-12.242 11.111h-2.306c-8.333 0-12.204-11-12.242-11.111a1.867 1.867 0 00-3.625.804c1.763 16.294-4.301 27.475-4.371 27.574a1.87 1.87 0 001.531 2.939c.139 0 .277-.016.416-.048l18.707-5.729c.283-.065 1.191-.065 1.474 0l18.707 5.729a1.872 1.872 0 001.967-.779 1.87 1.87 0 00-.021-2.112z"
		fill="#1e1e1e" />
	<path
		d="M278.791 208.435c-5.91-24.532-18.088-35.328-32.153-35.328-13.759 0-25.712 10.331-31.757 33.743-2.682 10.383 66.344 11.692 63.91 1.585z"
		fill="#565655" />
	<path
		d="M279.386 211.053c-5.657-26.383-59.839-26.383-65.495 0-2.062 9.615-3.211 21.196-3.211 34.904 0 51.324 16.097 113.011 35.958 113.011 19.86 0 35.958-61.687 35.958-113.011 0-13.708-1.149-25.289-3.21-34.904z"
		fill="#1e1e1e" />
	<path
		d="M246.334 191.267c-14.857.089-29.635 6.684-32.443 19.786-2.062 9.615-3.211 21.196-3.211 34.904 0 51.324 16.097 113.011 35.958 113.011l-.304-167.701z"
		fill="#0f0f0f" />
	<g fill="#d3d3d3">
		<path
			d="M276.209 242.411a.283.283 0 00-.295-.144l-.016.003c-3.545.597-7.145.597-10.657.417-1.761-.117-3.51-.226-5.245-.477-1.74-.223-3.435-.775-5.145-1.02a2.709 2.709 0 00-1.869.414l-.088.057c-1.408.921-2.663 2.074-3.842 3.341-.58.65-1.148 1.311-1.666 2.054-.455.627-2.039.627-2.492 0-.519-.743-1.088-1.404-1.668-2.054-1.178-1.268-2.434-2.42-3.842-3.341l-.088-.057a2.708 2.708 0 00-1.869-.414c-1.709.245-3.404.797-5.145 1.02-1.734.251-3.484.359-5.244.477-3.514.18-7.113.18-10.656-.417l-.018-.003a.28.28 0 00-.293.144.28.28 0 00.113.383c1.65.898 3.402 1.515 5.186 2.07 1.782.562 3.61.979 5.46 1.294 1.85.328 3.722.486 5.601.614 1.521.084 3.068.274 4.604.256a22.598 22.598 0 003.674 1.752c.821.284 1.652.558 2.535.749.875.207 1.783.362 2.771.398a.348.348 0 00.125-.025.338.338 0 00.123.025 14.176 14.176 0 002.771-.398c.883-.191 1.715-.464 2.535-.749a22.598 22.598 0 003.674-1.752c1.536.019 3.083-.171 4.604-.256 1.879-.128 3.751-.287 5.601-.614a40.99 40.99 0 005.459-1.294c1.785-.555 3.536-1.172 5.187-2.07a.281.281 0 00.115-.383zM273.722 273.492a.26.26 0 00-.271-.132l-.014.003c-3.253.548-6.553.548-9.776.382-1.614-.107-3.22-.208-4.81-.438-1.597-.204-3.151-.711-4.72-.935a2.484 2.484 0 00-1.715.378l-.081.053c-1.291.845-2.443 1.902-3.523 3.065-.533.597-1.055 1.202-1.529 1.884-.418.575-1.869.575-2.287 0-.475-.682-.996-1.287-1.529-1.884-1.079-1.163-2.232-2.22-3.523-3.065l-.08-.053a2.48 2.48 0 00-1.715-.378c-1.567.224-3.123.731-4.717.935-1.594.23-3.197.33-4.813.438-3.222.166-6.523.166-9.773-.382l-.018-.003a.257.257 0 00-.268.132.257.257 0 00.102.351c1.514.824 3.121 1.391 4.758 1.899 1.635.515 3.313.897 5.009 1.187 1.696.301 3.413.446 5.138.563 1.395.078 2.813.252 4.223.234a20.662 20.662 0 003.369 1.608c.754.26 1.518.511 2.326.686.803.19 1.636.333 2.543.366a.39.39 0 00.113-.022.317.317 0 00.114.022c.905-.034 1.74-.176 2.541-.366.81-.175 1.573-.426 2.326-.686 1.188-.439 2.31-.98 3.369-1.608 1.41.018 2.829-.156 4.224-.234 1.723-.117 3.439-.263 5.136-.563a37.58 37.58 0 005.01-1.187c1.636-.509 3.243-1.075 4.757-1.899a.258.258 0 00.104-.351zM268.746 304.521a.217.217 0 00-.222-.109l-.013.003c-2.665.449-5.37.449-8.012.314-1.322-.089-2.64-.171-3.942-.359-1.308-.167-2.583-.582-3.866-.767a2.043 2.043 0 00-1.408.311l-.064.043c-1.059.693-2.003 1.559-2.889 2.512-.438.488-.864.985-1.252 1.544-.344.47-1.533.47-1.876 0a15.814 15.814 0 00-1.253-1.544c-.885-.953-1.83-1.819-2.888-2.512l-.065-.043a2.046 2.046 0 00-1.406-.311c-1.285.185-2.56.599-3.865.767-1.305.188-2.621.271-3.945.359-2.639.135-5.346.135-8.01-.314l-.014-.003a.213.213 0 00-.22.109.209.209 0 00.085.288c1.24.674 2.557 1.139 3.897 1.557 1.341.422 2.716.735 4.106.972 1.391.246 2.797.366 4.211.461 1.141.064 2.305.208 3.459.193.869.514 1.789.958 2.763 1.317.616.214 1.242.419 1.906.562a10.57 10.57 0 002.083.3.254.254 0 00.094-.019c.03.011.06.02.094.019a10.57 10.57 0 002.082-.3c.664-.143 1.289-.348 1.906-.562.975-.36 1.894-.804 2.762-1.317 1.154.014 2.318-.129 3.461-.193 1.413-.095 2.819-.215 4.21-.461a30.982 30.982 0 004.106-.972c1.34-.417 2.657-.882 3.898-1.557a.21.21 0 00.087-.288zM262.215 333.533a.149.149 0 00-.157-.077l-.009.002c-1.895.319-3.818.319-5.697.222-.939-.063-1.877-.121-2.804-.255-.931-.119-1.837-.415-2.749-.545a1.45 1.45 0 00-1.001.221l-.046.031c-.754.492-1.425 1.108-2.054 1.786-.312.348-.615.701-.893 1.098-.242.335-1.089.335-1.331 0-.277-.397-.58-.75-.893-1.098-.629-.677-1.301-1.294-2.054-1.786l-.046-.031a1.457 1.457 0 00-1-.221c-.914.13-1.82.426-2.75.545-.927.134-1.861.192-2.805.255-1.877.097-3.801.097-5.695-.222l-.01-.002a.145.145 0 00-.155.077.147.147 0 00.058.204c.883.479 1.819.811 2.773 1.107.953.3 1.932.523 2.92.691.987.175 1.988.26 2.994.329.812.045 1.641.146 2.461.137.617.366 1.271.681 1.965.937.438.152.883.298 1.355.4.467.11.951.193 1.48.214a.19.19 0 00.066-.014.177.177 0 00.066.014 7.724 7.724 0 001.481-.214c.471-.102.916-.248 1.354-.4a11.953 11.953 0 001.965-.937c.821.01 1.649-.092 2.461-.137 1.005-.068 2.007-.153 2.995-.329a21.909 21.909 0 002.918-.691c.955-.297 1.891-.628 2.773-1.107a.147.147 0 00.064-.204z" />
	</g>
	<path
		d="M266.766 367.803c-8.21-11.165-19.664-16.688-25.582-12.336-5.914 4.353-4.048 16.931 4.166 28.096 8.215 11.162 19.669 16.686 25.585 12.332 5.913-4.352 4.049-16.93-4.169-28.092z"
		fill="#1e1e1e" />
	<path
		d="M263.92 369.897c-6.028-8.197-14.438-12.253-18.783-9.057-4.342 3.196 17.5 32.879 21.843 29.682 4.342-3.195 2.973-12.43-3.06-20.625z"
		fill="#cfcfcf" />
	<path
		d="M297.963 392.621c-11.547-7.663-24.201-8.913-28.262-2.792-4.059 6.12 2.016 17.29 13.566 24.953 11.551 7.659 24.205 8.91 28.264 2.788 4.059-6.119-2.014-17.29-13.568-24.949z"
		fill="#1e1e1e" />
	<path
		d="M296.012 395.566c-8.479-5.626-17.77-6.544-20.752-2.051-2.979 4.494 27.732 24.864 30.711 20.369 2.981-4.493-1.479-12.695-9.959-18.318z"
		fill="#cfcfcf" />
	<path
		d="M333.582 396.01c-13.857-.008-25.097 5.941-25.101 13.287-.002 7.344 11.233 13.298 25.093 13.304 13.861.003 25.1-5.946 25.102-13.291.002-7.343-11.233-13.3-25.094-13.3z"
		fill="#1e1e1e" />
	<path
		d="M333.582 399.543c-10.176-.005-18.428 4.362-18.432 9.755 0 5.392 36.854 5.403 36.854.011.002-5.393-8.246-9.765-18.422-9.766z"
		fill="#cfcfcf" />
	<path
		d="M393.463 377.174c-4.3-5.952-16.894-4.201-28.129 3.917-11.236 8.111-16.861 19.516-12.563 25.471 4.299 5.955 16.893 4.199 28.13-3.914 11.236-8.114 16.861-19.52 12.562-25.474z"
		fill="#1e1e1e" />
	<path
		d="M388.057 381.081c-3.158-4.371-12.404-3.084-20.652 2.874-8.251 5.956-12.383 14.329-9.227 18.703 3.157 4.37 33.036-17.205 29.879-21.577z"
		fill="#cfcfcf" />
	<path
		d="M402.455 354.922c-3.425-25.218-23.037-24.284-23.037-24.284 3.424-16.188 17.746-23.35 17.746-23.35-17.746-.934-26.463 21.792-26.463 21.792-11.209 30.51 9.029 47.011 9.029 47.011l13.697 3.736c11.831-7.781 9.028-24.905 9.028-24.905z"
		fill="#1e1e1e" />
	<path d="M382.842 335.931s18.057 11.52 10.274 35.492c0 0 19.924-22.416-10.274-35.492z" fill="#cfcfcf" />
</svg>