<svg height="64" width="64" xmlns="http://www.w3.org/2000/svg" viewBox="0 0 496.162 496.162">
	<path
		d="M248.086.006C111.07.006 0 111.06 0 248.09c0 136.996 111.07 248.066 248.086 248.066 137.004 0 248.076-111.07 248.076-248.066C496.162 111.06 385.09.006 248.086.006z"
		fill="#f2b12f" />
	<path
		d="M141.92 238.174l-41.17-28.047-44.369.176 23.01 31.682-22.773 31.609 44.371-.166 40.945-28.324a4.905 4.905 0 00-.014-6.93z"
		fill="#b21212" />
	<path
		d="M165.709 239.199l-32.539-22.156-35.074.123 18.195 25.039-18.004 25.002 35.064-.137 32.375-22.387a3.881 3.881 0 00-.017-5.484z"
		fill="#c11616" />
	<path fill="#5e3838" d="M53.914 240.553L265.641 65.09l-2.498-3.016L47.908 240.447l215.836 192.141 2.606-2.92z" />
	<path
		d="M449.997 237.152c-6.541-6.729-13.084-13.458-19.617-20.186-3.436-3.533-7.62-3.776-11.055-2.208-3.646 1.18-6.588 4.246-6.656 9.224-.049 3.181-.092 6.351-.14 9.527l-375.65-2.124c-1.482 1.114-2.779 2.372-3.698 3.861-3.111 5.056-1.484 10.717 3.478 14.532 0 0 373.243 4.492 375.576 4.526-.041 3.162-.093 6.324-.138 9.488-.128 9.089 11.048 13.943 17.582 7.597 6.728-6.54 13.461-13.08 20.189-19.621 4.053-3.934 4.034-10.594.129-14.616z"
		fill="#7e6060" />
	<path
		d="M31.626 241.379c.252 3.114 2.033 6.094 5.032 8.401 0 0 373.243 4.492 375.576 4.526-.041 3.162-.093 6.324-.138 9.488-.128 9.089 11.048 13.943 17.582 7.597 6.728-6.54 13.461-13.08 20.189-19.621 2.026-1.968 3.035-4.617 3.049-7.276l-421.29-3.115z"
		fill="#605151" />
	<g fill="#5e3838">
		<path
			d="M349.34 185.185c-2.037-5.111-4.385-10.139-7.301-15.092a73.991 73.991 0 00-2.34-3.734l-1.332-1.912-1.316-1.723a141.413 141.413 0 00-5.107-6.318c-3.566-4.156-7.482-8.203-11.869-11.912-4.359-3.719-9.234-7.039-14.109-9.764-9.906-5.455-18.494-8.852-26.07-13.67a115.54 115.54 0 01-11.078-7.82 137.408 137.408 0 01-5.285-4.436l-2.605-2.352a71.367 71.367 0 01-2.346-2.232c-3.012-2.998-5.598-6.16-7.449-9.303-2.072-3.137-2.111-6.404-3.123-9.004-.947-2.723-1.154-5.809-.234-9.252a23.628 23.628 0 012.064-5.225c.838-1.666 2.279-3.588 3.113-4.742l-.834.514c2.313-1.836 4.693-3.543 7.076-4.828 2.357-1.301 4.766-2.135 6.414-2.02.822.055 1.635.299 2.445 1.109.803.779 1.457 2.027 1.926 3.404.914 2.801 1.229 6.066 1.166 9.318 1.4-2.977 2.432-6.174 2.668-9.754.092-1.791-.002-3.727-.764-5.746-.717-2.012-2.363-4.094-4.52-5.248-4.4-2.318-8.73-1.928-12.436-1.477-3.762.551-7.221 1.545-10.586 2.66l-.838.523a43.162 43.162 0 00-4.068 2.707 44.676 44.676 0 00-3.529 2.945c-2.266 2.096-4.373 4.475-6.205 7.207-3.666 5.408-6.1 12.424-6.264 19.668-.285 7.377 3.291 13.695 6.26 19.129 3.223 5.453 7.076 10.01 11.121 14.053 1.004 1.018 2.059 1.996 3.064 2.93l2.955 2.656a163.466 163.466 0 006.176 5.178 137.793 137.793 0 0013.359 9.426c9.316 5.861 19.354 9.924 26.889 14.152 7.588 4.195 13.758 9.604 19.674 16.502a118.889 118.889 0 014.301 5.318l.959 1.24.807 1.162a58.533 58.533 0 011.625 2.6c2.146 3.641 4.051 7.676 5.703 11.828 6.604 16.725 9.295 35.576 9.359 54.289-.064 18.707-2.756 37.555-9.359 54.289-1.652 4.154-3.557 8.176-5.703 11.82a56.072 56.072 0 01-1.625 2.607l-.807 1.154-.932 1.201-2.158 2.748-2.17 2.607c-5.916 6.908-12.086 12.311-19.674 16.51-7.535 4.223-17.572 8.293-26.889 14.154-9.385 5.822-17.701 12.563-25.49 20.119-4.17 4.164-7.941 8.639-11.186 14.115-2.938 5.441-6.561 11.773-6.105 19.143.188 7.213 2.641 14.193 6.313 19.555a41.096 41.096 0 006.15 7.186c2.342 2.15 4.428 3.801 7.545 5.652l.814.496c3.354 1.129 6.807 2.129 10.551 2.686 3.689.453 7.998.844 12.35-1.445 2.143-1.145 3.762-3.205 4.484-5.193.764-2.006.871-3.926.787-5.709-.221-3.574-1.232-6.768-2.607-9.746.086 3.246-.203 6.512-1.105 9.318-.457 1.387-1.107 2.645-1.908 3.449-.805.828-1.639 1.088-2.48 1.156-1.691.139-4.123-.697-6.496-1.982-2.393-1.287-4.789-2.99-7.111-4.818l.818.504c-.855-1.18-2.313-3.084-3.172-4.75a23.877 23.877 0 01-2.117-5.246c-.92-3.492-.697-6.619.283-9.365 1.18-2.609 1.168-5.859 3.275-8.988 1.826-3.125 4.496-6.375 7.385-9.244 6.516-6.334 13.797-12.225 21.379-16.898 7.576-4.828 16.164-8.227 26.07-13.672 4.875-2.725 9.75-6.051 14.109-9.771 4.387-3.709 8.303-7.756 11.869-11.904l2.611-3.143 2.465-3.139 1.348-1.758 1.332-1.914a82.83 82.83 0 002.34-3.734c2.916-4.953 5.264-9.982 7.301-15.094 8.031-20.48 10.918-41.854 11.02-62.955-.103-21.105-2.99-42.48-11.021-62.955z" />
		<path
			d="M263.738 52.803c-6.488 0-11.754 5.264-11.754 11.75 0 6.488 5.266 11.752 11.754 11.752s11.752-5.264 11.752-11.752c0-6.487-5.263-11.75-11.752-11.75z" />
	</g>
	<path d="M263.738 58.678a5.879 5.879 0 00-5.877 5.875 5.875 5.875 0 105.877-5.875z" fill="#7e6060" />
	<path
		d="M265.693 419.375c-6.486 0-11.75 5.266-11.75 11.752 0 6.488 5.264 11.752 11.75 11.752 6.49 0 11.754-5.264 11.754-11.752 0-6.486-5.263-11.752-11.754-11.752z"
		fill="#5e3838" />
	<path
		d="M265.693 424.92a5.88 5.88 0 00-5.873 5.879 5.88 5.88 0 005.873 5.875 5.88 5.88 0 005.879-5.875 5.88 5.88 0 00-5.879-5.879z"
		fill="#7e6060" />
</svg>