<svg height="800" width="800" xmlns="http://www.w3.org/2000/svg" viewBox="0 0 496.159 496.159">
	<path
		d="M248.083.003C111.071.003 0 111.063 0 248.085c0 137.001 111.07 248.07 248.083 248.07 137.006 0 248.076-111.069 248.076-248.07C496.159 111.062 385.089.003 248.083.003z"
		fill="#af8d4a" />
	<path
		d="M167.373 199.371c-15.639 5.093-30.906.336-40.461-6.388-9.556-6.724-20.828-23.321-18.077-47.33 4.961-43.284 47.094-43.202 47.094-43.202-13.176-11.316-31.91-8.684-39.008-6.011-41.625 15.681-50.474 61.879-50.474 61.879-9.358 77.235 95.644 85.017 95.644 85.017 55.194-2.04 60.517-62.722 60.517-62.722-24.159 1.688-55.235 18.757-55.235 18.757z"
		fill="#eae7d0" />
	<path
		d="M167.373 199.371C96.288 209.421 66.448 158.32 66.448 158.32c-9.358 77.235 95.644 85.017 95.644 85.017 55.194-2.04 60.517-62.722 60.517-62.722-24.16 1.687-55.236 18.756-55.236 18.756z"
		fill="#ddd9bf" />
	<path
		d="M428.251 158.32s-8.849-46.198-50.474-61.879c-7.098-2.673-25.832-5.305-39.008 6.011 0 0 42.133-.082 47.094 43.202 2.752 24.009-8.521 40.606-18.076 47.33s-24.822 11.48-40.461 6.388c0 0-31.076-17.069-55.235-18.756 0 0 5.323 60.682 60.517 62.722-.001-.001 105.001-7.783 95.643-85.018z"
		fill="#eae7d0" />
	<path
		d="M428.251 158.32s-29.84 51.101-100.925 41.051c0 0-31.076-17.069-55.235-18.756 0 0 5.323 60.682 60.517 62.722-.001 0 105.001-7.782 95.643-85.017z"
		fill="#ddd9bf" />
	<path
		d="M367.007 244.183c-23.533-3.177-46.177 11.646-46.177 19.002 0 7.355 8.18 23.02 39.815 28.133 23.533 3.177 46.178-20.778 46.178-28.133 0-7.356-16.283-15.827-39.816-19.002z"
		fill="#4c4a48" />
	<path
		d="M360.958 253.385c-14.313-1.933-28.085 7.083-28.085 11.557s4.976 14 24.216 17.111c14.313 1.932 28.085-12.638 28.085-17.111s-9.903-9.626-24.216-11.557z"
		fill="#383736" />
	<path
		d="M131.202 244.183c-23.533 3.176-39.816 11.646-39.816 19.002 0 7.355 22.645 31.31 46.178 28.133 31.635-5.113 39.816-20.778 39.816-28.133 0-7.356-22.645-22.179-46.178-19.002z"
		fill="#4c4a48" />
	<path
		d="M137.251 253.385c-14.313 1.932-24.216 7.083-24.216 11.557s13.772 19.042 28.085 17.111c19.24-3.11 24.216-12.638 24.216-17.111s-13.772-13.49-28.085-11.557z"
		fill="#383736" />
	<path
		d="M333.445 256.518s10.828-22.088 4.332-32.483c0 0-7.796-6.063-19.49-7.796 0 0-39.702-22.497-69.281-22.497-29.579 0-69.28 22.497-69.28 22.497-11.693 1.733-19.49 7.796-19.49 7.796-6.496 10.395 4.332 32.483 4.332 32.483 2.165 8.662-2.166 26.853-2.166 26.853-4.764 31.617 34.648 107.411 34.648 107.411 3.464 6.063 18.181 48.385 51.955 48.385s48.492-42.321 51.956-48.385c0 0 39.414-75.794 34.649-107.411 0 0-4.33-18.191-2.165-26.853z"
		fill="#3f3d3d" />
	<path
		d="M318.286 216.239s-39.702-22.497-69.281-22.497-69.28 22.497-69.28 22.497c-6.338 0 18.768 54.717 18.768 54.717l12.561 89.764c3.464 6.063 4.177 78.447 37.951 78.447s35.918-74.384 39.382-80.447l11.132-87.764s23.368-54.717 18.767-54.717z"
		fill="#514f4d" />
	<path
		d="M179.725 216.239c-5.588 0 18.768 54.717 18.768 54.717l12.561 89.764c3.464 6.063 4.177 78.447 37.951 78.447V193.742c-29.579 0-69.28 22.497-69.28 22.497z"
		fill="#444341" />
	<path
		d="M247.76 356.407c-54.905 0-55.357 22.006-55.357 22.006 1.641 12.993 2.818 27.338 4.647 32.916 1.829 5.578 17.04 29.55 51.955 29.55 34.916 0 49.02-22 51.956-29.55 2.937-7.549 3.007-19.923 4.648-32.916 0 0-2.944-22.006-57.849-22.006z"
		fill="#383736" />
	<g fill="#161616">
		<path
			d="M216.35 381.192c-14.065 45.506 26.477 33.923 26.477 33.923-17.123-5.627-26.477-33.923-26.477-33.923zM284.665 381.192s-9.354 28.296-26.477 33.923c.001 0 40.543 11.583 26.477-33.923z" />
	</g>
	<g fill="#282727">
		<path
			d="M183.768 234.863l-25.121-.867s-1.733 1.877-.29 10.973c1.444 9.096 6.209 11.549 6.209 11.549l33.926 14.438 2.021-3.466-16.745-32.627zM339.364 233.996l-25.121.867-16.747 32.627 2.022 3.466 33.926-14.438s4.764-2.454 6.208-11.549c1.445-9.096-.288-10.973-.288-10.973z" />
	</g>
	<path d="M339.364 233.996l-.048.002c.465 1.432.77 2.974.909 4.582-.018-3.656-.861-4.584-.861-4.584z"
		fill="#494949" />
	<path
		d="M316.381 197.175c-8.732-9.666-35.981-18.272-67.847-18.272-29.389 0-55.285 4.57-66.128 15.725-3.477 3.577-5.406 23.848-5.406 23.848 0 12.046 142.308 12.046 142.308 0 0-.001-1.024-19.194-2.927-21.301z"
		fill="#383736" />
	<path
		d="M248.534 178.903c-29.389 0-55.285 4.57-66.128 15.725-3.477 3.577-5.406 23.848-5.406 23.848 0 6.074 36.18 9.085 72.055 9.034l-.521-48.607z"
		fill="#2d2d2d" />
</svg>