<svg height="64" width="64" xmlns="http://www.w3.org/2000/svg" viewBox="0 0 496.159 496.159">
	<path
		d="M248.083.003C111.071.003 0 111.063 0 248.085c0 137.001 111.07 248.071 248.083 248.071 137.006 0 248.076-111.07 248.076-248.071C496.159 111.063 385.089.003 248.083.003z"
		fill="#af8d4a" />
	<path
		d="M342.669 139.736c3.418-11.72 7-89.333-73.591-85.338-18.652.925-28.766 8.482-32.454 20.284-3.688 11.801-8.719 40.51-9.439 51.77-.85 13.285 1.71 32.496 1.71 32.496s26.141 118.062 35.388 125.577c7.868 6.394 20.162 14.261 41.305 12.786 12.85-.896 24.286-9.628 29.872-22.375 11.802-26.921-5.9-64.169-2.582-81.871 2.583-13.776 4.628-35.626 9.791-53.329z"
		fill="#7c4c1d" />
	<path
		d="M310.011 72.237c-13.267-22.3-45.235-16.854-45.235-16.854-14.163 9.085-11.785 43.387-11.785 43.387.846 15.243 3.269 17.8 3.269 17.8 7.031 23.184 28.889 27.618 31.925 27.365 20.523-1.71 23.213-16.183 24.65-20.532 1.437-4.349 2.257-19.553 2.257-19.553 3.388-18.629-5.081-31.613-5.081-31.613z"
		fill="#ddb17c" />
	<path
		d="M273.935 101.434c-4.457.141-7.944 4.225-7.944 4.225.028.917 3.737 3.857 8.195 3.718 4.456-.141 7.943-4.226 7.943-4.226s-3.737-3.857-8.194-3.717z"
		fill="#666" />
	<path
		d="M273.97 102.534c-4.216.132-7.527 3.663-7.527 3.663.024.79 3.526 3.313 7.743 3.181 4.215-.133 7.526-3.663 7.526-3.663s-3.526-3.315-7.742-3.181z"
		fill="#f7f1ed" />
	<circle cx="274.08" cy="106.04" r="2.825" fill="#5b5b5b" />
	<circle cx="274.08" cy="106.04" r="1.999" fill="#333" />
	<path
		d="M297.969 99.011c-4.395.751-7.286 5.278-7.286 5.278s4.232 3.306 8.627 2.555c4.395-.753 7.44-4.375 7.287-5.28.001-.001-4.233-3.307-8.628-2.553z"
		fill="#666" />
	<path
		d="M298.155 100.094c-4.159.711-6.952 4.664-6.952 4.664s3.949 2.797 8.107 2.086c4.157-.712 7.084-3.885 6.951-4.665.001 0-3.949-2.797-8.106-2.085z"
		fill="#f7f1ed" />
	<circle cx="298.73" cy="103.42" r="2.825" fill="#5b5b5b" />
	<circle cx="298.73" cy="103.42" r="1.999" fill="#333" />
	<path fill="#fff" d="M288.822 127.206l-9.214.987 9.245 1.736 9.226-2.96z" />
	<path
		d="M288.925 128.97c-3.08.204-9.667-.686-9.667-.686s3.656 5.716 9.941 5.299c6.286-.416 9.106-6.563 9.106-6.563s-6.301 1.747-9.38 1.95z"
		fill="#ce8c78" />
	<path
		d="M293.314 124.796c-2.31.153-4.582.918-4.582.918s-2.346-.458-4.654-.305c-2.31.152-4.821 2.875-4.821 2.875s6.021 0 9.612-.239c3.593-.238 9.436-1.024 9.436-1.024s-2.682-2.378-4.991-2.225z"
		fill="#db9a83" />
	<path d="M280.67 127.89l5.752-1.597c-3.959-1.519-5.752 1.597-5.752 1.597z" fill="#e8b1a0" />
	<g fill="#7c4c1d">
		<path
			d="M280.224 94.902s-4.6-.281-6.268-.381c-1.666-.099-4.431.021-6.715.622s-6.852 4.448-6.852 4.448 5.169-2.374 7.212-2.615a28.28 28.28 0 016.372 0c2.163.241 7.212 1.413 7.212 1.413l-.961-3.487zM304.832 92.241c-2.353-.198-5.096.159-6.721.543a6192.37 6192.37 0 00-6.108 1.455l-.347 3.6s4.771-2.023 6.861-2.634a28.306 28.306 0 016.276-1.097c2.054-.114 7.555 1.333 7.555 1.333s-5.162-3.002-7.516-3.2zM201.699 177.333c-17.145 0-39.777-11.659-39.777-11.659-30.176-16.46-56.236-6.172-56.236-6.172-29.49 8.916-40.35 26.567-37.684 44.567s20.538 23.328 20.538 23.328c-5.486-12.344 5.487-21.946 5.487-21.946 21.26-17.831 44.578 0 44.578 0 13.03 8.23 33.604 27.433 33.604 27.433 27.433 21.26 59.666 4.115 59.666 4.115l6.857-66.523c-15.773 9.6-37.033 6.857-37.033 6.857z" />
	</g>
	<path
		d="M237.335 183.069c-20 3.5-39.667 11.667-81.333-11.333-13.485-7.444-43.093-9.375-56-2-38.5 22-18.667 44.333-18.667 44.333 1-20.5 29.208-37.996 51-28.333 51.5 22.833 59.333 35.667 92.333 31s12.667-33.667 12.667-33.667z"
		fill="#875327" />
	<path
		d="M251.699 215.386l-53.658 26.186c-7.316 17.375-21.946 25.146-21.946 25.146-10.059 1.371-24.352-4.859-39.777-5.03-20.575-.228-21.031 17.832-21.031 17.832 0 10.514 13.259 10.973 13.259 10.973-5.943-18.29 13.123-14.01 16.688-11.201 7.544 5.944 16.459 10.744 26.29 13.944 9.83 3.2 39.32-3.657 39.32-3.657 14.631-1.829 50.178-58.409 50.178-58.409l-9.323-15.784z"
		fill="#7c4c1d" />
	<g fill="#ddb17c">
		<path
			d="M381.838 377.819c-34.364-70.078-122.988-66.296-122.988-66.296 21.488-25.604 24.46-80.011 24.46-80.011 10.058 4.573 17.809-2.92 19.546-6.172 8.916-16.687-11.43-37.947-11.43-37.947-5.486-7.317.8-15.317.8-15.317 13.259-21.947-7.747-33.652-14.632-33.834-31.018-.818-33.877 12.439-41.288 34.102-6.356 18.578-30.949 71.056-30.949 71.056-15.545 20.118-43.306 74.033-45.824 81.444-2.297 6.761 15.251 10.734 17.768 5.701 3.278-6.556 8.853-24.05 8.853-24.05l21.946-34.749c4.573-5.486 20.225-23.295 20.225-23.295 4.857-5.55 16.879-23.3 19.193-25.654.736-.749-4.341 12.455-7.222 19.953-8.979 23.374-24.894 42.187-24.894 42.187-26.861 19.889-28.792 42.588-28.792 42.588-1.829 24.689 20.574 39.32 20.574 39.32-10.058 3.658-25.608 2.465-25.608 2.465-9.145-3.658-18.813-6.841-27.365-2.28-8.551 4.561-27.364 11.972-27.364 11.972-21.033 7.315-25.084 22.804-22.992 28.992 2.092 6.189 19.203 2.743 19.203 2.743 7.316 0 78.639-17.375 78.639-17.375 32.919-4.571 124.361 4.572 124.361 4.572 64.926 5.488 55.78-20.115 55.78-20.115z" />
		<path
			d="M168.698 305.994l-1.446 4.439c-2.682 3.549-4.36 5.595-6.453 9.931-2.126 4.407-4.486 12.163-4.486 12.163l3.28 2.376 6.539 3.799 9.165 3.216 6.297-16.006s.683-8.007.754-9.536l2.363-5.66a32.626 32.626 0 00-16.013-4.722z" />
		<path
			d="M174.518 336.996c-1.272-.452-2.95.324-3.456 1.747l-5.817 17.971c-.46 1.292.104 2.673 1.257 3.084 1.157.412 2.465-.304 2.925-1.594l6.479-17.811c.508-1.423-.112-2.943-1.388-3.397zM169.163 334.981c-1.317-.491-3.019.161-3.547 1.576l-7.384 21.204c-.478 1.284.101 2.688 1.293 3.131 1.194.446 2.552-.235 3.03-1.519l8.237-20.991c.528-1.416-.313-2.91-1.629-3.401zM163.807 333.086c-1.26-.488-3.024.118-3.571 1.527l-6.416 17.479c-.544 1.409.034 2.947 1.294 3.434 1.26.487 2.725-.257 3.269-1.666l6.889-17.297c.546-1.41-.206-2.99-1.465-3.477zM158.801 330.617c-1.178-.477-1.984.722-2.55 2.123l-4.235 9.587c-.491 1.215-.06 2.535.962 2.949 1.023.412 2.25-.238 2.741-1.454l4.466-9.716c.565-1.401-.206-3.014-1.384-3.489zM183.489 332.609c-.805-2.691-2.236-8.138-2.236-8.138l-6.774 4.593 3.22 5.294s-.542 5.401.675 9.277c.144.456 1.622 4.229 3.869 2.802.819-.52.306-3.316.592-6.288.296-3.093 1.059-6.166.654-7.54z" />
	</g>
	<path d="M182.745 342.002s-2.134 2.711-.678 4.848c0 .001 1.253.184.678-4.848z" fill="#efe4dc" />
	<path
		d="M154.309 342.148c-.732-.327-1.444-.327-1.854.591-.03.065-.185.347-.209.419-.319.92.069 1.555.75 1.859.698.312 1.469.122 1.921-.755.022-.042.171-.297.19-.339.409-.917-.066-1.447-.798-1.775z"
		fill="#e8c7af" />
	<path
		d="M154.268 342.259c-.709-.303-1.393-.293-1.774.595-.028.064-.344.687-.367.755-.292.889-.338 1.88.542 2.257.881.378 1.622-.386 2.045-1.235.02-.041.331-.637.348-.679.379-.886-.086-1.389-.794-1.693z"
		fill="#f7f3f0" />
	<path
		d="M154.219 342.245c-.71-.304-1.394-.293-1.774.595-.028.064-.14.34-.163.409-.292.89.09 1.493.748 1.775.676.29 1.415.096 1.838-.754.02-.04.126-.29.144-.331.38-.888-.085-1.391-.793-1.694z"
		fill="#efe4dc" />
	<path
		d="M156.622 351.661c-.904-.372-1.771-.345-2.235.788-.034.081-.213.431-.24.519-.354 1.131.144 1.89.98 2.235.862.354 1.794.094 2.313-.989.025-.053.197-.368.219-.42.465-1.133-.134-1.762-1.037-2.133z"
		fill="#e8c7af" />
	<path
		d="M156.576 351.797c-.874-.343-1.707-.306-2.138.79-.031.079-.393.849-.418.933-.323 1.093-.343 2.302.742 2.728 1.085.427 1.96-.529 2.444-1.578.023-.051.378-.789.398-.839.43-1.095-.155-1.689-1.028-2.034z"
		fill="#f7f3f0" />
	<path
		d="M156.516 351.781c-.875-.344-1.708-.306-2.138.789-.031.08-.158.419-.183.504-.323 1.092.165 1.815.975 2.133.834.329 1.727.065 2.209-.984.023-.051.144-.359.162-.409.432-1.094-.152-1.69-1.025-2.033z"
		fill="#efe4dc" />
	<path
		d="M160.956 356.976c-.925-.311-1.789-.228-2.178.933-.028.084-.184.445-.205.535-.278 1.151.269 1.876 1.128 2.164.884.298 1.795-.024 2.242-1.14.021-.053.171-.38.189-.433.39-1.163-.25-1.748-1.176-2.059z"
		fill="#e8c7af" />
	<path
		d="M160.92 357.116c-.896-.285-1.723-.193-2.081.93-.025.081-.336.874-.355.959-.251 1.111-.189 2.318.922 2.671 1.111.354 1.92-.659 2.332-1.738.02-.052.326-.811.342-.862.358-1.122-.266-1.677-1.16-1.96z"
		fill="#f7f3f0" />
	<path
		d="M160.858 357.102c-.895-.284-1.724-.19-2.081.931-.025.081-.128.429-.148.515-.25 1.112.285 1.8 1.116 2.064.854.271 1.727-.05 2.139-1.129.02-.052.118-.368.135-.419.357-1.123-.266-1.677-1.161-1.962z"
		fill="#efe4dc" />
	<path
		d="M167.834 355.969c-.926-.311-1.789-.228-2.178.934-.027.083-.183.444-.205.534-.278 1.151.268 1.876 1.127 2.164.884.296 1.797-.025 2.242-1.14.021-.056.171-.381.189-.435.391-1.162-.247-1.747-1.175-2.057z"
		fill="#e8c7af" />
	<path
		d="M167.798 356.107c-.895-.284-1.724-.192-2.081.93-.026.081-.337.874-.355.96-.25 1.111-.189 2.319.922 2.671 1.111.354 1.92-.658 2.333-1.737.019-.052.325-.811.342-.863.356-1.121-.266-1.676-1.161-1.961z"
		fill="#f7f3f0" />
	<path
		d="M167.736 356.095c-.895-.284-1.723-.191-2.08.93-.026.082-.129.429-.149.516-.25 1.111.285 1.8 1.115 2.063.854.272 1.727-.05 2.139-1.13.021-.051.119-.367.135-.417.358-1.123-.265-1.677-1.16-1.962z"
		fill="#efe4dc" />
	<path
		d="M178.362 331.121s-.263 1.745-.589 3.283c-.328 1.549-1.441 4.883-1.441 4.883s1.493-3.539 1.803-4.785c.313-1.259.659-3.427.659-3.427l-.432.046z"
		fill="#c69661" />
	<g fill="#cca172">
		<path
			d="M241.817 357.149c-10.262 5.701-34.632 9.697-34.632 9.697 17.831 4.915 38.995-7.106 45.264-9.602 30.795-12.257 81.913 5.226 81.913 5.226-31.09-21.031-73.1-16.123-92.545-5.321zM242.848 235.17l11.408-22.415 14.653-28.792c-9.373 3.43-22.861 42.977-26.061 51.207z" />
	</g>
	<path
		d="M295.002 72.736l-12.667-12-14.732-6.338c-24.341 3.688-36.879 35.404-22.005 95.886 4.142 16.839-3.688 51.262-22.127 70.808 0 0 43.356-38.015 41.625-62.43-2.565-36.201-21.761-79.259 29.906-85.926z"
		fill="#875327" />
	<path
		d="M265.889 54.647c14.991 4.283 28.78 15.756 38.113 29.756 17.798 26.697 4.732 69.838.111 78.42-6.885 12.786-20.53 51.754-7.744 82.241 0 0 3.81 13.154-9.958 22.496 0 0-14.629 8.975-21.021.615 0 0 1.967 14.874 25.078 14.874 0 0 28.888-7.376 27.413-33.928-1.191-21.442 3.368-50.583 8.36-71.793 31.761-134.925-60.352-122.681-60.352-122.681z"
		fill="#9b6432" />
	<path d="M278.066 143.697c8.979 4.418 14.395 22.091 14.395 22.091 5.131-21.521-14.395-22.091-14.395-22.091z"
		fill="#e8c59e" />
</svg>