<svg height="800" width="800" xmlns="http://www.w3.org/2000/svg" viewBox="0 0 496.158 496.158">
	<path
		d="M248.082.003C111.07.003 0 111.063 0 248.085c0 137.001 111.07 248.07 248.082 248.07 137.006 0 248.076-111.069 248.076-248.07C496.158 111.062 385.088.003 248.082.003z"
		fill="#af8d4a" />
	<g fill="#ddd9bf">
		<path
			d="M163.342 114.72c-66.5-6.5-119.159 61.667-105.5 61.667 0 0 26.641-24.167 57.5-24.167 49.5 0 79.501 56.5 79.501 56.5s-2.053 14.255 16.666 6.667c0 0 25.767-17.686 27.284-33.874 0-.001-22.979-61.664-75.451-66.793zM333.79 114.72c-52.473 5.129-75.451 66.792-75.451 66.792 1.518 16.188 27.284 33.874 27.284 33.874 18.719 7.588 16.666-6.667 16.666-6.667s30.001-56.5 79.501-56.5c30.859 0 57.5 24.167 57.5 24.167 13.659 0-39-68.166-105.5-61.666z" />
	</g>
	<g fill="#91552c">
		<path
			d="M376.448 168.048c-.264-.528-.768-.848-1.405-.828-38.123 1.622-63.338 41.401-65.413 44.786-4.291 3.646 2.807 28.303 16.702 23.28 26.876-9.714 43.765-22.801 50.196-38.897 6.188-15.485.179-27.823-.08-28.341zM187.069 212.006c-2.075-3.384-27.29-43.164-65.413-44.786-.638-.02-1.142.299-1.405.828-.259.518-6.268 12.855-.08 28.341 6.432 16.096 23.32 29.183 50.196 38.897 13.896 5.023 20.993-19.633 16.702-23.28z" />
	</g>
	<path
		d="M322.771 247.38s9.485-19.35 3.794-28.457c0 0-6.83-5.312-17.074-6.83 0 0-26.488-14.923-46.881-30.733-3.725-2.889-10.014-3.034-13.796-3.035h-.03c-3.782.001-10.071.146-13.796 3.035-20.393 15.81-46.881 30.733-46.881 30.733-10.244 1.518-17.074 6.83-17.074 6.83-5.691 9.106 3.795 28.457 3.795 28.457 1.896 7.588-1.896 23.524-1.896 23.524-4.174 27.698 23.523 65.26 23.523 65.26 1.518 11.382 6.829 28.835 6.829 28.835 3.035 5.312 30.354 32.63 30.354 32.63 6.762 9.016 14.999 6.877 15.161 6.833.164.044 8.4 2.182 15.162-6.833 0 0 27.318-27.318 30.354-32.63 0 0 5.313-17.453 6.83-28.835 0 0 27.697-37.563 23.523-65.26 0 0-3.794-15.936-1.897-23.524z"
		fill="#9b6038" />
	<path
		d="M248.814 178.326h-.03c-3.782.001-10.071.146-13.796 3.035-20.393 15.81-46.881 30.733-46.881 30.733-10.244 1.518-17.074 6.83-17.074 6.83-5.691 9.106 3.795 28.457 3.795 28.457 1.896 7.588-1.896 23.524-1.896 23.524-4.174 27.698 23.523 65.26 23.523 65.26 1.518 11.382 6.829 28.835 6.829 28.835 3.035 5.312 30.354 32.63 30.354 32.63 6.762 9.016 14.999 6.877 15.161 6.833.164.044-.015-226.137.015-226.137z"
		fill="#aa693d" />
	<path
		d="M247.709 304.556c-48.1 0-51.254 31.608-51.254 31.608 1.518 11.382 6.829 28.835 6.829 28.835 3.035 5.312 30.354 32.63 30.354 32.63 6.762 9.016 14.999 6.877 15.161 6.833.164.044 8.4 2.182 15.162-6.833 0 0 27.318-27.318 30.354-32.63 0 0 5.313-17.453 6.83-28.835-.001 0-5.338-31.608-53.436-31.608z"
		fill="#e0c199" />
	<path
		d="M248.784 387.421c-29.595 0-45.5-22.422-45.5-22.422 3.035 5.312 30.354 32.63 30.354 32.63 6.762 9.016 14.999 6.877 15.161 6.833.164.044 8.4 2.182 15.162-6.833 0 0 27.318-27.318 30.354-32.63-.001 0-15.936 22.422-45.531 22.422z"
		fill="#96592f" />
	<g fill="#494949">
		<path
			d="M191.648 228.409l-22.006-.759s-1.518 1.645-.254 9.612c1.266 7.968 5.439 10.118 5.439 10.118l29.721 12.648 1.771-3.036-14.671-28.583zM327.957 227.65l-22.007.759-14.671 28.583 1.771 3.036 29.721-12.648s4.173-2.149 5.438-10.118c1.266-7.968-.252-9.612-.252-9.612zM280.332 332.534c-14.991-7.623-30.615-9.561-31.272-9.639-.089-.012-.172.019-.261.023-.088-.004-.171-.035-.26-.023-.657.078-16.281 2.016-31.271 9.639a1.52 1.52 0 00-.83 1.302 1.521 1.521 0 00.74 1.355l30.764 18.339c.24.143.508.214.777.214.027 0 .054-.009.08-.01.027.001.054.01.082.01.268 0 .537-.071.776-.214l30.765-18.339a1.518 1.518 0 00-.09-2.657z" />
		<path
			d="M327.957 227.65l-.043.002a18.02 18.02 0 01.797 4.014c-.016-3.204-.754-4.016-.754-4.016zM281.348 364.701a1.623 1.623 0 00-2.137-.832c-10.592 4.661-18.443 5.263-23.34 1.787-4.046-2.872-5.281-8.063-5.635-11.596.168-2.229.031-3.815.014-3.993a1.615 1.615 0 00-1.587-1.46l-.015-.002a1.615 1.615 0 00-1.746 1.485c-.015.178-.131 1.778.069 4.022-.304 3.5-1.461 8.609-5.427 11.489-4.874 3.537-12.816 2.954-23.607-1.735a1.617 1.617 0 00-2.132.841 1.619 1.619 0 00.84 2.132c6.544 2.844 12.212 4.267 16.967 4.267 3.904 0 7.191-.959 9.837-2.88 2.561-1.858 4.175-4.37 5.193-6.931 1.057 2.591 2.719 5.132 5.337 6.995 2.639 1.878 5.888 2.817 9.726 2.817 4.726 0 10.344-1.424 16.812-4.27a1.621 1.621 0 00.831-2.136z" />
	</g>
</svg>