<svg height="64" width="64" xmlns="http://www.w3.org/2000/svg" viewBox="0 0 496.158 496.158">
	<path
		d="M248.082.003C111.07.003 0 111.063 0 248.085c0 137.001 111.07 248.07 248.082 248.07 137.006 0 248.076-111.069 248.076-248.07C496.158 111.062 385.088.003 248.082.003z"
		fill="#f9dc5f" />
	<path
		d="M235.765 118.016l-3.109-3.109c-9.275-9.274-36.705 3.118-61.262 27.676-24.559 24.56-36.951 51.987-27.676 61.262l3.109 3.109c9.273 9.274 36.701-3.118 61.26-27.677 24.559-24.558 36.951-51.987 27.678-61.261z"
		fill="#a3947c" />
	<path
		d="M171.393 142.583c-24.559 24.56-36.951 51.987-27.676 61.262l3.109 3.109c9.273 9.274 36.701-3.118 61.26-27.677l-36.693-36.694z"
		fill="#918169" />
	<path fill="#a3947c" d="M246.178 149.262l-68.41 68.412-10.884-10.883 68.411-68.412z" />
	<path fill="#918169" d="M212.655 182.781l-34.889 34.889-10.884-10.885 34.888-34.888z" />
	<path
		d="M412.991 305.866l-38.188-86.822c-34.924-63.343-72.076-80.919-72.076-80.919-19.988-8.62-64.943 9.59-64.943 9.59l-30.794 29.58-.015-.016-.373.388-.387.372.016.016-29.582 30.794s-18.207 44.952-9.588 64.941c0 0 17.578 37.155 80.92 72.075l86.822 38.188s22.146 4.738 52.385-25.044l.011.011c.13-.129.247-.256.372-.384.131-.128.259-.246.387-.375l-.01-.011c29.781-30.237 25.043-52.384 25.043-52.384z"
		fill="#a3947c" />
	<path
		d="M387.948 358.25L206.99 177.294l-.015-.016-.373.388-.387.372.016.016-29.582 30.795s-18.207 44.952-9.588 64.941c0 0 17.578 37.155 80.92 72.075l86.822 38.188s22.146 4.738 52.385-25.044l.011.011c.13-.129.247-.256.372-.384.131-.128.259-.246.387-.375l-.01-.011z"
		fill="#918169" />
	<path
		d="M224.421 123.141c-7.558-7.558-29.908 2.541-49.918 22.552-20.012 20.012-30.109 42.361-22.553 49.918 7.557 7.557 29.906-2.541 49.92-22.552 20.008-20.011 30.107-42.361 22.551-49.918z"
		fill="#414140" />
	<path
		d="M394.7 162.184c-16.23-30.965-51.829-44.304-79.51-29.794-27.682 14.51-36.963 51.375-20.73 82.34 16.23 30.966 51.829 44.305 79.51 29.795 27.683-14.511 36.963-51.375 20.73-82.341zm-29.696 65.235c-19.237 10.084-43.976.814-55.254-20.705-11.278-21.517-4.831-47.135 14.406-57.219 19.235-10.083 43.974-.813 55.254 20.706 11.28 21.517 4.829 47.135-14.406 57.218z"
		fill="#a3947c" />
	<path
		d="M243.349 265.842c-30.966-16.232-67.83-6.951-82.34 20.731-14.51 27.68-1.172 63.279 29.793 79.51 30.966 16.232 67.83 6.951 82.342-20.731 14.508-27.681 1.169-63.279-29.795-79.51zm12.688 70.543c-10.083 19.235-35.7 25.687-57.218 14.406-21.52-11.279-30.788-36.018-20.705-55.253 10.084-19.236 35.701-25.686 57.219-14.406s30.788 36.017 20.704 55.253z"
		fill="#918169" />
	<path
		d="M205.835 169.055s-38.207 3.371-61.805 15.17c0 0-72.666 41.015-59.557 111.809 13.111 70.793 58.621 78.659 69.297 77.536 0 0-23.973-80.907-5.619-124.356 18.272-43.256 57.684-80.159 57.684-80.159z"
		fill="#98cad8" />
	<path
		d="M126.053 210.257c-20.977 16.481-39.058 36.824-35.21 78.659 5.994 65.175 53.938 77.161 53.938 77.161-61.43-60.679-18.728-155.82-18.728-155.82z"
		fill="#c1dfe8" />
</svg>