<svg height="64" width="64" xmlns="http://www.w3.org/2000/svg" viewBox="0 0 496.159 496.159">
	<path
		d="M248.083.003C111.071.003 0 111.063 0 248.085c0 137.001 111.07 248.07 248.083 248.07 137.006 0 248.076-111.069 248.076-248.07C496.159 111.062 385.089.003 248.083.003z"
		fill="#58d1dd" />
	<path
		d="M303.188 423.508l-33.423-17.507a.844.844 0 00-.814.019 40.958 40.958 0 01-20.589 5.56c-.051 0-.095.021-.144.029-.049-.008-.093-.029-.144-.029a40.954 40.954 0 01-20.588-5.56.847.847 0 00-.814-.019l-33.423 17.507a.84.84 0 00-.411 1.003c6.388 19.814 29.102 33.653 55.236 33.653.051 0 .095-.021.144-.028.048.008.093.028.144.028 26.135 0 48.85-13.838 55.236-33.653a.84.84 0 00-.41-1.003z"
		fill="#9b0000" />
	<path
		d="M248.36 411.585c-.028.006-.108.018-.142.024-.049-.008-.093-.029-.144-.029a40.954 40.954 0 01-20.588-5.56.847.847 0 00-.814-.019l-33.423 17.507a.84.84 0 00-.411 1.003c6.388 19.814 29.102 33.653 55.236 33.653.051 0 .095-.021.144-.028.034.005.113.017.142.023-.284-.207-.284-46.366 0-46.574z"
		fill="#aa0404" />
	<g fill="#840303">
		<path
			d="M351.846 201.877c-1.965-2.806-2.806-.562-2.806-.562 5.332 31.431-7.858 47.427-7.858 47.427-8.699 13.19-56.968 23.573-56.968 23.573l-1.123 11.225c71-10.383 73.807-48.549 73.807-48.549 8.137-27.222-5.052-33.114-5.052-33.114z" />
		<path
			d="M378.225 246.497c-.28-5.051-2.245-3.087-2.245-3.087-2.526 36.762-26.66 45.462-26.66 45.462-9.261.561-31.712 5.052-31.712 5.052-14.592-5.894-34.236-6.454-34.236-6.454s-8.139 9.261-.842 10.664c7.297 1.402 36.763 3.929 36.763 3.929 47.988-3.087 51.355-19.364 51.355-19.364 14.312-15.434 7.577-36.202 7.577-36.202zM305.121 181.672l-2.666.14s-12.629-7.577-23.152-7.998c0 0 45.042 26.099 37.043 52.198 0 0-10.524 17.68-36.202 26.52l2.105 9.682s37.885-13.471 41.253-33.676c0-.001 6.875-34.237-18.381-46.866z" />
	</g>
	<path
		d="M358.44 186.443c-7.577 2.104-4.63-9.261-4.63-9.261-8.419 10.103-26.941.421-26.941.421l-16.417 21.047-42.937-1.263 9.682 25.678 27.362 1.263-3.789-4.63 30.308-2.947 27.362-30.308z"
		fill="#9b0000" />
	<path
		d="M360.545 135.368c-49.952 3.368-95.976 31.711-95.976 31.711-8.138 4.491-8.699 21.608-8.699 21.608l10.103 8.7.562-10.665c3.306-22.45 23.853-24.976 23.853-24.976 21.89-12.629 75.209-19.645 75.209-19.645 19.364 0 34.237 22.731 34.237 22.731-4.49-25.816-39.289-29.464-39.289-29.464z"
		fill="#840303" />
	<g fill="#9b0000">
		<path
			d="M274.111 121.898c-21.047 21.048-25.963 64.243-25.963 64.243l3.653 1.003c1.684-38.868 21.889-62.44 21.889-62.44 1.122-2.385.421-2.806.421-2.806z" />
		<path
			d="M353.81 117.687c-9.541-38.167-55.846-71-55.846-71-25.257-15.154-35.64-5.894-35.64-5.894 34.798 29.747 48.83 86.996 48.83 86.996-43.778-56.688-49.953-81.944-49.953-81.944-26.099 47.471 63.563 129.231 63.563 129.231 21.468 10.804 29.327-.421 29.327-.421l4.77 5.893c0-3.929 7.017-14.032 7.017-14.032 0-10.943-12.068-48.829-12.068-48.829zM185.708 198.65l-16.417-21.047s-18.522 9.682-26.941-.421c0 0 2.947 11.366-4.63 9.261l27.362 30.308 30.308 2.947-3.789 4.63 27.362-1.263 9.682-25.678-42.937 1.263z" />
	</g>
	<g fill="#840303">
		<path
			d="M211.946 272.316s-48.269-10.383-56.968-23.573c0 0-13.19-15.997-7.858-47.427 0 0-.841-2.245-2.806.562 0 0-13.189 5.893-5.052 33.115 0 0 2.806 38.166 73.807 48.549l-1.123-11.226z" />
		<path
			d="M212.788 287.47s-19.644.561-34.236 6.454c0 0-22.451-4.491-31.712-5.052 0 0-24.134-8.7-26.66-45.462 0 0-1.964-1.964-2.245 3.087 0 0-6.735 20.767 7.577 36.202 0 0 3.368 16.276 51.355 19.364 0 0 29.466-2.527 36.763-3.929 7.297-1.403-.842-10.664-.842-10.664zM179.814 226.012c-7.998-26.099 37.043-52.198 37.043-52.198-10.523.421-23.152 7.998-23.152 7.998l-2.666-.14c-25.257 12.628-18.381 46.865-18.381 46.865 3.368 20.205 41.253 33.676 41.253 33.676l2.105-9.682c-25.678-8.839-36.202-26.519-36.202-26.519z" />
		<path
			d="M231.591 167.079s-46.024-28.344-95.977-31.711c0 0-34.799 3.648-39.289 29.466 0 0 14.874-22.731 34.237-22.731 0 0 53.32 7.016 75.209 19.645 0 0 20.547 2.526 23.853 24.976l.562 10.665 10.103-8.7c.001-.001-.56-17.119-8.698-21.61z" />
	</g>
	<g fill="#9b0000">
		<path
			d="M222.049 121.898s-.702.421.421 2.806c0 0 20.206 23.572 21.889 62.44l3.653-1.003s-4.915-43.195-25.963-64.243z" />
		<path
			d="M234.958 45.846s-6.174 25.257-49.953 81.944c0 0 14.032-57.249 48.83-86.996 0 0-10.383-9.261-35.64 5.894 0 0-46.305 32.833-55.846 71 0 0-12.068 37.885-12.068 48.83 0 0 7.017 10.103 7.017 14.032l4.77-5.893s7.858 11.225 29.327.421c0-.001 89.663-81.761 63.563-129.232z" />
	</g>
	<path
		d="M248.148 186.141c-18.481 0-42.24 23.033-42.24 94.805 0 101.027 14.742 127.758 42.24 127.758 27.497 0 42.239-26.169 42.239-127.758 0-71.351-23.758-94.805-42.239-94.805z"
		fill="#b50606" />
	<path d="M205.908 280.946c0 101.027 14.742 127.758 42.24 127.758V186.141c-18.482 0-42.24 23.033-42.24 94.805z"
		fill="#cc0e0e" />
	<g fill="#600">
		<ellipse transform="rotate(-169.235 235.663 212.684)" cx="235.663" cy="212.685" rx="4.771" ry="7.437" />
		<ellipse transform="scale(-1) rotate(78.591 259.895 -319.338)" cx="261.323" cy="212.679" rx="7.437"
			ry="4.771" />
	</g>
	<g fill="#840303">
		<path
			d="M248.582 318.117c-25.339 0-40.14-6.498-40.14-6.498s37.611 24.256 79.7 0c0 0-14.222 6.498-39.56 6.498zM248.555 339.992c-22.96 0-36.373-5.888-36.373-5.888s34.082 21.98 72.22 0c0 0-12.886 5.888-35.847 5.888zM248.523 360.908c-20.168 0-31.947-5.171-31.947-5.171s29.935 19.306 63.433 0c0 0-11.319 5.171-31.486 5.171zM248.495 379.643c-17.769 0-28.148-4.556-28.148-4.556s26.376 17.01 55.893 0c-.001 0-9.975 4.556-27.745 4.556z" />
	</g>
	<path d="M252.099 183.076l-4.019.935.171 7.755 3.874-.009c-.061 0-.026-8.681-.026-8.681z" fill="#b50606" />
	<path fill="#cc0e0e" d="M248.126 184.011l-4.052-.935-.026 8.699 4.11.017z" />
</svg>