<svg xmlns="http://www.w3.org/2000/svg" width="10" height="10">
   <path
      d="M0 4.895V0h9.79v9.79H0zm9.525 0V.392H.265v9.006h9.26zM6.767 8.119c-1.342-1.132-1.44-1.696-.44-2.539.447-.377.776-.861.731-1.077-.045-.215-.638-.669-1.318-1.007-1.292-.644-2.13-1.46-.978-.952 1.431.63 2.396 1.364 2.544 1.934.122.469.27.507.686.178.698-.553.322-1.118-1.323-1.982-.685-.36-1.007-.665-.716-.677.724-.03 2.778 1.389 2.778 1.918 0 .236-.356.729-.792 1.096-.435.367-.793.802-.794.967 0 .165.415.594.925.954.51.359.926.801.926.982 0 .412-1.393-.634-1.957-1.469-.417-.616-.954-.48-.954.241 0 .207.417.67.926 1.029.51.36.927.797.927.972 0 .425.018.434-1.17-.568zm-4.372.117c-.237-.217-.25-.385-.042-.574.355-.325.391-1.397.047-1.397-.135 0-.418.256-.63.57-.211.312-.458.459-.548.325-.319-.472-.155-.813.509-1.06.738-.274.643-1.01-.13-1.01-.268 0-.555-.264-.638-.587-.09-.343-.004-.587.204-.587.195 0 .504.264.685.587.458.816.794.733.794-.196 0-.43-.124-.783-.275-.783-.159 0-.13-.23.066-.544.43-.687.698-.108.535 1.157-.148 1.144.451 1.326.65.198.08-.45.285-.671.505-.546.558.317.446 1.23-.169 1.372-.744.173-.782.881-.055 1.034.64.134.779.64.295 1.081-.164.15-.408-.015-.542-.368-.133-.354-.356-.643-.494-.643-.367 0-.308 1.473.066 1.658.21.104.18.234-.09.388-.224.127-.559.093-.743-.075z" />
   <path
      d="M.28 4.873V.397H9.5V9.35H.28zm7.684 3.874c0-.249-.268-.555-.942-1.076-.764-.591-.976-.905-.852-1.26.151-.435.535-.382.885.123.426.615 1.492 1.48 1.824 1.48.35 0 .055-.45-.676-1.03a8.647 8.647 0 01-.803-.711c-.229-.254-.235-.275-.144-.449.053-.1.328-.408.61-.683.563-.549.9-1.014.9-1.242 0-.603-2.734-2.34-2.92-1.856-.053.139.098.255 1.002.772 1.025.588 1.45.987 1.45 1.364 0 .154-.507.628-.672.628-.095 0-.176-.1-.29-.357a2.404 2.404 0 00-.41-.61c-.333-.333-1.128-.848-1.812-1.173-.64-.304-.86-.37-.919-.276-.072.116.58.614 1.41 1.075.867.484 1.332.823 1.394 1.019.058.183-.244.656-.654 1.022-1.1.985-.98 1.494.683 2.881.825.688.936.73.936.36zm-4.698-.494l.188-.162-.185-.194a1.225 1.225 0 01-.25-.422c-.102-.352-.08-.88.04-1.054.101-.143.115-.146.23-.042.068.061.188.25.267.422.08.17.192.363.249.428.256.288.684-.015.684-.483 0-.294-.122-.424-.534-.57-.73-.257-.71-.702.046-1.002.357-.142.488-.345.488-.756 0-.384-.216-.68-.496-.68-.194 0-.308.184-.434.701-.086.356-.235.635-.338.635-.166 0-.222-.328-.21-1.218.009-.555-.014-.972-.058-1.053-.15-.28-.465-.091-.668.398-.078.188-.07.217.086.362.199.185.286.619.217 1.08-.079.525-.265.477-.714-.184-.507-.748-1.102-.758-.963-.016.062.33.332.618.626.668.409.069.48.1.585.26.163.25.012.47-.512.746-.485.255-.637.468-.559.781.106.421.433.4.755-.048.118-.165.302-.362.409-.438l.194-.138.105.15c.185.265.084.868-.204 1.21-.207.246-.2.348.036.585.257.257.645.271.92.034z"
      fill="#b3b3b3" />
</svg>