<svg xmlns="http://www.w3.org/2000/svg" width="10" height="10">
   <path
      d="M0 4.895V0h9.79v9.79H0zm9.525 0V.392H.265v9.006h9.26zM6.097 6.87c-.699-1.068-.985-1.274-1.357-.98-.26.206-.54.374-.625.374-.147 0-1.47-4.166-1.47-4.628 0-.124.4.349.888 1.049.715 1.025 1.025 1.222 1.588 1.013.385-.143.7-.174.7-.07 0 .104.296 1.18.658 2.392.362 1.211.623 2.202.581 2.202-.042 0-.476-.608-.963-1.352z" />
   <path
      d="M.31 4.873V.397h9.154V9.35H.31zm6.746 3.091c-.031-.138-.321-1.19-.645-2.338-.66-2.341-.555-2.171-1.233-1.98-.667.187-.805.095-1.737-1.154-.663-.889-.871-1.07-.81-.709.102.596 1.157 3.993 1.356 4.364.096.18.183.164.602-.103.2-.127.412-.233.47-.233.175-.003.566.442 1.216 1.386l.68.985c.108.154.159.045.1-.218z"
      fill="#b3b3b3" />
</svg>