<svg xmlns="http://www.w3.org/2000/svg" width="10" height="10">
   <path
      d="M4.895 9.79H0V0h9.79v9.79zM.567 9.398c.166 0 1.148-.37 2.183-.822 1.034-.452 2.33-1.192 2.88-1.645.72-.592.949-.993.816-1.43-.101-.333-.168-1.103-.15-1.711.023-.708-.08-1.05-.286-.95-.177.085-.598.89-.937 1.79-.494 1.314-.76 1.635-1.356 1.635-.408 0-.89-.262-1.07-.583-.18-.322-.273-1.12-.209-1.773.072-.723.01-1.135-.159-1.052-.152.075-.66.917-1.128 1.87C.569 5.913.294 6.925.282 7.93c-.01.855.109 1.468.285 1.468zM.384 5.482c.066 0 .31-.592.542-1.316.232-.724.72-1.517 1.084-1.762.363-.245.834-.446 1.045-.446.212 0 .385.06.385.136 0 .074-.187.689-.415 1.365-.228.677-.34 1.408-.249 1.627.091.218.452.396.802.396.393 0 .754-.337.944-.88.168-.485.55-1.278.849-1.763.314-.51.852-.881 1.277-.881.733 0 .734.005.306 1.109-.237.61-.354 1.403-.26 1.762.092.36.262.653.375.653.114 0 .713-.684 1.332-1.52.774-1.048 1.124-1.841 1.124-2.546V.392H.265v2.545c0 1.4.054 2.545.12 2.545z" />
   <path
      d="M3.35 5.41c-.711-.21-.73-.498-.15-2.364.338-1.094.337-1.11-.121-1.112-.146 0-.433.095-.72.239-.367.183-.54.32-.737.585-.325.434-.575.932-.812 1.614-.255.735-.352.97-.4.97-.066 0-.13-1.673-.13-3.386V.396H9.5v.619c-.001.733-.11 1.185-.44 1.827-.4.78-1.788 2.566-1.994 2.566-.048 0-.155-.157-.238-.35-.207-.48-.156-.996.205-2.079.333-.999.321-1.046-.263-1.045-.296 0-.452.044-.728.202-.449.258-.674.567-1.164 1.601-.218.46-.46.965-.537 1.123-.216.44-.613.66-.991.55z"
      fill="#b3b3b3" />
   <path
      d="M.447 9.126C.314 8.809.313 7.447.444 6.832c.118-.553.35-1.239.623-1.838.275-.604.924-1.753 1.116-1.977l.157-.182.037.167c.02.092.045.664.056 1.27.018 1.033.03 1.121.186 1.398.215.382.621.607 1.096.606.632 0 .862-.276 1.44-1.727.328-.827.497-1.172.715-1.463.311-.415.354-.305.429 1.12.032.606.077 1.253.1 1.438.04.31.025.36-.185.634-.598.785-2.284 1.799-4.364 2.626C.55 9.42.57 9.418.447 9.126z"
      fill="#b3b3b3" />
</svg>