<?xml version="1.0" encoding="utf-8"?>
<!-- Generator: Adobe Illustrator 19.0.0, SVG Export Plug-In . SVG Version: 6.00 Build 0)  -->
<svg version="1.1" id="Warstwa_1" xmlns="http://www.w3.org/2000/svg" xmlns:xlink="http://www.w3.org/1999/xlink" x="0px" y="0px"
	 viewBox="-443 245.9 71.1 71.1" style="enable-background:new -443 245.9 71.1 71.1;" xml:space="preserve">
<style type="text/css">
	.st0{fill:#ED3024;}
</style>
<g id="XMLID_2_">
	<g id="XMLID_68_">
		<polygon id="XMLID_75_" class="st0" points="-407.4,254.6 -410.4,264.7 -404.5,264.7 		"/>
		<path id="XMLID_74_" class="st0" d="M-385,253.2h-4.7v16.9h4.7c4,0,5.3-4.4,5.3-8.6C-379.6,253.8-382.9,253.2-385,253.2z"/>
		<path id="XMLID_69_" class="st0" d="M-443,245.9V317h71.1v-71.1H-443z M-420.4,274.5h-4.9l-9.5-18.4h-0.1v18.4h-4.5v-25.8h5.1
			l9.3,18l0,0v-18h4.5v25.8H-420.4z M-401.6,274.5l-1.5-5.3h-8.6l-1.6,5.3h-5.1l8.3-25.8h5.6l8.2,25.8
			C-396.3,274.5-401.6,274.5-401.6,274.5z M-384.3,274.5h-10.1v-25.8h10.3c7.8,0,9.5,7.4,9.5,12.3
			C-374.7,266.5-376.6,274.5-384.3,274.5z"/>
	</g>
</g>
</svg>
