<svg version="1.1" id="prefix__Layer_1" x="0" y="0" height="32" width="32" viewBox="0 0 283.46 283.46" xmlns="http://www.w3.org/2000/svg">
	<style></style>
	<path
		d="M199.7 34.99h-28.01v-8.37a7.16 7.16 0 00-7.16-7.16h-45.59a7.16 7.16 0 00-7.16 7.16v8.37H83.77c-8.45 0-15.31 6.85-15.31 15.31v198.41c0 8.45 6.85 15.31 15.31 15.31H199.7c8.45 0 15.31-6.85 15.31-15.31V50.29c-.01-8.45-6.86-15.3-15.31-15.3z"
		transform="rotate(90 141.735 141.74)" fill="#dee0e1" />
	<path d="M7.964 80.61v106.97c0 8.45 6.85 15.31 15.31 15.31h115.93c8.45 0 15.31-6.85 15.31-15.31V80.61H7.964z"
		transform="rotate(90 81.239 141.75)" fill="#8bc53f" />
	<path fill="#febe10" d="M154.69 70.732l-46.35 76.549 32.06.074-13.36 66.308 50.09-78.596-34.83.127z" />
</svg>