<svg xmlns="http://www.w3.org/2000/svg" height="32" width="32" viewBox="0 0 48 48">
   <path fill="#37474F" d="M45 38H3a2 2 0 01-2-2V12a2 2 0 012-2h42a2 2 0 012 2v24a2 2 0 01-2 2z" />
   <path fill="#FFF" d="M16 35H4V13h12v22zm14-22H18v22h12V13zm14 0H32v22h12V13z" />
   <path fill="#CFD8DC"
      d="M16 17H4v-4h12v4zm14-4H18v4h12v-4zm14 0H32v4h12v-4zM16 33H4v2h12v-2zm14 0H18v2h12v-2zm14 0H32v2h12v-2z" />
   <path fill="none"
      d="M37.995 17.812c.42 0 .757-.231 1.01-.694.019-.035.025-.082.043-.118h-2.093c.014.029.024.066.039.094.254.479.587.718 1.001.718z" />
   <path fill="#546E7A"
      d="M14 25.179c0 1.884-.345 3.325-1.035 4.324-.691.998-1.676 1.497-2.956 1.497-1.267 0-2.246-.485-2.936-1.455S6.025 27.185 6 25.376v-2.574c0-1.878.344-3.314 1.031-4.309S8.704 17 9.991 17s2.273.493 2.96 1.479c.687.986 1.037 2.393 1.05 4.221v2.479zm-2.686-2.767c0-1.077-.107-1.885-.322-2.424-.214-.539-.548-.808-1.002-.808-.851 0-1.292.987-1.324 2.959v3.411c0 1.102.109 1.923.326 2.461.217.539.556.808 1.017.808.435 0 .758-.252.969-.756.211-.504.323-1.276.336-2.316v-3.335zM28 25.179c0 1.884-.345 3.325-1.035 4.324-.691.998-1.676 1.497-2.956 1.497-1.267 0-2.246-.485-2.936-1.455s-1.048-2.36-1.073-4.169v-2.574c0-1.878.344-3.314 1.031-4.309S22.704 17 23.991 17c1.286 0 2.273.493 2.96 1.479.687.986 1.037 2.393 1.05 4.221v2.479zm-2.686-2.767c0-1.077-.107-1.885-.322-2.424-.214-.539-.548-.808-1.002-.808-.851 0-1.292.987-1.324 2.959v3.411c0 1.102.109 1.923.326 2.461.217.539.556.808 1.017.808.435 0 .758-.252.969-.756.211-.504.323-1.276.336-2.316v-3.335zM42 25.554V24h-8v2.24h5.303L36.892 33h2.609L42 25.554zm-2.994-8.436c-.253.462-.59.694-1.01.694-.414 0-.748-.239-1.001-.718-.015-.028-.025-.065-.039-.094h-2.589c.182.563.42 1.074.741 1.507.738.995 1.719 1.493 2.943 1.493.76 0 1.441-.199 2.044-.596s1.071-.956 1.404-1.676c.108-.232.192-.477.264-.728h-2.716c-.016.036-.022.083-.041.118z" />
   <path fill="#455A64"
      d="M36.178 35l.714-2h2.609l-.671 2h-2.652zm.436-20.078v-.963c.111-.315.28-.579.505-.793.078-.074.171-.118.262-.167H34.02c-.006.169-.02.331-.02.503v.986c0 .951.131 1.78.367 2.512h2.589c-.225-.477-.342-1.165-.342-2.078zM41.641 13h-3.144c.188.115.354.292.495.54.263.462.394 1.062.394 1.798 0 .67-.121 1.216-.338 1.662h2.716A6.032 6.032 0 0042 15.305c0-.884-.129-1.643-.359-2.305z" />
</svg>