<?xml version="1.0" encoding="windows-1252"?>
<!-- Generator: Adobe Illustrator 19.1.1, SVG Export Plug-In . SVG Version: 6.00 Build 0)  -->
<svg version="1.1" id="Layer_1" xmlns="http://www.w3.org/2000/svg" xmlns:xlink="http://www.w3.org/1999/xlink" x="0px" y="0px" viewBox="0 0 48 48" enable-background="new 0 0 48 48" xml:space="preserve">
<path fill="#37474F" d="M45,38H3c-1.105,0-2-0.895-2-2V12c0-1.105,0.895-2,2-2h42c1.105,0,2,0.895,2,2v24C47,37.105,46.105,38,45,38  z"/>
<path fill="#FFFFFF" d="M16,35H4V13h12V35z M30,13H18v22h12V13z M44,13H32v22h12V13z"/>
<path fill="#CFD8DC" d="M16,17H4v-4h12V17z M30,13H18v4h12V13z M44,13H32v4h12V13z M16,33H4v2h12V33z M30,33H18v2h12V33z M44,33H32  v2h12V33z"/>
<path fill="none" d="M37.995,17.812c0.42,0,0.757-0.231,1.01-0.694c0.019-0.035,0.025-0.082,0.043-0.118h-2.093  c0.014,0.029,0.024,0.066,0.039,0.094C37.248,17.573,37.581,17.812,37.995,17.812z"/>
<path fill="#546E7A" d="M14,25.179c0,1.884-0.345,3.325-1.035,4.324C12.274,30.501,11.289,31,10.009,31  c-1.267,0-2.246-0.485-2.936-1.455S6.025,27.185,6,25.376v-2.574c0-1.878,0.344-3.314,1.031-4.309S8.704,17,9.991,17  s2.273,0.493,2.96,1.479c0.687,0.986,1.037,2.393,1.05,4.221V25.179z M11.314,22.412c0-1.077-0.107-1.885-0.322-2.424  c-0.214-0.539-0.548-0.808-1.002-0.808c-0.851,0-1.292,0.987-1.324,2.959v3.411c0,1.102,0.109,1.923,0.326,2.461  c0.217,0.539,0.556,0.808,1.017,0.808c0.435,0,0.758-0.252,0.969-0.756c0.211-0.504,0.323-1.276,0.336-2.316V22.412z M28,25.179  c0,1.884-0.345,3.325-1.035,4.324C26.274,30.501,25.289,31,24.009,31c-1.267,0-2.246-0.485-2.936-1.455s-1.048-2.36-1.073-4.169  v-2.574c0-1.878,0.344-3.314,1.031-4.309S22.704,17,23.991,17c1.286,0,2.273,0.493,2.96,1.479c0.687,0.986,1.037,2.393,1.05,4.221  V25.179z M25.314,22.412c0-1.077-0.107-1.885-0.322-2.424c-0.214-0.539-0.548-0.808-1.002-0.808c-0.851,0-1.292,0.987-1.324,2.959  v3.411c0,1.102,0.109,1.923,0.326,2.461c0.217,0.539,0.556,0.808,1.017,0.808c0.435,0,0.758-0.252,0.969-0.756  c0.211-0.504,0.323-1.276,0.336-2.316V22.412z M42,25.554V24h-8v2.24h5.303L36.892,33h2.609L42,25.554z M39.006,17.118  c-0.253,0.462-0.59,0.694-1.01,0.694c-0.414,0-0.748-0.239-1.001-0.718c-0.015-0.028-0.025-0.065-0.039-0.094h-2.589  c0.182,0.563,0.42,1.074,0.741,1.507C35.846,19.502,36.827,20,38.051,20c0.76,0,1.441-0.199,2.044-0.596s1.071-0.956,1.404-1.676  c0.108-0.232,0.192-0.477,0.264-0.728h-2.716C39.031,17.036,39.025,17.083,39.006,17.118z"/>
<path fill="#455A64" d="M36.178,35l0.714-2h2.609l-0.671,2H36.178z M36.614,14.922v-0.963c0.111-0.315,0.28-0.579,0.505-0.793  c0.078-0.074,0.171-0.118,0.262-0.167H34.02C34.014,13.168,34,13.33,34,13.502v0.986c0,0.951,0.131,1.78,0.367,2.512h2.589  C36.731,16.523,36.614,15.835,36.614,14.922z M41.641,13h-3.144c0.188,0.115,0.354,0.292,0.495,0.54  c0.263,0.462,0.394,1.062,0.394,1.798c0,0.67-0.121,1.216-0.338,1.662h2.716C41.917,16.474,42,15.911,42,15.305  C42,14.421,41.871,13.662,41.641,13z"/>
</svg>