<?xml version="1.0" encoding="iso-8859-1"?>
<!-- Uploaded to: SVG Repo, www.svgrepo.com, Generator: SVG Repo Mixer Tools -->
<svg height="800px" width="800px" version="1.1" id="Layer_1" xmlns="http://www.w3.org/2000/svg" xmlns:xlink="http://www.w3.org/1999/xlink" 
	 viewBox="0 0 511.843 511.843" xml:space="preserve">
<path style="fill:#424953;" d="M84.201,61.399c-1.156-4.64-5.342-8.076-10.333-8.076H10.661C4.772,53.323,0,58.095,0,63.984
	c0,5.889,4.772,10.661,10.661,10.661H65.62l60.771,234.624l20.642-5.342L84.201,61.399z"/>
<path style="fill:#FECD57;" d="M198.268,267.031h-96.635c-11.731,0-22.767,9.481-24.516,21.087l-12.902,85.334
	c-1.75,11.605,6.412,21.087,18.143,21.087h115.91c11.73,0,21.329-9.591,21.329-21.306v-84.881
	C219.597,276.638,209.998,267.031,198.268,267.031z"/>
<path style="fill:#EC5564;" d="M490.522,330.559C294.77,223.935,104.288,223.935,104.288,223.935l49.407,190.613l336.827,1.328
	L490.522,330.559L490.522,330.559z"/>
<path style="fill:#646C77;" d="M170.612,447.866c-29.397,0-53.312-23.914-53.312-53.327c0-29.397,23.915-53.296,53.312-53.296
	c29.405,0,53.32,23.898,53.32,53.296C223.932,423.952,200.017,447.866,170.612,447.866z"/>
<path style="fill:#424953;" d="M170.612,330.559c-35.333,0-63.98,28.647-63.98,63.98c0,35.349,28.647,63.98,63.98,63.98
	c35.341,0,63.98-28.632,63.98-63.98C234.592,359.206,205.953,330.559,170.612,330.559z M170.612,437.214
	c-23.516,0-42.651-19.15-42.651-42.675c0-23.509,19.135-42.644,42.651-42.644c23.524,0,42.659,19.135,42.659,42.644
	C213.271,418.064,194.136,437.214,170.612,437.214z"/>
<path style="fill:#646C77;" d="M458.531,447.866c-23.523,0-42.658-19.135-42.658-42.643c0-23.524,19.135-42.675,42.658-42.675
	c23.509,0,42.644,19.15,42.644,42.675C501.175,428.732,482.04,447.866,458.531,447.866z"/>
<path style="fill:#424953;" d="M458.531,351.896c-29.443,0-53.327,23.868-53.327,53.328c0,29.428,23.884,53.296,53.327,53.296
	c29.445,0,53.312-23.868,53.312-53.296C511.844,375.764,487.977,351.896,458.531,351.896z M458.531,437.214
	c-17.65,0-31.99-14.371-31.99-31.99c0-17.651,14.34-31.99,31.99-31.99c17.636,0,31.99,14.339,31.99,31.99
	C490.522,422.843,476.167,437.214,458.531,437.214z"/>
<g>
	<path style="fill:#E5E8EC;" d="M469.185,405.224c0,5.873-4.765,10.652-10.653,10.652s-10.668-4.779-10.668-10.652
		c0-5.904,4.779-10.685,10.668-10.685S469.185,399.319,469.185,405.224z"/>
	<path style="fill:#E5E8EC;" d="M181.28,394.539c0,5.904-4.78,10.685-10.668,10.685s-10.661-4.78-10.661-10.685
		c0-5.873,4.772-10.653,10.661-10.653S181.28,388.666,181.28,394.539z"/>
</g>
<path style="fill:#424953;" d="M203.118,233.65c20.017,44.55,64.777,75.603,116.785,75.603c27.585,0,53.14-8.748,74.039-23.603
	C321.543,257.261,254.461,241.929,203.118,233.65z"/>
<g>
	<path style="fill:#F5BA45;" d="M93.846,309.691H73.86l-3.226,21.321h23.212c5.889,0,10.661-4.765,10.661-10.669
		C104.507,314.47,99.735,309.691,93.846,309.691z"/>
	<path style="fill:#F5BA45;" d="M65.8,363.002h23.243c5.889,0,10.668-4.765,10.668-10.669c0-5.873-4.78-10.652-10.668-10.652H69.026
		L65.8,363.002z"/>
</g>
</svg>