<?xml version="1.0" encoding="utf-8"?>
<svg width="800px" height="800px" viewBox="0 0 24 24" xmlns="http://www.w3.org/2000/svg">
  <g>
    <path d="M12,12H2A10,10,0,0,1,12,2h0Z" style="fill: rgb(118, 118, 118);"/>
    <path d="M 22 12 L 12 12 C 12 6.477 16.477 2 22 2 L 22 12 Z" style="fill: rgb(118, 118, 118);" transform="matrix(0, 1, -1, 0, 24, -10)"/>
    <path d="M 23 23 L 13 23 C 13 17.477 17.477 13 23 13 L 23 23 Z" style="fill: rgb(42, 118, 23);" transform="matrix(-1, 0, 0, -1, 36, 36)"/>
    <path d="M 12 22 L 2 22 C 2 16.477 6.477 12 12 12 L 12 22 Z" style="fill: rgb(118, 118, 118);" transform="matrix(0, -1, 1, 0, -10, 24)"/>
    <text style="fill: rgb(255, 255, 255); font-family: Arial, sans-serif; font-size: 9px; font-weight: 700; white-space: pre;" x="6.187" y="10.486">1</text>
    <text style="white-space: pre; fill: rgb(51, 51, 51); font-family: Arial, sans-serif; font-size: 0.9px;" x="37.928" y="7.522">Enter your text here</text>
    <text style="fill: rgb(255, 255, 255); font-family: Arial, sans-serif; font-size: 9px; font-weight: 700; white-space: pre;" x="12.861" y="10.486">2</text>
    <text style="fill: rgb(255, 255, 255); font-family: Arial, sans-serif; font-size: 9px; font-weight: 700; white-space: pre;" x="6.187" y="19.585">3</text>
    <text style="fill: rgb(255, 255, 255); font-family: Arial, sans-serif; font-size: 9px; font-weight: 700; white-space: pre;" x="13.861" y="20.585">4</text>
  </g>
  <rect width="24" height="24" fill="none"/>
</svg>