<?xml version="1.0" encoding="UTF-8" standalone="no"?>
<svg xmlns="http://www.w3.org/2000/svg" viewBox="0 0 32 32">
	<circle cx="16" cy="16" r="16" fill="#fff"/>
	<path fill="#e64a19" d="m5.242 21.133 9.39-9.398L16 10.368l1.367 1.367 6.933 6.933-.01.035-.137.402-.156.394-.174.383-.192.374-.175.304L16 13.103 6.24 22.87c-.377-.553-.725-1.123-.998-1.738z"/>
	<path fill="#474747" d="M16 4c6.61 0 12 5.39 12 12s-5.39 12-12 12c-3.61 0-6.856-1.61-9.059-4.147l.424-.425.308-.308.308-.31.309-.307.013-.013A10.057 10.057 0 0 0 16 26.077c5.55 0 10.078-4.526 10.078-10.077S21.55 5.922 16 5.922C10.449 5.922 5.922 10.45 5.922 16c0 .747.083 1.476.239 2.178l-.668.67-.893.893A11.922 11.922 0 0 1 4 16C4 9.39 9.39 4 16 4z"/>
</svg>
