<svg viewBox="0 0 98.15 95" xmlns="http://www.w3.org/2000/svg">
  <circle cx="47.85" cy="48.04" r="34.72" fill="#fff" stroke="#961638" stroke-miterlimit="10" stroke-width="14" />
  <path
    d="M41.99 35.85c3.181 4.84-5.864 10.379-8.17 6.64m18.58-6.64c-2.401 5.325 6.835 9.434 8.17 6.64m3.61 17.43s-2.68-3.27-7.14-3.27c-4.46 0-5.48 6.864-9.05 7.164-3.57.3-4.63-7.164-8.2-7.164-3.57 0-4.025 1.431-8.62 3.57"
    class="prefix__cls-1" />
  <path
    d="M67.67 17.15c-2.39 2.82-6.78 8.61-6.78 11.52 0 3.78 3.04 6.86 6.78 6.86s6.78-3.08 6.78-6.86c0-2.91-4.39-8.7-6.78-11.52z"
    fill="#fff" stroke="#1e1e1c" stroke-linecap="round" stroke-linejoin="round" stroke-width="3" />
</svg>