<svg viewBox="11.79 9.727 76.42 80.543" width="64" height="64" xmlns="http://www.w3.org/2000/svg">
   <g fill-rule="evenodd" clip-rule="evenodd" fill="#3d3c3c">
      <path d="M29.706 78.704c-.018-.004-.025.047 0 0z" />
      <path
         d="M78.915 44.477c-1.532-1.336-7.735-5.18-6.171-.715.81 1.059 3.91 5.164 1.136 2.305.012-2.576-6.11-6.251-4.01-1.775.66 1.06 4.09 5.076 1.206 2.542-.08-2.013-5.063-6.802-3.605-2.181.987 1.54 1.651 2.82.085.66.492-3.155-5.482-2.328-4.633-2.258 3.093-.833 6.169-2.754 8.221-4.867-1.429 1.05-3.377 4.405.014 2.781 2.1-.373 6.735-5.373 1.834-3.766-1.726.026-7.55 3.916-4.134.315 2.289-3.924 7.796-1.447 10.048-4.353-2.71.017-6.74.955-8.499-2.155.136.37.04 5.526-2.52 6.618-1.34 1.098-3.174 2.06-1.566-.244.883-2.279 2.736-10.205-1.553-6.7-3.352 1.522 3.103-.8 2.517-2.882.654-3.174-2.825-1.402-3.333-.052 2.744-.51 4.554-6.394.37-4.336-3.42 3.459-1.174 8.872-2.234 13.188.208 2.635.061 7.313-3.256 3.921-1.889-1.194-4.756-2.772-2.231.412 3.797 4.185-1.761 6.307-4.317 8.799-1.001 1.215-5.55 4.138-3.033 1.064 1.076-1.099 2.617-4.223-.046-1.945-3.46 1.153 5.55-2.601 3.586-5.392-2.595.731-7.53 3.51-6.911 7.489 1.123 2.273-.723.795-1.342.071 2.501-1.303.25-6.399 1.43-9.296.61-3.504.614-7.152 1.445-10.58.413 5.2 4.308-2.701.684-3.97-3.1-.176-3.787 3.499-1.643 5.409-.801-3.061-4.716-1.6-2.618.923 1.775 1.735 1.453 2.218-.017.19-2.64-3.618-3.013 2.817-.294 3.58 4.127 4.496-3.707-4.88-3.204.172-.232 2.266 7.427 5.736 2.691 3.354-1.333-1.69-5.084-3.3-3.306.421.111 1.965 4.97 3.39 4.135 4.07-1.362-1.453-5.698-4.185-4.385.036.772 1.678 7.388 4.904 2.54 2.814-2.566-.227 1.481 4.018 2.62 4.901 3.683 2.046-2.51 4.054-3.917 5.95-2.035.876-4.286 5.028-5.861 4.168 1.677-3.031 4.222-6.012 3.546-9.79-1.198-3.734-3.174 5.443-4.667 3.596 2.088-2.396 5.929-6.376 2.836-9.421-.79 1.078-3.968 6.083-1.96 2.34 2.195-1.18 1.462-7.691-.138-2.9-.57 1.786-3.381 5.377-1.43 1.437.821-2 3.172-5.35.793-6.956.303 2.122-3.337 6.772-.878 2.51 1.38-1.758-.582-7.325-1.836-2.963-1.706 6.264 1.197 12.484 2.004 18.657.68 2.043.392 4.876-.332 1.125-.908-2.75-6.356-3.88-7.486-4.028-.975 3.602 6.858 4.512 6.102 4.672-2.388-1.37-4.873.231-1.612 1.87 1.8.405 5.765 2.381 1.955 3.463-2.525 3.35-6.943 5.553-9.18 8.572.048 1.16-4.43-.616-5.893-.793-1.203-1.077 7.11 2.37 4.754-1.834-3.483-.116-6.336-2.367-9.374-3.79.252 4.858 7.421 6.781 8.171 9.803-2.627 3.322-5.832 6.596-6.738 10.859 3.594-2.573 4.935-10.356 9.664-9.917.768 2.068 4.488 7.138 5.055 3.655.542 1.474 4.186 5.635 4.323 2.882-1.356-1.091-4.2-6.096-1.492-2.154.627 1.624 6.146 4.512 3.323 1.142-1.065-1.34-1.918-4.764-.41-1.416 1.06 3.7 7.4 3.208 4.607.582 1.063 1.984 7.836 1.015 3.824-.527-3.612-.877 5.975.964 2.606-1.964-.758-1.388-3.817-2.725-4.713-1.555 2.978-3.98-6.675-1.585-2.938.573 1.906.328 4.755.834.974.632-3.968-.607-9.309-1.246-12.148-3.205 3.604 1.19 6.216-1.7 7.668-4.409-1.945-1.023-5.618 3.103-5.65 1.706 1.101-1.157-5.523 2.467-2.84-.472 3.5-2.456 5.405-7.03 9.594-8.446 1.004.892 2.377 4.861 4.668 4.224-.708-2.241-1.888-5.75-2.933-6.623 3.983-3.792 7.99-7.58 12.371-10.916.077 2.416 3.485 7.885 5.212 5.626-.788-2.719-3.673-6.534 1.198-6.572 1.627-.657 3.863-2.24 1.058-.311-2.987 2.708 2.412.765 3.6-.05 1.218-.153 5.84-1.985 2.06-1.902-3.082-.674-9.24 1.257-10.115 1.18 3.36-2.328 6.625-8.194 11.208-5.822 4.049 2.518 8.621 4.25 13.378 2.89 2.665.249 7.477-2.741 2.288-3.946zM66.688 32.252l-3.801 2.598c.961-1.245 2.426-1.922 3.801-2.598zm-1.988 4.19c-1.75 1.795-2.87 1.165 0 0zM33.999 60.967c1.48-1.529 2.86-1.968.599-.24l-.599.24zM75.858 28.64c2.745-3.26 7.144-6.286 6.414-11.128.81-2.341.235-6.116-2.562-2.882-4.216 1.801-7.975 6.121-5.208 10.726.385 1.12.856 2.21 1.356 3.284zm4.196-12.892c.058 1.929.874 8.644-.27 3.575-.12-1.195-.04-2.413.27-3.575zm-2.203 9.447c-1.122-1.16-1.192-6.92-.614-2.562.18.86.383 1.715.614 2.562z" />
      <path
         d="M51.668 73.093c-2.476-2.385-5.418-9.91-9.497-6.01-1.315 4.737 3.851 6.71 7.418 6.82.778.447 2.515.717 2.079-.81zm-7.271-6.226c.774 1.544 4.932 7.649 1.696 3.314-.69-1.034-1.29-2.136-1.696-3.314z" />
      <path
         d="M58.113 66.752c-1.593-3.663-6.969 1.011-5.758 1.039-2.4-1.104-5.41.157-2.73 2.728.386 1.742 6.77 4.903 3.703 1.564-1.021-.93-3.086-4.847-.903-1.822-.097 2.718 6.832 5.056 3.708 1.321-2.45-2.126-1.593-5.276 1.98-4.83zm16.355-9.375c-1.163-1.254-8.153-.617-3.798.61 2.461 1.426-6.188-1.824-2.483.763 1.434 1.966-3.198-3.204-4.704-2.57-.253 3.924 6.026 6.647 9.2 3.437 1.242-.379 5.834-2.63 1.785-2.24z" />
      <path
         d="M59.996 68.869c-1.491-4.29-7.855.96-3.189 2.908 1.644 3.378 10.55-1.843 4.446-1.95-.517-.144-1.009-.466-1.257-.958zM25.36 52.15c1.451 1.286 7.415 6.102 5.717 1.147-1.37-2.002-4.624-6.127-6.609-5-.198 1.307-.36 2.991.892 3.853zm-5.061 14.449c-.048 2.185 1.856 6.88 3.523 2.89 2.107-1.49.595-6.622-.806-2.1-1.367 2.19-2.49.873-.447-.373 3.313-1.358-.098-8.887-.84-3.632-.34 1.12-1.177 2.087-1.43 3.215zm31.344-28.02c-1.365 2.116-7.6 5.242-4.201 7.33 2.42-1.03 8.167-4.642 4.201-7.33zm34.515-12.385c2.502-1.73-.396-5.06-2.188-2.245-1.56.708-7.38 2.602-5.06 4.215 2.47-.378 5.102-.551 7.248-1.97zM21.045 72.123c-.371-3.891-6.904-5.87-8.737-6.383-.479 4.325 5.396 4.811 8.363 6.226l.203.085zm33.162-17.956c-2.312 3.493 2.98 9.466 5.097 7.815-1.697-2.522-1.731-6.81-5.097-7.815zm.762-17.688c-.102 3.821 9.269 5.784 5.263 1.003-1.705-.949-6.31-6.29-5.157-1.76l-.106.757zm-36.83 26.347c-.325-1.208-1.937-4.97-.163-1.887 3.058 3.504 1.926-8.128.212-2.173-.026-1.847-3.384-5.595-3.398-1.283-.09 2.281 1.765 3.984 3.349 5.343zm41.327-26.53c3.866 2.584 1.174-4.364-1.107-4.459-.807-2.016-3.787-3.71-3.062-.124.05 2.386 2.822 3.087 4.169 4.583zm2.14-10.787c.491-2.057.589-4.922.75-1.238 2.313 1.03 3.476-4.158.591-4.49-3.818-5.307-3.927 4.54-1.341 5.728zm21.269-6.485c.975-1.425 2.043-7.082 2.556-5.915-.927 1.91-.79 6.017 1.361 2.231 2.192-2.615-1.97-7.742-3.239-2.973-.664 2.13-1.228 4.436-.678 6.657zM56.479 54.615c.92 2.586 2.72 9.102 5.965 7.171-.282-2.483-3.36-7.034-5.965-7.171zM38.327 66.169c-.39 2.332 3.54 9.206 4.353 4.93-.931-1.707-1.626-8.428-4.353-4.93z" />
      <path
         d="M20.216 68.5c-.453-2.938-5.217-6.788-7.232-5.558.33 3.364 4.41 4.877 7.232 5.558zm63.932-29.303c-2.354-1.413-5.755 2.768-2.033 1.96-3.585 1.952 5.017 2.801 5.72-.599-1.155-.644-2.524-.734-3.687-1.361zM59.147 32c1.323 2.506 3.978 2.268 2.46-.714-.723-2.034-5.562-8.229-5.042-2.881C57 29.857 58.118 30.95 59.147 32zm12.517-7.999c-1.024 2.12 3.488 8.615 3.093 3.807-1.366-1.688-.413-6.844-2.36-6.735-.524.846-1.488 1.919-.733 2.928zM25.305 46.463c1.166 2.643 7.297 6.659 4.135 1.117-.697-2.045-5.398-6.424-4.135-1.117zm40.957 14.6c-1.854-1.4-4.747-7.606-6.5-5.06 1.524 1.784 3.403 8.182 6.5 5.06zm-40.593-5.234c1.252 1.007 7.351 4.455 5.456.82-1.957-1.206-5.255-3.695-6.625-3.79-.046 1.054.03 2.496 1.169 2.97zm21.69-17.328c-1.675 1.394-.321 5.642 1.374 2.502 3.644-1.189 4.048-8.295.03-3.385-.438.338-.906.64-1.404.883zm30.338-9.843c-3.2.303-.996 3.328 1.129 1.842 1.863.152 7.72-1.439 5.717-3.223-2.242.613-4.481 1.49-6.846 1.381zm9.483-10.476c-1.052 2.687-6.066 3.515-5.687 6.477 2.34-.037 8.846-4.609 5.687-6.477z" />
      <path
         d="M59.5 27.774c1.75 3.998 3.63-1.19 1.436-2.77-3.128-4.842-4.719.298-1.436 2.77zM37.09 75.736c-2.022.368-6.59 4.885-2.02 4.596 1.557-.549 6.575-4.485 2.02-4.596zm-7.524-32.318c-.776-3.077 1.477 1.264 1.525-2.183.993-1.947-.492-7.451-2.617-3.663-.954 1.982.275 4.065 1.092 5.846zm51.17-1.001c-1.37-1.981-7.341-.698-3.041 1.058 1.18 2.42 8.508 1.532 3.994-.557l-.489-.226zm-8.269-10.056c2.204-2.179-1.505-7.819-1.8-8.103-1.065 2.696-.82 6.372 1.8 8.103zm10.765-2.416c-2.774 1.91-7.9-.645-9.547 2.648 3.283.387 7.577.607 9.547-2.648zm-35.126 3.714c-2.255 1.786-.058 5.833 1.842 2.474 2.708-1.691-.016-7.231-1.842-2.474zm19.312 18.247c-2.1.11-8.389 3.222-2.921 3.334 1.254-.074 6.442-2.435 2.921-3.334zM49.643 62.472c-1.838-.062-6.956 3.778-2.546 3.633 1.201-1.062 8.418-3.415 2.546-3.633zm3.042 1.248c-2.175.136-6.111 4.022-1.452 3.086 1.707-.146 7.316-3.329 1.452-3.086zM31.081 79.413c2.942.596 7.527-6.215 2.187-3.855-1.093.57-4.784 2.835-2.187 3.855z" />
      <path
         d="M19.053 62.895c.632 5.982 6.062-3.869 1.456-3.756-.251 1.33-.875 2.547-1.456 3.756zM80.939 37.19c-2.26-1.317-8.38 1.487-6.62 3.465 2.53-.46 4.239-2.657 6.62-3.465zm-52.086 8.922c2.536 2.242.084-4.107-.38-5.22-3.447-3.544-1.252 4.706.38 5.22zm35.993 4.749c-1.353.817-7.155 1.425-5.13 3.278 2.132-.188 5.945-1.9 6.42-2.985-.37-.221-.838-.56-1.29-.293zm.088 4.671c1.406 3.322 9.41-.284 4.025-1.356-1.366.377-2.677.923-4.025 1.356zm-19.568 6.435c-1.758.16-5.095 4.438-1.312 3.361.457-1.363 5.798-3.413 1.312-3.361zm-31.41-1.601c-.648 2.774 7.505 5.872 3.195 1.997-.507-.238-3.725-4.528-3.195-1.997zm28.021 1.585c-2.132.419-4.665 4.157-.766 2.777 1.18-.593 4.71-3.812.766-2.777zm44.719-45.868c-1.647.526-5.173 6.632-1.568 3.618.656-.735 4.095-3.149 1.568-3.618zm-62.18 55.579c1.354-3.527-1.203-2.299-2.252-.18-.946 2.954 2.225 2.938 2.252.18zm54.936-31.547c3 .158 2.353-4.006-.151-1.514-3.034.859-3.362 3.388.151 1.514z" />
   </g>
</svg>