<svg viewBox="3.405 0 505.19 512" width="505.19" height="512" xmlns="http://www.w3.org/2000/svg">
  <path
    d="M508.595 192.58l-45.648-14.463c30.295-30.936 34.154-86.926 34.154-86.926l-28.944.977C488.695 69.363 497.809 0 497.809 0c-55.727 17.085-90.667 41.179-90.667 41.179l-5.181-39.858s-50.198 15.783-76.733 61.705L300.299.743s-97.198 31.28-112.463 131.032c0 0 1.519-46.103-45.239-99.981 0 0-208.69 199.651-42.876 368.772-18.236 11.225-42.413 35.717-42.413 35.717l-14.096 14.163s-49.174 48.519-38.214 60.032c10.314 10.838 60.261-39.771 60.261-39.771l14.182-14.248s24.201-23.89 34.881-42.06c152.638 132.448 363.507-61.003 363.507-61.003l-49.541-39.92c49.496-32.655 80.306-120.895 80.306-120.895zm-76.926 159.094c.764 2.426-13.907 8.581-36.795 13.475-22.836 5.034-53.584 9.161-84.36 12.168-61.569 6.072-123.283 8.112-123.283 8.112l-35.681 1.224-14.294.375c-10.183 7.811-17.241 11.82-19.205 9.893-2.254-2.213 2.181-10.312 10.699-21.863l-.908-20.772s-2.578-63.05-2.252-126.072c.144-63.024 2.752-126.019 7.778-125.992 5.26.029 7.642 61.556 9.868 123.036l4.333 122.877.135 3.204c11.53-13.692 25.246-29.115 39.134-44.385a3391.444 3391.444 0 0130.632-33.149l3.018-17.925s32.056-191.626 41.891-189.97c9.207 1.55-14.511 147.154-20.289 181.803 13.091-13.762 21.734-22.677 21.734-22.677l45.049-46.824s8.237-8.594 21.038-21.75l2.045-8.616 1.606-6.232 1.95-7.213c2.907-10.55 7.08-24.481 11.692-38.259 9.206-27.561 20.209-54.494 24.975-52.992 5.043 1.59-.974 29.301-7.641 56.732l-7.17 28.556a4201.89 4201.89 0 0132.005-32.104c20.372-20.223 40.981-40.2 57.091-54.572 16.081-14.377 27.588-23.23 30.428-20.767 2.986 2.589-4.164 15.17-16.907 32.202-12.751 17-30.98 38.53-49.666 59.598a2441.69 2441.69 0 01-27.665 30.633 3330.047 3330.047 0 0124.655-6.895c27.828-7.517 55.636-15.031 57.383-10.39 1.877 4.982-24.071 17.133-50.822 26.866-26.707 9.847-54.014 17.719-54.014 17.719l-3.503 1.003c-13.489 14.344-22.501 23.67-22.501 23.67l-45.095 46.883s-7.031 7.311-18.226 18.731c17.84-5.185 42.853-12.275 68.107-18.837 23.552-6.127 47.264-11.76 65.325-15.003 18.053-3.295 30.467-4.02 30.949-1.598.527 2.623-10.565 6.969-27.369 12.853-16.818 5.84-39.41 13.071-62.054 20.183-45.288 14.21-90.773 27.861-90.773 27.861l-13.463 4.09c-10.539 10.521-22.052 21.881-33.683 33.125-15.718 15.214-31.653 30.199-45.667 42.65l19.215-.641s62.758-2.16 125.345-5.791c31.29-1.812 62.505-4.112 85.805-6.299 23.316-2.046 38.646-4.425 39.402-1.934z"
    fill="#3d3c3c" />
</svg>