<svg viewBox="1.408 6.852 23.642 12.755" width="23.642" height="12.755" xmlns="http://www.w3.org/2000/svg">
  <path
    d="M9.685 19.603a10.62 10.62 0 01-1.787-.207c-.196-.039-.216-.041-.605-.074-.67-.057-1.011-.1-1.31-.166-.298-.066-.478-.14-.571-.233l-.039-.038.005-.06c.022-.28.258-1.196.447-1.73.032-.091.083-.224.113-.295.079-.182.12-.312.192-.599.094-.379.138-.488.265-.656.131-.173.433-.408.612-.477.163-.062.317-.066.657-.016.21.03.389.037.5.02.162-.027.325-.098.674-.291.298-.166.45-.235.621-.28a.595.595 0 01.215-.026c.134 0 .175.007.37.059.432.116 1.05.386 1.459.637.249.153.38.27.452.4.065.117.112.229.177.418.096.276.144.4.193.504.13.27.29.436.56.582.189.102.329.157.806.316.2.067.377.127.394.134l.03.013-.042.038c-.213.19-.311.264-.428.324-.108.056-.157.067-.355.085-.66.057-.932.114-1.224.252-.212.1-.339.202-.529.424-.202.237-.323.42-.37.559-.036.11-.018.18.072.268l.05.049-.025.004c-.092.014-.633.05-.912.06-.205.006-.452.007-.667.002zm2.334 0c-.404-.018-.65-.092-.747-.225-.028-.04-.029-.08-.002-.152.048-.128.22-.37.415-.584a1.29 1.29 0 01.42-.316c.268-.126.555-.187 1.118-.236.254-.022.251-.021.335-.047.16-.05.315-.154.56-.377.534-.485.55-.497.824-.619.183-.081.311-.144.462-.228.262-.144.335-.192 1.206-.78.514-.346.836-.524 1.23-.681.289-.114.429-.13.84-.092.535.05.644.038 1.045-.11.405-.152.528-.183.703-.183.176 0 .264.037.392.164.216.216.334.475.387.855.006.046.017.151.024.236l.024.298c.037.455.117.737.28.989.023.036.125.175.226.309.294.391.38.536.427.717.073.284-.033.539-.302.728-.293.206-.877.354-1.328.336-.22-.009-.324-.024-.845-.126a7.35 7.35 0 00-.592-.1c-.039-.004-.286-.01-.549-.012-.601-.005-.913.002-2.294.057-.27.01-.65.023-.847.027-.622.015-.738.021-1.318.075-.644.06-1.109.08-1.368.059a1.33 1.33 0 00-.224.004 5.893 5.893 0 01-.502.014zm2.142-2.154l-.019-.01.005-.176c.003-.097.01-.2.013-.228.012-.08.149-.62.231-.913.233-.83.303-1.168.325-1.577a1.233 1.233 0 00-.016-.353l-.016-.086.058-.204.058-.204.025-.002a.96.96 0 01.227.042c.283.085.523.28.724.587.145.22.284.54.39.897.07.23.167.627.166.675 0 .012-.021.077-.046.147l-.045.125-.164.112c-.349.239-.66.428-.921.559l-.232.107c-.09.04-.193.09-.227.11a2.772 2.772 0 00-.449.357c-.05.047-.057.05-.088.035zm-.483-.166c-.424-.143-.486-.167-.66-.252-.36-.177-.514-.343-.662-.713a.662.662 0 01-.04-.12c0-.037.113-.42.194-.66.25-.744.61-1.522 1.044-2.26a14.83 14.83 0 011.844-2.488l.248-.272c.092-.1.203-.204.212-.196a4.62 4.62 0 01-.186.471c-.28.65-.63 1.7-.985 2.944-.382 1.34-.57 2.314-.625 3.232-.006.108-.012.25-.012.315 0 .091-.003.12-.01.12-.005 0-.168-.055-.363-.12zm7.766-.208a2.045 2.045 0 01-.048-.202c-.02-.11-.04-.299-.06-.563-.043-.603-.141-.901-.39-1.185-.135-.154-.243-.219-.413-.247a1.17 1.17 0 00-.47.054c-.064.02-.075.02-.072.01l.02-.091c.051-.24.195-.796.307-1.188.115-.4.51-1.71.679-2.255.392-1.26.74-2.18 1.096-2.902.065-.131.066-.133.067-.098.002.102-.03.395-.079.721a44.18 44.18 0 00-.387 3.6 97.4 97.4 0 00-.063 1.298c-.057 1.359-.163 3.103-.187 3.048zm-15.837-.566a415.056 415.056 0 00-1.852-1.55c-.22-.18-.509-.396-.678-.51a1.602 1.602 0 00-.28-.143c-.16-.066-.175-.073-.175-.08a2.685 2.685 0 01.62.03c1.129.162 2.097.681 2.818 1.511.033.039.06.074.06.079a1.418 1.418 0 01-.258.875c-.002 0-.117-.096-.255-.213zm15.997-.078a113.116 113.116 0 00.134-2.573c.008-.213.017-.395.019-.404.01-.049.482-.544.698-.733.501-.44.999-.75 1.537-.958a8.17 8.17 0 01.519-.17c.21-.06.402-.084.499-.064.041.009.044.01.037.024-.02.039-.144.176-.31.345-.42.429-.93 1.038-1.311 1.57-.162.225-.529.764-.685 1.006a20.273 20.273 0 00-1.058 1.832c-.067.129-.079.149-.08.125zm-5.212-.393c.069-.19.285-.812.674-1.936.528-1.528.563-1.625.72-2.036.44-1.153.755-1.863.993-2.247a.94.94 0 01.156-.206c.071-.066.08-.048.061.12-.03.268-.069.494-.17 1a26.165 26.165 0 00-.446 3.522c-.007.137-.023.728-.024.852v.037l-.068.005a1.41 1.41 0 00-.485.117c-.382.151-.727.34-1.204.66l-.21.14c-.006.004-.005-.004.004-.028zm-4.169-.09c-.103-.3-.2-.487-.306-.591l-.053-.052-.005-.13a43.81 43.81 0 01-.04-2.065v-.816l.066-.118c.16-.284.448-.735.558-.87.093-.115.37-.436.505-.584.73-.806 1.412-1.437 1.72-1.595.073-.037.126-.057.133-.05.002.002-.006.018-.019.034-.093.12-.309.476-.48.792-.086.161-.29.579-.365.748a14.61 14.61 0 00-1.024 3.506l-.03.184-.074.165c-.148.331-.271.641-.38.96-.055.16-.154.483-.164.532-.003.014-.007.026-.01.026a.362.362 0 01-.032-.077zm-6.162-.42a13.56 13.56 0 00-.921-1.32 9.32 9.32 0 00-2.482-2.168 6.57 6.57 0 00-1.09-.533c-.147-.052-.162-.058-.16-.067a.216.216 0 01.06-.03c.155-.062.388-.09.7-.082.304.007.54.026.78.06.962.14 1.901.563 2.759 1.242.08.065.1.084.103.103.002.013.011.137.02.275.066 1.015.194 2.06.318 2.607a.218.218 0 01.01.06 1.565 1.565 0 01-.097-.147zm.147-.118c-.149-.782-.254-1.81-.327-3.17-.05-.949-.077-1.861-.098-3.315-.015-1.062-.023-1.55-.027-1.65l-.004-.103.027.055c.039.08.113.268.196.502.04.112.097.264.126.337.17.435.346.952.5 1.471.133.449.417 1.508.688 2.569.164.644.2.775.4 1.431.135.445.31 1.045.382 1.303l.039.138-.048.004a2.128 2.128 0 01-.412-.034 1.744 1.744 0 00-.33-.026.747.747 0 00-.234.018.965.965 0 00-.338.158 1.869 1.869 0 00-.506.486l-.034-.175zm5.466-.246a5.923 5.923 0 00-.78-.423 8.368 8.368 0 00-.544-.216.663.663 0 01-.12-.048c0-.004.03-.114.066-.244.206-.738.394-1.543.71-3.033l.264-1.228c.158-.733.164-.764.263-1.29.12-.64.223-1.139.25-1.21.006-.016.007-.014.015.014.005.017.012.088.017.157.01.133.007.28-.012.635-.006.117-.015.403-.02.635l-.02.973a124.381 124.381 0 00-.04 2.773c-.005 1.08 0 1.492.026 2.214.007.19.01.345.01.346a1.01 1.01 0 01-.085-.055zm7.149.016l-.239-.02-.128-.01.005-.32c.01-.64.054-1.26.139-1.99.045-.387.145-1.113.161-1.166a10.404 10.404 0 011.418-2.008c.744-.813 1.062-1.107 1.35-1.243a.555.555 0 01.186-.06c.004 0-.016.028-.046.06-.084.091-.103.117-.225.306-.309.48-.56.953-.817 1.533-.538 1.215-.868 2.374-1.07 3.761-.05.338-.097.736-.12 1.004a.554.554 0 01-.018.123.474.474 0 01-.105.026c-.114.019-.312.02-.491.004zm-10.64-.307a74.88 74.88 0 00-.467-1.587l-.12-.404a21.23 21.23 0 01-.22-.85c0-.008.013-.077.03-.154.303-1.372.804-2.516 1.508-3.44.263-.347.51-.614.854-.93.389-.356.576-.502.757-.592.088-.043.192-.075.198-.06a.747.747 0 01-.068.106c-.44.627-.791 1.403-1.02 2.257-.346 1.29-.456 2.778-.33 4.436.017.224.05.58.063.673.011.086.01.093-.013.099-.091.023-.321.132-.576.272-.213.119-.275.15-.377.195-.052.023-.181.07-.192.07 0 0-.013-.04-.026-.092z"
    fill="#3d3c3c" />
</svg>