<svg viewBox="14.777 7.042 71.004 88.309" width="71.004" height="88.309" xmlns="http://www.w3.org/2000/svg">
  <path
    d="M50.016 43.426c.402 3.52.953 7.066.883 10.613 2.527-3.3 5.644-7.14 8.039-10.5-1.61-7.406-2.856-16.398.855-23.395.18-.293.364-.574.575-.844-3.372 7.383-2.45 15.863-.942 23.602 2.352-3.133 4.64-6.324 6.777-9.605-1.363-4.492-2.539-10.164-.69-14.676-1.032 4.418-.333 9.761 1.108 14.027 1.735-2.414 3.438-4.922 4.95-7.473-.543-2.484.101-7.062.965-9.477-.32 2.918-.766 5.848-.504 8.793 1.011-1.335 9.746-16.262 9.71-17.008-3.09 2.95-6.456 5.704-10.354 7.512-1.915.906-4.004 1.367-5.81 2.496-.468.285-1.147.895-1.667.98-.457-.288-.223-1.28-.234-1.75-1.098.259-3.008.872-3.84 1.598-.317.274-.992 1.309-1.235 1.422-.761.254-.828-1.863-.863-2.328-2.043.871-4.023 1.59-4.926 3.801-.136.34-.246.691-.328 1.047.211-.274.414-.555.61-.84-3.192 6.848-4.036 14.551-3.079 22.004zM28.766 82.57c-2.656 3.508-4.934 7.36-7.09 11.164.168.5.367.984.602 1.453l.078.152.066.012c1.438-3.289 2.934-6.617 4.88-9.66.316-.531 1.359-2.098 1.651-2.602.106-.199-.03-.402-.19-.52z"
    fill="#3d3c3c" />
  <path
    d="M83.816 48.441c1.266-1.281 1.633-3.621 1.965-5.328-.563.121-1.606.414-2.13.09l-.046-.11c.094-.234.645-.71.844-1.039.562-.941.695-2.433.902-3.515-.383.136-.957.359-1.363.226l-.063-.066c.192-.574.567-1.094.766-1.684.527-1.543.457-3.398.441-5.011-.582.347-1.136.55-1.789.707.153-.47.473-.856.614-1.329.386-1.28.078-3.52-.028-4.894-.113.129-.226.293-.39.348-.168-.051-.215-.121-.301-.274-.45-.824-.582-1.867-.77-2.781-.894-4.324-1.18-8.32-.8-12.723.039-.477.519-3.852.492-4.016-3.012 7.407-7.078 14.328-11.457 21.004 2.632-.851 7.285-4.882 9.433-6.804-.511 1.48-5.238 5.09-6.652 6.047-1.016.691-2.106 1.304-3.328 1.539-1.793 2.55-3.485 5.183-5.262 7.742 6.445-.75 12.41-3.606 17.52-7.504-3.851 4.504-12.14 7.676-17.94 8.207-2.454 3.41-5 6.781-7.419 10.211 10.891.363 18.25-5.11 26.711-11.051-.746 1.144-2.52 2.273-3.64 3.082-7.028 5.39-14.504 9.125-23.61 8.61-1.34 1.788-4.406 5.675-5.69 7.425 8.609-.726 17.577-1.5 25.39-5.492 2.438-1.27 4.555-3.078 6.797-4.625-7.969 8.781-21.504 10.223-32.727 10.812-2.195 2.832-4.39 5.672-6.633 8.469 6.324-1.559 12.906-.871 19.324-1.723 7.121-1.008 14.191-3.844 19.61-8.637-1.657 2.653-7.376 5.692-10.263 6.84-2.855 1.125-5.847 1.89-8.875 2.383-6.5 1.113-13.277.187-19.672 1.914-1.386.27-1.847 1.48-2.96 2.766-1.532 1.8-3.012 3.644-4.575 5.422 1.27-.446 2.508-.856 3.824-1.16 3.899-.727 7.774-.133 11.672.273 9.672 1.281 17.652-1.535 26.06-6.207-1.305 1.289-3.16 2.203-4.801 2.996-3.38 1.629-6.977 3.07-10.68 3.77-8.551 1.773-16.86-2.106-25.223 1.023-.864.324-1.899.695-2.559 1.348-.668.656-1.371 1.593-1.941 2.351 4.02-.793 8.07-.219 11.949.973 8.023 2.328 14.578 3.578 22.504-.098-.625.617-1.399 1.008-2.2 1.36-5.664 2.507-12.129 1.925-17.949.296-5.015-1.449-10.3-2.906-15.449-1.218-.433.453-.828.957-1.214 1.453 8.793-.035 16.078 5.375 24.133 8.047-2.274.062-4.84-1.075-6.907-1.957-5.773-2.454-11.297-5.43-17.785-5.137 2.77 4.719 6.961 8.941 12.262 10.652 2.594.805 4.856.644 7.485.289-.43-.469-1.453-1.516-.36-1.844 2.828.98 5.688 1.211 8.446-.14-.364-.38-1.325-1.122-1.309-1.649-.012-.308.277-.55.57-.547.465.106.961.137 1.438.055 1.765-.238 4.937-1.93 6.348-3.04-.422-.144-1.25-.339-1.45-.765-.12-.254.043-.57.301-.66.399-.14 1.375-.184 1.922-.316 1.695-.41 3.324-1.485 4.691-2.54-.609-.37-2.32-1.09-2.277-1.914.047-.078.09-.171.184-.199.418-.129 1.242-.113 1.722-.203 1.672-.234 2.844-1.262 4.032-2.375-.418-.176-.942-.59-.688-1.094.48-.351 1.059-.52 1.547-.898 1.07-.828 3.277-3.735 3.984-4.95a26.598 26.598 0 01-2.347-.413c2.289-1.344 3.898-3.426 5.238-5.668-.66.023-1.965.386-2.047-.579.055-.417 1.414-1.425 1.793-1.8 1.031-1.012 1.844-2.258 2.281-3.64-.62.066-1.41.206-1.468-.638.359-.773 1.05-1.347 1.5-2.07 1.043-1.68 1.488-3.644 1.988-5.535-1.18.129-2.227.363-3.305.871.38-.703 1.11-1.207 1.664-1.77z"
    fill="#3d3c3c" />
  <path
    d="M25.734 63.277c-2.977-6.41-3.668-14.234-1.246-20.887l.031.02c-.137 2.058-.926 4.187-.953 6.289-.32 4.843.84 9.629 2.719 14.074.758 1.675 1.695 3.265 2.476 4.933 1.411 3.141 2.309 6.375 2.793 9.785.618-.793 1.957-2.21 2.5-3.039 1.973-5.726-.941-12.035-2.339-17.609-2.383-8.496-2.598-19.844 4.629-26.094-5.606 5.649-6.336 14.57-4.868 22.027 1.196 6.203 5.153 13.984 3.86 20.316 1.73-2.3 3.793-4.367 5.586-6.632.707-.856 1.683-1.704 1.672-2.899.367-2.808-.059-5.82-.563-8.586-.781-4.777-1.832-9.519-2.211-14.352-.133-4.992.762-11.977 4.723-15.477-2.567 3.016-3.449 6.918-3.84 10.762-.484 3.832-.016 7.664.742 11.426.75 4.871 2.614 11.168 1.961 16.074 1.547-1.969 5.27-6.406 6.719-8.347.269-3.411-.262-6.84-.707-10.215-1.078-7.739-.719-15.402 2.965-22.453-.211-.661-.907-3.36-1.274-3.75-1.957 1.742-4.301 3.273-5.359 5.753-.129.149-.363.215-.531.098-.387-.484-.825-2.086-.969-2.746-1.727 1.687-4.457 3.75-5.871 5.672-.481.687-.656 1.547-1.031 2.281-.086.141-.164.234-.325.293-.105-.023-.105-.035-.16-.125-.347-.562-.668-2.027-.804-2.707-1.625 1.859-3.504 3.457-5.055 5.395a5.419 5.419 0 00-1.141 2.082c-.058.097-.105.113-.203.16-.773-.09-.945-1.281-1.211-1.875-1.738 2.113-4.148 4.254-4.562 7.082-.028.297.093 1.461-.004 1.617-.063.098-.16.129-.266.148-.75-.238-1.258-1.242-1.644-1.879-1.145 2.399-2.664 4.754-3.313 7.352-.265.895.047 1.816-.012 2.707-.347.637-1.296-.644-1.55-.957-.414 1.992-1.055 4.238-.336 6.231.133.367.64 1.019.316 1.339-.797.16-1.508-.566-2.16-.929-.059 2.468.039 6.187 1.809 8.066.195.207.46.348.464.66-.05.113-.058.149-.179.203-.426.188-1.782-.351-2.235-.511.637 8.335 6.348 13.73 13.32 17.508l.555-.75c.047-4.524-2.387-8.524-5.32-11.785-2.364-2.813-4.813-5.59-6.211-9.036-.11-.269-.426-.961-.34-1.246 2.926 7.028 10.168 10.832 12.234 18.328.258.953.394 1.922.539 2.899.379-.469.809-.942 1.141-1.446-.266-5.445-2.512-10.469-4.965-15.25l.004.002z"
    fill="#3d3c3c" />
</svg>