<svg viewBox="13.535 4.769 72.918 91.169" width="72.918" height="91.169" xmlns="http://www.w3.org/2000/svg">
  <path
    d="M49.969 76.527c.48 5.715.582 11.438-.02 17.148-.062.578-.257 1.426-.195 1.984.016.133.055.168.149.254.18.051.308.016.488-.023.293-.32.277-1.313.324-1.758.192-1.926.309-3.855.356-5.789.09-3.918-.122-7.844-.575-11.734-.175-.031-.351-.063-.53-.078z"
    fill="#3d3c3c" />
  <path
    d="M86.426 51.605c-.332.121-.984.473-1.258.16 1.082-2.043 1.492-4.445.942-6.715-.211.18-.454.442-.746.45-.086-.07-.098-.067-.106-.184.059-1.617-.023-3.445-.809-4.914-.34.355-.668.738-1.074 1.023.348-2.011-.37-4.054-1.43-5.758-.152.305-.32.708-.601.915l-.078-.008c-.793-2.125-1.965-4.254-3.652-5.82-.184.37-.391.968-.72 1.222h-.089c-.191-.25-.184-.867-.262-1.183-.34-1.43-1.203-2.524-2.234-3.536-.184.38-.438.957-.836 1.153l-.098-.008c-.93-2.89-3.285-5.254-5.851-6.844.004.383.129 1.102-.325 1.266l-.109-.016c-.57-1.723-2.273-2.707-3.816-3.5.05.14.156.348.125.5-.325-.027-4.114-3.137-4.676-3.516-.106.282-.254.735-.59.797-.836-.953-1.32-2.18-2.191-3.136.007.195.015.351-.051.539l-.078.07c-.535-.3-.684-1.04-1.051-1.512-1.828-2.625-3.371-5.426-4.8-8.28-1.009 1.96-1.825 4.038-3.044 5.894-.789 1.175-1.723 2.77-2.707 3.718a.455.455 0 01-.242-.086c-.41.207-1.871 2.625-2.516 2.665-.183-.192-.066-.5-.043-.739-1.168.793-2.293 1.64-3.343 2.586-.465.387-.852.961-1.422 1.184-.196-.047-.223-.258-.27-.422-.633.058-2.25 1.644-2.668 2.152-.223.274-.469.914-.7 1.07-.386-.316-.35-.937-.448-1.394a19.013 19.013 0 00-5.211 5.43c-.196.312-.598 1.363-.852 1.53-.066.044-.156.04-.23.048-.426-.133-.473-.657-.559-1.031-1.14.906-2.09 2.101-2.344 3.57-.082.312-.011.715-.238.969-.45-.137-.594-.715-.836-1.079-1.05 1.149-1.957 2.454-2.558 3.895-.137.352-.383 1.434-.618 1.621-.37-.098-.62-.566-.863-.844-.867 1.207-1.559 2.961-1.66 4.45-.02.316.101 1.105-.02 1.351-.472-.008-.68-.574-.945-.89-.676 1.64-.902 3.12-.633 4.863.024.14.055.238-.062.34-.356.015-.715-.375-.969-.598-.277 1.707-.29 3.473.18 5.148.093.332.644 1.559.527 1.79-.34.093-.832-.168-1.133-.325.012 1.364.371 2.61 1.121 3.754.215.332.735.801.63 1.211-.388.195-.837-.105-1.216-.219.254.961.668 1.965 1.25 2.778.352.562 1.012 1.054 1.036 1.757-.196.375-.774-.144-.996-.289.66 1.63 1.687 3.157 2.878 4.446.399.449.989.808 1.215 1.379-.152.27-.683.125-.949.136 1.582 1.59 3.488 2.77 5.2 4.203-.083.086-.032.059-.122.086-.258.075-.476.2-.71.328 1.421.864 3.007 1.524 4.495 2.274 3.414 1.61 6.707 3.644 10.316 4.762 2.438.546 4.973-.102 7.18-1.168 1.309-.653 2.66-1.274 4.144-1.348-1.789-.883-2.957-2.762-4.21-4.25-.989-1.168-2.055-2.352-3.278-3.281-2.148-1.63-4.644-2.536-7.105-3.57-7.621-3.028-14.934-8.239-17.891-16.149l.043-.011c3.383 7.199 9.207 11.707 16.418 14.699 2.715 1.187 5.855 2.214 8.242 3.968 3.285 2.254 4.918 6.22 8.086 8.567l.582-.008-.192-3.992c-2.289-3.504-4.421-7.235-7.492-10.125-7.004-6.7-24.805-11.758-23.613-23.367C18.5 50.637 36.95 54.269 43.93 62.195c2.063 2.21 4.22 5.668 5.72 8.316-.18-1.996-.407-6.133-.536-8.172-.05-.77-.016-1.941-.223-2.648-2.304-3.836-5.633-7.125-9.078-9.984-1.765-1.418-3.629-2.723-5.336-4.211-4.37-3.77-7.285-9.551-6.594-15.38.211 9.184 5.137 13.919 12.203 18.856a37.319 37.319 0 018.707 9.441c-.187-3.46-.386-6.926-.636-10.383-7.883-6.898-14.828-14.473-12.57-25.75-1.094 11.324 4.707 17.598 12.527 24.77-.297-4.273-.332-8.57-.371-12.852-4.957-5.465-7.13-10.738-4.203-17.988-1.942 7.512-.48 11.301 4.207 17.316.125-8.793 2.039-17.414 2.418-26.176.296 4.008-.532 8.027-.895 12.012-.379 3.719-.723 7.445-.883 11.18 3.79-4.2 8.242-9.098 8.192-15.121.722 2.14-.516 5.344-1.493 7.305-1.597 3.219-4.086 5.933-6.726 8.332-.024 6.32.156 12.676.66 18.973 4.945-8.64 15.422-15.648 14.906-26.578 1.621 11.21-10.047 18.598-14.785 27.512.207 4.719.656 9.453 1 14.164 1.977-3.133 4.098-6.184 6.73-8.809 3.82-4 8.79-7.848 11.645-12.566 2.422-3.93 3.227-8.566 3.508-13.109.02-.246.04-1.219.145-1.371 1.27 19.363-13.402 22.078-21.992 36.48.172 1.988.562 7.77.758 9.668 2.062-8.32 11.512-12.418 17.91-17.035 3.59-2.57 6.992-5.613 9.425-9.332 1.965-2.91 3.313-6.379 3.668-9.855-.129 7.55-5.43 14.16-11.176 18.586-6.882 5.398-16.05 8.69-19.496 17.363 2.696-2.336 5.907-4.153 9.227-5.45 7.832-2.902 16.887-4.308 22.527-11.082l-.016.063c-7.922 10.273-22.594 8.844-31.945 17.059 3.61 1.078 7.098 3.383 11.023 2.562 3.254-.586 6.442-2.414 9.336-3.941 1.938-1.031 3.906-2.031 5.79-3.16-.243-.153-.852-.364-.673-.73 1.848-1 3.551-2.235 5.028-3.735-.34-.031-.64-.074-.957-.207 1.656-1.77 3.375-3.598 4.219-5.934-.29.176-.75.578-1.106.406-.07-.125-.098-.199-.055-.34.164-.562.754-1.16 1.086-1.644a8.065 8.065 0 001.2-2.668c-.305.137-.864.414-1.126.09.028-.707.915-1.398 1.13-2.102.386-.851.577-1.8.472-2.734zM21.528 64.527c4.45 3.695 10.043 5.809 15.707 6.738 2.438.434 5.531.36 7.856 1.125.23.078.445.153.554.375-1.094.242-2.234-.14-3.336-.203-2.008-.172-3.984-.277-5.969-.64a31.696 31.696 0 01-14.043-6.391c-1.035-.836-2.14-1.813-2.898-2.91.27.136 1.684 1.543 2.129 1.906zm61.496-5.871a.412.412 0 01.082-.106c-.027.036-.055.067-.082.106z"
    fill="#3d3c3c" />
</svg>