<svg viewBox="0 4.3 512 503.4" width="512" height="503.4" xmlns="http://www.w3.org/2000/svg">
  <path
    d="M512 259.914c.286-55.128-129.372-52.643-129.372-52.643s135.594-24.009 125.938-72.994c-9.657-48.986-54.308-34.909-54.308-34.909s33.638-44.135-3.244-74.927c-36.88-30.791-64.844 18.08-64.844 18.08s-.224-42.813-41.45-37.815c-41.962 5.088-55.949 121.798-55.949 121.798s1.202-90.049-47.24-87.586c-59.176 3.009-54.019 145.357-51.996 178.717-2.058-24.747-12.032-105.884-53.146-78.732-44.184 29.182-13.496 178.618-6.655 240.572-13.593 12.192-23.786 21.622-23.786 21.622l-24.653 22.531s-21.449 19.328-42.401 39.124c-10.516 9.835-20.851 19.889-28.321 27.754-7.399 7.97-11.966 13.857-10.189 16.38 1.581 2.259 9.003-.319 18.775-6.071 9.857-5.661 21.974-14.453 33.766-23.612 23.512-18.389 45.459-38.456 45.459-38.456l24.807-22.712s9.456-8.663 21.663-20.638c119.132 9.711 264.004 39.176 272.553-15.456 8.259-52.764-54.741-58.795-88.797-58.276 51.966-3.735 183.16-17.542 183.39-61.752zm-107.377 14.162c-21.918 3.435-43.965 4.988-43.965 4.988l-25.395 1.984s-22.359 1.739-44.715 2.735c-14.107.575-28.288.919-37.044-.319-9.284 9.965-19.685 20.92-30.349 31.637-11.115 11.318-22.487 22.359-32.89 31.948 7.105-.802 15.938-1.112 24.749-1.438 19.403-.56 38.964-.545 38.964-.545l22.761-.018s5.057-.015 12.666.195c7.617.242 17.8.677 27.983 1.819 20.405 2.046 40.409 7.168 39.739 12.75-.71 6.037-20.314 6.657-39.728 7.374-19.404.559-38.964.544-38.964.544l-22.761.018s-5.058.014-12.666-.195c-7.616-.242-17.8-.677-27.983-1.819-13.847-1.389-27.488-4.194-34.63-7.599a22.817 22.817 0 01-1.544-.814c-15.68 13.73-27.404 22.221-29.543 20.034-2.099-2.142 4.433-11.739 15.283-25.13a28.85 28.85 0 01-1.226-2.088c-3.092-5.796-5.888-14.766-8.195-23.841-4.004-15.724-6.45-31.768-6.45-31.768l-2.885-18.557s-2.552-16.427-3.417-33.051c-.888-16.623-.152-33.386 5.465-34.081 5.986-.743 10.831 14.922 14.367 30.688 3.52 15.768 5.8 31.671 5.8 31.671l2.844 18.384s2.651 16.239 4.004 32.757c.469 5.759.759 11.534.709 16.671 9.457-11.105 20.478-23.607 31.463-36.145 9.424-10.677 18.844-21.347 27.394-31.035-1.927-7.106-2.81-18.119-3.455-29.089-.968-18.145-1.248-36.309-1.248-36.309l-.494-21.094-.186-11.722c-.051-7.037.05-16.506.629-25.996 1.083-19.047 4.932-37.986 10.589-37.592 6.013.411 7.877 18.555 9.515 36.626.773 9.058 1.306 18.14 1.645 25.006l.433 11.455.512 21.324s.484 18.941-1.269 37.898c-.37 4.163-.857 8.303-1.442 12.244l19.294-21.859c11.88-13.564 23.776-27.119 35.452-40.867l10.098-11.767c-.196-5.078.276-11.204.992-17.259 1.652-13.721 4.458-27.129 4.458-27.129l3.023-15.562s2.532-13.763 6.131-27.388c3.633-13.615 8.342-27.16 13.968-26.363 5.953.843 6.873 15.023 5.974 29.018-.872 13.994-3.561 27.719-3.561 27.719l-3.064 15.859s-.954 4.872-2.638 11.64l26.916-31.366c31.359-36.158 62.725-72.342 67.188-68.952 4.848 3.674-21.585 42.768-50.304 80.065-9.648 12.627-19.533 25.054-28.402 35.985a205.286 205.286 0 017.903-2.715c5.013-1.593 8.375-2.489 8.375-2.489l15.325-4.222s13.346-3.683 26.734-6.79c13.411-3.064 27.22-5.906 29.452-.655 2.347 5.511-9.446 13.65-22.41 19.502-6.464 2.902-13.119 5.335-18.133 6.935-5.02 1.636-8.379 2.523-8.379 2.523l-15.39 4.249-8.395 2.211c-5.002 1.309-11.683 2.907-18.349 4.49-6.586 1.452-13.24 2.926-18.583 3.428-5.611 6.677-9.036 10.662-9.036 10.662-11.723 13.846-23.701 27.479-35.609 41.169l-20.067 22.397c-.234.257-.495.541-.733.8 6.055-1.494 12.792-2.839 19.574-3.964 21.955-3.727 44.051-5.289 44.051-5.289l25.429-1.991s22.4-1.749 44.85-2.463c22.457-.682 45.088-.377 45.71 5.273.659 5.972-20.995 11.265-42.914 14.663z"
    fill="#3d3c3c" />
</svg>