<svg viewBox="5.005 10.805 89.984 78.382" width="89.984" height="78.382" xmlns="http://www.w3.org/2000/svg">
  <path
    d="M73.938 10.812c-.434-.047-.93.156-1.031.191-.137.047-.16.926-.184 1.317-.023.39-1.062 3.07-1.273 3.668-.207.601-.969.695-1.2.738-.124.024-.374 1.063-.535 1.094-16.984 3.562-35.445 9.664-52.89 15.258 18.784-7.05 37.57-12.95 52.753-16.027 0 0-2.054-.371-4.34-.531-2.285-.16-12.21.117-16.71.437-4.5.324-12.008 1.457-15.723 2.332-3.72.879-8.149 3.211-12.121 5.633-3.973 2.426-5.61 4.871-6.625 6.625s-1.153 2.469-1.57 2.863c-.415.39-.462 1.086-.462 1.086l.579-.3c.578-.301 2.101.206 4.085 1.062 1.985.855 6.25.59 6.25.59s.262-.72 4.243-3.036c3.984-2.316 9.273-4.343 10.512-4.832a56.796 56.796 0 019.078-2.71c4.406-.914 10.25-1.454 10.66-1.684.406-.23 8.328-4.129 10.008-4.914 1.68-.785 2.695-1.715 2.84-1.86.148-.148.457-.246.343-.082-.113.165-1.304 2.614-1.535 3.56-.23.944-.965 1.077-1.406 1.077s-1.613.637-1.828.797c-.211.164-.942.695-1.309.832-.37.137-3 .418-13.25 1.984-10.25 1.57-18.84 5.727-22.602 7.641-3.762 1.918-8.101 5.727-10.109 7.781-2.008 2.055-5.238 6.489-8.055 10.066s-4.015 8.567-4.109 9.442c-.094.879-.691 3.53-1.246 5.03-.555 1.5.367 1.2.969.993.601-.207 1.156-.32 2.586-.46 1.43-.138 4.57-1.204 9.093-3.095 4.524-1.894 8.22-6.093 9.282-7.039l.636-.554c1.88-1.645 11.688-10.066 13.38-11.871l.046-.047c1.79-1.887 5.203-4.278 6.649-5.262 1.453-.992 8.086-5.477 9.882-6.902 2.114-1.68 5.34-4.395 6.997-6.63-2.524.524-11.875 5.446-17.273 7.571C38.86 36.023 30.61 42.874 24.04 48.23c-6.176 5.023-8.493 10.246-16.38 15.973 6.762-5.309 9.387-10.602 15.962-16.375 7.21-6.328 14.777-12.242 23.602-15.914 5.527-2.297 11.129-5.754 16.805-7.418.785-.23 1.351.086 1.867-.14.582-.258 1.105-.383 1.558-.56.946-.37.72.071.649.255-.07.183-.461.898-.715 1.476-.238.547-3.191 5.762-3.543 6.442a16.264 16.264 0 013.477-2.637c.515-1.144 1.882-3.82 2.12-4.543.278-.832.602-.207.692.047.094.254.531 1.73.645 2.191.082.325.164.414.304.817.453-.133.91-.25 1.38-.348-.161-.512-.278-1.387-.423-2.074-.164-.785-.586-1.797-.945-2.285s0-1.14.066-1.536c.067-.39 3.82-9.335 3.82-9.335.09-.22-.183-.961-.644-1.309a.808.808 0 00-.398-.145zm1.898 16.703c-1.117.004-2.21.148-3.273.371-.469.098-.926.215-1.379.348-1.394.41-2.707.968-3.898 1.652a16.4 16.4 0 00-3.477 2.637c-.25.254-.508.504-.73.765-2.91 3.446-4.211 6.614-4.235 11.97 0 .027-.004.05-.004.077-.007 4.704 1.57 9.086 2.668 11.863 0 0 1.743 4.938 5.54 8.399 2.382 2.172 5.09 4.496 8.488 5.254 9.511 2.125 15.41-1.418 18.168-9.07 3.03-8.399.14-19.896-2.867-25.13-2.63-4.437-6.391-8.109-12.738-8.988a15.856 15.856 0 00-2.27-.148zm6.11 3.734c12.672 4.957 10.352 18.406 10.55 22.746-.503-6.894-1.355-18.125-10.55-22.742zm-14.598 1.02c1.054 0 2 .34 2.879.828-2.172 1.508-4.864 4.938-5.235 8.246-1.676-.95-2.812-1.906-3.441-3.105.738-2 2.484-4.664 4.285-5.743a5.273 5.273 0 011.508-.226zM49.036 42.1c-1.985.012-3.996.34-5.887.941-8.398 8.38-14.766 12.844-16.555 15.031 0 0-5.957 10.391-1.66 20.594 3.402 8.082 9.601 11.91 18.098 10.062 8.496-1.847 17.934-9.586 20.5-14.402 1.387-2.605 2.535-4.972 3.265-8.078-4.386-3.722-5.996-8.984-5.996-8.984-1.597-3.809-2.582-8.207-2.699-12.336-2.511-1.977-5.754-2.844-9.062-2.828zm-1.586 5.836c.523-.008 1.058.008 1.605.039-14.82.015-22.066 18.383-21.484 25.859-1.75-6.047 3.618-25.684 19.875-25.898z"
    fill="#3d3c3c" />
</svg>