<svg viewBox="10.985 9.99 78.046 80.42" width="78.046" height="80.42" xmlns="http://www.w3.org/2000/svg">
  <path
    d="M40.61 90.34v-.03c-.02-.07-.04-.14-.04-.22v-.06c0-.09 0-.19.03-.28 0-.03.02-.05.03-.07.02-.05.03-.11.06-.16 0-.02.03-.06.06-.11-4.49-.9-6.7-8.95-7.35-11.82-.21.03-.39.05-.49.06-.1.03-.27.09-.49.15.68 3.06 3.05 11.69 8.25 12.61-.01-.02-.03-.04-.04-.07zM48.88 61.65c.46 3.49-.25 6.23-1.6 8.38.87 1.73 2.1 3.22 3.43 4.5 1.55-3.99 2.7-8.77 2.84-14.28-1.88-.71-2.8-1.89-2.85-1.96-.1-.14-.16-.3-.18-.46a63.48 63.48 0 01-.4-4.26c-.74 1.21-1.42 2.45-2.04 3.71.32 1.39.59 2.85.8 4.37zM87.43 49.95c-2.24-6.39-5.15-10.62-4.19-14.7-2.93 3-8.06 2.81-14.66 4.35-2.12.49-4.05 1.18-5.83 2.03-.09 7.37-.05 13.66.11 14.37.25.91.05 1.86-.56 2.65-.54.7-1.34 1.24-2.35 1.6.14 2.5.04 4.88-.22 7.12 6.12-4.87 5.75-14.4 5.74-14.5-.01-.28.2-.51.48-.52.26 0 .51.2.52.48.02.46.44 10.97-6.92 15.93-.55 3.71-1.55 7.03-2.72 9.91.05-.05.12-.09.19-.11 19.69-5.67 17.92-28.16 17.9-28.39a.496.496 0 11.99-.09c.02.23 1.81 23.17-18.15 29.29.74.4 1.99 1.08 2.73 1.5l.25.14c.43.25.93.5 1.46.77 15-1.31 16.4-11.99 16.42-12.1.03-.28.28-.48.55-.44.27.03.47.28.44.55-.01.11-1.41 10.78-15.64 12.79 2.24.93 4.99 1.73 7.82 1.73 3.8 0 7.72-1.45 10.7-5.98 5.25-7.99 8.74-17.52 4.94-28.38z"
    fill="#3d3c3c" />
  <path
    d="M39.28 43.09c.56 7.51 2.21 12.61 3.24 15.79.43 1.34.75 2.31.82 3.01.08.74-.16 1.43-.67 2-.21.23-.47.44-.77.62.64 1.37 1.36 2.62 2.16 3.72.57.78 1.08 1.57 1.55 2.36 1.74-2.13 2.78-4.98 2.28-8.82-.9-6.8-3.16-13.61-8.61-18.69zM40.11 74.33a61.902 61.902 0 01-4.24-8.46c-.51.02-.99.03-1.41.03h-.66a.996.996 0 01-.76-.4c-5.66-7.52-5.82-19.23-4.95-27.73.05-.47.1-.93.16-1.39-2.32-1.2-4.12-2.38-5.09-4.23-.22 3.75-3.81 6.63-7.38 11.54-6.06 8.33-5.51 17.42-3.07 25.62 2.07 6.94 7.71 8.54 12.47 8.54 1.39 0 2.68-.14 3.81-.32-10.8-6.93-12.37-19.57-12.39-19.71-.03-.27.17-.52.44-.55.28-.04.52.17.55.44.02.13 1.64 13.04 12.88 19.55.07-.01.15-.03.22-.04.16-.04.33-.08.48-.11.95-.23 1.53-.43 1.53-.43s.06 0 .17-.02c-13.69-21.4-7.94-33.48-7.69-33.99.12-.25.42-.34.67-.22a.5.5 0 01.23.67c-.06.12-5.78 12.26 7.88 33.38.17-.03.35-.06.56-.1l.25-.05c1.44-.29 3.47-.83 5.51-1.77-.05-.08-.08-.16-.13-.24zM58.96 60.53c-.73.16-1.53.25-2.41.25-.75 0-1.4-.1-2-.24-.25 8.15-2.62 14.69-5.28 19.51.79 3.72.81 6.85.72 8.61 2.76-3.56 9.66-13.96 8.97-28.12zM51.52 57.69s1.53 2.08 5.03 2.08c3.98 0 5.8-1.83 5.34-3.51-.46-1.68-.1-33.87 1.02-39.36s-1.47-6.86-1.47-6.86-.2-.05-.53-.05c-1.27 0-4.46.67-6.03 7.06-1.98 8.09-5.19 26.44-3.36 40.63z"
    fill="#3d3c3c" />
  <path
    d="M43.26 68.82c-.84-1.14-1.58-2.45-2.25-3.86-1.2.48-2.69.73-4.09.84a59.96 59.96 0 004.05 8.01c4.94 8.24.58 16.18.58 16.18h7.32s1.55-11.38-5.61-21.18zM33.51 17.88c-1.93 4.34-10 33.3.32 47.02h.63c2.01 0 8.17-.22 7.89-2.91-.33-3.21-7.55-15.81-2.41-42.1 0 0 1.45-4.03-1.61-5 0 0-.43-.2-1.07-.2-1.02 0-2.57.51-3.76 3.18l.01.01z"
    fill="#3d3c3c" />
</svg>