<svg viewBox="6.375 6 88.999 78.503" width="88.999" height="78.503" xmlns="http://www.w3.org/2000/svg">
  <path
    d="M79.25 31.875c-.46.335-1.153.875-1.917 1.625-1.466 1.44-2.827 2.777-2.625 4.292.046.343.206.946.875 1.625a17.166 17.166 0 01-2.208 1.865c-2.195 1.558-3.343 1.591-5.406 3.156-.921.699-2.796 2.122-2.469 3.104.204.61 1.199.876 1.875.875.846-.001 1.395-.422 2.583-1.25.665-.464 1.701-1.174 3.042-2.042.133.467.431 1.221 1.125 1.625.37.216.948.387 3.5-.208a34.202 34.202 0 002.708-.75c.087.302.373 1.146 1.208 1.75 1.327.96 2.874.473 3.042.417a12.479 12.479 0 004.833 2.75c2.627.788 4.858.506 5.958.292a64.175 64.175 0 00-2.583 1.5c-4.768 2.92-8.362 5.184-9.333 8.875a7.681 7.681 0 00-.208 1.125c-.382.204-.919.512-1.531.938-1.038.721-1.15.986-1.188 1.094-.305.876.664 1.908.844 2.094a11.64 11.64 0 00-2.083.271c-1.543.344-3.274.729-3.625 1.854-.317 1.015.64 2.149.958 2.5a10.92 10.92 0 00-2.281.156c-1.35.237-2.256.397-2.813.938-2.053 1.993 1.378 8.454 1.656 8.969a20 20 0 001.844 2.813 40.18 40.18 0 00-4.406-1.656c-2.695-.835-3.721-.838-4.625-.438a3.797 3.797 0 00-1.219.875c-.021-.055-.559-1.389-1.906-1.594-.905-.137-1.591.324-1.75.438-.081-.054-1.139-.737-2.188-.281-1.002.436-1.581 1.732-1.188 3.031a16.44 16.44 0 00-2.531-2.469c-1.456-1.14-3.261-2.553-4.938-2.031a2.658 2.658 0 00-.906.5 58.45 58.45 0 00-3.125-5.333s-3.357-5.108-9.031-9.51c-.448-.348-1.293-.955-2.406-.969-.918.054-1.265.165-1.694.43-.572.289-6.154 8.083-6.154 8.083l-1.024-.706c4.138-4.825 6.409-8.784 6.355-9.101-.072-.419-.19-.831-.19-.831a12.85 12.85 0 00-.856-1.624c-.541-.869-2.092-3.288-5.167-4.729a11.652 11.652 0 00-5.083-1.083 2.373 2.373 0 00-.25-.594c-.482-.811-1.356-1.144-3.125-1.594a47.39 47.39 0 00-3.5-.75c.362-.191 1.365-.773 1.417-1.625.051-.847-.867-1.496-2.146-2.375a16.91 16.91 0 00-3.771-1.938c1.2-.414 2.058-1.181 2.083-2 .013-.434-.209-.8-.458-1.208a4.919 4.919 0 00-1.5-1.542c.176-.057 1.239-.415 1.563-1.375.358-1.061-.446-2.087-.781-2.516a4.092 4.092 0 00-1.094-.969c.133-.143.352-.406.516-.781.345-.79.429-2.041-1.984-6.484a56.999 56.999 0 00-1.594-2.75c.203.126 4.175 2.538 5.672 1.188a1.46 1.46 0 00.328-.438c.242.164.592.39 1.031.625.903.484 4.213 2.258 5.781 1.125 1.224-.884 1.422-3.565.063-6.25.605.204 2.416.73 3.625-.188.551-.418.857-1.091 1.469-2.438.369-.812.62-1.51.781-2 .208.346.411.434.542.458.653.124 1.295-.984 2.875-3.167a88.97 88.97 0 011.333-1.792c1.663-.823 2.457-1.8 2.875-2.542.371-.658.438-1.117 1-2.583A35.93 35.93 0 0134.875 6c-.119.567-.594 3.146 1 5.417a6.412 6.412 0 002 1.833c.226 1.899 1.244 3.248 2.375 3.375.233.026.625.018 1.125-.25a7.164 7.164 0 00-.125 3.042c.154.858.355 1.97 1.208 2.375.374.178.754.161 1 .125-1.442 8.445-1.254 10.705-.667 10.875.698.202 2.321-2.975 2.958-4.375.759-1.669.875-2.486 1.438-3.979.543-1.441 1.489-3.475 3.229-5.771.198.346.721 1.135 1.667 1.417 1.141.34 2.188-.268 2.875-.667a5.707 5.707 0 001.417-1.167 3.656 3.656 0 002.208.542c1.509-.126 2.385-1.18 2.542-1.375.294.303.746.684 1.375.917 2.041.754 4.266-.681 6.583-2.25a202.063 202.063 0 008.667-6.208 138.88 138.88 0 00-1.5 6.333c-.913 4.299-1.08 6.088-.042 7.417.423.541.931.859 1.292 1.042-1.588 1.19-2.162 3.234-1.458 4.875.073.17.156.327.247.473.97 1.557 2.857 1.845 2.961 1.859zM91.75 52s-3.422.896-8.604 2.023c-.646.141-1.319.285-2.016.43.031-.147.1-.463.211-.879.157-.572.409-1.327.759-2.038a8.707 8.707 0 011.177-1.841c.384-.462.68-.736.68-.736l-.039-.043s-.314.255-.732.698a9.306 9.306 0 00-1.325 1.798 6.835 6.835 0 00-.753 2.11c-.086.482-.094.83-.094.954a263.487 263.487 0 01-8.035 1.535c.097-.247.293-.749.533-1.418.082-.244.185-.475.309-.75.119-.267.256-.535.399-.815.279-.566.619-1.148.987-1.712a17.478 17.478 0 012.32-2.892c.715-.721 1.241-1.151 1.241-1.151l-.037-.045s-.543.411-1.289 1.109a18.27 18.27 0 00-2.459 2.829 16.419 16.419 0 00-1.03 1.726 16.1 16.1 0 00-.382.844c-.109.261-.224.536-.285.781a47.682 47.682 0 00-.435 1.516c-2.628.46-5.372.899-8.14 1.288.084-.319.275-.975.624-1.805.254-.584.58-1.255 1.032-1.906.436-.662.997-1.306 1.57-1.943l3.113-3.551 1.411-1.617-.043-.039-1.458 1.575c-.88.943-2.029 2.213-3.221 3.451-.584.63-1.161 1.279-1.619 1.958a10.352 10.352 0 00-1.447 3.489l-.076.406c-.195.027-.388.057-.583.084a245.48 245.48 0 01-8.822 1.067c.102-.336.312-.942.681-1.679a9.073 9.073 0 011.181-1.787c.496-.606 1.139-1.152 1.817-1.659 1.353-1.023 2.76-1.981 3.865-2.616 1.1-.645 1.863-1.021 1.863-1.021l-.026-.052s-.776.354-1.898.967c-1.128.606-2.568 1.523-3.965 2.505-.693.5-1.362 1.058-1.886 1.683a8.63 8.63 0 00-1.757 3.671c-3.804.392-7.379.68-10.381.863a261.49 261.49 0 01-7.92.374 112.018 112.018 0 012.751-3.416c1.81-2.164 3.948-4.628 6.182-7.305l.091.064c.238.167.593.38 1.038.603a8.534 8.534 0 003.526.882c1.332.015 2.634-.151 3.612-.294l1.622-.242-.008-.058-1.631.179c-.971.106-2.291.219-3.583.146-1.3-.067-2.544-.448-3.439-.829a13.972 13.972 0 01-1.144-.553c.237-.284.469-.558.708-.847l3.115-3.805.341.122a17.26 17.26 0 001.736.495c.728.17 1.586.338 2.515.45.931.093 1.929.144 2.928.114a23.608 23.608 0 005.403-.819c1.439-.398 2.356-.785 2.356-.785l-.021-.054s-.925.362-2.366.721a22.945 22.945 0 01-5.38.668 26.995 26.995 0 01-5.388-.513 33.933 33.933 0 01-2.044-.498l4.146-5.063.579.111c.545.105 1.329.232 2.273.354 1.886.266 4.423.479 6.964.47a64.451 64.451 0 006.966-.398c1.891-.213 3.141-.433 3.141-.433l-.009-.057s-1.253.194-3.144.369a62.31 62.31 0 01-6.951.25 82.425 82.425 0 01-6.94-.422c-1.31-.149-2.304-.279-2.795-.346l.423-.516 3.354-4.014c.452.034 1.5.098 2.899.101 1.89.027 4.416-.069 6.919-.378a67.161 67.161 0 006.823-1.199c1.841-.424 3.05-.778 3.05-.778l-.015-.056s-1.215.329-3.061.715c-1.844.39-4.327.806-6.826 1.05a87.936 87.936 0 01-6.891.423c-1.315.015-2.312.011-2.803.008l4.493-5.377 1.619-1.93.364.123c.335.11.822.242 1.417.355 1.187.238 2.828.318 4.425.049a14.458 14.458 0 004.194-1.39c1.075-.552 1.718-1.038 1.718-1.038l-.033-.048s-.656.464-1.739.977c-1.077.517-2.602 1.04-4.178 1.232-1.575.224-3.17.151-4.348-.018-.823-.119-1.44-.26-1.743-.335l5.249-6.256L76 12.625 69.106 20.6l-7.063 8.17c-.142-.63-.609-2.812-.808-5.036-.285-2.64.044-5.293.044-5.293l-.058-.008s-.109.657-.196 1.653a26.828 26.828 0 00-.06 3.667c.076 1.335.298 2.659.547 3.63.182.737.362 1.272.439 1.49l-4.875 5.662a31.33 31.33 0 01-.651-1.977c-.377-1.301-.776-3.069-.941-4.87a23.39 23.39 0 01.035-4.968c.153-1.352.356-2.239.356-2.239l-.057-.013s-.228.882-.42 2.236a24.197 24.197 0 00-.182 5.006c.127 1.825.537 3.622.982 4.919a18.02 18.02 0 00.798 2l-3.041 3.532a7492.05 7492.05 0 00-2.589 3.069 42.276 42.276 0 01-.636-3.008 31.91 31.91 0 01-.396-3.49c-.097-1.28-.07-2.652-.025-4.028.099-2.752.122-5.51.131-7.574l.028-3.443-.058-.001-.091 3.441-.093 3.527-.185 4.039c-.059 1.376-.094 2.761-.004 4.058.102 1.293.279 2.492.475 3.509.195 1.018.405 1.856.577 2.435l.193.634-4.044 4.793a27.55 27.55 0 01-.817-1.813c-.519-1.314-1.056-3.131-1.282-5.003-.224-1.874-.311-3.773-.276-5.191.029-1.42.126-2.364.126-2.364l-.058-.006s-.123.942-.19 2.366c-.072 1.425-.037 3.326.13 5.226.099.949.281 1.893.513 2.757.247.862.545 1.644.83 2.3a14.41 14.41 0 00.94 1.825l-1.187 1.406a321.383 321.383 0 01-2.534 2.932c-.409-.586-1.284-1.918-1.871-3.401a12.591 12.591 0 01-.795-2.832 12.177 12.177 0 01-.143-1.337l-.058.002s-.008.542.081 1.352c.087.809.298 1.882.664 2.912.367 1.028.907 1.992 1.398 2.646.245.335.466.595.626.772-1.596 1.826-3.117 3.543-4.461 5.102a109.267 109.267 0 00-3.519 4.291 252.244 252.244 0 01-1.941-19.889c.264-.077.768-.238 1.407-.504a15.841 15.841 0 003.266-1.847 19.644 19.644 0 002.784-2.507c.689-.755 1.092-1.304 1.092-1.304l-.045-.036s-.422.532-1.134 1.256a18.75 18.75 0 01-2.852 2.371c-1.824 1.266-3.857 2.163-4.524 2.443a215.553 215.553 0 01-.19-3.828c-.024-.562-.043-1.122-.063-1.683.19-.096.821-.43 1.645-.996a17.791 17.791 0 003.281-2.917 21.483 21.483 0 002.524-3.586c.585-1.044.893-1.779.893-1.779l-.053-.024s-.331.724-.946 1.742a20.738 20.738 0 01-2.619 3.466 25.04 25.04 0 01-3.221 2.904c-.725.545-1.285.921-1.51 1.068a257.466 257.466 0 01-.144-10.162c.196-.072.656-.253 1.244-.556.791-.395 1.79-1.045 2.679-1.819a17.444 17.444 0 002.217-2.357c.54-.697.85-1.196.85-1.196l-.048-.033s-.33.484-.896 1.152a16.516 16.516 0 01-2.294 2.225c-1.537 1.25-3.265 2.198-3.751 2.456a234.942 234.942 0 01.12-6.348c.096-.011.304-.042.574-.125a4.156 4.156 0 001.269-.649c.84-.625 1.401-1.499 1.401-1.499l-.047-.034s-.635.809-1.509 1.313c-.693.424-1.439.762-1.684.869.125-3.895.289-6.407.289-6.407s-.25 3.115-.448 7.798l-.032.821a7.338 7.338 0 01-.742-.158 5.836 5.836 0 01-1.694-.762 4.543 4.543 0 01-1.32-1.325 4.369 4.369 0 01-.404-.765l-.054.02s.098.34.354.807a4.871 4.871 0 001.268 1.481c.573.44 1.268.701 1.8.776.372.06.649.053.788.044a251.449 251.449 0 00-.173 7.724 23.8 23.8 0 01-1.154-.766 19.645 19.645 0 01-2.594-2.194c-.881-.87-1.63-1.87-2.123-2.66-.497-.79-.764-1.355-.764-1.355l-.052.025s.244.577.712 1.393a15.888 15.888 0 002.033 2.785 12.918 12.918 0 002.656 2.206c.612.383 1.091.61 1.286.698-.019 2.701.001 5.544.081 8.393.012.46.028.919.042 1.379a18.578 18.578 0 01-2.243-1.153 14.714 14.714 0 01-2.253-1.684c-.766-.681-1.469-1.538-2.152-2.407a34.902 34.902 0 01-1.916-2.625l-1.604-2.347-1.565-2.29-.048.032 1.512 2.326 1.55 2.384a35.371 35.371 0 001.858 2.687c.677.882 1.381 1.754 2.165 2.465a15.039 15.039 0 002.34 1.653 13.11 13.11 0 001.821.879l.539.196a252.747 252.747 0 001.108 16.739l-3.287-3.823-1.844-2.126c-.665-.755-1.393-1.513-2.148-2.3a269.912 269.912 0 00-4.866-4.792 536.754 536.754 0 00-9.313-8.755l-4.265-3.944-.04.042a20960.473 20960.473 0 007.049 6.666l-.639.203c-.465.143-1.08.341-1.707.507-1.247.367-2.559.449-2.559.449l.002.058s1.317.014 2.619-.245a8.118 8.118 0 001.73-.546c.317-.141.541-.267.652-.333a591.18 591.18 0 015.113 4.915c-.446.144-2.481.782-4.587 1.106-2.384.421-4.818.212-4.818.212l-.005.058s.603.078 1.515.118c.911.041 2.132.022 3.346-.121a15.91 15.91 0 003.268-.744 12.55 12.55 0 001.365-.548c.368.358.736.717 1.104 1.078a281.838 281.838 0 014.374 4.371c-.832.154-3.877.685-6.97.817a37.457 37.457 0 01-7.244-.342l-.009.057s.896.168 2.254.322c1.358.155 3.182.27 5.009.232a30.559 30.559 0 004.99-.52 26.34 26.34 0 002.065-.471c.115.118.24.241.354.359a75.938 75.938 0 012.168 2.262l1.831 2.057-2.146.063c-1.388.022-3.231.245-5.068.423-.922.096-1.833.218-2.7.26l-2.364.157-2.306.153.003.058 2.309-.09 2.367-.092c.866-.016 1.793-.11 2.712-.178l2.704-.24a52.262 52.262 0 012.356-.214l2.221-.202 3.425 3.812c.056.561.111 1.092.165 1.593a56.552 56.552 0 00-1.36-.32A93.194 93.194 0 0029 55.155l-5.659-.524-.006.058 5.614.731a92.14 92.14 0 003.828.741c.621.107 1.116.183 1.421.227.245 2.286.446 3.892.524 4.503-.225.298-.455.601-.647.865l-1.722 2.332a.516.516 0 00.105.624.52.52 0 00.703-.035c.55-.781 1.124-1.558 1.687-2.357.374-.53.839-1.158 1.343-1.825.445-.017 1.388-.057 2.735-.13.357.501 1.337 1.93 2.084 3.511.981 1.945 1.341 4.122 1.341 4.122l.057-.009s-.062-.544-.238-1.348a16.682 16.682 0 00-.915-2.877 12.609 12.609 0 00-1.511-2.618 11.006 11.006 0 00-.649-.79c.907-.049 1.983-.113 3.198-.194l.906.65c.811.596 2.001 1.408 3.392 2.423l3.094 2.273-.156.364c-.141.333-.32.818-.499 1.412-.369 1.184-.668 2.831-.688 4.485a19.22 19.22 0 00.496 4.508c.283 1.205.575 1.977.575 1.977l.055-.018s-.267-.779-.511-1.984a18.606 18.606 0 01-.346-4.471c.059-1.636.347-3.246.648-4.433.215-.847.418-1.476.518-1.772l1.566 1.15 2.024 1.454c-.009.316-.026 1.02-.028 1.956.024 1.3.271 3.013.732 4.673.229.829.5 1.644.754 2.406l.804 2.047.784 1.992.054-.02-.724-2.014-.74-2.061a45.399 45.399 0 01-.672-2.417 27.626 27.626 0 01-.754-4.609 74.788 74.788 0 00-.091-1.866l3.346 2.403c1.38.972 2.714 1.98 4.021 2.961-.034.037-.073.079-.125.141a3.29 3.29 0 00-.453.698c-.16.303-.273.725-.281 1.158-.005.434.046.887.12 1.334.15.893.433 1.755.645 2.391l.341 1.067.056-.016-.28-1.085-.285-1.108a16.54 16.54 0 01-.21-1.29 7.97 7.97 0 01-.087-1.287 2.651 2.651 0 01.201-1.069c.17-.429.355-.725.451-.866.44.33.89.671 1.321.987l2.277 1.695c-.026.121-.074.356-.121.675l-.102.79-.034.448c-.016.173-.007.313-.006.476.048 1.257.303 2.479.303 2.479l.057-.009s-.16-1.236-.091-2.47c.008-.147.002-.32.021-.45l.047-.446.042-.795a10.9 10.9 0 00.005-.606l2.33 1.735a24547.7 24547.7 0 014.614 3.435l.035-.046-4.576-3.486-4.69-3.573c-1.726-1.295-3.529-2.721-5.403-4.065l-5.458-3.988-4.797-3.428c-1.409-1.003-2.605-1.797-3.44-2.361l-.808-.544a257.878 257.878 0 0014.423-1.375l.365.464c.329.415.823.989 1.449 1.646a33.865 33.865 0 002.237 2.148 32.313 32.313 0 002.83 2.16 36.494 36.494 0 008.654 4.266l.019-.055s-1.142-.394-2.789-1.14a35.605 35.605 0 01-5.731-3.293 33.24 33.24 0 01-2.785-2.163 33.401 33.401 0 01-2.275-2.078 50.237 50.237 0 01-1.844-1.971 243.379 243.379 0 0010.649-1.549c.196.225.664.758 1.304 1.455l.694.749c.246.254.504.565.8.825a33.215 33.215 0 001.904 1.599 35.638 35.638 0 005.738 3.558l.026-.052s-.749-.388-1.828-1.045a34.105 34.105 0 01-3.77-2.673 34.615 34.615 0 01-1.869-1.609c-.305-.255-.541-.532-.806-.791l-.718-.726a77.844 77.844 0 00-1.338-1.313c2.33-.391 4.617-.807 6.799-1.233.087.176.307.595.66 1.123.461.708 1.187 1.575 2.033 2.323a15.66 15.66 0 003.747 2.434l.026-.052s-.501-.246-1.204-.694a14.883 14.883 0 01-2.386-1.886c-1.376-1.306-2.471-2.853-2.757-3.271a258.273 258.273 0 008.444-1.798c2.955-.68 5.816-1.396 8.577-2.135z"
    fill="#3d3c3c" />
</svg>