<svg viewBox="0 0 50 50" width="64" height="64" xmlns="http://www.w3.org/2000/svg">
   <path
      d="M23.333 0c-2.988 3.705-3.674 6.853-2 11.333 3.432-2.72 4.573-7.567 2-11.333M24 1.333c-.002 3.276.326 6.682-2.667 8.667l1.334-8.667H24m17.333 2L42 6h.667l.666-2.667h-2M30 4l.667.667L30 4M15.333 6c-.834 4.495-.908 8.29 4 10 1.253-4.239.727-8.64-4-10m1.334.667c2.397 2.834 2.664 5.048 2.666 8.666-3.617-1.743-5.04-5.191-2.666-8.666m18.666 0l-1.333 2 2.667.666-1.334-2.666M22 18c4.508-1.576 6.55-3.832 6.667-8.667C23.98 9.687 21.03 13.33 22 18m16.667-8.667l.666.667-.666-.667m7.333 0l-.667 2L46 12l2-.667V10l-2-.667M28 10c-.222 4.056-1.877 6.206-6 6.667.867-3.604 2.215-5.896 6-6.667m4.889 3.778l.222.444-.222-.444M12 15.333c.119 5.052 2.091 8.126 7.333 8.667-.122-5.066-2.456-7.494-7.333-8.667m30.667 0l.666.667-.666-.667m-24 8c-3.75-.758-5.58-2.89-6-6.666 3.981.536 5.734 2.722 6 6.666M20 16.667c0 14.443-4.494 23.694-16.667 32v.666c4.927-1.895 9.571-5.984 12-10.666H16l-.667 2c4.924 2.37 10.222 1.119 12.667-4-4.293-.797-7.36-.522-11.333 1.333l2-6h.666c3.258 4.61 9.513.528 11.334-3.333-4.83-.597-7.618.02-11.334 3.333.94-4.55 3.196-11.084.667-15.333m17.333.666v2L40 18.667l-2.667-1.334m-16 8c4.857 1.053 8.414-1.336 10-6-4.773.04-8.342 1.141-10 6M30 20c-1.113 3.871-4.133 5.386-8 4.667 1.815-3.317 4.292-4.474 8-4.667M9.333 22.667c.122 2.626 3.227 11.447 7.445 7.954 4.235-3.506-5.175-7.613-7.445-7.954m8 7.333c-4.59.884-6.896-2.434-7.333-6.667C14.057 24.31 16.076 26 17.333 30m16-6L34 26.667l2-2L33.333 24M40 24l.667.667L40 24m-10.667 5.333c-1.806 3.474-5.013 4.38-8.666 3.334 1.815-3.47 5.018-4.125 8.666-3.334M6 29.333c-1.049 5.051 2.587 8.474 7.333 9.334.83-5.336-2.413-8.15-7.333-9.334m-6 5.334c.048 5.328 1.874 9.24 7.333 10.666C7.29 40.095 5.807 35.445 0 34.667M16.667 38l-.667.667.667-.667M10 48c4.542 1.655 9.538 2.323 12-2.667C17.478 43.9 12.55 43.097 10 48z"
      fill="#65d0b2" />
</svg>