<svg xmlns="http://www.w3.org/2000/svg" width="52" height="72" fill="none">
  <path fill="#FFB172"
        d="M30.188 25.975a.482.482 0 0 0 .923.278c.34-1.134.238-2.705-.311-4.42-.468-1.459-1.263-3.036-2.386-4.542.59-.994.846-1.95.83-2.867-.016-1.01-.362-1.959-.955-2.847a.482.482 0 1 0-.803.535c.493.738.78 1.514.793 2.328a3.92 3.92 0 0 1-.196 1.27 4.828 4.828 0 0 0-.344-.76c-.346-.629-.838-1.298-1.33-1.944a.301.301 0 0 0-.479.365c.48.63.957 1.28 1.283 1.87.301.549.472 1.04.383 1.402a.497.497 0 0 1-.187.303.442.442 0 0 1-.067.038 5.332 5.332 0 0 1-.127.041 1.043 1.043 0 0 1-.229.02c-.586-.006-1.048-.67-1.603-1.466-.27-.388-.56-.804-.905-1.206a.3.3 0 0 0-.457.392c.325.378.607.782.87 1.16.353.507.675.97 1.04 1.287a3.03 3.03 0 0 1-1.021-.217c-.772-.308-1.425-.913-2.026-1.599a.481.481 0 0 0-.725.633c.69.788 1.453 1.487 2.392 1.863.882.352 1.896.417 3.112.002 1.045 1.408 1.785 2.878 2.22 4.236.49 1.527.591 2.894.305 3.845ZM26.273 9.954c.106-.162.203-.326.293-.497l.534.28a6.942 6.942 0 0 1-.32.545l-.507-.328ZM20.62 13.94c.186-.06.371-.127.555-.197l.216.564c-.193.074-.387.143-.582.207l-.19-.574Zm2.16-.939c.173-.095.343-.193.511-.295l.315.515c-.176.107-.354.21-.534.309l-.292-.529Zm1.942-1.325a9.15 9.15 0 0 0 .435-.391l.419.434c-.15.144-.304.284-.462.417l-.392-.46Zm4.563 24.54a.482.482 0 1 1-.05.96c-1.183-.062-2.627-.69-4.054-1.787-1.215-.934-2.43-2.215-3.468-3.782-1.135.219-2.121.136-2.98-.188-.945-.358-1.72-1.004-2.356-1.863a.482.482 0 1 1 .776-.574c.528.713 1.161 1.246 1.922 1.534.384.145.803.23 1.262.245a4.827 4.827 0 0 1-.598-.58c-.476-.54-.939-1.229-1.38-1.91a.301.301 0 1 1 .505-.327c.431.664.88 1.333 1.327 1.84.414.469.819.796 1.189.834a.497.497 0 0 0 .348-.073.44.44 0 0 0 .06-.05l.08-.106c.037-.06.07-.129.097-.209.192-.553-.276-1.213-.838-2.004-.273-.386-.567-.8-.828-1.26a.3.3 0 0 1 .523-.297c.246.434.531.836.797 1.21.358.505.684.964.86 1.414.111-.352.153-.696.141-1.033-.029-.831-.377-1.65-.819-2.447a.481.481 0 1 1 .841-.468c.508.916.908 1.87.944 2.88.033.95-.25 1.926-1.052 2.929.972 1.46 2.105 2.654 3.235 3.523 1.273.977 2.524 1.535 3.516 1.588ZM15.531 27.11c-.188.045-.375.08-.566.107l.083.598c.21-.03.415-.068.62-.117l-.137-.588Zm5.667-3.971c-.122.155-.246.307-.374.456l.458.394c.134-.157.264-.316.391-.478l-.475-.372Zm-1.616 1.715c-.148.13-.297.257-.45.38l.377.472c.16-.13.318-.262.472-.399l-.399-.453Zm-1.904 1.38a9.17 9.17 0 0 1-.515.275l.267.542c.186-.092.37-.19.549-.294l-.3-.524Zm11.18 11.54a.482.482 0 0 1 .437.857c-1.055.537-2.62.715-4.405.479-1.519-.202-3.212-.704-4.894-1.541-.873.756-1.769 1.178-2.674 1.326-.998.163-1.993-.01-2.973-.435a.482.482 0 1 1 .385-.885c.814.353 1.629.498 2.432.367.404-.066.81-.203 1.215-.418a4.822 4.822 0 0 1-.808-.204c-.681-.23-1.427-.595-2.15-.964a.301.301 0 1 1 .274-.536c.705.36 1.429.715 2.069.93.593.2 1.107.28 1.447.128.133-.06.22-.14.265-.238a.438.438 0 0 0 .026-.072l.018-.133a1.052 1.052 0 0 0-.021-.228c-.11-.576-.846-.913-1.728-1.317-.43-.197-.891-.409-1.347-.677a.3.3 0 0 1 .305-.519c.429.253.877.458 1.294.65.563.258 1.075.492 1.452.794-.08-.36-.215-.68-.394-.965-.44-.705-1.151-1.24-1.933-1.71a.481.481 0 1 1 .494-.826c.898.54 1.722 1.166 2.258 2.023.503.806.746 1.792.554 3.062 1.572.779 3.15 1.246 4.563 1.433 1.59.211 2.954.068 3.839-.382Zm-16.463-1.01a6.32 6.32 0 0 1-.437.376l.37.476c.167-.13.326-.266.48-.411l-.413-.44Zm2.92-6.272c-.026.195-.058.388-.095.582l.594.112c.038-.203.071-.406.1-.61l-.598-.084Zm-.54 2.293c-.063.187-.13.371-.2.555l.563.219c.074-.193.143-.386.209-.581l-.572-.193Zm-.96 2.146a9.136 9.136 0 0 1-.308.497l.502.335c.115-.172.225-.35.329-.529l-.522-.303Zm15.453 4.405a.482.482 0 0 1 .808.524c-.646.993-1.912 1.93-3.576 2.617-1.416.585-3.134.997-5.01 1.112-.377 1.092-.942 1.905-1.652 2.486-.783.64-1.73.988-2.792 1.109a.482.482 0 1 1-.11-.959c.882-.1 1.66-.383 2.29-.898.318-.26.6-.58.844-.97-.24.095-.511.169-.802.228-.705.142-1.533.199-2.344.24a.301.301 0 0 1-.03-.6c.79-.042 1.594-.096 2.256-.23.613-.124 1.1-.31 1.317-.612a.497.497 0 0 0 .111-.339.434.434 0 0 0-.014-.076 5.486 5.486 0 0 0-.05-.123 1.043 1.043 0 0 0-.133-.188c-.384-.443-1.189-.367-2.155-.276-.47.044-.976.091-1.505.087a.3.3 0 1 1 .005-.602c.497.004.988-.042 1.446-.085.616-.057 1.177-.11 1.654-.037a3.034 3.034 0 0 0-.824-.64c-.734-.39-1.617-.498-2.53-.513a.481.481 0 1 1 .016-.963c1.047.018 2.074.149 2.967.624.839.445 1.543 1.178 2.01 2.374 1.752-.111 3.351-.495 4.67-1.04 1.482-.613 2.591-1.418 3.133-2.25Zm-14.762 7.357a6.283 6.283 0 0 1-.19.543l.559.227c.079-.196.148-.393.209-.595l-.578-.175Zm-.607-6.893c.074.183.143.366.208.552l.57-.2c-.068-.194-.14-.387-.218-.578l-.56.226Zm.678 2.257c.04.193.074.386.104.58l.597-.092a13.907 13.907 0 0 0-.109-.607l-.592.119Zm.243 2.338c0 .194-.007.39-.02.584l.603.04c.013-.207.02-.416.02-.623l-.603-.001Zm15.584-3.911a.482.482 0 0 1 .962.05c-.063 1.183-.69 2.627-1.788 4.054-.934 1.215-2.216 2.43-3.782 3.468.218 1.134.136 2.12-.189 2.979-.357.945-1.004 1.72-1.863 2.356a.483.483 0 0 1-.574-.776c.713-.527 1.246-1.16 1.534-1.922.145-.383.23-.803.245-1.262a4.82 4.82 0 0 1-.58.598c-.54.476-1.228.939-1.91 1.381a.301.301 0 0 1-.327-.506c.664-.43 1.333-.88 1.84-1.326.469-.415.796-.82.834-1.19a.497.497 0 0 0-.073-.348.44.44 0 0 0-.05-.059 5.293 5.293 0 0 0-.106-.081 1.04 1.04 0 0 0-.208-.096c-.554-.192-1.213.276-2.005.837-.385.274-.8.567-1.26.828a.3.3 0 1 1-.296-.523c.433-.245.835-.53 1.21-.797.504-.358.964-.683 1.413-.86a3.032 3.032 0 0 0-1.033-.14c-.83.028-1.65.376-2.447.819a.481.481 0 0 1-.468-.841c.916-.508 1.87-.908 2.88-.944.95-.033 1.926.25 2.93 1.051 1.46-.972 2.654-2.104 3.523-3.234.978-1.273 1.535-2.524 1.588-3.516ZM21.3 54.237c.044.187.08.375.106.566l.598-.083a6.87 6.87 0 0 0-.116-.62l-.588.137Zm-3.973-5.666c.156.121.307.245.457.373l.394-.457a13.272 13.272 0 0 0-.479-.392l-.372.476Zm1.716 1.615c.13.148.257.298.38.451l.472-.378c-.13-.16-.262-.318-.399-.472l-.453.4Zm1.38 1.904c.097.168.189.341.275.515l.542-.267a9.856 9.856 0 0 0-.294-.549l-.524.3Zm11.54-11.179a.481.481 0 1 1 .859-.437c.536 1.055.715 2.62.478 4.404-.201 1.52-.703 3.213-1.541 4.895.756.873 1.178 1.768 1.326 2.674.163.997-.01 1.992-.435 2.971a.482.482 0 1 1-.885-.384c.354-.814.498-1.629.367-2.432a3.921 3.921 0 0 0-.418-1.215c-.039.256-.11.527-.204.808-.23.681-.595 1.427-.963 2.15a.301.301 0 0 1-.537-.274c.36-.705.715-1.429.93-2.068.2-.594.28-1.108.128-1.447a.497.497 0 0 0-.238-.266.434.434 0 0 0-.072-.025 5.164 5.164 0 0 0-.133-.018 1.045 1.045 0 0 0-.228.02c-.576.111-.913.846-1.317 1.728-.198.43-.41.891-.677 1.347a.3.3 0 0 1-.519-.304c.253-.43.458-.878.65-1.295.258-.563.492-1.075.794-1.452-.36.08-.68.215-.966.394-.704.441-1.24 1.151-1.71 1.933a.481.481 0 0 1-.825-.494c.54-.898 1.165-1.721 2.023-2.257.806-.504 1.792-.747 3.062-.554.78-1.572 1.246-3.15 1.434-4.563.21-1.59.068-2.954-.383-3.839Zm-1.009 16.462c.133.14.257.285.376.437l.476-.371a6.914 6.914 0 0 0-.411-.479l-.44.413Zm-6.273-2.92c.195.026.389.058.582.094l.112-.593a13.369 13.369 0 0 0-.61-.1l-.084.598Zm2.294.54c.186.063.371.13.555.2l.218-.563a13.769 13.769 0 0 0-.58-.21l-.193.573Zm2.146.959c.168.097.335.201.497.309l.335-.502a9.785 9.785 0 0 0-.529-.329l-.303.522Zm4.405-15.45a.481.481 0 1 1 .525-.808c.992.645 1.929 1.911 2.616 3.575.586 1.416.998 3.134 1.113 5.009 1.092.378 1.905.942 2.486 1.653.64.782.988 1.73 1.109 2.79a.482.482 0 0 1-.959.11c-.1-.881-.383-1.66-.898-2.29a3.92 3.92 0 0 0-.97-.842c.095.24.169.51.228.802.142.704.199 1.532.24 2.343a.301.301 0 1 1-.6.03c-.042-.79-.096-1.594-.23-2.256-.124-.613-.31-1.099-.612-1.317a.498.498 0 0 0-.339-.11.441.441 0 0 0-.076.014 4.897 4.897 0 0 0-.124.05 1.04 1.04 0 0 0-.187.132c-.443.384-.367 1.19-.277 2.155.044.47.092.976.087 1.505a.3.3 0 1 1-.601-.005c.004-.497-.042-.988-.085-1.446-.058-.616-.11-1.176-.037-1.654a3.03 3.03 0 0 0-.64.824c-.39.734-.498 1.617-.514 2.53a.481.481 0 0 1-.962-.016c.018-1.047.148-2.073.623-2.967.446-.839 1.179-1.542 2.375-2.01-.112-1.751-.496-3.35-1.04-4.668-.613-1.483-1.418-2.592-2.25-3.134Zm7.358 14.76c.185.056.364.119.543.19l.228-.559a6.899 6.899 0 0 0-.596-.209l-.175.578Zm-6.893.607c.182-.074.366-.143.551-.209l-.2-.57c-.194.07-.386.141-.577.219l.226.56Zm2.256-.678c.194-.04.387-.074.581-.104l-.092-.597c-.204.032-.406.068-.608.109l.12.592Zm2.339-.243c.194 0 .39.007.584.02l.04-.603a9.782 9.782 0 0 0-.623-.02l-.001.603Zm-3.912-15.583a.481.481 0 1 1 .051-.962c1.182.063 2.627.691 4.054 1.788 1.215.934 2.43 2.216 3.468 3.782 1.135-.218 2.121-.136 2.98.189.944.357 1.72 1.004 2.355 1.862a.482.482 0 1 1-.775.574c-.528-.713-1.161-1.245-1.922-1.533a3.918 3.918 0 0 0-1.262-.246c.202.161.401.358.598.581.475.539.938 1.228 1.38 1.91a.301.301 0 0 1-.505.327c-.431-.665-.88-1.334-1.327-1.84-.414-.47-.819-.797-1.189-.834a.498.498 0 0 0-.349.073.428.428 0 0 0-.058.05c-.028.035-.056.07-.082.106a1.04 1.04 0 0 0-.096.208c-.192.553.276 1.213.837 2.005.274.385.568.799.829 1.26a.3.3 0 1 1-.524.296c-.245-.433-.53-.835-.796-1.21-.359-.505-.684-.964-.86-1.414a3.035 3.035 0 0 0-.142 1.033c.03.831.377 1.65.82 2.448a.481.481 0 1 1-.841.468c-.508-.917-.908-1.87-.944-2.881-.033-.95.25-1.926 1.051-2.929-.972-1.46-2.104-2.653-3.235-3.522-1.272-.978-2.524-1.536-3.516-1.589Zm13.753 9.105c.188-.044.376-.08.567-.107l-.084-.598a6.94 6.94 0 0 0-.62.117l.137.588ZM42.76 52.44c.121-.155.246-.306.374-.456l-.458-.393c-.134.156-.265.315-.392.478l.476.371Zm1.616-1.715c.147-.13.297-.257.45-.38l-.378-.471c-.16.129-.317.262-.472.398l.4.453Zm1.903-1.379c.169-.097.342-.19.516-.276l-.267-.541c-.186.092-.37.19-.55.293l.301.524ZM35.1 37.807a.482.482 0 0 1-.436-.858c1.055-.537 2.62-.715 4.404-.478 1.52.201 3.213.703 4.895 1.54.873-.756 1.769-1.178 2.674-1.325.998-.163 1.992.009 2.972.435a.482.482 0 1 1-.384.885c-.814-.354-1.629-.499-2.432-.368-.405.066-.81.203-1.215.419.255.038.526.11.808.204.681.229 1.427.594 2.15.963a.301.301 0 1 1-.274.536c-.705-.36-1.429-.715-2.069-.93-.593-.199-1.107-.28-1.447-.128a.497.497 0 0 0-.265.238.438.438 0 0 0-.026.073 5.16 5.16 0 0 0-.018.132c-.002.07.005.145.021.228.11.576.846.913 1.728 1.318.43.197.89.408 1.347.676a.3.3 0 1 1-.305.519c-.429-.252-.877-.458-1.295-.65-.562-.257-1.074-.492-1.451-.794.079.36.215.68.394.966.44.705 1.151 1.24 1.933 1.71a.481.481 0 1 1-.494.825c-.898-.54-1.722-1.165-2.258-2.023-.504-.806-.747-1.792-.554-3.062-1.572-.779-3.15-1.246-4.563-1.433-1.59-.21-2.954-.068-3.84.382Zm16.464 1.01c.14-.133.285-.257.437-.376l-.371-.477a6.94 6.94 0 0 0-.479.412l.413.44Zm-2.921 6.272c.027-.195.06-.389.095-.582l-.593-.112c-.038.202-.071.405-.1.61l.598.084Zm.541-2.294c.063-.186.13-.371.2-.555l-.563-.218c-.074.192-.144.385-.21.58l.573.193Zm.96-2.146c.096-.168.2-.335.308-.496l-.502-.336a9.76 9.76 0 0 0-.329.529l.522.303ZM34.69 36.245a.482.482 0 1 1-.808-.525c.646-.992 1.912-1.93 3.576-2.616 1.416-.586 3.134-.997 5.01-1.113.377-1.092.942-1.905 1.652-2.485.782-.64 1.73-.988 2.791-1.11a.482.482 0 1 1 .11.96c-.882.1-1.66.382-2.29.897-.317.26-.6.58-.843.97a4.82 4.82 0 0 1 .802-.227c.705-.143 1.532-.2 2.344-.242a.301.301 0 0 1 .03.602c-.79.041-1.595.095-2.256.23-.614.123-1.1.31-1.317.611a.497.497 0 0 0-.111.34c.002.024.007.05.014.075l.05.124c.033.06.077.123.133.187.383.443 1.189.367 2.155.277.47-.044.976-.092 1.505-.088a.3.3 0 0 1-.005.602c-.498-.004-.989.042-1.446.085-.616.058-1.177.11-1.654.037.248.273.526.481.824.64.734.39 1.617.498 2.529.514a.481.481 0 1 1-.015.962c-1.048-.018-2.074-.149-2.967-.623-.84-.446-1.543-1.179-2.01-2.375-1.752.112-3.352.496-4.67 1.04-1.482.613-2.592 1.418-3.133 2.25Zm14.762-7.357a6.33 6.33 0 0 1 .19-.544l-.559-.227a6.899 6.899 0 0 0-.209.595l.578.176Zm.607 6.892a12.766 12.766 0 0 1-.209-.552l-.57.2c.069.195.142.387.219.578l.56-.226Zm-.678-2.256a13.448 13.448 0 0 1-.105-.581l-.596.092c.032.204.068.406.109.608l.592-.12Zm-.243-2.338c0-.195.007-.391.02-.585l-.604-.04c-.013.207-.02.416-.02.623l.604.002Zm-15.584 3.91a.482.482 0 0 1-.962-.05c.063-1.182.69-2.627 1.788-4.053.934-1.216 2.215-2.43 3.782-3.468-.219-1.135-.136-2.121.188-2.98.358-.944 1.005-1.72 1.863-2.355a.482.482 0 0 1 .575.775c-.713.528-1.246 1.161-1.534 1.922a3.92 3.92 0 0 0-.246 1.262c.161-.202.358-.402.581-.598.539-.476 1.228-.938 1.91-1.38a.301.301 0 0 1 .327.505c-.665.431-1.334.88-1.84 1.327-.47.414-.797.819-.835 1.189a.498.498 0 0 0 .074.348c.014.02.031.04.05.059l.106.082c.058.036.128.068.208.096.553.192 1.213-.276 2.005-.838.385-.273.799-.567 1.26-.828a.3.3 0 0 1 .296.523c-.433.246-.835.531-1.21.797-.505.358-.964.684-1.414.86.352.111.696.153 1.033.141.832-.03 1.65-.377 2.448-.82a.481.481 0 0 1 .468.842c-.916.508-1.87.908-2.881.943-.95.034-1.926-.25-2.929-1.05-1.46.971-2.654 2.104-3.523 3.234-.978 1.272-1.536 2.524-1.588 3.515Zm9.105-13.751a6.285 6.285 0 0 1-.107-.566l-.598.083c.03.209.069.414.117.62l.588-.137Zm3.972 5.665a12.955 12.955 0 0 1-.456-.373l-.394.458c.157.134.316.264.478.391l.372-.476Zm-1.715-1.615c-.13-.148-.257-.297-.381-.45l-.47.378c.129.16.261.317.398.471l.453-.399Zm-1.38-1.903a9.137 9.137 0 0 1-.276-.516l-.541.267c.092.186.19.37.294.55l.523-.301Zm-6.579-5.793a.482.482 0 0 1-.858.437c-.537-1.055-.715-2.62-.479-4.404.202-1.52.704-3.212 1.542-4.894-.757-.873-1.179-1.769-1.327-2.674-.162-.997.01-1.992.436-2.972a.482.482 0 0 1 .885.385c-.354.813-.499 1.628-.368 2.431.066.405.203.81.419 1.216a4.82 4.82 0 0 1 .204-.809c.229-.681.594-1.426.963-2.15a.301.301 0 0 1 .536.274c-.36.706-.715 1.43-.93 2.069-.199.593-.28 1.107-.128 1.447.06.133.14.22.238.265a.44.44 0 0 0 .073.026l.132.018c.07.002.145-.005.228-.021.576-.11.913-.846 1.318-1.728.197-.43.408-.89.677-1.347a.3.3 0 0 1 .518.305c-.252.43-.458.877-.65 1.295-.257.562-.492 1.074-.794 1.451.36-.079.68-.215.966-.394.705-.44 1.24-1.15 1.71-1.933a.481.481 0 0 1 .826.494c-.54.899-1.166 1.722-2.024 2.258-.805.504-1.792.747-3.062.554-.779 1.572-1.246 3.15-1.433 4.563-.211 1.59-.068 2.953.382 3.838Zm1.01-16.461A6.28 6.28 0 0 1 37.59.8l-.477.37c.13.167.267.326.412.48l.44-.413Zm6.272 2.92c-.195-.027-.388-.059-.582-.095l-.112.593c.203.038.406.072.61.1l.084-.598Zm-2.293-.54c-.187-.063-.372-.13-.555-.2l-.22.562c.193.074.386.144.582.21l.193-.573Zm-2.146-.96a9.126 9.126 0 0 1-.497-.308l-.336.502c.173.115.35.225.53.329l.303-.522ZM27.199 56.005a.482.482 0 0 1 .766.585c-3.698 4.831-7.904 8.451-12.468 10.88-4.685 2.492-9.743 3.728-15.014 3.728a.483.483 0 0 1 0-.966c5.113 0 10.019-1.199 14.561-3.616 4.445-2.364 8.545-5.895 12.155-10.61Z"/>
</svg>
