<svg viewBox="0 0 50 50" width="64" height="64" xmlns="http://www.w3.org/2000/svg">
   <path
      d="M20 7.333h.667L24 .667l-1.333 8.666L21.333 8h-.666l.666 2.667C24.633 7.828 25.205 4.077 24 0c-2.993 1.566-3.715 4.094-4 7.333m21.333-4.666L42 5.333h.667l.666-2.666h-2m-26 2.666c-.834 4.495-.908 8.29 4 10 1.234-4.175.644-8.633-4-10m19.334 1.334v2h2v-2h-2M22 17.333c4.508-1.576 6.55-3.831 6.667-8.666-4.963.374-7.13 3.919-6.667 8.666m23.333-8L48 10.667l-2.667-1.334m-33.333 6c.251 4.59 2.69 7.483 7.333 8-.119-4.926-2.264-7.722-7.333-8m8.222 1.111l.222.445-.222-.445m17.111.223v2h2v-2h-2m-16 8c4.79.786 7.766-1.04 10-5.334-4.544-1.246-8.475.888-10 5.334M20 21.333C19.9 33.312 12.806 41.537 3.333 48v.667C11.54 44.767 24.317 31.644 20 21.333M9.333 22c.135 2.591 3.293 11.394 7.445 7.955 4.297-3.559-5.276-7.5-7.445-7.955m24 1.333L34 26h.667l.666-2.667h-2m-14 9.334c4.97.919 8.996.29 11.334-4.667-4.945 0-8.76-.176-11.334 4.667M6 28.667c-.519 5.31 2.337 8.132 7.333 9.333.791-5.268-2.486-8.168-7.333-9.333M0 34c.114 5.352 1.975 9.074 7.333 10.667C7.29 39.552 5.647 34.872 0 34m15.333 6c4.924 2.37 10.222 1.12 12.667-4-5.18-.962-9.61-.812-12.667 4M10 47.333c4.474 1.631 9.551 2.233 12-2.666-4.445-1.41-9.487-2.137-12 2.666z"
      fill="#9a133d" />
</svg>