<svg viewBox="17.644 5.1 65.141 89.9" width="65.141" height="89.9" xmlns="http://www.w3.org/2000/svg">
  <path
    d="M26.321 53.044c4.194.48 6.924 2.953 8.565 5.136-.174 1.543 1.005 3.695 1.53 3.695.031 0 .347-2.226.552-3.748l.006-.038c.296-2.16 1.185-5.237 3.708-7.681a18.32 18.32 0 001.268 2.675c-.408-.124-.811-.252-1.253-.349-.27-.058-.639-.087-.869.063-.232.152-.307.472-.359.744a11.196 11.196 0 00.709 6.67 13.533 13.533 0 00-2.423 4.959 13.568 13.568 0 00-5.676-3.75c-.606-.442-5.393-4.058-5.758-8.376zm16.064 19.841c-1.088 2.796-.443 5.831.162 7.638a11.7 11.7 0 003.478-3.994 14.499 14.499 0 01-3.64-3.644zm-1.126-10.657c-.084.129-.172.258-.249.388.198.027.394.057.587.09-.113-.157-.227-.31-.338-.478zM30.59 52.131c.024.019.035.047.056.068 2.023.897 3.586 2.201 4.729 3.43.466-1.727 1.293-3.648 2.722-5.426.27-.676 2.058-5.478.203-9.848-4.181 2.7-4.359 10.687-4.925 10.687-.561 0-1.288-2.178-1.095-3.505-1.476-1.857-3.691-3.859-6.515-4.109.414 5.078 4.778 8.665 4.825 8.703zm7.793 19.033c-.5 0-1.152-1.888-1.065-3.245-.776-2.253-5.859-5.528-9.284-5.214.889 5.402 6.297 7.676 6.356 7.716 2.501.543 4.331 1.76 5.643 3.105a9.95 9.95 0 011.116-2.779c-.649-1.363-1.163-2.957-1.459-4.819-.533 2.264-1.257 5.236-1.307 5.236zm1.241 5.078c-2.015-2.885-4.975-4.247-8.809-4.052 2.518 6.779 7.382 8.337 9.686 8.69-.383-1.203-.749-2.793-.771-4.538-.034-.035-.077-.058-.106-.1zm10.577-37.237c.437-.75.974-1.535 1.624-2.276 1.133-2.312.828-7.825-2.103-10.78-2.924 3.44-2.093 8.903-1.887 10.008.982.933 1.763 2.002 2.366 3.048zm19.61 4.219c1.462-2.099 2.397-7.458.538-10.977-3.675 2.646-4.164 8.14-4.227 9.266.733 1.144 1.236 2.374 1.572 3.537a14.244 14.244 0 012.117-1.826zM50.184 59.772c.909-1.699 2.363-3.597 4.652-5.061.545-.654 4.234-5.27 3.57-9.493-3.959 1.469-6.021 4.515-7.093 7.027.54 1.462.439 3.745-.121 3.829 0 0-1.679-3.549-1.691-3.58-.919-2.412-3.272-5.704-7.51-7.278-.667 4.227 3.034 8.853 3.57 9.497 2.249 1.446 3.693 3.323 4.623 5.059zM32.823 45.06c.336-1.145.834-2.35 1.549-3.471 0-1.838-.554-6.66-4.227-9.308-2.127 3.545-.561 9.387.523 10.924.824.573 1.544 1.22 2.155 1.855zm17.386 4.78c.837-1.49 2.08-3.163 3.892-4.557.432-.604 3.307-4.835 2.55-9.517-2.673.916-4.341 3.387-5.332 5.539.478 1.189.504 3.276-.047 3.406-.554.131-2.842-7.319-7.53-8.941-.756 4.671 2.081 8.858 2.539 9.496 1.798 1.368 3.062 3.018 3.928 4.574zm4.894 13.854c.561-.458 4.066-4.069 3.954-8.676-4.658 1.395-6.796 4.642-7.782 7.313.391 2.413-.46 3.401-.492 3.401-.522 0-1.868-8.436-9.448-10.713-.151 1.878.915 7.136 4.189 8.856.055.029 2.809 1.946 3.734 3.263.257.366.476.743.677 1.125.997-1.713 2.603-3.435 5.168-4.569zM41.59 64.779c.32 6.554 4.657 9.562 6.122 10.458a11.503 11.503 0 001.505.779c.176-1.88.15-5.159-1.645-7.709-1.284-1.82-3.293-3.005-5.982-3.528zm21.583 3.145c-.381 2.473-1.163 3.237-1.214 3.229-.56-.082-.589-3.308-1.339-5.874-.26 2.029-.781 3.724-1.451 5.159a9.887 9.887 0 011.29 3.089c1.313-1.345 3.143-2.563 5.645-3.106.06-.041 5.486-2.352 6.359-7.717-1.682-.076-6.647.702-9.29 5.22zm2.432-9.762c-.261 2.307-1.002 3.691-1.033 3.688-.565-.052-.453-7.33-4.831-11.516-.368.997-.82 1.917-1.28 2.72.396-.119.807-.226 1.234-.32.271-.059.621-.072.852.079.232.152.323.456.376.727a11.192 11.192 0 01-.674 6.59 13.584 13.584 0 012.485 5.046 13.56 13.56 0 015.669-3.751c.505-.367 5.398-4.031 5.769-8.391-4.197.48-6.927 2.946-8.567 5.128zm2.623-10.622c.18 1.27-.315 3.318-.86 3.296-.566-.005-1.01-7.786-5.173-10.481-1.847 4.353-.082 9.133.198 9.837 1.432 1.781 2.261 3.706 2.727 5.436 1.143-1.229 2.706-2.534 4.728-3.431.022-.021.032-.048.056-.067.047-.038 4.411-3.614 4.824-8.693-2.814.25-5.024 2.251-6.5 4.103zm-7.484 28.822c-.028 1.747-.393 3.337-.764 4.52 2.305-.352 7.178-1.906 9.699-8.691-5.721-.007-8.893 4.129-8.935 4.171zm-2.125-11.619c-2.536.432-5.119 1.632-7.695 6.135.403 1.625.462 3.2.403 4.457 2.407-.986 6.496-3.657 7.292-10.592zM54.264 76.11a11.607 11.607 0 003.679 4.411c.62-1.856 1.314-5.089.031-7.991a13.13 13.13 0 01-3.71 3.58zm4.917-13.956c-.108.166-.218.319-.328.474.191-.03.382-.06.581-.084-.078-.131-.167-.26-.253-.39zm-16.907-30.59l.063-.002c.565-.034.997-.52.962-1.087l-.986-16.395c-.034-.566-.531-.982-1.087-.963-.565.034-.997.52-.962 1.087l.987 16.395c.032.544.484.965 1.023.965zm7.488-7.987l.063.001a1.026 1.026 0 001.021-1.032l-.077-16.424c-.003-.567-.476-1.01-1.032-1.022a1.026 1.026 0 00-1.021 1.032l.078 16.424c.003.546.431.991.968 1.021zm7.848 7.983l.067.002c.536 0 .989-.417 1.024-.96l1.063-16.392a1.028 1.028 0 00-.958-1.091 1.038 1.038 0 00-1.091.958l-1.063 16.392a1.027 1.027 0 00.958 1.091zm4.877 4.51a1.029 1.029 0 001.174-.855l2.564-16.314a1.028 1.028 0 00-.855-1.174 1.03 1.03 0 00-1.174.855l-2.564 16.314c-.087.56.295 1.086.855 1.174zm8.15-5.175a1.027 1.027 0 001.249-.742l4.076-16.003a1.028 1.028 0 00-1.991-.507l-4.076 16.003c-.139.55.192 1.109.742 1.249zm11.451-9.304a1.026 1.026 0 00-1.302.643l-5.311 15.637a1.027 1.027 0 001.945.659l5.311-15.637a1.029 1.029 0 00-.643-1.302zM38 36.057a1.026 1.026 0 001.012-1.205l-2.868-16.263a1.021 1.021 0 00-1.189-.832 1.026 1.026 0 00-.832 1.189l2.868 16.263c.086.498.519.848 1.009.848zm-8.227-5.155a1.025 1.025 0 00.905-1.286l-4.241-15.961a1.02 1.02 0 00-1.255-.728 1.025 1.025 0 00-.728 1.255l4.241 15.961c.13.489.591.8 1.078.759zm-5.324 8.246c.535-.187.818-.772.632-1.307L19.64 22.249a1.03 1.03 0 00-1.307-.632 1.028 1.028 0 00-.632 1.307l5.441 15.592a1.027 1.027 0 001.307.632zM44.752 95l-1.821-12.314c-.104-.543-.625-.839-1.171-.729-.542.104-.897.535-.792 1.077L42.716 95h2.036zm12.393 0l1.748-11.936c.105-.542-.25-1.004-.792-1.108-.547-.105-1.066.156-1.171.698L55.109 95h2.036zM51 95V79a1 1 0 10-2 0v16h2z"
    fill="#3d3c3c" />
</svg>