<svg id="layer" xmlns="http://www.w3.org/2000/svg" viewBox="0 0 85 85"><defs><style>.cls-1{fill:#37b0e5;}.cls-2{fill:#fff;}</style></defs><circle class="cls-1" cx="42.5" cy="42.5" r="38"/><path class="cls-2" d="M40.42,47.94a9.34,9.34,0,0,1-3.07,6.48,10.4,10.4,0,0,1-7.11,2.33,10.15,10.15,0,0,1-5.47-1.47,9.7,9.7,0,0,1-3.65-4.18,15.13,15.13,0,0,1-1.33-6.3V42.38a15.21,15.21,0,0,1,1.3-6.48,9.81,9.81,0,0,1,3.74-4.31,10.4,10.4,0,0,1,5.62-1.52,10,10,0,0,1,6.92,2.33A9.69,9.69,0,0,1,40.42,39H35.93a6.42,6.42,0,0,0-1.64-4,5.36,5.36,0,0,0-3.84-1.24,5.28,5.28,0,0,0-4.52,2.15,10.76,10.76,0,0,0-1.61,6.31v2.3a11.47,11.47,0,0,0,1.5,6.43,5,5,0,0,0,4.42,2.21,5.8,5.8,0,0,0,4-1.19,6.26,6.26,0,0,0,1.7-4Z"/><path class="cls-2" d="M65.17,44.09a16,16,0,0,1-1.32,6.7,9.94,9.94,0,0,1-3.77,4.42,11.08,11.08,0,0,1-11.27,0A10,10,0,0,1,45,50.81a15.34,15.34,0,0,1-1.37-6.58V42.77A15.72,15.72,0,0,1,45,36.07a10.07,10.07,0,0,1,3.8-4.46A11.07,11.07,0,0,1,60,31.6,10,10,0,0,1,63.82,36a15.78,15.78,0,0,1,1.35,6.67Zm-4.51-1.36A11.32,11.32,0,0,0,59,36.12a5.76,5.76,0,0,0-9.2,0,11.18,11.18,0,0,0-1.69,6.48v1.5a11.3,11.3,0,0,0,1.67,6.62A5.38,5.38,0,0,0,54.44,53a5.31,5.31,0,0,0,4.61-2.28c1.07-1.52,1.61-3.75,1.61-6.67Z"/></svg>