<svg id="layer" xmlns="http://www.w3.org/2000/svg" viewBox="0 0 85 85"><defs><style>.cls-1{fill:#37b0e5;}.cls-2{fill:#fff;}</style></defs><circle class="cls-1" cx="42.5" cy="42.5" r="38"/><path class="cls-2" d="M33.36,47.77a9.38,9.38,0,0,1-3.07,6.48,10.47,10.47,0,0,1-7.12,2.33,10.12,10.12,0,0,1-5.46-1.47,9.72,9.72,0,0,1-3.65-4.19,15.2,15.2,0,0,1-1.34-6.29V42.2A15.16,15.16,0,0,1,14,35.73a9.76,9.76,0,0,1,3.73-4.32,10.42,10.42,0,0,1,5.63-1.51,10.05,10.05,0,0,1,6.92,2.32,9.76,9.76,0,0,1,3.05,6.59h-4.5a6.44,6.44,0,0,0-1.63-4,5.4,5.4,0,0,0-3.84-1.24,5.26,5.26,0,0,0-4.52,2.16c-1.06,1.43-1.59,3.53-1.62,6.31v2.3a11.4,11.4,0,0,0,1.51,6.42,5,5,0,0,0,4.41,2.22,5.81,5.81,0,0,0,4-1.2,6.17,6.17,0,0,0,1.69-4Z"/><path class="cls-2" d="M58.11,43.91a15.93,15.93,0,0,1-1.32,6.7A10,10,0,0,1,53,55a11,11,0,0,1-11.27,0,10.08,10.08,0,0,1-3.82-4.39,15.41,15.41,0,0,1-1.36-6.58V42.59a15.9,15.9,0,0,1,1.34-6.7,10.17,10.17,0,0,1,3.8-4.45,11.12,11.12,0,0,1,11.26,0,10.09,10.09,0,0,1,3.79,4.39,15.77,15.77,0,0,1,1.35,6.66ZM53.6,42.56A11.43,11.43,0,0,0,52,35.94a5.76,5.76,0,0,0-9.2,0,11,11,0,0,0-1.69,6.49v1.49a11.28,11.28,0,0,0,1.67,6.62,5.36,5.36,0,0,0,4.62,2.34A5.28,5.28,0,0,0,52,50.58q1.62-2.28,1.62-6.67Z"/><path class="cls-2" d="M60.4,60.24l2.3-2.16c3-2.74,4.61-4.45,4.61-6.32a2.48,2.48,0,0,0-2.78-2.55,5.56,5.56,0,0,0-3.07,1.13l-.77-1.65a7.1,7.1,0,0,1,4.46-1.53c3.44,0,4.86,2.16,4.86,4.13C70,54,67.93,56,65.15,58.48l-1.13,1v.07h6.25v2H60.4Z"/></svg>