<svg id="layer" xmlns="http://www.w3.org/2000/svg" viewBox="0 0 85 85"><defs><style>.cls-1{fill:#37b0e5;}.cls-2{fill:#fff;}</style></defs><circle class="cls-1" cx="42.5" cy="42.5" r="38"/><path class="cls-2" d="M40.25,58.2H35.74L24.17,39.78V58.2H19.66v-26h4.51L35.78,50.73V32.24h4.47Z"/><path class="cls-2" d="M66.31,45.9A15.91,15.91,0,0,1,65,52.59,10,10,0,0,1,61.22,57,11.08,11.08,0,0,1,50,57a10.17,10.17,0,0,1-3.82-4.4A15.52,15.52,0,0,1,44.76,46V44.58a15.79,15.79,0,0,1,1.35-6.71,10.16,10.16,0,0,1,3.8-4.45,10.32,10.32,0,0,1,5.63-1.54,10.47,10.47,0,0,1,5.62,1.52A10,10,0,0,1,65,37.79a15.77,15.77,0,0,1,1.36,6.66ZM61.8,44.54a11.32,11.32,0,0,0-1.64-6.61,5.76,5.76,0,0,0-9.2,0,11.09,11.09,0,0,0-1.68,6.48v1.5a11.25,11.25,0,0,0,1.66,6.61,5.37,5.37,0,0,0,4.63,2.34,5.3,5.3,0,0,0,4.61-2.28c1.08-1.52,1.62-3.75,1.62-6.67Z"/></svg>