<svg id="layer" xmlns="http://www.w3.org/2000/svg" viewBox="0 0 85 85"><defs><style>.cls-1{fill:#37b0e5;}.cls-2{fill:#fff;}</style></defs><circle class="cls-1" cx="42.5" cy="42.5" r="38"/><path class="cls-2" d="M34,53.91H29.78L18.89,36.57V53.91H14.64V29.48h4.25l10.92,17.4V29.48H34Z"/><path class="cls-2" d="M58.55,42.33a15,15,0,0,1-1.25,6.31,9.38,9.38,0,0,1-3.55,4.16,10.41,10.41,0,0,1-10.6,0,9.52,9.52,0,0,1-3.59-4.14,14.41,14.41,0,0,1-1.29-6.19V41.09a14.78,14.78,0,0,1,1.27-6.31,9.58,9.58,0,0,1,3.57-4.19,9.74,9.74,0,0,1,5.3-1.45,9.84,9.84,0,0,1,5.29,1.43,9.46,9.46,0,0,1,3.57,4.13A14.83,14.83,0,0,1,58.55,41ZM54.3,41.06a10.63,10.63,0,0,0-1.54-6.23,5.41,5.41,0,0,0-8.66,0,10.5,10.5,0,0,0-1.58,6.1v1.41a10.58,10.58,0,0,0,1.57,6.23,5.43,5.43,0,0,0,8.69,0,10.84,10.84,0,0,0,1.52-6.28Z"/><path class="cls-2" d="M60.7,57.69l2.17-2c2.85-2.58,4.33-4.2,4.33-6a2.33,2.33,0,0,0-2.61-2.41,5.27,5.27,0,0,0-2.89,1.07L61,46.83a6.69,6.69,0,0,1,4.19-1.44c3.24,0,4.58,2,4.58,3.88,0,2.58-2,4.47-4.58,6.78l-1.06,1v.07H70V59H60.7Z"/></svg>