<svg id="Layer_1" data-name="Layer 1" xmlns="http://www.w3.org/2000/svg" viewBox="0 0 40 40"><defs><style>.cls-1,.cls-2{fill:#aaa;}.cls-1{stroke:#fff;stroke-miterlimit:10;stroke-width:0.45px;}.cls-3{fill:none;}</style></defs><title>weather-icons-40x40-Artboard 1</title><path class="cls-1" d="M15.09,30.5C7.47,30.5,2,24.82,2,17.79v-.07A12.77,12.77,0,0,1,15.16,4.95c7.62,0,13.09,5.68,13.09,12.7v.07A12.77,12.77,0,0,1,15.09,30.5Zm7.48-12.78A7.51,7.51,0,0,0,15.09,10a7.39,7.39,0,0,0-7.41,7.69v.07a7.51,7.51,0,0,0,7.48,7.76,7.39,7.39,0,0,0,7.41-7.69Z"/><path class="cls-2" d="M29.46,24.82V22.49h8.35v2l-3.12,3C36.38,27.8,38,28.68,38,31s-1.69,4.06-4.45,4.06a6,6,0,0,1-4.82-2.14l1.87-1.78a3.77,3.77,0,0,0,3,1.48,1.55,1.55,0,0,0,1.75-1.52c0-1-.86-1.59-2.42-1.59H31.79l-.42-1.73,2.95-3Z"/><rect class="cls-3" width="40" height="40"/></svg>