<svg id="layer" xmlns="http://www.w3.org/2000/svg" viewBox="0 0 85 85"><defs><style>.cls-1{fill:#37b0e5;}.cls-2{fill:#fff;}</style></defs><circle class="cls-1" cx="43.3" cy="42.5" r="38"/><path class="cls-2" d="M31.13,47.85A2.94,2.94,0,0,0,30,45.37a13.48,13.48,0,0,0-4.08-1.76,20.26,20.26,0,0,1-4.7-2,6.28,6.28,0,0,1-3.34-5.48,5.92,5.92,0,0,1,2.41-4.86,9.71,9.71,0,0,1,6.25-1.92,10.69,10.69,0,0,1,4.55.94A7.55,7.55,0,0,1,34.22,33a6.87,6.87,0,0,1,1.14,3.85H31.13a3.79,3.79,0,0,0-1.2-3,5,5,0,0,0-3.44-1.07,5.21,5.21,0,0,0-3.23.88,3,3,0,0,0-1.15,2.48,2.67,2.67,0,0,0,1.25,2.23,14.6,14.6,0,0,0,4.09,1.74A18.7,18.7,0,0,1,32,42.05a7.3,7.3,0,0,1,2.54,2.49,6.43,6.43,0,0,1,.8,3.28A5.81,5.81,0,0,1,33,52.68a10.17,10.17,0,0,1-6.35,1.8,11.89,11.89,0,0,1-4.88-1,8.15,8.15,0,0,1-3.45-2.71,6.69,6.69,0,0,1-1.24-4h4.25A4,4,0,0,0,22.73,50a6,6,0,0,0,3.95,1.15,5.21,5.21,0,0,0,3.33-.9A2.92,2.92,0,0,0,31.13,47.85Z"/><path class="cls-2" d="M58.6,42.57a15,15,0,0,1-1.24,6.3A9.38,9.38,0,0,1,53.81,53,10.43,10.43,0,0,1,43.2,53a9.58,9.58,0,0,1-3.59-4.14,14.56,14.56,0,0,1-1.28-6.19V41.32A15,15,0,0,1,39.59,35a9.6,9.6,0,0,1,3.58-4.19,10.42,10.42,0,0,1,10.59,0,9.35,9.35,0,0,1,3.57,4.13,14.77,14.77,0,0,1,1.27,6.27Zm-4.24-1.28a10.73,10.73,0,0,0-1.54-6.23,5.43,5.43,0,0,0-8.66,0,10.53,10.53,0,0,0-1.59,6.11v1.41a10.62,10.62,0,0,0,1.57,6.22A5.05,5.05,0,0,0,48.5,51a5,5,0,0,0,4.34-2.15,10.83,10.83,0,0,0,1.52-6.27Z"/><path class="cls-2" d="M60.76,57.93l2.17-2c2.85-2.58,4.33-4.19,4.33-5.95a2.33,2.33,0,0,0-2.61-2.4,5.28,5.28,0,0,0-2.89,1.06L61,47.06a6.64,6.64,0,0,1,4.19-1.44c3.23,0,4.57,2,4.57,3.89,0,2.57-2,4.47-4.57,6.77l-1.07,1v.07H70V59.2H60.76Z"/></svg>