<?xml version="1.0" standalone="no"?>
<!DOCTYPE svg PUBLIC "-//W3C//DTD SVG 20010904//EN"
 "http://www.w3.org/TR/2001/REC-SVG-20010904/DTD/svg10.dtd">
<svg version="1.0" xmlns="http://www.w3.org/2000/svg"
 width="256.000000pt" height="256.000000pt" viewBox="0 0 256.000000 256.000000"
 preserveAspectRatio="xMidYMid meet">
<metadata>
Created by potrace 1.11, written by Peter Selinger 2001-2013
</metadata>
<g transform="translate(0.000000,256.000000) scale(0.100000,-0.100000)"
fill="#000000" stroke="none">
<path d="M1176 2309 c-360 -38 -677 -264 -831 -591 -65 -138 -87 -235 -92
-403 -4 -125 -1 -167 15 -249 12 -54 24 -101 27 -104 3 -3 35 23 71 59 l65 65
-12 74 c-24 154 9 357 82 503 159 316 487 506 838 484 379 -24 702 -297 791
-667 24 -102 27 -281 6 -382 -70 -330 -344 -604 -674 -674 -103 -21 -281 -18
-383 7 -154 39 -289 113 -403 223 l-59 57 -59 -58 -58 -57 43 -44 c218 -225
565 -345 872 -302 619 86 1023 682 871 1282 -84 330 -328 603 -643 718 -147
53 -318 75 -467 59z"/>
<path d="M816 1299 c-251 -254 -456 -466 -456 -472 0 -13 72 -137 80 -137 3 0
194 189 425 420 l420 420 321 -321 322 -322 22 43 c12 24 28 60 35 80 l13 37
-357 357 c-196 196 -359 356 -363 356 -3 0 -211 -208 -462 -461z"/>
</g>
</svg>
