<?xml version="1.0" encoding="utf-8"?>
<svg enable-background="new 0 0 64 64" viewBox="0 0 64 64" xmlns="http://www.w3.org/2000/svg">
  <ellipse style="stroke-width: 0px; stroke: rgb(0, 0, 0); fill:#3d3c3c;" cx="32" cy="32" rx="30" ry="30"/>
  <path fill="#F8EFE0" d="M 11.018 52.475 L 11.018 31.819 C 7.317 33.065 4.779 29.687 7.284 26.959 C 7.325 26.916 7.371 26.873 7.425 26.837 L 30.938 10.768 C 31.242 10.522 31.712 10.497 32.05 10.727 L 55.617 26.768 C 55.654 26.793 55.688 26.819 55.72 26.851 C 56.812 27.879 57.084 29.019 56.82 29.983 C 56.692 30.449 56.434 30.88 56.071 31.238 C 55.708 31.596 55.249 31.867 54.735 32.029 C 53.911 32.288 52.931 32.281 51.937 31.869 L 51.937 51.358 C 43.944 54.785 42.3 46.755 42.28 46.918 C 41.461 53.613 28.847 53.227 26.809 48.767 C 26.439 47.958 26.67 47.804 26.141 47.766 C 23.045 47.544 22.868 55.347 11.018 52.475 Z M 51.987 12.422 L 51.987 20.469 L 44.911 16.382 L 44.911 12.422 L 51.987 12.422 Z" style=""/>
  <path fill="#D93133" d="M 11.018 31.819 C 10.054 32.144 9.151 32.151 8.401 31.927 C 7.816 31.754 7.322 31.444 6.959 31.043 C 6.596 30.643 6.366 30.156 6.295 29.618 C 6.188 28.785 6.472 27.843 7.284 26.959 C 7.325 26.916 7.371 26.873 7.425 26.837 L 30.938 10.768 C 31.242 10.522 31.712 10.497 32.05 10.727 L 55.617 26.768 C 55.654 26.793 55.688 26.819 55.72 26.851 C 56.812 27.879 57.084 29.019 56.82 29.983 C 56.692 30.449 56.434 30.88 56.071 31.238 C 55.708 31.596 55.249 31.867 54.735 32.029 C 53.911 32.288 52.931 32.281 51.937 31.869 L 49.63 30.982 C 49.63 30.618 33.464 19.43 31.679 18.213 C 29.788 19.473 13.326 30.571 13.326 31.04 L 11.018 31.819 Z M 51.987 12.422 L 51.987 20.469 L 44.911 16.382 L 44.911 12.422 L 51.987 12.422 Z" style=""/>
  <path fill="#313A58" d="M 31.595 25.496 C 33.228 25.496 34.711 26.081 35.784 27.021 C 36.861 27.963 37.526 29.076 37.526 30.503 L 37.526 35.325 L 25.662 35.325 L 25.662 30.503 C 25.662 29.073 26.33 27.961 27.404 27.021 C 28.479 26.081 29.963 25.496 31.595 25.496 Z" style=""/>
  <path fill="#ABB9BC" d="M 32.111 31.421 L 32.111 34.426 L 36.496 34.426 L 36.496 31.421 L 32.111 31.421 Z M 32.111 26.424 L 32.111 30.517 L 36.496 30.517 L 36.496 30.505 C 36.496 29.326 35.945 28.439 35.056 27.661 C 34.282 26.983 33.252 26.529 32.111 26.424 Z M 31.079 30.517 L 31.079 26.424 C 29.936 26.531 28.909 26.983 28.134 27.661 C 27.245 28.439 26.694 29.326 26.694 30.505 L 26.694 30.517 L 31.079 30.517 Z M 31.079 34.423 L 31.079 31.421 L 26.694 31.421 L 26.694 34.426 L 31.079 34.426 L 31.079 34.423 Z" style=""/>
  <path fill="#313A58" d="M 51.92 31.732 L 49.64 30.959 L 49.64 52.389 L 51.92 52.389 L 51.92 31.732 Z M 10.908 31.819 L 13.189 31.046 L 13.189 52.476 L 10.908 52.476 L 10.908 31.819 Z" style=""/>
  <path d="M 11.097 51.603 C 13.269 52.586 15.988 52.276 18.451 51.315 C 21.367 50.176 23.866 48.168 24.668 46.318 C 24.9 45.781 25.509 45.54 26.029 45.779 C 26.259 45.885 26.444 46.075 26.547 46.312 C 27.432 48.152 28.886 49.487 30.554 50.246 C 31.623 50.733 32.775 50.983 33.918 50.978 C 35.051 50.973 36.18 50.717 37.211 50.195 C 38.688 49.446 39.974 48.13 40.802 46.195 C 41.031 45.656 41.641 45.412 42.163 45.649 C 42.416 45.764 42.614 45.978 42.711 46.245 C 43.106 47.121 43.54 47.869 44.009 48.496 C 45.11 49.969 46.402 50.756 47.805 50.981 C 49.259 51.215 50.874 50.868 52.56 50.07 C 53.763 49.501 55 48.701 56.239 47.714 L 57.499 49.397 C 56.142 50.478 54.77 51.363 53.416 52.004 C 51.373 52.971 49.365 53.383 47.49 53.082 C 45.567 52.773 43.824 51.731 42.377 49.796 C 42.148 49.488 41.933 49.17 41.734 48.842 C 40.756 50.32 39.505 51.399 38.116 52.103 C 36.799 52.772 35.361 53.098 33.918 53.104 C 32.484 53.109 31.046 52.799 29.722 52.197 C 28.122 51.468 26.677 50.311 25.588 48.764 C 24.183 50.57 21.811 52.279 19.178 53.307 C 16.265 54.444 12.989 54.782 10.273 53.553 L 11.097 51.603 Z" style="fill: rgb(30, 130, 255);"/>
  <path d="M 10.92 57.018 C 13.092 58.001 15.811 57.691 18.274 56.73 C 21.19 55.591 23.689 53.583 24.491 51.733 C 24.723 51.196 25.332 50.955 25.852 51.194 C 26.082 51.3 26.267 51.49 26.37 51.727 C 27.255 53.567 28.709 54.902 30.377 55.661 C 31.446 56.148 32.598 56.398 33.741 56.393 C 34.874 56.388 36.003 56.132 37.034 55.61 C 38.511 54.861 39.797 53.545 40.625 51.61 C 40.854 51.071 41.464 50.827 41.986 51.064 C 42.239 51.179 42.437 51.393 42.534 51.66 C 42.929 52.536 43.363 53.284 43.832 53.911 C 44.933 55.384 46.225 56.171 47.628 56.396 C 49.082 56.63 50.697 56.283 52.383 55.485 C 53.586 54.916 54.823 54.116 56.062 53.129 L 57.322 54.812 C 55.965 55.893 54.593 56.778 53.239 57.419 C 51.196 58.386 49.188 58.798 47.313 58.497 C 45.39 58.188 43.647 57.146 42.2 55.211 C 41.971 54.903 41.756 54.585 41.557 54.257 C 40.579 55.735 39.328 56.814 37.939 57.518 C 36.622 58.187 35.184 58.513 33.741 58.519 C 32.307 58.524 30.869 58.214 29.545 57.612 C 27.945 56.883 26.5 55.726 25.411 54.179 C 24.006 55.985 21.634 57.694 19.001 58.722 C 16.088 59.859 12.812 60.197 10.096 58.968 L 10.92 57.018 Z" style="fill: rgb(30, 130, 255);"/>
</svg>