<svg xmlns="http://www.w3.org/2000/svg" xmlns:xlink="http://www.w3.org/1999/xlink" width="55" height="63">
   <defs>
      <filter x="-50%" y="-50%" width="200%" height="200%" filterUnits="objectBoundingBox" id="prefix__e">
         <feMorphology radius="2" operator="dilate" in="SourceAlpha" result="shadowSpreadOuter1" />
         <feOffset dy="1" in="shadowSpreadOuter1" result="shadowOffsetOuter1" />
         <feGaussianBlur stdDeviation="1.5" in="shadowOffsetOuter1" result="shadowBlurOuter1" />
         <feComposite in="shadowBlurOuter1" in2="SourceAlpha" operator="out" result="shadowBlurOuter1" />
         <feColorMatrix values="0 0 0 0 0 0 0 0 0 0 0 0 0 0 0 0 0 0 0.15 0" in="shadowBlurOuter1" />
      </filter>
      <filter x="-50%" y="-50%" width="200%" height="200%" filterUnits="objectBoundingBox" id="prefix__g">
         <feMorphology radius="1.08" operator="dilate" in="SourceAlpha" result="shadowSpreadOuter1" />
         <feOffset dy="1" in="shadowSpreadOuter1" result="shadowOffsetOuter1" />
         <feGaussianBlur stdDeviation="1" in="shadowOffsetOuter1" result="shadowBlurOuter1" />
         <feComposite in="shadowBlurOuter1" in2="SourceAlpha" operator="out" result="shadowBlurOuter1" />
         <feColorMatrix values="0 0 0 0 0 0 0 0 0 0 0 0 0 0 0 0 0 0 0.15 0" in="shadowBlurOuter1" />
      </filter>
      <filter x="-50%" y="-50%" width="200%" height="200%" filterUnits="objectBoundingBox" id="prefix__i">
         <feMorphology radius="1.44" operator="dilate" in="SourceAlpha" result="shadowSpreadOuter1" />
         <feOffset dy="1" in="shadowSpreadOuter1" result="shadowOffsetOuter1" />
         <feGaussianBlur stdDeviation="1" in="shadowOffsetOuter1" result="shadowBlurOuter1" />
         <feComposite in="shadowBlurOuter1" in2="SourceAlpha" operator="out" result="shadowBlurOuter1" />
         <feColorMatrix values="0 0 0 0 0 0 0 0 0 0 0 0 0 0 0 0 0 0 0.15 0" in="shadowBlurOuter1" />
      </filter>
      <path
         d="M22.528 23C20.887 23 11 38.241 11 44.803c0 5.174 2.987 10.572 11.528 10.572 7.82 0 11.528-5.346 11.528-10.572C34.056 38.158 24.169 23 22.528 23z"
         id="prefix__a" />
      <path
         d="M10.125 5C9.253 5 4 13.238 4 16.785c0 2.797 1.587 5.715 6.125 5.715 4.155 0 6.125-2.89 6.125-5.715C16.25 13.193 10.997 5 10.125 5z"
         id="prefix__b" />
      <path
         d="M35.313 0C34.129 0 27 11.122 27 15.91c0 3.776 2.154 7.715 8.313 7.715 5.64 0 8.312-3.901 8.312-7.715 0-4.849-7.129-15.91-8.313-15.91z"
         id="prefix__c" />
      <mask id="prefix__f" maskContentUnits="userSpaceOnUse" maskUnits="objectBoundingBox" x="-2" y="-2" width="27.056"
         height="36.375">
         <path fill="#fff" d="M9 21h27.056v36.375H9z" />
         <use xlink:href="#prefix__a" />
      </mask>
      <mask id="prefix__h" maskContentUnits="userSpaceOnUse" maskUnits="objectBoundingBox" x="-1.08" y="-1.08"
         width="14.41" height="19.66">
         <path fill="#fff" d="M2.92 3.92h14.41v19.66H2.92z" />
         <use xlink:href="#prefix__b" />
      </mask>
      <mask id="prefix__j" maskContentUnits="userSpaceOnUse" maskUnits="objectBoundingBox" x="-1.44" y="-1.44"
         width="19.505" height="26.505">
         <path fill="#fff" d="M25.56-1.44h19.505v26.505H25.56z" />
         <use xlink:href="#prefix__c" />
      </mask>
      <rect id="prefix__d" x="-8.105" y="28.395" width="67" height="4" rx="2" />
   </defs>
   <g transform="translate(2 2)" fill="none" fill-rule="evenodd">
      <use height="100%" width="100%" xlink:href="#prefix__a" fill="#000" filter="url(#prefix__e)" />
      <use height="100%" width="100%" xlink:href="#prefix__a" fill="#55a4ff" fill-opacity=".3" />
      <use height="100%" width="100%" xlink:href="#prefix__a" mask="url(#prefix__f)" stroke="#fff" stroke-width="4" />
   </g>
   <g transform="translate(2 2)" fill="none" fill-rule="evenodd">
      <use height="100%" width="100%" xlink:href="#prefix__b" fill="#000" filter="url(#prefix__g)" />
      <use height="100%" width="100%" xlink:href="#prefix__b" fill="#55a4ff" fill-opacity=".3" />
      <use height="100%" width="100%" xlink:href="#prefix__b" mask="url(#prefix__h)" stroke="#fff"
         stroke-width="2.16" />
   </g>
   <g transform="translate(2 2)" fill="none" fill-rule="evenodd">
      <use height="100%" width="100%" xlink:href="#prefix__c" fill="#000" filter="url(#prefix__i)" />
      <use height="100%" width="100%" xlink:href="#prefix__c" fill="#55a4ff" fill-opacity=".3" />
      <use height="100%" width="100%" xlink:href="#prefix__c" mask="url(#prefix__j)" stroke="#fff"
         stroke-width="2.88" />
   </g>
</svg>