<?xml version="1.0" encoding="utf-8"?>
<svg enable-background="new 0 0 64 64" viewBox="0 0 64 64" xmlns="http://www.w3.org/2000/svg">
  <ellipse style="stroke-width: 0px; stroke: rgb(0, 0, 0); fill:#3d3c3c;" cx="32" cy="32" rx="30" ry="30"/>
  <path d="M 10.382 37.307 C 12.554 38.29 15.273 37.98 17.736 37.019 C 20.652 35.88 23.151 33.872 23.953 32.022 C 24.185 31.485 24.794 31.244 25.314 31.483 C 25.544 31.589 25.729 31.779 25.832 32.016 C 26.717 33.856 28.171 35.191 29.839 35.95 C 30.908 36.437 32.06 36.687 33.203 36.682 C 34.336 36.677 35.465 36.421 36.496 35.899 C 37.973 35.15 39.259 33.834 40.087 31.899 C 40.316 31.36 40.926 31.116 41.448 31.353 C 41.701 31.468 41.899 31.682 41.996 31.949 C 42.391 32.825 42.825 33.573 43.294 34.2 C 44.395 35.673 45.687 36.46 47.09 36.685 C 48.544 36.919 50.159 36.572 51.845 35.774 C 53.048 35.205 54.285 34.405 55.524 33.418 L 56.784 35.101 C 55.427 36.182 54.055 37.067 52.701 37.708 C 50.658 38.675 48.65 39.087 46.775 38.786 C 44.852 38.477 43.109 37.435 41.662 35.5 C 41.433 35.192 41.218 34.874 41.019 34.546 C 40.041 36.024 38.79 37.103 37.401 37.807 C 36.084 38.476 34.646 38.802 33.203 38.808 C 31.769 38.813 30.331 38.503 29.007 37.901 C 27.407 37.172 25.962 36.015 24.873 34.468 C 23.468 36.274 21.096 37.983 18.463 39.011 C 15.55 40.148 12.274 40.486 9.558 39.257 L 10.382 37.307 Z" style="fill: rgb(30, 130, 255);"/>
  <path d="M 10.205 42.722 C 12.377 43.705 15.096 43.395 17.559 42.434 C 20.475 41.295 22.974 39.287 23.776 37.437 C 24.008 36.9 24.617 36.659 25.137 36.898 C 25.367 37.004 25.552 37.194 25.655 37.431 C 26.54 39.271 27.994 40.606 29.662 41.365 C 30.731 41.852 31.883 42.102 33.026 42.097 C 34.159 42.092 35.288 41.836 36.319 41.314 C 37.796 40.565 39.082 39.249 39.91 37.314 C 40.139 36.775 40.749 36.531 41.271 36.768 C 41.524 36.883 41.722 37.097 41.819 37.364 C 42.214 38.24 42.648 38.988 43.117 39.615 C 44.218 41.088 45.51 41.875 46.913 42.1 C 48.367 42.334 49.982 41.987 51.668 41.189 C 52.871 40.62 54.108 39.82 55.347 38.833 L 56.607 40.516 C 55.25 41.597 53.878 42.482 52.524 43.123 C 50.481 44.09 48.473 44.502 46.598 44.201 C 44.675 43.892 42.932 42.85 41.485 40.915 C 41.256 40.607 41.041 40.289 40.842 39.961 C 39.864 41.439 38.613 42.518 37.224 43.222 C 35.907 43.891 34.469 44.217 33.026 44.223 C 31.592 44.228 30.154 43.918 28.83 43.316 C 27.23 42.587 25.785 41.43 24.696 39.883 C 23.291 41.689 20.919 43.398 18.286 44.426 C 15.373 45.563 12.097 45.901 9.381 44.672 L 10.205 42.722 Z" style="fill: rgb(30, 130, 255);"/>
  <path d="M 32.307 33.157 C 30.008 33.038 27.346 31.638 25.776 29.76 C 25.48 29.421 25.206 29.064 24.956 28.688 C 23.585 30.561 21.153 32.357 18.438 33.424 C 15.546 34.563 12.297 34.903 9.61 33.677 L 10.301 32.03 C 12.342 32.962 14.845 32.775 17.183 31.979 C 17.253 28.669 18.202 25.534 19.838 22.875 C 21.336 20.442 23.646 18.223 26.281 16.786 C 29.429 15.07 33.861 14.165 36.905 16.582 C 40.064 19.088 39.596 23.333 36.462 25.669 C 35.744 26.203 34.894 26.543 34.027 26.631 C 33.319 26.702 32.602 26.606 31.934 26.309 C 31.263 26.011 30.648 25.518 30.154 24.801 C 29.581 23.968 29.17 22.827 29.031 21.336 C 28.992 20.904 29.296 20.523 29.711 20.48 C 30.125 20.44 30.493 20.757 30.532 21.188 C 30.643 22.376 30.953 23.26 31.383 23.885 C 31.708 24.357 32.102 24.676 32.525 24.866 C 32.954 25.056 33.42 25.116 33.885 25.069 C 34.48 25.009 35.072 24.769 35.582 24.39 C 37.883 22.674 38.346 19.7 35.99 17.83 C 26.886 12.683 22.711 27.316 31.469 31.199 C 32.079 31.342 32.703 31.412 33.329 31.411 C 34.495 31.407 35.656 31.142 36.717 30.6 C 38.239 29.821 39.562 28.459 40.413 26.455 C 40.605 26 41.116 25.793 41.554 25.994 C 41.766 26.091 41.931 26.272 42.013 26.498 C 42.418 27.404 42.863 28.177 43.343 28.823 C 44.48 30.357 45.818 31.177 47.274 31.413 C 48.771 31.655 50.429 31.298 52.154 30.475 C 53.379 29.893 54.635 29.073 55.89 28.065 L 56.947 29.488 C 55.592 30.576 54.222 31.465 52.872 32.109 C 50.847 33.075 48.86 33.487 47.01 33.188 C 45.117 32.881 43.402 31.847 41.976 29.924 C 41.694 29.542 41.434 29.145 41.197 28.733 C 40.211 30.324 38.919 31.474 37.476 32.212 C 36.175 32.876 34.753 33.201 33.329 33.207 C 32.988 33.209 32.647 33.192 32.307 33.157 Z" style="fill: rgb(30, 130, 255);"/>
</svg>