<?xml version="1.0" encoding="utf-8"?>
<svg enable-background="new 0 0 64 64" viewBox="0 0 64 64" xmlns="http://www.w3.org/2000/svg">
  <ellipse style="stroke-width: 0px; stroke: rgb(0, 0, 0); fill:#3d3c3c;" cx="32" cy="32" rx="30" ry="30"/>
  <g transform="matrix(0.095654, 0, 0, 0.103801, 7.65905, -0.7645)" style="">
    <g>
      <path style="fill:#9B5C5C;" d="M277.259,58.637c-11.695-20.344-30.835-20.344-42.53,0L4.978,432.587 c-11.695,20.342-2.07,36.966,21.398,36.966h459.235c23.468,0,33.093-16.624,21.405-36.966L277.259,58.637z"/>
      <path style="fill:#9B5C5C;" d="M277.259,57.683c-11.695-20.328-30.835-20.328-42.53,0l-23.538,59.732l-32.538,31.78L4.978,432.587 c-11.695,20.342-2.07,36.966,21.398,36.966h459.235c23.468,0,33.093-16.624,21.405-36.966l-56.124-91.592l-84.06-104.052 L277.259,57.683z"/>
    </g>
    <g>
      <path style="fill:#CBD0D8;" d="M426.629,226.272c-23.562,0-42.671,19.108-42.671,42.671c0,23.554,19.109,42.646,42.671,42.646 c23.545,0,42.654-19.093,42.654-42.646C469.283,245.381,450.174,226.272,426.629,226.272L426.629,226.272z"/>
      <path style="fill:#CBD0D8;" d="M394.63,226.272c0,5.89-4.766,10.671-10.672,10.671c-5.875,0-10.656-4.781-10.656-10.671 c0-5.875,4.781-10.656,10.656-10.656C389.864,215.616,394.63,220.397,394.63,226.272z"/>
      <path style="fill:#CBD0D8;" d="M426.629,204.944c0,5.891-4.781,10.672-10.671,10.672c-5.891,0-10.656-4.781-10.656-10.672 s4.766-10.655,10.656-10.655C421.848,194.289,426.629,199.054,426.629,204.944z"/>
      <path style="fill:#CBD0D8;" d="M383.958,183.617c0,5.891-4.766,10.672-10.656,10.672s-10.656-4.781-10.656-10.672 s4.766-10.656,10.656-10.656S383.958,177.726,383.958,183.617z"/>
      <path style="fill:#CBD0D8;" d="M351.974,151.634c0,5.891-4.766,10.655-10.672,10.655c-5.874,0-10.655-4.765-10.655-10.655 s4.781-10.671,10.655-10.671C347.209,140.963,351.974,145.744,351.974,151.634z"/>
    </g>
    <path style="fill:#E6E9ED;" d="M 273.368 152.384 C 274.649 151.868 275.993 151.634 277.321 151.634 C 280.992 151.634 284.554 153.54 286.523 156.884 C 286.523 156.884 355.865 257.194 381.786 300.341 C 407.708 343.495 450.892 341.027 450.892 341.027 L 277.259 57.683 C 265.564 37.355 246.424 37.355 234.729 57.683 L 178.653 149.196 C 178.653 149.196 210.879 171.539 225.503 171.539 C 240.126 171.539 273.368 152.384 273.368 152.384 Z"/>
  </g>
</svg>