<?xml version="1.0" standalone="no"?>
<!DOCTYPE svg PUBLIC "-//W3C//DTD SVG 20010904//EN"
 "http://www.w3.org/TR/2001/REC-SVG-20010904/DTD/svg10.dtd">
<svg version="1.0" xmlns="http://www.w3.org/2000/svg"
 width="200.000000pt" height="200.000000pt" viewBox="0 0 200.000000 200.000000"
 preserveAspectRatio="xMidYMid meet">

<g transform="translate(0.000000,200.000000) scale(0.100000,-0.100000)"
fill="#000000" stroke="none">
<path d="M1025 1798 c-79 -28 -152 -105 -170 -179 -5 -22 -16 -29 -63 -42
-139 -38 -226 -148 -208 -261 4 -22 21 -66 38 -97 l31 -57 -21 -40 c-11 -22
-18 -43 -15 -46 13 -13 60 -4 100 18 35 21 48 23 75 15 141 -40 319 57 344
187 5 29 9 32 54 38 39 5 55 2 82 -14 18 -11 48 -20 66 -20 22 0 32 -5 32 -15
0 -11 -11 -15 -40 -15 l-40 0 0 -95 0 -95 40 0 39 0 3 -102 3 -103 144 -3 145
-3 63 63 63 62 0 193 0 193 -206 0 c-197 0 -206 -1 -211 -20 -3 -11 -9 -17
-14 -14 -13 8 -11 82 2 90 21 13 49 89 49 134 0 25 -9 63 -19 85 -24 53 -100
119 -158 139 -52 18 -163 20 -208 4z m184 -34 c57 -16 123 -69 148 -117 26
-50 19 -123 -17 -181 -26 -41 -31 -58 -27 -88 6 -44 0 -46 -37 -17 -24 19 -31
20 -78 10 -28 -6 -52 -10 -53 -9 -1 2 -7 22 -14 46 -6 23 -26 58 -42 77 l-30
34 108 3 c88 2 108 6 108 18 0 12 -26 16 -150 20 -82 3 -157 8 -165 12 -8 3
-27 9 -42 12 -33 8 -35 23 -8 76 24 47 74 87 132 105 58 18 104 18 167 -1z
m-246 -230 c58 -19 122 -87 137 -144 24 -91 -27 -185 -125 -231 -45 -21 -156
-26 -200 -9 -23 9 -32 6 -57 -15 -16 -14 -33 -25 -36 -25 -4 0 -6 20 -4 46 3
30 -1 51 -11 62 -95 109 -44 260 108 319 44 17 134 15 188 -3z m807 -349 l0
-165 -65 0 -65 0 0 -60 0 -60 -120 0 -120 0 0 90 0 90 125 0 125 0 0 95 0 95
-125 0 -125 0 0 40 0 40 185 0 185 0 0 -165z m-150 -5 l0 -70 -155 0 -155 0 0
70 0 70 155 0 155 0 0 -70z m130 -183 c0 -2 -18 -21 -40 -42 l-40 -39 0 42 0
42 40 0 c22 0 40 -1 40 -3z"/>
<path d="M980 1635 c0 -8 7 -15 15 -15 8 0 15 7 15 15 0 8 -7 15 -15 15 -8 0
-15 -7 -15 -15z"/>
<path d="M1047 1644 c-17 -18 14 -24 119 -24 95 0 114 3 114 15 0 12 -19 15
-113 15 -63 0 -117 -3 -120 -6z"/>
<path d="M712 1378 c5 -15 28 -18 29 -3 0 6 -7 12 -17 13 -10 3 -15 -1 -12
-10z"/>
<path d="M780 1375 c0 -12 19 -15 115 -15 96 0 115 3 115 15 0 12 -19 15 -115
15 -96 0 -115 -3 -115 -15z"/>
<path d="M715 1289 c-15 -24 17 -29 151 -27 116 3 139 6 139 18 0 12 -24 15
-142 18 -96 2 -144 -1 -148 -9z"/>
<path d="M1580 1320 c0 -5 5 -10 11 -10 5 0 7 5 4 10 -3 6 -8 10 -11 10 -2 0
-4 -4 -4 -10z"/>
<path d="M1696 1321 c-3 -4 6 -8 20 -9 13 -1 24 0 24 2 0 7 -40 14 -44 7z"/>
<path d="M1480 1039 c0 -5 5 -7 10 -4 6 3 10 8 10 11 0 2 -4 4 -10 4 -5 0 -10
-5 -10 -11z"/>
<path d="M1570 1038 c0 -4 7 -8 15 -8 8 0 15 4 15 8 0 5 -7 9 -15 9 -8 0 -15
-4 -15 -9z"/>
<path d="M1675 1040 c-3 -5 -1 -10 4 -10 6 0 11 5 11 10 0 6 -2 10 -4 10 -3 0
-8 -4 -11 -10z"/>
<path d="M1410 990 c0 -5 5 -10 11 -10 5 0 7 5 4 10 -3 6 -8 10 -11 10 -2 0
-4 -4 -4 -10z"/>
<path d="M1360 1191 c0 -23 -4 -41 -10 -41 -5 0 -10 5 -10 11 0 5 -5 7 -11 3
-7 -4 -6 -11 5 -22 12 -13 18 -13 30 -2 18 14 22 75 6 85 -6 4 -10 -10 -10
-34z"/>
<path d="M1399 1214 c-12 -14 -10 -19 10 -35 13 -11 20 -23 16 -27 -4 -4 -10
-1 -12 6 -6 16 -23 15 -23 -2 0 -17 24 -28 45 -20 22 9 18 39 -7 58 l-23 17
24 -7 c17 -4 22 -2 19 7 -7 21 -33 22 -49 3z"/>
<path d="M1469 1207 c-12 -27 3 -77 24 -77 21 0 37 22 37 50 0 49 -42 68 -61
27z m41 -27 c0 -10 -4 -21 -9 -24 -10 -7 -20 23 -14 42 6 17 23 4 23 -18z"/>
<path d="M1547 1223 c-4 -3 -7 -23 -7 -44 0 -44 20 -65 21 -22 l1 28 10 -28
c5 -15 15 -26 22 -24 15 5 20 77 7 90 -8 8 -11 2 -11 -18 l-1 -30 -15 28 c-16
29 -17 30 -27 20z"/>
</g>
</svg>
