<?xml version="1.0" encoding="utf-8"?>
<svg viewBox="0 0 380.6 380.6" width="380.6" height="380.6" xmlns="http://www.w3.org/2000/svg">
  <defs>
    <style type="text/css">
	.st0{fill:#1A98D5;}
</style>
  </defs>
  <path class="st0" d="M 236.072 302.465 C 239.076 304.128 246.015 306.704 253.334 306.704 C 266.873 306.704 271.062 299.249 270.956 293.659 C 270.829 284.249 261.013 280.211 250.817 280.211 L 244.936 280.211 L 244.936 273.378 L 250.817 273.378 C 258.496 273.378 268.185 269.961 268.185 261.995 C 268.185 256.606 264.229 251.855 254.519 251.855 C 248.278 251.855 242.291 254.23 238.949 256.313 L 236.199 249.681 C 240.261 247.105 248.172 244.51 256.571 244.51 C 271.908 244.51 278.868 252.367 278.868 260.552 C 278.868 267.477 274.066 273.378 264.483 276.393 L 264.483 276.594 C 274.066 278.256 281.851 284.45 281.851 293.878 C 281.851 304.639 272.141 314.067 253.461 314.067 C 244.724 314.067 237.045 311.692 233.216 309.518 L 236.072 302.465 Z" style=""/>
  <g>
    <path class="st0" d="M325.8,190.3c0-33.7-12.2-64.6-32.4-88.4c0,2.6,0,5.1,0,7.7c-0.2,0.6-0.5,1.2-0.6,1.9 c-2.2,12.2-8.7,21.5-19.4,27.8c-14.8,8.7-34.5,6.2-46.8-5.8c-0.5-0.4-1.6-0.7-2.2-0.4c-11.9,5.9-23.8,11.8-35.7,17.8 c-9.7,4.9-19.5,9.7-29.2,14.6c-13,6.5-26.1,13-39.1,19.6c-0.6,0.3-1,1.3-1.1,2c-0.1,3.2-0.1,6.4,0,9.7c0,0.7,0.5,1.6,1.1,2 c2.4,1.4,4.9,2.6,7.3,3.8c18.9,9.5,37.9,18.9,56.8,28.4c13.3,6.6,26.6,13.3,39.9,19.9c0.5,0.3,1.6,0.1,2-0.3 c7.6-7.3,16.6-10.9,27.1-11c18.1-0.2,33.9,11.8,38.4,29.4c0.5,1.8,0.9,3.6,1.4,5.4c0,1.5,0,3,0,4.5 C313.6,254.9,325.8,224,325.8,190.3z"/>
    <path class="st0" d="M228.2,308.6c-10.4-9.2-14.8-20.9-13.4-34.6c0.1-1.1-0.1-1.7-1.2-2.2c-11.4-5.6-22.7-11.4-34.1-17 c-23.3-11.6-46.5-23.2-69.8-34.9c-0.9-0.5-1.5-0.4-2.3,0.3c-1.7,1.6-3.5,3.2-5.4,4.5c-8.8,5.6-18.3,7.7-28.7,6 c-6.5-1.1-12.6-3.9-17.7-7.9c14.6,60,68.6,104.5,133.1,104.5c19,0,37.1-3.9,53.5-10.8C237.1,314.9,232.4,312.3,228.2,308.6z"/>
    <path class="st0" d="M62.7,156.6c15.3-7.6,32.3-4.7,44.8,7c0.8,0.7,1.3,0.8,2.2,0.3c14.4-7.2,28.9-14.4,43.3-21.6 c20.1-10,40.1-20.1,60.2-30.1c1.3-0.7,1.6-1.4,1.5-2.8c-2.2-20.4,11.1-38.1,29.6-42.6c0.8-0.2,1.6-0.4,2.4-0.6 c-17.6-8.2-37.3-12.9-58-12.9C123,53.4,68.1,99.7,54.9,161.6C57.2,159.7,59.8,158,62.7,156.6z"/>
  </g>
  <path class="st0" d="M 190.3 32.1 C 211.7 32.1 232.4 36.3 251.9 44.5 C 270.7 52.5 287.7 63.9 302.2 78.4 C 316.7 92.9 328.2 109.9 336.1 128.7 C 344.3 148.2 348.5 168.9 348.5 190.3 C 348.5 211.7 344.3 232.4 336.1 251.9 C 328.1 270.7 316.7 287.7 302.2 302.2 C 287.7 316.7 270.7 328.2 251.9 336.1 C 232.4 344.3 211.7 348.5 190.3 348.5 C 168.9 348.5 148.2 344.3 128.7 336.1 C 109.9 328.1 92.9 316.7 78.4 302.2 C 63.9 287.7 52.4 270.7 44.5 251.9 C 36.3 232.4 32.1 211.7 32.1 190.3 C 32.1 168.9 36.3 148.2 44.5 128.7 C 52.5 109.9 63.9 92.9 78.4 78.4 C 92.9 63.9 109.9 52.4 128.7 44.5 C 148.2 36.3 168.9 32.1 190.3 32.1 M 190.3 0 C 85.2 0 0 85.2 0 190.3 C 0 295.4 85.2 380.6 190.3 380.6 C 295.4 380.6 380.6 295.4 380.6 190.3 C 380.6 85.2 295.4 0 190.3 0 Z"/>
</svg>