<svg viewBox="8.498 3.897 82.877 91.764" width="82.877" height="91.764" xmlns="http://www.w3.org/2000/svg">
  <path
    d="M39.914 58.25c-2.719-.605-5.356-1.484-7.64-3.152-.57-.39-1.66-1.375-2.215-1.582-.766-.285-1.676-.274-2.48-.414a18.844 18.844 0 01-4.907-1.598c.562.031 1.281.36 1.852.512.78.207 4.34.957 4.925.71.09-.038.094-.038.133-.136-.058-.293-.207-.578-.324-.852 2.933 2.735 6.305 4.532 10.195 5.5 1.336.332 2.707.52 4.027.903 2.18.449 2.992 2.035 4.074 3.8 1.348 2.301 1.391 4.735.493 7.184-.22.637-.414 1.344-.73 1.938-.22-6.184-.423-11.035-7.403-12.81zm13.441 7.644c-.352 2.813.035 5.657.137 8.481.199 3.45.328 6.93.828 10.348.637 3.797 1.668 8.371 4.773 10.938-4.777-1.738-11.508-1.465-16.398-.281 3.598-3.742 3.961-9.16 4.203-14.082.23-3.27.47-6.547.383-9.828.871-1.188 1.531-2.946 1.824-4.395.598-2.949-1.105-5.355-2.632-7.664 1.277-2.758-.735-5.316-2.016-7.648-.707-1.344-1.328-2.793-2.18-4.047-.86-1.461-2.273-2.313-3.918-2.61-2.754-.824-5.562-1.191-8.418-1.422 1.004-.21 5.57.391 6.762.672.727.172 3.137 1.028 3.664.95l.035-.063c-.176-.914-5.21-6.414-6.152-7.227-1.777-1.421-3.707-2.734-5.215-4.449l.043-.023c1.684 1.488 3.527 2.848 5.473 3.957.129-.02.12-.024.207-.125.023-.13-.024-.223-.07-.34-.614-1.238-1.208-2.484-1.594-3.82l.035-.016c-.004-.012-.012-.023-.016-.035l-.043.004.004-.094c.012.031.028.059.04.09l.023-.004.015.031-.023.008c1.582 3.566 3.71 7.75 7.234 9.758.446-1.277-.125-2.985-.476-4.246.785 1.535.918 3.308 1.515 4.918 1.778 3.742 4.063 7.293 7.008 10.234.055 2.363.164 4.734.598 7.062.117-4.941-.035-9.926 1.027-14.793.723-3.133 1.195-6.469-.316-9.46-1.465-3.462-4.496-6.176-5.692-9.723 1.797 3.855 4.887 6.875 7.149 10.44.812-1.495 1.644-3.023 2.148-4.656.676-2.097.887-4.343 1.941-6.308.004.383-.609 2.066-.742 2.566-.847 3.52-1.949 7.004-2.472 10.586-.18 2.258-.079 4.528-.457 6.77.894-.633 1.64-1.473 2.418-2.242-3.098 3.972-4.282 9.968-2.036 14.602-.804 1.421-1.472 3.183-1.254 4.84.95-5.383 5.598-9.43 8.36-13.93 1.46-2.337 2.773-4.825 3.754-7.403.851-2.297 1.515-4.727 2.672-6.894l.02.023c-.845 2.168-1.34 4.687-1.556 7.008 1.875-1.219 3.715-2.535 5.625-3.688-1.226 1.086-4.335 2.926-5.515 4.356-.945 1.066-1.387 2.273-1.961 3.55-.512 1.133-1.04 2.282-1.648 3.368-1.368 2.445-3.536 4.441-4.473 7.11.09-.032.172-.063.265-.075-2.918 2.477-4.44 6.723-4.414 10.5.77-3.215 1.477-7.152 3.993-9.492 1.351-1.336 3.125-2.086 4.84-2.84 5.757-2.813 12.636-3.953 17.093-8.89v.066c-3.172 3.789-8.148 5.254-12.449 7.363 2.973.797 6.004 1.559 9.102 1.133-3.117 1.344-6.602.094-9.82.226-3.145.438-7.313 3.137-9.207 5.672-1.125 1.508-1.77 3.336-2.047 5.184zm37.875-14.23c-.652 1.043-1.855 1.243-2.953 1.5 1.074.348 1.937 1.266 1.187 2.372-.793 1.168-2.59 1.308-3.859 1.55.715.614.746 1.477-.05 2.032-1.333.847-3.075.207-4.454-.149.211.613.176 1.356-.46 1.7-1.204.757-2.048-.239-3.173-.512.38 1.004.008 2-1.18 1.976-1.386.024-2.289-.715-3.23-1.617-.184 1.988-1.469 3.18-3.277 1.8-.297 3.356-3.57 3.11-5.313.942-.992.785-2.445 1.387-3.633.664-1.136-.746-.843-1.64-1.043-2.675-.207-.055-1.18.609-1.539.722a3.096 3.096 0 01-2.46-.242c1.914-2.984 5.773-5.43 9.273-5.945 2.082.043 4.164.511 6.262.406 1.796-.05 3.406-.695 5.16-.973 3.648-.351 7.62-.117 10.746-2.379-1.617.477-3.23 1.051-4.942 1.114-1.89.148-3.8-.168-5.675.078 1.105-1 1.972-2.23 3.054-3.254.887-.895 2.024-1.52 2.895-2.418l-.047-.043c-1.703.316-3.125 1.629-4.332 2.809-.8.843-1.836 2.23-2.848 2.761-.426.223-1.011.215-1.484.235-1.957.082-4.395-.102-6.258-.707 3.691-1.606 7.07-3.11 10.016-5.957 3.438-.774 5.883-.325 8.879-2.778-1.176.203-2.273.758-3.45.996-1.402.336-2.788.325-4.214.442.594-1.285 1.559-2.297 2.547-3.281 1.613-1.805 2.945-3.856 3.473-6.247-1.555 2.457-2.532 4.153-4.727 6.137.066-.66.18-3.168-.145-3.644l-.066-.004c-.383.418-.457 2.133-.566 2.754s-.239 1.28-.454 1.875c-1.835 3.3-5.304 5.406-8.726 6.785-1.063.418-2.152.75-3.188 1.23 1.399-2.195 2.207-4.086 2.657-6.648.058-.34.28-1.238.093-1.508l-.082.012c-.207.23-1.074 3.11-1.265 3.652-1.957 5.621-6.168 6.211-10.914 8.485 1.144-1.852 2.582-3.5 3.672-5.395 1.082-1.809 1.742-3.824 2.71-5.687 1.258-2.11 4.211-4.004 6.235-5.364 3.316.219 6.89-.21 9.398-2.625.313-.363 1.117-.836.98-1.37-.628.257-1.206.94-1.843 1.284-2.45 1.567-4.734 1.618-7.52 1.625 3.11-2.953 7.317-5.539 8.36-9.96-1.34 2.386-3.266 4.316-5.457 5.93.472-2.044 1.512-4.09 1.004-6.224-.04 1.247-2.133 6.696-2.543 7.704-.758 1.007-6.223 4.355-7.531 5.195.367-2.883 1.085-5.18 2.296-7.817 1.598-3.265 3.665-7.367 2.332-11.059-.03.672.004 1.344-.046 2.012-.309 3.95-1.516 5.074-3.309 8.246-.492-1.136-1.004-2.289-1.262-3.508-.093-.43-.187-1.738-.285-1.984-.039-.098-.059-.101-.148-.144-.067.05-.082.046-.114.128-.41 2.286.368 4.586 1.22 6.688-2.47 4.387-3.395 9.445-6.005 13.766-1.965 3.785-5.035 6.883-7.246 10.492-1.539-4.078-.644-9.188 1.938-12.668 2.257-.11 5.41-.656 6.078-3.195-1.371 1.453-3.375 2.129-5.344 2.136.789-1.168 1.504-2.441 2.383-3.543 1.66-1.87 3.547-3.332 4.328-5.804-.68.703-1.172 1.566-1.89 2.293-1.083 1.093-2.345 1.98-3.446 3.05-.441-.988-.711-1.816-.79-2.902-.468 1.508.079 2.317-.003 3.738-.066 1.536-1.984 2.7-2.992 3.7.094-1.953-.031-3.88.297-5.817.293-1.844.922-3.617 1.285-5.445 3.414-.55 6.672-2.867 7.805-6.219-1.743 2.445-4.356 4.82-7.516 4.965.594-3.36 1.879-6.543 2.648-9.86 2.692-2.37 4.957-4.75 5.203-8.562-1.203 2.527-2.578 5.07-4.824 6.832-.015-1.918-.406-5.34-1.176-7.086-.07-.164-.16-.332-.328-.398-.09.066-.074.074-.078.187.106 1.516.512 3.028.574 4.559.22 3.273-.777 5.91-2.144 8.808-1.762-2.628-3.848-5.015-4.098-8.316-.191.422-.047 1.547.008 2.02.27 2.68 2.05 4.671 3.059 7.058.816 2.402-1.14 6.602-2.22 8.785-1.39-2.093-3.07-3.96-4.558-5.984-3.867-5.434-4.59-10.266-2.41-16.516l-.062-.031c-.422.218-.563.836-.766 1.238-.961 2.168-1.277 4.32-1.266 6.672-1.714-1.828-2.996-3.668-3.648-6.129-.145 2.941 1.66 5.664 3.715 7.61.472 2.085.851 3.972 1.984 5.847-1.578-.562-3.226-1.02-4.594-2.031-.714-.422-1.226-1.117-1.875-1.606l-.027.055c.633 1.621 2.305 2.656 3.781 3.441 1.25.633 2.61 1.102 3.543 2.207 7.922 10.078 4.196 10.926 3.457 21.992-2.523-2.734-4.586-5.886-6.226-9.222-.465-1.188-.7-2.422-1.04-3.649-.226-.816-.69-1.543-.714-2.414.054-1.945.82-3.922.191-5.86-.21 1.673-.586 3.329-.976 4.97-1.368-1.895-2.547-3.946-2.86-6.27l-.074.008c-.625 2.754 1.18 4.988 2.277 7.34.485 1.285.656 2.707.778 4.066-3.536-3.176-7.227-9.199-7.223-14.012.383-2.824 1.238-5.75.152-8.543.07 2.551-.254 5.047-.976 7.488-1.512-1.98-3.145-3.609-3.614-6.152l-.074-.027c-.223.25-.05.898-.016 1.203.274 2.41 2.231 4.016 3.196 6.102.699 2.812.875 5.402 2.203 8.144-4.04-2.531-6.078-4.496-7.914-8.934-.176-.421-.727-2.113-.95-2.355l-.07.008c-.16.418.051 1.015.13 1.445.558 2.727 1.913 5.371 3.648 7.535-2.258-.215-4.457-.078-6.641-.937-.45-.168-1.316-.688-1.738-.7l-.051.079c.172.441.785.695 1.168.925 2.285 1.239 4.742 1.372 7.246 1.778 1.2.058 1.996.847 2.8 1.64 2.99 2.125 5.446 4.852 7.665 7.75-3.047-.953-6.25-.968-9.39-1.28a10.566 10.566 0 01-4.876-4.84c-.191-.391-.59-1.712-.828-1.934-.047-.043-.078-.02-.133-.016-.03.05-.035.05-.054.117.02 1.399.629 2.664 1.336 3.852-1.895-.258-3.188-.797-4.84-1.695.984 1.867 3.68 2.394 5.554 2.77.864.804 1.329 1.519 2.383 2.175-1.164.273-2.172.855-3.242 1.355-1.871.871-3.875 1.02-5.906.977 2.433.754 4.48.637 6.824-.34 1.652-.762 3.422-1.281 5.254-.906 2.52.258 5.047.605 7.473 1.367 1.672.516 2.539 1.098 3.496 2.598.832 1.308 1.445 2.742 2.168 4.113.93 1.805 2.597 3.629 2.101 5.8-1.507-.839-3.207-1.206-4.566-2.335-1.395-1.16-1.238-4.027-2.2-5.691-.921-1.489-2.327-2.618-3.433-3.97.445 2.106 1.942 2.915 2.781 4.665.786 1.871.692 3.941 1.868 5.668-6.192-1.098-12.133-5.113-14.348-11.156-.079 2.742 1.84 4.355 2.718 6.687-6.73-.722-11.824-3.34-14.766-9.656.434 3.645 3.461 6.606 6.45 8.469-2.653.52-4.438.316-7.043-.234 2.515 1.636 5.285 1.742 8.117.98 2.37 1.344 5.058 1.988 7.71 2.293.676.246 1.993 1.363 2.669 1.824.765.516 1.57.98 2.363 1.45-2.121.136-3.902 1.39-5.934 1.808-1.097.168-2.316.023-3.414-.094 3.856 2.457 7.97-1.765 12.04-.64 3.054.683 6.183 1.343 7.976 4.183-1.012.461-1.985.207-2.633-.687-.707 1.441-2.031 1.851-2.832.222-.96 1.82-2.887 1.278-3.652-.378l-.559.312c1.211 3.652-3.93 5.121-5.176 1.488-1.015 1.313-2.547.774-3.21-.562-1.45 2.875-4.415 2.605-5.227-.52-1.332 1-3.348.29-3.402-1.468-.012-1.247.945-1.47 1.628-2.231-.878.078-1.812.422-2.695.281-.672-.105-1.344-.746-1.223-1.465.133-.718.915-1.187 1.461-1.585-1.41.117-2.812 1.168-4.347.742-2.5-.7-3.133-3.188-1.032-4.832-1.793.293-4.168-.387-3.48-2.664.559-1.84 2.113-2.262 3.621-3.07-1.977-.434-2.816-2.094-.238-2.387-5.649-2.442-4.028-8.246 2.09-6.493-3.329-2.933-.567-5.953 3.18-5.085-.782-.633-1.884-1.25-1.872-2.387.008-.457.223-.875.551-1.184.68-.644 1.586-.484 2.441-.472-.765-.641-2.035-1.188-2.054-2.332.054-.895 1.136-.797 1.777-.692-1.434-1.515-2.176-4.168.414-4.89 1.719-.45 2.902 1.015 4.164 1.875-.644-2.497 1.914-1.676 3.074-.707-.664-1.793-1.945-4.348-.207-5.903.266-.215.578-.363.91-.437 1.489-.324 2.278.824 3.399 1.496-.188-.715-.93-2.086.164-2.375 1.484-.317 2.742 1.414 3.879 2.113-1.29-2.437-.031-2.07 1.738-1.219-.71-.89-1.441-1.949-1.492-3.125-.14-1.101.684-2.152 1.836-2.078 1.664.016 2.723 1.395 3.797 2.457-.82-3.07 1.027-2.73 2.78-1.105-.206-.645-.554-1.621-.241-2.281.562-1.02 1.902-.63 2.715-.165-.153-.578-.52-1.144-.438-1.761.113-.5.746-.73 1.21-.63.657.145 1.075.794 1.415 1.317-.148-1.39-.5-3.347 1.328-3.73 2.14-.067 2.192 2.293 2.012 3.863.508-.875 1.27-2.082 2.422-1.375.988.492-.102 1.742-.442 2.363.344-.148 1.118-.668 1.473-.547.172.313-.219 1.38-.324 1.77.86-.55 1.304-1.676 2.34-1.95 1.007-.323 1.609.75 1.765 1.59l.082.036c.309-.117.672-1.176.973-1.508.613-.68 1.508.09 1.98.57.567-.71 1.2-1.336 2.114-1.55 1.007-.286 2.277.222 2.468 1.331.211 1.172-.863 2.106-1.468 2.981.574-.324 1.73-.961 2.027-.004.039.863-1.32 1.273-1.684 1.992 1.414-.426 2.551-1.062 1.891 1.078 1.816-.773 4.05-1.93 3.57 1.239.586-.739 1.23-1.64 2.106-2.051.574-.309 1.476-.32 1.761.379.325.808-.246 1.93-.542 2.668.62-.207 1.636-.188 1.82.59-.028 1.015-1.36 1.687-1.938 2.605.805-.379 1.68-1.21 2.618-.95.945.65-.274 1.915-.672 2.587.77-.672 1.836-1.77 2.863-1.926.766-.117 1.844.23 1.96 1.102.071.843-1.077 1.609-1.605 2.199.926-.227 2.399-.399 2.918.61.246.683-1.054 1.609-1.453 2.089a4.48 4.48 0 00-.699 1.168c1.516-1.016 3.152-3.07 5.098-1.668.386.285.718.7.773 1.191.16 1.438-1.742 2.004-2.433 2.98.757-.198 2.035-.667 2.425.31.57 1.476-2.3 2.347-2.761 3.675 1.105-.5 2.41-1.187 3.57-.41.18.113.336.27.375.488.129.77-1.164 1.567-1.512 2.168 2.016-.492 4.516-1.28 6.317.168 1.34 1.14.265 2.653-.735 3.582 1.004.79 1.836 1.887.774 3.032-1.074 1.148-2.418.656-3.778.753 1.278.528 1.93 1.79.149 2.137.668.324 1.57.66 1.695 1.488.027 1.41-1.515 2.329-2.777 2.457 1.113.563 6.254.426 5.137 2.454z"
    fill="#3d3c3c" />
  <path
    d="M51.352 71.133c-.05-.492-.117-.977-.2-1.465-.054-.258-.085-.898-.323-1.031.203 1.828.308 3.629.23 5.465-.137 3.254-.852 5.113.258 8.418.058.043.031.043.066.035-.914-3.79.469-7.598-.031-11.422zM52.812 84.188c.098 2.95-.414 7.953 2.727 9.492-1.399-1.973-2.188-4.183-2.247-6.629-.074-1.058-.117-5.172-.695-5.886.078 1.003.195 2.015.215 3.023z" />
</svg>