<svg viewBox="11.79 9.727 76.42 80.543" width="76.42" height="80.543" xmlns="http://www.w3.org/2000/svg">
  <g fill-rule="evenodd" clip-rule="evenodd" fill="#3d3c3c">
    <path d="M29.706 78.704l-.01.004-.006.013z" />
    <path
      d="M78.915 44.477c-1.398-.806-2.96-1.39-3.931-2.8a.4.4 0 00-.264-.155c-1.02-.074-2.042-.145-3.08.341 1.172 2.296 2.754 4.242 4.443 6.112-2.047-1.681-3.807-3.582-4.826-6.2-.666.205-1.45.155-2.244.305.562 2.787 2.669 4.462 4.25 6.482-1.149-.744-1.981-1.806-2.91-2.772-.985-1.022-1.438-2.281-1.741-3.611-.378.026-.654.045-.931.062-1.026.066-1.183.31-.785 1.243.447 1.051 1.102 1.979 1.761 2.902.272.381.425.658.463 1.028-1.081-1.539-2.728-2.743-2.8-4.91-1.52.141-2.886.77-4.332 1.131-.024-.334.121-.351.232-.403 1.068-.498 2.166-.993 3.317-1.148 1.484-.202 2.502-.885 3.388-2.069.773-1.037 1.892-1.764 3.062-2.363-1.279 1.198-2.678 2.271-3.675 3.771 1.206-.154 2.371-.378 3.534-.615.17-.035.268-.188.367-.337a7.197 7.197 0 012.15-2.085c.669-.426 1.333-.855 2.088-1.337-.685-.267-1.211-.093-1.738.069-.548.167-1.078.389-1.679.147-.995-.4-1.801.064-2.567.643-.324.246-.664.473-.977.731-.675.56-1.508.658-2.462.958.26-.455.4-.747.723-.929.602-.342 1.076-.837 1.572-1.312.908-.869 1.751-1.81 2.792-2.535.298-.208.581-.279.899-.152 2.004.798 3.82.132 5.602-.731.36-.175.742-.414.797-.875-.135-.15-.254-.118-.387-.098-1.536.237-3.054.521-4.636.258-.817-.135-1.816-.974-2.448.465-.158-.456.193-.647.112-1.03-.895-.589-1.271-1.636-1.777-2.623-.138.914-.255 1.805-.23 2.691.015.563-.147 1.219.441 1.665.171.128.127.357-.017.521-.325.368-.628.762-.992 1.086-1.104.979-2.228 1.934-3.351 2.89-.178.15-.334.398-.644.298 0-.074-.016-.125.002-.156.089-.146.184-.289.279-.43.823-1.222 1.275-2.57 1.268-4.043-.003-.697-.237-1.403.274-2.031.146-.183-.142-.338-.107-.521.63-.686.859-2.074.425-2.843-1.853.64-3.269 1.978-4.841 3.074 1.188-1.741 3.073-2.57 4.956-3.618-1.145-.899-.488-2.065-.704-3.174-1.447.804-2.589 1.852-3.77 2.851.057-.422.342-.66.601-.905a12.935 12.935 0 012.232-1.72c1.117-.674 1.148-.793.528-1.984-.127-.247-.256-.5-.43-.714-.391-.485-.815-.507-1.248-.062-.567.583-1.166 1.146-1.653 1.794-.308.411-.85.703-.851 1.312-.002 1.047.016 2.096.018 3.144.002 1.214.056 2.432-.012 3.643-.142 2.542-.538 5.064-.593 7.613-.018.712-.004 1.425-.004 2.137l-.19.035c.018-.794-.369-1.171-1.124-1.185-.122-.002-.243-.071-.365-.111-1.662-.545-3.016-1.583-4.314-2.708-.161-.139-.293-.363-.625-.285.124.273.191.533.341.73.652.869 1.03 1.861 1.359 2.882.273.852.651 1.631 1.511 2.064.237.12.268.339.086.535-.245.267-.478.574-.782.753-1.097.647-2.017 1.506-2.969 2.334-2.016 1.753-4.103 3.42-6.221 5.047-.26.199-.524.271-.879-.141 1.855-1.306 2.62-3.373 3.732-5.217-.714.462-1.381.981-2.083 1.447-1.587 1.055-1.603 1.047-2.333.882.799-.409 1.567-.733 2.245-1.219 1.532-1.096 3.325-1.958 3.65-4.122.084-.559.428-1.13-.075-1.756-2.042 1.751-3.654 4.092-6.704 4.157-.074 2.132-.082 4.172.155 6.212-.083-.101-.09-.204-.104-.307-.115-.857-.376-1.104-1.239-1.144-.396-.019-.689-.231-.988-.464.593-.001 1.162.221 1.731.117.218-.255.125-.513.093-.763-.054-.424-.161-.847-.165-1.271-.034-2.63-.018-5.251.483-7.857.479-2.495.394-5.06.789-7.569.167-1.059.312-2.124.686-3.148.276 1.126-.131 2.24-.074 3.382.841-.925 1.6-1.872 2.35-2.827.059-.076.106-.227.07-.298-.354-.708-.166-1.707-1.128-2.09-.194-.079-.26-.276-.252-.484.03-.759-.499-1.216-.885-1.775-.505.333-.617.828-.788 1.281-.161.426-.396.649-.904.626-.972-.044-1.438.673-.98 1.516.447.826.877 1.667 1.447 2.422.115.152.342.289.154.593-1.076-.628-1.499-1.756-2.117-2.74-.567.399-.946.879-1.277 1.41-.184.294-.167.529.034.819.476.688.953 1.37 1.499 2.006.445.52.868 1.059 1.302 1.59-1.613-.846-2.403-2.393-3.373-3.97-.448.894-.76 1.667-1.261 2.326-.233.307-.183.521.075.774.675.658 1.331 1.335 1.996 2.002.699.701 1.401 1.4 2.103 2.1l-.133.136c-1.815-1.062-2.942-2.875-4.499-4.409-.46.967-.628 1.869-.644 2.811-.005.19.097.315.222.442a24.687 24.687 0 003.42 2.901c.509.358 1.104.617 1.534 1.122-.286.202-.501.038-.696-.053-1.782-.839-3.119-2.23-4.421-3.649-.473-.515-.609-.54-.962.055-.161.273-.184.548-.163.86a5.34 5.34 0 00.954 2.756c.002 0 .003.002.004.003.002-.007.006-.012.009-.019.008.016.019.034.026.05 1.482 1.349 3.064 2.562 5.067 3.46-1.348.196-4.39-2.002-5.067-3.46l-.035-.031c-.259.581-.93.931-.975 1.62-.058.874.225 1.69.86 2.273 1.23 1.129 2.566 2.123 4.096 2.839.314.147.752.19.974.678-1.781-.082-2.891-1.269-4.279-2.28-.48 1.731 1.027 2.157 1.768 3.042-.437.153-.408.365-.231.702.53 1.022 1.603 1.451 2.356 2.228.484.499 1.08.776 1.803.57.078.238.113.471-.085.614-.591.427-1.077.988-1.662 1.397-1.592 1.112-3.082 2.354-4.584 3.573-1.457 1.181-2.881 2.413-4.171 3.786-.414.438-.903.804-1.434 1.268-.22-.664-.355-1.288.164-1.631.938-.621 1.469-1.519 1.83-2.491.44-1.187.944-2.337 1.517-3.461.285-.554.463-1.104.159-1.712-.103-.203-.023-.417.039-.625.322-1.073.242-2.123-.17-3.169-.233.126-.316.323-.406.517a24.71 24.71 0 01-1.517 2.747c-.66 1.052-1.305 2.118-2.271 2.932-.244.206-.485.41-.826.203.016-.085.009-.142.034-.164 1.581-1.424 2.622-3.256 3.785-4.998.729-1.09 1.328-2.176.65-3.519-.31-.612-.6-1.235-.967-1.995-.972 1.962-2.054 3.615-3.29 5.305-.079-.367.068-.505.161-.668.904-1.624 1.904-3.195 2.697-4.882.332-.707-.011-2.209-.656-2.647-.845 2.349-1.845 4.608-3.244 6.668a174.65 174.65 0 002.7-6.704c.115-.307.158-.602-.017-.86-.421-.626-.652-1.29-.581-2.054.014-.155-.03-.349-.337-.368-.491 2.119-1.222 4.158-2.301 6.078-.188-.128-.17-.215-.136-.292.788-1.673 1.211-3.468 1.777-5.217.216-.665.24-1.172-.398-1.624-.233-.167-.32-.542-.474-.822-.098-.177-.101-.437-.403-.443-.217.115-.225.351-.272.549-.368 1.495-.875 2.946-1.395 4.394-.131.366-.214.749-.15 1.137.292 1.786.665 3.558.91 5.354.194 1.416.641 2.8.806 4.218.278 2.357.868 4.641 1.408 6.939.173.732.262 1.484.402 2.313-.355-.109-.619-.068-.848-.311.409-1.21-.197-2.315-.436-3.47-.062-.306-.218-.488-.534-.558-2.331-.516-4.421-1.541-6.304-3.003-.183-.143-.348-.398-.689-.271.118.498.438.932.363 1.472-.074.542.185.983.487 1.418.608.873 1.532 1.305 2.409 1.808.014-.001.024-.004.038-.006.004.01.013.016.018.026.932.217 1.852.464 2.802.607.454.069.92.104 1.452.184-.269.349-.589.274-.839.242-1.066-.137-2.126-.319-3.123-.759a.58.58 0 01-.292-.274.571.571 0 00-.035-.008l-.021-.012c-.376.047-.515.229-.404.641.145.539.404 1.001.837 1.335.931.719 1.888 1.412 3.038 1.747.747.218 1.511.376 2.374.588-.342.54-.83.799-1.229 1.135-1.696 1.432-3.479 2.758-4.911 4.487-.773.934-1.683 1.756-2.532 2.629-.118.123-.236.262-.437.205-.237-.068-.237-.271-.256-.465-.011-.102-.036-.203-.076-.435-.711.779-1.189 1.662-2.095 2.085l-.003-.004-.01.011.003-.001-.006.003.016-.008c.129.577.256 1.154.383 1.732l-.197.164c-.099-1.119-.801-1.071-1.551-1.028-1.046.061-2.096.029-3.112-.277-.872-.263-1.688-.63-2.351-1.291 2.021 1.021 4.181 1.09 6.457 1.114l-.796-2.169c-3.63-.509-6.724-1.932-9.441-4.242.696 2.185 1.632 4.23 3.271 5.769 1.631 1.529 3.686 2.492 5.804 3.507-.423.489-.745.905-1.112 1.276a24.14 24.14 0 00-3.023 3.733c-.693 1.059-1.585 2.01-2.033 3.233-.416 1.14-1.668 1.942-1.31 3.375-.271.127-.66-.089-.731.317-.048.272.029.507.314.583 1.151-1.24 1.972-2.697 2.909-4.059 1.124-1.636 2.278-3.255 3.555-4.76.987-1.164 1.897-2.546 3.651-2.917.286.099.334.336.171.674-.196.408-.235.833.019 1.229.602.932 1.189 1.874 1.835 2.775.827 1.154 1.991 1.696 3.427 1.678-.44-.836-.854-1.707-1.104-2.643.328.254.481.609.627.959.851 2.059 2.102 3.657 4.48 4.005.205.03.402.165.659-.106-.511-.561-1.163-.979-1.654-1.56a13.587 13.587 0 01-1.372-1.933c-.374-.64-.8-1.257-.938-2.005a.469.469 0 01.251.215c.867 1.734 2.162 3.114 3.556 4.434.802.76 1.82.535 2.74.844-.761-.893-1.516-1.746-2.093-2.742-.872-1.508-1.351-2.596-1.292-3.178.139.239.241.418.346.596.872 1.5 1.812 2.943 3.02 4.215.876.925 1.818 1.141 3.005.778.558-.17.91-.417.96-1.06-.71-.773-1.752-1.196-2.434-2.044.343.169.651.387.973.583.617.377 1.169.971 1.878 1.061.965.122 1.961.062 2.938-.012.431-.033.91-.211 1.05-.809-1.313-.351-2.605-.663-3.687-1.481.891.371 1.82.603 2.747.83.712.175 1.444.427 2.108-.223.393-.385.175-.938.51-1.273-.237-.409-.593-.326-.897-.329-.773-.007-1.219-.308-1.342-1.064-.069-.43-.297-.664-.658-.78-.527-.17-1.041-.359-1.465-.7-.73.31-1.242.866-1.932 1.178a5.088 5.088 0 011.065-1.073c.472-.348.394-.768.121-1.114-.559-.71-1.18-1.15-1.93-.461-.232.213-.559.325-.803.528-.761.634-1.643 1.134-2.297 2.021l5.47.995c-1.704.854-15.222-2.153-16.193-3.435.153-.113.329-.081.495-.063 1.088.11 2.142.385 3.172.729.337.113.605.102.89-.07.087-.211.145-.446.274-.626.977-1.355 2.155-2.484 3.672-3.233.366-.181.946-.351.717-.879-.225-.516-.771-.295-1.203-.177-.083.022-.162.056-.243.086-.78.294-1.539.721-2.346.85-1.201.193-1.91.958-2.615 1.797-.163.194-.283.444-.625.527.368-.866 1.071-1.396 1.564-2.087-.327-.241-.551-.044-.764.058-.467.225-.832.6-1.251.892-.831.582-1.816.703-2.814.837.554-.695 1.004-1.409 1.654-2.006 1.59-1.456 3.133-2.964 4.575-4.575 1.346-1.499 3.013-2.661 4.462-4.054.302-.289.568-.204.817.099.227.273.226.585.22.911-.021 1.082.367 2.007 1.09 2.801.175.193.367.396.652.342.943-.176 1.484.331 1.897 1.076.127.23.236.48.597.646-.184-.424-.334-.747-.466-1.076-.723-1.807-1.349-3.638-1.591-5.586-.081-.632-.613-.772-1.162-.416-.262.17-.537.413-.971.225 1.144-.996 2.027-2.158 3.14-3.106 1.807-1.54 3.531-3.176 5.324-4.733.538-.468 1.09-.892 1.342-1.655.264.221.466.113.71-.065.884-.646 1.676-1.398 2.495-2.118.256-.225.517-.427.929-.391-.275.166-.349.414-.415.686-.372 1.555 1 4.288 2.485 4.921.02.008.04.024.061.022.761-.064 1.049.521 1.433 1.007.262.332.539.741 1.194.542-.721-2.028-1.339-4.049-1.602-6.114-.455-.241-.964.068-1.368-.321.12-.468.489-.458.848-.483.652-.046 1.381.165 1.924-.314.671-.593 1.452-.974 2.229-1.378.795-.415 2.083-.85 2.597-.814-1.588.664-3.064 1.275-4.312 2.297.175.264.365.278.522.287.794.045 1.647.458 2.37-.071 1.408-1.029 2.998-1.593 4.646-2.061.797-.227 1.629-.384 2.461-.839-1.138-.743-2.194-.551-3.248-.21-.691.223-1.384.573-2.082.132a2.034 2.034 0 00-.957-.306c-1.31-.11-2.561.129-3.707.769-1.021.569-2.171.784-3.229 1.246-.138.06-.3.072-.368-.124 0-.157.125-.22.222-.299 1.268-1.05 2.554-2.08 3.802-3.153 1.606-1.379 3.307-2.642 4.958-3.963.621-.498 1.27-.416 1.656.31.275.516.685.816 1.194 1.005 2.434.901 4.692 2.241 7.288 2.763 1.446.291 2.852.479 4.294.134.681-.161 1.35-.452 2.035-.489.812-.044 1.63-.012 2.399-.304 1.03-.393 2.004-.9 2.959-1.606-.355-.267-.554-.532-.877-.687-.765-.365-1.53-.75-2.269-1.176zM66.688 32.252a126.415 126.415 0 01-3.801 2.598c.984-1.262 2.407-1.909 3.801-2.598zm-1.988 4.19l-2.156 1.642-.121-.16c.551-.769 1.368-1.186 2.277-1.482zM33.999 60.967c1.08-.482 1.633-1.514 2.451-2.268-.485 1.114-1.237 1.941-2.451 2.268zM75.858 28.64c.148-.12.243-.175.311-.252 1.196-1.361 2.496-2.631 3.571-4.099.745-1.014 1.68-1.886 2.257-3.027.272-.538.551-1.063.438-1.701-.338-1.905-.167-3.789.245-5.663.061-.274.242-.564-.034-.874a4.21 4.21 0 01-1.354.275c-.282.015-.589.128-.71.384-.436.924-1.109 1.536-2.103 1.816-.183.052-.319.275-.473.422-.461.44-.868.968-1.639.809-.125-.026-.295.144-.436.234-.849.539-1.382 1.383-2.057 2.09-.252.264-.328.477-.324.828.02 2.187.578 4.265 1.255 6.315.271.82.46 1.688 1.053 2.443zm4.196-12.892c.225 2.255.041 4.541.787 6.868-.996-.644-1.447-5.228-.787-6.868zm-2.203 9.447c-.999-1.706-.922-3.634-1.148-5.5.291 1.852.655 3.69 1.148 5.5z" />
    <path
      d="M51.668 73.093c-1.059-1.032-2.084-2.088-2.832-3.378-.323-.556-.732-1.137-.684-1.768.071-.915-.47-1.014-1.112-1.114-1.054-.164-2.101-.392-3.161-.479-.679-.057-1.345-.47-2.068-.18-.014.167-.036.293-.031.417.108 2.423 1.2 4.461 2.562 6.372.559.785 1.323.788 1.977.127.1-.1.203-.176.333-.149.787.169 1.609.393 2.273.759 1.119.614 2.041.737 3.151-.085-.07-.258-.26-.375-.408-.522zm-7.271-6.226c1.171 2.115 2.537 4.106 3.846 6.135-1.552-1.879-3.036-3.801-3.846-6.135z" />
    <path
      d="M58.113 66.752c-.373-.573-.813-.968-1.289-1.326-.222-.169-.471-.149-.73-.051-.918.346-1.85.659-2.759 1.023-.639.256-1.325.415-2.06.895l2.306.667-.039.163-5.107-.968c.013.238.005.364.028.484.232 1.236.897 2.263 1.657 3.217 1.109 1.393 2.157 2.91 4.224 2.953.272.005.52.271.932.097-1.849-1.701-3.485-3.468-4.556-5.673a.54.54 0 01.318.219c1.238 1.771 2.566 3.464 4.092 5.002 1.037 1.045 1.889.916 2.463-.44-1.306-1.467-2.771-2.832-3.416-4.753 1.178-.927 2.537-1.195 3.936-1.509zM74.468 57.377c-.717.03-1.466.185-1.918-.635-.136-.246-.445-.245-.702-.204-.757.119-1.521.218-2.263.4-.349.085-.77-.123-1.105.255 1.186.611 2.523.713 3.632 1.382-1.832-.095-3.517-.775-5.45-1.286.956 1.168 2.071 1.853 3.118 2.626-.159.142-.245.073-.341.026-1.168-.579-2.11-1.458-2.992-2.377-.971-1.012-2.257-1.182-3.603-1.681.069.294.069.409.122.494a21.408 21.408 0 003.964 4.76c.201.179.42.144.659.152.825.026 1.542-.34 2.264-.639.788-.327 1.663-.396 2.396-.867.559-.359 1.14-.667 1.836-.653.242.004.521-.044.62-.265.168-.383.486-.506.824-.647.312-.129.592-.319.889-.666-.695-.194-1.32-.201-1.95-.175z" />
    <path
      d="M59.996 68.869c-.297-.611-.898-1.074-1.368-1.601-.089-.1-.21-.176-.342-.125-.956.363-2.003.445-2.917.92-.454.235-.705.569-.325 1.132.612.905 1.359 1.706 1.982 2.594.818 1.165 1.928 1.438 3.218 1.294 1.026-1.347 2.443-1.832 4.125-2.129-.785-.679-1.58-.896-2.432-1.01-.775-.105-1.511-.191-1.941-1.075zM25.36 52.15c1.658 1.442 3.525 2.553 5.424 3.624.225.126.407.403.8.278-.186-1.105-.396-2.211-.541-3.325-.054-.407-.192-.672-.552-.851-1.675-.837-3.017-2.082-4.219-3.491-.466-.546-.926-1.097-1.415-1.679-.27.254-.242.515-.34.722-.3.644.125 1.312-.084 1.96-.364 1.144.038 1.987.927 2.762zM20.299 66.599c.349 1.316.637 2.652 1.041 3.952.13.417.027.955.473 1.285.469-.307.691-.787.968-1.205.836-1.271 1.984-2.37 2.225-3.981.103-.674.206-1.326-.353-1.969-.891 1.438-1.587 2.915-2.873 3.949a60.356 60.356 0 002.323-3.827c.274-.497.09-2.229-.29-2.273-.736-.084-.633-.614-.789-1.046-.07-.195-.019-.488-.31-.573-.042.035-.096.056-.103.089a14.04 14.04 0 01-2.06 4.772c-.155.23-.345.48-.252.827zM51.643 38.579c-1.193 1.404-2.435 2.783-4.028 3.719-.981.577-1.441 1.258-1.347 2.375.028.332-.079.676-.121 1.016-.023.187-.076.383.167.592.394-.125.841-.236 1.267-.403 2.065-.812 3.576-2.36 5.105-3.882.214-.213.226-.493.217-.778-.031-1.071-.131-2.129-.663-3.142-.284.096-.433.31-.597.503zM86.158 26.194c.863-1.102 1.23-2.324.897-3.747-.082.031-.16.054-.233.087-1.742.802-3.375 1.832-5.181 2.501-.679.252-1.463.364-2.008.788-.818.634-1.469 1.485-2.187 2.248-.084.089-.184.196-.035.349 1.279-.245 2.595-.324 3.888-.612.992-.222 1.972-.531 2.992-.602.161-.231.438-.229.666-.312.446-.16.893-.307 1.201-.7zM84.302 27.206h-.01l-.009.013zM21.045 72.123l.167-.159-.663-2.299c-.103-.36-.372-.471-.714-.542-.395-.081-.778-.223-1.161-.353-2.18-.736-3.905-2.158-5.559-3.687-.188-.171-.352-.383-.649-.324-.76.712.117 1.807-.676 2.6 2.547 2.683 6.023 3.485 9.255 4.764zM54.207 54.167c-.534.022-.72.094-.655.681.106.959.321 1.898.619 2.798.438 1.332.46 2.857 2.029 3.672 1.111.578 2.229 1.036 3.429 1.333.119.029.259.021.393-.15-.025-.066-.034-.133-.071-.181-1.454-1.969-2.693-4.079-3.427-6.408-.401-1.275-1.024-1.8-2.317-1.745zM54.969 36.479c-.137.466.014.907.396 1.278 1.056 1.025 2.313 1.754 3.594 2.431.738.39 1.51.763 2.424.964.151-.999.142-1.929.056-2.857-.023-.226-.241-.326-.454-.407-1.681-.646-2.932-1.868-4.171-3.11-.562-.563-1.011-1.249-1.721-1.753-.314.684-.234 1.321-.108 1.901.115.541.143 1.018-.016 1.553zM18.139 62.826c.062.061.153.076.249-.039-.479-1.339-1.316-2.521-1.961-3.809.758.245 1 .963 1.407 1.479.431.543.533 1.332 1.062 1.995.568-1.301 1.119-2.531 1.301-3.885.123-.929-.677-1.898-1.606-2.05-.65.973-.161 2.109-.489 3.135-.176-.682-.155-1.369-.112-2.061.021-.319.029-.595-.339-.809-.857-.498-1.776-.924-2.408-1.843-.289.509-.138.945-.051 1.368.11.549.212 1.023-.281 1.526-.311.316-.682.845-.166 1.407 1.113 1.213 2.211 2.438 3.394 3.586zM59.466 36.296c.624.469 1.214.995 2.028 1.343.23-.976.175-1.915.087-2.831-.049-.498-.682-.509-1.036-.762-.051-.037-.097-.084-.146-.123-1.324-1.007-2.387-2.243-3.283-3.639-.34-.525-.613-1.118-1.277-1.595-.231 1.203-.45 2.282-.646 3.365-.058.318.117.565.322.802 1.156 1.334 2.553 2.387 3.951 3.44zM61.606 25.509c.037.052.142.055.25.092.232-1.526.127-3.021.104-4.515.62 1.3.428 2.689.509 4.274.688-1.081 1.421-1.839 2.187-2.565.663-.629.627-.974-.124-1.505-.587-.415-1.263-.781-1.688-1.332-.489-.635-1.005-1.271-1.416-1.97-.136-.23-.291-.47-.592-.395-.339.086-.29.409-.333.684-.15.942-.103 1.941-.648 2.779-.29.446-.319.889-.134 1.339.467 1.134 1.173 2.128 1.885 3.114zM82.875 19.024c1.141-2.608 1.894-5.324 2.912-7.946-.428 2.21-.638 4.458-1.417 6.607.994-.713 1.906-1.502 2.552-2.499.358-.553.535-1.342.125-1.954-.534-.797-.393-1.577-.229-2.399.047-.233.294-.469.038-.711-.248-.235-.47.08-.705.063-.409-.619-.854-.604-1.188.009-.325.594-.512 1.287-1.103 1.701-.365.256-.522.627-.609 1.019-.415 1.822-.545 3.674-.542 5.538 0 .185-.09.418.166.572zM56.479 54.615c.039.144.057.246.093.34a41.316 41.316 0 003.382 6.744c.693 1.12 2.346 1.339 3.153-.005-.048-.074-.097-.168-.164-.247-1.466-1.741-2.607-3.7-3.776-5.639-.57-.944-1.451-1.387-2.688-1.193zM38.327 66.169c.578 2.003 1.206 3.993 1.988 5.927.447 1.109 1.147 1.194 1.869.261.065-.084.115-.179.157-.245.495.136.79.551 1.332.506-1.355-2.056-2.587-4.109-2.185-6.74-1.099-.064-2.045-.654-3.102-.624-.24.333-.138.643-.059.915z" />
    <path
      d="M20.216 68.5c-.208-.8-.407-1.602-.645-2.394a.794.794 0 00-.513-.542c-2.028-.649-3.519-2.038-4.925-3.55-.202-.219-.379-.533-.806-.461-.095.878.033 1.794-.529 2.718 2.084 2.102 4.689 3.341 7.266 4.556.174-.114.177-.229.152-.327zM84.148 39.197c-.498-.461-1.058-.396-1.655-.077-.789.422-1.627.752-2.434 1.145-.193.095-.464.132-.535.446 1.01.501 2.13.046 3.357.36l-2.372.436c-.007.056-.016.113-.022.17 1.229.58 2.46 1.158 3.688 1.741.292.138.506.018.669-.203.305-.411.664-.806.86-1.267.175-.416.396-.58.809-.528.65.08 1.14-.243 1.662-.623-.429-.467-.944-.677-1.512-.812-.855-.202-1.789-.118-2.515-.788zM59.147 32a19.405 19.405 0 002.466 2.348c.031-1.194.203-2.214.172-3.26-.016-.517-.029-.896-.685-.996-.358-.054-.67-.354-.938-.643a12.495 12.495 0 01-1.779-2.425c-.307-.547-.65-1.075-1.039-1.712-.306.503-.478.879-.472 1.285.008.419-.144.751-.399 1.046-.346.397-.269.716.027 1.134.808 1.14 1.729 2.181 2.647 3.223zM71.664 24.001c.174 1.854.801 3.572 1.596 5.232.203.425.355.91.801 1.236.52-.371.912-.848 1.331-1.298.164-.177.068-.343-.026-.524-1.393-2.676-2.123-5.518-2.138-8.539 0-.142.062-.303-.17-.461-.326.273-.434.629-.517 1.007-.081.372-.106.827-.483 1.004-.694.323-.656.87-.561 1.461.047.297.14.587.167.882zM25.305 46.463c.712.938 1.5 1.81 2.352 2.622.918.878 1.873 1.717 3.154 2.482-.343-1.137-.248-2.149-.563-3.102a.59.59 0 00-.174-.26c-1.562-1.236-2.558-2.898-3.479-4.616-.292-.546-.606-.59-1.039-.143-.187.193-.597 2.463-.477 2.706.057.114.148.209.226.311zM66.262 61.063c-1.521-1.478-2.958-3.021-3.798-5.017-.062-.145-.154-.268-.307-.306-.959-.242-1.919-.475-2.879-.711a5.237 5.237 0 01-.1.176c.23.351.466.698.69 1.051 1.086 1.71 2.107 3.464 3.403 5.031.73.883 2.414.99 3.329.227-.036-.206-.203-.319-.338-.451zM25.669 55.829c1.641 1.148 3.472 1.917 5.329 2.622.362.137.708.438 1.284.251-.136-.544-.271-1.07-.401-1.597-.082-.332-.271-.496-.608-.646-2.29-1.024-4.499-2.193-6.256-4.051-.152-.162-.29-.376-.636-.375.067.514.346 1.012.2 1.504-.33 1.113.298 1.738 1.088 2.292zM47.359 38.501a.75.75 0 00-.433.67c-.036 1.108-.212 2.2-.419 3.327.319.043.464-.093.615-.207 1.746-1.321 3.304-2.842 4.738-4.489.52-.597.294-2.223-.38-2.802-.09.084-.186.166-.271.258-1.147 1.242-2.298 2.479-3.85 3.243zM77.697 28.658c-.765-.021-2.12 1.035-2.352 1.816.172.166.397.114.604.144.862.123 1.712-.073 2.552-.172 1.938-.229 3.923-.307 5.702-1.274.85-.462 1.326-1.203 1.701-2.104-.611-.152-1.093.259-1.62.153-.147.113-.282.274-.448.318-2.017.528-4.013 1.179-6.139 1.119zM84.301 27.206a.28.28 0 01-.018.013l.001.001.017-.014zM87.18 18.182c-1.106 1.311-2.253 2.615-3.727 3.496-1.246.745-1.964 1.942-2.944 2.908-.087.085-.172.197-.118.425.175-.034.329-.034.459-.092 1.751-.79 3.514-1.555 5.238-2.399.598-.292 1.353-.494 1.485-1.358.072-.468-.11-.986.267-1.401.656-.725.294-1.448.021-2.193-.349.113-.492.392-.681.614z" />
    <path
      d="M59.5 27.774c.648.804 1.303 1.619 2.285 2.294.183-.874.053-1.639.099-2.393.049-.814.037-1.572-.801-2.041-.153-.085-.235-.299-.349-.454-.523-.71-.887-1.51-1.288-2.289-.146-.284-.348-.401-.66-.412-.335-.013-.443.227-.55.454-.205.446-.402.897-.564 1.361-.129.367-.179.744.086 1.101.586.791 1.126 1.615 1.742 2.379zM37.09 75.736c-1.677 1.002-3.201 2.206-4.611 3.556-.105.102-.237.192-.192.405.268.31.697.215 1.049.333 1.188.399 2.362.629 3.222-.667.137-.206.402-.32.58-.505.604-.632 1.398-1.019 2.087-1.551-.164-.456-.501-.641-.607-1.025-.201-.724-.873-.938-1.528-.546zM29.566 43.418c-.027-.789-.135-1.538-.064-2.311.354.673.281 1.473.758 2.271.387-1.496.743-2.822 1.066-4.155.087-.357.406-.737.126-1.099-.421-.544-.591-1.172-.763-1.81-.078-.292-.157-.647-.501-.671-.383-.026-.638.295-.729.621-.149.54-.498.925-.812 1.356-.37.505-.947 1.016-.703 1.708.485 1.382 1.076 2.729 1.622 4.09zM80.736 42.417c-1.36-.923-2.833-1.077-4.392-.912-.343.037-.713-.119-1.059.126.143.328.424.45.677.597 1.327.771 2.658 1.534 3.982 2.307 2.101 1.223 2.314 1.197 4.061-.547.028-.027.039-.074.112-.219-.257-.118-.474-.258-.712-.319-.929-.241-1.88-.498-2.669-1.033zM72.467 32.361c.282-.524.729-.922 1.121-1.37.174-.198.141-.362-.021-.564-1.218-1.529-1.854-3.3-2.128-5.215-.087-.623-.157-1.248-.254-2.026-1.91 3.196-1.247 7.714 1.282 9.175zM83.232 29.945c-.795.183-1.595.366-2.394.551-1.898.44-3.797.848-5.757.382-.136-.032-.33-.033-.429.042-.572.436-1.082.938-1.616 1.58 1.084.387 2.061.244 3.006.256 1.654.021 3.348.085 4.865-.746.739-.406 1.406-.948 2.098-1.442.17-.12.337-.274.227-.623zM48.106 33.659c-1.419 1.253-.647 2.85-.914 4.306 1.554-.996 2.983-2.046 4.017-3.542.136-.197.075-.373-.075-.518-.345-.331-.377-.742-.352-1.184.033-.576-.146-1.069-.627-1.478-.697.837-1.277 1.734-2.049 2.416zM67.418 51.906c-1.912.562-3.746 1.317-5.532 2.195-.211.103-.518.132-.548.527.646.182 1.308.331 1.944.558.763.273 1.465.417 2.118-.256.184-.188.486-.258.734-.386.928-.478 1.942-.74 2.953-1.096-.225-.376-.492-.681-.598-1.033-.185-.618-.517-.671-1.071-.509zM49.643 62.472c-1.407.378-2.585 1.202-3.804 1.944-.479.293-1.018.531-1.449 1.151.964.263 1.822.464 2.707.538.244.021.441-.147.631-.287 1.12-.834 2.343-1.474 3.631-2.008.28-.116.624-.166.808-.459-.467-.791-1.534-1.146-2.524-.879zM52.685 63.72c-.983.512-1.97 1.017-2.944 1.544-.536.291-1.05.623-1.721 1.025.188.092.262.144.342.164 1.08.278 2.154.89 3.254.049.1-.076.228-.115.347-.165 1.349-.575 2.781-.894 4.244-1.319-.467-.652-1.116-.968-1.741-1.305-.584-.315-1.191-.301-1.781.007zM31.081 79.413c.473.254.762.065 1.091-.294a17.658 17.658 0 013.993-3.287c.169-.1.401-.166.43-.428-.343-.294-.867-.073-1.146-.331-.637-.592-1.114-.178-1.634.133-.792.471-1.547.997-2.223 1.62-.65.601-1.259 1.25-1.884 1.878.232.672.919.465 1.373.709z" />
    <path
      d="M29.707 78.702l-.017.02.018-.018-.001-.002zM19.053 62.895c.351.937.712 1.87 1.082 2.836.136-.098.209-.123.233-.173.804-1.592 1.524-3.219 2.053-4.925a.851.851 0 00-.274-.932c-.451-.382-.948-.709-1.507-1.119-.34 1.503-.737 2.865-1.538 4.07-.044.065-.075.175-.049.243zM80.939 37.19c-2.461-.998-6.354.872-8.201 3.516.767 0 1.404-.003 2.039.002.178.001.338-.019.475-.145 1.509-1.376 3.369-2.142 5.189-2.975.189-.086.493-.069.498-.398zM28.853 46.112c.383.551.808 1.073 1.214 1.608.067-.034.133-.068.198-.103-.282-1.044-.171-2.178-.681-3.162a21.511 21.511 0 01-1.75-4.597c-.052-.197-.148-.361-.383-.371a.377.377 0 00-.395.271c-.423 1.274-.771 2.543.087 3.793.582.847 1.125 1.718 1.71 2.561zM64.846 50.861c-1.122.398-2.259.757-3.376 1.168-1.173.433-2.335.901-3.384 1.71.817.364 1.639.6 2.512.596.129 0 .269-.12.388-.206 1.396-1.017 2.968-1.648 4.614-2.135.446-.132.993-.075 1.436-.608a3.397 3.397 0 01-1.574-.578c-.174-.118-.405-.022-.616.053zM64.934 55.532a17.8 17.8 0 00-.004.229c1.309.306 2.354 1.648 3.949.862.129-.063.3-.032.439-.081.736-.256 1.558-.166 2.393-.549-.614-.644-1.153-1.239-1.729-1.796-.253-.246-.6-.185-.916-.079-.727.244-1.453.488-2.179.737-.651.224-1.302.452-1.953.677zM45.366 61.967c-1.464.773-2.585 1.996-4.029 3.208.951.206 1.706.329 2.477.34.08.001.204-.103.24-.187.466-1.063 1.465-1.498 2.37-2.053.368-.227.812-.358 1.148-.829-.771-.215-1.403-.902-2.206-.479zM13.956 60.366c-.414.572-.088.966.321 1.315.68.582 1.36 1.166 2.078 1.699.863.641 1.716 1.311 2.724 1.754.152-.649-.254-1.619-.798-1.947-1.426-.859-2.644-1.934-3.608-3.303-.249-.353-.446-.77-.981-.968.077.3.144.604.238.899.058.187.151.377.026.551zM41.977 61.951c-1.22.7-2.188 1.791-3.554 2.258-.101.034-.158.141-.094.313.56.239 1.216.231 1.811.42.716.227 1.146.026 1.604-.523.517-.618 1.089-1.204 1.791-1.638.211-.131.446-.262.5-.543-.54-.589-1.406-.662-2.058-.287zM86.696 16.083c-.577.599-1.054 1.36-1.74 1.772-1.328.797-1.409 2.195-2.082 3.522.276-.089.367-.094.427-.141 1.177-.924 2.269-1.943 3.377-2.944.859-.774 1.114-1.614.624-2.67-.323.019-.435.282-.606.461zM24.516 71.662c.101-.807.188-1.611.377-2.403.053-.229.19-.491-.076-.693-.264.053-.316.291-.436.457-.618.872-1.206 1.766-1.918 2.565-.357.403-.861.691-.501 1.408.236.469.204 1.068.623 1.475.252-.289.528-.557.743-.869.429-.626 1.087-1.14 1.188-1.94zM79.452 40.115c.192-.133.393-.26.603-.361.763-.368 1.53-.724 2.296-1.084-.606-1.305-.617-1.327-1.852-.689-.947.49-1.86 1.044-2.788 1.57-.578.328-1.217.565-1.741 1.06 1.179.319 2.617.1 3.482-.496z" />
  </g>
</svg>