<svg viewBox="5.055 8.917 89.89 82.196" width="89.89" height="82.196" xmlns="http://www.w3.org/2000/svg">
  <path
    d="M47.457 63.891h-.234c-.918.195-1.82.43-2.778.695l-.515.153c-.89.265-1.778.57-2.653.918l-.445.18c-.89.359-1.766.765-2.625 1.195l-.293.152a34.28 34.28 0 00-2.668 1.484 41.828 41.828 0 002.668 1.5l.293.141v-.004a36.684 36.684 0 009.016 3.113h.168c.875-3.113.898-6.402.066-9.527zm.305 12.5h.004a38.625 38.625 0 01-5.25-1.39 39.021 39.021 0 01-4.848-1.93l-1.152-.598-.778-.402c-.418-.223-.804-.457-1.222-.696l-.653-.402c-3.25-1.777-3.234-2.89 0-4.668a46.42 46.42 0 012.64-1.5l1.169-.598a57 57 0 014.027-1.668c1.375-.5 2.777-.875 4.168-1.222l.918-.196.984-.195-.003.004a18.266 18.266 0 00-3.25-4.723 1.48 1.48 0 01-.309-1.386l1.168-3.778-3.293 2.055c-.43.246-.957.246-1.387 0a18.057 18.057 0 00-15.14-1.527c-.423.152-.895.09-1.262-.168l-4.016-2.793 1.305 3.652v.004c.215.59.004 1.25-.512 1.61a17.232 17.232 0 00-3.418 3.152c-.375.449-.992.617-1.543.418l-3.723-1.293 2.39 4.168a1.46 1.46 0 010 1.25 17.533 17.533 0 00-1.25 4.414c-.077.52-.444.949-.944 1.113l-4.637 1.555 4.695 1.57c.496.16.863.59.942 1.11a16.93 16.93 0 001.113 4.027c.187.468.105 1-.211 1.39l-2.61 3.39 4.044-.82a1.39 1.39 0 011.386.512 17.58 17.58 0 002.528 2.614c.406.336.582.875.46 1.386l-1.027 4.723 4.043-2.984h-.004c.399-.309.93-.375 1.39-.18a17.99 17.99 0 004.321 1.164c.504.07.93.41 1.11.89l1.39 3.669 1.39-3.668h-.003c.18-.48.605-.82 1.113-.891a18.052 18.052 0 007.29-2.707 1.392 1.392 0 011.554 0l3.75 2.695-1.695-4.722h.004a1.398 1.398 0 01.261-1.391 18.266 18.266 0 002.586-4.04zm-13.04-20.598l3.903-.32c.371-.028.738.086 1.027.32.282.242.45.586.473.957l.332 3.902a1.37 1.37 0 01-.332 1.02 1.365 1.365 0 01-.957.48 1.392 1.392 0 01-1.488-1.261l-.18-2.559-2.527.207v.004a1.397 1.397 0 01-1.5-1.277 1.39 1.39 0 011.277-1.5zm-11.108.695l-.004-.004A1.39 1.39 0 0125 55.098h3.93a1.386 1.386 0 011.39 1.386 1.386 1.386 0 01-1.39 1.39l-2.543.001v2.543h.004a1.39 1.39 0 01-2.781 0zm-3 12.5l-.004-.004a1.4 1.4 0 11-2 1.961l-2.778-2.777a1.391 1.391 0 010-1.96l2.778-2.778a1.392 1.392 0 011.933 1.988l-1.804 1.777zm6.945 11l-3.848.793-.004-.004a1.391 1.391 0 01-1.484-1.054l-.793-3.848a1.419 1.419 0 011.113-1.668 1.414 1.414 0 011.664 1.113l.403 2.457 2.484-.515.004.004a1.4 1.4 0 011.652 1.093c.153.762-.336 1.5-1.097 1.657zm2.777-9.57h-.004a1.395 1.395 0 11-2 1.941l-2.777-2.777c-.262-.258-.41-.613-.41-.984s.148-.727.41-.989l2.777-2.777c.254-.289.621-.465 1.008-.476.387-.012.758.136 1.031.414.27.277.414.652.399 1.039-.02.387-.196.746-.492.996l-1.668 1.82zM39.06 82.25h-.004c-.25.273-.601.434-.973.445l-3.918.153h.004c-.37.015-.73-.118-1-.368s-.43-.597-.445-.964a1.39 1.39 0 011.332-1.446l2.543-.097-.098-2.543a1.391 1.391 0 011.34-1.438 1.391 1.391 0 011.438 1.34l.168 3.918c.03.375-.09.746-.336 1.027zm-5.324-41.391h-2.528a12.664 12.664 0 011.239 6.945h1.36c.538-2.285.515-4.668-.071-6.945zm36.984 1.223a66.8 66.8 0 00-1.555 2.777h.004c.945.836 1.8 1.77 2.555 2.781a16.084 16.084 0 011.554-2.89 58.845 58.845 0 00-2.554-2.668zm.777 17.75c-.152-.375-.277-.778-.418-1.168 0-.153-.097-.305-.125-.446l.004.004c-.21-.75-.36-1.515-.441-2.293v-.097c0-.391 0-.793-.082-1.196-.082-.402 0-.82 0-1.222v-.473l-.004.004c.035-.578.105-1.152.21-1.723a14.158 14.158 0 00-2.78-3.848 51.885 51.885 0 00-2.083 5.168l2.778 3.082c1.207 1.391-.848 3.235-2.055 1.875l-1.64-1.859c-.333 1.207-.641 2.418-.848 3.625l2.89 3.234a1.39 1.39 0 11-2.054 1.875l-1.39-1.543c-.266 1.293.292 3.805-1.68 3.793-2.235-.375-.946-3.304-.973-4.804l-2.473.86a1.388 1.388 0 01-.93-2.61l3.957-1.39a35.6 35.6 0 01.82-3.583l-2.167.777h.004c-.707.2-1.446-.18-1.692-.87a1.385 1.385 0 01.758-1.739l4.168-1.473a54.505 54.505 0 011.875-4.804v-.004a13.388 13.388 0 00-4.957 23.391 13.485 13.485 0 0011.5-10.098 3.063 3.063 0 00-.168-.446zm17.848-7.582h.004a13.498 13.498 0 00-11.57-6.418c1.098 1.39 2.14 2.777 3.098 4.25l4.332.195c.77.031 1.367.68 1.336 1.445s-.68 1.364-1.446 1.332l-2.418-.11a41.365 41.365 0 011.805 3.278l4.168.196a1.388 1.388 0 011.332 1.44 1.386 1.386 0 01-1.441 1.337l-2.778-.125c.403 1.39 2.375 3.805.391 4.75-1.805.582-2.055-1.832-2.64-2.957l-.86 1.832h-.004a1.396 1.396 0 01-1.855.66 1.393 1.393 0 01-.657-1.855l1.832-3.903a48.285 48.285 0 00-1.765-3.234l-1.028 2.195v-.004a1.388 1.388 0 01-2.511-1.18l1.793-3.792a37.377 37.377 0 00-3.32-4.625 13.61 13.61 0 00-1.657 4.347 12.855 12.855 0 00.918 8.25 13.413 13.413 0 0014.168 7.555 13.527 13.527 0 00.778-14.86zm-9.527-19.027h.004c-.078-.442.062-.89.375-1.207l14.75-14.81-.25-.538L77.68 28.125a1.292 1.292 0 01-.762.234H43.723c-.457 0-.883-.227-1.144-.602a1.394 1.394 0 01-.149-1.285l6.766-17.555h-.918L36.11 27.777a1.38 1.38 0 01-1.61.57L5.055 18.429v7.96l13.223 11.734c.348 0 58.652-.082 58.945 0l17.223 3.957.43-.957-14.32-6.875a1.387 1.387 0 01-.734-1.027z"
    fill="#3d3c3c" />
</svg>