<svg viewBox="31.114 4.367 37.97 91.427" width="37.97" height="91.427" xmlns="http://www.w3.org/2000/svg">
  <path
    d="M35.906 77.309c-.14.32-.273.645-.39.977.98 1.175 2.69.902 4.054.964 1.965.09 3.738.704 5.438 1.664-.653-.695-1.676-1.769-2.696-1.812-.613-.027-1.222.113-1.832-.016-1.418-.336-2.773-1.293-3.062-2.8 2.347 1.992 2.93 1.488 5.613 2.214-1.008-1.12-3.586-3.187-5.098-3.27-1.55-.042-4.062.856-4.964-1.132-.188.008-.383.004-.57.02-.634.168-1.387.742-1.087 1.476.825 1.563 2.95 2.184 4.59 1.719zM42.691 75.297l-.617-.035c.59 1.156 2.09 2.406 2.96 3.453.395.473 1.145 1.7 1.462 1.98-.051-1.335-.172-2.457-1.004-3.554-1.207-.278-2.043-.867-2.797-1.844z"
    fill="#3d3c3c" />
  <path
    d="M33.191 63.086c-.152.57-.402.887-.813 1.297.47.637 1.196.824 1.958.797-.575 1.719.976 2.191 2.375 2.21-.028-.288-.067-.581-.079-.87.63.402 1.145.933 1.97.753.273-.058.671-.39.89-.378.816.816 1.05 1.933 2.418 1.945.82.008 1.523-.246 2.183.426.84.855.676 2.175 1.45 3.058.707.809 1.785 1.164 2.605 1.836-1.32-.344-2.918-.879-3.652-2.129-.48-.816-.442-1.902-1.418-2.347-1.57.261-3.04-.118-3.84-1.602-.613.16-1.156.11-1.777.098-1.59.062-3.766-.07-4.188-1.97-.422.079-.847.118-1.265.2.398 2.84 1.582 4 4.5 3.773-1.157.809-2.77.832-3.922 0-.942 1.579.87 2.254 1.465 2.786.109.367-.497.925.328 1.297.695.312 1.734.273 2.472.164-.343-.348-.937-.914-.73-1.45.98.875 2.098 1.657 3.48 1.457-.957-.586-1.543-1.644-1.476-2.773.965 1.348 2.383 2.617 4.12 2.688-.167-.532-.284-.977-.308-1.536 1.031 1.743 2.906 4.078 5.188 3.075.097-.141.156-.254.32-.317.313.016.387.402.477.64.273.747.687 1.384 1.53 1.532 2.052.375 2.11-.719 2.915-2.207.781.469 1.82.848 2.742.625 1.402-.336 1.93-2.434 2.692-2.664.093.058.09.055.109.16.059.305-.02.664-.07.969.8-.332 1.582-.668 2.3-1.16 1.008-.735 1.5-1.543 1.903-2.715.62 1.77-.817 3.172-2.137 4.113.805-.266 1.582-.621 2.344-.984.52-.227 1.05-.668 1.648-.547.297.207-.062.613-.183.836.05.082.066.07.16.093 1.851.23 3.469-1.578 3.886-3.253.06-.215.106-.59-.19-.633-.59-.14-1.786 1.16-2.622.195-.164-.187-.05-.504.137-.633.246-.172 1.593-.629 1.972-.75.278-1.308 2.184-2.543-.078-3.066-.676 2.418-2.515 2.039-4.445 1.64-1.664-.18-1.91 1.215-3.16 1.68-1.176.442-2.16-.097-3.395.727-.582 2.11-2.199 3.195-4.156 3.98.754-.89 1.836-1.336 2.535-2.312.543-.754.703-1.977 1.324-2.508 1.137-1.031 3.016-.137 4.075-1.258.238-.242.757-1.594.945-1.527.152.152.187.422.227.629.492-.192.953-.317 1.484-.317 1.75.184 3.75.848 3.227-1.82 1.293.45 2.062-.512 1.671-1.742a2.316 2.316 0 01-.046-.27.744.744 0 01.171-.133c.575-.355 1.227-.156 1.485-.96.379-1.06-.832-1.75-1.75-1.747-.625.368-1.106.579-1.828.68-.055 1.031-.59 2.29-1.84 1.996-1.32-.195-1.356.258-2.434.73-.66 1.923-2.922 3.051-4.785 2.079 2.2-.113 3.387-.594 4.09-2.801.508-.246 1.004-.402 1.41-.816-.156-.403-.933-1.282-.812-1.672.73.082 1.336.793 1.632 1.43.391.015 1.122.21 1.426-.079.48-.449.23-1.304.547-1.75.336-.465 1.93.414 1.918-1.636a1.903 1.903 0 00-.535-1.34c-.547.562-.938.793-1.688.984.309-.539.754-.984 1.067-1.52-.137-.28-.27-.574-.434-.84-1.03 1.056-2.222 1.641-3.629 2.024-.214.738-.476 1.485-1.195 1.88-.402.222-.851.273-1.297.327-.031 1.43-1.164 2.5-2.566 2.594-.293 1.387-.965 2.707-2.055 3.625-.95.965-1.215 2.063-1.312 3.371-.317-1.023-.223-2.254.304-3.203.274-.492.758-.793 1.098-1.227.52-.714.707-1.59 1.148-2.351-.03-.375-.109-.73-.187-1.098 1.25.09 2.558-.426 2.965-1.707-.664-.11-1.176-.238-1.739-.613 1.082-.008 2.598.105 3.438-.707.797-.774.64-1.68 1.043-2.27.074-.105.082-.113.2-.117.148.156.16.348.183.55 1.843-.476 4.11-1.956 3.851-4.116-.039-.114-.07-.153-.176-.2-.3.036-.792.184-1.043 0-.042-.214.051-.351.168-.527.485-.715 1.262-1.621 1.09-2.558-.11-.598-1.129-.266-1.52-.176-.8.23-1.55.672-2.042 1.347.008 1.04.152 1.582-.656 2.395-.875.879-1.864 1.441-3.114 1.488-.941 1.008-2.457 1.473-3.812 1.48-.7 1.243-1.781 2.2-3.278 1.61 1.243-.648 2.235-.887 2.7-2.375.207-.664.156-1.305-.079-1.953.657.406.95 1.098.887 1.86.977-.137 2.008-.333 2.64-1.172.31-.41.466-.918.661-1.387.293.344.578.812 1.066.855.532.047 1.278-.336 1.676-.68.758-.542.34-1.46.633-2.187.25-.496.894-.922 1.266-1.348 2.093-2.46 2.43-5.14-.711-6.898h-.11c-.082 2.215-.789 2.82-2.804 3.422-.086.039-.086.047-.11.137-.34 1.367-1.836 1.808-3.086 1.851-.062 1.508-1.863 1.813-3.062 1.606.668-.434 1.8-.969 2.258-1.598.003-.406-.66-.797-.852-1.187 1.098.015 2.383.554 3.316-.317.707-.66.489-1.933.829-2.223.332.098.496.512.667.79.598-.149 1.204-.465 1.54-1.004.332-.532.222-1.184.539-1.711.34-.563 1.285-.59 1.082-1.367a.501.501 0 00-.282-.368c-.546.563-1.101.817-1.906.801 1.078-1.25 1.637-2.988 1.192-4.594-.243-.074-.391.383-.496.559-.696 1.89-2.106 2.86-4.106 2.953-.18 1.297-.988 2.332-2.41 2.043-.664 1.04-1.324 1.95-2.598 2.227-1.926.46-3.922-.391-4.836-2.168-1.398.191-2.125-.856-2.297-2.122-1.113-.027-2.27-.128-3.093-.972-.551-.563-1.262-2.543-1.614-2.692-.734 1.645.156 3.614 1.324 4.829-.363-.012-.75-.008-1.097-.114-.469-.144-.785-.773-1.063-.84-.242.258-.375.754-.094 1.036.297.3.778.347 1.043.703.356.453.352 1.054.532 1.574.25.629.953.992 1.535 1.254.164-.203.422-.68.71-.688.231.223.204.774.294 1.086.523 1.852 2.437 1.465 3.91 1.36-.133.164-.965.996-.95 1.082.079.402 1.755 1.359 2.15 1.644-1.212.203-2.919-.14-2.99-1.637-1.276-.043-2.784-.53-3.065-1.953-.829-.113-1.735-.609-2.227-1.293-.461-.64-.438-1.812-.793-2.175-.395.082-.672.617-1.031.835-.805.438-1.45 1.153-1.45 2.114-.054 1.402.82 3.136 1.77 4.129.41.43.965.847 1.25 1.37-.14 1.645.961 2.84 2.621 2.848.305-.28.559-.593.817-.914.328 1.54 1.714 2.387 3.218 2.48-.004-.714.11-1.515.86-1.815-.817 2.023.937 3.687 2.734 4.277-1.457.457-2.601-.274-3.215-1.606-1.547-.039-2.726-.445-3.879-1.484-.761.156-1.421-.031-2.058-.45-.715-.464-1.63-1.265-1.813-2.132-.09-.426-.066-.899-.074-1.332-.7-.75-1.883-1.3-2.91-1.34-.305-.027-.742.094-.746.465.234.336.61.43.89.703.004.293-.003.586-.02.879.224.344.517.664.68 1.043-.601.012-1.64.062-1.32.941.41 1.848 2.004 3.086 3.739 3.606.062-.207.136-.555.328-.676.144.11.218.461.277.64.613 2.567 2.02 2.606 4.36 2.598-.536.332-1.086.446-1.7.567a2.888 2.888 0 003.074 1.703c-.136.43-.144.785-.191 1.227.375.585.598 1.226.941 1.82.875.96 1.641 2.062 1.743 3.406-.453-1.172-1.211-2.117-2.145-2.93-.387-.43-.601-.965-.89-1.457-.282-.48-.458-.648-.458-1.226-.886-.203-1.695-.426-2.218-1.242-.258-.399-.39-.852-.524-1.301-1.402.086-2.383-.989-2.61-2.309a9.396 9.396 0 01-2.167-.777c-.59-.285-1.649-1.164-2.121-.313.71.723.933.828 1.164 1.89-.684-.335-1.176-.894-1.746-1.382-.625.945-.215 2.211.441 3.031.434.168 1.75.012 1.934.325-.016.367-.364.609-.637.804.39.61 1.25 1.024 1.879.504.45-.34.957-1.156 1.539-1.223.063.055.066.036.07.11.024.476-.937 1.304-.593 1.676.293.316.78.566 1.175.726.153-.008.34-.101.473-.05.184.292.086.542.05.859-.081 1.566 2.157 1.793 3.31 2.02-2.098.616-3.942.269-4.36-2.153-.574-.25-1.055-.516-1.516-.945-1.18.449-2.793-.172-2.8-1.582-1.008-.067-2.168-1.168-3.153-.543-.53.382-.433 1.18-.07 1.644.418.555 1.164.719 1.797.906z"
    fill="#3d3c3c" />
  <path
    d="M40.102 36.027c.64 1.594 1.8 2.816 3.59 3.012.594-.239.98-.758 1.52-1.082-.122 1.043-.75 2.039-.012 3 .414.656 1.05.011 1.457-.313.277 1.684 1.812 3.04 3.53 3.012 1.692-.172 2.794-1.535 3.192-3.106.461.563 1.012.93 1.594.27.754-.887-.086-1.977-.125-2.95.516.41.984.825 1.61 1.055 1.351-.289 2.308-.906 3.062-2.07.57-.933 1.59-2.555.715-3.543-.504-.043-.91-.082-1.356-.351.235-1.73 1.012-3.532-1.21-4.254-.915.652-2.048 1.097-3.141.59-.317 1.59-2.235 2.3-3.2.8 2.176.668 2.708-.976 2.126-2.78.613.433 1.41 1.53 2.128 1.386 1.332-.446 2.957-2.156 2.805-3.656-.129-.532-.812-.57-1.246-.73-.539.577-1.387.905-2.105.44 1.734-.605 2.703-3.359.843-4.382-.343 1.027-.781 1.472-1.633.52.583-.329.657-.993.852-1.567.387-.77.961-1.738.457-2.594a.333.333 0 00-.266-.125c-.671.012-.62 1.137-2.242.55 1.438-.804 2.18-2.651 1.16-4.089-.574-.773-1.707-.586-1.605-1.61.074-.761.41-1.628-.106-2.324-.27-.363-.722-.566-1.168-.574-.093-1.168-.187-3.562-1.375-4.195-1.148 1.004-1.132 2.824-1.277 4.223-.972-.043-1.527.921-1.426 1.804.024.461.348 1.282.036 1.664-.168.204-.454.297-.688.414-2.035.907-1.398 3.81.328 4.696-.367.187-.687.277-1.086.125-.363-.133-.84-.735-1.203-.653-.906.797.008 1.95.352 2.782.168.554.258 1.164.797 1.492-.997 1.066-1.305.367-1.743-.653-1.586 1.329-.847 3.688.871 4.508-.414.43-1.406.145-1.867-.347-.43.062-.816.156-1.207.355-.664 1.606.98 3.297 2.348 3.89 1.059.41 1.617-.863 2.414-1.327-.156.726-.45 1.601.004 2.277.246.367.687.562 1.113.633.309.05.606-.153.883-.102l.027.07c-.863 1.41-2.886.54-3.113-.894-1.14.523-2.265.039-3.25-.59-1.93.79-1.414 2.356-1.144 4.031-.27.485-.82.594-1.336.528-.254.55-.422 1.125-.203 1.722.132.36.347.688.515 1.032zm13.762-1.52c.324-.394.25-.93.207-1.402.402.371.961.621 1.512.477.797-.192.629-.723 1.008-1.031.171-.141.453-.18.632-.332.618-.52.82-1.524 1.25-2.192.293.113.297.473.27.738-.121 2.02-1.797 3.32-3.61 3.813-.507.289-.832.828-1.375 1.059-.539.23-1.238.101-1.734.414-.289.18-.562.457-.82.68l-.02-.122c.63-2.328 1.883-1.129 2.684-2.101zm-4.012-24.25c.02.575-.675 1.243-.648 2.02-.024.73.297 1.32.777 1.836.84-.918.988-1.68 1.13-2.883.347.488.413 1.024.41 1.606-.102.89-.622 2.214-1.677 2.218-.359-.054-.64-.367-.835-.652-.958-1.312-.489-3.273.84-4.144zm-1.5 6.727c.133-.008.336-.055.371.113-.34.786-1.035 1.461-.714 2.418.5 1.735 3.234 1.907 3.882.192.223-.555.149-1.215-.117-1.742-.125-.282-.45-.57-.297-.899l.106-.027c.465.14.629.465.847.863.555 1.063.512 2.512-.539 3.25-.816.598-1.16.29-1.992.332-.328.016-.648.094-.976.04-2.141-.466-2.27-3.434-.579-4.54zm-.047 8.934c-1.59-.375-2.507-1.828-1.714-3.352.175-.324.398-.812.808-.848.149.22-.273 1.63-.008 2.38.258.855 1.254.57 1.832.253-.941 2.45 2.536 2.328 1.54.04 2.418 1.152 2.023-1.313 1.652-2.813.742.25 1.12 1.09 1.234 1.812.242 1.211-.816 2.32-1.972 2.48-.403.696-1.082 1.403-1.965 1.22-.664-.133-1.055-.645-1.41-1.172zm-6.601 4.148c.07.008.152.024.187.086.36 1.063.594 2.16 1.637 2.781.047-.308.102-.601.191-.902.332.746.63 1.379 1.465 1.613.235-.23.516-.414.781-.61-.097.415-.14.782-.12 1.208.624 1.09 2.242.418 2.695 1.683.12.286.207.582.297.875-.836-.945-1.727-.859-2.844-1.238-.34-.16-.676-.558-.985-.789-.437-.332-.89-.543-1.297-.926-.363-.02-.66-.062-.976-.258-.684-.425-1.05-1.316-1.223-2.078-.113-.507-.097-1.004.188-1.449zM54.051 77.277c-.258 1.063-.48 2.191-.46 3.293l.304-.492c1.254-1.906 2.691-3.38 4.765-4.402l-.75.039-.738.02c-.781 1.089-1.766 1.562-3.121 1.546zM39.488 80.008c-1.727-.117-4.176.2-4.95-1.781a3.493 3.493 0 00-.78-.055c-1.016.285-1.082 1.41-.028 1.695.844.293 2.047.145 2.77.672l.05.106c-.253.37-.808.062-.68.703.286 1.082 1.798.855 2.614.629-.617-.414-.887-.973-1.129-1.645.77.211 1.38.79 2.172.992 1.203.313 2.469-.222 3.547.524.941.668 1.672 1.394 2.844 1.621-1.227-2.273-4.016-3.176-6.438-3.46zM68.957 74.633c-.27-.242-.55.219-.824.117-.09-.215-.04-.387.008-.605l-.91-.004c-1.227 1.098-3 1.765-4.555.926-1.93 1.035-4.153 1.695-5.703 3.324 1.726-.512 2.593-.457 4.125-1.621.547-.414.98-.946 1.574-1.293-.52 1.386-1.04 2.011-2.285 2.824.629.133 1.23.144 1.87.144-.507.317-1.093.38-1.679.356-2.246-.43-4.316 1.16-5.828 2.637 2.066-1.825 4.902-1.418 7.402-2.043 1.028-.297 1.84-.977 2.774-1.457 1.414-.676 3.648-1.114 4.152-2.829.023-.183-.031-.324-.125-.48zM66.211 78.543c-1.254.363-2.234 1.25-3.477 1.625-2.98.836-6.75.05-8.636 3.129.07.07.035.062.12.058.747-.003 1.88-.957 2.587-1.28a8.56 8.56 0 011.87-.598c1.716-.29 3.212-.32 4.907-.844-1.453 1.09-2.031 1.027-3.71 1.445 1.038.004 4.144.582 4.495-.73-.183-.164-.379-.325-.547-.504l.211-.426c.895-.062 2.442-.105 3.098-.809.473-.539-.344-1.242-.914-1.062z"
    fill="#3d3c3c" />
  <path
    d="M53.137 84.695c-.652-1.816-.7-3.805-.438-5.71.075-.645.29-1.349.422-1.97-.097-.105-.347-.066-.484-.086-.313.703-.625 1.356-1.39 1.657-1.59.605-3.317-.059-4.047-1.602-.2.031-.395.062-.598.074 1.27 2.41.797 5.2.469 7.777-.137 2.266.25 5.133-.496 7.266-.465 1.328-1.247 2.504-2.211 3.523 2.468-.593 2.172-1.343 4.64.16-.742-2.726.188-3.785.696-6.28.43-2.731-.055-5.516-.125-8.262.722 2.91 1.265 5.992.656 8.976-.504 1.84-1.246 3.625-1.172 5.575 1.55.027 3.515-.375 5.02-.786-1.348-3.476-.798-6.683-.942-10.305zM47.5 92.398l-.039.078c-.008-3.277.508-6.601.824-9.883.09-.812.106-1.683.282-2.48.617 3.102-.18 9.156-1.067 12.28zm4.457 2.102l-.148.476c.004-1.566.254-3.11.172-4.683-.324-2.926-.977-5.977-.414-8.934.144 1.273.16 2.566.367 3.832.64 3.094 1.203 6.258.023 9.309z"
    fill="#3d3c3c" />
</svg>