<svg viewBox="15.935 5.445 68.13 89.11" width="68.13" height="89.11" xmlns="http://www.w3.org/2000/svg">
  <path fill-rule="evenodd" clip-rule="evenodd"
    d="M80.662 49.972c-.26-.288.051-.502.155-.747.172-.4.519-.828.29-1.247-.269-.486-.809-.18-1.231-.204-.159-.009-.324.039-.483.069-.252.047-.477-.002-.621-.22-.137-.206-.039-.393.078-.584.295-.485.573-.98.979-1.676-3.034 1.36-6.009 1.702-9.084 1.608-3.025-.091-6.054-.02-9.082-.02 1.96-.932 4.021-.892 6.017-.813 3.194.126 6.33.084 9.458-.698 2.455-.613 3.195-1.883 3.573-3.897-1.426.011-1.534-.54-.72-1.599.414-.539.637-1.224 1.038-2.026-.323.097-.413.113-.493.151-4.033 1.898-8.266 3.355-12.078 5.744-3.014 1.887-6.536 2.457-9.909 3.372-3.347.907-6.668 1.993-10.213 1.779-.726-.043-.871.487-.97 1.043-.76 4.301-1.479 8.612-2.307 12.9-.232 1.195.31 1.174 1.132 1.07 4.445-.562 8.827-1.419 13.143-2.632 6.204-1.744 12.361-3.587 17.819-7.178 1.974-1.298 4.265-2.133 5.901-4.05-.561-.179-1.078-.134-1.597-.031-.28.056-.585.121-.795-.114z"
    fill="#3d3c3c" />
  <path fill-rule="evenodd" clip-rule="evenodd"
    d="M80.284 61.983c-.571-.847-1.542-.605-2.352-.832-2.944-.82-5.998-.823-8.99-1.273-2.399-.362-4.527.975-6.794 1.474-3.32.731-6.562 1.792-9.929 2.366-2.234.381-4.478.649-6.729.865-.469.045-.788.235-.852.755-.219 1.807-.417 3.618-.69 5.417-.115.756.19.915.845.971 1.725.147 3.442.365 5.167.531 3.767.361 7.581.55 11.226-.52 4.623-1.357 9.363-2.172 14.012-3.392 1.503-.395 3.062-.57 4.728-.868-.15-.241-.207-.401-.316-.499-.796-.711-.711-1.122.385-1.283.795-.117 1.46-.361.809-1.372-.078-.119-.11-.381-.036-.464.771-.875-.109-1.321-.484-1.876zM44.42 58.148c.038-.117.137-.327.17-.547.41-2.8.773-5.608 1.231-8.399.205-1.25.353-2.401-.4-3.563-.722-1.114-1.373-2.3-1.862-3.53-.572-1.44-1.538-2.47-2.656-3.494-1.842-1.687-3.828-3.218-5.428-5.18-1.447-1.778-3.025-3.449-4.246-5.404-.234-.375-.566-.687-1.029-.588-.479.103-.4.57-.418.934-.022.462-.18.65-.665.444-.658-.278-.705.173-.582.601.263.915-.594 1.669-.149 2.55-.499.086-.66-.194-.884-.339-.557-.357-1.287-.937-1.782-.554-.915.709-1.458.051-2.145-.225-.184-.074-.392-.087-.873-.188 4.317 11.665 11.68 20.615 21.718 27.482zM72.833 28.93c-6.113 4.511-13.018 7.141-20.385 8.71-1.25.266-2.552.278-2.93 2.132-.58 2.847-1.377 5.65-1.827 8.624.354 0 .627.017.898-.003 2.45-.187 4.85-.696 7.211-1.341 4.444-1.214 9.014-2.088 12.979-4.655 2.587-1.675 5.421-2.815 8.291-3.906 1.521-.579 2.93-1.461 4.479-2.253-.229-.176-.293-.246-.372-.284-.684-.325-1.892-.15-1.425-1.564.069-.21-.289-.338-.519-.385-1.27-.26-2.566-.489-1.354-2.355-.678-.05-1.185-.142-1.684-.111-.914.059-1.154-.417-.931-1.165.168-.559.077-1.223-.286-1.369-.646-.262-1.486-.563-2.145-.075zM44.06 60.556c.189-.955.132-1.647-.789-2.324-2.92-2.145-5.837-4.308-8.446-6.84-.694-.676-1.343-1.372-2.392-1.445a276.153 276.153 0 01-3.845-.292c-3.26-.273-6.436-.752-8.717-3.491-.343-.411-.833-.914-1.364-.471-.563.469.107.931.324 1.314.453.806 1.207 1.613-.609 1.393-.163-.02-.344.108-.71.234 1.139 1.145 2.163 2.188 3.199 3.219 2.924 2.902 6.11 5.535 8.771 8.706 3.305 3.938 7.34 6.986 11.756 9.571.804.471.976.192 1.112-.558.55-3.01 1.116-6.015 1.71-9.016z"
    fill="#3d3c3c" />
  <path fill-rule="evenodd" clip-rule="evenodd"
    d="M41.294 70.814c-2.712-1.327-5.277-2.869-7.628-4.817-3.338-2.764-6.028-6.15-9.143-9.129-2.726-2.609-5.388-5.295-8.11-7.914-.094-.089-.218-.146-.478-.315.046.315.036.46.089.576.631 1.377 1.27 2.75 1.908 4.123.161.348.381.705-.211.866-.467.128-1.156.14-1.203.672-.048.539.583.837 1.019 1.135.618.423.646.896.018 1.25-.997.563-.638.918.009 1.513.617.569 2.171.888.979 2.294-.043.05.115.337.238.45.378.348.777.674 1.183.992.641.501.889.996.138 1.64-.442.379-.442.865-.005 1.28a50.96 50.96 0 001.866 1.701c.505.434.511.742-.082 1.125-.397.255-1.051.703-.493 1.199 2.595 2.3 5.562 3.974 9.02 4.503 2.864.438 5.762.667 8.649.945 2.726.264 2.72.239 2.881-2.617.033-.615.115-1.1-.644-1.472zM75.768 69.536c-4.059.548-7.978 1.726-11.887 2.851-4.186 1.206-8.363 1.387-12.621.911-2.482-.278-4.952-.655-7.485-.995-.265 1.49-.507 2.983-.803 4.465-.121.601.021.849.655.92 4.376.499 7.862 2.772 11.102 5.563 1.144.985 2.393 1.839 3.859 2.336.443-1.935.445-1.976 1.68-1.906.805.044 1.004-.381.947-1.022-.07-.808.253-1.147 1.049-1.035.726.103 1.165-.102 1.36-.901.171-.69.388-1.49 1.434-1.35.252.033.447-.177.499-.423.246-1.217.954-1.838 2.22-1.852.35-.004.697-.182 1.048-.281-.354-1.054-.338-.979.737-1.206.718-.151 1.851.057 1.676-1.347-.04-.338.438-.427.753-.525.443-.139.907-.232 1.322-.431.513-.244 1.057-.505.507-1.258-.27-.369.15-.493.42-.63.896-.458 1.927-.737 2.5-1.89-.394.002-.688-.032-.972.006zM55.38 25.95c-1.446.633-1.938 1.485-2.31 2.738-.227.761-.484 1.512-.725 2.269l-2.041 6.471c.285 0 .453.038.596-.006 3.095-.942 6.218-1.8 9.271-2.865 4.419-1.54 8.398-3.961 12.301-6.505.928-.605 1.37-1.452 1.597-2.633-1.301.181-2.441.294-1.981-1.496.177-.691-.111-1.064-.688-1.587-.66-.597-.886-1.682-1.771-2.206-.043-.025-.011-.177-.014-.271-.023-.558-.025-1.118-.086-1.671-.021-.21-.128-.472-.286-.592-.225-.167-.421.075-.61.205-1.043.722-1.85 1.707-2.806 2.517-3.075 2.607-6.828 4.051-10.447 5.632zM44.713 42.849c.392 1.043.943 2.026 1.512 3.231.538-2.265 1.023-4.281 1.489-6.302.219-.943.721-1.783.182-2.879-2.855-5.796-4.396-11.943-4.636-18.41-.046-1.197-.139-2.394-.229-3.945-.371.48-.557.656-.662.869-.407.823-.791 1.577-1.887 1.744-.761.117-1.438.556-1.349 1.567.024.276-.158.47-.52.292-1.078-.531-1.553-.182-1.499 1.042.142 3.301 1.217 6.404 2.075 9.542 1.27 4.641 3.84 8.764 5.524 13.249z"
    fill="#3d3c3c" />
  <path fill-rule="evenodd" clip-rule="evenodd"
    d="M38.857 75.502c-3.219-.408-6.523-.146-9.667-1.121-1.56-.483-3.053-1.177-4.585-1.747-.759-.282-1.374.098-1.739.693-.394.645.233.978.671 1.248 1.109.689 2.26 1.314 3.378 1.991.343.209.627.505.097.851-.241.158-.689.176-.636.553.058.393.493.441.82.557.353.125.694.284 1.053.389.62.182.749.445.194.877-.478.372-.434.672.166.772.744.123 1.499.176 2.309.266l-.252.856c1.817.269 3.37-.535 5.183-1.229-.475.933-1.425 1.046-1.51 2.045.752-.183 1.426-.314 2.079-.512 1.238-.374 1.106.312.83 1.097 1.757-.12 1.768-.119 1.535 1.717-.371 2.952-.468 5.921-.575 8.89-.012.319-.08.821.376.858.438.035.399-.448.439-.753.435-3.219.828-6.446 1.298-9.662.288-1.984.81-3.925.968-5.942.237-3.025.528-2.319-2.432-2.694zM50.389 30.489c.427-1.568 1.367-3.062 1.123-4.736-.573-3.925-1.043-7.839-.547-11.812.081-.634-.012-1.525-.643-1.722-.728-.227-.843.684-1.138 1.181-.048.081-.099.16-.137.246-.27.614-.593.845-1.081.178-.26-.351-.58-.402-.721.062-.387 1.287-1.036 1.213-1.879.43-.211-.196-.448-.365-.938-.758-.55 8.112 1.021 15.581 4.14 23.167.676-2.304 1.285-4.261 1.821-6.236zM57.333 17.637a.646.646 0 00-.283.301c-1.037 2.414-2.032 4.844-2.906 7.651 1.173-.611 2.104-1.113 3.048-1.584 3.415-1.704 6.807-3.447 9.582-6.147.69-.672 1.219-1.439 1.298-2.586-1.639-.049-2.711-.675-2.146-2.858-2.933 2.166-5.666 3.856-8.593 5.223zM19.06 44.713c3.158 2.344 6.536 4.144 10.604 4.25.912.023 1.82.207 2.904.338-1.2-1.461-2.257-2.76-3.328-4.046-.592-.711-.885-1.616-1.979-1.955-2.807-.869-5.993-.88-8.128-3.381-.047-.056-.168-.049-.321-.089-.077.788.302 1.346.579 1.927.304.639.159.944-.575.886-.322-.025-.63.021-.802.319-.177.31-.018.606.174.842.265.325.539.662.872.909zM36.668 33.343c1.631 1.81 3.519 3.389 5.179 4.961-.013-.027-.103-.254-.218-.469-1.002-1.877-1.924-3.796-2.638-5.801-1.226-3.43-2.235-6.923-2.831-10.523-.043-.254-.097-.54-.415-.583-.34-.046-.396.245-.502.48-.143.312-.318.87-.48.87-1.623-.002-1.273 1.241-1.399 2.153-.064.469-.183.701-.702.539-.617-.19-.897.076-.981.707-.09.672.099 1.226.445 1.788 1.305 2.122 2.888 4.044 4.542 5.878zM83.255 52.723c.248-.488.825-.816.81-1.683-4.837 3.186-9.45 6.447-14.859 8.273 3.395.254 6.703.793 10.015 1.3 1.221.187 2.432.287 2.39-1.558-.006-.247.284-.515.47-.747.622-.782 1.078-1.535-.058-2.284-.306-.201-.475-.5-.217-.902.505-.787 1.026-1.567 1.449-2.399zM60.947 5.445c-.41.264-.568.309-.629.412-.868 1.485-2.854 1.857-3.521 3.553-.114.289-.504.292-.762.205-.9-.307-1.22.176-1.41.933-.204.819-.687 1.015-1.402.545-.442-.289-.641-.13-.81.335-.399 1.101-.461 2.236-.467 3.389-.016 3.056-.075 6.112.44 9.497 2.302-6.665 5.652-12.491 8.561-18.869zM44.254 78.382c-.902-.257-1.55-.248-1.635.926-.05.672-.247 1.335-.29 2.007-.067 1.009 1.04.646 1.444 1.147.153.194.423.392.742.275.055-.02.122-.096.127-.152.124-1.17.697-.517 1.117-.255.787.494 1.723 1.605 2.281 1.433 1.214-.373 1.342.569 1.892.981.442.331.812.755 1.235 1.156.347-.371.677-.552 1.041-.142.511.574.934.7 1.789.358.872-.351 1.994-.078 3.381-.078-1.223-.852-2.156-1.396-2.965-2.083-3.008-2.557-6.342-4.491-10.159-5.573z"
    fill="#3d3c3c" />
  <path fill-rule="evenodd" clip-rule="evenodd"
    d="M20.169 39.445c1.848 2.209 4.609 2.257 7.354 3.285-2.375-3.695-4.059-7.395-5.891-11.306-.587 1.646-.587 1.646-1.831 2.865-.048.047-.115.119-.11.172.127.98.231 1.951-.56 2.745-.032.032-.003.137.013.205a4.842 4.842 0 001.025 2.034zM63.75 12.76c.577-.341.383-.912.345-1.399-.037-.5-.453-.24-.719-.263-.447-.038-.565-.375-.482-.698.32-1.259-.072-2.14-1.332-2.624l-3.815 8.521c2.192-1.291 4.1-2.41 6.003-3.537z"
    fill="#3d3c3c" />
</svg>