<?xml version="1.0" encoding="utf-8"?>
<svg viewBox="0 0 50 50" width="64" height="64" xmlns="http://www.w3.org/2000/svg">
  <path
    d="M21.333 10.667C24.633 7.828 25.205 4.077 24 0c-4.286 2.242-4.193 6.584-2.667 10.667m20-8L42 5.333h.667l.666-2.666h-2m-26 2.666c-.834 4.495-.908 8.29 4 10 1.253-4.239.727-8.64-4-10m19.334 1.334v2h2v-2h-2M22 17.333c4.508-1.576 6.55-3.831 6.667-8.666-4.687.353-7.637 3.996-6.667 8.666m23.333-8L48 10.667l-2.667-1.334M12 14.667c.117 4.836 2.314 8.107 7.333 8.666-.125-5.204-2.505-7.252-7.333-8.666M20 16v2h.667L20 16m17.333.667v2L40 18l-2.667-1.333m-16 8c4.79.786 7.766-1.04 10-5.334-4.596-1.317-8.453.825-10 5.334m-1.333-4C19.966 32.97 13.135 41.312 3.333 48v.667c4.82-2.29 9.515-5.877 12-10.667H16l-.667 2c4.924 2.37 10.222 1.12 12.667-4-4.648-.863-7.943-.549-12 2 2.521-4.812 6.303-11.843 4-17.333M9.333 22c.122 2.627 3.227 11.448 7.445 7.955 4.235-3.507-5.175-7.613-7.445-7.955m24 1.333L34 26l2-2-2.667-.667m-14 9.334c4.97.919 8.996.29 11.334-4.667-4.945 0-8.76-.176-11.334 4.667M6 28.667C4.951 33.717 8.587 37.14 13.333 38c.791-5.268-2.486-8.168-7.333-9.333M0 34c.048 5.393 1.93 9.06 7.333 10.667C7.29 39.552 5.647 34.872 0 34m10 13.333c4.542 1.656 9.538 2.324 12-2.666-4.522-1.434-9.45-2.237-12 2.666z"
    style="fill: rgb(157, 147, 157);" />
</svg>