<svg viewBox="38.412 5 23.177 90" width="23.177" height="90" xmlns="http://www.w3.org/2000/svg">
  <path
    d="M56.383 20.799c.675-1.035.782-1.238.77-1.747v-.503l.191.43c.083.187.152.372.195.52.199.684.494 2.925.494 3.747 0 .726-.362 1.639-1.338 3.371-1.449 2.596-1.496 2.769-1.641 6.156-.132 2.806-.301 3.748-1.067 5.927-1.285 3.644-1.523 4.423-1.641 6.058l-.065.904-.421-2.847c-.629-4.329-.626-4.761.064-7.712.264-1.135.616-2.597.785-3.26.185-.688.409-1.937.5-2.784.09-.815.286-1.925.439-2.475.377-1.356 1.807-4.383 2.735-5.785zM52.152 5.621c.341.963.66 2.712.727 3.981.078 1.338-.133 3.052-.612 4.955l-.324 1.234.588 1.696c.2.595.428 1.25.676 1.947l.022.063c.065.148.174.489.243.759l.062.25.493-.918c.404-.766.696-1.493.865-2.159.282-1.137.315-1.595.148-2.038-.065-.195-.119-1.062-.119-1.932.011-1.713-.01-1.791-.733-2.786l-.417-.568-.057-1.481c-.057-1.396-.103-1.467-.374-1.945-.622-1.096-1.33-1.523-1.33-1.523s.127.422.142.465zm1.614 15.628l-.014.022-.095 3.563.205-.476c.497-1.156 1.43-3.03 1.785-3.582.679-1.074.85-1.494.913-2.245l.064-.716-.923-1.307-.013.291c-.042.904-.488 2.017-1.495 3.718l-.427.732zm-5.935-2.309c.001.121.216.73.564 1.449.149.314.273.557.368.724l.171.301s.073-1.874.152-2.816c.165-1.969.062-2.777-.458-3.601-.516-.816-.743-1.304-.899-1.932-.064-.289-.199-.603-.284-.709a.508.508 0 00-.126-.122l-.036-.018-.037.012c-.024.007-.046.014-.276.193-.213.168-.247.237-.247.816 0 .706.266 2.129.771 4.116.159.588.337 1.391.337 1.587zm.726-7.857c.204.324.414.776.414.971 0 .378-.24.684-.557.71l-.12.01.032.116c.073.259.395.932.654 1.473.804 1.65.924 2.292.752 4.043-.256 2.425-.287 4.286-.089 5.24.268 1.301.229 1.962-.223 3.722-.364 1.452-.382 1.604-.317 2.702.044.88.182 1.688.494 2.882.247.942.545 2.442.666 3.345.077.565.16 1.14.237 1.663l.198-.013c.022-1.013.11-1.382.572-3.168.941-3.561 1.203-4.829 1.336-6.46.066-.84.179-1.78.236-2.06.054-.268.152-1.17.208-2.035.144-2.244.024-3.053-.858-5.773-.358-1.123-.754-2.465-.78-2.759-.033-.316.063-.82.304-1.588.502-1.581.603-2.234.603-3.878 0-1.584-.074-2.076-.619-4.057-.218-.781-.337-1.077-.465-1.151L51.217 5h-.041c-.108 0-.265.076-.522.252-.906.603-2.933 3.571-2.933 4.001-.001.321.25.868.836 1.83zm-1.894 5.968l.387.764-.201-.833c-.17-.7-.375-1.61-.479-2.12l-.005-.022a34.162 34.162 0 01-.164-.974l-.069-.457-.126.445c-.07.251-.127.549-.146.779-.043.646-.024.707.687 2.182.038.079.076.158.116.236zm12.848 42.123l.044.426.201-.541c.197-.539.485-1.263.659-1.608l.272-.577-.161-1.02a31.075 31.075 0 01-.135-.967l-.055-.425-.139.405c-.062.183-.13.384-.192.572l-.041-.007-.049.193.025.008c-.504 1.556-.572 2.138-.429 3.541zm-1.886-33.003l-.189.398.322-.24c.476-.355.495-.386.495-.825 0-.068-.001-.127-.003-.176l-.014-.357-.173.313a26.392 26.392 0 00-.438.887zm-12.402-2.939c1.592 2.409 1.875 3.082 2.318 5.542.111.627.336 1.283.71 2.066l.343.708-.051-.546c-.034-.368-.055-.83-.055-1.237-.011-1.023.049-1.503.334-2.701.431-1.739.442-2.286.079-3.66-.369-1.408-.926-2.719-1.862-4.383a62.839 62.839 0 01-1.124-2.071l-.191-.38.003.425c.004.622.072.896.455 1.837.566 1.437.646 2.308.248 2.744-.247.275-.483.29-.639.254-.4-.093-.766-.65-1.029-1.568-.094-.336-.187-.665-.243-.858l-.085-.295-.103.291c-.154.425-.331 1.327-.223 1.91.03.177.494 1.009 1.115 1.922zm14.81 30.355c.126-.315.302-1.094.392-1.737.033-.233.057-.433.074-.598l.046-.428-.23.364c-.546.866-1.492 2.66-2.031 3.949-.35.848-.659 1.164-1.651 1.689-.889.471-2.072 1.636-2.481 2.447h-.001c-.438.878-.866 2.247-.953 3.054-.036.399-.346 2.032-.632 3.44-.635 3.063-.696 3.714-.584 6.343l.073 1.508.165-.205c.453-.564 1.493-1.517 2.14-1.961.358-.257 1.09-.883 1.61-1.403.796-.785 1.047-1.117 1.41-1.867.463-.989.796-2.17 1.275-4.514.335-1.651.372-2.501.218-5.055l-.09-1.628.507-1.402c.256-.706.603-1.645.743-1.996zm.627-9.625l-.702 1.062c-.998 1.506-1.324 2.168-1.659 3.369-.128.437-.241.909-.309 1.295l-.064.365.239-.283c.545-.645.899-1.18 1.026-1.55.165-.528.97-1.856 1.436-2.368.156-.173.173-.258.095-1.163l-.062-.727zm.234 4.305l.012-.267-.183.194a3.133 3.133 0 01-.402.355c-1.002.74-1.976 1.92-2.425 2.937-.1.233-.277.866-.379 1.438-.221 1.21-.613 2.053-1.498 3.221l-.378.5.514-.358.409-.279.095-.064c.613-.387.627-.408 1.504-2.176.944-1.874 1.575-2.916 2.252-3.719.327-.401.377-.539.442-1.228.019-.196.03-.39.037-.554zm-4.03-20.341c-.945 1.197-1.078 1.78-1.283 5.666-.036.598-.153 2.236-.153 2.236s1.235-2.279 1.479-2.693c.522-.908 1.014-2.118 1.014-2.394 0-.162.24-.726.41-1.075l.374-.799-.185-1.21a58.734 58.734 0 00-.141-.938l-.026-.163-.133.099c-.424.319-1.108.961-1.356 1.271zm.538 42.282c.409.082.815.251 1.029.429.196.172.391.26.461.266l.019.001.019-.006c.129-.041.519-.478.542-.649 0-.068.127-.286.482-.677l.406-.467-.211-1.035a93.82 93.82 0 01-.112-.563l-.209-1.083-.134.219c-.199.324-.577.799-.964 1.21-.468.5-1.123 1.262-1.407 1.67l-.427.584.506.101zm-.555-35.775l.248-.09c.332-.12.993-.256 1.538-.316 1.473-.168 1.564-.224 1.833-.612.476-.717.413-1.017-.489-2.295a7.09 7.09 0 00-.452-.565l-.069-.076-.074.072c-.342.335-1.402 1.847-2.353 3.55l-.182.332zm4.098 4.91l.616-1.299.012-.025-.218-2.122s-.278-.006-.504-.016c-1.015-.047-1.723-.535-1.87-.606-.298-.159-.726-.247-1.203-.247a3.76 3.76 0 00-.698.065c-.512.1-1.555 1.857-2.481 4.178l-.056.14c-.916 2.305-.916 2.305-1.561 7.18l-.017.128c-.209 1.605-.162 3.489.177 6.952.135 1.351.246 3.213.246 4.151l.006 1.141.187-.377c.288-.581.759-1.273 1.572-2.311.438-.546.989-1.383 1.229-1.865.398-.785.454-1.001.667-2.571.431-3.395.618-4.175 1.338-5.568.337-.661.357-.861.42-1.952.078-1.388.124-1.522.992-2.861.285-.445.809-1.414 1.146-2.115zm-1.774-4.783l.403.281c.497.364.649.446 1.128.446.101 0 .215-.003.351-.009l.325-.017-.059-.782a9.678 9.678 0 00-.083-.755l-.045-.262-.138.227a2.52 2.52 0 00-.042.071c-.305.528-.51.633-1.462.747l-.378.053zm-1.692 37.419h-.002c-.485-.115-.87-.191-.951-.194-1.38.164-1.974.355-2.544.818-.807.652-1.192 1.167-1.419 1.899-.185.59-.203.879-.137 2.202.041.861.226 2.487.44 3.865.212 1.288.422 2.881.467 3.551l.068.937.4-.549c.324-.45 1.452-2.231 1.452-2.231.428-.691 1.013-1.636 1.367-2.191 1.094-1.728 3.182-6.275 3.182-6.787.001-.324-1.036-.983-2.323-1.32zm-7.482 14.37c-.341-.082-.506-.171-2.013-1.213a38.9 38.9 0 00-2.474-1.542c-2.166-1.234-2.484-1.425-2.828-1.705-.273-.231-.458-.673-1.167-2.779-.49-1.448-1.055-3.007-1.286-3.549-.231-.551-.411-1.156-.401-1.349 0-.181.161-.874.393-1.569l.019-.059c.564-1.771.575-1.805.175-2.717-.253-.56-.365-1.045-.501-2.16-.04-.332-.08-.669-.108-.945l-.051-.494.255.468c.24.444.742 1.308 1.11 1.887.472.757.763 1.383.976 2.093.316 1.016.384 1.131 1.046 1.76.361.341.876.801 1.119.984a2.8 2.8 0 01.635.687c.14.235.659.855 1.097 1.356.468.523 1.07 1.269 1.342 1.662.788 1.121 1.672 2.983 2.056 4.33l.001.001c.314 1.137.78 3.955.78 4.711l-.001.066-.007.124-.167-.048zm-2.293-4.289a.708.708 0 00-1.132-.174c-.263.25-.267.471-.018.819a.7.7 0 00.583.292c.23 0 .439-.105.561-.281.166-.242.167-.346.006-.656zm-2.789-2.353c-.221-.134-.422-.201-.614-.201a.937.937 0 00-.527.175c-.228.156-.308.305-.33.61-.044.605.361.865 1.028 1.088.361.12.627.198.834.213.242.018.391-.051.533-.235a.609.609 0 00.121-.504c-.068-.368-.439-.775-1.045-1.146zm7.516 3.669c-.114-.92-.315-2.462-.514-3.99-.268-2.06-.545-4.189-.578-4.562-.126-1.346-.091-5.346-.001-5.95.105-.712.314-1.7.534-2.745.329-1.563.67-3.18.718-4.114.04-.774.04-1.766.039-3.023v-.385c.007-1.686-.009-2.566-.197-4.502l-.199.013a67.992 67.992 0 01-.057 6.389c-.145 2.734-1.067 6.265-1.067 6.265-.701 2.733-.952 4.739-.987 5.678-.001.017-.095 1.721.138 4.675.037.476.081 1.004.127 1.566.279 3.416.662 8.094.527 10.461-.169 2.975-1.282 5.683-1.294 5.709l-.056.139h3.852l-.007-.106c-.004-.072-.447-7.238-.978-11.518zM40.324 60.58l.005.027.922 1.02c.176.194.68.717.68.717l-.091-.359c-.339-1.354-.986-3.478-1.236-4.057a40.649 40.649 0 01-.644-1.588l-.078-.207-.119-.306-.072.321c-.1.446-.019 1.194.299 2.759l.334 1.673zm-.003-7.451c.071-.327-.065-1.894-.296-2.172h-.001c-.126-.149-.324-.195-.472-.208-.12-.007-.53-.016-.82.229-.32.263-.32.423-.32 1.669 0 1.144.032 1.411.204 1.673.084.142.285.381.509.381.514 0 1.084-1.02 1.196-1.572zm20.807-12.834c-.228.413-.481.856-.713 1.248-.864 1.448-.996 1.835-.941 2.761l.018.294.529-.783c.55-.813.719-1.167.826-1.719.092-.414.292-1.154.465-1.723l.277-.91-.461.832zm-18.461 2.666c.269.286.583.659.781.928l.268.363-.091-.443c-.071-.352-.163-.91-.206-1.184-.171-1.149-.384-1.677-.952-2.353-.978-1.169-1.685-2.013-1.979-2.313l-.154-.157-.017.22c-.026.343.165.806.928 2.486.663 1.467.916 1.903 1.422 2.453zm18.334 15.373l-.04-.203-.068-.321-.122.305a24.29 24.29 0 00-1.318 4.824c-.11.63-.578 2.801-.824 3.853l-.112.48.29-.398c.438-.601 1.107-1.933 1.107-2.29 0-.219.198-1.002.381-1.602.852-2.827.938-3.387.714-4.607l-.008-.041zm-.438 11.488l-.167.209c-.123.154-.268.347-.418.559h-.001c-.414.591-.666.882-.97.934-.258.048-.517-.099-.866-.347-.43-.293-.553-.345-1.148-.345-.392 0-.628.033-.814.113l-.329.142.691.095c1.456.214 2.738.704 3.348 1.278l.186.173.066-.179c.232-.607.436-1.635.436-2.201 0-.058-.002-.114-.004-.164l-.01-.267zM42.598 50.681c-.323-.198-1.199-.109-1.51.056a.8.8 0 00-.442.726c.003.323.177.676.519 1.049.211.228.448.347.682.347a.684.684 0 00.214-.034c.388-.124.66-.578.746-1.246.051-.349.08-.734-.209-.898zm1.203-25.613l.041.009c.14.031.467.17.917.39.552.282.999.623 1.449 1.107l.416.449-.215-.519c-.348-.836-1.005-2.002-1.496-2.655-.382-.507-.809-1.134-.973-1.431l-.208-.348-.046.27c-.073.431-.173 1.174-.173 1.448 0 .532.175 1.101.266 1.244l.022.036zm7.07 38.944c.639-3.269.633-3.818-.061-5.871-.7-2.052-1.87-4.375-3.211-6.374a145.59 145.59 0 01-1.562-2.337 40.349 40.349 0 00-.959-1.4 13.078 13.078 0 01-1.008-1.849c-.305-.667-.65-1.335-.822-1.589a9.84 9.84 0 00-.741-.914l-.209-.222.052.998c.034.736.136 1.53.208 1.785.153.507 1.665 3.287 2.61 4.798 1.017 1.639 1.555 2.921 1.555 3.707 0 .395-.081.534-.504.889-.485.407-1.174.42-1.174.42l.06.403c.233 1.674.242 1.739-.194 2.376-.881 1.282-1.253 3.275-.904 4.847.1.457.277 1.33.389 1.941.107.593.297 1.329.415 1.607.443 1.011.517 1.495.528 3.448.032 2.683.146 3.063 1.359 4.529.927 1.112 2.211 2.892 2.861 3.968l.266.44-.082-.508c-.31-1.911-.457-4.669-.336-6.278.113-1.385.66-4.68 1.464-8.814zm-8.049-9.397l.019.047c.193.443.536 1.519.789 2.388l.069.246.359 1.26.055.19.12-.157c.127-.166.404-.606.404-.833 0-.536-.651-4.431-.893-5.344a10.791 10.791 0 00-.169-.55l-.095-.286-.094.286c-.028.087-.095.31-.095.513 0 .364-.299 1.071-.582 1.376-.17.18-.155.218.113.864zm-.323-22.614l.249.56c.148.33.327.904.518 1.659.455 1.831.709 2.501 1.089 2.87.375.375.851.474 1.188.25.605-.382.078-2.207-.425-3.341l-1.182-2.651.13-.935c.198-1.436.13-3.499-.151-4.598l-.053-.204.191.088c.155.072.437.225.686.392.626.406 1.587 1.389 1.836 1.878.086.162.282.755.445 1.35.297 1.106.868 2.359 1.608 3.527.583.92.847 2.006 1.045 4.304.177 2.009.542 4.833.999 7.746.426 2.664.697 4.961.828 7.021.127 1.912.173 4.688.128 5.8l-.017.422-.173-.385a16.116 16.116 0 01-.293-.701c-.977-2.445-1.923-4.109-4.218-7.415-.882-1.268-1.59-2.317-1.725-2.551-.442-.758-1.246-4.187-1.246-5.317 0-.342-.082-.648-.223-.841a4.705 4.705 0 01-.942-2.103c-.191-.973-.211-2.541-.044-3.352.116-.499.09-.858-.064-1.923a44.171 44.171 0 01-.184-1.55zm3.792 9.427a.347.347 0 00.232.17c.199.048.454-.022.689-.184.189-.126.298-.272.335-.448.064-.325-.118-.768-.629-1.529-.44-.653-.602-.856-.76-.856-.072.003-.131.057-.203.192-.163.305.114 2.231.336 2.655zm-4.339-2.71l.196.238-.019-.307a77.53 77.53 0 00-.06-.849c-.066-.859-.187-1.594-.325-1.964a66.455 66.455 0 01-.511-1.465c-.05-.142-.096-.268-.139-.378l-.121-.312-.069.327c-.084.39-.181.968-.291 1.719-.109.812-.106.985.02 1.228.095.217.857 1.205 1.319 1.763zm.28-3.192v-.556a8.61 8.61 0 00-.139-1.444 23.845 23.845 0 00-.184-.958l-.029-.131-.211.119c-.178.104-.257.217-.257.365 0 .241.406 1.486.628 2.083l.192.522zm-1.91 25.99s.1 1.147-.253 2.049c-.335.855-.23.933-.057 1.581.209.747.543 1.399 1.627 3.171.421.688.872 1.601 1.049 2.122.279.858.314.91 1.281 1.844.192.18.82.762.82.762l-.064-.476c-.056-.413-.076-1.201-.045-1.756.11-1.611-.026-2.228-1.122-5.074l-.001-.001c-.196-.488-1.656-2.514-2.658-3.62-.173-.19-.577-.602-.577-.602zm-.144-6.33l.175.534c.106.311.436 1.157.738 1.873.317.759.81 2.28 1.101 3.391.43 1.585.627 2.14 1.004 2.829l.336.614-.151-.684c-.238-1.077-.226-1.795.053-3.198l.215-1.149-.337-1.285c-.38-1.414-.871-2.929-1.195-3.686l-.019-.04c-.167-.393-.197-.437-.537-.437-.492 0-.774.197-1.119.78l-.264.458z"
    fill="#3d3c3c" />
</svg>