<svg viewBox="862.028 780.548 3275.945 3438.905" width="3275.945" height="3438.905" xmlns="http://www.w3.org/2000/svg">
  <g fill="#3d3c3c">
    <circle cx="2777.703" cy="2293.937" r="106.016" />
    <circle cx="2777.703" cy="1870.695" r="106.016" />
    <circle cx="2222.306" cy="1659.07" r="106.016" />
    <path
      d="M1927.52 3225.869l-10.478-45.755c-8.532-37.252-42.016-62.809-77.802-59.09-24.12 2.412-44.65 15.747-56.579 37.16-8.968 16.097-10.597 35.316-6.484 53.278l32.06 140.004c9.369 40.914-2.281 85.053-33.768 112.808-36.541 32.209-89.497 37.307-132.238 11.186-26.693-16.314-44.22-44.259-50.906-74.82l-60.257-275.41c-7.36-33.638-36.783-59.284-71.214-58.833-47.331.619-79.768 43.925-70.216 87.643l5.983 27.355c7.275 33.262.896 68.841-20.274 95.507-31.997 40.304-85.001 53.099-130.547 34.093L965.954 3194.57c-37.76-15.779-81.492-.029-97.415 35.095-9.989 22.034-8.51 47.094 4.612 68.379 8.187 13.281 21.151 22.994 35.548 29.004l276.371 115.389c34.17 14.266 61.452 43.105 69.648 79.216 10.666 46.995-9.294 94.069-48.925 119.136l-24.56 15.548c-29.096 18.419-43.144 54.837-30.956 87.045 16.751 44.264 68.534 59.935 106.351 36.024l243.471-154.06c18.041-11.417 38.728-17.227 59.521-17.227 14.504 0 29.065 2.828 42.812 8.57a31.79 31.79 0 011.831.834c43.666 18.157 72.194 65.284 65.662 116.701-4.312 33.938-25.536 63.447-54.617 81.467l-123.33 76.422c-13.272 8.224-24.545 19.875-30.531 34.295-9.586 23.089-7.066 48.035 6.271 68.199 21.281 32.171 66.96 40.809 101.786 19.22l39.246-24.32a1111.084 1111.084 0 01629.572-165.741c18.175.726 27.281-21.311 13.987-33.725a1111.265 1111.265 0 01-324.789-564.172zM1376.786 2559.146l-126.866 21.095c-15.322 2.552-28.629 10.988-37.466 23.757-8.837 12.759-12.042 28.197-9.037 43.466 5.873 29.874 36.823 49.824 68.911 44.499l40.039-6.665a983.552 983.552 0 01161.368-13.329 983.73 983.73 0 01389.137 80.248c16.28 7.012 32.522-9.36 25.51-25.64a983.638 983.638 0 01-66.899-550.459l6.759-40.693c4.893-29.452-12.222-58.777-38.974-66.781-19.591-5.844-39.849-1.406-55.376 12.618-9.764 8.818-15.628 21.221-17.786 34.2l-20.73 124.662c-5.835 35.09-27.117 66.869-59.38 81.851-45.684 21.215-99.023 7.491-128.906-33.486-17.272-23.685-22.452-54.154-17.362-83.022l42.878-243.215c4.773-27.073-8.972-55.212-34.594-65.174-34.484-13.408-71.047 8.396-77.171 43.067l-4.058 23.044c-6.015 34.159-26.777 65.007-58.097 79.908-40.793 19.409-87.979 10.873-119.079-20.239l-187.867-187.867c-23.009-23.009-59.737-24.728-81.912-3.88-11.336 10.682-17.705 25.107-17.937 40.64-.232 15.533 5.684 30.137 16.671 41.125l187.481 187.48c24.557 24.557 37.97 59.289 32.239 93.542-7.46 44.581-41.557 78.32-84.893 85.949l-24.271 4.268c-28.865 5.076-51.396 30.292-49.72 59.552 1.021 17.834 9.878 33.606 24.209 43.653 12.475 8.731 27.575 12.126 42.559 9.438l249.481-43.919c33.48-5.969 67.803 4.924 91.846 28.967 31.217 31.205 39.736 78.473 20.124 119.35-15.119 31.513-46.354 52.258-80.831 57.99z" />
    <circle cx="2222.306" cy="1235.828" r="106.016" />
    <circle cx="2777.703" cy="1447.444" r="106.016" />
    <circle cx="2222.306" cy="2082.311" r="106.016" />
    <path
      d="M4031.446 1912.879c10.977-10.988 16.903-25.592 16.671-41.125-.232-15.522-6.612-29.958-17.947-40.64-22.144-20.868-58.893-19.118-81.902 3.88l-184.876 184.866c-24.552 24.551-59.277 37.958-93.522 32.226-44.569-7.461-78.299-41.549-85.937-84.87l-4.377-24.804c-4.786-27.121-27.435-48.835-54.97-49.343-37.019-.683-63.693 32.259-57.606 66.85l43.284 245.518c5.09 28.87-.076 59.342-17.337 83.036-29.866 40.997-83.227 54.726-128.922 33.496-32.271-14.993-53.554-46.787-59.39-81.889l-20.756-124.843c-2.149-12.925-8.032-25.255-17.775-34.015-15.547-13.979-35.768-18.442-55.353-12.565-26.752 7.993-43.866 37.318-38.974 66.76l6.77 40.703c31.108 187.055 7.333 378.063-66.887 550.423-7.031 16.329 9.291 32.65 25.62 25.618a983.494 983.494 0 01550.372-66.862l40.049 6.664c32.214 5.357 63.026-14.626 68.91-44.499 3.005-15.269-.2-30.707-9.037-43.466-8.847-12.77-22.155-21.206-37.476-23.758l-126.887-21.098c-34.482-5.733-65.711-26.497-80.817-58.021-19.586-40.875-11.073-88.099 20.111-119.283 24.063-24.074 58.408-34.914 91.867-28.999l249.501 43.93c34.478 5.937 67.416-20.482 66.845-57.473-.425-27.574-22.131-50.303-49.29-55.088l-20.647-3.637c-34.188-6.023-65.085-26.77-80.033-58.102-19.46-40.79-10.898-87.989 20.214-119.089l190.504-190.501zM4034.054 3194.57L3755.2 3310.995c-42.157 17.584-90.641 7.938-123.024-25.503-26.652-27.521-35.754-67.687-27.566-105.113l5.32-24.318c7.366-33.672-8.719-69.28-40.244-83.218-43.313-19.149-90.753 6.679-100.308 50.348l-60.553 276.792c-7.66 35.013-29.766 66.183-62.183 81.47-40.427 19.063-87.546 12.313-120.99-17.081-31.568-27.745-43.271-71.939-33.888-112.906l32.074-140.037c4.112-17.953 2.474-37.162-6.494-53.249-11.933-21.405-32.45-34.742-56.585-37.155-35.929-3.662-69.27 21.837-77.792 59.099l-10.487 45.745c-49.731 217.221-163.346 413.402-324.719 564.111-13.355 12.472-4.106 34.506 14.153 33.782a1111.198 1111.198 0 01629.346 165.755l39.246 24.301c34.865 21.588 80.495 12.97 101.786-19.211 13.333-20.158 15.841-45.111 6.288-68.188-5.955-14.386-17.181-26.019-30.416-34.22l-122.342-75.808c-35.712-22.128-58.921-61.494-56.485-103.436 2.581-44.436 30.898-82.681 72.852-98.078 33.652-12.35 71.373-6.198 101.665 12.969l237.777 150.452c29.096 18.411 68.016 15.499 91.889-9.313 32.821-34.112 24.823-87.607-12.98-111.526l-22.637-14.325c-32.397-20.501-54.591-55.23-55.436-93.559-1.026-46.565 26.235-87.833 68.362-105.418l280.454-117.097c14.401-6.013 27.371-15.727 35.562-29.01 13.126-21.287 14.603-46.348 4.625-68.385-15.923-35.143-59.656-50.855-97.416-35.095zM2500 1075.037c-8.625 0-17.061-.784-25.265-2.252-12.353-2.21-23.874 6.589-23.874 19.139v3075.655c0 25.674 18.477 49.066 44.024 51.62 29.381 2.938 54.139-20.05 54.139-48.828V1091.902c0-12.522-11.493-21.306-23.82-19.106a143.286 143.286 0 01-25.204 2.241zM2500 780.548c-58.461 0-106.016 47.555-106.016 106.016 0 44.395 27.487 82.371 66.283 98.138 12.294 4.995 25.667 7.878 39.733 7.878 14.029 0 27.367-2.876 39.629-7.847 38.853-15.742 66.386-53.737 66.386-98.169 0-58.461-47.555-106.016-106.015-106.016z" />
  </g>
</svg>