<svg viewBox="6.074 7.188 88.118 87.393" width="88.118" height="87.393" xmlns="http://www.w3.org/2000/svg">
  <path
    d="M39.172 59.91c-4.234.793-10.301 1.398-14.172-.805 4.2 1.606 8.793.832 13.102.18-2.527-1.469-5.152-2.785-7.703-4.219-3.363.653-6.754.035-10.051-.773-.856-.258-1.863-.39-2.637-.844.363-.094 3.414.559 4.04.66 2.667.434 5.273.586 7.964.25-3.02-1.808-5.644-4.273-8.71-5.96-2.63-1.157-5.622-1.274-8.15-2.704 2.141.578 4.352.813 6.485 1.395-3.262-2.832-6.867-5.254-10.266-7.918 3.727 1.777 7.477 4.855 10.824 7.285 2.192 1.734 4.207 3.457 6.68 4.808-.402-3.39-2.645-6.406-5.043-8.73 3.238 1.617 5.7 5.684 5.898 9.258 1.957 1.52 4.106 2.945 6.352 3.996-.695-3.89-1.367-8.238-4.34-11.125 2.09 1.066 3.203 3.824 3.887 5.941.605 1.801 1.011 3.68 1.183 5.567 1.825.976 3.664 1.93 5.453 2.972a80.943 80.943 0 00-1.87-6.914c1.601 1.934 2.187 5.117 2.78 7.496a26.428 26.428 0 017.395 6.297c-.812-3.668-2.332-7.125-3.437-10.707.046.82.14 2.059-.739 2.465-.074.008-.113-.039-.168-.078-.238-.438-.175-1.035-.187-1.523-.05-2.04-.387-4.063-1.91-5.543-.422.402-1.258 2.23-1.887 1.593-.227-.246-.258-.945-.375-1.293-.438-1.285-.938-2.699-1.719-3.812-.191.34-.73 1.476-1.023 1.594-.137 0-.203-.004-.309-.098-.23-.203-.383-.844-.515-1.137-.817-1.789-2.047-3.48-3.793-4.453.015.453.164 1.399-.473 1.488a.555.555 0 01-.45-.16c-.495-.554-.859-1.257-1.324-1.847-1.44-1.813-3.433-2.7-5.601-3.317.015.7.156 2.168-.766 2.336-.406-.125-.668-.672-.926-.988-1.011-1.324-2.304-2.29-3.933-2.7-.29-.074-.832-.238-1.098-.074-.086.137-.015.282.047.414.152.407.629 1.707-.008 1.864-.418-.074-1.054-.93-1.476-1.2-1.086-.69-2.36-1.09-3.63-1.28.083.374.278 1.003-.175 1.218-.688.051-1.523-.32-2.2-.48-1.363-.328-2.745-.696-4.124-.95 1.398 1.524 1.91 3.575 3.367 4.997.422.742-.633.914-1.145.992.868.984 1.829 1.89 2.704 2.863.144.188.308.438.296.684-.136.5-1.187.355-1.59.398 1.145 1.617 2.665 3.465 4.72 3.813.203.05.48.058.53.28-.09.243-.288.38-.519.477-.777.336-1.555.653-2.328 1.008.852.875 2.371 2.242 3.656 2.27.352.008.813-.09 1.086.152.031.106.043.129-.023.23-.254.399-1.864.794-2.356.965 2.102 1.16 3.965 1.965 6.34 2.422.457.09 1.598.059 1.844.489 0 .117.012.16-.074.25-.262.285-2.192 1.062-2.696 1.363 1.824.863 3.973 1.648 6.008 1.289.77-.11 2.848-.797 3.418-.332.04.121.047.148-.016.273-.117.235-1.59 1.086-2.046 1.684 1.082.71 2.543 1.2 3.847 1.07 1.465-.226 2.93-.484 4.418-.285-.593-.988.239-1.238 1.086-1.176 3.395.164 6.77 1.875 9.899 3.102.742.398 1.421.918 2.078 1.445-2.309-3.238-5.828-6.386-9.403-8.16z"
    fill="#3d3c3c" />
  <path
    d="M38.695 64.836a10.105 10.105 0 00-2.02-.285c.395.328 1.368.996 1.38 1.547.023.273-.239.52-.508.496-.485-.055-.973-.403-1.418-.586-1.559-.649-3.461-.383-5.016.125.137.285.707.598.719.883-.192.293-.914.383-1.254.457-1.848.246-3.664.77-5.192 1.879.602.644 1.434.972 2.137 1.472.129.11.2.203.227.371-.047.137-.098.204-.23.266-1.907.504-3.93.887-5.544 2.129.332.203 1.313.453 1.067.984-.223.36-.91.676-1.254.95-1.04.824-2.258 1.816-2.992 2.93.492-.02 1.558-.18 1.949.148.05.117.074.152.035.28-.117.38-1.613 1.813-1.988 2.259a20.576 20.576 0 00-2.207 3.195 41.214 41.214 0 012.425-1.941c4.801-3.922 9.692-7.82 15.305-10.531 4.243-2.125 9.387-4.63 14.16-2.813.07-.11.07-.113.059-.242-.512-.852-8.336-3.59-9.84-3.969zm-8.43 8.957c-1.39.883-3.199 1.137-4.816 1.227l-.082-.028c.308-.152 1.84-.39 2.305-.504.859-.21 1.707-.488 2.55-.75l.051.008-.012.047zm2.574-3.914c-1.09.008-2.902.14-3.878-.238 1.41.058 2.808-.118 4.207-.266 1.37-.121 2.312.129 3.543.742-1.293-.023-2.57-.226-3.868-.238z"
    fill="#3d3c3c" />
  <path
    d="M40.281 70.188c-1.852 2.82-3.309 6.004-5.941 8.207-.317.281-.88.855-1.317.89-.164-.652 1.137-1.109 1.535-1.476 2.094-1.996 3.063-4.844 4.532-7.273-2.567 1.047-5.196 2.191-7.516 3.699-.797.676-.922 1.781-1.352 2.68-.867 1.867-2.418 3.511-4.257 4.445 1.449-1.172 2.804-2.52 3.601-4.238.363-.715.61-1.493.992-2.192-2.375 1.246-5.113 3.074-7.254 4.688a526.722 526.722 0 00-5.87 4.316c1.406-.59 2.867-.723 4.175-1.27.301-.124 1.024-.558 1.328-.48.336.465-.078 1.094-.277 1.54.789-.118 1.57-.294 2.316-.583.828-.273 1.543-1.14 2.262-1.047.094.09.11.137.113.27.02.558-.203 1.222-.328 1.773 1.524-.527 2.98-1.476 3.961-2.77.203-.269.465-.835.738-1.007a.32.32 0 01.286-.055c.28.246.378 2.188.437 2.68 1.29-1.063 2.148-2.5 3.121-3.805.192.715.156 1.527.219 2.266 1.539-1.297 1.957-2.899 2.293-4.817.672.641.976 1.63 1.453 2.414.887-1.148 1.46-2.515 1.848-3.906.09-.328.297-1.566.465-1.722.148.023.218.09.308.207.39.527.613 1.312.856 1.921 1.082-1.503 1.335-3.523 2.421-5.007.317-.399.711-.68 1.125-.973-2.039-.348-4.328-.027-6.269.625zM41.891 40.777c.098.21.11.445-.035.633-.656.324-1.387-.192-1.985-.453.766 4.058 3.606 6.804 5.762 10.16.219.367 1.516 1.75 1.305 2.105-.29.34-.805.38-1.223.414.047 1.867 1.05 4.274 1.688 6.063a60.424 60.424 0 012.265 7.719c.051-6.747-.027-13.496-.133-20.242a47.91 47.91 0 01-8.062-17.25c1.144 1.882 1.594 4.18 2.57 6.168a57.47 57.47 0 005.59 9.933 188.264 188.264 0 01-.176-12.246c-2.101-3.23-4.53-6.883-3.812-10.93.183.973.222 1.961.441 2.934.563 2.601 2.016 4.847 3.45 7.043-.02-2.926.253-5.86.296-8.785-1.304-1.727-2.441-4.032-2.308-6.235.46 1.918 1.191 3.77 2.28 5.422.028-2.852.274-5.797.61-8.625.18 2.832.067 5.719.11 8.57 1.023-1.699 1.761-3.254 2.27-5.183.03 2.101-1.056 4.332-2.29 6 .035 3.054-.105 6.113-.086 9.168 2.613-3.04 4.234-6.2 4.363-10.281 1.047 4.222-1.882 8.152-4.375 11.258l.106 12.05c3.84-4.91 6.469-10.64 8.297-16.57-.676 6.704-4.52 12.423-8.258 17.82-.004 6.024.187 13.896.105 19.849.66-2.996 1.645-5.895 2.7-8.774.566-1.574 1.273-3.18 1.316-4.87-.395-.09-1.36-.06-1.258-.65.082-.316.965-1.312 1.211-1.648.707-.91 1.266-1.925 1.883-2.894 1.73-2.02 3.71-4.766 3.93-7.488-.465.21-1.961 1.105-2.207.312-.004-.594.687-.86.992-1.289.953-1.191 2.617-4.14 2.691-5.66-.629-.098-2.691.762-2.68-.238.063-.47.497-1.082.723-1.497.953-1.78 1.594-3.949 1.055-5.968-.684.27-1.938 1.593-2.61.976-.156-.437.274-1.281.395-1.719.492-1.875.266-4.289-.477-6.07-.398.168-1.43.906-1.796.758-.54-.203-.282-.887-.231-1.309.102-1.222-.008-2.566-.617-3.656-.938.68-2.024 1.313-1.797-.465.016-.824-.098-1.511-.457-2.258-.16.309-.555.657-.879.352-.703-1.863-.984-2.66-1.836-4.594-.14-.363-.332-1.183-.555-1.449-.418 1.422-1.027 2.7-1.566 4.074-.25.637-.39 1.465-.805 2.016-.347.207-.683-.106-.945-.309-.395.98-.293 2.02-.336 3.043-.309.985-1.297-.043-1.777-.336-.512 1.047-.684 2.301-.555 3.453.035.465.387 1.215-.207 1.453-.707.11-1.312-.687-1.965-.917-.718 2.136-1.004 4.437-.254 6.613.13.363.664 1.258.125 1.5-.222.101-.5-.008-.699-.106-.637-.312-1.215-.699-1.898-.922-.59 2.625.722 4.672 1.722 6.954.114.261.282.683-.043.87-.656.243-1.671-.292-2.39-.14.195 1.672.871 2.703 1.758 4.078.492.875.965 1.504 1.57 2.262zM91.953 43.449c-1.73-.418-1.148-.875-.305-1.922.977-1.594 1.125-2.656 2.543-4.14-.097-.043-.105-.028-.207-.008-1.96.289-3.851.96-5.715 1.582-.882.12-.664-.868-.496-1.399-1.058.223-2.484.395-3.375 1.043-.34.246-1.023 1.559-1.523 1.192-.203-.153-.21-.5-.215-.73-.008-.407.113-1.036-.11-1.384-.14-.074-.226-.093-.378-.039-1.715.582-3.445 1.547-4.754 2.801-.477.309-.625 1.184-1.242 1.098-.524-.563-.172-1.715-.27-2.442-2.531.832-5.297 2.536-6.437 5.055-.125.3-.211.766-.504.942-.692.09-.496-1.5-.57-1.93-1.852 1.195-3.586 2.851-4.141 5.062-.11.328-.234.625-.633.578-.219-.128-.726-1.32-1.191-1.742a13.383 13.383 0 00-1.895 4.422c-.066.266-.117.934-.46.965a.381.381 0 01-.294-.094c-.496-.61-.93-1.277-1.633-1.672-.636 1.27-1.433 3.082-1.476 4.5-.024.715.191 1.684-.016 2.364a.397.397 0 01-.23.273c-.965-.258-.84-1.668-.863-2.457-1.278 3.516-2.56 7.02-3.524 10.637 2.04-2.512 4.692-4.66 7.485-6.285.523-2.402 1.277-6.043 2.882-7.941-.863 2.41-1.34 4.949-2.03 7.41 1.73-1.031 3.538-1.953 5.308-2.918.383-4.184 1.77-8.594 4.988-11.465-.305.808-1.074 1.636-1.52 2.418-1.574 2.761-2.359 5.402-2.601 8.574a50.749 50.749 0 006.121-3.887c.457-3.66 2.707-7.601 5.871-9.578l.059.024c-.07.34-1.39 1.73-1.711 2.125-1.633 2.02-2.988 4.25-3.38 6.863 6.036-3.91 11.462-8.8 17.853-12.148-.594.512-1.227.96-1.863 1.414-3.032 2.348-6.16 4.574-9.211 6.894 2.449-.492 4.879-1.105 7.304-1.699-2.41 1.301-5.535 1.875-8.175 2.52-1.688.972-3.25 2.36-4.907 3.43-.882.632-3.03 2.019-3.867 2.648 4.332.535 8.344-.277 12.54-1.29-4.243 2.13-8.891 2.481-13.556 1.958-2.48 1.496-5.035 2.855-7.57 4.254 4.543.504 9.266 1.214 13.734-.098-4.457 2.387-9.898 1.195-14.684.734-3.606 1.715-6.895 4.98-9.383 8.028.758-.496 1.504-1.059 2.317-1.461 1.652-.813 8.933-3.426 10.344-3.16.675.156.378 1 .152 1.43a17.956 17.956 0 013.336.124c.36.051 1.367.367 1.633.223 1.199-.516 2.574-.582 3.722-1.281-.62-.602-1.472-.93-2.11-1.492-.097-.102-.112-.157-.128-.297.07-.13.133-.184.277-.22.551-.136 1.547.126 2.137.2 2.32.297 5.059-.004 7.156-1.101-.8-.57-1.73-.915-2.586-1.375-.203-.098-.375-.329-.21-.54.48-.351 1.507-.152 2.093-.21 2.121-.258 4.012-1.266 5.797-2.375-.617-.196-1.957-.497-2.32-1.055 0-.13-.004-.121.082-.215.543-.031 1.094.012 1.629-.11 1.152-.257 2.398-1.452 3.207-2.261-.668-.238-2.707-.567-2.782-1.438.036-.156.16-.234.32-.238 2.153-.215 3.75-2.125 4.876-3.812-.403-.028-1.207.004-1.5-.293-.059-.059-.051-.118-.04-.2.087-.59 2.352-2.726 2.829-3.382zM70.066 75.07c.723 2.613 2.383 4.777 4.375 6.547-1.895-.79-3.613-2.711-4.477-4.531-.398-.84-.68-1.762-1.129-2.575a66.652 66.652 0 00-7.433-3.812c1.242 3.012 3.367 5.535 5.539 7.914.133.145.566.574.52.774-.81-.29-1.395-1.012-2.024-1.57-2.148-2.102-3.848-4.657-5.008-7.423-1.687-.64-3.601-1.187-5.414-1.16-.652.04-1.3.098-1.937.25 2.476.863 3.742 3.285 4.011 5.777.375-.375.95-1.882 1.457-1.945.223.258.125.68.176 1 .16 1.742 1.043 3.395 2.196 4.688.152-.703.433-1.848 1.23-2.063.227.137.238.328.297.57.46 1.848.777 2.559 2.152 3.891.043-.441-.015-1.707.59-1.754.441.215.895 1.438 1.238 1.906.352.477.797.887 1.274 1.243.07-.438.343-2.024.73-2.27.13-.082.168-.066.309-.043 1.09 1.793 2.508 3.043 4.515 3.73-.168-.468-.675-1.398-.3-1.831.191-.051.46.043.644.105 1.356.59 2.719 1.188 4.195 1.422-.242-.438-.718-1.09-.77-1.586.403-.316 1.032.43 1.446.54.43.148.985.171 1.442.237 1.234.18 2.347.532 3.433 1.149-1.664-1.387-4.887-3.43-6.691-4.7a203.575 203.575 0 00-6.59-4.476zM50.738 68.996c-.156-.293-.492-.395-.805-.36-.18.114-.449.313-.492.536-.133.644.137 2.21.203 2.93.66 7.3.582 14.757-1.039 21.933.227.176.445.325.7.458.456.226.855 0 .964-.485.207-.71.258-2.32.328-3.137.532-5.972.457-11.977.352-17.969-.016-.855.168-3.25-.211-3.906z"
    fill="#3d3c3c" />
  <path
    d="M62.645 70.258c2.71-.863 5.602-.844 8.41-.574-2.336.41-5.246.258-7.453.96 2.27.977 4.52 2.391 6.738 3.407 1.633.262 3.457.535 4.961 1.297-1.367-.121-2.726-.375-4.086-.57l3.996 2.761c2.77 2.07 5.415 4.336 8.114 6.485-.88-1.977-2.27-3.672-3.645-5.301-.086-.125-.074-.192-.035-.328.36-.325 1.16-.383 1.633-.418a7.552 7.552 0 00-1.477-1.559c-1.058-.875-4.84-2.117-1.738-2.973-1.414-.718-3.09-1.656-4.707-1.707-.32-.011-1.062.149-1.297-.046-.008-.114.016-.153.09-.23.332-.345 1.04-.665 1.484-.833.368-.477.77-.797 1.258-1.144-.844-.551-3.992-2.172-4.918-1.981-.414.086-1.129.645-1.512.52-.101-.094-.101-.09-.117-.227.215-.613.899-1.04 1.406-1.398-1.515-.54-4.511-1.051-5.968-.317-.43.192-1.09 1.239-1.477 1.07-.074-.105-.09-.152-.074-.28.074-.583.52-1.286.875-1.743.11-.184.586-.52.473-.73l-.141.003a55.322 55.322 0 00-11.715 4.31l.137.405c3.492-1.71 7.43-.199 10.789 1.137z"
    fill="#3d3c3c" />
</svg>