<svg viewBox="6.074 7.188 88.118 87.393" width="64" height="64" xmlns="http://www.w3.org/2000/svg">
  <path
    d="M39.172 59.91c-4.234.793-10.301 1.398-14.172-.805 4.2 1.606 8.793.832 13.102.18-2.527-1.469-5.152-2.785-7.703-4.219-3.363.653-6.754.035-10.051-.773-.856-.258-1.863-.39-2.637-.844.363-.094 3.414.559 4.04.66 2.667.434 5.273.586 7.964.25-3.02-1.808-5.644-4.273-8.71-5.96-2.63-1.157-5.622-1.274-8.15-2.704 2.141.578 4.352.813 6.485 1.395-3.262-2.832-6.867-5.254-10.266-7.918 3.727 1.777 7.477 4.855 10.824 7.285 2.192 1.734 4.207 3.457 6.68 4.808-.402-3.39-2.645-6.406-5.043-8.73 3.238 1.617 5.7 5.684 5.898 9.258 1.957 1.52 4.106 2.945 6.352 3.996-.695-3.89-1.367-8.238-4.34-11.125 2.09 1.066 3.203 3.824 3.887 5.941a24.543 24.543 0 011.183 5.567c1.825.976 3.664 1.93 5.453 2.972a80.943 80.943 0 00-1.87-6.914c1.601 1.934 2.187 5.117 2.78 7.496a26.428 26.428 0 017.395 6.297c-.812-3.668-2.332-7.125-3.437-10.707.046.82.14 2.059-.739 2.465-.074.008-.113-.039-.168-.078-.238-.438-.175-1.035-.187-1.523-.05-2.04-.387-4.063-1.91-5.543-.422.402-1.258 2.23-1.887 1.593-.227-.246-.258-.945-.375-1.293-.438-1.285-.938-2.699-1.719-3.812-.191.34-.73 1.476-1.023 1.594-.137 0-.203-.004-.309-.098-.23-.203-.383-.844-.515-1.137-.817-1.789-2.047-3.48-3.793-4.453.015.453.164 1.399-.473 1.488a.555.555 0 01-.45-.16c-.495-.554-.859-1.257-1.324-1.847-1.44-1.813-3.433-2.7-5.601-3.317.015.7.156 2.168-.766 2.336-.406-.125-.668-.672-.926-.988-1.011-1.324-2.304-2.29-3.933-2.7-.29-.074-.832-.238-1.098-.074-.086.137-.015.282.047.414.152.407.629 1.707-.008 1.864-.418-.074-1.054-.93-1.476-1.2-1.086-.69-2.36-1.09-3.63-1.28.083.374.278 1.003-.175 1.218-.688.051-1.523-.32-2.2-.48-1.363-.328-2.745-.696-4.124-.95 1.398 1.524 1.91 3.575 3.367 4.997.422.742-.633.914-1.145.992.868.984 1.829 1.89 2.704 2.863.144.188.308.438.296.684-.136.5-1.187.355-1.59.398 1.145 1.617 2.665 3.465 4.72 3.813.203.05.48.058.53.28-.09.243-.288.38-.519.477-.777.336-1.555.653-2.328 1.008.852.875 2.371 2.242 3.656 2.27.352.008.813-.09 1.086.152.031.106.043.129-.023.23-.254.399-1.864.794-2.356.965 2.102 1.16 3.965 1.965 6.34 2.422.457.09 1.598.059 1.844.489 0 .117.012.16-.074.25-.262.285-2.192 1.062-2.696 1.363 1.824.863 3.973 1.648 6.008 1.289.77-.11 2.848-.797 3.418-.332.04.121.047.148-.016.273-.117.235-1.59 1.086-2.046 1.684 1.082.71 2.543 1.2 3.847 1.07 1.465-.226 2.93-.484 4.418-.285-.593-.988.239-1.238 1.086-1.176 3.395.164 6.77 1.875 9.899 3.102.742.398 1.421.918 2.078 1.445-2.309-3.238-5.828-6.386-9.403-8.16z"
    fill="#3d3c3c" />
  <path
    d="M38.695 64.836a10.105 10.105 0 00-2.02-.285c.395.328 1.368.996 1.38 1.547.023.273-.239.52-.508.496-.485-.055-.973-.403-1.418-.586-1.559-.649-3.461-.383-5.016.125.137.285.707.598.719.883-.192.293-.914.383-1.254.457-1.848.246-3.664.77-5.192 1.879.602.644 1.434.972 2.137 1.472.129.11.2.203.227.371-.047.137-.098.204-.23.266-1.907.504-3.93.887-5.544 2.129.332.203 1.313.453 1.067.984-.223.36-.91.676-1.254.95-1.04.824-2.258 1.816-2.992 2.93.492-.02 1.558-.18 1.949.148.05.117.074.152.035.28-.117.38-1.613 1.813-1.988 2.259a20.576 20.576 0 00-2.207 3.195 41.214 41.214 0 012.425-1.941c4.801-3.922 9.692-7.82 15.305-10.531 4.243-2.125 9.387-4.63 14.16-2.813.07-.11.07-.113.059-.242-.512-.852-8.336-3.59-9.84-3.969zm-8.43 8.957c-1.39.883-3.199 1.137-4.816 1.227l-.082-.028c.308-.152 1.84-.39 2.305-.504.859-.21 1.707-.488 2.55-.75l.051.008-.012.047zm2.574-3.914c-1.09.008-2.902.14-3.878-.238 1.41.058 2.808-.118 4.207-.266 1.37-.121 2.312.129 3.543.742-1.293-.023-2.57-.226-3.868-.238z"
    fill="#3d3c3c" />
  <path
    d="M40.281 70.188c-1.462 2.727-4.994 8.105-6.448 8.297 1.578-1.674 5.718-6.261 3.711-7.33-4.591 1.159-7.396 4.915-9.432 8.801-4.446 3.16 3.604-2.89 1.392-4.464-4.265 2.415-8.064 5.613-12.07 8.442 2.191-.815 5.073-1.81 6.595-.515 1.848-1.558 3.699-.751 3.42.662 1.704-.47 5.229-5.55 4.996-1.096.931-.84 3.161-4.65 3.735-1.849.94-1.275 2.381-5.97 3.351-2.093 1.334-.899 2.01-7.254 3.477-3.5 2.359-3.116 3.932-8.352-2.06-5.56zm1.61-29.411c-4.31.605.231 4.742 1.352 6.828 3.15 2.983 2.83 7.268 3.688 10.973 1.495 2.11 3.539 7.672 2.741 8.207.042-6.536-.034-13.073-.137-19.609a47.928 47.928 0 01-8.062-17.25c2.441 5.492 4.394 11.326 8.16 16.101-.69-4.533 1.213-9.961-1.393-13.819-1.274-1.645-3.07-7.273-2.39-7.466.344 2.023 2.372 8.1 3.775 6.513.786-4.233-.583-8.95-1.95-12.552.594 1.785 2.675 6.098 2.215 1.477-.039-1.49.666-6.706.637-2.44-.344 1.442-.042 6.963 1.325 2.93 1.985-4.375-.54 2.059-1.034 3.361-.513 2.279-1.052 7.564.524 8.112 2.115-1.486 2.988-8.146 3.731-7.362.083 5.058-5.938 8.22-4.63 13.588.253 2.12-.41 6.973.425 7.356 3.644-4.803 6.173-10.367 7.941-16.108-.685 6.685-4.516 12.445-8.258 17.82 0 6.617.184 13.232.105 19.849.294-5.063 4.792-9.423 3.24-14.633 1.445-3.96 5.641-6.43 6.424-10.685-4.711-1.312 3.423-4.64.69-7.573-4.041.776 3.704-8.274-2.453-7.215 1.017-2.877.779-7.76-2.251-7.535.372-3.82-3.852-5.23-4.757-8.985-1.013-2.1-1.523-3.996-2.419-.705-1.229 3.161-3.132 5.678-4.844 7.582.313 2.397-1.592 3.347-2.775 3.211-.302 2.774 1.181 7.357-2.386 7.419-.26 2.09 3.765 6.652-.347 6.568-.166 2.46 2.054 4.064 3.113 6.042zm50.062 2.672c-2.704-1.687 4.679-7.333-.707-5.487-2.772 2.293-4.156-1.781-6.527.698-2.54 2.073-2.776-3.027-5.125.185-.98 1.149-4.074 3.491-3.688.256-4.006.267-5.431 5.941-9.173 5.153-1.417 2.033-3.248 6.003-5.063 2.43-2.072 1.2.02 7.694-3.678 4.447-1.827 1.576-.584 7.137-2.827 5.56-.8 2.161-3.432 8.042-2.16 8.153 3.691-3.063 7.854-5.825 8.207-11.044 2.764-3.976-2.966 6.758 1.033 4.576 5.656-2.01 3.175-9.737 7.728-12.648-1.594 3.083-3.724 6.327-3.288 10.055 2.155 3.013 5.915-3.567 6.438-5.889.39-2.149 3.561-7.213 4.68-6.404-1.52 1.49-5.379 6.58-3.184 7.121 5.601-3.774 10.737-8.266 16.745-11.415-3.205 2.957-7.438 4.777-10.22 8.152 1.81-.622 8.263-1.767 3.103-.347-4.8.987-9.395 3.884-12.774 7.13 3.205 1.514 7.639-.601 11.284-.75-5.073 3.088-11.702.212-16.617 3.724-2.082.196-4.782 3.365-.887 2.702 2.744.45 8.154-.378 9.22.07-5.328 2.56-11.955-2.07-16.752 2.167-1.127.907-6.004 4.723-4.093 4.854 4.146-2.402 9.016-4.34 13.426-1.737 2.139.565 6.846-.692 4.685-3.08 1.885-.5 9.634 1.269 7.049-2.23-1.75-2.22 7.267-.447 5.735-4.087-2.913-.408 5.43-1.285 2.323-3.818-2.758-.762 5.734-3.068 2.6-5.746.677-1.059 1.855-1.673 2.507-2.751zM70.066 75.07c-.732 1.825 4.893 6.123 2.46 5.431-3.414-3.074-4.017-10.553-9.989-9.787-2.586 2.25 5.053 6.862 3.493 7.544-3.95-2.005-3.766-8.43-8.488-8.76-1.546-.757-5.284-.072-2.084 1.482-.082 2.677 2.89 3.561 3.224 3.633-.017 1.74 2.42 5.621 3.466 2.328-.075 2.549 2.644 3.92 3.583 3.819.812 2.54 3.254.205 3.23.172 1.075 2.614 4.157 2.605 5.741 2.146 2.694 1.035 3.721-1.3 6.467.415 3.136.48-2.505-2.292-3.117-2.992-2.675-1.791-5.38-3.538-7.986-5.431zm-19.328-6.074c-3.197 2.9.54 7.717-.705 11.44-.009 4.565-.42 9.142-1.428 13.599 4.407-1.554 1.088-7.66 2.368-11.15.04-4.63.19-9.271-.235-13.889z"
    fill="#3d3c3c" />
  <path
    d="M62.645 70.258c2.71-.863 5.602-.844 8.41-.574-2.336.41-5.246.258-7.453.96 2.27.977 4.52 2.391 6.738 3.407 1.633.262 3.457.535 4.961 1.297-1.367-.121-2.726-.375-4.086-.57l3.996 2.761c2.77 2.07 5.415 4.336 8.114 6.485-.88-1.977-2.27-3.672-3.645-5.301-.086-.125-.074-.192-.035-.328.36-.325 1.16-.383 1.633-.418a7.552 7.552 0 00-1.477-1.559c-1.058-.875-4.84-2.117-1.738-2.973-1.414-.718-3.09-1.656-4.707-1.707-.32-.011-1.062.149-1.297-.046-.008-.114.016-.153.09-.23.332-.345 1.04-.665 1.484-.833.368-.477.77-.797 1.258-1.144-.844-.551-3.992-2.172-4.918-1.981-.414.086-1.129.645-1.512.52-.101-.094-.101-.09-.117-.227.215-.613.899-1.04 1.406-1.398-1.515-.54-4.511-1.051-5.968-.317-.43.192-1.09 1.239-1.477 1.07-.074-.105-.09-.152-.074-.28.074-.583.52-1.286.875-1.743.11-.184.586-.52.473-.73l-.141.003a55.322 55.322 0 00-11.715 4.31l.137.405c3.492-1.71 7.43-.199 10.789 1.137z"
    fill="#3d3c3c" />
</svg>