<svg viewBox="18.423 17.473 63.466 65.606" width="63.466" height="65.606" xmlns="http://www.w3.org/2000/svg">
  <path
    d="M54.129 17.473c-.996.012-2.094.34-2.856.816-.777.48-1.511 1.32-1.937 2.122-.898-.422-1.715-.829-2.727-.485-.683.235-1.125.7-1.543 1.262-.828-.238-1.558-.352-2.351.09-1.766.984-2.754 3.964-3.242 5.82a16.54 16.54 0 00-.5 2.969c-1.34-1.649-3.25-2.98-5.41-3.207-1.18-.121-2.282.273-3.192 1.02-1.016.827-2.191 2.234-2.606 3.488 1.063-1.524 2.872-3.508 4.77-3.836.71-.121 1.332.023 2.008.218-1.684.336-3.535 2.625-4.45 4-.038.059-.078.118-.113.18-.691-.332-1.37-.605-2.136-.324-.602.223-1.102.73-1.47 1.242-1.16.004-1.933.25-2.757 1.086-2.297 2.32-2.496 7.219-2.473 10.328.004.312.012.621.055.93.32-2.477.703-6.172 1.742-8.39.274-.575.621-1.083 1.012-1.583-.176 1.078-.035 2.106-.066 3.18-.016.508-.165 1.02-.141 1.523.031.543.191 1.09.355 1.606.036-.45.075-.899.098-1.348.129.7.2 1.41.02 2.102-.067.257-.172.492-.223.753-.336.168-.684.333-.98.563-.626.492-1.114 1.152-1.688 1.71-.512.493-1.137.895-1.566 1.474-.305.406-.512.898-.672 1.375-.657 2.007-.774 5.246-.586 7.343l.02-.093c.077-.387.081-.809.113-1.203.058-.684.14-1.356.285-2.024.09-.422.203-.84.367-1.238.234-.57.566-1.094.851-1.64.528-1.024.868-2.122 1.696-2.966-.883 1.754-.91 4.27-1 6.2-.043.863-.106 1.703-.09 2.57.11-.441.394-1.898.664-2.168l.027.02c-.113.761-.402 1.554-.523 2.34-.719.687-.828 1.898-.844 2.835a8.763 8.763 0 00.137 1.63c.187-.731.387-1.45.64-2.165v.078c.012.797-.128 1.594-.144 2.387-.024 1.187.21 2.508.473 3.664.011-.406-.008-.828.03-1.234.063-.598.188-1.184.216-1.786.043-.883-.024-1.765.035-2.648.07.258.137.523.215.781.183-1.39-.082-2.742.078-4.117l.273.93c.004-.852-.074-1.715-.043-2.563.121.567.18 1.145.246 1.723.59-1.77-.343-2.781.711-4.664.008.613.035 1.23.032 1.844.378-1.086.09-2.204.753-3.2a8.631 8.631 0 00-.425 2.313c.304-.621.625-1.235.953-1.844-.028.957-.281 1.863-.348 2.813l.531-.95c-.074.797-.386 1.547-.484 2.344.164-.308.281-.61.39-.941a71.297 71.297 0 01-.288 2.719c-.086.718-.207 1.43-.223 2.156l.34-.64c0 1.73.09 4.25.62 5.894-.155-2.504-.331-4.985-.085-7.493.125.532.336 1.012.578 1.496.023-.468.047-.937.094-1.402.12.578.238 1.11.48 1.656-.273.907-.41 1.75-.469 2.692.508-.973.836-1.961 1.2-2.989.156 1.106.191 2.231.214 3.344-.687 1.125-.933 2.297-1.195 3.574l1.188-1.796c-.02.77.02 1.605-.11 2.363-.066.383-.312.73-.433 1.098-.239.726-.336 1.515-.453 2.265.355-.582.625-1.207.968-1.797.063 1.414-.18 2.817-.156 4.223.02 1.137.317 2.441.524 3.57.05-1.062-.149-2.105-.133-3.156.011-.746.207-1.477.265-2.215.078-.949.024-1.902.028-2.855.203.644.332 1.3.437 1.965.223-.887.375-1.934.043-2.817-.097-.258-.305-.523-.344-.797-.105-.75-.011-1.89.04-2.664.3.617.578 1.328.98 1.883-.086-.766-.133-1.602-.41-2.324-.14-.367-.43-.707-.52-1.082-.172-.711-.105-1.473-.195-2.195.344.722.68 1.445 1.008 2.171 0-.902-.149-1.726-.485-2.566-.164-.41-.359-.816-.468-1.242-.16-.66-.102-1.363-.203-2.035.23.441.457.87.746 1.277-.145-.852-.536-2.27-.551-3.035-.008-.574.113-1.153.219-1.715.109.422.238.734.492 1.094-.078-.524-.16-1.047-.168-1.578.054.175.105.496.246.613.074-.14.066-.313.082-.469-.035-.46-.137-1.015.055-1.453l.078-.05c.164.183.164.546.156.784-.012.344-.027.774-.125 1.102-.137.977-.191 1.91-.172 2.895.145-.313.277-.63.406-.95l.02.246c.05.504-.031 1.004-.059 1.504-.043.73-.054 1.477.008 2.203.102-.265.152-.515.281-.777.102.606.246 1.184.442 1.77a38.553 38.553 0 01-.137-2.223c.129.484.3.941.496 1.402.02-1.05-.266-1.973-.402-2.992-.098-.719-.051-1.652-.094-2.398.203.562.434.988.781 1.476-.062-.426-.09-.836-.207-1.254-.199-.722-.52-1.394-.683-2.133.492.672.836 1.32 1.03 2.13.11-.364.204-.723.118-1.102-.266-.633-.484-1.278-1.012-1.746.375.004.75 0 1.125-.012-.16.586-.152 1.094-.058 1.687.066.293.18.567.246.86l.066-.766.031-.023c.075.398.063.8.137 1.203.02-.285.016-.684.137-.938l.035-.004c.035.43.074.856.121 1.282.082-.598.2-2.38.563-2.766.011.027.02.059.03.09l.056.125.05-.223c.118.281.258.555.391.832.02-.093.004-.117-.012-.207-.054-.285.063-.57.149-.844.047.56.105 1.118.09 1.676-.036 1.172-.368 2.836-.645 3.98.129-.257.246-.534.406-.773l.086-.023c.047.125.035.25.035.383.254-.504.344-1.16.485-1.711.117-.434.265-.863.39-1.297.094 1.031.055 1.715-.316 2.691-.164.133-.32.27-.492.39-1.336 1.392-2.04 3.462-2.008 5.364.004.278.02.559.066.828.098-.472.18-.953.38-1.394.113.953-.032 1.941-.055 2.898-.032 1.297.074 2.586.25 3.867.117-.828.027-1.734.035-2.574.012-1.015.101-2.02.191-3.03.125-1.415.098-3.048.938-4.263-.028.442.02.883 0 1.325l.047.027c.273-.465.25-1.078.363-1.598.047-.21.14-.418.226-.617a14.624 14.624 0 00-.171 1.703c-.02.496.02 1.05-.079 1.535-.062.317-.28.602-.402.895-.402.969-.59 1.953-.656 2.996.379-.672.695-1.371 1.105-2.023-.02.843.13 2.183-.172 2.925-.32.778-.32 1.86-.226 2.684.25-.633.445-1.262.598-1.93.07.574.199 1.2.187 1.774-.004.46-.094.922-.156 1.379a7.024 7.024 0 00.117 2.539c.074-.672.18-1.332.348-1.989.144 1.203.312 2.414.382 3.621.059 1.075.008 2.153.11 3.223.36-2.062.222-4.879-.074-6.941.238.574.46 1.176.754 1.719-.06-.622-.086-1.262-.29-1.86-.187-.547-.464-1.074-.613-1.637-.133-.503-.094-1.043-.187-1.558.386.566.66 1.16.988 1.754-.184-1.063-.328-2.258-1.078-3.098a32.317 32.317 0 01-.094-3.137c.32.825.512 1.715.918 2.5-.047-1.004-.117-1.988-.39-2.957-.118-.422-.364-.82-.422-1.254-.082-.605-.008-1.257.015-1.867.332.778.524 1.633.742 2.446.125-1.438-.035-2.946-.144-4.383.187-.102.375-.215.57-.301-.035.469-.082.941-.086 1.414.227-.48.364-.996.496-1.508l.395-.203c-.14.586-.23 1.23-.43 1.797-.125.356-.375.684-.46 1.05-.177.798-.145 2.224-.122 3.071.36-1.043.543-2.176.75-3.262.016.66.004 1.332.086 1.985.102.777.293 1.547.32 2.332.149-1.02.024-2.02.082-3.04.164 1.095.23 2.294.653 3.325.015-.621.11-1.242.105-1.86-.02-1.488-.465-1.359.09-3.05.02.633-.043 1.27.035 1.894l.004.043c.172-.601.227-1.25.324-1.867.09.39.192.777.305 1.16-.46 1.184-.523 2.656-.289 3.903.102-1.118.246-2.114.793-3.11-.086.57-.16 1.117-.137 1.695a3.13 3.13 0 00.313-.957c.004-.035.015-.062.027-.097.055.113.043.191.016.343-.082.41-.23.82-.348 1.223-.238.805-.246 1.504-.184 2.332.02-.293.028-.586.07-.875.063.66.188 1.305.305 1.957.086-.5.125-1.008.176-1.515l.016.003c.023.196-.02.47.035.645.113-.387.129-.754.145-1.152l.015.082c.063.375-.004 1.293.133 1.566l.004-.09c.012-.175.047-.347.078-.52.133.876.004 1.747-.004 2.63-.008.812.09 1.664-.016 2.468.59-1.656.286-3.722.715-5.484-.011.2-.09.524-.011.707.09-.058.086-.09.109-.187.055-.235.062-.489.082-.727.176.414.371.813.633 1.184-.024-.61-.113-1.215-.207-1.813-.254-.824-.656-1.476-1.16-2.164l.043-.5c.492.746.84 1.625 1.418 2.305l.082-.004.046-.05c-.113-1.25-.656-2.337-.847-3.56.164.48.406.942.617 1.407a6.819 6.819 0 00-.25-1.375c.246.445.39.91.516 1.402.09-1.504-.286-2.55-.762-3.934l.086.016c.847.164 1.672.656 2.156 1.383-.273 1.8-.547 2.117.063 3.972-.067-.625-.094-1.359-.008-1.984.074.168.05.422.058.61l.34-1.254c.082.336.125.68.18 1.02.152-.595.105-1.208.144-1.817.438 1.425.426 4.804.22 6.308.804-1.644.745-3.433.722-5.215.515.672.976 1.418 1.422 2.141 1.11 1.797 2.242 3.672 2.511 5.805.27 2.16-.535 5.172-.847 7.383-.282 2.003-.352 3.992-.266 6.011-2.836.32-5.308.887-7.797 2.36-.633.37-1.238.75-1.793 1.226 3.242-.843 6.477-1.23 9.824-1.086a8.4 8.4 0 00-2.171 1.825c2.632-1 5.625-1.457 8.39-.801.84.203 1.649.554 2.492.781-.215-.777-.699-1.18-1.336-1.605.598-.063 1.196-.137 1.797-.133 1.895.015 4.137.547 5.973 1.011-2.043-2.058-5.848-3.195-8.68-3.457a40.316 40.316 0 01-.379-.953c-1.187-3.152-1.273-6.332-.933-9.648.125-1.238.328-2.473.336-3.715.008-1.152-.239-2.207-.407-3.336-.332-2.187-.027-4.554.887-6.57.742-.387 1.57-.567 2.309-.957.683-.36 1.242-.899 1.898-1.3l.063-.04c.285.012.597.004.875.07.957.239 1.918 1.442 2.664 2.102-.227-.352-.488-.684-.738-1.023-.614-.833-1.09-1.356-2.082-1.723.171-.18.347-.356.523-.535.578-.578 1.148-.903 1.984-.899 1.016.008 1.618.516 2.282 1.2-.227-.41-.5-.797-.872-1.094-.402-.32-.882-.508-1.382-.625-1.985-.457-2.403 1.078-3.883 1.843-.73.383-1.598.465-2.406.547.457-.851 1.773-2.988 2.394-3.632.996-1.028 3.004-2.176 4.305-2.801.289.136.566.336.844.492.422.242.859.457 1.297.668-.032.906 0 1.773.078 2.672.082-.742.273-1.543.515-2.254.32 1.215-.246 2.262-.445 3.445-.105.625-.082 1.195-.016 1.824.13-.816.375-1.574.618-2.363.003 1.277-.372 2.488-.387 3.754.199-.316.355-.668.52-1.004-.122.578-.239 1.168-.387 1.742-.309 1.164-.63 2.07-.461 3.29.097-.653.34-1.188.617-1.778-.05.867-.34 1.652-.574 2.48-.309 1.079-.371 2.294-.118 3.391.157-.957.305-1.957.653-2.867.246.926.183 2.012.215 2.973.043 1.254.093 2.48.261 3.726.106-1.066.09-2.144.145-3.21.058-1.118.215-2.282.144-3.395.157.398.254.82.368 1.234-.004-1.027-.18-1.804-.243-2.78-.027-.423 0-.849.016-1.267.164.348.285.723.418 1.082l-.102-.046.118.086.03-.008c.302-.64-.316-2.414-.405-3.156-.082-.743-.082-1.504-.114-2.25.336.574.57 1.14.793 1.757-.03-1.257-.57-2.386-.742-3.617.285.52.485 1.055.676 1.613-.004-.609.012-1.238-.121-1.835-.11-.473-.285-.934-.363-1.41-.106-.614-.098-1.27-.13-1.887.333.64.641 1.234.883 1.922 0-1.07-.164-2.051-.847-2.895a98.49 98.49 0 01-.024-2.148c.243.527.426 1.035.563 1.601.133-.883 0-1.601-.258-2.449.461-.258.992-.527 1.496-.691.149-.047.313-.082.453.011.176.125.223.399.254.598.172 1.21-.347 1.848-.492 2.96-.07.556-.012 1.095.098 1.641 0-.02.004-.039.007-.054l.02-.094c.137-.727.492-1.469.723-2.176.246 1.645-.266 2.446-.578 3.938-.145.695-.176 1.418-.18 2.129l.836-2.04c-.008.536-.024 1.051-.156 1.575-.176.676-.48 1.316-.532 2.027-.011.184-.035.5.094.648.156-.195.234-.738.387-1.015.008-.02.02-.04.031-.059-.031 1.442-.562 2.246-.89 3.531-.15.59-.165 1.235-.223 1.84.23-.672.554-1.308.875-1.945-.063.523-.098 1.062-.215 1.574-.27 1.172-.645 2.117-.547 3.356.2-.504.379-1.004.7-1.446-.04.473-.067.957-.177 1.418-.12.493-.316.961-.414 1.461-.144.758-.117 1.531-.074 2.297.133-.691.29-1.328.653-1.933.007 2.023-.153 4.046.265 6.046.145-.886.086-1.843.129-2.742.05-1.164.227-2.36.125-3.523.242.465.387.945.531 1.445.082-1.023-.207-1.875-.367-2.87-.086-.536-.09-1.09-.101-1.634.32.508.554 1.047.773 1.602.008-1.14-.422-2.09-.625-3.184-.113-.61-.086-1.27-.102-1.89.364.57.606 1.207.977 1.77-.082-.544-.152-1.102-.266-1.641-.117-.547-.293-1.082-.367-1.641-.09-.676-.07-1.383-.05-2.066.3.546.546 1.109.788 1.683.004-1.043-.304-1.969-.464-2.984-.106-.692-.079-1.43-.09-2.133l.168.289c.324.54.433 1.094.617 1.691.059-.98-.027-1.812-.324-2.757-.094-.286-.278-.567-.325-.864-.148-.922.024-2.023.083-2.96.433.89.703 1.097.957 2.12.02-.671 0-1.355-.227-2-.285-.808-1.172-1.636-1.227-2.445l.086-.09c.371.047.543.375.86.5l.023-.214c.176.234.395 1.136.512 1.457.027-.274.031-.551.043-.825.203.559.414 1.114.531 1.696.145.726.152 1.511.227 2.25.082-.7.214-1.418.261-2.121 0-.059-.004-.118.012-.172a.416.416 0 00.004-.157c.3.563-.18 2.856-.273 3.559-.075.606-.145 1.207-.153 1.82.293-.648.555-1.28.754-1.96-.031 1.003-.305 1-.476 1.773-.13.586.043 2.05.128 2.676l.149-1.559c.055.516.16 1.098.058 1.613-.113.586-.449 1.14-.593 1.735-.215.886-.266 1.73-.305 2.636.203-.699.523-1.39.871-2.03.016.468.05.933-.05 1.394-.215.96-.794 1.707-.825 2.734-.004.172-.027.379.008.555.023.11.055.281.152.347.274-.414.278-.953.586-1.378.008-.016.024-.032.035-.047-.074.46-.05.933-.132 1.39-.207 1.145-.63 1.98-.364 3.172.078-.445.137-.84.399-1.222-.016.46-.02.917-.11 1.37-.105.524-.277 1.028-.347 1.563-.055.426-.024.875-.016 1.305.078-.258.16-.676.367-.852l.063.02c.129.492.05 1.445.066 1.98.04 1.461.094 3.242.356 4.672.039-.953.101-1.906.187-2.855.047-.567.125-1.14.137-1.707.015-.856-.16-1.723-.156-2.586.343.64.562 1.347.796 2.035.083-.953-.066-1.867-.328-2.785-.12-.438-.277-.88-.336-1.332-.046-.344-.023-.7-.011-1.043.308.37.566.754.82 1.16-.133-.89-.41-1.742-.55-2.625-.114-.695-.102-1.426-.102-2.133.414.688.73 1.469 1.074 2.195-.067-.824-.125-1.671-.352-2.472-.16-.574-.433-1.114-.543-1.703-.117-.645-.109-1.344-.117-2 .238.656.613 1.28.91 1.914a13.435 13.435 0 00-.3-1.88c-.395-1.605-.72-2.151-.56-3.933.415.594.794 1.203 1.192 1.805-.105-.566-.214-1.129-.414-1.672-.199-.539-.46-1.062-.613-1.621-.11-.402-.086-.902-.145-1.324.668 1.039.833 1.683 1.258 2.793-.078-.754-.152-1.524-.34-2.258-.203-.79-.89-1.832-.785-2.629.043.16.09.324.137.484l.047.004c.07-.32-.05-.62-.078-.937-.016-.18.011-.375.031-.55.21.425.473.82.66 1.26.09.216.133.45.211.673.043-1.559-.426-2.63-1.402-3.817.476.074.969.106 1.453.16-.004 1.176.035 2.016.308 3.16-.003-.335-.007-.667.028-1.003.113.25-.024 2.644.035 3.234.129-.914.293-1.808.469-2.715.136.7.25 1.582.07 2.278-.168.64-.402 1.238-.496 1.898-.09.648-.004 1.332.043 1.984.215-.785.465-1.543.738-2.308.004.387.012.762-.039 1.144-.094.743-.402 1.614-.285 2.352a.57.57 0 01.25-.14c.039.042.016.124.008.171-.07.57-.285 1.13-.434 1.684-.219.844-.316 1.765-.347 2.636.164-.699.433-1.332.738-1.976-.09.766-.055 1.555-.07 2.328-.016.973-.086 1.965-.012 2.934.262-1.86.457-3.676.476-5.555.207.766.493 1.71.899 2.394-.156-.726-.113-1.453-.207-2.183-.063-.453-.188-.903-.266-1.356a11.646 11.646 0 01-.16-1.601c.316.55.441 1.168.75 1.726a7.148 7.148 0 01-.082-1.5c.043.29.09.57.148.852-.023-.692-.148-1.332-.312-2.016-.09-.367-.207-.761-.234-1.14-.032-.438.015-.875.015-1.313-.004-.43-.133-2.379.094-2.644.027.59 0 1.203.164 1.773.008.027.016.055.023.086.04-.285.067-.57.094-.855.094.3.133.625.215.933.121.457.281.906.437 1.356-.015-1.301-.066-2.875-.457-4.13.145.22.274.493.489.641l.07-.03c.09-.325-.016-.794-.066-1.122.683 1.445.183 1.984.234 3.488.133-.363.258-.73.379-1.097.059 1.386-.48 2.265-.328 3.777.144-.473.25-.961.472-1.41.067.636.075 1.332.008 1.972.114-.293.149-.578.227-.875.094.149.09.317.097.493.165-.422.282-.868.407-1.305.058.2.144.445.12.652-.034.371-.25.742-.405 1.074-.41.871-.618 1.852-.461 2.813a19.31 19.31 0 01.863-1.926c-.04.84-.281 1.192-.516 1.953-.23.746-.191 1.727-.078 2.496L76 56.06c.187-.692.32-1.438.703-2.051.027.848-.043 1.535-.567 2.238-.773 1.27-.796 2.508-.914 3.957.254-.61.512-1.453.918-1.96.09-.114.18-.196.325-.216l.015.106-.058-.059c-.028.055.062.075.047.168-.067.512-.094 1.031-.18 1.54-.09.5-.29.937-.469 1.406-.332.863-.41 1.753-.309 2.671.188-.496.434-.93.711-1.378-.03 1.832.086 3.656.149 5.488.031.848.015 1.691.027 2.539l.047-.027c.125-1.57.379-3.13.469-4.703.07-1.196 0-2.375-.012-3.57.3.57.54 1.124.684 1.753.02-.691.02-1.367-.09-2.05-.098-.622-.313-1.212-.438-1.821-.117-.59-.129-1.219-.136-1.82.414.593.656 1.215.906 1.89.012-.656.055-1.328-.04-1.976-.23-1.59-.671-2.016-.472-3.793.227.652.504 1.265.836 1.87-.082-.632-.101-1.276-.234-1.901-.235-1.098-.782-1.895-.594-3.07.332.573.492 1.218.71 1.847.067-.422.142-.828.138-1.254-.051-.387-.063-.785-.153-1.164-.105-.441-.293-.863-.379-1.305-.07-.355-.062-.734-.093-1.094a12.59 12.59 0 00-.192-1.21c.254.507.39 1.128.578 1.671.059-.382.082-1.835.235-2.054l.07.05c.816 1.848.133 2.575.05 4.407l.06 1c.007-.008.011-.02.015-.032.305-.628.445-1.328.711-1.976.055.914.023 1.765-.152 2.672-.121.636-.293 1.27-.383 1.918-.074.531-.074 1.074-.086 1.61l.012-.028c.191-.434.257-.89.421-1.324.036-.09.02-.098.106-.137l.074.277c.028-.129.047-.25.059-.379.074.094.086.344.11.465l-.005-.066.008.07c.11-.223.082-.914.117-1.207.219.988.067 2.023.094 3.031.016.844.066 1.684.148 2.52.082.84.2 1.672.352 2.5.066-1.137.223-2.274.258-3.41.047-1.391-.067-2.797-.11-4.192.196.621.278 1.254.399 1.895.02-.383.015-.762-.004-1.137-.02-.379-.063-.758-.125-1.133-.188-1.176-.488-2.152-.246-3.367.035.469.098.922.219 1.375.027-.543.054-1.078-.012-1.621-.078-.64-.29-1.238-.469-1.856-.336-1.129-.644-2.172-1.148-3.238.187.207.406.395.613.59-.102-.3-.223-.594-.34-.887-.387-.683-.949-1.27-1.379-1.926a50.524 50.524 0 00-.207-3.168c.309.72.465 1.415.543 2.188l.192-.719c.238.57.273 1.195.39 1.801.11.562.278 1.098.489 1.633.175-.23.14-.504.105-.781-.066-.52-.203-1.032-.258-1.555.156.387.301.777.473 1.156.039-1.27-.254-2.215-.703-3.39.3.456.62.906.879 1.39 1.203 2.262 1.949 5.172 2.355 7.707.14-2.184-.305-4.336-.86-6.434-.175-.683-.343-1.394-.644-2.035a4.258 4.258 0 00-.71-1.074c-.618-.707-1.4-1.203-2.317-1.41-.348-.074-.723-.117-1.035-.297-1.016-.594-1.344-2.023-2.977-2.125-.766-.05-2.969.578-3.496-.008-.395-.441-.328-1.336-.312-1.887.14.426.285.84.48 1.25 0-1.613-.227-2.382-.938-3.82-.164-.336-.355-.672-.496-1.02-.183-.449-.226-.953-.375-1.417.598.77.934 1.793 1.426 2.636-.215-1.758-.156-3.097-1.664-4.277-.14-.11-.281-.219-.43-.324-.558-1.52-1.441-3.383-2.996-4.114-.668-.312-1.492-.375-2.117-.746-.281-.168-.488-.484-.746-.691-1.023-.828-2.098-.852-3.344-.691-.754-1.23-1.726-3.02-3.234-3.395a4.136 4.136 0 00-.95-.101zM74.391 52.43c.004.023.004.043.004.066 0-.007.004-.011.004-.02 0-.015-.004-.03-.008-.046zm.004.066c-.008.055-.027.067-.082.114l.09.03c0-.05-.008-.097-.008-.144zm-19.93-34.254c.402-.004.797.047 1.164.243 1.02.53 1.613 1.789 1.918 2.84-.043.203-.086.413-.148.613-.036.117-.079.234-.192.297l-.148-.082c-.442-.391-1.04-.684-1.438-1.102-.187-.195-.265-.527-.406-.762-.531-.89-1.324-1.523-2.242-1.96a24.9 24.9 0 00.761-.048c.243-.02.489-.039.731-.039zm-2.441.352c.195.05.386.102.574.16 1.004.313 1.605 1.016 2.078 1.918-.594-.156-1.172-.3-1.781-.351-.98-.098-1.957.054-2.93.148.562-.77 1.23-1.406 2.059-1.875zm-1.383 2.977c.215-.004.43.015.593.168.204.187.22.52.235.777-.383-.297-.742-.621-1.117-.93.093-.004.191-.012.289-.015zm1.336.003c.586.012 1.148.051 1.714.172-.03.239-.101.547-.074.782.016.117.035.129.121.203.2 0 .364-.14.524-.246a2.59 2.59 0 01.152-.41c.106-.07.113-.083.242-.075.239.176.266.39.309.672a9.652 9.652 0 00-.57.281c-.59.375-1.086.907-1.508 1.457l-.809-1.152a8.112 8.112 0 00-.101-1.684zm-4.094.493l.031.039c.027.453.094.883.2 1.324-.438 1.148-.614 1.102-.567 2.469l.039.035c.258-.293.434-.86.598-1.227.039.489.058.98.132 1.465.063.426.188.848.262 1.27.094.515.117 1.058.133 1.578.023.996-.238 1.953-.238 2.933.004.438.066.883.105 1.317.113 1.218-.094 2.152-.64 3.25-.516-1.02-.739-2.23-.57-3.364.07-.468.202-.925.284-1.39a4.389 4.389 0 00-.586.781c-.718 1.262-.722 2.824-.246 4.168.22.621.524 1.207.696 1.844.351 1.3.28 3.629-.395 4.816-.41-.847-.773-1.715-1.164-2.574-.578-1.27-1.133-2.441-1.629-3.754-.14-.375-.367-.82-.441-1.21-.024-.153-.012-.321-.004-.473.008-.7.004-1.676.14-2.344.079.113.122.234.168.355.125-.328-.226-1.793-.257-2.219-.047-.636-.02-1.285-.02-1.921.266.902.34 1.777.496 2.699.106-.285.223-.563.414-.801-.32 1.723-.11 4.082.106 5.82.246-.91.379-1.875.422-2.82.027-.606 0-1.2.105-1.8.121.089.07 1.894.164 2.202l-.004-.129c.05-.058.047-.254.059-.34.12-.84.16-1.722.136-2.57-.02-.754-.09-1.52-.05-2.273.035-.703.222-1.422.293-2.133.394.813.562 1.707.89 2.54l-.023-.153.023.023c-.144-1.082-.27-2.148-.32-3.238.348.906.375 2.059.687 2.781a20.656 20.656 0 00-.05-1.902c-.078-.942-.371-2.192-.172-3.098.144-.68.512-1.344.793-1.976zm1.765.617c.551.492.848 1.43 1.2 2.078.043-.344.066-.68.082-1.027.18.289.375.562.507.879-.043.441-.136.886-.195 1.332-.094.695-.133 1.437-.367 2.101-.164.473-.426.903-.66 1.34-.446.832-.59 1.57-.684 2.5.137-.309.219-.606.293-.934l.067-.027c.003-.008.003-.012.003-.02l.004.016.008-.004.012.067-.02-.063-.007.004c-.024.184-.02.367-.024.555.211-.535.43-1.067.695-1.578.29-.555.637-1.098.86-1.684.34-.922.433-1.984.652-2.945.617 1.59.024 2.304-.27 3.836-.054.324-.09.652-.128.976.218-.437.441-.87.718-1.273-.039 1.39-.035 2.75.008 4.14-1.078.77-1.922 1.782-2.965 2.59.028-.562.145-1.117.094-1.68-.047-.503-.199-1.007-.304-1.5a9.412 9.412 0 01-.2-1.55 29.505 29.505 0 010-2.563c.016-.555.07-1.117.024-1.668-.07-.851-.63-1.793-.426-2.633l.055-.015c.28.308.574.566.73.965-.043-.797.074-1.442.238-2.215zm9.29.117c.863 1.04.62 2.293.613 3.527-.047-.054-.035-.03-.059-.093-.129-.383-.258-.707-.496-1.036-.043-.691-.207-1.726-.058-2.398zm-3.985.086l.098.059c.086.214.16.453.261.656.137.285.403.543.477.851.14.567-.293 1.446-.398 2.028a4.163 4.163 0 00-.043 1.144c.101-.472.293-.879.496-1.316.054.469.058.906.023 1.375-.047.601-.566 3.742-.383 4.054h.09c.403-.687.352-1.718.793-2.453.012-.015.024-.03.035-.05l.012.074c.121.695.191 2.363.125 3.035l-.078.055c-.149.02-.223.031-.367-.028-.067-.16.125-.754.156-.976-.137.293-.285.574-.438.86l-.035.023c-.175-.016-.468-.211-.64-.293l-.028-.055c-.218-.395-1.226-3.621-1.293-4.09.157.227.328.445.496.668-.414-.976-1.05-1.808-1.343-2.832.672.758 1.175 1.637 1.543 2.582.02-.047.043-.09.05-.14.125-.82-.8-2.454-1.347-3.055.383-.957.875-1.613 1.738-2.176zm1.129.137c.598.43.93 1.648 1.242 2.308.16.34.344.668.531.992-.058-.535.028-1.039-.093-1.57.21.242.476.5.562.817.211.793.121 3.027.137 3.937.016 1.219.14 2.52.367 3.715.04.203.074.683.203.844l.067-.082-.075-.032.008-.12.051.066h.047c.16-.493.348-.97.488-1.47.04 1.208-.246 2.337-.508 3.505-.129-.258-.277-.504-.422-.754-.285-.477-.675-.977-.894-1.488-.172-.41-.074-.852-.168-1.274-.14-.637-.484-1.199-.637-1.82-.136-.55-.062-1.219-.054-1.79.402.954.632 1.778.453 2.81.23-.598.312-1.2.328-1.837.031-1.14-.227-2.007-1.02-2.843l-.117-1.582c.305.289.582.62.871.925-.02-.05-.047-.097-.07-.144-.184-.387-.453-.691-.7-1.035-.433-.606-.48-1.364-.597-2.078zm-14.391.304c.04.313-.148.72-.187 1.04-.125 1.039-.192 2.101-.118 3.144.192-1.129.368-2.379 1.028-3.344.011.645.086 1.305.02 1.945-.075.723-.274 1.418-.423 2.13-.18.828-.312 1.663-.398 2.507-.086.668-.074 1.367-.113 2.04-.641-.844-1.56-1.704-2.286-2.489.375-2.262 1.27-5.035 2.477-6.973zm23.246 1.266c.102.059.203.117.305.18 1.09.691 1.195 4.664 1.496 6.007.164-1.152.062-2.421.012-3.582.953 1.56 1.023 4.688 1.019 6.508-.004.672-.059 1.34-.035 2.016.363-1.399.43-2.774.523-4.203.485 1.351.27 2.824.688 4.176 0-.692.02-1.372.097-2.055.141.902.141 1.781.157 2.691-.864.063-1.684.207-2.453.617-.598.32-1.157.825-1.575 1.352-.168.215-.304.469-.488.668-.082.09-.113.106-.223.129-.078-.133-.058-.238-.058-.39-.031-.5-.379-1.243-.215-1.723l.05.05c.098.414.364.954.606 1.301l.035.059c.059-.617.016-1.297-.175-1.89-.102-.31-.172-.5-.477-.653a7.46 7.46 0 01.008-1.477c.098.38.164.805.398 1.125l.04-.02a.7.7 0 01-.012-.238c.222.395.312.836.43 1.262.117-1.164-.036-2.183-.364-3.305-.172-.578-.508-1.07-.453-1.699.215.192.18.645.27.903.046-.22.015-.442.003-.66.172.601.395 1.203.618 1.789.043-1.301-.262-2.473-.454-3.739-.113-.75-.14-1.508-.261-2.254-.117-.703-.406-1.285-.27-2.004.895 1.11.957 2.54 1.563 3.766-.106-1.254-.387-3.582-.805-4.707zm-20.484.148c.207 1.02.344 2.016.098 3.055l-.078.012c-.18-1.274-.555-1.758-.02-3.067zm17.031.43c.008.004.008.008.012.012.75.652.968 2.113 1.058 3.055-.297-.707-.644-1.301-1.082-1.93 0-.38.008-.758.012-1.137zm-2.41 1.465c.195.246.3.66.414.96-.14.282-.254.56-.356.856v.078l-.046.036-.008-.047h-.004l.004.101-.04-.086.036-.015v-.024l-.04-.015c-.019-.618-.007-1.23.04-1.844zm0 1.86l-.004-.024zl.004.023.031-.012zm-6.008-.637c.223.734.234 1.343.152 2.109l.301-.82c.328.523.274 1.277.344 1.875.05.12.07.258.187.316.063-.18.028-.426.13-.57.507.437.378 1.504 1.34 1.566.12.008.245.016.366.031-.527.067-1.062.118-1.59.2-.214-.473-.347-.97-.468-1.473a2.882 2.882 0 00-.067-.164c-.175-.442-.449-.824-.742-1.2a6.978 6.978 0 01.047-1.87zm9.86.175c.14.633.046 1.348-.012 1.989l-.125-.5a3.776 3.776 0 01-.18-1.016c.078.133.09.32.121.473zm-1.618.293c.133.832.219 1.59.164 2.434.258-.645.293-1.523.25-2.21.848 1.483.711 1.542.946 3.253.097-.45.07-.914.082-1.371.257.879.03 1.207-.079 2.062-.046.356-.035.715-.03 1.075.206-.63.34-1.258.613-1.864.054.524.183 1.149.105 1.668-.055.352-.211.711-.32 1.047-.438 1.34-.461 1.992.015 3.32-.195-1.156.035-1.757.469-2.816.004.848.05 1.73-.043 2.57-.035.317-.187.594-.246.907-.152.824-.191 1.668-.203 2.504-.469.628-1.07 1.695-1.61 2.187-.457.418-1.199.676-1.746.969-1.101.597-2.199 1.234-3.316 1.8-.05-.996.027-2.011.082-3.007.066-1.133.11-2.27.133-3.403.012-.757-.203-1.675-.14-2.363.05-.574.21-1.144.32-1.71.12-.65.199-1.302.261-1.954l.051-.043c.145.028.203.043.32.145l.02.09c.2.742 1.125 2.12 1.566 2.828 0 .379-.008.59.246.886.024.368-.215.828-.343 1.168.347-.457.652-.882.875-1.414-.004.375.003.766-.059 1.13-.082.464-.238.917-.309 1.386-.07.469-.074.957-.109 1.43.227-.516.461-1.032.695-1.543-.004.574.051 1.144.04 1.718-.012.754-.098 1.508-.098 2.266.718-1.504.515-2.176.644-3.719.18.582.227 1.227.25 1.832.66-1.504-.172-2.805-.222-4.242.316.68.593 1.25.644 2.012.168-1.082-.031-2.059-.05-3.125-.012-.54.074-1.075.003-1.61-.031-.261-.12-.496-.218-.738.144.094.292.187.43.297a13.092 13.092 0 01-.02-1.465c.215.387.918 1.988 1.125 2.16.062-.058.043-.023.05-.12.036-.852-.691-2.673-1.105-3.462-.277-.46-.168-2.351-.133-2.965zm-26.145.059c1.117.086 1.895.922 2.656 1.652-.742-.18-1.41-.27-2.144-.008l-.613-.218c-1.055-.34-1.743-.313-2.805-.043l.027-.028c.426-.39 1.367-1.16 1.985-1.132l.015.113c.301-.125.559-.262.88-.336zm24.426.164c.082.305.137 2.863.078 3.152-.078.399-.316.844-.488 1.215l-.043-.027c-.066-.38-.078-.778-.125-1.16-.2-1.625-.047-1.711.578-3.18zM43.05 29.723c.426 1.254-.46 2.695-.52 3.965-.003.117 0 .129-.058.234l-.242-.379c.004-1.004-.137-2.398.383-3.293.113-.191.285-.363.437-.527zm-9.746.305c.586-.012 1.106.136 1.664.367-.004 0-.012.008-.02.012-.722.375-1.706 1.152-2.085 1.894-.051.098-.082.164-.16.242h-.149c-.719-.023-1.441.02-2.086-.347.094-.18.211-.348.328-.512.598-.848 1.188-1.457 2.25-1.64.09-.009.176-.016.258-.016zm3.274.543c.062 0 .128 0 .187.003 1.234.079 2.219 1.055 2.996 1.91-.887-.495-1.687-1.429-2.781-1.363-1.078.309-1.55 1.008-2.188 1.86-.156-.028-.34-.04-.48-.11-.066-.027-.066-.015-.078-.078-.086-.383.226-1.02.453-1.316.437-.578 1.012-.793 1.703-.895a1.51 1.51 0 01.188-.011zm16.523.914c.16.265.226.777.242 1.09-.102.019-.168.038-.266-.004-.16-.293-.027-.766.024-1.086zm-15.852.492c.03.004.082.008.117.02.238.07.508.285.718.421 1.262.813 2.57 1.836 3.391 3.11-.43-.172-.863-.317-1.3-.47-1.595-.472-3.09-1.234-4.665-1.78.633-.387 1.063-.965 1.738-1.301zM56.1 33.239c.023.011.042.019.066.027.117.062.164.133.2.258.257.988-.802 2.644-.962 3.656-.125.824-.078 1.68-.11 2.508-.062 1.68-.335 5.867-.972 7.332-.246.566-.765 1.039-1.152 1.515-.438.54-.863 1.094-1.277 1.653-.508.683-.91 1.433-1.34 2.168-.094 0-.102-.008-.168-.075-.504-.507-1.965-5.476-1.973-6.242 0-.562.168-1.12.285-1.672.16-.777.328-1.566.422-2.36.125-1.073-.078-2.112-.055-3.179.028-1.476.957-2.07 1.872-3.058.453-.493.832-1.04 1.316-1.5.094-.032.05-.032.137.011.129.54-.18 1.149-.282 1.672-.144.781-.12 1.598-.136 2.39.125-.581.36-1.12.574-1.671-.059.926-.266 1.793-.375 2.707-.067.547-.067 1.094-.063 1.648.098-.656.329-1.277.621-1.867-.187 1.086-.28 2.188-.214 3.29.125-.595.28-1.18.375-1.786.113 1.059.144 2.79.035 3.84.351-.98.594-2.957.531-3.977-.055-.855-.223-1.71-.281-2.574l.031.074c.266.602.422 1.242.664 1.852-.066-.696-.164-1.614-.355-2.27-.078-.281-.22-.547-.313-.824-.105-.293-.25-.984-.11-1.273l.13.039c.093-.063.015-.34.066-.48l.066.027c.543.933.684 2.941.895 4.027.086-.5.11-1.008.117-1.512.004-.558-.133-1.265.074-1.789.2-.516 1.059-2.043 1.387-2.414a.831.831 0 01.274-.172zm-.805.07l.043.043c-.137.39-.395.75-.617 1.094-.04.011-.016.007-.067-.02.02-.289-.031-.754.004-.992.149-.098.375-.098.547-.117zm-1.281.23c.023 0 .027.004.097.035.157.434.223.84.223 1.301.004.2.008.54-.145.688l-.043-.078c-.226-.602-.515-1.176-.761-1.766l.547-.172c.046-.004.07-.008.082-.008zm-10.977.188c.082.285.16.883.078 1.164l-.051-.059c-.129-.168-.332-.386-.34-.605-.008-.219.168-.363.313-.5zm-10.934.152l.046.055c-.28.488-.363 1.297-.44 1.86.148-.216.304-.427.468-.634-.012.047-.024.09-.031.133-.114.496-.38.914-.516 1.399-.176.617-.211 1.34-.309 1.98.286-.625.641-1.176.844-1.836.078 1.367-.297 1.477-.601 2.606-.25.91-.403 1.824-.52 2.758.402-.715.633-1.52 1.031-2.247.031.317.07.66.024.973-.086.59-.414 1.117-.625 1.664-.137.363-.207.735-.274 1.117-.547-.46-1.09-.648-1.773-.847-.176-.778-.38-1.41-.813-2.086-.066-.637-.05-1.285-.039-1.926.203 1.195.664 2.242 1.32 3.254l-.081-.746c.14.398.296.781.48 1.164-.098-.633-.184-1.29-.363-1.906-.297-.992-.778-1.985-.895-3.02.133.336.278.664.422.996l.063.024.03-.2.044-.003.168.195c-.031-.133-.067-.23-.04-.367.231.41.317.945.528 1.383l.043.09c-.195-1.313-.25-2.13.242-3.391.106.539.086 1.086.082 1.633.13-.364.242-.715.301-1.094.105-.676.016-1.477.39-2.074.215-.332.536-.606.794-.907zm1.789.11c.101.027.12.019.199.097-.063.395-.336.735-.438 1.125-.058.223-.128.574-.011.785.172-.312.086-.777.242-1.125.058.043-.129.692-.07.813.113-.29.234-.567.363-.852-.05.594-.063 1.188-.106 1.778.278-.797.489-1.606.746-2.407.801.086 1.446.38 2.153.743-1.133 1.003-1.594 2.449-1.88 3.89.306-.535.513-1.105.774-1.664-.043.434-.12.867-.172 1.3-.046.403-.062.84-.156 1.235-.101.395-.265.785-.398 1.172a6.152 6.152 0 00-.274 2.973c.157-.832.473-1.637.766-2.426-.008.54.004 1.094-.106 1.625-.183.863-.554 1.684-.664 2.57-.074.602-.015 1.223.043 1.828.188-.796.399-1.59.63-2.375-.032.903-.005 1.805.023 2.707-.23-.074-.496-.132-.703-.253-.805-.72-.989-1.41-1.121-2.45.164.418.316.856.535 1.25-.164-1.316-.453-2.445-1.012-3.656-.168-.36-.48-.719-.574-1.098-.09-.363-.035-.816-.031-1.19.394.815.894 1.573 1.273 2.397-.184-1.519-.508-2.878-1.266-4.234.008-.437.043-.875.063-1.312.3.543.594.949 1.031 1.39-.094-.547-.195-1.101-.36-1.637-.14-.449-.335-.89-.44-1.347-.044-.192-.126-.512-.02-.684l.12.16.063.004c.102-.222.168-.594.324-.77l.079.118c.03-.16.066-.3.125-.453h.039c.004.191-.012.304.09.469l.046.003c-.007-.168-.039-.37.075-.5zm-3.977.515l.027.012c.118.082.102.45.165.601.101-.152.207-.304.308-.457-.16.641-.394 1.27-.59 1.899-.027.133-.074.258-.113.383-.094-.559-.555-1.133-.43-1.711.075-.344.344-.551.633-.727zm8.133 1.242c.46-.011.695.2 1.008.504-.285.684-.602 1.375-.735 2.11a6.815 6.815 0 00-.082 1.02c-.004.636.07 1.273.09 1.913.012.293-.07.774-.004 1.043.008.035.04.059.059.086.004-.008.008-.015.008-.023a3.325 3.325 0 01.558-1.45c-.066 1.02-.261 1.524-.504 2.489-.316 1.27-.215 2.492.035 3.765.086-.93.305-1.863.477-2.78.113.933.008 1.718-.086 2.64-.039.394-.05.808-.133 1.195-.207 1.004-.46 1.34-.394 2.461a8.096 8.096 0 01-1.406-1.582c-.41-.719-.758-1.824-.684-2.656.191.39.52.648.766 1.008-.055-1.254-.454-2.067-.715-3.239-.156-.718-.172-1.46-.18-2.195.316.895.805 1.71 1.227 2.559-.16-.754-.18-1.532-.356-2.29-.16-.69-.508-1.3-.691-1.98-.14-.523-.13-1.063-.13-1.602.302.688.673 1.18 1.196 1.715-.199-1.07-.43-2.062-.824-3.082.086-.262.168-.531.289-.781.246-.484.582-.68 1.078-.84.043-.004.086-.008.133-.008zm-11.266.133c.191.274-.004 1.207-.035 1.563.258-.274.469-.586.719-.868l.09.024c.035.058.066.105.081.168.204.648.137 1.398-.203 1.973-.191.347-.25.714-.324 1.101-.254-1.437-.648-2.422-.328-3.96zm-1.559.3l.02.024c.105.485-.235 1.243-.445 1.676-.098-.293-.075-.668-.082-.972.148-.262.324-.493.507-.727zm14.7.415c1.32.496 2.292 1.29 3.156 2.394-.579 1.582-1.481 3.079-1.563 4.79.27-.754.586-1.282 1.094-1.891-.324 1.121-.656 2.242-.774 3.41-.062.578.04 1.203-.082 1.774-.226 1.066-.976 2.02-.937 3.144.078.168-.078 1.531-.082 1.856-.121-.559-.266-1.297-.235-1.864l.059.016c-.039-1.02-.066-2.016-.465-2.973-.144-.351-.426-.707-.512-1.07-.128-.527-.074-1.152-.09-1.695.34.773.665 1.554.97 2.347l.05-.047c-.008-.101-.02-.183-.008-.285.192.34.297.735.477 1.09-.188-1.836-.512-3.484-1.59-5.031.012-.442.04-.887.082-1.328.23.781.48 1.64.918 2.336.133-1 .031-1.91-.36-2.844-.152-.356-.343-.723-.41-1.106-.093-.52-.027-1.07.063-1.582.219.868.477 1.7.82 2.524.063-1.399 0-2.668-.582-3.965zm30.14.508c.938.828 1.477 2.101 1.758 3.297-.27-.047-.543-.075-.816-.106-.508-.047-1.016-.074-1.524-.105 0-.02-.004-.04-.004-.059l.004-.09c.004-.484.14-.968.22-1.449.233.402.452.813.67 1.227-.16-.907-.429-1.703-.71-2.574.36.125.629.566.863.859a8.572 8.572 0 00-.46-1zm1.235.05c.398.012.8.04 1.199.063.64.965.71 2.344.695 3.465-.203-.078-.414-.137-.625-.2-.156-.16-.133-.765-.144-1 .12.2.246.395.386.583-.414-1.036-.93-1.957-1.511-2.91zm-2.97.204a.832.832 0 01.169.008c.164.148.336.292.453.484.48.762.207 1.117.313 1.808.03.196.187.34.132.54l-.078.043a.585.585 0 01-.226-.25c-.551-1.024-.602-1.563-1.54-2.399l.723-.23c.02-.004.035-.004.055-.004zm-1.593.668c.016.011.035.02.05.035.692.558 1.106 1.152 1.22 2.039-.903.437-1.903.676-2.86.957-.343.117-.703.207-1.05.309.746-1.16 1.632-2.399 2.64-3.34zm-27.648 0c.149 1.086-.293 2.21-.676 3.203-.004-.028-.015-.051-.02-.078-.112-.801.259-2.442.696-3.125zm35.391.004c.16.144.184.968.223 1.214l.02-.007c-.009-.293-.009-.586.007-.88.156.805.418 1.59.586 2.391.074.297.117.598.168.899a5.268 5.268 0 00-.687-.403c-.024-1.086-.325-2.136-.317-3.214zm-48.64.378c.288.68.179 1.926.28 2.711a5.61 5.61 0 01.137-.765c.078.285.156.574.219.867.008.05.02.098.031.148.102-.718-.11-1.468.008-2.195l.012-.07c.234.89.511.988.214 2 .133-.188.25-.36.34-.57.035-.075.004-.044.086-.086a.688.688 0 01.14.304l.063.008c-.011-.082-.023-.164-.03-.25a.91.91 0 01.167-.2c.152-.128.262-.241.375-.41.008-.019.02-.035.031-.054-.027.957-.23 1.902-.379 2.844-.539-.117-1.07-.114-1.617-.11-.347-1.574-.586-2.605-.078-4.172zm37.687.395c.129.41.05 1.016.043 1.445l-.379.485c-.062-.442.223-1.465.336-1.93zM25.03 40.278c.14.261.29 1.98.324 2.367l-.078.074a.504.504 0 01-.262-.027c-.328-.633-.164-1.75.016-2.414zm18.805.086c.027.035.035.043.063.085.629 1.028 1.765 3.793 2.074 4.922.273.993.308 2.067.472 3.082.313 1.926.688 3.82.938 5.758.117.938.238 1.899.23 2.844-.007.785-.187 1.5-.394 2.246-.524-.926-1.258-1.824-1.914-2.66-.254-.32-.781-.871-.938-1.235-.039-.09-.03-.292-.054-.398-.055-.27-.172-.535-.282-.789-.543-1.254-.597-.773-.625-2.305.106.242.203.492.301.739.16.437.32.878.488 1.316-.011-.762-.062-1.543-.265-2.285-.149-.559-.356-1.094-.477-1.664-.207-.934-.304-1.899-.414-2.848.485 1.21.848 1.918.89 3.258.27-1.367.169-2.555-.359-3.852-.148-.36-.382-.715-.46-1.094-.106-.507-.043-1.101-.036-1.617.282.867.649 1.7.989 2.543.09-.945-.024-1.816-.286-2.73-.28-.98-.52-1.414-.507-2.485.316.649.582 1.309.84 1.989.05-.993-.083-1.856-.274-2.82zM32 43.004c.16.543.246 1.305.024 1.844l-.075.027c-.125-.12-.234-.258-.347-.39a6.29 6.29 0 01.398-1.48zm30.953.688c.09.433-.363 2.195-.543 2.61-.308-.169-1.351-.856-1.504-1.118l.055-.149c.39-.437.758-.832 1.234-1.175-.047.504-.097 1.007-.093 1.515.21-.644.476-1.129.851-1.683zm-36.828.89c-.144.235-.402.426-.57.66-.375.532-.625 1.165-.895 1.754l-.297-.718c.215-.614.532-1.11.977-1.586.23-.016.445-.051.672-.098zm1.711.035l.05.024c.098.277-.308 1.445-.413 1.765-.305.079-.614.145-.926.211l-.05-.027c.007-.254.16-.527.26-.758.235-.523.513-1 1.079-1.215zm.781.043c.637.075 1.29.364 1.778.778-.059.355-.098.718-.141 1.074-.2.031-.43-.047-.621-.098-.297-.34-.512-.633-.934-.828zm13.781.051c.051.25.043.54.063.797l-.5 1.086c-.07-.547.261-1.36.437-1.883zm-19.27.973c-.101.363-.277.719-.332 1.098-.097.625.04 1.289-.191 1.894-.238.598-.363 1.23-.598 1.82-.215.535-.586 1.024-.906 1.496.289-1.445.195-3.187.89-4.5.055.383.063 1.012.254 1.356l.09-.059c0-.015-.004-.03-.004-.047-.129-1.078.125-2.207.797-3.058zm19.391 1.512c.149.3.086 1.808.102 2.25a1.977 1.977 0 00-.274.418c-.222.546-.449 2.152-.41 2.75.094.16.239.218.395.312.164-.145.36-1.82.406-2.18.043.524.098 1.051.16 1.57-.004.008-.004.012-.008.016-.117.29-.425.785-.683.973l-.09-.055c-.477-.293-.906-.601-1.254-1.043.105-.758.406-1.5.734-2.191-.02.21-.027.422-.039.629l.047-.016c.047-.14.07-.3.117-.437.051.16-.062.882.024 1.3.004-.066.012-.132.02-.195.046-.547.285-1.047.386-1.582.16-.832.192-1.684.367-2.52zm-3.105.69c.355.4.804 1.634.867 2.173.031.234.078.465.121.695a1.247 1.247 0 00-.219-.293c-.066-.066-.031-.047-.133-.043-.085.207.032.516.094.719.063.176.207.57.125.746-.101-.027-.074-.004-.133-.074-.293-.352-.703-2.547-.75-3.086-.027-.281.004-.559.028-.836zm-5.84 1c.2.075.367.185.547.298.23.75.535 1.473.758 2.226.066-.605-.02-1.21-.098-1.808.293.531.367 1.14.648 1.676l.13.02.05.085c.035.086.059.172.078.262-.43.355-1.617.812-2.195 1.176.418-1.258.215-2.649.082-3.934zm42.352.895l.035.04-.043-.016c.004-.008.004-.012.008-.024zm-37.137.008c.027.403.105.809.102 1.207l-.051.012c-.063-.05-.184-.113-.215-.184-.113-.289.082-.753.164-1.035zm-2.676 2.965c.09.043.149.09.219.16.02.157.043.27.113.414l.059-.004.125-.367.054-.023.079.125c-.016.332-.282.8-.414 1.11-.157.304-.29.597-.395.921.023-.789.059-1.55.16-2.336zm-9.574.695c.133.532.18 1.63-.008 2.137-.129.356-.37.68-.547 1.016l-.027-.008a.22.22 0 01-.016-.047c-.047-.242.22-2 .297-2.324.063-.266.145-.54.301-.774zm11.578 5.707l.012.016c.445.602.394 1.66.289 2.367-.125-.531-.364-1.894-.301-2.383z"
    fill="#3d3c3c" />
</svg>