<svg viewBox="915.634 1018.864 3168.732 2962.272" width="3168.732" height="2962.272" xmlns="http://www.w3.org/2000/svg">
  <g fill="#3d3c3c">
    <path
      d="M2353.072 2592.594c.067-.687.154-1.355.285-2.031 4.652-23.927 1.221-48.899-14.095-67.862-53.505-66.245-138.922-45.02-166.332 14.745-5.048 11.01-16.356 17.869-28.378 17.223a29.585 29.585 0 01-26.509-19.969l-14.328-41.848c-16.06-46.905-64.599-77.201-112.856-65.828-55.344 13.044-86.205 70.648-68.235 123.127l15.788 46.073c3.93 11.453.472 24.149-8.708 32.039-9.17 7.87-22.242 9.382-32.973 3.786-13.833-7.215-28.908-10.712-43.877-10.712-25.585 0-50.88 10.211-69.269 29.544-17.435 18.341-26.673 42.403-25.999 67.728.684 25.334 11.184 48.915 29.592 66.398l464.028 486.587c11.626 12.191 32.197 5.143 33.903-11.616l67.963-667.384zM1770.695 1141.19c4.122-4.051 8.928-6.934 14.024-8.809 3.534-9.262 5.694-19.204 5.694-29.693 0-46.218-37.597-83.824-83.815-83.824-46.218 0-83.824 37.606-83.824 83.824 0 46.218 37.606 83.815 83.824 83.815 19.945 0 38.037-7.292 52.442-18.966.439-9.603 4.256-19.08 11.655-26.347zM1746.85 1729.778c-47.626-40.084-123.54-25.214-149.757 37.905-12.158 29.271-5.998 62.02 10.617 89.011a29.61 29.61 0 01-.747 32.169c-6.81 10.008-19.092 14.825-30.863 12.224l-47.557-10.548a95.55 95.55 0 00-20.73-2.283c-17.859 0-35.362 5.067-50.784 14.911-21.375 13.64-36.171 34.803-41.671 59.588-6.363 28.686.686 58.28 19.851 81.457 14.036 16.974 34.264 27.712 55.767 32.482l43.973 9.754a29.587 29.587 0 0122.801 24.13 29.596 29.596 0 01-12.853 29.42c-26.446 17.518-45.866 44.628-47.275 76.319-3.035 68.277 59.439 113.745 119.61 97.599l657.125-142.357c16.464-3.567 21.172-24.796 7.759-34.988l-534.119-405.879a45.915 45.915 0 01-1.147-.914zM3108.982 1602.201c51.105-38.86 52.953-116.185-3.263-155.559-25.899-18.14-59.061-18.795-89.094-8.905-10.958 3.609-23.025.565-30.913-7.905a29.58 29.58 0 01-5.134-32.8l19.169-40.713c9.387-19.938 13.282-42.517 8.452-64.019-6.593-29.348-25.686-53.03-52.271-65.556-26.675-12.565-57.17-12.238-84.029 1.42-19.679 10.007-34.604 27.45-44.012 47.422l-19.1 40.55c-5.154 10.952-16.501 17.666-28.552 16.925a29.56 29.56 0 01-26.307-20.238c-12.889-38.916-49.763-65.329-90.519-65.329-1.262 0-2.524.019-3.795.077-52.18 2.196-92.946 46.507-90.817 98.784.029.482.029.973.029 1.464l-5.831 670.804c-.146 16.845 19.526 26.112 32.421 15.273l513.566-431.695z" />
    <circle cx="3887.135" cy="2448.547" r="83.815" />
    <path
      d="M3766.745 1811.847c21.356-16.26 34.399-38.55 37.857-63.653 6.549-47.52-22.726-94.453-79.712-109.593-15.84-4.208-32.072.132-46.819 7.285a29.597 29.597 0 01-34.606-6.408 29.579 29.579 0 01-5.134-32.8l18.967-40.265c21.117-44.832 7.26-100.329-35.345-125.641-48.886-29.044-111.052-9.138-134.654 40.941l-20.749 44.06c-5.163 10.962-16.607 17.801-28.551 16.925a29.57 29.57 0 01-26.307-20.238c-12.889-38.907-49.763-65.32-90.519-65.32-1.262 0-2.524.019-3.795.077-52.19 2.187-92.956 46.507-90.818 98.774.029.491.029.983.029 1.474l-5.84 670.804c-.147 16.845 19.526 26.113 32.421 15.273l513.575-431.695zM3396.255 3160.41c.937 1.019 1.874 2.118 2.585 3.295 9.257 15.317 22.584 28.229 40.255 31.066 97.767 15.694 146.165-69.168 117.362-133.453-4.942-11.049-2.668-24.005 5.76-32.693a29.58 29.58 0 0132.501-6.772l40.848 16.787c25.12 10.323 53.723 11.704 78.564.724 23.265-10.283 41.191-29.109 50.353-53.054 18.223-47.625-9.224-103.791-56.395-123.159l-41.211-16.922a29.597 29.597 0 01-18.35-27.665c.121-11.729 7.139-22.246 17.839-26.869 29.103-12.572 52.685-36.292 59.476-67.259 14.627-66.698-39.607-122.019-101.214-116.387l-671.786 28.136c-16.831.705-25.092 20.819-13.616 33.151l457.029 491.074zM1401.886 2838.952c0-46.218-37.597-83.814-83.815-83.814-46.218 0-83.824 37.596-83.824 83.814s37.606 83.814 83.824 83.814c46.218.001 83.815-37.596 83.815-83.814zM4000.542 2061.744c-43.984 0-79.76 34.165-83.155 77.292 4.021 4.845 7.072 10.597 8.414 17.196 1.603 7.881.705 15.677-2.101 22.613 12.91 29.685 42.459 50.529 76.842 50.529 46.218 0 83.824-37.597 83.824-83.815s-37.606-83.815-83.824-83.815zM1071.694 3028.467c1.141-8.802 5.199-16.451 10.954-22.357-3.226-43.293-39.086-77.64-83.19-77.64-46.218 0-83.824 37.597-83.824 83.815 0 46.218 37.606 83.814 83.824 83.814 33.1 0 61.511-19.445 75.125-47.368-2.612-6.211-3.818-13.103-2.889-20.264zM1750.09 1522.762c46.218 0 83.814-37.597 83.814-83.815s-37.597-83.824-83.814-83.824c-46.218 0-83.815 37.606-83.815 83.824s37.597 83.815 83.815 83.815zM994.97 3408.441c-73.369 12.271-113.205 106.114-41.904 173.024 11.752 11.028 27.846 14.717 43.961 14.859a29.566 29.566 0 0128.295 21.784 29.587 29.587 0 01-10.712 31.422l-38.824 29.31c-29.693 22.417-45.252 60.382-35.916 96.396 18.629 71.863 98.265 94.429 150.28 55.178l38.868-29.351a29.597 29.597 0 0117.83-5.972 29.55 29.55 0 0115.316 4.277 29.604 29.604 0 0112.906 34.238c-4.677 14.929-4.19 31.057 2.759 45.074 26.31 53.073 78.453 72.301 123.808 56.096 23.851-8.535 42.991-25.864 53.876-48.8l317.859-592.494c7.964-14.844-5.141-32.197-21.598-28.599l-655.37 143.28c-.471.105-.952.201-1.434.278zM2248.816 1257.438c0-46.218-37.606-83.815-83.824-83.815s-83.814 37.597-83.814 83.815 37.596 83.815 83.814 83.815 83.824-37.597 83.824-83.815zM1759.04 1167.537c11.402-9.239 20.36-21.217 25.679-35.156-5.096 1.875-9.902 4.759-14.024 8.809-7.399 7.267-11.216 16.744-11.655 26.347z" />
    <path
      d="M3925.801 2156.231c-1.343-6.598-4.394-12.35-8.414-17.196-.172 2.19-.66 4.289-.66 6.522 0 11.835 2.529 23.068 6.973 33.286 2.806-6.935 3.704-14.731 2.101-22.612zM3863.877 2187.327c-2.899-9.351-3.7-19.04-6.205-28.414-1.705-6.378-1.297-14.582-6.329-19.512-2.48-2.432-5.917-3.698-9.361-4.156-14.85-1.977-32.816 5.35-47.237 8.667-67.857 15.611-135.241 33.274-202.016 53.013-169.357 50.064-335.685 114.442-494.933 191.198a3280.91 3280.91 0 00-167.789 86.932 3308.357 3308.357 0 00-148.071 87.331 3350.915 3350.915 0 00-110.454 72.129 3308.988 3308.988 0 00-57.225-197.104 3276.057 3276.057 0 00-48.268-138.232c-23.678-63.229-50.027-124.573-77.446-186.337-76.867-173.147-168.22-338.964-274.288-496.372-105.675-156.826-224.838-304.509-355.491-441.215-9.115-9.538-24.435-7.241-31.518 3.889a143.72 143.72 0 01-21.697 26.485 19.48 19.48 0 00-.603 27.595c130.053 136.476 248.379 284.121 352.917 441.01 105.263 157.977 194.974 325.019 272.527 497.865 40.795 81.59 69.411 171.85 98.469 258.431a3192.184 3192.184 0 0178.903 275.596c.198 1.381.591 2.762.986 4.143 57.802 243.245 87.592 494.775 87.592 750.843 0 68.85-.395 126.259-2.367 179.918a3281.445 3281.445 0 00-78.254-57.592 3321.685 3321.685 0 00-142.86-96.409c-123.658-78.863-255.004-149.318-386.975-211.776-144.599-68.432-295.704-124.53-448.966-170.147a3301.228 3301.228 0 00-234.763-60.573 3327.945 3327.945 0 00-119.263-23.868c-39.023-7.07-79.376-10.612-118.026-19.212-1.775-.395-3.353-.593-5.13-.789-8.877.196-15.782 6.116-17.361 14.006 0 2.367-.196 3.946-.196 5.524-.668 10.105-2.207 19.551-4.554 28.793-1.856 7.308-4.159 14.798.272 21.724 6.254 9.772 20.757 9.504 30.945 11.021a3262.702 3262.702 0 01115.08 19.25 3233.333 3233.333 0 01113.964 23.29 3207.092 3207.092 0 01112.761 27.317 3192.548 3192.548 0 0155.902 15.163c147.919 39.445 289.082 94.25 428.506 155.333 90.161 39.501 184.596 79.462 268.258 131.727 1.579.986 2.96 1.579 4.341 2.367 147.564 82.462 289.012 176.762 420.598 280.333-5.13 60.762-13.219 122.707-26.436 198.462-3.748 21.503 10.653 41.823 32.156 45.571a38.48 38.48 0 006.708.591c18.938 0 35.51-13.415 38.864-32.748 32.354-185.836 35.707-291.184 35.707-487.279 0-253.7-28.606-503.061-83.844-744.53-1.199-5.241 64.694-43.625 72.53-48.734 26.502-17.276 53.239-34.189 80.099-50.903 49.545-30.832 98.897-64.441 151.847-88.16 53.871-24.134 105.213-55.172 158.709-80.436a3200.815 3200.815 0 01162.757-71.405c172.23-69.928 350.513-124.765 532.125-164.332 11.428-2.49 17.865-14.113 14.403-25.282zM1071.694 3028.467c-.93 7.161.277 14.053 2.889 20.264 5.394-11.067 8.69-23.329 8.69-36.447 0-2.115-.471-4.099-.625-6.175-5.754 5.907-9.812 13.556-10.954 22.358z" />
    <path
      d="M1177.295 3018.219c0 9.864-7.89 17.756-17.558 17.756-8.877 0-16.373-6.51-17.557-15.191-.198-1.184-.198-1.972-.198-2.565 0-.986 0-1.972.394-2.958 1.579-8.483 8.484-14.402 16.967-14.598 2.17.196 3.748.394 5.523.789 7.102 2.169 12.429 8.877 12.429 16.767z" />
  </g>
</svg>