<svg width="64" height="64" viewBox="0 0 60.601 60.601" xmlns="http://www.w3.org/2000/svg">
  <path
    d="M57.333 56.972a3.26 3.26 0 002.83-1.632 3.26 3.26 0 00-.003-3.268L33.125 5.264a3.266 3.266 0 00-2.827-1.635c-1.208 0-2.26.658-2.827 1.635L.443 52.072a3.254 3.254 0 00-.005 3.268 3.26 3.26 0 002.832 1.632h54.063" />
  <path d="M30.295 9.059L5.151 52.612H55.44L30.295 9.06" fill="#f2e700" />
  <path
    d="M33.775 46.871a3.478 3.478 0 11-6.957.006 3.478 3.478 0 016.957-.006M28.441 39.092a1.856 1.856 0 103.712 0l2.027-16.795a3.885 3.885 0 00-7.769 0l2.03 16.795" />
</svg>