<svg width="64" height="64" viewBox="0 0 60.601 60.601" xmlns="http://www.w3.org/2000/svg">
  <path
    d="M47.231 44.138L16.466 13.372a21.765 21.765 0 0113.879-4.973c12.07 0 21.856 9.788 21.856 21.859 0 5.27-1.865 10.104-4.97 13.88zm-16.886 7.979c-12.073 0-21.859-9.786-21.859-21.859a21.769 21.769 0 014.898-13.786L44.13 47.219a21.775 21.775 0 01-13.785 4.898M30.3 2.977c-15.089 0-27.324 12.236-27.324 27.325 0 15.089 12.235 27.322 27.324 27.322 15.089 0 27.323-12.233 27.323-27.322 0-15.089-12.234-27.325-27.323-27.325"
    fill="#ff4b00" />
</svg>