<svg viewBox="1.408 6.852 23.642 12.755" width="64" height="64" xmlns="http://www.w3.org/2000/svg">
   <path
      d="M9.685 19.603c-1.392-.42-2.934-.036-4.273-.68.016-.996.494-1.912.749-2.859.351-1.529 2.006-.685 2.962-1.4.963-.445 2.165.142 2.764.933.404.987 1.053 1.73 2.12 1.928-.472.79-2.063.27-2.603 1.254-.13.488-.197 1.04-.918.823-.265-.014-.539-.066-.801.001zm2.334 0c-1.556-.02.15-1.888 1.038-1.439.987-.188 1.6-1.117 2.537-1.448.906-.542 1.723-1.358 2.822-1.468.87.402 2.196-.942 2.682.328.138 1.009.279 2.003 1.02 2.75.267 1.15-1.109 1.434-1.96 1.223-1.04-.141-2.088-.272-3.138-.157-1.668.038-3.333.192-5.001.211zm2.142-2.154c-.014-1.163.698-2.223.548-3.402.347-.909 1.431.56 1.455 1.164.617 1.104-.8 1.451-1.496 1.882-.163.124-.306.29-.507.356zm-.483-.166c-1.182-.087-1.705-1.388-.963-2.293a13.554 13.554 0 013.143-4.668c-.888 2.256-1.676 4.598-1.825 7.033-.104.09-.255-.052-.355-.072zm7.766-.208c-.065-.851-.187-2.536-1.453-2.133.59-2.186 1.136-4.422 2.145-6.456-.03.998-.398 1.997-.591 2.988-.209 1.036-.57 2.064-.637 3.117.356-.42.63-1.665.778-1.726-.079 1.403-.103 2.81-.242 4.21zm-15.837-.566c-1.1-.622-1.8-1.791-2.985-2.283 1.333 0 2.753.554 3.499 1.704-.021.247-.143 1.122-.514.579zm15.997-.078c.298-1.05-.188-2.337.39-3.25.782-.858 1.83-1.56 3.016-1.652-.753.94-1.597 1.814-2.211 2.861-.425.664-.816 1.35-1.195 2.041zm-5.212-.393c.772-2.08 1.342-4.249 2.387-6.219.509-.086-.111 1.153-.138 1.55-.348.994-.053 1.55-.248 2.61-.027.65.146 1.337-.703 1.33-.46.191-.86.494-1.298.729zm-4.169-.09c-.736-1.022-.35-2.323-.411-3.483.312-1.04 1.218-1.773 1.915-2.57.287-.31 1.48-1.259.783-.363-.892 1.5-1.314 3.216-1.671 4.907-.265.478-.345 1.037-.616 1.509zm-6.162-.42c-1.005-1.842-2.716-3.229-4.593-4.118 1.553-.297 3.17.307 4.342 1.323-.016.83.328 2.49.26 2.808zm.147-.118c-.455-2.722-.384-5.49-.456-8.238 1.072 2.51 1.518 5.22 2.358 7.806-.667-.281-1.644.233-1.902.432zm5.466-.246c-.59-.493-1.854-.452-1.245-1.446.522-2.066.913-4.162 1.354-6.246.043 1.97-.09 3.942-.062 5.914-.05.526.124 1.52-.047 1.778zm7.149.016c-.801-.216-.11-1.565-.242-2.255.033-.952.346-1.91 1.06-2.57.611-.695 1.12-1.6 2.028-1.932-1.394 1.96-2.035 4.356-2.25 6.727-.193.06-.398.042-.596.03zm-10.64-.307c-.226-1.306-1.169-2.654-.513-3.981.504-1.578 1.465-3.136 2.911-3.975-.297.788-.884 1.635-1.013 2.559-.389 1.619-.353 3.303-.213 4.951-.415.055-.739.569-1.172.446z"
      fill="#3d3c3c" />
</svg>