<svg viewBox="6.375 6 88.999 78.503" width="64" height="64" xmlns="http://www.w3.org/2000/svg">
   <path
      d="M79.25 31.875c-3.028 1.757-5.286 5.217-4.153 8.164-2.369 2.863-10.516 3.817-8.668 8.236 3.226.805 5.958-5.055 8.6-1.357 4.58-1.765 7.747 1.066 11.897 2.476 1.985 1.728 7.256 2.07 8.037 1.87-4.483 2.789-10.294 5.183-11.726 10.821-1.056 1.224-4.207 2.897-1.862 4.542-3.464-.935-6.892 2.927-5.354 4.503-6.254-1.218-5.844 7.207-2.726 10.354 1.195 1.364 3.043 4.555-.244 2.39-3.689-3.12-8.328-1.08-12.523-2.577-3.48-.66-2.112 5.374-4.5 1.562-1.57-2.49-5.073-2.995-6.943-2.924-3.04-5.862-7.38-11.106-12.82-14.885-5.45-2.015-6.589 7.938-9.83 7.458.91-3.587 5.835-5.51 5.569-9.675-1.055-4.35-5.405-6.91-9.585-7.567-2.62-1.11-6.032-3.223-8.295-3.074 4.666-2.767-5.089-5.562-3.633-6.226 3.505-2.01-2.424-4.447.669-5.537-1.107-3.289-.88-6.707-2.596-9.934-.66-1.653-3.718-5.152-.328-2.833 3.67-.24 7.007 1.337 10.361 1.72 3.948-1.498-1.513-7.928 2.956-6.194 3.314-2.852 5.628-6.647 8.983-9.667 2.017-1.296 4.532-7.111 4.185-6.723-.051 4.104 3.292 8.479 6.46 10.038-.02 2.332.48 4.924 2.23 5.726-.196 2.889-2.392 8.527.015 9.778 3.35-4.01 3.493-9.754 6.99-13.673 2.454 3.516 6.681-1.327 9.678-.556 3.745.296 7.362.282 10.122-2.808 2.237-1.532 6.856-4.961 7.534-5.427-1.303 4.678-3.178 9.886-1.24 14.631-.657 2.263-1.647 6.935 2.74 7.368zM91.75 52c-3.13-.088-8.341 3.822-10.285 1.081.469-1.745 3.542-5.596.773-2.127-1.688 2.634-.736 8.745-5.82 6.32-6.166-.326-1.21-6.123.943-8.67 3.031-3.25-2.787 1.84-2.882 3.7-1.017 4.164-5.886 5.28-9.438 4.468.739-3.975 4.684-6.598 6.988-9.808-.037.069-4.044 3.98-5.335 5.771-1.654 2.251-1.548 5.567-5.038 4.973l-6.464.782c.372-4.224 8.322-7.923 8.583-8.452-4.963 1.224-7.193 7.092-11.064 8.697-5.303.5-10.621.838-15.945 1.004 3.43-3.193 5.271-8.01 9.465-10.376 2.054 2.11 8.07.877 8.535.711-2.72.754-11.456.352-6.893-3.693 1.695-3.906 5.764-.108 8.959-.924 2.206.314 7.99-1.443 7.158-1.37-4.502 1.215-9.735 2.05-14.003-.29l3.845-4.695c6.558 1.235 13.353 1.291 19.914.047-6.19.559-12.623 1.532-18.71-.171-1.094-.834 2.317-5.338 4.516-4.426 6.014.151 12.067-.605 17.817-2.392-6.34 1.493-12.9 2.632-19.429 2.014 2.792-2.112 4.269-8.132 8.272-6.554 3.413.464 7.037-.4 9.773-2.52-3.019 2.257-9.655 3.316-11.632 1.408L76 12.625 62.043 28.77c-1.176-2.518-.482-8.933-1.2-9.225-1.156 4.242 3.162 9.492-1.717 12.609-3.004 5.322-3.472-2.636-3.563-5.327-.153-2.201.406-8.446-.52-3.08-1.256 4.589 3.838 10.22-.46 13.685-1.576 1.63-3.823 5.813-3.805 1.15-1.053-6.256-.049-12.601-.368-18.896.123 6.816-1.296 13.789.595 20.469.175 2.295-2.416 4.97-4.217 5.626-1.682-4.434-2.166-9.292-1.857-14.036-1.077 5.066.71 10.77 1.762 15.02-1.635 2.299-4.016 5.452-4.867.928-.605-1.554-1.736-6.5-1.107-2.163 1.988 3.153 3.212 7.03-.89 9.122-2.414 1.782-5.156 9.14-8.367 6.626-.99-5.99.644-12.066 1.413-18.006-.127-4.836 6.807-4.641 8.743-8.939-2.298 1.545-6.232 7.17-8.635 4.173-1.112-5.556 5.6-6.566 7.438-10.675.538-1.858 1.377-3.002-.021-.718-1.572 3.172-4.424 5.172-7.199 7.26-5.144 2.038-1.597-6.155-.792-8.557 1.405-2.923 5.861-3.794 7.302-7.2-1.598 1.79-7.083 8.095-7.752 3.329-.141-3.288 2.157-4.43 4.143-6.227-1.774 2.57-3.838 1.53-2.972-1.515.146-2.107.666-3.394.025-.375.368 2.613.221 8.552-3.323 4.442-2.449-2.377 1.734 2.403 3.098 1.948l-.168 7.487c-2.938-1.181-4.676-4.122-6.507-6.56 2.386 4.2 8.625 6.917 6.471 12.688.576 1.776.202 5.474-2.084 2.623-4.072-2.15-7.54-8.961-9.23-10.872 3.074 4.603 5.772 10.369 11.477 12.141 1.577 5.764 3.92 11.504 4.048 17.533-2.743 1.853-5.437-4.753-7.782-6.41-6.56-7.11-13.712-13.641-20.921-20.082l7.049 6.666c-1.774.713-6.73 1.528-2.143.968 3.236-2.483 7.117-1.1 7.18 3.23-.353 2.645-7.899 1.682-8.285 2.305 4.007.588 8.6-2.66 12.05.532 1.656 1.678 2.91 4.486-.682 3.924-3.831.514-7.733.628-11.57.111 5.125 2.2 12.005-2.112 16.03 1.462 2.12 1.51 3.353 3.578-.293 2.906-3.89.235-7.76.707-11.647.987 4.972.313 10.592-1.424 15.145-.486.942 1.313 2.569 2.302 3.034 3.84-1.876 2.33-6.234-1.184-9.216-.447-3.415-.193 4.438.61 5.935.981 5.776-.64 3.474 5.992 1.992 8.674 1.703-1.836 5.203-6.806 7.49-2.146.728 1.213 2.623 7.642 1.759 3.007-2.511-2.415-3.469-7.114 1.326-4.405 2.768 2.36 8.277 4.196 5.146 8.62-.775 2.302.48 8.218.733 8.059-.733-3.343-1.566-9.942 1.308-11.319 4.849 1.981 1.905 8.366 4.673 12.09.475 1.23 1.814 4.38.642 1.34C54.8 76.44 52.72 70.61 53.948 68.6c1.854 2.277 7.929 3.499 6.04 6.583-.248 2.123 1.71 7.025.417 2.205-1.47-5.516 5.568-2.21 3.881 1.46-.072 2.644.491 2.481.27.01-.494-4.965 4.373 1.678 6.655 2.44-.862-.73-5.384-4.122-7.668-5.873-6.912-5.243-13.879-10.42-21.071-15.273l14.423-1.375c3.917 5.045 9.491 8.699 15.554 10.629-5.946-2.14-11.271-5.895-15.424-10.645l10.649-1.549c2.053 3.157 8.743 7.697 9.733 7.745-3.086-1.857-8.519-5.62-8.945-7.86 3.25-1.127 7.406-1.548 8.841 2.305l3.747 2.434c-2.339-1.589-8.934-5.838-4.755-8.179 3.786-.444 7.526 1.145 11.176-.552 1.43-.356 2.856-.724 4.279-1.105z"
      fill="#3d3c3c" />
</svg>