<svg viewBox="0 0 50 50" width="64" height="64" xmlns="http://www.w3.org/2000/svg">
   <path
      d="M23.333 0c-2.952 3.66-3.858 6.924-2 11.333 3.432-2.72 4.573-7.567 2-11.333m0 1.333c.941 3.19 1 6.678-2 8.667-.604-3.412-.495-6.084 2-8.667m18 2L42 6h.667l.666-2.667h-2M30 4l.667.667L30 4M15.333 6c-.834 4.495-.908 8.29 4 10 1.253-4.239.727-8.64-4-10m1.334.667l2.666 8.666c-3.617-1.743-5.04-5.191-2.666-8.666m18.666 0l-1.333 2 2.667.666-1.334-2.666m-7.333 2c-4.027 1.817-6.973 4.644-6 9.333 4.176-1.46 8.002-4.517 6-9.333m10.667.666l.666.667-.666-.667m7.333 0l-.667.667v1.333L46 12h1.333l.667-.667V10l-.667-.667H46M28 10c-.222 4.056-1.877 6.206-6 6.667.867-3.604 2.215-5.896 6-6.667m-16 5.333c.119 5.052 2.091 8.126 7.333 8.667-.122-5.066-2.456-7.494-7.333-8.667m30.667 0l.666.667-.666-.667m-24 8c-3.75-.758-5.58-2.89-6-6.666 3.981.536 5.734 2.722 6 6.666M20 16.667c0 14.396-4.534 23.721-16.667 32v.666c4.927-1.895 9.571-5.984 12-10.666H16l-.667 2c4.924 2.37 10.222 1.119 12.667-4-4.208-.781-7.487-.683-11.333 1.333l2-6h.666c3.258 4.61 9.513.528 11.334-3.333-4.83-.597-7.618.02-11.334 3.333.922-4.468 3.432-11.28.667-15.333m17.333.666v2L40 18.667l-2.667-1.334m-16 8c4.857 1.053 8.414-1.336 10-6-4.643.04-8.614 1.082-10 6M30 20c-1.113 3.871-4.133 5.386-8 4.667 1.815-3.317 4.292-4.474 8-4.667M9.333 22.667c.126 2.708 3.2 11.506 7.479 7.97 4.269-3.526-5.158-7.62-7.479-7.97m7.334 8c-4.23-.769-6.229-3.087-6.667-7.334 4.273 1.028 6.52 2.795 6.667 7.334M33.333 24L34 26.667l2-2L33.333 24M40 24l.667.667L40 24m-10.667 5.333c-1.806 3.474-5.013 4.38-8.666 3.334 1.822-3.475 5.029-3.85 8.666-3.334M6 29.333c-1.05 5.054 2.537 8.572 7.333 9.334.83-5.336-2.413-8.15-7.333-9.334m7.333 8l-.666.667c-3.958-1.179-6.629-3.669-6-8 3.847 1.434 5.7 3.323 6.666 7.333M0 34.667c.048 5.328 1.874 9.24 7.333 10.666C7.29 40.095 5.807 35.445 0 34.667m26.667 2.666v1.334c-3.33 2.166-6.099 3.15-10 2 2.029-3.903 6.027-4.505 10-3.334m-10 .667l-.667.667.667-.667M10 48c4.542 1.655 9.538 2.323 12-2.667-4.542-1.44-9.509-2.316-12 2.667z"
      fill="#6cf1e8" />
</svg>