<svg viewBox="38.412 5 23.177 90" width="64" height="64" xmlns="http://www.w3.org/2000/svg">
  <path
    d="M56.383 20.799c1.222-4.29 2.391 2.467 1.244 3.737-1.842 3.256-2.712 6.782-2.756 10.51-.7 3.322-1.937 6.826-2.72 9.94-1.045-4.199-.786-8.603.37-12.759.83-3.96 1.407-8.047 3.862-11.428zM52.152 5.621c2.11 4.234-1.21 8.978.805 13.258 1.277 3.218 2.415-2.721 2.132-4.021-.76-2.825-.762-7.853-2.937-9.237zm1.614 15.628c-.148 1.584-.27 4.837.84 1.524.718-1.503 3.297-4.646.965-5.656-.369 1.46-.777 2.98-1.805 4.132zm-5.935-2.309c.337 2.662 1.758 1.689 1.336-.402.25-1.688-.635-6.092-2.363-5.342-.2 1.984.839 3.805 1.027 5.744zm.726-7.857c.53 4.218 1.671 8.33 1.124 12.586-.427 4.162-.8 8.344.53 12.386.886 2.918 1.482-4.266 2.09-5.732.603-3.724 1.376-7.754-.123-11.351-1.45-3.878.742-7.852-.048-11.714-1.046-4.883-5.966 2.214-3.573 3.825zm-1.894 5.968c.616-.475-1.275-5.667-.706-1.638.134.584.399 1.128.706 1.638zm12.848 42.123c1.914-.584.809-6.627.146-2.561a6.551 6.551 0 00-.146 2.561zm-1.886-33.003c.758.38.384-1.956 0 0zm-12.402-2.939c2.043 2.123 1.823 5.373 3.254 7.792.021-3.587 1.57-7.447-.751-10.698-.32-1.125-2.65-4.807-1.43-1.559.854 1.601-.674 4.169-1.512 1.36-1.166-2.406-.61 3.176.439 3.105zm14.81 30.355c1.193-2.03-.4-3.002-.626-.414-1.519 3.62-6.33 5.22-6.27 9.655-.739 3.428-1.494 6.949-1.034 10.47 3.34-2.183 6.29-5.397 6.636-9.546.399-3.411-.44-6.997 1.294-10.165zm.627-9.625c-1.096 1.34-2.98 4.804-2.31 5.419 1.079-1.623 2.685-3.3 2.31-5.419zm.234 4.305c-3.006 1.103-3.792 6.263-4.572 7.74 2.204-1.917 3.353-4.807 4.494-7.43l.045-.18zm-4.03-20.341c-1.338 1.574-1.887 6.504-.765 6.653 1.087-2.196 3.677-5.91 1.805-7.811-.463.278-.653.804-1.04 1.158zm.538 42.282c3.146 3.247 3.538-6.324.987-1.892-.086.48-2.245 1.73-.987 1.892zm-.555-35.775c2.673 1.39 5.349-4.053 2.17-3.43-.83 1.073-1.509 2.25-2.17 3.43zm4.098 4.91c2.997-4.11-5.297-6.033-5.833-1.466-3.007 6.411-2.263 13.612-1.634 20.428 2.528-1.367 3.867-7.058 4.443-10.6.847-2.832 1.17-5.945 3.024-8.362zm-1.774-4.783c1.064 2.521 3.52-2.005.763-.113-.248.07-.509.073-.763.113zm-1.692 37.419c-4.52-1.256-6.286 4.755-4.644 8.048.214 1.684.269 6.656 1.938 3 2.012-3.05 3.855-6.253 5.029-9.728-.496-.822-1.488-1.03-2.323-1.32zm-7.482 14.37c-3.562-2.226-8.117-3.817-9.126-8.395-1.177-3.582-.353-7.563-.862-11.157 1.409 2.585 2.753 5.609 5.077 7.742 2.63 2.643 4.557 5.982 4.894 9.749.095.677.208 1.388.017 2.061zm-2.293-4.289c-2.477-1.567.003 2.65 0 0zm-2.789-2.353c-3.784-.435 2.382 3.741.489.357-.146-.142-.325-.24-.489-.357zm7.516 3.669c-.906-6.488-2.042-13.233-.08-19.647.442-2.471.46-7.904-.078-8.619.458 5.738-1.245 11.311-2.098 16.915-.502 7.362 2.212 14.936-.36 22.112 1.186 2.678 5.616-.142 3.366-2.485-.256-2.758-.375-5.53-.75-8.276zM40.324 60.58c2.59 3.44.507-3.358-.562-4.163-.238 1.396.39 2.789.562 4.163zm-.003-7.451c1.214-3.214-3.755-1.708-1.882.847.478 1.315 1.993.108 1.882-.847zm20.807-12.834c-1.491.769-1.839 5.704-.456 2.217-.016-.195 1.438-3.94.456-2.217zm-18.461 2.666c1.942 1.97.175-3.578-1.174-3.878-2.945-3.538.859 3.945 1.174 3.878zm18.334 15.373c-1.346 1.413-1.092 6.668-1.715 6.383.633-4.398-1.517 4.702.239.92.585-2.407 1.834-4.757 1.476-7.303zm-.438 11.488c.212 2.652-6.336.42-2.45 1.748 1.852 1.675 2.904.367 2.45-1.748zM42.598 50.681c-3.831-1.31.604 5.212 0 0zm1.203-25.613c1.19.78 3.634 2.23 1.77-.113-.402-1.498-3.13-4.491-1.77.113zm7.07 38.944c1.698-5.292-2.068-10.081-4.574-14.397-1.002-1.357-3.09-6.041-3.941-4.66.164 4.29 6.72 8.065 2.84 12.023-1.81 3.6-1.084 7.665-.225 11.399.348 3.322.857 6.92 3.441 9.313 2.56 3.456.275-3.225 1-4.735.225-3.019.963-5.964 1.459-8.943zm-8.049-9.397c.341 1.31 1.712 5.532 1.67 1.897.188-1.504-1.214-6.427-1.816-2.392-.049.185.106.328.146.495zm-.323-22.614c.13 1.575 2.385 7.467 3.146 3.575-1.397-2.921-1.902-6.094-1.61-9.246 2.509-.372 3.558 4.843 4.704 6.978 1.333 4.523 1.46 9.301 2.262 13.936.394 3.203.954 8.616.47 10.502-1.446-4.2-4.558-7.563-6.526-11.445-.94-4.146-2.693-8.231-2.214-12.566a22.538 22.538 0 00-.232-1.734zm3.792 9.427c3.078.422-1.387-4.798-.221-.823.042.281.151.548.221.823zm-4.339-2.71c.964-1.533-1.439-6.915-1.434-2.548-.043 1.058.879 1.764 1.434 2.548zm.28-3.192c.846-1.22-1.242-3.954-.453-1.27l.221.637zm-1.91 25.99c-1.248 4.2 1.742 8.004 4.05 11.205 1.457-3.993-1.318-8.456-4.05-11.205zm-.144-6.33c1.254 1.82 1.925 8.098 3.186 7.616-.002-2.456.607-9.022-2.852-8.2l-.334.584z"
    fill="#3d3c3c" />
</svg>