<svg viewBox="18.423 17.473 63.466 65.606" width="64" height="64" xmlns="http://www.w3.org/2000/svg">
  <path
    d="M54.129 17.473c-3.245-.424-4.201 4.019-7.15 2.358-2.19 1.616-5.723.876-6.555 4.447-1.017 1.394-.922 5.351-1.709 5.484-1.996-2.473-6.175-4.23-8.73-1.546-1.34 1.014-3.176 4.592-1.025 1.653.747-1.802 5.464-3.117 4.946-1.907-2.583.92-3.081 4.897-6.062 3.644-2.88 1.522-6.336 3.073-6.334 7.196-.338 1.548-.509 5.96-.25 5.912.503-3.229.58-6.82 2.693-9.495-.043 1.562-.402 6.326.202 5.635.118-1.5.64 2.931-1.139 2.744-2.352 2-4.702 4.335-4.498 7.702-.204 1.283-.055 6.34.168 2.393.015-2.346 2.282-6.266 2.994-7.02-1.003 2.685-.761 5.623-.934 8.433.31-1.857 1.055-2.933.285-.398-.752 1.52-1.314 3.278-.824 5.055.39-1.82.903-2.892.527-.295-.21 1.287.544 6.176.528 2.578.334-1.692-.016-4.214.46-3.726.103-.738-.275-4.901.301-2.667-.092-1.69-.047-3.463.203-.84.058-1.404.671-6.83.743-2.82.129-1.272 1.26-5.926.328-.887.51-1.116 1.314-2.707.794-.435-.297 1.278-.208 1.657.342.454-.087.74-.85 3.468-.094 1.403.423-.017-.931 5.086-.34 4.553.3.176.293 5.405.76 5.107-.112-1.95-.389-6.007.053-6.634.63 2.582.419-1.532.757.544.58 1.225-.81 5.05.471 2.034 1.166-3.408.817 3.28-.234 4.464-.787 2.723 1.644-2.964.973.329-.106 1.6-1.877 6.47-.014 2.743-.169 2.191-.23 6.57.376 7.396-.315-2.246.192-6.758.291-7.344.634 3.26.587-1.628-.048-2.758-.073-1.63.066-2.594.784-.599.891.03-1.247-3.591-.844-5.159.46.942 1.363 3.304.891.865-.8-1.843-1.466-5.445-.358-3.604-.661-1.677-.528-5.259.167-3.705-.358-1.718.418-.072.178-2.147.908-.751-.709 6.002.453 3.616.025 1.57-.348 4.107.32 3.444.198.986.954 3.459.22-.903 1.392 4.24-1.074-6.395.541-2.87.916.845-1.603-4.908-.023-2.016 1.564 2.836-.741-2.291.071-1.731.881-.558.383 3.874.848 1.746.15 1.046.045 1.512.309.261.11 3.604.323-3.75 1.211-.66.31-2.368.289 2.756-.205 3.665-.56 1.638.354-.086.477.125.245-1.037.935-3.934.728-1.24-1.056 2.436-3.502 4.806-2.766 7.907.864-3.055-.017 3.451.512 4.89.21-.045.026-4.017.33-5.663-.025-2.196.889-4.166 1.1-2.744.062-.853.897-3.804.262-.139.324 1.44-1.785 5.197-.862 4.918 1.61-3.4.476 2.165.383 3.436.122 1.69.83-3.124.82.063.126 1.463-.635 2.877-.025 4.357.193-2.444.515-1.745.616.273.19 1.661.155 6.692.426 2.474.326-1.476-.904-6.856.478-3.114-.379-2.393-1.778-6.268-.17-3.705-.018-2.118-2.305-3.451-1.104-5.831.382 1.305 1.206 3.56.808 1.008-.499-1.459-1.244-6.611-.106-2.756.602 1.57-.4-5.678.532-3.363-.405 2.098 1.218-2.892.667-.096-.647 1.247-1.156 4.523-.692 4.617.394-1.141.704-4.25.663-1.375.156 1.319.489 4.05.441 1.305-.215-4.32.64 4.478.753.409-.265-1.63.102-5.074.137-1.62.091-1.443.707-2.33.479-.208-.497 1.277-.184 5.015.095 1.846.461-1.74.61-1.468.426.186.942-3.476-.808 4.767-.106 1.969.132 1.56.398 2.466.497.445.079 1.308.26-1.812.258.834.509-.992-.15 5.364.315 4.156.36-1.906.237-4.842.684-4.687-.017-.937 1.018 2.036.584-.092.186-1.08-2.42-5.101-.57-2.389 2.21 3.83-1.125-5.318.639-1.079l-.25-1.375c1.964 3.921-1.774-4.566 1.054-2.036 1.761.51.034 4.846.963 4.39-.044-.871-.008-1.821.14-1.065.286-2.211.514.891.586-.961.22-1.734.538 3.18.344 4.375-.12 2.333.971-2.543.637-3.528.255-1.14 1.919 2.517 2.624 3.537 2.208 3.385 1.105 7.46.453 11.124-.967 2.013 1.126 6.281-1.825 6.221-2.9.433-5.738 1.525-8.031 3.376 3.198-.837 6.518-1.234 9.824-1.086l-2.171 1.825c3.464-1.393 7.426-1.506 10.882-.02-.863-1.44-1.812-1.873.461-1.738 1.709-.234 5.444 1.197 5.57.636-2.527-3.266-8.824-1.17-9.212-5.812-1.275-4.23.097-8.575-.122-12.85-.598-2.859-.728-5.94.561-8.642 2.699-1.303 5.685-3.802 7.809-.125-.88-1.871-4.443-3.09-.894-4.122 1.622-.498 4.068 2.214 1.676-.168-2.587-2.166-5.515 3.251-7.147 1.607 1.546-2.879 5.241-7.639 8.631-4.899-.032 1.608-.005 3.73.422.966.87-1.064-.977 5.321-.173 4.118.416-2.031.66-1.709.314.121-.181.92-.39 2.76.32.869-.413 1.411-1.602 7.086-.231 3.254-.326 1.507-1.294 5.118-.633 5.51.143-1.759.885-3.364.792-.652-.053 1.598.322 6.982.38 2.838.181-1.088-.028-6.132.555-3.364-.053-1.328-.634-5.352.237-2.933.26-1.394-1.073-5.052-.285-4.976 1.55 3.885-1.168-5.296.493-.677-.191-2.572-1.14-6.378.26-3.607.19-1.717-1.72-2.819-.862-4.646 1.03 2.849.158-.007.662-1.042 3.45-2.024.717 3.64 1.479 4.565.277-1.456 1.065-2.98.73-.6-.533 1.45-1.278 6.336-.073 2.802.402.175-1.135 4.976-.066 3.338-.205 1.192-1.496 4.786-.89 4.36 1.906-4.437-1.435 6.462.624 2.037-.47 2.388-1.194 6.428-.012 3.622-.062 1.362-.05 5.857.34 4.991.101-1.426.06-5.01.344-5.237 1.155 3.363-1.156-6.604.671-1.809-.462-2.41-1.223-6.25.19-3.714-.38-1.427-1.279-6.946.165-3.255-.138-1.255-1.2-7.205.103-3.577.62-.286-1.116-3.983-.465-5.783.219-1.01 1.326 3.412.963.752-.258-1.402-2.342-4.53-.326-2.958.47 2.11.346-.592.844 1.615.34 1.364.272 3.875.543 1.09.305-2.344-.084 2.971-.31 3.608-.365 2.415 1.387-2.999.37.264-.448 2.53.099 3.048.18 1.976.261 1.483-1.476 5.313-.713 5.065 2.01-3.927-1.016 3.56.147 3.192 1.304-3.574-1.09 6.059.36 2.245.156.923-1.202 5.287-.043 3.406.156 2.21.009 4.457.422 6.652.344-1.843.13-6.475.404-6.657 1.893 4.653-1.512-6.262.705-2.456-.425-1.323-1.291-6.784.167-3.115.73.737-.497-3.003-.707-4.115-.703-4.11 1.834 3.7.56-1.474-.508-1.19-1.174-5.567.336-2.58.813.973-2.114-6.503-.156-2.795 1.567 3.53-1.06-4.05-.405-3.446-.446-2.902 1.355 2.842.762-.171.058-1.412-2.496-3.335.115-2.57-.088 1.799.374 3.406.38 2.685.008 1.057-.128 4.054.208 1.346.731-3.045.216 2.231-.212 3.313-.092 2.491.381.45.819-.816.067 2.414-.712 6.348-.705 7.334 1.223-4.585.007 6.605.696 2.41.38-1.533-.052-6.059.91-2.327.67.888-.417-3.654-.35-4.585.394.65 1.18 3.486.668.226.513 1.844-.696-2.734-.383-3.617-.116-1.65.055-3.643.258-.871.001-2.397.927 3.403.746.502.315-.833-1.039-3.979.125-2.501.379-3.47-.058 4.68.547 1.269-.213 2.29-.59 4.116.183 2.853-.076 2.092.051.44.293 1.104 1.668-4.275-2.117 7.417.524 1.308-.556 1.147-1.075 6.568-.077 2.865.97-.21-1.41 3.197-1.152 4.662-.678 2.8 1.842-3.618 1.038.247-.423 1.257-1.636 6.12-.122 3.082-.005 2.641.155 5.494.223 8 .509-2.268.33-7.044.67-7.847 1.279 2.928-.323-3.064-.193-4.364.7 1.195 1.089 2.644.914.404-.347-1.617-1.134-6.124.316-2.413-.062-1.503-1.646-7.086-.118-3.124.59-1.74-1.023-5.22-.508-5.628.63 3.447.379-3.1 1.076.479.024 1.073-.81 6.272.292 2.682.725-.038-.619 4.119-.429 5.678.484-2.651.882.046.89-2.301.197 2.343.055 6.765.623 7.625.414-1.967.053-6.332.247-6.708.846 3.165-.449-2.914-.104-4.21.573 3.068.065-2.328-.64-3.342-.068-.654-1.37-2.797-.157-1.408-.5-2.15-3.33-3.194-1.926-5.981.456.463.43 3.145.735 1.469.191 1.682 1.372 4.946.78 1.488-.188-1.035.74 1.987.389-.134-.196-1.47-1.116-3.44.206-1.1 1.281 1.978 2.042 6.41 2.375 7.298.04-2.75-.62-5.482-1.524-8.06-1.398-2.61-4.676-2.62-6.484-4.81-1.702-.208-5.047 1.094-4.363-1.991 1.335 2.62-.447-3.193-1.154-4.293-.453-2.219 1.9 4.194 1.112.678-1.353-3.228-3.16-7.389-7.068-8.217-1.845-2.155-4.904-.673-5.837-3.862-.623-.663-1.513-1.083-2.436-1.017zM74.391 52.43c-.015.155.026.02 0 0zm.004.066c-.308.103.207.266 0 0zm-19.93-34.254c2.756-.725 4.273 6.177 1.156 2.809.116-1.619-4.574-3.124-1.156-2.809zm-2.441.352c1.758.158 3.872 2.956.871 1.727-1.093-.28-4.18.82-2-.902l.537-.442zm-1.383 2.977c1.384.12.935 2.075 0 0zm1.336.003c1.948-.777 1.422 2.21 2.679.426.511 1.195-2.65 3.478-2.57.807a8.12 8.12 0 00-.109-1.233zm-4.094.493c.507 1.571-1.093 5.006.328 3.007.738 2.712.261 5.453.367 8.196.337 1.47-.848 4.72-1.182 1.61-.426-1.162.879-4.612-.566-1.847-1.305 3.467 2.422 6.88.291 10.342-1.21-3.373-3.93-6.58-3.098-10.355.403.767-.623-6.043.18-2.443.137.858.1 1.897.621.556-.31 1.383-.154 5.957.27 5.128.314-1.2.326-5.92.479-2.187.493-.267-.105-5.114.482-6.984.61 1.598 1.15 3.682.695.794-.473-4.218.614 2.558.564.445-.007-2.14-.844-4.329.569-6.262zm1.765.617c1.027 1.667 1.089 1.865 1.553 1.48.986 2.251-1.91 6.57-1.5 7.263.396-1.317.06.765.67-1.137 1.279-1.11 1.834-7.303 1.91-3.076-.723 2.429-.568 2.618.1 2.119.598 2.81-.6 4.722-2.944 6.21-.042-3.855-.381-7.869-.757-11.609 1.485 2.526.34-.528.968-1.25zm9.29.117c1.158 1.09.61 5.454.01 1.826-.05-.605-.128-1.222-.01-1.826zm-3.985.086c1.407 1.368.412 3.088.395 4.738 1.055-3.017.208 2.37.112 3.432.081 2.453 1.1-4.27 1.064-.66.282 2.154-.405 1.873-.487 1.43-1.595 1.369-2.393-5.076-1.89-3.679-.958-1.492-1.52-3.419-.108-.922 1.66 2.398-1.128-2.159-.512-2.828a4.15 4.15 0 011.426-1.511zm1.129.137c1.352 2.13 1.643 3.637 2.007 2.11.866 2.845-.065 6.05.942 8.933.184-.569.894-2.583.512-.306-.161 1.675-.463 2.753-1.328.688-.562-1.377-1.664-4.928-1.139-5.289.48 1.854.343 3.244.639.621.325-1.161-2.509-5.548-.266-3.5-.659-1.014-1.367-1.98-1.367-3.257zm-14.391.304c-.375 1.31-.527 6.087.033 2.45 1.284-3.696.54 2.437.053 3.712-.389 1.432.23 4.59-1.388 2.033-2.468-1.972.246-5.473 1.08-7.822zm23.246 1.266c1.85 1.01 1.291 5.572 1.85 5.75.134-1.238-.3-4.561.525-1.726.691 1.852.268 6.41.545 6.581.353-1.192.297-5.386.72-2.12.055 1.342.461 3.782.417 1.074-.076-1.097 1.08 3.335-1.057 2.357-2.085.206-4.087 4.442-3.7.525 1.505 3.362-.101-1.96-.003-2.66.508 1.598 1.204 2.733.782.056-.16-.68-1.117-4.135-.473-2.028-.181-2.015.91 2.899.595.174-.092-1.937-1.296-6.279-.66-6.612.66 1.218 1.576 5.025 1.073 1.592-.144-.997-.283-2.007-.614-2.963zm-20.484.148c.476 1.166.08 4.719-.258 1.547-.073-.532.057-1.06.258-1.547zm17.031.43c1.06.937 1.485 4.608.3 1.604-.577-.392-.203-1.07-.3-1.604zm-2.41 1.465c.874 1.413-.557 3.09-.029.46zm0 1.86l-.004-.024zm0 0c-.022.059.095-.013 0 0zm-6.008-.637c.397.68-.077 3.02.453 1.289.464 1.338.18 2.303.949 2.041.636 1.542 2.085 1.107-.172 1.377-.238-1.7-1.893-2.878-1.23-4.707zm9.86.175c.234 1.289-.12 2.93-.317.473.135 1.2.216-.27.317-.473zm-1.618.293c.174 1.55.228 3.388.43.768.408-1.62 1.166 5.08 1.012 1.338.283 1.148-.534 4.575.322 1.731 1.095.033-1.196 3.985-.018 5.577-.324-1.797.876-3.991.473-.883.116 3.765-1.79 6.971-5.504 8.116-3.092 2.39-1.027-3.338-1.459-5.097-.13-1.777-.21-5.669.842-6.26.83 1.313 2.139 4.255 1.72 4.543 1.66-3.295-.913 5.767.842 1.328.09 1.59-.253 5.75.485 2.14-.025-1.906.284-2.04.351-.043.834-1.153-.943-6.046.344-2.77.508.779-.463-5.031.243-4.636l-.02-1.465c.615 1.72 1.732 2.903.791.285-.748-1.49-1.112-2.993-.854-4.672zm-26.145.059c1.387.14 3.927 2.274 1.052 1.51-1.346-.312-5.895.299-2.457-1.177.55 0 .812-.148 1.405-.333zm24.426.164c.538 1.295-.47 6.563-.636 2.637-.164-.943.267-1.804.636-2.637zM43.05 29.723c.437 1.642-1.13 6.335-.822 2.133.039-.769.191-1.61.822-2.133zm-9.746.305c3.21-.395-.285 2.259-1.289 2.503-3.244.318-.019-2.59 1.289-2.503zm3.274.543c1.853-.086 4.456 3.14 1.529.822-1.597-1.53-4.723 3.702-3.42.084.43-.596 1.18-.872 1.891-.906zm16.523.914c.791 1.482-.51 1.48 0 0zm-15.852.492c1.276.441 4.786 3.33 3.579 3.309-1.458-1.006-7.83-1.46-3.579-3.309zM56.1 33.239c.215 2.614-1.32 5.651-.93 8.599.172 3.462-1.307 6.428-3.64 8.874-1.684 3.955-2.45-2.634-3.052-4.206.342-2.852.745-5.754.762-8.64.673-1.105 4.084-5.498 2.867-1.913-.23 1.756-.24 3.092.438.719-.44 2.674-.646 5.13.117 2.896-.288 1.604-.193 4.083.227 1.096.215 1.647-.13 5.64.456 1.867.48-1.578-.771-6.767.524-2.652-.242-1.177-1.368-6.888-.05-3.383.216 1.34.53 3.757.546 1.117-.306-1.638.627-3.279 1.735-4.374zm-.805.07c-.246 2.228-1.427.077 0 0zm-1.281.23c.761 1.342.063 2.9-.438.62-.633-.522.16-.527.438-.62zm-10.977.188c.85 2.131-.932.906 0 0zm-10.934.152c-.66 1.718-.03 1.41-.067 1.774-.619 1.09-1.07 4.416-.048 1.66.762-.798-1.628 5.402-.67 4.336.503-1.95 1.21-1.64.515.125-.732 4.817-4.299-2.175-3.17-2.485.383 1.96 1.258 2.45 1.375 2.655.97 1.03-2.023-5.948-.443-3.533.327-.345.917 2.597.56-.016-.074-1.598.676-2.682.463-.441.588-1.378.035-3.109 1.485-4.075zm1.789.11c.117.542-.669 3.188-.008.882-.225 1.546.568-.985.215 1.296.113.648.509-3.505 2.349-1.478.836.25-2.133 4.035-1.145 3.74 1.253-3.038-.185 3.031-.485 3.92l.046 1.503c.27-1.53 1.099-3.33.66-.801-.759 1.267-.966 6.438-.16 2.613.264-1.47.629 4.044-1.007 1.324-.678-1.029-.819-2.799-.09-.66.22-1.664-2.379-5.802-1.305-5.342.748 1.532 1.22 2.242.68.145-.558-1.371-1.82-5.39.109-2.506-.634-1.595-1.16-4.859.066-4.137-.129.17.075-.673.075-.499zm-3.977.515c.475.833.551.007.062 1.583-.185 2.53-1.317-1.709-.062-1.583zm8.133 1.242c1.966.707-.678 3.684.281 5.547-.396 3.079.952-1.795.549.34-.655 1.17-.805 5.893-.31 4.872.156-1.14.548-3.06.425-.758-.38 1.471-.05 7.284-2.054 3.39-1.05-1.937-.58-2.642.046-2.1-.43-1.616-1.664-7.126.043-3.055.95.63-1.08-3.696-.852-5.24.862 1.939 1.52 1.744.753-.226-.625-1.08-.293-2.544 1.119-2.77zm-11.266.133c.158 1.159-.314 2.012.774.719.578 1.7-.827 4.607-.825 1.3a5.576 5.576 0 01.051-2.019zm-1.559.3c.177 2.321-1.338 1.583 0 0zm14.7.415c2.682.757 3.814 3.046 1.97 5.334-.494 1.643-.487 2.188.37.405.523-.365-.827 3.378-.509 4.738-.845 1.164-.987 4.705-1.111 4.553.24-2.436-.994-4.701-1.151-7.139.697 1.823 1.957 4.404 1.188 1.114-.19-1.034-1.981-4.645-1.028-3.771.495 2.237 1.175 1.54.619-.407-.94-1.495-.801-5.016-.009-1.482.613 1.59.15-2.83-.339-3.345zm30.14.508c1.338 1.219 2.758 4.202-.201 3.109-1.128-.195.262-2.908.509-.394-.082-.918-1.349-3.739.153-1.715l-.46-1zm1.235.05c2.61-1.128 1.972 5.871 1.125 2.328 1.023 1.58-.829-1.954-1.125-2.328zm-2.97.204c1.495.645 1.157 4.691.138 1.363-.212-.857-1.692-1.119-.138-1.363zm-1.593.668c3.038 2.161-.78 2.905-2.64 3.34.771-1.192 1.602-2.363 2.64-3.34zm-27.648 0c.314 1.349-1.23 4.854-.554 1.518.125-.523.273-1.054.554-1.518zm35.391.004c.267.85.233 1.828.25.327.564 1.145.926 4.865.006 2.078-.094-.8-.262-1.596-.256-2.405zm-48.64.378c.395 1.433.061 2.924.532 2.376.406 1.92-.21-3.675.461-.726-.53 2.613 1.744-2.01.936 1.216-.963 4.067-3.185-.928-1.929-2.866zm37.687.395c.477 1.658-.873 2.636-.109.436zM25.03 40.278c.559.998.129 3.95-.199 1.219l.074-.65zm18.805.086c1.584 2.686 2.48 5.708 2.729 8.81.362 2.904 1.853 8.114.448 9.781-1.499-2.048-3.226-3.973-3.594-6.554-.039-1.373 1.149 3.421.715.418-.258-1.487-1.374-5.18-.92-5.215.654 1.051.78 4.204.86 1.348.112-1.251-1.751-5.324-.774-4.44.388 1.16 1.049 2.757.752.521-.265-1.199-1.396-5.52-.138-2.355.52 1.748.019-2.17-.078-2.314zM32 43.004c.851 1.589-1.168 2.96 0 .001zm30.953.688c.216 1.751-.966 3.558-1.992 1.343.92-1.243 1.488-1.316 1.141.34.19-.603.494-1.164.851-1.683zm-36.828.89c-.744 1.167-2.301 3.47-1.36.851.344-.514.597-1.02 1.36-.851zm1.711.035c.626 1.941-2.531 2.73-.664.492l.29-.285zm.781.043c3.492.17.96 4.121 0 0zm13.781.051c.246 1.73-1.206 2.832 0 0zm-19.27.973c-.255 1.656-1.165 6.223-1.934 5.754.094-1.353.621-5.404 1.137-2.696-.129-1.069.122-2.205.797-3.058zm19.391 1.512c.822 1.467-1.54 5.367-.06 5.379.235-1.779.318-2.104.431-.243-1.048 2.418-2.955-1.187-1.293-2.316-.026.675.175.707.169 1.281.36-1.348.568-2.72.753-4.101zm-3.105.69c1.034 1.559.836 2.414.73 3.251.377 2.698-1.217-3.224-.73-3.251zm-5.84 1c1.11.382 1.424 4.018 1.264 1.166-.375-.803 1.94 2.36-.193 2.178-2.157 1.942-.284-2.31-1.071-3.344zm42.352.895c.122.06-.052.047 0 0zm-37.137.008c.369 1.59-.434 1.291 0 0zm-2.676 2.965c1.01.318.36.85-.16 2.336.022-.78.06-1.561.16-2.336zm-9.574.695c.791 1.17-1.221 5.002-.441 1.588.09-.54.138-1.113.441-1.588zm11.578 5.707c.813 1.68.075 3.256.003.504z"
    fill="#3d3c3c" />
</svg>