<svg xmlns="http://www.w3.org/2000/svg" viewBox="0 0 78.272 84.645"><g id="indice-orange"><path d="M47.594 24.86c0 .233-.197.944-.59 2.123a480.704 480.704 0 0 1-2.656 7.733c-.432 1.22-.69 2.027-.77 2.421a88.378 88.378 0 0 1-1.414 4.134 133.507 133.507 0 0 0-1.533 4.367 82.222 82.222 0 0 1-1.42 4.31 747.465 747.465 0 0 0-1.533 4.307c-.317.869-.65 1.828-1.004 2.891a51.805 51.805 0 0 1-1.004 2.775 465.383 465.383 0 0 1-2.125 5.963 97.53 97.53 0 0 0-2.005 6.08c-.475 1.42-.944 2.5-1.418 3.246-.472.75-1.003 1.277-1.593 1.596-.592.313-1.281.49-2.065.531-.791.039-1.656.057-2.602.057-1.258 0-2.3-.039-3.124-.117-.829-.08-1.536-.371-2.127-.885-.589-.512-1.141-1.279-1.653-2.303-.51-1.021-1.045-2.479-1.596-4.369a706.87 706.87 0 0 0-7.376-21.898A1642.262 1642.262 0 0 1 .37 25.92a1.306 1.306 0 0 1-.12-.589v-.471c0-.787.194-1.379.592-1.773a2.828 2.828 0 0 1 1.416-.77 8.266 8.266 0 0 1 1.713-.175h3.718c.707 0 1.377.139 2.008.414.627.274 1.198.747 1.71 1.415.513.668.923 1.636 1.239 2.892.158.554.415 1.379.769 2.479.354 1.104.647 2.087.884 2.952a113.068 113.068 0 0 1 1.773 5.611 413.78 413.78 0 0 0 1.888 6.312c.314.871.63 1.873.946 3.014a45.059 45.059 0 0 0 1.062 3.365c.077.234.216.725.412 1.476.196.746.472 1.514.826 2.301.355.785.75 1.494 1.182 2.121.431.633.965.947 1.596.947.551 0 1.059-.314 1.533-.947.472-.627.884-1.314 1.239-2.064.354-.744.63-1.455.826-2.123.197-.666.297-1.041.297-1.123.235-.863.51-1.828.824-2.891.314-1.063.592-2.025.827-2.893.237-.629.513-1.416.829-2.361.312-.946.589-1.85.824-2.716.632-1.811 1.26-3.7 1.893-5.666a172.94 172.94 0 0 0 1.888-6.378c.39-1.493.783-2.654 1.178-3.483.393-.825.865-1.433 1.416-1.829.551-.393 1.222-.628 2.008-.707a29.256 29.256 0 0 1 2.832-.119h1.479c.59 0 1.16.077 1.711.235a3.574 3.574 0 0 1 1.418.769c.391.357.588.928.588 1.715z" fill="#fa0" stroke="#504d49" stroke-width=".5"/><path d="M78.272 77.531c0 3.926-9.189 7.113-20.523 7.113-11.336 0-20.524-3.188-20.524-7.113 0-3.928 9.188-7.109 20.524-7.109 11.333 0 20.523 3.182 20.523 7.109z" fill="#7c9fbb"/><ellipse cx="62.658" cy="78.139" rx="9.595" ry="2.639" fill="#63839b"/><path d="M62.657 16.214c0 .048-.053.154-.15.313a.903.903 0 0 1-.459.354c-.545.246-1.17.382-1.885.407-.715.025-1.445.036-2.189.036a96.9 96.9 0 0 1-1.733-.018 8.76 8.76 0 0 1-1.732-.203 1.903 1.903 0 0 1-.865-.425c-.238-.212-.355-.366-.355-.464V1.072c0-.05.049-.148.152-.293.102-.15.254-.276.457-.372.543-.248 1.189-.375 1.934-.388C56.579.004 57.293 0 57.973 0c.473 0 1.033.004 1.68.019.645.013 1.274.079 1.883.203.342.072.613.208.816.407.207.198.305.345.305.443v15.142z" fill="#504d49"/><path d="M62.657 36.682c0 .051-.053.157-.15.316a.89.89 0 0 1-.459.35c-.545.249-1.17.385-1.885.41-.715.023-1.445.035-2.189.035-.547 0-1.121-.005-1.733-.017a8.687 8.687 0 0 1-1.732-.202 1.869 1.869 0 0 1-.865-.428c-.238-.21-.355-.364-.355-.464v-15.14c0-.049.049-.147.152-.295a1.15 1.15 0 0 1 .457-.371c.543-.246 1.189-.375 1.934-.389a102.378 102.378 0 0 1 3.823 0c.645.014 1.274.08 1.883.205.342.073.613.209.816.407.207.195.305.346.305.443v15.14z" fill="#fa0" stroke="#504d49" stroke-width=".5"/><path d="M62.657 57.152c0 .047-.053.154-.15.314a.905.905 0 0 1-.459.352c-.545.246-1.17.383-1.885.408a75.085 75.085 0 0 1-3.922.017 8.611 8.611 0 0 1-1.732-.205 1.89 1.89 0 0 1-.865-.422c-.238-.213-.355-.367-.355-.465V42.013c0-.05.049-.15.152-.296.102-.15.254-.273.457-.373.543-.247 1.189-.376 1.934-.39.748-.012 1.463-.018 2.143-.018.473 0 1.033.006 1.68.018.645.014 1.274.082 1.883.205.342.072.613.208.816.407.207.198.305.345.305.446v15.14zM62.657 77.389c0 .051-.053.156-.15.314a.897.897 0 0 1-.459.357c-.545.244-1.17.379-1.885.404a65.179 65.179 0 0 1-3.922.019 8.76 8.76 0 0 1-1.732-.203 1.878 1.878 0 0 1-.865-.428c-.238-.211-.355-.363-.355-.465V62.252c0-.049.049-.148.152-.297.102-.15.254-.273.457-.371.543-.246 1.189-.375 1.934-.389.748-.012 1.463-.018 2.143-.018.473 0 1.033.006 1.68.018.645.014 1.274.08 1.883.205.342.072.613.209.816.404.207.199.305.348.305.447v15.138z" fill="#504d49"/></g></svg>