<svg xmlns="http://www.w3.org/2000/svg" viewBox="0 0 78.271 84.645"><g id="indice-vert"><path d="M47.594 24.86c0 .233-.197.944-.59 2.123a480.704 480.704 0 0 1-2.656 7.733c-.432 1.22-.689 2.027-.77 2.421a89.557 89.557 0 0 1-1.414 4.134 133.507 133.507 0 0 0-1.533 4.367 82.549 82.549 0 0 1-1.42 4.311 678.77 678.77 0 0 0-1.533 4.307c-.316.869-.65 1.828-1.004 2.891a54.563 54.563 0 0 1-1.004 2.775 481.208 481.208 0 0 1-2.125 5.963 97.792 97.792 0 0 0-2.006 6.08c-.475 1.42-.943 2.5-1.418 3.246-.473.75-1.004 1.277-1.594 1.596-.592.313-1.281.49-2.064.531-.791.039-1.656.057-2.602.057-1.258 0-2.301-.039-3.125-.117-.828-.08-1.535-.371-2.127-.885-.59-.512-1.141-1.279-1.654-2.303-.51-1.021-1.043-2.479-1.596-4.369a710.439 710.439 0 0 0-7.375-21.898A1676.56 1676.56 0 0 1 .369 25.92a1.32 1.32 0 0 1-.119-.589v-.471c0-.787.193-1.379.592-1.773a2.828 2.828 0 0 1 1.416-.77 8.273 8.273 0 0 1 1.713-.175H7.69a4.96 4.96 0 0 1 2.008.415c.627.274 1.197.747 1.709 1.415.514.668.924 1.636 1.24 2.892.158.554.414 1.379.768 2.479.356 1.105.648 2.087.885 2.952a114.139 114.139 0 0 1 1.773 5.611 410.58 410.58 0 0 0 1.887 6.312c.315.871.631 1.873.947 3.014.31 1.141.666 2.264 1.06 3.365.078.234.217.725.412 1.477.197.746.473 1.514.826 2.301.356.785.75 1.494 1.182 2.121.432.633.967.947 1.596.947.551 0 1.059-.314 1.533-.947.473-.627.885-1.314 1.24-2.064.353-.744.629-1.455.826-2.123.195-.666.297-1.041.297-1.123.234-.863.51-1.828.824-2.891.313-1.063.592-2.025.826-2.893a71.07 71.07 0 0 0 .828-2.361c.313-.946.59-1.85.824-2.716.633-1.811 1.262-3.7 1.893-5.666a170.943 170.943 0 0 0 1.889-6.378c.391-1.493.783-2.654 1.178-3.483.395-.825.865-1.433 1.416-1.829.553-.393 1.223-.628 2.008-.706a29.256 29.256 0 0 1 2.832-.119h1.479c.59 0 1.16.077 1.711.235a3.584 3.584 0 0 1 1.418.768c.391.355.589.926.589 1.713z" fill="#28d761" stroke="#504d49" stroke-width=".5"/><path d="M78.271 77.531c0 3.926-9.189 7.113-20.523 7.113-11.336 0-20.523-3.188-20.523-7.113 0-3.928 9.187-7.109 20.523-7.109 11.334 0 20.523 3.182 20.523 7.109z" fill="#7c9fbb"/><ellipse cx="62.657" cy="78.139" rx="9.595" ry="2.639" fill="#63839b"/><path d="M62.656 16.214c0 .048-.053.154-.15.313a.903.903 0 0 1-.459.354c-.545.246-1.17.382-1.885.407-.715.025-1.445.036-2.189.036-.547 0-1.121-.007-1.732-.018a8.751 8.751 0 0 1-1.732-.203 1.903 1.903 0 0 1-.865-.425c-.238-.212-.355-.366-.355-.464V1.072c0-.05.049-.148.152-.293.102-.15.254-.276.457-.372.543-.248 1.189-.375 1.934-.388C56.578.004 57.293 0 57.973 0c.473 0 1.033.004 1.68.019.645.013 1.273.079 1.883.203.342.072.613.208.816.407.207.198.305.345.305.443v15.142zM62.656 36.682c0 .051-.053.157-.15.316a.89.89 0 0 1-.459.35c-.545.249-1.17.385-1.885.41-.715.022-1.445.035-2.189.035-.547 0-1.121-.005-1.732-.017a8.679 8.679 0 0 1-1.732-.202 1.869 1.869 0 0 1-.865-.428c-.238-.21-.355-.364-.355-.464v-15.14c0-.049.049-.147.152-.295a1.16 1.16 0 0 1 .457-.371c.543-.246 1.189-.375 1.934-.389a102.378 102.378 0 0 1 3.823 0c.645.014 1.273.08 1.883.205.342.073.613.209.816.407.207.195.305.346.305.443v15.14zM62.656 57.152c0 .047-.053.154-.15.314a.905.905 0 0 1-.459.352c-.545.246-1.17.383-1.885.408a74.944 74.944 0 0 1-3.921.017 8.603 8.603 0 0 1-1.732-.205 1.89 1.89 0 0 1-.865-.422c-.238-.213-.355-.367-.355-.465V42.013c0-.05.049-.15.152-.296.102-.15.254-.273.457-.373.543-.247 1.189-.376 1.934-.39.748-.012 1.463-.018 2.143-.018.473 0 1.033.006 1.68.018.645.014 1.273.082 1.883.205.342.072.613.208.816.407.207.198.305.345.305.446v15.14z" fill="#504d49"/><path d="M62.656 77.389c0 .051-.053.156-.15.314a.897.897 0 0 1-.459.357c-.545.244-1.17.379-1.885.404a67.95 67.95 0 0 1-3.921.019 8.751 8.751 0 0 1-1.732-.203 1.878 1.878 0 0 1-.865-.428c-.238-.211-.355-.363-.355-.465V62.252c0-.049.049-.148.152-.297.102-.15.254-.273.457-.371.543-.246 1.189-.375 1.934-.389.748-.012 1.463-.018 2.143-.018.473 0 1.033.006 1.68.018.645.014 1.273.08 1.883.205.342.072.613.209.816.404.207.199.305.348.305.447v15.138z" fill="#28d761" stroke="#504d49" stroke-width=".5"/></g></svg>