<svg xmlns="http://www.w3.org/2000/svg" viewBox="0 0 78.272 84.895"><g id="indice-rouge"><path d="M47.594 25.11c0 .233-.196.944-.589 2.123a576.842 576.842 0 0 1-1.299 3.838 365.141 365.141 0 0 1-1.358 3.895c-.432 1.22-.689 2.027-.77 2.421a90.678 90.678 0 0 1-1.413 4.134 131.995 131.995 0 0 0-1.533 4.367 82.954 82.954 0 0 1-1.421 4.312 747.465 747.465 0 0 0-1.533 4.307c-.316.869-.649 1.828-1.004 2.891a52.449 52.449 0 0 1-1.004 2.775 476.542 476.542 0 0 1-2.125 5.963 97.53 97.53 0 0 0-2.005 6.08c-.475 1.419-.944 2.499-1.418 3.246-.472.75-1.003 1.277-1.593 1.596-.592.313-1.281.489-2.065.53-.79.04-1.656.058-2.602.058-1.258 0-2.3-.039-3.124-.117-.829-.08-1.536-.372-2.127-.885-.589-.513-1.141-1.279-1.653-2.303-.51-1.022-1.044-2.479-1.596-4.369a706.134 706.134 0 0 0-7.377-21.9A1671.14 1671.14 0 0 1 .371 26.171a1.303 1.303 0 0 1-.12-.589v-.471c0-.787.194-1.379.592-1.773a2.828 2.828 0 0 1 1.416-.77 8.266 8.266 0 0 1 1.713-.175H7.69a4.96 4.96 0 0 1 2.008.415c.627.274 1.198.747 1.71 1.415.513.668.923 1.636 1.239 2.892.158.554.415 1.379.769 2.479.354 1.104.647 2.087.884 2.952a113.068 113.068 0 0 1 1.773 5.611 413.96 413.96 0 0 0 1.888 6.313c.314.87.63 1.873.946 3.014a44.882 44.882 0 0 0 1.061 3.364c.077.235.216.726.412 1.478.196.746.472 1.513.826 2.3.355.786.75 1.495 1.182 2.122.431.633.965.947 1.596.947.551 0 1.059-.314 1.533-.947.472-.627.884-1.314 1.239-2.064.354-.745.63-1.455.826-2.124.197-.666.297-1.041.297-1.122.235-.864.51-1.828.824-2.891.314-1.062.592-2.025.827-2.893.237-.63.513-1.416.829-2.362.312-.946.589-1.85.824-2.716.632-1.811 1.26-3.7 1.893-5.666a172.94 172.94 0 0 0 1.888-6.378c.39-1.493.783-2.654 1.178-3.483.393-.825.865-1.433 1.416-1.829.551-.393 1.222-.628 2.008-.707a29.242 29.242 0 0 1 2.832-.119h1.479c.589 0 1.159.077 1.71.235a3.59 3.59 0 0 1 1.419.769c.391.354.588.925.588 1.712z" fill="red" stroke="#504d49" stroke-width=".5"/><path d="M78.272 77.782c0 3.926-9.19 7.113-20.524 7.113-11.335 0-20.523-3.188-20.523-7.113 0-3.928 9.188-7.109 20.523-7.109 11.334-.001 20.524 3.181 20.524 7.109z" fill="#7c9fbb"/><ellipse cx="62.658" cy="78.389" rx="9.594" ry="2.639" fill="#63839b"/><path d="M62.656 16.464c0 .048-.053.154-.15.313a.896.896 0 0 1-.458.354c-.546.246-1.171.382-1.886.407-.714.025-1.444.036-2.19.036-.547 0-1.121-.007-1.732-.018a8.76 8.76 0 0 1-1.732-.203 1.9 1.9 0 0 1-.864-.425c-.239-.212-.356-.366-.356-.464V1.322c0-.05.05-.148.152-.293.102-.15.254-.276.458-.372.542-.248 1.188-.375 1.933-.388.748-.015 1.463-.019 2.143-.019.473 0 1.033.004 1.68.019.644.013 1.274.079 1.883.203.343.072.613.208.816.407.207.198.305.345.305.443v15.142z" fill="red" stroke="#504d49" stroke-width=".5"/><path d="M62.656 36.932c0 .051-.053.157-.15.316a.884.884 0 0 1-.458.35c-.546.249-1.171.385-1.886.41a71.04 71.04 0 0 1-2.19.035c-.547 0-1.121-.005-1.732-.017a8.687 8.687 0 0 1-1.732-.202 1.865 1.865 0 0 1-.864-.428c-.239-.21-.356-.364-.356-.464v-15.14c0-.049.05-.147.152-.295s.254-.271.458-.371c.542-.246 1.188-.375 1.933-.389a102.378 102.378 0 0 1 3.823 0c.644.014 1.274.08 1.883.205.343.073.613.209.816.407.207.195.305.346.305.443v15.14zM62.656 57.403c0 .047-.053.154-.15.313a.894.894 0 0 1-.458.353c-.546.246-1.171.383-1.886.408a71.04 71.04 0 0 1-3.922.017 8.611 8.611 0 0 1-1.732-.205 1.886 1.886 0 0 1-.864-.422c-.239-.213-.356-.367-.356-.465v-15.14c0-.05.05-.15.152-.296.102-.15.254-.273.458-.373.542-.247 1.188-.376 1.933-.39.748-.012 1.463-.018 2.143-.018.473 0 1.033.006 1.68.018.644.014 1.274.082 1.883.205.343.072.613.208.816.407.207.198.305.345.305.446v15.142zM62.656 77.639c0 .051-.053.156-.15.314a.9.9 0 0 1-.458.357c-.546.244-1.171.378-1.886.404a67.857 67.857 0 0 1-3.922.019 8.76 8.76 0 0 1-1.732-.203 1.884 1.884 0 0 1-.864-.428c-.239-.211-.356-.363-.356-.465V62.502c0-.05.05-.148.152-.297.102-.15.254-.273.458-.371.542-.246 1.188-.375 1.933-.389a93.232 93.232 0 0 1 3.823 0c.644.014 1.274.08 1.883.204.343.072.613.209.816.405.207.199.305.348.305.447v15.138z" fill="#504d49"/></g></svg>