<?xml version="1.0" encoding="UTF-8"?>
<svg version="1.1" xmlns="http://www.w3.org/2000/svg" width="542" height="353">
<path d="M0 0 C178.86 0 357.72 0 542 0 C542 116.49 542 232.98 542 353 C363.14 353 184.28 353 0 353 C0 236.51 0 120.02 0 0 Z " fill="#ED7C01" transform="translate(0,0)"/>
<path d="M0 0 C0.69233356 -0.00044186 1.38466713 -0.00088371 2.0979805 -0.00133896 C47.07451039 -0.01633819 95.18842166 1.19895125 139.0625 12.25 C140.32416992 12.56360474 140.32416992 12.56360474 141.61132812 12.88354492 C145.05421529 14.80285164 145.99044108 17.50025323 147.39453125 21.0078125 C147.6760051 21.67086395 147.95747894 22.33391541 148.2474823 23.01705933 C149.13994245 25.12984181 150.00760645 27.25182056 150.875 29.375 C151.47690697 30.81187284 152.0804051 32.24808026 152.68554688 33.68359375 C154.16308401 37.19828348 155.61847147 40.72141835 157.0625 44.25 C154.06429418 47.33153506 151.0749223 50.14350012 147.62109375 52.703125 C146.79512695 53.31857178 145.96916016 53.93401855 145.11816406 54.56811523 C144.25416992 55.20563721 143.39017578 55.84315918 142.5 56.5 C141.6140918 57.1587915 140.72818359 57.81758301 139.81542969 58.49633789 C138.04914147 59.80978535 136.28174995 61.12175059 134.51318359 62.43212891 C131.27001192 64.83785278 128.04018488 67.26106356 124.8125 69.6875 C123.22916667 70.875 121.64583333 72.0625 120.0625 73.25 C117.36498072 70.59758974 114.76938664 67.97879713 112.4375 65 C104.65085888 55.86947158 94.2548759 49.37984871 84.0625 43.25 C83.27875 42.77820313 82.495 42.30640625 81.6875 41.8203125 C56.8448362 28.24557121 25.41253569 25.19715472 -1.71899414 32.7722168 C-25.50000217 39.83019358 -48.48948078 54.52005258 -62.5546875 75.11328125 C-67.89629662 79.90321599 -77.29640623 79.8427247 -84.20703125 80.87890625 C-86.22846073 81.18940273 -88.24977768 81.50063249 -90.27099609 81.8125 C-91.32631531 81.97492188 -92.38163452 82.13734375 -93.46893311 82.3046875 C-117.63771267 86.0453026 -141.56687053 90.55568857 -165.46905518 95.71868896 C-167.83754131 96.22848477 -170.20725447 96.73201281 -172.57763672 97.23291016 C-191.43441446 101.22185873 -210.13812344 105.7300046 -228.8125 110.5 C-229.81705231 110.75657379 -230.82160461 111.01314758 -231.8565979 111.27749634 C-246.00519994 114.9010163 -260.10227477 118.61818429 -274 123.125 C-279.5661772 124.91061982 -285.14050061 126.60423221 -290.77783203 128.15039062 C-304.34534578 131.87836401 -317.63837059 136.41743473 -330.95996094 140.93188477 C-331.80011246 141.21557419 -332.64026398 141.49926361 -333.50587463 141.79154968 C-335.10523532 142.3319945 -336.70369503 142.87511476 -338.3011322 143.42121887 C-343.71384006 145.25 -343.71384006 145.25 -345.9375 145.25 C-346.78815262 141.9080221 -347.55685736 138.55212181 -348.3125 135.1875 C-348.55355469 134.24455078 -348.79460937 133.30160156 -349.04296875 132.33007812 C-350.53405926 125.42777205 -350.53405926 125.42777205 -348.89355469 122.18896484 C-347.35367337 120.35992029 -345.74398305 118.8139389 -343.9375 117.25 C-343.0403125 116.35796875 -342.143125 115.4659375 -341.21875 114.546875 C-334.28622129 108.19854815 -327.11654346 102.2883689 -319.65478516 96.57324219 C-318.02248673 95.31548594 -316.40572194 94.04048786 -314.79296875 92.7578125 C-301.3044331 82.1366511 -286.86180752 72.72616353 -271.9375 64.25 C-270.60114502 63.48864746 -270.60114502 63.48864746 -269.23779297 62.71191406 C-244.23640023 48.58445711 -218.18425294 37.32069412 -190.9375 28.25 C-189.9077002 27.90630371 -188.87790039 27.56260742 -187.81689453 27.20849609 C-171.50827612 21.83283239 -155.00069884 17.67574756 -138.24414062 13.97998047 C-135.41469441 13.35534637 -132.58971602 12.71467895 -129.765625 12.06640625 C-109.37535359 7.46836649 -88.65022605 5.09872362 -67.875 3.0625 C-67.01735046 2.97782471 -66.15970093 2.89314941 -65.27606201 2.8059082 C-43.49218628 0.67484852 -21.89014188 0.00641893 0 0 Z " fill="#FEFEFD" transform="translate(366.9375,108.75)"/>
<path d="M0 0 C16.24400289 13.57933853 29.01345086 33.92712471 31.51806641 55.26904297 C33.5959331 82.48485606 28.82047364 106.9735342 11.15087891 128.30029297 C-3.65846973 144.99926176 -24.92460338 157.43141483 -47.48193359 159.26904297 C-75.72200393 160.59611957 -98.5087624 153.67674822 -120.11083984 134.99560547 C-136.92946402 119.15082964 -146.82169998 97.21576284 -147.67333984 74.15185547 C-148.25776179 46.69965004 -139.27379252 24.6864073 -120.41943359 4.76904297 C-110.03253136 -5.35997755 -98.20739159 -12.18580537 -84.48193359 -16.73095703 C-83.03753906 -17.23949219 -83.03753906 -17.23949219 -81.56396484 -17.75830078 C-53.71784374 -25.91296782 -22.16657448 -17.91916841 0 0 Z " fill="#FEFDFC" transform="translate(453.48193359375,181.73095703125)"/>
<path d="M0 0 C-0.26554687 1.09957031 -0.53109375 2.19914063 -0.8046875 3.33203125 C-1.16161327 4.82548381 -1.51837519 6.31897554 -1.875 7.8125 C-2.13603516 8.89047852 -2.13603516 8.89047852 -2.40234375 9.99023438 C-2.95712204 12.32235794 -3.48425571 14.65893687 -4 17 C-4.18747803 17.83418457 -4.37495605 18.66836914 -4.56811523 19.52783203 C-6.12528218 27.11352931 -6.34737729 34.52139432 -6.3125 42.25 C-6.30758545 43.53471191 -6.3026709 44.81942383 -6.29760742 46.14306641 C-6.13028778 59.67107385 -3.48555194 71.3549463 1.01171875 84.05078125 C2 87 2 87 2 89 C-87.1 89 -176.2 89 -268 89 C-271.375 74.375 -271.375 74.375 -271 69 C-260.8599619 64.47260864 -250.43752572 61.0709151 -239.875 57.6875 C-238.0805136 57.10937612 -236.28608052 56.53108672 -234.49169922 55.95263672 C-229.33090938 54.29195446 -224.16623111 52.64366631 -219 51 C-218.31655518 50.78220886 -217.63311035 50.56441772 -216.92895508 50.34002686 C-202.60323767 45.77837816 -188.20765617 41.6155713 -173.671875 37.77734375 C-167.94411918 36.26261423 -162.23934599 34.67400294 -156.53588867 33.07055664 C-127.78576467 25.01646464 -98.78230382 18.54478896 -69.54344177 12.55247498 C-64.31468477 11.48027189 -59.09102882 10.38781305 -53.87109375 9.2734375 C-10.27667564 0 -10.27667564 0 0 0 Z " fill="#FEFDFC" transform="translate(289,209)"/>
<path d="M0 0 C3.57520867 2.78796076 6.81579537 5.77634505 10 9 C10.63550781 9.61359375 11.27101563 10.2271875 11.92578125 10.859375 C23.02518362 22.37715839 27.5258192 38.13957295 27.27709961 53.79003906 C26.67806436 72.41648694 18.74474674 87.6650876 5.4375 100.625 C-7.23878141 111.66127544 -23.56713147 116.42122539 -40.13671875 116.28125 C-57.02925897 115.05145941 -71.60883435 107.31477368 -83 95 C-83.45761719 94.54753906 -83.91523438 94.09507812 -84.38671875 93.62890625 C-94.95860901 82.50206112 -99.60117599 66.78552036 -99.5 51.75 C-99.49427979 50.75000977 -99.48855957 49.75001953 -99.48266602 48.71972656 C-99.09487634 32.50306753 -92.32639857 19.01762626 -81.3515625 7.1953125 C-58.40741338 -14.22430844 -26.2768317 -17.35842718 0 0 Z " fill="#EC7801" transform="translate(432,199)"/>
<path d="M0 0 C5.37104009 -0.09964824 10.74152986 -0.17183292 16.11328125 -0.21972656 C17.93661892 -0.23971364 19.75989356 -0.26691286 21.58300781 -0.30175781 C42.96231957 -0.69983919 42.96231957 -0.69983919 52.4375 6.375 C55.99449598 10.01875198 57.80677326 13.22771606 58.36328125 18.33203125 C58.17615373 31.15746384 56.496419 42.58812637 47.69921875 52.625 C38.12104385 61.68181235 28.99988575 64.18084663 16.1015625 64.09765625 C15.26660248 64.0962413 14.43164246 64.09482635 13.57138062 64.09336853 C10.92254958 64.08780174 8.2738052 64.07525547 5.625 64.0625 C3.82161581 64.0574807 2.01823029 64.05291855 0.21484375 64.04882812 C-4.19013721 64.0378432 -8.59505394 64.02060163 -13 64 C-12.39813426 57.96004758 -11.52807857 52.09253591 -10.29296875 46.15234375 C-10.12630203 45.3373793 -9.95963531 44.52241486 -9.78791809 43.68275452 C-9.43602638 41.96721458 -9.08213265 40.25208418 -8.72631836 38.53735352 C-8.19410643 35.96937668 -7.66981158 33.39987844 -7.14648438 30.83007812 C-5.02307974 20.4819822 -2.65826148 10.22373964 0 0 Z " fill="#FEFDFB" transform="translate(451,22)"/>
<path d="M0 0 C5.22864743 -0.07476069 10.45697628 -0.12888763 15.68603516 -0.16479492 C17.46082996 -0.17978093 19.23558837 -0.20017682 21.01025391 -0.22631836 C45.16490533 -0.57293829 45.16490533 -0.57293829 54 7 C57.79126245 12.46776566 58.68590563 16.52980269 58.5625 23.125 C58.55081787 23.9595874 58.53913574 24.7941748 58.52709961 25.65405273 C58.12292222 37.09987178 54.36265621 45.71227871 46.32421875 53.91015625 C37.8592472 61.52151723 28.65512341 64.50385635 17.37109375 64.29296875 C16.49598648 64.28872391 15.62087921 64.28447906 14.71925354 64.28010559 C11.95833928 64.26347981 9.19818895 64.22585966 6.4375 64.1875 C4.55144293 64.17243228 2.66537427 64.15874756 0.77929688 64.14648438 C-3.81409083 64.11362937 -8.40691647 64.06196135 -13 64 C-9.01498272 42.59225275 -4.53553281 21.29654953 0 0 Z " fill="#FEFDFC" transform="translate(225,22)"/>
<path d="M0 0 C5.92350015 3.75507599 9.11980136 8.06541102 11 14.875 C12.33964614 28.61416156 9.33271665 40.79671082 1 51.875 C-6.46351775 59.94241234 -15.5487549 64.32429208 -26.48828125 65.1328125 C-35.12675512 65.393269 -43.02745683 65.14927115 -49.8359375 59.296875 C-56.29698939 52.30002857 -57.57584306 45.85956536 -57.34765625 36.50390625 C-56.2572003 25.12150654 -51.07265074 14.45389401 -42.8125 6.5625 C-31.23943747 -2.83703843 -14.1090154 -6.53470187 0 0 Z " fill="#FEFDFC" transform="translate(401,23.125)"/>
<path d="M0 0 C10.23 0 20.46 0 31 0 C32.983286 11.72725635 34.52469716 23.11742892 35 35 C35.66 35 36.32 35 37 35 C37.1134375 33.95714844 37.226875 32.91429687 37.34375 31.83984375 C38.11269588 25.69775319 39.32716719 19.63777395 40.5 13.5625 C40.72558594 12.36689453 40.95117188 11.17128906 41.18359375 9.93945312 C41.51037109 8.23885742 41.51037109 8.23885742 41.84375 6.50390625 C42.04162109 5.47080322 42.23949219 4.4377002 42.44335938 3.37329102 C43 1 43 1 44 0 C45.56172745 -0.08685603 47.12729344 -0.10702219 48.69140625 -0.09765625 C49.63564453 -0.09443359 50.57988281 -0.09121094 51.55273438 -0.08789062 C52.54595703 -0.07951172 53.53917969 -0.07113281 54.5625 -0.0625 C55.55958984 -0.05798828 56.55667969 -0.05347656 57.58398438 -0.04882812 C60.05604849 -0.03700007 62.52799518 -0.02051849 65 0 C62.21360627 15.23501746 59.10704459 30.38195799 55.75 45.5 C55.57178711 46.30642944 55.39357422 47.11285889 55.20996094 47.94372559 C54.70058244 50.2444888 54.18710719 52.54429136 53.671875 54.84375 C53.51789246 55.53845398 53.36390991 56.23315796 53.20526123 56.94891357 C52.11587444 61.76825113 52.11587444 61.76825113 51 64 C41.1 64 31.2 64 21 64 C19.74265166 58.97060663 18.66040564 54.37881241 17.9296875 49.3125 C17.77226074 48.23613281 17.61483398 47.15976563 17.45263672 46.05078125 C17.2620166 44.71402344 17.07139648 43.37726563 16.875 42 C15.946875 35.565 15.946875 35.565 15 29 C12.69 40.55 10.38 52.1 8 64 C1.07 64 -5.86 64 -13 64 C-12.44855327 56.03028178 -11.15543337 48.6228502 -9.25 40.875 C-6.77818275 30.54008496 -4.56866918 20.18057142 -2.56152344 9.74560547 C-2.27390137 8.26278076 -2.27390137 8.26278076 -1.98046875 6.75 C-1.81442139 5.87859375 -1.64837402 5.0071875 -1.47729492 4.109375 C-1 2 -1 2 0 0 Z " fill="#FEFDFB" transform="translate(156,22)"/>
<path d="M0 0 C1.2776825 -0.01441132 1.2776825 -0.01441132 2.58117676 -0.02911377 C3.51022827 -0.03336365 4.43927979 -0.03761353 5.39648438 -0.04199219 C6.82728333 -0.0505423 6.82728333 -0.0505423 8.2869873 -0.05926514 C10.31468593 -0.0687365 12.34240009 -0.07525755 14.37011719 -0.07910156 C17.44950056 -0.0887397 20.52819728 -0.11971438 23.60742188 -0.15136719 C25.57877208 -0.15790387 27.55012707 -0.16315172 29.52148438 -0.16699219 C30.43434204 -0.17933899 31.34719971 -0.19168579 32.28771973 -0.20440674 C38.88083353 -0.18184521 45.96183161 0.39430034 51.02539062 5.02050781 C53.20534749 9.85701131 52.71812886 15.4418289 51.36914062 20.48144531 C49.01141407 25.99328606 45.23408 28.51375444 39.99023438 31.16113281 C40.8075 31.84175781 41.62476563 32.52238281 42.46679688 33.22363281 C45.59374842 36.86367548 45.55532647 38.43884504 45.36523438 43.16113281 C45.32140625 44.47210938 45.27757812 45.78308594 45.23242188 47.13378906 C45.15647358 48.47651594 45.07577155 49.81898267 44.99023438 51.16113281 C44.9103125 52.43859375 44.83039063 53.71605469 44.74804688 55.03222656 C44.52789109 58.07771488 44.26359834 61.11995873 43.99023438 64.16113281 C35.74023438 64.16113281 27.49023438 64.16113281 18.99023438 64.16113281 C18.99023438 57.23113281 18.99023438 50.30113281 18.99023438 43.16113281 C16.68023437 42.83113281 14.37023437 42.50113281 11.99023438 42.16113281 C11.8690625 42.85078125 11.74789063 43.54042969 11.62304688 44.25097656 C8.67253715 60.79652727 8.67253715 60.79652727 6.99023438 64.16113281 C-0.92976563 64.16113281 -8.84976562 64.16113281 -17.00976562 64.16113281 C-15.88455676 52.90904421 -15.88455676 52.90904421 -14.90234375 48.17651367 C-14.6854187 47.11939682 -14.46849365 46.06227997 -14.24499512 44.97312927 C-14.01268188 43.86856888 -13.78036865 42.76400848 -13.54101562 41.62597656 C-13.30064575 40.46610733 -13.06027588 39.3062381 -12.81262207 38.11122131 C-12.30742083 35.67950472 -11.79969254 33.24831189 -11.28955078 30.81762695 C-10.50585919 27.08000203 -9.73187332 23.34045798 -8.95898438 19.60058594 C-8.46606575 17.23393049 -7.97259609 14.86738973 -7.47851562 12.50097656 C-7.24620239 11.37819809 -7.01388916 10.25541962 -6.77453613 9.09861755 C-6.55761108 8.06987015 -6.34068604 7.04112274 -6.1171875 5.98120117 C-5.9270105 5.07204453 -5.7368335 4.16288788 -5.54089355 3.22618103 C-4.62969922 -0.31658169 -3.40463075 0.03090147 0 0 Z " fill="#FEFDFC" transform="translate(296.009765625,21.8388671875)"/>
<path d="M0 0 C10.89 0 21.78 0 33 0 C34.57885705 3.15771409 34.56626168 6.61941122 34.90234375 10.09375 C34.98496964 10.91387573 35.06759552 11.73400146 35.15272522 12.57897949 C35.41801908 15.21896475 35.67797445 17.85944201 35.9375 20.5 C36.19342662 23.07285091 36.45049489 25.6455844 36.7081604 28.21826172 C36.8794061 29.92815338 37.0499577 31.6381147 37.21981812 33.34814453 C37.88251759 39.97371873 38.60995408 46.59088514 39.39378357 53.20324707 C39.81505107 56.8560619 40 60.30719722 40 64 C31.42 64 22.84 64 14 64 C14 60.7 14 57.4 14 54 C7.73 54 1.46 54 -5 54 C-5.66 55.98 -6.32 57.96 -7 60 C-7.66 61.32 -8.32 62.64 -9 64 C-16.92 64 -24.84 64 -33 64 C-31.56559271 59.69677813 -30.22066662 56.23130939 -28.1640625 52.28125 C-27.60001709 51.19440918 -27.03597168 50.10756836 -26.45483398 48.98779297 C-25.85098877 47.83682129 -25.24714355 46.68584961 -24.625 45.5 C-23.99735112 44.29710354 -23.36982985 43.0941405 -22.74243164 41.89111328 C-15.38034339 27.80727167 -7.71751155 13.89152078 0 0 Z " fill="#FEFDFC" transform="translate(101,22)"/>
<path d="M0 0 C1.5631897 0.00785522 1.5631897 0.00785522 3.15795898 0.01586914 C4.28266602 0.0190918 5.40737305 0.02231445 6.56616211 0.02563477 C7.75016602 0.03401367 8.93416992 0.04239258 10.15405273 0.05102539 C11.34192383 0.05553711 12.52979492 0.06004883 13.75366211 0.06469727 C16.69967499 0.07652864 19.64558954 0.09301252 22.59155273 0.11352539 C22.07629653 8.90968487 20.09884091 17.31901498 18.09155273 25.86352539 C17.60747122 27.9454144 17.12517938 30.02770011 16.64465332 32.1104126 C16.21035627 33.98950042 15.77121924 35.86746772 15.33178711 37.74536133 C14.65002471 40.84747018 14.1137073 43.98059802 13.59155273 47.11352539 C20.85155273 47.11352539 28.11155273 47.11352539 35.59155273 47.11352539 C34.59155273 56.11352539 34.59155273 56.11352539 32.59155273 64.11352539 C16.75155273 64.11352539 0.91155273 64.11352539 -15.40844727 64.11352539 C-14.75614894 57.59054215 -14.01306436 51.45795657 -12.66625977 45.09790039 C-12.49722137 44.27960754 -12.32818298 43.4613147 -12.15402222 42.6182251 C-11.61860632 40.03230578 -11.0761283 37.44792862 -10.53344727 34.86352539 C-10.17751934 33.14877689 -9.82204754 31.43393364 -9.46704102 29.71899414 C-8.61522415 25.6111578 -7.75393338 21.50538805 -6.8885498 17.40039062 C-6.42652051 15.19961341 -5.97091707 12.99759692 -5.5168457 10.79516602 C-5.25162109 9.52350586 -4.98639648 8.2518457 -4.71313477 6.94165039 C-4.48352051 5.83208984 -4.25390625 4.7225293 -4.01733398 3.5793457 C-3.17038508 0.14944035 -3.17038508 0.14944035 0 0 Z " fill="#FEFDFC" transform="translate(33.408447265625,21.886474609375)"/>
<path d="M0 0 C1.5631897 0.00785522 1.5631897 0.00785522 3.15795898 0.01586914 C4.28266602 0.0190918 5.40737305 0.02231445 6.56616211 0.02563477 C7.75016602 0.03401367 8.93416992 0.04239258 10.15405273 0.05102539 C11.34192383 0.05553711 12.52979492 0.06004883 13.75366211 0.06469727 C16.69967499 0.07652864 19.64558954 0.09301252 22.59155273 0.11352539 C21.95979699 6.58718291 20.94731306 12.86370313 19.63061523 19.23071289 C19.4393808 20.16851593 19.24814636 21.10631897 19.05111694 22.07254028 C18.64794451 24.04445059 18.24277339 26.01595321 17.83569336 27.98706055 C17.21994395 30.97208547 16.61233139 33.95868417 16.00561523 36.94555664 C15.61026941 38.87404206 15.21445139 40.80243076 14.81811523 42.73071289 C14.63987213 43.60815155 14.46162903 44.48559021 14.27798462 45.38961792 C12.95980838 51.73712964 11.30571661 57.82825784 9.59155273 64.11352539 C1.34155273 64.11352539 -6.90844727 64.11352539 -15.40844727 64.11352539 C-14.81089302 58.73553716 -14.23662825 53.75634733 -13.17407227 48.51586914 C-12.93197021 47.312771 -12.68986816 46.10967285 -12.44042969 44.87011719 C-12.18237549 43.60981689 -11.92432129 42.3495166 -11.65844727 41.05102539 C-11.39039742 39.73051493 -11.12257804 38.40995766 -10.85498047 37.08935547 C-10.17619578 33.74559944 -9.49202344 30.40296823 -8.80670166 27.06054688 C-8.17874601 23.99054148 -7.55806092 20.91906252 -6.93579102 17.84790039 C-6.48976007 15.66548936 -6.04317676 13.48319112 -5.59594727 11.30102539 C-5.389375 10.28194092 -5.18280273 9.26285645 -4.9699707 8.21289062 C-4.77822266 7.28677979 -4.58647461 6.36066895 -4.38891602 5.40649414 C-4.22286865 4.59720459 -4.05682129 3.78791504 -3.88574219 2.95410156 C-3.16778963 0.18548555 -2.92417325 0.13783483 0 0 Z " fill="#FEFDFB" transform="translate(423.408447265625,21.886474609375)"/>
<path d="M0 0 C24.09 0 48.18 0 73 0 C70.01592986 8.95221043 64.88304369 14.79512004 56.51074219 19.14477539 C46.35496875 24.08723427 36.12981464 25.8357646 24.97265625 23.31640625 C22.50496678 22.37689099 20.29050314 21.31175978 18 20 C16.81664062 19.32904297 16.81664062 19.32904297 15.609375 18.64453125 C8.82404215 14.45425119 3.66574473 9.12783697 0 2 C0 1.34 0 0.68 0 0 Z " fill="#FEFDFD" transform="translate(68,317)"/>
<path d="M0 0 C3.3125 0.4375 3.3125 0.4375 4.3125 1.4375 C5.29169828 9.68011847 4.40597342 16.5073649 1.5 24.1875 C1.23952881 24.87851807 0.97905762 25.56953613 0.71069336 26.28149414 C-0.70964442 29.78050304 -1.47251423 31.29417615 -4.6875 33.4375 C-7.25 33.75 -7.25 33.75 -9.6875 33.4375 C-12.5877122 29.0871817 -12.22835924 25.54927936 -11.6875 20.4375 C-7.52541109 0.89284538 -7.52541109 0.89284538 0 0 Z " fill="#F08608" transform="translate(381.6875,37.5625)"/>
<path d="M0 0 C3.1875 0.3125 3.1875 0.3125 5.5625 1.6875 C9.11804808 7.43107767 7.35064778 14.28531318 5.9375 20.5625 C3.17407 30.52875911 3.17407 30.52875911 -1.51953125 33.33203125 C-4.38424297 34.65281413 -6.64914742 35.3125 -9.8125 35.3125 C-9.11852092 27.86799711 -7.79774584 20.63688376 -6.3125 13.3125 C-6.08691406 12.16910156 -5.86132812 11.02570312 -5.62890625 9.84765625 C-5.41105469 8.76355469 -5.19320313 7.67945313 -4.96875 6.5625 C-4.77087891 5.57765625 -4.57300781 4.5928125 -4.36914062 3.578125 C-3.5622969 0.2941295 -3.4547066 0.38385629 0 0 Z " fill="#F08708" transform="translate(475.8125,36.6875)"/>
<path d="M0 0 C3.20449558 -0.21848833 5.42100153 -0.27649344 8.34765625 1.12109375 C11.31171954 4.49157706 10.46238432 8.29194402 10.32421875 12.5703125 C9.64136044 19.79380162 7.78344278 26.39653846 3 32 C-0.75220181 34.34512613 -2.52961855 35 -7 35 C-5.60375454 27.07181412 -4.034332 19.18950337 -2.375 11.3125 C-2.14554688 10.21744141 -1.91609375 9.12238281 -1.6796875 7.99414062 C-1.12108732 5.32915225 -0.56117263 2.66444765 0 0 Z " fill="#F08607" transform="translate(247,37)"/>
<path d="M0 0 C0.33 0 0.66 0 1 0 C1 7.26 1 14.52 1 22 C-2.3 22 -5.6 22 -9 22 C-6.66062389 14.33204498 -3.45231194 7.22862726 0 0 Z " fill="#F08606" transform="translate(113,38)"/>
<path d="M0 0 C6.625 -0.25 6.625 -0.25 10 2 C9.74327938 5.7652358 9.40674134 7.55839511 6.8125 10.375 C4 12 4 12 -2 12 C-1.34 8.04 -0.68 4.08 0 0 Z " fill="#F08A0F" transform="translate(313,37)"/>
<path d="M0 0 C0.33 0 0.66 0 1 0 C1 3.63 1 7.26 1 11 C1.66 11 2.32 11 3 11 C2.34 14.96 1.68 18.92 1 23 C0.01 22.34 -0.98 21.68 -2 21 C-1.84660156 20.34644531 -1.69320313 19.69289063 -1.53515625 19.01953125 C-0.86620406 15.24507841 -0.64592703 11.51094004 -0.4375 7.6875 C-0.39431641 6.94693359 -0.35113281 6.20636719 -0.30664062 5.44335938 C-0.20129568 3.62908536 -0.10021684 1.8145645 0 0 Z " fill="#F39E38" transform="translate(283,39)"/>
<path d="M0 0 C0.66 0.33 1.32 0.66 2 1 C1.34 2.32 0.68 3.64 0 5 C7.92 5 15.84 5 24 5 C24 5.33 24 5.66 24 6 C15.75 6 7.5 6 -1 6 C-1.33 4.68 -1.66 3.36 -2 2 C-1.34 1.34 -0.68 0.68 0 0 Z " fill="#F39F3D" transform="translate(68,81)"/>
</svg>
