<svg height="32" width="32" xmlns="http://www.w3.org/2000/svg" viewBox="0 0 511.843 511.843">
	<path
		d="M84.201 61.399c-1.156-4.64-5.342-8.076-10.333-8.076H10.661C4.772 53.323 0 58.095 0 63.984c0 5.889 4.772 10.661 10.661 10.661H65.62l60.771 234.624 20.642-5.342L84.201 61.399z"
		fill="#424953" />
	<path
		d="M198.268 267.031h-96.635c-11.731 0-22.767 9.481-24.516 21.087l-12.902 85.334c-1.75 11.605 6.412 21.087 18.143 21.087h115.91c11.73 0 21.329-9.591 21.329-21.306v-84.881c0-11.714-9.599-21.321-21.329-21.321z"
		fill="#fecd57" />
	<path d="M490.522 330.559C294.77 223.935 104.288 223.935 104.288 223.935l49.407 190.613 336.827 1.328v-85.317z"
		fill="#ec5564" />
	<path
		d="M170.612 447.866c-29.397 0-53.312-23.914-53.312-53.327 0-29.397 23.915-53.296 53.312-53.296 29.405 0 53.32 23.898 53.32 53.296 0 29.413-23.915 53.327-53.32 53.327z"
		fill="#646c77" />
	<path
		d="M170.612 330.559c-35.333 0-63.98 28.647-63.98 63.98 0 35.349 28.647 63.98 63.98 63.98 35.341 0 63.98-28.632 63.98-63.98 0-35.333-28.639-63.98-63.98-63.98zm0 106.655c-23.516 0-42.651-19.15-42.651-42.675 0-23.509 19.135-42.644 42.651-42.644 23.524 0 42.659 19.135 42.659 42.644 0 23.525-19.135 42.675-42.659 42.675z"
		fill="#424953" />
	<path
		d="M458.531 447.866c-23.523 0-42.658-19.135-42.658-42.643 0-23.524 19.135-42.675 42.658-42.675 23.509 0 42.644 19.15 42.644 42.675 0 23.509-19.135 42.643-42.644 42.643z"
		fill="#646c77" />
	<path
		d="M458.531 351.896c-29.443 0-53.327 23.868-53.327 53.328 0 29.428 23.884 53.296 53.327 53.296 29.445 0 53.312-23.868 53.312-53.296.001-29.46-23.866-53.328-53.312-53.328zm0 85.318c-17.65 0-31.99-14.371-31.99-31.99 0-17.651 14.34-31.99 31.99-31.99 17.636 0 31.99 14.339 31.99 31.99.001 17.619-14.354 31.99-31.99 31.99z"
		fill="#424953" />
	<g fill="#e5e8ec">
		<path
			d="M469.185 405.224c0 5.873-4.765 10.652-10.653 10.652s-10.668-4.779-10.668-10.652c0-5.904 4.779-10.685 10.668-10.685s10.653 4.78 10.653 10.685zM181.28 394.539c0 5.904-4.78 10.685-10.668 10.685s-10.661-4.78-10.661-10.685c0-5.873 4.772-10.653 10.661-10.653s10.668 4.78 10.668 10.653z" />
	</g>
	<path
		d="M203.118 233.65c20.017 44.55 64.777 75.603 116.785 75.603 27.585 0 53.14-8.748 74.039-23.603-72.399-28.389-139.481-43.721-190.824-52z"
		fill="#424953" />
	<g fill="#f5ba45">
		<path
			d="M93.846 309.691H73.86l-3.226 21.321h23.212c5.889 0 10.661-4.765 10.661-10.669 0-5.873-4.772-10.652-10.661-10.652zM65.8 363.002h23.243a10.663 10.663 0 0010.668-10.669c0-5.873-4.78-10.652-10.668-10.652H69.026L65.8 363.002z" />
	</g>
</svg>