<?xml version="1.0"?>
<svg xmlns="http://www.w3.org/2000/svg" viewBox="0 0 64 64" style="enable-background:new 0 0 64 64">
  <path d="m43 40.5c-.8 0-1.5-.7-1.5-1.5v-3.5h3v3.5c0 .8-.7 1.5-1.5 1.5" style="fill:#f4d0b1"/>
  <path d="m44 36v3c0 .6-.4 1-1 1s-1-.4-1-1v-3h2m1-1h-4v4c0 1.1.9 2 2 2s2-.9 2-2v-4z" style="fill:#e5b795"/>
  <path d="m27.5 64c-1.9 0-3.5-1.6-3.5-3.5v-1.5h7v1.5c0 1.9-1.5 3.5-3.5 3.5"/>
  <path d="m36.5 64c-1.9 0-3.5-1.6-3.5-3.5v-1.5h7v1.5c0 1.9-1.5 3.5-3.5 3.5"/>
  <path d="m21 40.5c-.8 0-1.5-.7-1.5-1.5v-3.5h3v3.5c0 .8-.6 1.5-1.5 1.5" style="fill:#f4d0b1"/>
  <path d="m22 36v3c0 .6-.4 1-1 1-.6 0-1-.4-1-1v-3h2m1-1h-4v4c0 1.1.9 2 2 2 1.1 0 2-.9 2-2v-4z" style="fill:#e5b795"/>
  <path d="m35.8 17h-7.5c-5.1 0-9.2 4.1-9.2 9.2v.6c0 .1-.1.3-.1.4v9.8h4v-5.4-3.8c0-1.2.4-2.2 1-3.1v12.3h16v-12.4c.5.7.9 1.6 1 2.5 0 .1 0 .1 0 .1v9.8h4v-9.2-.6-1.1c0-5-4.1-9.1-9.2-9.1" style="fill:#000c51"/>
  <ellipse cx="32" cy="17" rx="3.5" ry="2" style="fill:#fff"/>
  <path d="m32 16.5c-4.1 0-7.5-3.4-7.5-7.5s3.4-7.5 7.5-7.5 7.5 3.4 7.5 7.5-3.3 7.5-7.5 7.5" style="fill:#f4d0b1"/>
  <path d="m32 2c3.9 0 7 3.1 7 7s-3.1 7-7 7-7-3.1-7-7 3.2-7 7-7m0-1c-4.4 0-8 3.6-8 8 0 4.4 3.6 8 8 8s8-3.6 8-8c0-4.4-3.6-8-8-8z" style="fill:#e5b795"/>
  <path d="m25.9 11.3c-.3-.3-.5-.8-.5-1.4l.1-2.7-1 2.4c0-.2 0-.4 0-.6 0-4.1 3.4-7.5 7.5-7.5 3.4 0 6.2 2.2 7.2 5.3-.5-1.2-1.4-2.6-1.7-2.9-.9-.8-1.6-1.2-2.2-1.3l-1.1-.1.6.9c.1.2-.1 1-1.8 2.3-.7.5-1.5 1-2.3 1.5-2.1 1.4-4.1 2.7-4.8 4.1" style="fill:#e67831"/>
  <path d="m32 2c.5 0 .9 0 1.4.1l.9 1.4c0 .2-.2.8-1.6 1.8-.7.5-1.4 1-2.3 1.5-1.8 1.2-3.5 2.3-4.4 3.5 0-.1 0-.2 0-.3l.2-4.8c1.2-1.9 3.4-3.2 5.8-3.2m0-1c-4.4 0-8 3.6-8 8 0 1 .2 1.9.5 2.8.1-1.1.4-1.9.4-1.9-.1 1.6 1.3 2.3 1.3 2.3 0-2 4.4-4.2 7-6.1s1.9-3 1.9-3c.7.1 1.7.9 1.9 1.1s1.4 1.9 1.8 3.1c.2.7.6 3 .5 4.7.4-.9.6-2 .6-3.1.1-4.3-3.5-7.9-7.9-7.9z" style="fill:#dd6022"/>
  <g style="fill:#fff;stroke-width:.99995145">
    <path d="m28.63028 16.18004h3.06972v1.5h-4z"/>
    <path d="m32.35823 18.69811h4.04177v1.5h-4z"/>
  </g>
  <path d="m24 37v22h7v-15c0-.6.5-1 1-1s1 .4 1 1v15h7v-22h-16" style="fill:#527ecc"/>
</svg>
