<?xml version="1.0"?>
<svg xmlns="http://www.w3.org/2000/svg" viewBox="0 0 64 64" style="enable-background:new 0 0 64 64">
  <defs>
    <linearGradient id="0" gradientUnits="userSpaceOnUse" x1="36.5008" y1="47.7955" x2="27.4992" y2="32.2045">
      <stop offset=".5" style="stop-color:#fff;stop-opacity:0"/>
      <stop offset=".5" style="stop-color:#fff"/>
    </linearGradient>
  </defs>
  <g style="fill:#212121">
    <path d="m2 20h60v7h-60z"/>
    <ellipse cx="32" cy="20" rx="30" ry="18"/>
  </g>
  <path d="M32,42.5C16.3,42.5,3.5,35.1,3.5,26S16.3,9.5,32,9.5S60.5,16.9,60.5,26S47.7,42.5,32,42.5z" style="fill:#4b4a4b"/>
  <path d="m32 10c15.4 0 28 7.2 28 16s-12.6 16-28 16-28-7.2-28-16 12.6-16 28-16m0-1c-16 0-29 7.6-29 17s13 17 29 17 29-7.6 29-17-13-17-29-17z" style="fill:#555"/>
  <path d="m32 58.5c-14.6 0-26.5-11.9-26.5-26.5v-8c4.3-6.3 14.9-10.5 26.5-10.5s22.2 4.2 26.5 10.5v8c0 14.6-11.9 26.5-26.5 26.5" style="fill:#f5f5f5"/>
  <path d="m32 14c11.4 0 21.7 4.1 26 10.1v7.9c0 14.3-11.7 26-26 26s-26-11.7-26-26v-7.9c4.3-6 14.6-10.1 26-10.1m0-1c-12.3 0-22.8 4.5-27 10.8v8.2c0 14.9 12.1 27 27 27s27-12.1 27-27v-8.2c-4.2-6.3-14.7-10.8-27-10.8z" style="fill:#c8c8c8"/>
  <path d="M32,53.5c-7.4,0-13.5-6.1-13.5-13.5S24.6,26.5,32,26.5S45.5,32.6,45.5,40S39.4,53.5,32,53.5z" style="fill:#262626"/>
  <path d="m32 27c7.2 0 13 5.8 13 13s-5.8 13-13 13-13-5.8-13-13 5.8-13 13-13m0-1c-7.7 0-14 6.3-14 14s6.3 14 14 14 14-6.3 14-14-6.3-14-14-14z" style="fill:#0d0d0d"/>
  <path d="m32 49.5c-5.2 0-9.5-4.3-9.5-9.5s4.3-9.5 9.5-9.5 9.5 4.3 9.5 9.5-4.3 9.5-9.5 9.5" style="fill:#505050"/>
  <path d="m32 31c5 0 9 4 9 9s-4 9-9 9-9-4-9-9 4-9 9-9m0-1c-5.5 0-10 4.5-10 10s4.5 10 10 10 10-4.5 10-10-4.5-10-10-10z" style="fill:#1a171b"/>
  <circle cx="32" cy="40" r="4.5" style="fill:#3a3a3a"/>
  <path d="m32 36c2.2 0 4 1.8 4 4s-1.8 4-4 4-4-1.8-4-4 1.8-4 4-4m0-1c-2.8 0-5 2.2-5 5s2.2 5 5 5c2.8 0 5-2.2 5-5s-2.2-5-5-5z" style="fill:#1a171b"/>
  <circle cx="33" cy="39" r="1" style="fill:#fff"/>
  <g style="opacity:.15">
    <circle cx="32" cy="40" r="9" style="fill:url(#0)"/>
  </g>
</svg>
