<?xml version="1.0"?>
<svg xmlns="http://www.w3.org/2000/svg" viewBox="0 0 64 64" style="enable-background:new 0 0 64 64">
  <defs>
    <linearGradient id="0" gradientUnits="userSpaceOnUse" x1="8" x2="56">
      <stop/>
      <stop offset="1" style="stop-opacity:.6"/>
    </linearGradient>
  </defs>
  <path d="m32 27.64c-14.35 0-23.5-2.06-23.5-3.48s9.15-3.48 23.5-3.48 23.5 2.06 23.5 3.48-9.15 3.48-23.5 3.48" style="fill:#efe918"/>
  <path d="m32 21.17c14.31 0 21.88 1.91 22.93 2.98-1.06 1.07-8.62 2.98-22.93 2.98s-21.88-1.91-22.93-2.98c1.05-1.07 8.62-2.98 22.93-2.98m0-1c-13.25 0-24 1.78-24 3.98s10.75 3.98 24 3.98c13.25 0 24-1.78 24-3.98s-10.75-3.98-24-3.98z" style="fill:#bfbfbf"/>
  <path d="m25.61 16.94c-1.09 0-1.98-.88-1.98-1.97 0-.29.07-.59.21-.87l.22-.44-.48.08c-.05.01-.1.01-.16.02l-.09.01-.12.07c-.33.33-.76.51-1.22.51-.94 0-1.7-.76-1.7-1.69 0-.23.05-.45.13-.66l.04-.08-.03-.09c-.1-.31-.14-.57-.14-.83 0-1.55 1.26-2.81 2.82-2.81.39 0 .76.08 1.12.23l.24.1.09-.24c.4-1.07 1.4-1.76 2.54-1.76 1.5 0 2.72 1.22 2.72 2.71 0 .4-.1.8-.29 1.19l-.09.18.16.12c.61.47.96 1.17.96 1.93 0 1.34-1.1 2.43-2.45 2.43-.07 0-.14-.01-.2-.02l-.24-.03-.11.23c-.15.98-.97 1.68-1.95 1.68" style="fill:#fce857"/>
  <path d="m27.1 6.76c1.36 0 2.47 1.1 2.47 2.46 0 .36-.09.73-.26 1.08l-.18.37.33.25c.55.42.87 1.05.87 1.73 0 1.2-.99 2.18-2.2 2.18-.05 0-.11-.01-.16-.02l-.1-.01-.48-.06-.07.47c-.13.84-.85 1.46-1.71 1.46-.96 0-1.73-.77-1.73-1.72 0-.25.06-.51.19-.76l.44-.88-.97.17c-.04.01-.08.01-.12.01l-.07.01-.18.02-.13.13c-.28.28-.65.44-1.04.44-.8 0-1.45-.65-1.45-1.44 0-.2.04-.39.11-.56l.07-.17-.06-.18c-.09-.28-.13-.52-.13-.76 0-1.41 1.15-2.56 2.57-2.56.35 0 .7.07 1.02.21l.48.21.19-.49c.35-.96 1.26-1.59 2.3-1.59m0-.5c-1.27 0-2.35.8-2.78 1.92-.37-.16-.79-.25-1.22-.25-1.69 0-3.07 1.37-3.07 3.06 0 .32.06.62.15.91-.1.23-.15.49-.15.76 0 1.07.87 1.94 1.95 1.94.55 0 1.04-.23 1.4-.59.08-.01.16-.01.24-.02-.15.3-.24.63-.24.98 0 1.23 1 2.22 2.23 2.22 1.11 0 2.03-.82 2.2-1.88.1.01.2.03.31.03 1.49 0 2.7-1.2 2.7-2.68 0-.87-.42-1.63-1.06-2.12.2-.4.32-.83.32-1.3-.01-1.65-1.34-2.98-2.98-2.98z" style="fill:#f4d731"/>
  <path d="m34.91 28.88c-1.42 0-2.73-.72-3.49-1.94l-.17-.27-.22.23c-.65.68-1.52 1.05-2.45 1.05-1.86 0-3.37-1.51-3.37-3.36 0-1.85 1.51-3.36 3.37-3.36.98 0 1.92.44 2.57 1.21l.21.25.19-.26c.78-1.09 2.03-1.74 3.36-1.74 2.27 0 4.12 1.84 4.12 4.1 0 2.25-1.85 4.09-4.12 4.09" style="fill:#f8eec9"/>
  <path d="m34.91 20.93c2.13 0 3.87 1.73 3.87 3.85 0 2.12-1.73 3.85-3.87 3.85-1.34 0-2.56-.68-3.28-1.82l-.34-.54-.44.46c-.6.63-1.4.97-2.26.97-1.72 0-3.12-1.4-3.12-3.11s1.4-3.11 3.12-3.11c.91 0 1.78.41 2.38 1.12l.42.49.37-.52c.72-1.03 1.9-1.64 3.15-1.64m0-.5c-1.48 0-2.78.73-3.57 1.85-.67-.78-1.65-1.29-2.76-1.29-2 0-3.62 1.62-3.62 3.61 0 2 1.62 3.61 3.62 3.61 1.04 0 1.97-.44 2.63-1.13.77 1.23 2.13 2.06 3.7 2.06 2.41 0 4.37-1.95 4.37-4.35 0-2.41-1.96-4.36-4.37-4.36z" style="fill:#eddca6"/>
  <path d="m33.98 16.94c-.82 0-1.56-.46-1.93-1.19l-.08-.15-.31.03c-.06.01-.13.02-.2.02-2.07 0-3.75-1.67-3.75-3.73s1.68-3.73 3.75-3.73c.05 0 .1.01.15.01l.42.04-.02-.29c-.01-.14-.01-.17-.01-.21 0-1.29 1.06-2.34 2.35-2.34s2.35 1.05 2.35 2.34c0 .4-.11.78-.32 1.15l-.33.58.63-.22c.29-.1.56-.15.83-.15 1.4 0 2.54 1.13 2.54 2.53 0 .97-.55 1.84-1.44 2.26l-.11.05-.03.12c-.32 1.36-1.52 2.31-2.92 2.31l-.1-.01-.11.06c-.39.34-.86.52-1.36.52" style="fill:#f9ecb0"/>
  <path d="m34.35 5.65c1.16 0 2.1.94 2.1 2.09 0 .35-.1.7-.28 1.03l-.66 1.15 1.26-.43c.27-.09.51-.14.75-.14 1.26 0 2.29 1.02 2.29 2.28 0 .87-.5 1.65-1.3 2.04l-.22.1-.05.23c-.29 1.25-1.39 2.12-2.63 2.12l-.05-.01h-.03-.18l-.14.12c-.35.29-.77.45-1.21.45-.72 0-1.38-.41-1.71-1.06l-.15-.3-.34.03c-.05 0-.1.01-.15.02-.05.01-.11.02-.16.02-1.93 0-3.5-1.56-3.5-3.48 0-1.92 1.57-3.48 3.5-3.48.04 0 .08.01.11.01.05.01.1.01.15.02l.59.04-.05-.58c0-.04-.01-.07-.01-.11 0-.02-.01-.04-.01-.07-.03-1.15.92-2.09 2.08-2.09m0-.5c-1.44 0-2.6 1.16-2.6 2.59 0 .07.02.14.02.22-.1-.01-.2-.03-.3-.03-2.21 0-4 1.78-4 3.98 0 2.2 1.79 3.98 4 3.98.12 0 .24-.03.36-.04.4.79 1.21 1.33 2.15 1.33.59 0 1.12-.22 1.53-.56.02 0 .03 0 .05 0 1.55 0 2.83-1.07 3.16-2.51.93-.45 1.58-1.39 1.58-2.49 0-1.53-1.25-2.78-2.79-2.78-.32 0-.62.06-.91.16.22-.38.35-.81.35-1.28 0-1.41-1.16-2.57-2.6-2.57z" style="fill:#efdc8f"/>
  <path d="m32.77 25.46c-1.15 0-2.17-.7-2.6-1.79l-.09-.23-.23.09c-.29.11-.59.17-.88.17-.67 0-1.29-.27-1.76-.75-1.65-.85-2.64-2.43-2.64-4.19 0-2.57 2.1-4.66 4.67-4.66.46 0 .93.08 1.46.25l.16.05.11-.13c.38-.46.94-.73 1.53-.73 1.09 0 1.98.88 1.98 1.97 0 .28-.06.56-.19.83l-.17.37.4-.01.12-.01c1.96 0 3.56 1.59 3.56 3.55 0 1.62-1.11 3.03-2.7 3.43l-.12.03-.05.11c-.46 1-1.47 1.65-2.56 1.65" style="fill:#fce857"/>
  <path d="m32.49 13.8c.95 0 1.73.77 1.73 1.72 0 .24-.06.49-.17.73l-.35.74.82-.03c.04 0 .08-.01.11-.01 1.83 0 3.31 1.48 3.31 3.3 0 1.51-1.03 2.81-2.51 3.18l-.23.06-.1.22c-.42.91-1.33 1.5-2.33 1.5-1.05 0-1.98-.64-2.37-1.63l-.18-.46-.46.18c-.26.1-.53.15-.79.15-.6 0-1.16-.24-1.58-.67l-.06-.06-.08-.04c-1.5-.76-2.43-2.26-2.43-3.91 0-2.43 1.98-4.41 4.42-4.41.43 0 .88.08 1.38.24l.32.11.22-.26c.33-.42.81-.65 1.33-.65m0-.5c-.7 0-1.31.32-1.72.82-.49-.16-1-.27-1.53-.27-2.72 0-4.92 2.2-4.92 4.91 0 1.91 1.11 3.55 2.71 4.36.49.51 1.17.83 1.94.83.34 0 .67-.07.97-.19.45 1.13 1.54 1.94 2.84 1.94 1.24 0 2.3-.74 2.79-1.79 1.65-.41 2.89-1.9 2.89-3.67 0-2.1-1.71-3.8-3.81-3.8-.04 0-.08.01-.12.01.13-.29.22-.6.22-.94-.03-1.22-1.03-2.21-2.26-2.21z" style="fill:#f4d731"/>
  <path d="m20.38 25.32c-1.04 0-2.02-.41-2.74-1.15-.72-.73-1.11-1.7-1.1-2.72.01-1.02.42-1.98 1.15-2.7.39-.38.87-.67 1.42-.86l.26-.09-.11-.25c-.6-1.32-.3-2.88.73-3.88.65-.64 1.51-.99 2.43-.99.94 0 1.82.37 2.48 1.04.53.54.86 1.24.95 2.03l.03.27.27-.05c.08-.02.16-.02.23-.02.2 0 .49.05.72.29.33.34.38.86.12 1.27l-.17.27.31.1c.56.18 1.05.47 1.43.86.65.66 1 1.53.99 2.45-.01.92-.38 1.79-1.04 2.43-.65.63-1.51.98-2.42.98-.9 0-1.76-.34-2.41-.97l-.21-.2-.17.24c-.15.21-.3.39-.46.54-.72.72-1.68 1.11-2.69 1.11" style="fill:#e8d877"/>
  <path d="m22.41 12.94c.87 0 1.69.34 2.3.96.49.5.8 1.15.88 1.88l.06.54.53-.11c.06-.01.12-.02.19-.02.15 0 .37.04.55.22.25.26.29.64.08.96l-.35.55.62.2c.52.17.97.43 1.33.8.6.61.93 1.42.92 2.27-.01.86-.35 1.66-.97 2.26-.6.59-1.4.91-2.24.91-.84 0-1.63-.32-2.24-.9l-.42-.4-.34.48c-.14.2-.28.37-.43.51-.68.66-1.57 1.02-2.52 1.02-.97 0-1.89-.38-2.57-1.07-.67-.68-1.03-1.59-1.02-2.54.01-.95.39-1.85 1.08-2.52.37-.36.81-.63 1.33-.81l.52-.18-.23-.5c-.55-1.22-.28-2.67.67-3.59.63-.59 1.43-.92 2.27-.92m0-.5c-.94 0-1.88.35-2.6 1.06-1.15 1.11-1.4 2.78-.78 4.16-.55.19-1.07.49-1.51.92-1.61 1.58-1.64 4.15-.06 5.77.8.81 1.86 1.22 2.92 1.22 1.03 0 2.07-.39 2.86-1.16.18-.18.34-.38.49-.58.72.69 1.65 1.04 2.58 1.04.93 0 1.87-.35 2.59-1.05 1.47-1.43 1.5-3.78.06-5.24-.44-.45-.97-.75-1.53-.92.31-.49.28-1.15-.15-1.58-.25-.25-.57-.37-.9-.37-.1 0-.19.01-.28.03-.09-.79-.42-1.56-1.02-2.17-.74-.76-1.7-1.13-2.67-1.13z" style="fill:#d6c056"/>
  <path d="m40.02 30.83c-1.2 0-2.21-.86-2.41-2.05l-.02-.11-.09-.06c-1-.64-1.6-1.73-1.6-2.9 0-1.79 1.41-3.29 3.2-3.43l.15-.01.06-.14c.47-1.05 1.51-1.73 2.66-1.73 1.6 0 2.91 1.3 2.91 2.9 0 .53-.15 1.06-.44 1.52l-.16.26.28.11c.87.34 1.44 1.16 1.44 2.09 0 1.24-1.01 2.25-2.26 2.25-.39 0-.76-.1-1.12-.31l-.24-.14-.11.26c-.38.9-1.27 1.49-2.25 1.49" style="fill:#f9ecb0"/>
  <path d="m41.98 20.65c1.47 0 2.66 1.19 2.66 2.65 0 .48-.14.96-.41 1.39l-.32.51.56.22c.78.3 1.28 1.03 1.28 1.86 0 1.1-.9 2-2.01 2-.34 0-.68-.09-.99-.27l-.49-.28-.22.51c-.35.81-1.14 1.33-2.02 1.33-1.08 0-1.99-.77-2.16-1.84l-.04-.22-.19-.12c-.93-.6-1.48-1.6-1.48-2.69 0-1.66 1.31-3.05 2.97-3.18l.3-.02.12-.27c.43-.96 1.39-1.58 2.44-1.58m0-.5c-1.29 0-2.4.78-2.89 1.88-1.92.15-3.43 1.73-3.43 3.68 0 1.31.69 2.45 1.71 3.11.21 1.28 1.31 2.26 2.65 2.26 1.11 0 2.07-.67 2.48-1.63.37.21.79.34 1.24.34 1.38 0 2.51-1.12 2.51-2.5 0-1.06-.66-1.96-1.6-2.32.3-.48.48-1.05.48-1.65.01-1.76-1.41-3.17-3.15-3.17z" style="fill:#efdc8f"/>
  <path d="m37.14 22.49c-2.02 0-3.65-1.63-3.65-3.64 0-1.12.52-2.16 1.42-2.86l.11-.09-.02-.13c-.02-.13-.03-.19-.03-.25 0-.94.67-1.75 1.59-1.93l.15-.03.04-.15c.33-1.23 1.45-2.08 2.71-2.08 1.55 0 2.82 1.26 2.82 2.8 0 .39-.08.77-.24 1.13l-.1.23.23.1c.86.37 1.42 1.22 1.42 2.15 0 1.29-1.05 2.34-2.35 2.34-.15 0-.29-.02-.43-.04l-.2-.04-.08.19c-.56 1.4-1.89 2.3-3.39 2.3" style="fill:#e8d877"/>
  <path d="m39.46 11.58c1.42 0 2.57 1.15 2.57 2.55 0 .35-.07.7-.22 1.03l-.21.46.46.2c.77.33 1.27 1.09 1.27 1.92 0 1.15-.94 2.09-2.1 2.09-.11 0-.23-.01-.38-.04l-.4-.07-.15.38c-.52 1.3-1.76 2.14-3.16 2.14-1.88 0-3.4-1.52-3.4-3.39 0-1.04.48-2.01 1.32-2.66l.23-.18-.04-.28-.01-.07c-.01-.05-.02-.1-.02-.15 0-.82.58-1.53 1.39-1.69l.3-.06.08-.3c.3-1.1 1.32-1.88 2.47-1.88m0-.5c-1.42 0-2.6.96-2.95 2.27-1.02.2-1.79 1.1-1.79 2.18 0 .1.02.19.03.28-.92.71-1.52 1.81-1.52 3.05 0 2.15 1.75 3.89 3.9 3.89 1.65 0 3.05-1.02 3.62-2.45.15.03.31.05.47.05 1.43 0 2.6-1.16 2.6-2.59 0-1.07-.65-1.98-1.57-2.38.17-.38.27-.79.27-1.24.01-1.69-1.36-3.06-3.06-3.06z" style="fill:#d6c056"/>
  <path d="m47.55 22.31c-.99 0-1.94-.38-2.68-1.06l-.1-.09-.13.03c-.33.08-.64.12-.92.12-2.21 0-4.01-1.79-4.01-3.99 0-1.14.51-2.24 1.39-3l.17-.15-.13-.18c-.28-.4-.43-.86-.43-1.34 0-1.29 1.05-2.34 2.35-2.34 1 0 1.89.64 2.22 1.59l.07.2.2-.03c.14-.02.23-.03.33-.03 1.26 0 2.28 1.01 2.28 2.26v.2l.2.06c1.81.38 3.12 1.99 3.12 3.83 0 2.16-1.76 3.92-3.93 3.92" style="fill:#f9ecb0"/>
  <path d="m43.07 10.55c.9 0 1.69.57 1.98 1.42l.17.39.41-.06c.08-.01.17-.03.26-.03 1.11 0 2.01.89 2.03 1.98v.01.04.41l.4.08c1.69.35 2.92 1.86 2.92 3.59 0 2.02-1.65 3.67-3.68 3.67-.93 0-1.82-.35-2.51-1l-.2-.18-.26.06c-.31.07-.6.11-.86.11-2.07 0-3.76-1.68-3.76-3.74 0-1.07.48-2.09 1.31-2.81l.34-.3-.26-.37c-.25-.35-.38-.77-.38-1.19-.01-1.14.93-2.08 2.09-2.08m0-.5c-1.43 0-2.6 1.16-2.6 2.59 0 .55.18 1.06.47 1.48-.9.78-1.48 1.91-1.48 3.19 0 2.34 1.9 4.24 4.26 4.24.34 0 .66-.05.98-.12.75.7 1.74 1.13 2.85 1.13 2.31 0 4.18-1.87 4.18-4.17 0-2.01-1.42-3.68-3.32-4.08 0-.01 0-.01 0-.02 0-1.39-1.13-2.51-2.53-2.51-.12 0-.24.02-.36.04-.34-1.03-1.3-1.77-2.45-1.77z" style="fill:#efdc8f"/>
  <path d="m19.75 35.37c-2.74 0-4.99-2.14-5.12-4.87l-.01-.14-.12-.07c-1.2-.64-1.94-1.86-1.94-3.19 0-2.01 1.64-3.64 3.66-3.64.28 0 .56.04.9.13l.27.07.04-.28c.15-1.11 1.11-1.96 2.23-1.96 1.22 0 2.23.99 2.25 2.21v.27l.42-.05c.1-.01.19-.03.29-.03 2.37 0 4.3 1.92 4.3 4.28 0 1.56-.87 2.99-2.26 3.75l-.08.04-.03.09c-.73 2.03-2.66 3.39-4.8 3.39" style="fill:#f9ecb0"/>
  <path d="m19.66 21.67c1.09 0 1.99.88 2.01 1.97l.01.54.54-.06c.06-.01.11-.01.17-.02.08-.01.17-.02.25-.02 2.24 0 4.05 1.81 4.05 4.03 0 1.46-.82 2.82-2.13 3.53l-.17.09-.07.18c-.71 1.92-2.55 3.21-4.58 3.21-2.6 0-4.74-2.04-4.87-4.63l-.01-.28-.25-.13c-1.11-.59-1.81-1.73-1.81-2.97 0-1.87 1.53-3.39 3.41-3.39.26 0 .52.04.84.12l.54.14.07-.56c.15-1 1-1.75 2-1.75m0-.5c-1.27 0-2.31.95-2.48 2.17-.31-.08-.63-.13-.96-.13-2.16 0-3.91 1.74-3.91 3.89 0 1.48.84 2.76 2.07 3.41.14 2.84 2.48 5.11 5.37 5.11 2.32 0 4.29-1.48 5.05-3.54 1.42-.77 2.39-2.25 2.39-3.97 0-2.5-2.04-4.53-4.55-4.53-.16 0-.31.03-.47.05-.03-1.36-1.14-2.46-2.51-2.46z" style="fill:#efdc8f"/>
  <path d="m16.4 21.01c-2.5 0-4.58-1.95-4.74-4.45l-.01-.2-.19-.03c-1.3-.23-2.24-1.35-2.24-2.66 0-1.5 1.22-2.71 2.73-2.71l.19.02.24.02.02-.24c.12-1.15 1.08-2.02 2.24-2.02.78 0 1.5.4 1.92 1.07l.1.16.18-.06c.11-.03.21-.07.31-.07.58 0 1.05.47 1.05 1.05 0 .19-.07.38-.2.58l-.18.26.3.11c1.86.71 3.06 2.45 3.06 4.42-.01 2.62-2.15 4.75-4.78 4.75" style="fill:#f9ecb0"/>
  <path d="m14.64 8.99c.7 0 1.33.36 1.7.95l.2.33.37-.11c.09-.03.17-.05.23-.05.44 0 .8.36.8.8 0 .14-.05.28-.16.43l-.36.52.59.23c1.76.68 2.9 2.32 2.9 4.19 0 2.48-2.03 4.5-4.52 4.5-2.37 0-4.34-1.85-4.49-4.22l-.02-.39-.39-.07c-1.18-.21-2.04-1.23-2.04-2.41 0-1.36 1.11-2.46 2.48-2.46.02 0 .04 0 .06.01.04.01.08.01.12.01l.48.03.05-.48c.11-1.04.97-1.81 2-1.81m0-.5c-1.3 0-2.35.98-2.49 2.24-.07-.01-.14-.02-.21-.02-1.64 0-2.98 1.33-2.98 2.96 0 1.46 1.06 2.66 2.45 2.91.17 2.61 2.33 4.68 4.99 4.68 2.77 0 5.02-2.24 5.02-5 0-2.13-1.34-3.93-3.22-4.66.14-.21.25-.45.25-.72 0-.72-.59-1.3-1.3-1.3-.14 0-.26.04-.38.08-.45-.7-1.23-1.17-2.13-1.17z" style="fill:#efdc8f"/>
  <path d="m50.62 28.6c-.6 0-1.15-.28-1.51-.77l-.14-.19-.2.13c-.28.18-.6.28-.93.28-.94 0-1.7-.76-1.7-1.69 0-.14.02-.28.07-.45l.06-.22-.21-.08c-1.19-.47-1.96-1.59-1.96-2.86 0-1.68 1.38-3.06 3.07-3.08h.13l.07-.11c.78-1.21 2.11-1.93 3.54-1.93 2.32 0 4.21 1.88 4.21 4.19 0 1.7-1.02 3.22-2.61 3.88l-.23.1.09.23c.09.23.14.46.14.7 0 1.03-.85 1.87-1.89 1.87" style="fill:#fce857"/>
  <path d="m50.9 17.87c2.18 0 3.96 1.77 3.96 3.94 0 1.6-.96 3.03-2.45 3.64l-.46.19.19.46c.08.2.12.4.12.61 0 .9-.74 1.63-1.64 1.63-.52 0-1-.25-1.31-.67l-.28-.38-.4.26c-.24.16-.51.24-.8.24-.8 0-1.45-.65-1.45-1.44 0-.11.02-.23.06-.38l.12-.43-.42-.16c-1.1-.43-1.81-1.46-1.81-2.63 0-1.55 1.27-2.82 2.82-2.83h.27l.15-.23c.74-1.14 1.98-1.82 3.33-1.82m0-.5c-1.57 0-2.95.82-3.75 2.04-1.84.01-3.32 1.5-3.32 3.33 0 1.41.88 2.61 2.12 3.1-.05.17-.08.34-.08.52 0 1.08.87 1.94 1.95 1.94.39 0 .76-.12 1.07-.32.39.53 1.01.88 1.72.88 1.19 0 2.14-.96 2.14-2.13 0-.28-.06-.55-.16-.8 1.62-.67 2.76-2.25 2.76-4.11.01-2.45-1.98-4.45-4.45-4.45z" style="fill:#f4d731"/>
  <path d="m12.03 27.31c-1.5 0-2.72-1.22-2.72-2.71 0-.8.36-1.56.99-2.08l.22-.18-.21-.19c-.41-.38-.63-.89-.63-1.43 0-1.09.89-1.98 1.98-1.98.51 0 1 .2 1.37.56l.1.1.13-.03c.16-.04.3-.06.44-.06.95 0 1.73.74 1.78 1.68l.01.15.13.06c.84.39 1.35 1.2 1.35 2.12 0 1.26-1.03 2.31-2.3 2.34h-.15l-.07.14c-.44.92-1.38 1.51-2.42 1.51" style="fill:#fce857"/>
  <path d="m11.66 18.98c.45 0 .87.17 1.2.49l.2.19.27-.07c.14-.04.26-.05.38-.05.81 0 1.49.64 1.53 1.45l.02.3.27.13c.75.35 1.21 1.07 1.21 1.89 0 1.12-.92 2.06-2.05 2.09l-.3.01-.13.27c-.42.86-1.27 1.39-2.22 1.39-1.36 0-2.47-1.11-2.47-2.46 0-.72.33-1.41.9-1.88l.44-.36-.42-.39c-.36-.33-.55-.78-.55-1.25-.01-.97.77-1.75 1.72-1.75m0-.5c-1.24 0-2.23 1-2.23 2.23 0 .64.28 1.21.71 1.62-.66.54-1.08 1.35-1.08 2.27 0 1.64 1.33 2.96 2.97 2.96 1.18 0 2.18-.69 2.67-1.67 1.41-.03 2.54-1.18 2.54-2.59 0-1.04-.62-1.93-1.5-2.34-.06-1.07-.95-1.92-2.03-1.92-.17 0-.34.03-.5.07-.4-.39-.95-.63-1.55-.63z" style="fill:#f4d731"/>
  <g style="fill:#fff">
    <path d="m16.9 58.81l-2.75-33.01c-2.94-.56-4.63-1.18-5.08-1.65.04-.04.11-.09.17-.14h-1.24l3.69 33.15c1.01.64 2.82 1.2 5.21 1.65"/>
    <path d="m32 27.14v32.86h5l.92-32.98c-1.83.08-3.79.12-5.92.12"/>
    <path d="m47.1 58.81l2.75-33.01c-1.62.31-3.62.59-6 .82l-1.83 32.9c1.89-.18 3.59-.42 5.08-.71"/>
    <path d="m27 59.88l-.91-32.86c-2.19-.09-4.17-.23-5.94-.4l1.83 32.9c1.56.17 3.25.28 5.02.36"/>
  </g>
  <g style="fill:#f63000">
    <path d="m21.97 59.53l-1.83-32.9c-2.38-.23-4.38-.51-6-.82l2.75 33.01c1.5.28 3.2.52 5.08.71"/>
    <path d="m32 60v-32.86c-2.13 0-4.09-.05-5.92-.12l.92 32.86c1.6.08 3.27.12 5 .12"/>
    <path d="m47.1 58.81c2.39-.45 4.21-1.02 5.22-1.65l3.68-33.14h-1.24c.06.05.13.09.17.14-.45.47-2.14 1.09-5.08 1.65l-2.75 33"/>
    <path d="m42.03 59.53l1.83-32.9c-1.77.17-3.75.3-5.94.4l-.92 32.85c1.77-.08 3.46-.19 5.03-.35"/>
  </g>
  <g style="opacity:.4">
    <path d="m54.84 25.4l-3.46 31.14c-2.5 1.23-9.36 2.46-19.38 2.46-10.02 0-16.88-1.23-19.38-2.46l-3.46-31.14c2.81 1.41 11.07 2.74 22.84 2.74 11.77 0 20.03-1.33 22.84-2.74m1.16-1.38h-1.24c.06.05.14.09.18.14-1.04 1.07-8.6 2.99-22.94 2.99-14.33 0-21.9-1.91-22.94-2.99.04-.04.11-.09.18-.14h-1.24l3.69 33.15c2.63 1.64 10.72 2.83 20.31 2.83 9.59 0 17.68-1.19 20.31-2.83l3.69-33.15z" style="fill:url(#0)"/>
  </g>
</svg>
