<?xml version="1.0"?>
<svg xmlns="http://www.w3.org/2000/svg" viewBox="0 0 64 64">
  <defs>
    <linearGradient id="0" y2="70.362" gradientUnits="userSpaceOnUse" x2="0" gradientTransform="matrix(1.9998887 0 0 1.2424276-47.993281 955.21738)" y1="73.362">
      <stop style="stop-color:#fff"/>
      <stop offset="1" style="stop-color:#ccc"/>
    </linearGradient>
    <linearGradient id="1" y2="70.362" gradientUnits="userSpaceOnUse" y1="73.362" gradientTransform="matrix(1.9998887 0 0 2.0000677-47.871459 861.62697)" x2="0">
      <stop style="stop-color:#fff"/>
      <stop offset="1" style="stop-color:#cdcdcd"/>
    </linearGradient>
  </defs>
  <g transform="translate(0-988.36218)">
    <path d="m12.253 994.45h9.187 30.498v51.689h-39.685z" style="fill:#fff;color:#000"/>
    <g style="fill:#d3d3d3">
      <path d="m34 996.36h4v4h-4z"/>
      <path d="m40 996.36h4v4h-4z"/>
      <path d="m46 996.36h4v4h-4z"/>
    </g>
    <path d="m12 1002.4h40v6h-40z" style="fill:url(#1)"/>
    <path d="m12 1042.4h40v4h-40z" style="fill:url(#0)"/>
    <path d="m10 992.36v56h44l.000001-56zm2 2h40v52h-40z" style="fill:#969696;color:#000"/>
    <path d="m47.38 1023.6c0 8.5523-6.9324 15.485-15.484 15.485s-15.484-6.9331-15.484-15.485c0-8.5524 6.9324-15.485 15.484-15.485s15.484 6.933 15.484 15.485z" style="fill:none;stroke:#4c4c4c;stroke-width:2.21210146"/>
    <path d="m15 1020.4h6v6h-6z" style="fill:#939393"/>
    <path d="m17 10l2.672-2.3594.89 2.3594z" transform="translate(0 988.36218)" style="fill:#4f4f4f"/>
  </g>
</svg>
