<?xml version="1.0"?>
<svg xmlns="http://www.w3.org/2000/svg" xmlns:xlink="http://www.w3.org/1999/xlink" viewBox="0 0 64 64">
  <defs>
    <linearGradient id="0" y2="70.362" gradientUnits="userSpaceOnUse" x2="0" gradientTransform="matrix(1.9998887 0 0 1.2424276-47.993281 955.21738)" y1="73.362">
      <stop style="stop-color:#fff"/>
      <stop offset="1" style="stop-color:#ccc"/>
    </linearGradient>
    <linearGradient id="1" y2="70.362" gradientUnits="userSpaceOnUse" y1="73.362" gradientTransform="matrix(1.9998887 0 0 2.0000677-47.871459 861.62697)" x2="0">
      <stop style="stop-color:#fff"/>
      <stop offset="1" style="stop-color:#cdcdcd"/>
    </linearGradient>
    <radialGradient id="2" gradientUnits="userSpaceOnUse" cy="62.398" cx="41.416" gradientTransform="matrix(1.2081928 0 0 2.0310325-9.4645969 896.94657)" r="7">
      <stop style="stop-color:#919191"/>
      <stop offset="1" style="stop-color:#fff"/>
    </radialGradient>
    <radialGradient id="3" gradientUnits="userSpaceOnUse" cy="62.362" cx="39" gradientTransform="matrix(2.062383 0 0 2.0625676-48.536628 894.97999)" r="7">
      <stop style="stop-color:#919191"/>
      <stop offset="1" style="stop-color:#e4e4e4"/>
    </radialGradient>
  </defs>
  <g transform="translate(0-988.36218)">
    <path d="m12.253 994.45h9.187 30.498v51.689h-39.685z" style="fill:#fff;color:#000"/>
    <g style="fill:#d3d3d3">
      <path d="m34 996.36h4v4h-4z" id="4"/>
      <path d="m40 996.36h4v4h-4z" id="5"/>
      <path d="m46 996.36h4v4h-4z" id="6"/>
    </g>
    <path d="m12 1002.4h40v6h-40z" style="fill:url(#1)"/>
    <path d="m12 1042.4h40v4h-40z" style="fill:url(#0)"/>
    <path d="m10 992.36v56h44l.000001-56zm2 2h40v52h-40z" style="fill:#969696;color:#000"/>
    <path d="m47.38 1023.6c0 8.5523-6.9324 15.485-15.484 15.485s-15.484-6.9331-15.484-15.485c0-8.5524 6.9324-15.485 15.484-15.485s15.484 6.933 15.484 15.485z" style="fill:none;stroke:#4c4c4c;stroke-width:2.21210146"/>
    <path d="m15 1020.4h6v6h-6z" style="fill:#939393"/>
    <path d="m17 10l2.672-2.3594.89 2.3594z" transform="translate(0 988.36218)" style="fill:#4f4f4f"/>
    <path d="m15 1020.4h7v6h-7z" style="fill:#fff"/>
    <g style="fill:#b8b8b8">
      <use xlink:href="#5"/>
      <use xlink:href="#6"/>
      <use xlink:href="#4"/>
    </g>
    <path d="m46.333 1023.6c0 7.9739-6.4635 14.438-14.437 14.438-7.9732 0-14.437-6.4639-14.437-14.438 0-7.9736 6.4635-14.438 14.437-14.438 7.9732 0 14.437 6.4646 14.437 14.438" style="fill:url(#3)"/>
    <path d="m47.38 1023.6c0 8.5523-6.9324 15.485-15.484 15.485s-15.484-6.9331-15.484-15.485c0-8.5524 6.9324-15.485 15.484-15.485s15.484 6.933 15.484 15.485z" style="fill:none;stroke:#9f9f9f;stroke-width:2.21210146"/>
    <path d="m46.112 1023.6c0 7.8521-3.7865 14.217-8.4574 14.217s-8.4574-6.365-8.4574-14.217c0-7.8519 3.7865-14.217 8.4574-14.217s8.4574 6.3653 8.4574 14.217" style="fill:url(#2)"/>
    <path d="m46 62.362c0 3.866-3.134 7-7 7s-7-3.134-7-7 3.134-7 7-7 7 3.134 7 7z" transform="matrix(1.2881666 0 0 2.0261849-11.989825 897.24888)" style="fill:none;stroke:#4b4b4b;stroke-width:1.38269734"/>
    <path d="m29 1020.4h3v6h-3z" style="fill:#939393"/>
  </g>
</svg>
