<?xml version="1.0"?>
<svg xmlns="http://www.w3.org/2000/svg" viewBox="0 0 64 64" style="enable-background:new 0 0 64 64">
  <path d="m6.93 58.5c-.9 0-1.71-.47-2.17-1.25-.45-.78-.45-1.72 0-2.5l25.07-43.43c.45-.78 1.26-1.25 2.17-1.25s1.71.47 2.17 1.25l25.07 43.43c.45.78.45 1.72 0 2.5-.45.78-1.26 1.25-2.17 1.25h-50.14" style="fill:#fcd703"/>
  <path d="m32 11.57c.22 0 .61.06.87.5l25.07 43.43c.25.44.11.81 0 1-.11.19-.36.5-.87.5h-50.14c-.5 0-.76-.31-.87-.5-.11-.19-.25-.56 0-1l25.07-43.43c.26-.43.65-.5.87-.5m0-3c-1.35 0-2.69.67-3.46 2l-25.08 43.43c-1.54 2.67.38 6 3.46 6h50.14c3.08 0 5-3.33 3.46-6l-25.06-43.43c-.77-1.33-2.11-2-3.46-2z"/>
  <path d="m37.03 32.59l-7.97 4.6 5.23-13.62h-4.74l-4.97 18.57 8-4.62-1.83 10.68-1.45-2.08 1.31 7.45 4.64-6.63-2.34 1.59z"/>
</svg>
