<?xml version="1.0"?>
<svg xmlns="http://www.w3.org/2000/svg" viewBox="0 0 64 64" style="enable-background:new 0 0 64 64">
  <path d="m6.93 59.5c-1.26 0-2.4-.65-3.03-1.75-.63-1.1-.63-2.41 0-3.5l25.07-43.43c.63-1.1 1.77-1.75 3.03-1.75s2.4.65 3.03 1.75l25.07 43.43c.63 1.1.63 2.41 0 3.5-.63 1.09-1.77 1.75-3.03 1.75h-50.14" style="fill:#ffa500"/>
  <path d="m32 9.57c1.08 0 2.06.56 2.6 1.5l25.07 43.43c.54.94.54 2.06 0 3-.54.94-1.51 1.5-2.6 1.5h-50.14c-1.08 0-2.06-.56-2.6-1.5-.54-.94-.54-2.06 0-3l25.07-43.43c.54-.93 1.52-1.5 2.6-1.5m0-1c-1.35 0-2.69.67-3.46 2l-25.08 43.43c-1.54 2.67.38 6 3.46 6h50.14c3.08 0 5-3.33 3.46-6l-25.06-43.43c-.77-1.33-2.11-2-3.46-2z" style="fill:#e58200"/>
  <path d="m30.16 44.5l-1.5-12.76-.01-8.24h6.66v8.18l-1.55 12.82z" style="fill:#fff"/>
  <path d="m34.81 24v7.68l-1.49 12.32h-2.72l-1.45-12.32v-7.68h5.66m1-1h-1-5.66-1v1 7.68.06l.01.06 1.45 12.32.1.88h.89 2.71.89l.11-.88 1.49-12.32.01-.06v-.06-7.68-1z" style="fill:#e58200"/>
  <path d="m28.5 46.5h7v7h-7z" style="fill:#fff"/>
  <path d="m35 47v6h-6v-6h6m1-1h-1-6-1v1 6 1h1 6 1v-1-6-1z" style="fill:#e58200"/>
</svg>
