<?xml version="1.0"?>
<svg xmlns="http://www.w3.org/2000/svg" viewBox="0 0 64 64" style="enable-background:new 0 0 64 64">
  <defs>
    <radialGradient id="0" cx="32" cy="31" r="24.5" gradientUnits="userSpaceOnUse">
      <stop style="stop-color:#b4b4b4"/>
      <stop offset="1" style="stop-color:#999"/>
    </radialGradient>
  </defs>
  <path d="m16 61.5c-.3 0-.5-.2-.5-.5v-2c0-.3.2-.5.5-.5h4c.3 0 .5.2.5.5v2c0 .3-.2.5-.5.5h-4" style="fill:#f0f0f0"/>
  <path d="m20 59v2h-4v-2h4m0-1h-4c-.6 0-1 .4-1 1v2c0 .6.4 1 1 1h4c.6 0 1-.4 1-1v-2c0-.6-.4-1-1-1z" style="fill:#b4b4b4"/>
  <path d="m44 61.5c-.3 0-.5-.2-.5-.5v-2c0-.3.2-.5.5-.5h4c.3 0 .5.2.5.5v2c0 .3-.2.5-.5.5h-4" style="fill:#f0f0f0"/>
  <path d="m48 59v2h-4v-2h4m0-1h-4c-.6 0-1 .4-1 1v2c0 .6.4 1 1 1h4c.6 0 1-.4 1-1v-2c0-.6-.4-1-1-1z" style="fill:#b4b4b4"/>
  <path d="M15,58.5C9.2,58.5,4.5,53.8,4.5,48V14C4.5,8.2,9.2,3.5,15,3.5h34c5.8,0,10.5,4.7,10.5,10.5v34   c0,5.8-4.7,10.5-10.5,10.5H15z" style="fill:#f0f0f0"/>
  <path d="m49 4c5.5 0 10 4.5 10 10v34c0 5.5-4.5 10-10 10h-34c-5.5 0-10-4.5-10-10v-34c0-5.5 4.5-10 10-10h34m0-1h-34c-6.1 0-11 4.9-11 11v34c0 6.1 4.9 11 11 11h34c6.1 0 11-4.9 11-11v-34c0-6.1-4.9-11-11-11z" style="fill:#b4b4b4"/>
  <path d="m16 55.5c-4.7 0-8.5-3.8-8.5-8.5v-32c0-4.7 3.8-8.5 8.5-8.5h32c4.7 0 8.5 3.8 8.5 8.5v32c0 4.7-3.8 8.5-8.5 8.5h-32" style="fill:url(#0)"/>
  <path d="m48 7c4.4 0 8 3.6 8 8v32c0 4.4-3.6 8-8 8h-32c-4.4 0-8-3.6-8-8v-32c0-4.4 3.6-8 8-8h32m0-1h-32c-5 0-9 4-9 9v32c0 5 4 9 9 9h32c5 0 9-4 9-9v-32c0-5-4-9-9-9z" style="fill:#b4b4b4"/>
  <g style="fill:#f0f0f0;stroke-miterlimit:10;stroke:#7f7f7f;stroke-linecap:round;stroke-linejoin:round">
    <path d="m28.8 24.7c0 0 4-.4 5.5-5.1s.6-6.5.6-6.5-.7-2 .5-3.6c1.3-1.6 3.2-1.2 3.2-1.2s3.6.7 5.7 5c2.1 4.3-.3 7.5-.3 7.5s-2.9 4.6-8 6.4c-5 1.8-7.2-2.5-7.2-2.5z"/>
    <path d="m38.7 34.1c0 0-3 2.7-1.5 7.4 1.5 4.7 3.4 5.6 3.4 5.6s1.8 1.2 1.7 3.2-1.9 2.9-1.9 2.9-3.3 1.6-7.6-.7-4.2-6.3-4.2-6.3-.3-5.4 2.7-9.9 7.4-2.2 7.4-2.2z"/>
    <path d="m31.3 38.2c0 0-3.5-2-7.5.9-4 2.9-4.3 4.9-4.3 4.9s-.5 2-2.5 2.5-3.3-.9-3.3-.9-2.5-2.6-1.7-7.4 4.7-5.9 4.7-5.9 5.1-2 10.2-.5c5.2 1.6 4.4 6.4 4.4 6.4z"/>
    <path d="m25.1 32.3c0 0 .9-3.9-3.2-6.8s-5.9-2.5-5.9-2.5-2.1.1-3.2-1.6c-1.1-1.7-.2-3.4-.2-3.4s1.8-3.3 6.5-3.9c4.8-.7 7.1 2.6 7.1 2.6s3.4 4.2 3.6 9.6-4.7 6-4.7 6z"/>
    <path d="m37.2 25.7c0 0 1.6 3.7 6.6 3.7s6.3-1.5 6.3-1.5 1.7-1.3 3.6-.6 2.2 2.6 2.2 2.6.5 3.7-3 7c-3.5 3.3-7.3 2.1-7.3 2.1s-5.2-1.4-8.5-5.6c-3.4-4.2.1-7.7.1-7.7z"/>
    <circle cx="32.2" cy="31" r="7.3"/>
  </g>
  <g style="opacity:.75">
    <path d="m41 55.5c-.3 0-.5-.2-.5-.5v-5.5h-17v5.5c0 .3-.2.5-.5.5h-1c-.3 0-.5-.2-.5-.5v-5.5h-13c-.2 0-.4-.2-.5-.4l-.2-1c0-.1 0-.3.1-.4s.2-.2.4-.2h13.2v-5h-13.5c-.3 0-.5-.2-.5-.5v-1c0-.3.2-.5.5-.5h13.5v-5h-13.5c-.3 0-.5-.2-.5-.5v-1c0-.3.2-.5.5-.5h13.5v-5h-13.5c-.3 0-.5-.2-.5-.5v-1c0-.3.2-.5.5-.5h13.5v-5h-13.5c-.3 0-.5-.2-.5-.5v-1c0-.3.2-.5.5-.5h13.5v-5h-13.3c-.2 0-.3-.1-.4-.2s-.1-.3 0-.4l.2-1c.1-.2.3-.4.5-.4h13v-5.5c0-.3.2-.5.5-.5h1c.3 0 .5.2.5.5v5.5h17v-5.5c0-.3.2-.5.5-.5h1c.3 0 .5.2.5.5v5.5h13c.2 0 .4.2.5.4l.2 1c0 .1 0 .3-.1.4s-.2.2-.4.2h-13.2v5h13.5c.3 0 .5.2.5.5v1c0 .3-.2.5-.5.5h-13.5v5h13.5c.3 0 .5.2.5.5v1c0 .3-.2.5-.5.5h-13.5v5h13.5c.3 0 .5.2.5.5v1c0 .3-.2.5-.5.5h-13.5v5h13.5c.3 0 .5.2.5.5v1c0 .3-.2.5-.5.5h-13.5v5h13.2c.2 0 .3.1.4.2s.1.3.1.4l-.2 1c-.1.2-.3.4-.5.4h-13v5.5c0 .3-.2.5-.5.5h-1m-.5-8v-5h-17v5h17m0-7v-5h-17v5h17m0-7v-5h-17v5h17m0-7v-5h-17v5h17m0-7v-5h-17v5h17" style="fill:#f0f0f0"/>
    <path d="m42 7v6h13.5l.2 1h-13.7v6h14v1h-14v6h14v1h-14v6h14v1h-14v6h14v1h-14v6h13.8l-.2 1h-13.6v6h-1v-6h-18v6h-1v-6h-13.5l-.2-1h13.7v-6h-14v-1h14v-6h-14v-1h14v-6h-14v-1h14v-6h-14v-1h14v-6h-13.8l.2-1h13.6v-6h1v6h18v-6h1m-19 13h18v-6h-18v6m0 7h18v-6h-18v6m0 7h18v-6h-18v6m0 7h18v-6h-18v6m0 7h18v-6h-18v6m19-42h-1c-.6 0-1 .4-1 1v5h-16v-5c0-.6-.4-1-1-1h-1c-.6 0-1 .4-1 1v5h-12.5c-.5 0-.9.3-1 .8l-.2 1c-.1.3 0 .6.2.9.2.2.4.3.7.3h12.8v4h-13c-.6 0-1 .4-1 1v1c0 .6.4 1 1 1h13v4h-13c-.6 0-1 .4-1 1v1c0 .6.4 1 1 1h13v4h-13c-.6 0-1 .4-1 1v1c0 .6.4 1 1 1h13v4h-13c-.6 0-1 .4-1 1v1c0 .6.4 1 1 1h13v4h-12.8c-.3 0-.6.1-.8.4-.2.2-.3.6-.2.9l.2 1c.2.4.6.7 1.1.7h12.5v5c0 .6.4 1 1 1h1c.6 0 1-.4 1-1v-5h16v5c0 .6.4 1 1 1h1c.6 0 1-.4 1-1v-5h12.5c.5 0 .9-.3 1-.8l.2-1c.1-.3 0-.6-.2-.9-.2-.2-.5-.4-.8-.4h-12.7v-4h13c.6 0 1-.4 1-1v-1c0-.6-.4-1-1-1h-13v-4h13c.6 0 1-.4 1-1v-1c0-.6-.4-1-1-1h-13v-4h13c.6 0 1-.4 1-1v-1c0-.6-.4-1-1-1h-13v-4h13c.6 0 1-.4 1-1v-1c0-.6-.4-1-1-1h-13v-4h12.8c.3 0 .6-.1.8-.4.2-.2.3-.6.2-.9l-.2-1c-.1-.4-.5-.8-1-.8h-12.6v-4.8c0-.6-.4-1-1-1zm-18 9h16v4h-16v-4m0 7h16v4h-16v-4m0 7h16v4h-16v-4m0 7h16v4h-16v-4m0 7h16v4h-16v-4" style="fill:#b4b4b4"/>
  </g>
</svg>
