<?xml version="1.0"?>
<svg xmlns="http://www.w3.org/2000/svg" viewBox="0 0 64 64" style="enable-background:new 0 0 64 64">
  <path d="m25.5 9.5h7v13h-7z" style="fill:#8b96ac"/>
  <path d="m32 10v12h-6v-12h6m1-1h-8v14h8v-14z" style="fill:#676b72"/>
  <path d="m46.5 39.5v-3.5c0-1.38-1.12-2.5-2.5-2.5h-35.5v-11h15v-4.5c0-.83.67-1.5 1.5-1.5h8c.83 0 1.5.67 1.5 1.5v4.5h11.5c6.34 0 11.5 5.16 11.5 11.5v5.5h-11" style="fill:#8b96ac"/>
  <path d="m33 17c.55 0 1 .45 1 1v4 1h1 11c6.07 0 11 4.93 11 11v5h-10v-3c0-1.65-1.35-3-3-3h-35v-10h14 1v-1-4c0-.55.45-1 1-1h8m0-1h-8c-1.1 0-2 .9-2 2v4h-15v12h36c1.1 0 2 .9 2 2v4h12v-6c0-6.63-5.37-12-12-12h-11v-4c0-1.1-.9-2-2-2z" style="fill:#676b72"/>
  <path d="m51.55 59.5c0-.01-.1-.02-.19-.03-.15-.02-.3-.03-.4-.07l-.05-.02-.05-.01c-2.29-.41-4.25-2.72-4.36-5.17v-.75c.07-.4.16-.9.35-1.36.18-.34.37-.72.6-1.08l.74-1.03c1.58-1.94 2.85-3.85 3.85-5.8 1.03 2.43 2.61 4.51 3.89 6.05.15.23.34.49.55.75.24.38.53.85.75 1.35.12.33.22.75.27 1.22v.62c-.02.1-.03.19-.03.27 0 .03 0 .07-.01.1l-.03.06v.05c-.25 2.24-2.14 4.31-4.29 4.7l-.05.01-.05.02c-.1.04-.25.06-.4.07-.08.01-.15.02-.23.03h-.86z" style="fill:#1e82ff"/>
  <path d="m52 45.31c1.03 2.08 2.38 3.84 3.5 5.21.17.26.35.5.54.74.25.4.51.82.71 1.25.11.31.19.66.24 1.05v.57c-.02.12-.03.22-.03.3l-.02.04-.02.14c-.23 2.04-1.93 3.91-3.89 4.26l-.12.03-.08.03c-.04.02-.18.03-.27.04-.07.01-.14.02-.21.02h-.76c-.07-.01-.14-.02-.21-.02-.09-.01-.22-.02-.27-.04l-.1-.04-.1-.02c-2.08-.37-3.85-2.47-3.94-4.65v-.7c.07-.41.15-.84.3-1.21.2-.39.37-.71.56-1.01l.72-1c1.39-1.67 2.52-3.32 3.45-4.99m.06-2.31c-1.11 2.41-2.59 4.63-4.28 6.69l-.75 1.05c-.24.37-.44.77-.64 1.16-.2.49-.3 1.03-.38 1.54v.78c.12 2.64 2.2 5.18 4.77 5.64.24.1.53.1.78.14h.91c.25-.04.53-.04.78-.14 2.38-.43 4.43-2.67 4.7-5.13.06-.15.02-.34.07-.48v-.75c-.06-.46-.16-.93-.31-1.36-.23-.52-.52-.99-.82-1.46-.2-.24-.38-.5-.55-.75-1.58-1.91-3.03-3.95-3.95-6.25l-.33-.68z" style="fill:#1271d8"/>
  <path d="m41 13.5c-1.41 0-2.71-.66-3.58-1.8l-.15-.2h-5.77v-5h5.77l.15-.2c.87-1.15 2.17-1.8 3.58-1.8 2.48 0 4.5 2.02 4.5 4.5s-2.02 4.5-4.5 4.5" style="fill:#8b96ac"/>
  <path d="m41 5c2.21 0 4 1.79 4 4s-1.79 4-4 4c-1.25 0-2.41-.58-3.18-1.6l-.3-.4h-.5-5.02v-4h5.02.5l.3-.4c.77-1.02 1.93-1.6 3.18-1.6m0-1c-1.63 0-3.06.79-3.98 2h-6.02v6h6.02c.91 1.21 2.35 2 3.98 2 2.76 0 5-2.24 5-5s-2.24-5-5-5z" style="fill:#676b72"/>
  <path d="m19 13.5c-2.48 0-4.5-2.02-4.5-4.5s2.02-4.5 4.5-4.5c1.41 0 2.71.66 3.58 1.8l.15.2h3.77v5h-3.77l-.15.2c-.87 1.14-2.17 1.8-3.58 1.8" style="fill:#8b96ac"/>
  <path d="m19 5c1.25 0 2.41.58 3.18 1.6l.3.4h.5 3.02v4h-3.02-.5l-.3.4c-.77 1.02-1.93 1.6-3.18 1.6-2.21 0-4-1.79-4-4s1.79-4 4-4m0-1c-2.76 0-5 2.24-5 5s2.24 5 5 5c1.63 0 3.06-.79 3.98-2h4.02v-6h-4.02c-.92-1.21-2.35-2-3.98-2z" style="fill:#676b72"/>
  <path d="m29 13.5c-2.48 0-4.5-2.02-4.5-4.5s2.02-4.5 4.5-4.5 4.5 2.02 4.5 4.5-2.02 4.5-4.5 4.5" style="fill:#8b96ac"/>
  <path d="m29 5c2.21 0 4 1.79 4 4s-1.79 4-4 4-4-1.79-4-4 1.79-4 4-4m0-1c-2.76 0-5 2.24-5 5s2.24 5 5 5 5-2.24 5-5-2.24-5-5-5z" style="fill:#676b72"/>
  <path d="m23 22c3.32 2 8.68 2 12 0" style="fill:none;stroke-miterlimit:10;stroke:#676b72"/>
  <path d="m4.5 38.5v-21h2.5c.83 0 1.5.67 1.5 1.5v18c0 .83-.67 1.5-1.5 1.5h-2.5" style="fill:#8b96ac"/>
  <path d="m7 18c.55 0 1 .45 1 1v18c0 .55-.45 1-1 1h-2v-20h2m0-1h-3v22h3c1.1 0 2-.9 2-2v-18c0-1.1-.9-2-2-2z" style="fill:#676b72"/>
</svg>
