<?xml version="1.0"?>
<svg xmlns="http://www.w3.org/2000/svg" viewBox="0 0 64 64" style="enable-background:new 0 0 64 64">
  <path d="m54 40c-3.39-30.49-21.05-38.16-25.76-39.68-.56-.18-1.1.27-1.06.85.76 12.02-5.18 18.83-5.18 18.83s-7.83 9.75-10 13-5.42 15.67 3 26c7.2 8.84 15.26 2.55 17.43.55.33-.3.82-.27 1.14.04 3.62 3.56 7.79 4.48 11.43 1.41 11.41-9.61 9-21 9-21" style="fill:#f01428"/>
  <path d="m33 59c0 0-5.88 5.33-10 0s-2-14-2-14 3.21-7.46 10-15c0 0 2.67-2.92 3-5 0 0 9.08 4.83 10 17s-9 19-9 19l-2-2" style="fill:#ff8200"/>
  <path d="m33 59c0 0 6.79-1.96 8-14 0 0 .88-3.88-6-10l-8 9c0 0-3 3.04-3 8s3 7 3 7 2.67 3.33 6 0" style="fill:#ffc800"/>
</svg>
