<?xml version="1.0"?>
<svg xmlns="http://www.w3.org/2000/svg" viewBox="0 0 64 64" style="enable-background:new 0 0 64 64">
  <path d="m18 59.5c-.83 0-1.5-.67-1.5-1.5v-20c0-1.38-1.12-2.5-2.5-2.5h-9.17c-.74 0-1.2-.48-1.39-.93-.19-.45-.2-1.11.33-1.63l27.18-28.8c.27-.28.65-.43 1.05-.43s.78.16 1.06.44l27.16 28.78c.53.53.52 1.2.33 1.65-.19.45-.65.93-1.39.93h-9.16c-1.38 0-2.5 1.12-2.5 2.5v20c0 .83-.67 1.5-1.5 1.5h-28z" style="fill:#f35"/>
  <path d="m32 4.21c.27 0 .52.1.69.27l27.19 28.81c.44.44.28.94.22 1.09-.06.14-.3.62-.92.62h-9.18c-1.65 0-3 1.35-3 3v20c0 .55-.45 1-1 1h-28c-.55 0-1-.45-1-1v-20c0-1.65-1.35-3-3-3h-9.17c-.62 0-.86-.47-.92-.62-.06-.14-.22-.65.24-1.11l27.14-28.77c.19-.19.44-.29.71-.29m0-1c-.51 0-1.02.2-1.41.59l-27.18 28.79c-1.26 1.26-.36 3.41 1.42 3.41h9.17c1.1 0 2 .9 2 2v20c0 1.1.9 2 2 2h28c1.1 0 2-.9 2-2v-20c0-1.1.9-2 2-2h9.17c1.78 0 2.67-2.15 1.41-3.41l-27.17-28.8c-.39-.39-.9-.58-1.41-.58z" style="fill:#cc1526"/>
</svg>
