<?xml version="1.0"?>
<svg xmlns="http://www.w3.org/2000/svg" viewBox="0 0 64 64" style="enable-background:new 0 0 64 64">
  <path d="m47.5 58.5v-51h-31v51h-4v-55h39v55z" style="fill:#ececed"/>
  <path d="M51,4v54h-3V8V7h-1H17h-1v1v50h-3V4H51 M52,3H12v56h5V8h30v51h5V3L52,3z" style="fill:#9b9c9e"/>
  <path d="m17.5 58.61v-50.22l15-3.75v57.72z" style="fill:#646464"/>
  <path d="m32 5.28v56.44l-14-3.5v-49.44l14-3.5m1-1.28l-16 4v51l16 4v-59z" style="fill:#282828"/>
  <ellipse cx="30.5" cy="34" rx=".5" ry="1" style="fill:#dcdcf0"/>
  <path d="m26 12v43l-4-1v-41l4-1m1-1.28l-1.24.31-4 1-.76.19v.78 41 .78l.76.19 4 1 1.24.31v-1.28-43-1.28z" style="fill:#282828"/>
  <path d="m22.5 53.61v-40.22l3-.75v41.72z" style="fill:#d9f1ff"/>
  <path d="m25 13.28v40.44l-2-.5v-39.44l2-.5m1-1.28l-4 1v41l4 1v-43z" style="fill:#7aadcc"/>
  <path d="m27.5 12.5h2v42h-2z" style="fill:#dcdcf0"/>
  <path d="m29 13v41h-1v-41h1m1-1h-1-1-1v1 41 1h1 1 1v-1-41-1z" style="fill:#595959"/>
</svg>
