<?xml version="1.0"?>
<svg xmlns="http://www.w3.org/2000/svg" viewBox="0 0 64 64" style="enable-background:new 0 0 64 64">
  <g style="stroke-miterlimit:10;stroke-width:.25">
    <g style="fill:#063;stroke:#009949">
      <path d="m44.22 39.65c-1.58 0-2.94.6-3.63 1.47l-6.06-4.51-3.83-.97-3.84 1.45-2.25 1.45c-1.09-1.35-3.01-2.25-5.21-2.25-3.4 0-6.16 2.14-6.16 4.77s2.76 4.77 6.16 4.77c2.47 0 4.58-1.13 5.57-2.76.52 1.14 1.61 1.79 2.63 1.5.3-.09.56-.25.77-.46.62 1.21 2.42 1.63 4.13.93.44-.18.83-.42 1.16-.69.25 1.35 1.96 2.4 4.06 2.4 2 0 3.66-.95 4.03-2.2.69.34 1.54.56 2.46.56 2.27 0 4.11-1.22 4.11-2.73.01-1.5-1.83-2.73-4.1-2.73z"/>
      <path d="m47.16 17.62c.19-.32.31-.7.31-1.1 0-1.22-1.02-2.21-2.28-2.21-.48 0-.93.15-1.3.4l-3.89-3.26-7.66 1.02-7.23 5.19-10.81 7.76c-.38-.27-.84-.44-1.35-.44-1.26 0-2.28.99-2.28 2.21 0 1.22 1.02 2.21 2.28 2.21.32 0 .62-.07.9-.18l.66 2.07 9.35-1.21 1.31-4.03 15.32-2.91 7.47-4.8-.8-.72z"/>
    </g>
    <g style="stroke:#2aaa00">
      <path d="m59.77 25.91c-.85-.96-1.93-1.45-2.73-1.33 1.16-1.09 1.42-2.8.53-4.03-.6-.83-1.58-1.24-2.59-1.18.22-.79.13-1.62-.34-2.28-.9-1.25-2.81-1.41-4.25-.37-.06.04-.1.09-.15.13-.05-.29-.16-.58-.35-.83-.71-.99-2.19-1.13-3.31-.33-.64.46-1.01 1.14-1.08 1.82-.58-.54-1.4-.88-2.32-.88-1.74 0-3.16 1.2-3.16 2.68 0 .69.32 1.31.82 1.79l-.02.02c-.73-.94-2.17-1.07-3.26-.28-1.11.8-1.44 2.26-.73 3.24.49.68 1.34.95 2.19.8l.26 3.38 7.52 2.42h6.74l.7-.37c.09.17.19.33.32.47.83.93 2.23 1.04 3.13.24.48-.43.72-1.03.71-1.64.78.38 1.55.41 2.02-.01.75-.65.46-2.21-.65-3.46z" style="fill:#00a532"/>
      <path d="m58.06 35.69c-.59-.5-1.25-.81-1.86-.91.65-.79.95-1.82.69-2.84-.44-1.77-2.32-2.83-4.21-2.36-1.62.4-2.7 1.8-2.7 3.3l-8.96.2-2.97 2.17c-.26-.05-.53-.08-.81-.08-1.9 0-3.44 1.15-3.44 2.56 0 .84.55 1.58 1.4 2.05-.52.75-.69 1.61-.36 2.35.59 1.29 2.46 1.69 4.2.9.25-.11.48-.25.7-.4-.01.65.19 1.25.64 1.66 1.03.97 2.92.62 4.22-.77.2-.22.37-.45.52-.69.84.71 2.17 1.01 3.54.67 1.11-.28 1.99-.91 2.51-1.67.8.63 1.99.89 3.2.59 1.59-.4 2.69-1.62 2.77-2.92.79.21 1.53.09 1.94-.39.7-.82.24-2.35-1.02-3.42z" style="fill:#083"/>
      <path d="m55.66 32.16c.16-1.35-.49-2.53-1.45-2.64-.2-.02-.39.01-.58.08.19-.28.3-.6.3-.93 0-1.2-1.34-2.17-2.98-2.17-.81 0-1.55.24-2.08.62.01-.38-.08-.74-.31-1.03-.68-.84-2.2-.74-3.4.23-.6.48-1 1.09-1.17 1.68-.38-.36-.88-.65-1.48-.82-1.48-.42-2.93.07-3.22 1.11s.66 2.23 2.15 2.65c.07.02.15.03.22.05l-.56.98 1.33 1.34c-.18.66-.09 1.5.31 2.3.57 1.14 1.58 1.81 2.46 1.75-.07.94.4 1.82 1.24 2.15 1.06.42 2.3-.2 2.76-1.38.03-.08.05-.17.07-.25.25.2.55.38.88.53 1.28.58 2.57.48 2.9-.23.16-.34.05-.76-.23-1.16 1.19.49 2.37.36 2.69-.32.32-.7-.39-1.71-1.59-2.28.84-.11 1.6-1.04 1.74-2.26z" style="fill:#16bf2e"/>
    </g>
  </g>
  <path d="m33.31 63.25c-.07 0-.14-.03-.19-.09-.01-.01-.95-1.12-2.72-1.12-.82 0-1.7.24-2.62.7-.04.02-.07.03-.11.03-.08 0-.16-.04-.21-.11-.07-.1-.05-.25.04-.33.02-.02 2.1-1.89 2.1-5.39 0-3.48-1.01-4.59-1.02-4.6-.09-.1-.09-.26.01-.35l.56-.53c.05-.05.11-.07.17-.07.06 0 .12.02.17.06.04.03.2.19.38.4v-7c0-.04.13-2.99-.67-4.36-.55-.94-1.19-1.43-2.07-2.09-.42-.32-.9-.68-1.43-1.14-.36-.31-.57-.55-.48-.79.03-.08.12-.22.38-.22.59 0 2.39.79 2.59.88.52.37 1.75 1.22 2.38 1.57.22-1.03.3-2.15.07-2.33-.08-.07-.12-.18-.08-.28s.13-.17.24-.17h1.27c.07 0 .14.03.19.08s.07.12.06.2c0 .01-.13 1.11.06 2.1.42-.98 1.08-2.29 1.59-2.38.01 0 .03 0 .04 0 .04 0 .09.01.12.03l1.38.79c.1.06.15.18.11.3-.03.1-.13.17-.24.17-.01 0-.03 0-.03 0-.21 0-1.85.14-1.85 4.61v4.99c.07-.05.14-.1.21-.13.03-.01.07-.02.1-.02.05 0 .09.01.14.04.07.05.11.12.11.21v.75c0 .11-.07.21-.18.24.01 0-.59.44-.59 3.79 0 4.21.31 8.39 2.57 10.54.06.06.09.14.08.22-.01.08-.06.15-.13.19-.03.01-.19.09-.5.09-.41 0-1.09-.13-2.08-.71.05.23.14.53.34.88.06.11.03.25-.08.33-.08.01-.13.02-.18.02" style="fill:#ad7440"/>
  <path d="m33.99 36.16l1.38.79c0 0-.02 0-.05 0-.32 0-2.08.21-2.08 4.86v5.58c0 0 .34-.39.56-.48v.75c0 0-.78.22-.78 4.03s.19 8.39 2.64 10.72c0 0-.12.06-.39.06-.41 0-1.18-.15-2.38-.94 0 0-.07.61.41 1.48 0 0-.99-1.22-2.92-1.22-.77 0-1.68.19-2.73.73 0 0 2.18-1.92 2.18-5.58s-1.09-4.78-1.09-4.78l.56-.53c0 0 .7.63.8 1.14v-7.93c0 0 .15-3.03-.7-4.49s-1.9-1.87-3.56-3.3c-.49-.42-.49-.57-.26-.57.55 0 2.49.86 2.49.86s2.07 1.48 2.66 1.7c0 0 .6-2.45.05-2.89h1.27c0 0-.22 1.72.27 2.89 0 0 1.09-2.78 1.67-2.88m-1.93-.5h-1.27c-.21 0-.4.13-.47.34s-.01.42.16.56c.1.16.06.92-.09 1.74-.59-.36-1.46-.95-2.01-1.35-.03-.02-.06-.04-.09-.05-.48-.21-2.08-.9-2.69-.9-.43 0-.58.29-.61.38-.17.45.26.82.55 1.07.54.47 1.02.83 1.45 1.15.86.65 1.48 1.12 2.01 2.02.63 1.09.67 3.41.64 4.21v6.41c-.09-.07-.19-.1-.3-.1-.12 0-.25.05-.35.14l-.56.53c-.1.09-.15.22-.15.35 0 .13.05.26.14.36 0 0 .95 1.08.95 4.43 0 3.37-1.99 5.18-2.01 5.2-.19.17-.22.45-.08.66.1.14.25.22.41.22.08 0 .15-.02.23-.05.88-.45 1.72-.68 2.51-.68 1.67 0 2.52 1.02 2.53 1.03.1.12.24.18.39.18.1 0 .19-.03.28-.09.21-.15.28-.43.16-.66-.05-.09-.09-.17-.13-.25.75.36 1.3.45 1.65.45.35 0 .55-.08.62-.12.14-.07.24-.21.27-.37s-.03-.32-.15-.43c-2.19-2.08-2.49-6.2-2.49-10.35 0-2.83.44-3.5.52-3.59.16-.09.26-.25.26-.44v-.76c0-.17-.09-.33-.23-.42-.08-.05-.18-.08-.27-.08-.02 0-.04 0-.06 0v-4.6c0-2.3.44-3.38.82-3.87.35-.47.7-.49.76-.49.03.01.06.01.09.01.2 0 .38-.13.45-.33.08-.23-.03-.49-.24-.61l-1.38-.79c-.08-.04-.16-.07-.25-.07-.03 0-.05 0-.08.01-.17.03-.62.1-1.4 1.69-.02-.45.01-.86.03-1.09.01-.03.01-.07.01-.11-.03-.27-.26-.49-.53-.49z" style="fill:#724524"/>
  <path d="m25.85 37.06c1.65 1.43 2.71 1.84 3.56 3.3.85 1.45.7 4.49.7 4.49v3.22c.19.43.42.82.67.98.69.44.89 2.33.76 4.07-.13 1.75.84 2.09.84 2.09s.34-.38.68-1.04c-.04-.84-.05-1.67-.05-2.47 0-3.81.78-4.03.78-4.03v-.77c-.22.1-.56.48-.56.48v-5.58c0-5.12 2.13-4.86 2.13-4.86l-1.38-.79c-.58.1-1.67 2.89-1.67 2.89-.48-1.16-.27-2.89-.27-2.89h-1.27c.55.44-.05 2.89-.05 2.89-.59-.22-2.66-1.7-2.66-1.7s-3.86-1.72-2.21-.28" style="fill:#99561f"/>
  <g style="stroke-miterlimit:10;stroke-width:.25">
    <g style="stroke:#2aaa00">
      <path d="m44.16 11.48c-.77-.15-1.51-.12-2.14.04.93-1.68.22-4.06-1.74-5.5-1.53-1.12-3.38-1.34-4.76-.72.06-.87-.21-1.84-.84-2.68-1.19-1.58-3.17-2.09-4.42-1.15-.91.68-1.17 1.94-.8 3.19-.32-.21-.67-.33-1.04-.33-1.42 0-2.57 1.72-2.57 3.83 0 1.56.63 2.89 1.52 3.49l-.51 1.11-1.5-.34c.3-.45.49-.96.49-1.52 0-1.65-1.53-2.98-3.42-2.98-1.89 0-3.42 1.34-3.42 2.98s1.53 2.98 3.42 2.98c.78 0 1.5-.24 2.07-.63l.51.63 1.65.54c-1.01.88-1.54 1.74-1.27 2.31.47.99 3.1.73 5.88-.59 1.36-.64 2.5-1.41 3.25-2.15-.15.4-.17.79-.01 1.13.47.99 2.2 1.15 3.86.37.84-.4 1.5-.96 1.89-1.54.34.95 1.49 1.8 2.99 2.09 1.94.37 3.71-.34 3.95-1.6.27-1.26-1.1-2.58-3.04-2.96z" style="fill:#16bf2e"/>
      <path d="m26.49 38.11c-.4-.85-1.04-1.44-1.64-1.6l-.56-3.42-10.14.58-4.23 1.59c-.59-.64-1.46-1.06-2.46-1.06-1.77 0-3.2 1.3-3.2 2.9 0 1.6 1.43 2.9 3.2 2.9.01 0 .01 0 .01 0-.31.61-.37 1.27-.11 1.84.55 1.2 2.3 1.58 3.91.84.7 1.1 2.37 1.8 4.27 1.64 1.57-.13 2.89-.82 3.59-1.73.66.51 1.84.65 3.06.29 1.45-.43 2.47-1.43 2.49-2.36.51.45 1.08.63 1.52.42.75-.35.87-1.62.29-2.83z" style="fill:#083"/>
      <path d="m25.85 31.48l-3.93-6.01-5.24 1.17c-.13-.72-.5-1.31-1.1-1.56-1.11-.47-2.52.39-3.16 1.91-.29.69-.36 1.4-.26 2.01-.53-.7-1.45-1.17-2.48-1.17-1.65 0-2.98 1.17-2.98 2.62 0 .33.08.65.21.94-.17-.04-.34-.08-.51-.1-1.64-.18-3.07.63-3.21 1.83-.1.9.57 1.76 1.61 2.2.06.34.2.64.44.88.7.7 1.92.64 2.99-.05-.17 1.18.24 2.25 1.11 2.62.92.39 2.06-.15 2.78-1.22-.05 1.14.38 2.09 1.15 2.31.89.26 1.92-.54 2.47-1.83.23.52.59.88 1.03.94.74.11 1.48-.61 1.89-1.71.27.91.9 1.59 1.72 1.71 1.25.19 2.47-.99 2.71-2.62.11-.73-.01-1.42-.27-1.98l3.03-2.89z" style="fill:#16bf2e"/>
    </g>
    <path d="m30.89 18.86c.95-.44 1.6-1.32 1.6-2.34 0-1.46-1.31-2.64-2.93-2.64-1.62 0-2.93 1.18-2.93 2.64 0 .12.02.24.04.36l-11.85 3.47c-.4-1.22-1.48-2.11-2.75-2.11-1.62 0-2.93 1.41-2.93 3.15 0 1.22.65 2.26 1.6 2.79-.36.36-.59.8-.59 1.28 0 1.2 1.34 2.17 2.98 2.17.75 0 1.42-.21 1.94-.54.15 1.09 1.33 1.94 2.78 1.94 1.55 0 2.81-.97 2.81-2.17 0-.07-.02-.14-.03-.21l5.56-.76 1.79-2.2c.56.2 1.19.33 1.88.33 2.18 0 3.95-1.18 3.95-2.64-.01-1.2-1.25-2.21-2.92-2.52z" style="fill:#007f33;stroke:#009949"/>
    <path d="m31.23 14.5c-.47-.75-1.29-1.1-1.94-.87.06-.13.11-.26.14-.4.25-1.18-.69-2.38-2.1-2.68-1.07-.23-2.1.12-2.65.81-.39-.98-1.3-1.66-2.36-1.66-1.38 0-2.5 1.17-2.56 2.63-.54-.72-1.44-1.19-2.46-1.19-1.65 0-2.98 1.23-2.98 2.74 0 .43.11.82.3 1.18-.1-.03-.2-.07-.3-.09-1.61-.34-3.13.33-3.38 1.51-.16.75.22 1.51.93 2.06-1.31-.11-2.47.56-2.7 1.62-.25 1.18.75 2.39 2.23 2.71.79.17 1.55.04 2.13-.28.17.91.98 1.72 2.1 1.96 1.35.29 2.64-.36 2.97-1.45.73.52 1.9.41 2.8-.32.83-.68 1.18-1.67.95-2.47.44.44 1.07.8 1.81.95 1.44.31 2.79-.2 3.25-1.15.12.17.27.28.45.33.69.18 1.51-.68 1.83-1.92.16-.62.17-1.22.05-1.69.41.16.84.15 1.19-.06.69-.4.82-1.43.3-2.27z" style="fill:#00a532;stroke:#2aaa00"/>
    <path d="m44.06 30.72c-.89-1.01-2.24-1.28-3.02-.59-.05.05-.09.1-.14.15l-.56-.53-3.56-1.47-8.9.25-3.55.91c-.55-.7-1.38-1.15-2.33-1.15-1.65 0-2.98 1.35-2.98 3.01 0 1.11.61 2.07 1.5 2.6-.64.73-.93 1.56-.66 2.28.49 1.32 2.61 1.75 4.73.97.23-.09.45-.19.66-.29-.06.54.06 1.04.37 1.43.81 1 2.62.88 4.04-.27.32-.26.59-.55.81-.86.74.45 1.72.68 2.76.58 1.3-.13 2.4-.75 3.01-1.59.73.42 1.66.63 2.66.53 1.8-.18 3.19-1.3 3.48-2.63.68.26 1.38.2 1.86-.22.8-.73.71-2.1-.18-3.11z" style="fill:#007f33;stroke:#009949"/>
    <path d="m41.13 28.74c.09-.05.18-.1.26-.17 1.1-.91 1.14-2.66.11-3.92-.73-.89-1.81-1.27-2.77-1.11.26-.69.24-1.45-.14-2.08-.71-1.16-2.36-1.44-3.68-.63-.27.17-.5.38-.7.6.02-.34-.04-.66-.22-.94-.58-.94-2.07-1.09-3.32-.32-.74.46-1.23 1.13-1.38 1.8-.01-.01-.01-.02-.02-.03-.76-1.06-2.47-1.14-3.83-.17-1.14.81-1.65 2.1-1.34 3.12-1.29-.53-2.68-.23-3.24.78-.46.83-.23 1.89.49 2.7-1.26.3-2.16 1.24-2.12 2.32.05 1.27 1.39 2.24 2.98 2.18.15-.01.3-.03.45-.06-.18.52-.18 1.04.07 1.45.58.94 2.19 1.01 3.6.14.36-.22.67-.48.92-.76-.04.5.08.98.38 1.36.78.98 2.46.93 3.75-.1.14-.11.26-.23.37-.35.22.14.45.25.72.31 1.42.32 2.87-.72 3.23-2.34.07-.31.08-.61.07-.9.08.13.16.25.26.37.94 1.13 2.39 1.48 3.24.77.53-.44.71-1.19.53-1.96.11.05.22.08.34.12.97.26 1.89-.04 2.06-.68.17-.55-.3-1.17-1.07-1.5z" style="fill:#00b22e;stroke:#2aaa00"/>
  </g>
</svg>
