<?xml version="1.0"?>
<svg xmlns="http://www.w3.org/2000/svg" xmlns:xlink="http://www.w3.org/1999/xlink" viewBox="0 0 64 64" style="enable-background:new 0 0 64 64">
  <defs>
    <linearGradient id="3" gradientUnits="userSpaceOnUse" x1="30" x2="34">
      <stop style="stop-color:#c7a23d"/>
      <stop offset=".5" style="stop-color:#e6cead"/>
      <stop offset="1" style="stop-color:#c7a23d"/>
    </linearGradient>
    <linearGradient id="2" gradientUnits="userSpaceOnUse" x1="16.5" x2="47.5">
      <stop style="stop-color:#dd2a42"/>
      <stop offset=".5" style="stop-color:#dc6478"/>
      <stop offset="1" style="stop-color:#dd2a42"/>
    </linearGradient>
    <linearGradient id="0" gradientUnits="userSpaceOnUse" x1="23.5" x2="40.5">
      <stop style="stop-color:#82828c"/>
      <stop offset=".5" style="stop-color:#ccd3e7"/>
      <stop offset="1" style="stop-color:#82828c"/>
    </linearGradient>
    <linearGradient id="1" gradientUnits="userSpaceOnUse" x1="16.5" x2="47.5" xlink:href="#0"/>
  </defs>
  <path d="M16.5,54.5V25c0-4.1,3.4-7.5,7.5-7.5h16c4.1,0,7.5,3.4,7.5,7.5v29.5H16.5z" style="fill:url(#2)"/>
  <path d="m40 18c3.9 0 7 3.1 7 7v29h-30v-29c0-3.9 3.1-7 7-7h16m0-1h-16c-4.4 0-8 3.6-8 8v30h32v-30c0-4.4-3.6-8-8-8z" style="fill:#b2243b"/>
  <path d="m23.5 16.5v-6c1.1-.2 2-1.2 2-2.5s-.9-2.2-2-2.5v-1h17v1c-1.1.2-2 1.2-2 2.5s.9 2.2 2 2.5v6h-17m4-2h9v-8h-9v8" style="fill:url(#0)"/>
  <path d="m40 5v.2c-1.2.4-2 1.5-2 2.8s.8 2.4 2 2.8v5.2h-16v-5.2c1.2-.4 2-1.5 2-2.8s-.8-2.4-2-2.8v-.2h16m-13 10h1 8 1v-1-7-1h-1-8-1v1 7 1m14-11h-18v2c1.1 0 2 .9 2 2 0 1.1-.9 2-2 2v7h18v-7c-1.1 0-2-.9-2-2 0-1.1.9-2 2-2v-2zm-13 10v-7h8v7h-8" style="fill:#6a6a72"/>
  <path d="m30 9v1h1v4h2v-4h1v-1z" style="fill:url(#3)"/>
  <path d="m16.5 60.5v-4h4v-1h4v1h15v-1h4v1h4v4z" style="fill:url(#1)"/>
  <path d="m43 56v1h1 3v3h-30v-3h3 1v-1h3v1h1 14 1v-1h3m1-1h-5v1h-14v-1h-5v1h-4v5h32v-5h-4v-1z" style="fill:#6a6a72"/>
  <path d="m47 35v2h-30v-2h30m1-1h-32v4h32v-4z" style="fill:#b2243b"/>
</svg>
