<?xml version="1.0"?>
<svg xmlns="http://www.w3.org/2000/svg" viewBox="0 0 64 64" style="enable-background:new 0 0 64 64">
  <path d="m3 24.5c-.21 0-.39-.13-.47-.32s-.03-.41.13-.55l14-13c.04-.04.1-.08.15-.1l15-6c.06-.02.13-.03.19-.03s.13.01.19.04l15 6c.06.02.11.06.15.1l14 13c.15.14.2.36.13.55s-.26.31-.47.31h-58" style="fill:#d9f1ff"/>
  <path d="m32 5l15 6 14 13h-14-30-14l14-13 15-6m0-1c-.13 0-.25.02-.37.07l-15 6c-.11.05-.22.11-.31.2l-14 13c-.3.28-.4.72-.25 1.1s.52.63.93.63h14 30 14c.41 0 .78-.25.93-.63s.05-.82-.25-1.1l-14-13c-.09-.08-.19-.15-.31-.2l-15-6c-.12-.05-.24-.07-.37-.07z" style="fill:#7aadcc"/>
  <path d="m17 24.5l-.5-.5v-13l.5-.5h30l.5.5v13l-.5.5z" style="fill:#d9f1ff"/>
  <path d="m47 11v13h-30v-13h30m0-1h-30l-1 1v13l1 1h30l1-1v-13l-1-1z" style="fill:#7aadcc"/>
  <path d="m2.5 24.5h15v35h-15z" style="fill:#d9f1ff"/>
  <path d="m17 25v34h-14v-34h14m1-1h-1-14-1v1 34 1h1 14 1v-1-34-1z" style="fill:#7aadcc"/>
  <path d="m46.5 24.5h15v35h-15z" style="fill:#d9f1ff"/>
  <path d="m61 25v34h-14v-34h14m1-1h-1-14-1v1 34 1h1 14 1v-1-34-1z" style="fill:#7aadcc"/>
  <path d="m16.5 24.5h31v35h-31z" style="fill:#d9f1ff"/>
  <path d="m47 25v34h-30v-34h30m1-1h-1-30-1v1 34 1h1 30 1v-1-34-1z" style="fill:#7aadcc"/>
  <path d="m25.5 36.5h13v23h-13z" style="fill:#c99a61"/>
  <path d="m38 37v22h-12v-22h12m1-1h-1-12-1v1 22 1h1 12 1v-1-22-1z" style="fill:#664b3d"/>
  <g style="fill:#734a00">
    <path d="m35 47h2v1h-2z"/>
    <path d="m36 49h1v1h-1z"/>
  </g>
</svg>
