<?xml version="1.0"?>
<svg xmlns="http://www.w3.org/2000/svg" viewBox="0 0 64 64" style="enable-background:new 0 0 64 64">
  <path d="m32.01 52.5c-4.63 0-9.02-2.23-11.74-5.98-4.7-6.47-3.26-15.55 3.21-20.25 2.49-1.81 5.44-2.77 8.51-2.77 4.63 0 9.02 2.23 11.74 5.98 4.7 6.47 3.26 15.55-3.21 20.25-2.49 1.81-5.43 2.77-8.51 2.77" style="fill:#f0f0f0"/>
  <path d="m31.99 24c4.47 0 8.71 2.16 11.34 5.77 2.2 3.03 3.09 6.73 2.5 10.42-.58 3.69-2.57 6.94-5.6 9.14-2.41 1.75-5.25 2.67-8.22 2.67-4.47 0-8.71-2.16-11.34-5.77-2.2-3.03-3.09-6.73-2.5-10.42.58-3.69 2.57-6.94 5.6-9.14 2.41-1.75 5.25-2.67 8.22-2.67m0-1c-3.06 0-6.14.93-8.8 2.87-6.7 4.87-8.19 14.25-3.32 20.95 2.93 4.04 7.5 6.18 12.14 6.18 3.06 0 6.14-.93 8.8-2.87 6.7-4.87 8.19-14.25 3.32-20.95-2.93-4.04-7.5-6.18-12.14-6.18z" style="fill:#b4b4b4"/>
  <path d="m4.03 37h10.03c.18-3.21 1.19-6.2 2.83-8.75l-8.11-5.89c-2.85 4.21-4.56 9.23-4.75 14.64" style="fill:#2e7de5"/>
  <g style="fill:#c4cacc">
    <path d="m38.5 21.23c2.93 1.14 5.49 3.01 7.45 5.4l8.1-5.88c-3.19-4.08-7.49-7.25-12.44-9.06l-3.11 9.54"/>
    <path d="m47.12 28.25c1.65 2.55 2.65 5.53 2.83 8.75h10.03c-.19-5.41-1.91-10.43-4.75-14.64l-8.11 5.89"/>
  </g>
  <path d="m18.05 26.63c1.95-2.39 4.52-4.26 7.45-5.4l-3.1-9.54c-4.95 1.81-9.25 4.98-12.44 9.06l8.09 5.88" style="fill:#00c83c"/>
  <path d="m27.4 20.62c1.47-.39 3.01-.62 4.6-.62s3.13.23 4.6.62l3.1-9.54c-2.45-.7-5.03-1.08-7.7-1.08s-5.25.38-7.7 1.08l3.1 9.54" style="fill:#c4cacc"/>
  <g style="opacity:.6">
    <g style="fill:#1a171b">
      <path d="m23.6 30.6l-2.19-1.77-.59.73 2.18 1.77c.19-.26.39-.5.6-.73"/>
      <path d="m22.94 44.58c-.09-.13-.17-.26-.26-.39l-2.28 1.66.55.76 2.28-1.66c-.09-.13-.2-.24-.29-.37"/>
      <path d="m21.97 33.02l-2.57-1.14-.38.85 2.58 1.15c.11-.29.23-.58.37-.86"/>
      <path d="m20.83 38.7l-2.8.3.1.93 2.8-.29c-.05-.32-.08-.63-.1-.94"/>
      <path d="m21.38 41.58l-2.62 1.01.33.87 2.63-1.01c-.12-.29-.24-.58-.34-.87"/>
      <path d="m21.03 35.79l-2.79-.44-.15.92 2.79.44c.04-.31.09-.61.15-.92"/>
      <path d="m36.98 27.97l1.14-2.57-.85-.38-1.15 2.58c.29.11.58.23.86.37"/>
      <path d="m39.4 29.6l1.77-2.19-.73-.59-1.77 2.18c.26.19.5.39.73.6"/>
      <path d="m34.21 27.03l.44-2.79-.92-.15-.44 2.79c.31.04.61.09.92.15"/>
      <path d="m31.3 26.83l-.3-2.8-.93.1.29 2.8c.32-.05.63-.08.94-.1"/>
      <path d="m28.42 27.38l-1.01-2.62-.87.33 1.01 2.63c.29-.12.58-.24.87-.34"/>
    </g>
    <path d="m30.18 35.5c.27-.2.58-.34.86-.51l-6.47-8.9-1.62 1.18 6.47 8.9c.26-.23.49-.47.76-.67"/>
    <g style="fill:#1a171b">
      <path d="m43.17 37.3l2.8-.29-.1-.93-2.8.29c.05.31.08.62.1.93"/>
      <path d="m40.4 45.4l2.19 1.77.59-.73-2.18-1.77c-.19.26-.39.5-.6.73"/>
      <path d="m42.03 42.98l2.57 1.14.38-.85-2.58-1.15c-.11.29-.23.58-.37.86"/>
      <path d="m42.97 40.21l2.79.44.15-.92-2.79-.44c-.04.31-.09.61-.15.92"/>
      <path d="m42.62 34.42l2.62-1.01-.33-.87-2.63 1.01c.12.29.24.58.34.87"/>
      <path d="m40.77 31.05c.1.12.2.24.29.36s.17.26.26.39l2.28-1.66-.55-.76-2.28 1.67"/>
      <path d="m32.7 49.17l.29 2.8.93-.1-.29-2.8c-.31.05-.62.08-.93.1"/>
      <path d="m27.02 48.03l-1.14 2.57.85.38 1.15-2.58c-.29-.11-.58-.23-.86-.37"/>
      <path d="m38.58 47.06c-.13.09-.26.17-.39.26l1.66 2.28.76-.55-1.66-2.28c-.13.09-.24.2-.37.29"/>
      <path d="m29.79 48.97l-.44 2.79.92.15.44-2.79c-.31-.04-.61-.09-.92-.15"/>
      <path d="m35.58 48.62l1.01 2.62.87-.33-1.01-2.63c-.29.12-.58.24-.87.34"/>
      <path d="m24.6 46.4l-1.77 2.19.73.59 1.77-2.18c-.26-.19-.5-.39-.73-.6"/>
    </g>
  </g>
</svg>
