<?xml version="1.0"?>
<svg xmlns="http://www.w3.org/2000/svg" viewBox="0 0 64 64" style="enable-background:new 0 0 64 64">
  <path d="M32,52.5c-8,0-14.5-6.5-14.5-14.5S24,23.5,32,23.5S46.5,30,46.5,38S40,52.5,32,52.5z" style="fill:#f0f0f0"/>
  <path d="m32 24c7.72 0 14 6.28 14 14s-6.28 14-14 14-14-6.28-14-14 6.28-14 14-14m0-1c-8.28 0-15 6.72-15 15s6.72 15 15 15 15-6.72 15-15-6.72-15-15-15z" style="fill:#b4b4b4"/>
  <path d="m4.03 37h10.03c.18-3.21 1.19-6.2 2.83-8.75l-8.11-5.89c-2.85 4.21-4.56 9.23-4.75 14.64" style="fill:#2e7de5"/>
  <g style="fill:#c4cacc">
    <path d="m38.5 21.23c2.93 1.14 5.49 3.01 7.45 5.4l8.1-5.88c-3.19-4.08-7.49-7.25-12.44-9.06l-3.11 9.54"/>
    <path d="m47.12 28.25c1.65 2.55 2.65 5.53 2.83 8.75h10.03c-.19-5.41-1.91-10.43-4.75-14.64l-8.11 5.89"/>
  </g>
  <path d="m18.05 26.63c1.95-2.39 4.52-4.26 7.45-5.4l-3.1-9.54c-4.95 1.81-9.25 4.98-12.44 9.06l8.09 5.88" style="fill:#00c83c"/>
  <path d="m27.4 20.62c1.47-.39 3.01-.62 4.6-.62s3.13.23 4.6.62l3.1-9.54c-2.45-.7-5.03-1.08-7.7-1.08s-5.25.38-7.7 1.08l3.1 9.54" style="fill:#ffd200"/>
  <g style="opacity:.6">
    <g style="fill:#1a171b">
      <path d="m29.56 27.08l-.73-2.72-.9.24.73 2.71c.29-.09.59-.17.9-.23"/>
      <path d="m20.8 38c0-.16.02-.31.02-.47h-2.82v.93h2.82c0-.15-.02-.3-.02-.46"/>
      <path d="m26.81 28.08l-1.41-2.44-.81.47 1.41 2.44c.27-.17.53-.33.81-.47"/>
      <path d="m22.55 32.01l-2.44-1.41-.47.81 2.44 1.41c.14-.29.3-.55.47-.81"/>
      <path d="m21.31 34.65l-2.71-.73-.24.9 2.72.73c.06-.3.14-.6.23-.9"/>
      <path d="m24.43 29.77l-2-2-.66.66 2 2c.21-.23.43-.45.66-.66"/>
      <path d="m41.92 32.81l2.44-1.41-.47-.81-2.44 1.41c.17.27.33.53.47.81"/>
      <path d="m42.92 35.56l2.72-.73-.24-.9-2.71.73c.09.29.17.59.23.9"/>
      <path d="m40.23 30.43l2-2-.66-.66-2 2c.23.21.45.43.66.66"/>
      <path d="m37.99 28.55l1.41-2.44-.81-.47-1.41 2.44c.29.14.55.3.81.47"/>
      <path d="m35.35 27.31l.73-2.71-.9-.24-.73 2.72c.3.06.6.14.9.23"/>
    </g>
    <path d="m32 34.91c.34 0 .67.07 1 .09v-11h-2v11c.33-.03.66-.09 1-.09"/>
    <g style="fill:#1a171b">
      <path d="m41.45 43.99l2.44 1.41.47-.81-2.44-1.41c-.14.29-.3.55-.47.81"/>
      <path d="m34.44 48.92l.73 2.72.9-.24-.73-2.71c-.29.09-.59.17-.9.23"/>
      <path d="m37.19 47.92l1.41 2.44.81-.47-1.41-2.44c-.27.17-.53.33-.81.47"/>
      <path d="m39.57 46.23l2 2 .66-.66-2-2c-.21.23-.43.45-.66.66"/>
      <path d="m42.69 41.35l2.71.73.24-.9-2.72-.73c-.06.3-.14.6-.23.9"/>
      <path d="m43.18 37.53c.01.16.02.31.02.47s-.02.31-.02.47h2.82v-.93h-2.82z"/>
      <path d="m26.01 47.45l-1.41 2.44.81.47 1.41-2.44c-.29-.14-.55-.3-.81-.47"/>
      <path d="m22.08 43.19l-2.44 1.41.47.81 2.44-1.41c-.17-.27-.33-.53-.47-.81"/>
      <path d="m32 49.2c-.16 0-.31-.02-.47-.02v2.82h.93v-2.82c-.15 0-.3.02-.46.02"/>
      <path d="m23.77 45.57l-2 2 .66.66 2-2c-.23-.21-.45-.43-.66-.66"/>
      <path d="m28.65 48.69l-.73 2.71.9.24.73-2.72c-.3-.06-.6-.14-.9-.23"/>
      <path d="m21.08 40.44l-2.72.73.24.9 2.71-.73c-.09-.29-.17-.59-.23-.9"/>
    </g>
  </g>
</svg>
