<?xml version="1.0"?>
<svg xmlns="http://www.w3.org/2000/svg" viewBox="0 0 64 64" style="enable-background:new 0 0 64 64">
  <path d="m32 52.5c-1.52 0-3.03-.24-4.48-.71-3.68-1.2-6.68-3.76-8.44-7.21s-2.07-7.38-.87-11.06c1.95-6 7.49-10.02 13.79-10.02 1.52 0 3.03.24 4.48.71 3.68 1.2 6.68 3.76 8.44 7.21s2.07 7.38.87 11.06c-1.95 6-7.49 10.02-13.79 10.02" style="fill:#f0f0f0"/>
  <path d="m32 23v1c1.46 0 2.92.23 4.33.69 7.34 2.39 11.37 10.3 8.99 17.64-1.89 5.78-7.24 9.67-13.32 9.67-1.47 0-2.92-.23-4.33-.69-7.34-2.39-11.37-10.3-8.99-17.64 1.89-5.78 7.24-9.67 13.32-9.67v-1m0 0c-6.32 0-12.2 4.03-14.26 10.37-2.56 7.88 1.75 16.34 9.63 18.9 1.54.5 3.1.73 4.63.73 6.32 0 12.2-4.03 14.26-10.37 2.56-7.88-1.75-16.34-9.63-18.9-1.54-.5-3.1-.73-4.63-.73" style="fill:#b4b4b4"/>
  <path d="m4.03 37h10.03c.18-3.21 1.19-6.2 2.83-8.75l-8.11-5.89c-2.85 4.21-4.56 9.23-4.75 14.64" style="fill:#2e7de5"/>
  <g style="fill:#c4cacc">
    <path d="m38.5 21.23c2.93 1.14 5.49 3.01 7.45 5.4l8.1-5.88c-3.19-4.08-7.49-7.25-12.44-9.06l-3.11 9.54"/>
    <path d="m47.12 28.25c1.65 2.55 2.65 5.53 2.83 8.75h10.03c-.19-5.41-1.91-10.43-4.75-14.64l-8.11 5.89"/>
    <path d="m18.05 26.63c1.95-2.39 4.52-4.26 7.45-5.4l-3.1-9.54c-4.95 1.81-9.25 4.98-12.44 9.06l8.09 5.88"/>
    <path d="m27.4 20.62c1.47-.39 3.01-.62 4.6-.62s3.13.23 4.6.62l3.1-9.54c-2.45-.7-5.03-1.08-7.7-1.08s-5.25.38-7.7 1.08l3.1 9.54"/>
  </g>
  <g style="opacity:.6">
    <g style="fill:#1a171b">
      <path d="m20.86 36.95l-2.81-.15-.05.93 2.8.15c0-.31.03-.62.06-.93"/>
      <path d="m28.54 48.65c-.15-.05-.29-.11-.44-.17l-.87 2.69.89.29.87-2.69c-.15-.04-.3-.07-.45-.12"/>
      <path d="m20.96 39.87l-2.75.59.19.91 2.76-.59c-.08-.3-.15-.6-.2-.91"/>
      <path d="m23.38 45.13l-2.09 1.89.62.69 2.09-1.88c-.22-.22-.42-.46-.62-.7"/>
      <path d="m25.51 47.13l-1.53 2.35.79.52 1.53-2.36c-.27-.16-.53-.33-.79-.51"/>
      <path d="m21.83 42.66l-2.51 1.28.42.83 2.51-1.28c-.15-.27-.29-.55-.42-.83"/>
      <path d="m30.13 26.96l-.59-2.75-.91.19.59 2.76c.3-.08.6-.15.91-.2"/>
      <path d="m33.05 26.86l.15-2.81-.93-.05-.15 2.8c.31 0 .62.03.93.06"/>
      <path d="m27.34 27.83l-1.28-2.51-.83.42 1.28 2.51c.27-.15.55-.29.83-.42"/>
      <path d="m24.87 29.38l-1.89-2.09-.69.62 1.88 2.09c.22-.22.46-.42.7-.62"/>
      <path d="m22.87 31.51l-2.35-1.53-.52.79 2.36 1.53c.16-.27.33-.53.51-.79"/>
    </g>
    <path d="m29.06 37.04c.1-.32.27-.61.4-.92l-10.46-3.4-.62 1.9 10.46 3.4c.08-.32.12-.65.22-.98"/>
    <g style="fill:#1a171b">
      <path d="m40.62 30.87l2.09-1.89-.62-.69-2.09 1.88c.22.22.42.46.62.7"/>
      <path d="m43.14 39.05l2.81.15.05-.93-2.8-.15c0 .31-.03.62-.06.93"/>
      <path d="m43.04 36.13l2.75-.59-.19-.91-2.76.59c.08.3.15.6.2.91"/>
      <path d="m42.17 33.34l2.51-1.28-.42-.83-2.51 1.28c.15.27.29.55.42.83"/>
      <path d="m38.49 28.87l1.53-2.35-.79-.52-1.53 2.36c.27.16.53.33.79.51"/>
      <path d="m35.01 27.23c.15.04.3.07.45.12s.29.11.44.17l.87-2.69-.89-.29-.87 2.69"/>
      <path d="m39.13 46.62l1.89 2.09.69-.62-1.88-2.09c-.22.22-.46.42-.7.62"/>
      <path d="m33.87 49.04l.59 2.75.91-.19-.59-2.76c-.3.08-.6.15-.91.2"/>
      <path d="m42.65 41.46c-.05.15-.11.29-.17.44l2.69.87.29-.89-2.69-.87c-.04.15-.07.3-.12.45"/>
      <path d="m36.66 48.17l1.28 2.51.83-.42-1.28-2.51c-.27.15-.55.29-.83.42"/>
      <path d="m41.13 44.49l2.35 1.53.52-.79-2.36-1.53c-.16.27-.33.53-.51.79"/>
      <path d="m30.95 49.14l-.15 2.81.93.05.15-2.8c-.31 0-.62-.03-.93-.06"/>
    </g>
  </g>
</svg>
