<?xml version="1.0"?>
<svg xmlns="http://www.w3.org/2000/svg" viewBox="0 0 64 64" style="enable-background:new 0 0 64 64">
  <path d="M24,52.5C11,52.5,0.5,42,0.5,29S11,5.5,24,5.5S47.5,16,47.5,29S37,52.5,24,52.5z" style="fill:#f0f0f0"/>
  <path d="m24 6c12.7 0 23 10.3 23 23s-10.3 23-23 23-23-10.3-23-23 10.3-23 23-23m0-1c-13.3 0-24 10.7-24 24s10.7 24 24 24 24-10.7 24-24-10.7-24-24-24z" style="fill:#b4b4b4"/>
  <path d="m51.1 58.5c-.1 0-.3 0-.4-.1-.3 0-.7-.1-.9-.2h-.1c-4.8-.9-8.9-5.7-9.1-10.8v-1.5c.1-.9.3-1.9.7-2.9.4-.8.8-1.6 1.2-2.2l1.5-2.1c3.4-4.2 6.1-8.3 8.1-12.5l.2.4c2 5.1 5.3 9.4 8 12.6.3.5.7 1 1.1 1.5.5.8 1.1 1.8 1.6 2.8.3.7.5 1.6.6 2.6v1.4c0 .2-.1.3-.1.5 0 .1 0 .3 0 .3v.1.1c-.5 4.7-4.5 9-9 9.8h-.1c-.3.1-.6.1-.9.2-.2 0-.3 0-.5.1h-1.9z" style="fill:#1e82ff"/>
  <path d="m52.1 27.4c2.1 4.9 5.2 9 7.7 12.1.3.5.7 1 1.1 1.5.5.8 1.1 1.8 1.5 2.7.3.7.4 1.5.6 2.4v1.3c0 .2-.1.4-.1.5 0 .1 0 .1 0 .2l-.1.1v.1c-.5 4.5-4.3 8.6-8.6 9.4h-.1-.1c-.2.1-.5.1-.8.1-.2 0-.3 0-.5.1h-1.7c-.1 0-.3 0-.5-.1-.3 0-.6-.1-.8-.1h-.1-.1c-4.6-.8-8.5-5.4-8.7-10.3v-1.4c.1-.9.3-1.9.7-2.8.4-.8.8-1.5 1.2-2.2l1.5-2.1c3.3-3.8 5.9-7.6 7.9-11.5m0-2.4c-2.2 4.8-5.2 9.3-8.6 13.4l-1.5 2.1c-.5.7-.9 1.5-1.3 2.3-.4 1-.6 2.1-.8 3.1v1.6c.2 5.3 4.4 10.4 9.5 11.3.5.2 1.1.2 1.6.3h1.8c.5-.1 1.1-.1 1.6-.3 4.8-.9 8.9-5.3 9.4-10.3.1-.3 0-.7.1-1v-1.5c-.1-.9-.3-1.9-.6-2.7-.5-1-1-2-1.6-2.9-.4-.5-.8-1-1.1-1.5-3.2-3.8-6.1-7.9-7.9-12.5l-.6-1.4z" style="fill:#1271d8"/>
  <path d="m38.4 16.7l-2.8 2.8c2.1 2.6 3.4 5.9 3.4 9.5 0 4.1-1.7 7.9-4.4 10.6l2.8 2.8c3.5-3.4 5.6-8.2 5.6-13.4 0-4.7-1.7-9-4.6-12.3" style="fill:#2e7de5"/>
  <path d="M12.4,19.5l-2.8-2.8C6.7,20,5,24.3,5,29c0,5.2,2.1,10,5.6,13.4l2.8-2.8C10.7,36.9,9,33.1,9,29    C9,25.4,10.3,22.1,12.4,19.5z" style="fill:#f00014"/>
  <path d="m24 10c-4.7 0-9 1.7-12.3 4.6l2.8 2.8c2.6-2.1 5.9-3.4 9.5-3.4s6.9 1.3 9.5 3.4l2.8-2.8c-3.3-2.9-7.6-4.6-12.3-4.6" style="fill:#00c83c"/>
  <g style="fill:#1a171b;opacity:.6">
    <path d="m14.4 31.6l-2.9.9.3 1 2.9-.9c-.2-.4-.3-.7-.3-1"/>
    <path d="m16.6 35.7l-2.1 2.1.7.7 2.1-2.1c-.2-.2-.5-.5-.7-.7"/>
    <path d="m19.9 19.9l-1.4-2.7-.9.5 1.4 2.7c.3-.2.6-.4.9-.5"/>
    <path d="m16.2 22.7l-2.4-1.7-.6.8 2.4 1.8c.2-.3.4-.6.6-.9"/>
    <path d="m14.2 26.9l-3-.5-.2 1 3 .5c.1-.3.1-.6.2-1"/>
    <path d="m32.4 23.5l2.4-1.8-.6-.7-2.4 1.8c.2.2.4.5.6.7"/>
    <path d="m24 19c.2 0 .3 0 .5 0v-3h-1v3c.2 0 .3 0 .5 0"/>
    <path d="m29 20.3l1.4-2.7-.9-.5-1.4 2.7c.3.2.6.4.9.5"/>
    <path d="m33.9 27.9l3-.5-.2-1-3 .5c.2.4.2.7.2 1"/>
    <path d="m33.6 31.6c-.1.3-.2.6-.3 1l2.9.9.3-1-2.9-.9"/>
    <path d="m30.7 36.4l2.1 2.1.7-.7-2.1-2.1c-.2.2-.5.5-.7.7"/>
  </g>
  <g style="fill:#1a171b">
    <path d="m24 28.9c.2 0 1.8.5 1.9.6l1.1-13.1-5 12.1c.2 0 1.9.3 2 .4"/>
    <circle cx="24" cy="29" r="2"/>
  </g>
  <g style="opacity:.6">
    <path d="m22.7 40.8c.4.4.6.8.6 1.3 0 .5-.2 1-.6 1.3-.4.4-.8.6-1.3.6-.5 0-1-.2-1.3-.6-.4-.4-.6-.8-.6-1.3 0-.5.2-1 .6-1.3.4-.4.8-.6 1.3-.6.4 0 .9.2 1.3.6m-.6 2.1c.2-.2.3-.5.3-.8 0-.3-.1-.6-.3-.8-.2-.2-.5-.3-.8-.3-.3 0-.6.1-.8.3-.2.2-.3.5-.3.8 0 .3.1.6.3.8.2.2.5.3.8.3.3 0 .6-.1.8-.3m3.8-2.9h.6l-4.4 8h-.6l4.4-8m2.1 4.5c.4.4.6.8.6 1.3 0 .5-.2 1-.6 1.3-.4.4-.8.6-1.3.6-.5 0-1-.2-1.3-.6-.4-.4-.6-.8-.6-1.3 0-.5.2-1 .6-1.3.4-.4.8-.6 1.3-.6.5.1 1 .3 1.3.6m-.5 2.2c.2-.2.3-.5.3-.8s-.1-.6-.3-.8-.5-.3-.8-.3c-.3 0-.6.1-.8.3s-.3.5-.3.8.1.6.3.8.5.3.8.3c.3 0 .6-.1.8-.3" style="fill:#1a171b"/>
  </g>
</svg>
