<?xml version="1.0"?>
<svg xmlns="http://www.w3.org/2000/svg" viewBox="0 0 64 64" style="enable-background:new 0 0 64 64">
  <path d="m2.5 43.5v-23h35.29l11.5 11.5-11.5 11.5h-35.29m39.5-15c-1.93 0-3.5 1.57-3.5 3.5s1.57 3.5 3.5 3.5 3.5-1.57 3.5-3.5-1.57-3.5-3.5-3.5" style="fill:#1e82ff"/>
  <path d="m37.59 21l11 11-11 11h-34.59v-22h34.59m4.41 15c2.21 0 4-1.79 4-4s-1.79-4-4-4-4 1.79-4 4 1.79 4 4 4m-4-16h-36v24h36l12-12-12-12zm4 15c-1.66 0-3-1.34-3-3s1.34-3 3-3 3 1.34 3 3-1.34 3-3 3" style="fill:#1271d8"/>
  <path d="m44.45 38.55c1.84 2.11 4.53 3.45 7.55 3.45 5.52 0 10-4.48 10-10 0-5.52-4.48-10-10-10s-10 4.48-10 10c0 .68.07 1.34.2 1.98" style="fill:none;stroke-miterlimit:10;stroke:#b4b4b4;stroke-linecap:round;stroke-linejoin:round;stroke-width:2"/>
  <path d="m5.5 23.5h29v17h-29z" style="fill:#ececed"/>
  <path d="m34 24v16h-28v-16h28m1-1h-30v18h30v-18z" style="fill:#9b9c9e"/>
  <g style="fill:#646464">
    <path d="m9 28h22v2h-22z"/>
    <path d="m9 34h16v2h-16z"/>
  </g>
</svg>
