<?xml version="1.0"?>
<svg xmlns="http://www.w3.org/2000/svg" viewBox="0 0 64 64" style="enable-background:new 0 0 64 64">
  <defs>
    <linearGradient id="0" gradientUnits="userSpaceOnUse" x1="21.8288" y1="4.055" x2="42.1712" y2="59.945">
      <stop/>
      <stop offset=".5" style="stop-color:#191919"/>
      <stop offset=".5"/>
      <stop offset="1"/>
    </linearGradient>
  </defs>
  <path d="m0 12h64v40h-64z" style="fill:url(#0)"/>
  <circle cx="32" cy="45" r="2" style="fill:#c8c8c8"/>
  <g style="opacity:.5">
    <path d="m52 16c3.87 0 7 3.13 7 7s-3.13 7-7 7-7-3.13-7-7 3.13-7 7-7m0-1c-4.41 0-8 3.59-8 8s3.59 8 8 8 8-3.59 8-8-3.59-8-8-8z" style="fill:#c8c8c8"/>
  </g>
  <g style="opacity:.5">
    <path d="m14 34c3.87 0 7 3.13 7 7s-3.13 7-7 7-7-3.13-7-7 3.13-7 7-7m0-1c-4.41 0-8 3.59-8 8s3.59 8 8 8 8-3.59 8-8-3.59-8-8-8z" style="fill:#c8c8c8"/>
  </g>
  <g style="opacity:.5">
    <path d="m14 37.5c1.93 0 3.5 1.57 3.5 3.5s-1.57 3.5-3.5 3.5-3.5-1.57-3.5-3.5 1.57-3.5 3.5-3.5m0-1c-2.48 0-4.5 2.02-4.5 4.5s2.02 4.5 4.5 4.5 4.5-2.02 4.5-4.5-2.02-4.5-4.5-4.5z" style="fill:#c8c8c8"/>
  </g>
  <g style="opacity:.5">
    <path d="m50 40c1.66 0 3 1.34 3 3s-1.34 3-3 3-3-1.34-3-3 1.34-3 3-3m0-1c-2.21 0-4 1.79-4 4s1.79 4 4 4 4-1.79 4-4-1.79-4-4-4z" style="fill:#c8c8c8"/>
  </g>
  <g style="opacity:.5">
    <path d="m50 37c3.31 0 6 2.69 6 6s-2.69 6-6 6-6-2.69-6-6 2.69-6 6-6m0-1c-3.86 0-7 3.14-7 7s3.14 7 7 7 7-3.14 7-7-3.14-7-7-7z" style="fill:#c8c8c8"/>
  </g>
  <g style="opacity:.5">
    <path d="m14 16c3.87 0 7 3.13 7 7s-3.13 7-7 7-7-3.13-7-7 3.13-7 7-7m0-1c-4.41 0-8 3.59-8 8s3.59 8 8 8 8-3.59 8-8-3.59-8-8-8z" style="fill:#c8c8c8"/>
  </g>
  <g style="opacity:.5">
    <path d="m14 19c2.21 0 4 1.79 4 4s-1.79 4-4 4-4-1.79-4-4 1.79-4 4-4m0-1c-2.76 0-5 2.24-5 5s2.24 5 5 5 5-2.24 5-5-2.24-5-5-5z" style="fill:#c8c8c8"/>
  </g>
  <g style="opacity:.5">
    <path d="m14 22c.55 0 1 .45 1 1s-.45 1-1 1-1-.45-1-1 .45-1 1-1m0-1c-1.1 0-2 .9-2 2s.9 2 2 2 2-.9 2-2-.9-2-2-2z" style="fill:#c8c8c8"/>
  </g>
  <g style="opacity:.5">
    <path d="m52 19c2.21 0 4 1.79 4 4s-1.79 4-4 4-4-1.79-4-4 1.79-4 4-4m0-1c-2.76 0-5 2.24-5 5s2.24 5 5 5 5-2.24 5-5-2.24-5-5-5z" style="fill:#c8c8c8"/>
  </g>
  <g style="opacity:.5">
    <path d="m52 22c.55 0 1 .45 1 1s-.45 1-1 1-1-.45-1-1 .45-1 1-1m0-1c-1.1 0-2 .9-2 2s.9 2 2 2 2-.9 2-2-.9-2-2-2z" style="fill:#c8c8c8"/>
  </g>
  <g style="opacity:.3">
    <path d="m32 41c2.21 0 4 1.79 4 4s-1.79 4-4 4-4-1.79-4-4 1.79-4 4-4m0-1c-2.76 0-5 2.24-5 5s2.24 5 5 5 5-2.24 5-5-2.24-5-5-5z" style="fill:#fff"/>
  </g>
  <path d="m46.5 15.5h-4v.03c-.17-.01-2.33-.03-2.5-.03-4.14 0-7.5 3.36-7.5 7.5s3.36 7.5 7.5 7.5c.17 0 2.33-.01 2.5-.03v.03h4" style="fill:none;opacity:.5;stroke-miterlimit:10;stroke:#c8c8c8;stroke-linecap:round"/>
</svg>
