<?xml version="1.0"?>
<svg xmlns="http://www.w3.org/2000/svg" xmlns:xlink="http://www.w3.org/1999/xlink" viewBox="0 0 64 64" style="enable-background:new 0 0 64 64">
  <defs>
    <path id="0" d="m29.3 17.3c0 0 2.7 7.9 2.7 10.7 0-2.7 2.7-10.7 2.7-10.7h-5.4"/>
    <clipPath id="1">
      <use xlink:href="#0"/>
    </clipPath>
  </defs>
  <path d="m43 40.5c-.8 0-1.5-.7-1.5-1.5v-3.5h3v3.5c0 .8-.7 1.5-1.5 1.5" style="fill:#ba7750"/>
  <path d="m44 36v3c0 .6-.4 1-1 1s-1-.4-1-1v-3h2m1-1h-4v4c0 1.1.9 2 2 2s2-.9 2-2v-4z" style="fill:#a35c3d"/>
  <path d="m21 40.5c-.8 0-1.5-.7-1.5-1.5v-3.5h3v3.5c0 .8-.6 1.5-1.5 1.5" style="fill:#ba7750"/>
  <path d="m22 36v3c0 .6-.4 1-1 1-.6 0-1-.4-1-1v-3h2m1-1h-4v4c0 1.1.9 2 2 2s2-.9 2-2v-4z" style="fill:#a35c3d"/>
  <path d="m35.8 17h-7.5c-5.1 0-9.2 4.1-9.2 9.2v.6c0 .1-.1.3-.1.4v9.8h4v-5.4-3.8c0-1.2.4-2.2 1-3.1v12.3h16v-12.4c.5.7.9 1.6 1 2.5 0 .1 0 .1 0 .1v9.8h4v-9.2-.6-1.1c0-5-4.1-9.1-9.2-9.1" style="fill:#00783c"/>
  <path d="m27.5 64c-1.9 0-3.5-1.6-3.5-3.5v-1.5h7v1.5c0 1.9-1.5 3.5-3.5 3.5"/>
  <path d="m36.5 64c-1.9 0-3.5-1.6-3.5-3.5v-1.5h7v1.5c0 1.9-1.5 3.5-3.5 3.5"/>
  <ellipse cx="32" cy="17" rx="3.5" ry="2" style="fill:#fff"/>
  <path d="m24 37v22h7v-17c0-.6.5-1 1-1s1 .4 1 1v17h7v-22h-16" style="fill:#505050"/>
  <path d="m31 20h1v17h-1z" style="opacity:.2"/>
  <path d="m32.5 34c-.3 0-.5.2-.5.5 0 .3.2.5.5.5.3 0 .5-.2.5-.5 0-.3-.2-.5-.5-.5" style="opacity:.2"/>
  <path d="m32.5 32c-.3 0-.5.2-.5.5 0 .3.2.5.5.5.3 0 .5-.2.5-.5 0-.3-.2-.5-.5-.5" style="opacity:.2"/>
  <path d="m32.5 30c-.3 0-.5.2-.5.5 0 .3.2.5.5.5.3 0 .5-.2.5-.5 0-.3-.2-.5-.5-.5" style="opacity:.2"/>
  <path d="m32.5 28c-.3 0-.5.2-.5.5 0 .3.2.5.5.5.3 0 .5-.2.5-.5 0-.3-.2-.5-.5-.5" style="opacity:.2"/>
  <path d="m29.3 17.3c0 0 2.7 7.9 2.7 10.7 0-2.7 2.7-10.7 2.7-10.7h-5.4" style="clip-path:url(#1);fill:#fff"/>
  <path d="m30 17l1.5 2-1.5 3 2 6 2-6-1.5-3 1.5-2z" style="clip-path:url(#1);fill:#e70003"/>
  <g style="fill:#fff">
    <path d="m32.64596 17.12745h3.45404v1.5h-3.3z"/>
    <path d="m28.15956 15.96335h2.94044v1.5h-3.3z"/>
  </g>
  <path d="m32 16.5c-4.1 0-7.5-3.4-7.5-7.5s3.4-7.5 7.5-7.5 7.5 3.4 7.5 7.5-3.4 7.5-7.5 7.5" style="fill:#ba7750"/>
  <path d="m32 2c3.9 0 7 3.1 7 7s-3.1 7-7 7-7-3.1-7-7 3.1-7 7-7m0-1c-4.4 0-8 3.6-8 8 0 4.4 3.6 8 8 8s8-3.6 8-8c0-4.4-3.6-8-8-8z" style="fill:#a35c3d"/>
  <path d="m24.5 8.8c.1-4.1 3.4-7.3 7.5-7.3 4.1 0 7.4 3.2 7.5 7.3-1-1-1.8-2.2-2.2-3.5l-.1-.3h-.4c-.6 0-1.1.1-1.6.1-.8 0-1.5-.1-2.2-.2l-2.7-.4 2.4 1.3c.3.2.6.4.9.5-.5 0-1 0-1.4 0-2 0-3.7-.3-5.3-.9l-.5-.2-.2.5c-.4 1.3-1 2.3-1.7 3.1" style="fill:#472e18"/>
  <path d="m32 2c2.1 0 4 .9 5.3 2.4l-.6.1c-.5 0-1.1.1-1.6.1-.7 0-1.5-.1-2.1-.2l-5.4-.8 4 2.3c-1.7 0-3.3-.3-4.6-.8l-.7-.2c1.4-1.8 3.4-2.9 5.7-2.9m5.7 2.9c.5.7.9 1.4 1.1 2.2-.4-.6-.7-1.3-1-2l-.1-.2m-5.7-3.9c-4.4 0-8 3.6-8 8 0 .3 0 .6.1.9.9-.7 1.9-1.9 2.6-3.9 1.4.5 3.2.9 5.4.9 1 0 2.2-.1 3.4-.2 0 0-1.3-.4-2.7-1.2.7.1 1.5.2 2.3.2.5 0 1.1 0 1.7-.1.5 1.4 1.5 2.9 3.2 4.3 0-.3 0-.6 0-.9 0-4.4-3.6-8-8-8z" style="fill:#382211"/>
</svg>
