<?xml version="1.0"?>
<svg xmlns="http://www.w3.org/2000/svg" viewBox="0 0 64 64" style="enable-background:new 0 0 64 64">
  <path d="m35.3 61.5c-11.4 0-21.9-6.7-26.8-17-3.3-7.1-3.7-15.2-1-22.6s8.2-13.3 15.3-16.6c2.2-1 4.5-1.8 6.9-2.2-10.5 5-13.6 20.6-7 34.8 5.2 11.1 14.9 18.5 24.3 18.5 2.4 0 4.7-.5 6.8-1.5-1.9 1.5-3.9 2.8-6.1 3.8-3.9 1.9-8.1 2.8-12.4 2.8" style="fill:#efe8da"/>
  <path d="m26.6 4.3c-8.4 6.4-10.4 20.6-4.3 33.7 5.2 11.2 15.2 18.8 24.8 18.8 1.3 0 2.6-.1 3.8-.4-1.1.7-2.2 1.3-3.3 1.8-3.9 1.8-8 2.7-12.2 2.7-11.3.1-21.6-6.5-26.4-16.6-6.7-14.5-.5-31.8 14-38.6 1.2-.5 2.4-1 3.6-1.4m8.7-2.3c-4.3 0-8.6.9-12.7 2.8-15 7-21.5 24.9-14.5 39.9 5.1 10.9 15.9 17.3 27.2 17.3 4.2 0 8.6-.9 12.7-2.8 4.3-2 7.9-4.9 10.7-8.4-1.4 1.5-3.1 2.8-5 3.7-2.1 1-4.4 1.5-6.7 1.5-9 0-18.7-7-23.9-18.2-6.5-14.2-3.5-29.5 6.9-34.4 1.9-.9 3.9-1.4 6-1.4-.3 0-.5 0-.7 0z" style="fill:#dbd4c8"/>
</svg>
