<?xml version="1.0"?>
<svg xmlns="http://www.w3.org/2000/svg" viewBox="0 0 64 64" style="enable-background:new 0 0 64 64">
  <path d="m28.5 48.8c1-.8 2.2-1.3 3.5-1.3s2.5.4 3.5 1.3l-3.5 3.5-3.5-3.5" style="fill:#00c864"/>
  <path d="m32 48c1 0 1.9.3 2.8.8l-2.8 2.8-2.8-2.8c.9-.5 1.8-.8 2.8-.8m0-1c-1.5 0-3.1.6-4.2 1.8l4.2 4.2 4.2-4.2c-1.1-1.2-2.7-1.8-4.2-1.8z" style="fill:#009949"/>
  <path d="m40.5 43.8c-2.3-2.1-5.3-3.3-8.5-3.3s-6.2 1.2-8.5 3.3l-3.5-3.5c3.3-3.1 7.5-4.8 12-4.8s8.8 1.7 12 4.8l-3.5 3.5" style="fill:#00c864"/>
  <path d="m32 36c4.2 0 8.2 1.5 11.3 4.3l-2.8 2.8c-2.4-2-5.3-3.1-8.5-3.1s-6.1 1.1-8.5 3.1l-2.8-2.8c3.1-2.8 7.1-4.3 11.3-4.3m0-1c-4.6 0-9.2 1.8-12.7 5.3l4.2 4.2c2.3-2.3 5.4-3.5 8.5-3.5 3.1 0 6.1 1.2 8.5 3.5l4.2-4.2c-3.5-3.5-8.1-5.3-12.7-5.3z" style="fill:#009949"/>
  <path d="m49 35.3c-4.6-4.4-10.6-6.8-17-6.8s-12.4 2.4-17 6.8l-3.5-3.5c5.5-5.3 12.8-8.3 20.5-8.3s15 2.9 20.5 8.3l-3.5 3.5" style="fill:#00c864"/>
  <path d="m32 24c7.4 0 14.4 2.8 19.8 7.8l-2.8 2.8c-4.7-4.3-10.7-6.6-17-6.6s-12.3 2.3-17 6.6l-2.8-2.8c5.4-5 12.4-7.8 19.8-7.8m0-1c-7.7 0-15.4 2.9-21.2 8.8l4.2 4.2c4.7-4.7 10.8-7 17-7s12.3 2.3 17 7l4.2-4.2c-5.8-5.9-13.5-8.8-21.2-8.8z" style="fill:#009949"/>
  <path d="m57.5 26.8c-6.9-6.6-15.9-10.3-25.5-10.3s-18.6 3.7-25.5 10.3l-3.5-3.5c7.8-7.6 18.1-11.8 29-11.8s21.2 4.2 29 11.8l-3.5 3.5" style="fill:#00c864"/>
  <path d="m32 12c10.6 0 20.6 4 28.3 11.3l-2.8 2.8c-7-6.5-16-10.1-25.5-10.1s-18.5 3.6-25.4 10.1l-2.8-2.8c7.6-7.3 17.6-11.3 28.2-11.3m0-1c-10.8 0-21.5 4.1-29.7 12.3l4.2 4.2c7-7 16.2-10.5 25.5-10.5s18.4 3.5 25.5 10.5l4.2-4.2c-8.2-8.2-19-12.3-29.7-12.3z" style="fill:#009949"/>
</svg>
