<?xml version="1.0"?>
<svg xmlns="http://www.w3.org/2000/svg" viewBox="0 0 64 64" style="enable-background:new 0 0 64 64">
  <path d="m30.59 20.69l2.12 2.12c.39.39.39 1.02 0 1.41l-8.49 8.49c-.39.39-1.02.39-1.41 0l-2.12-2.12-16.97 16.97 12.73 12.73 43.84-43.84-12.73-12.73-16.97 16.97m-11.36 29.65c-1.56 1.56-4.09 1.56-5.66 0-1.56-1.56-1.56-4.09 0-5.66s4.09-1.56 5.66 0c1.56 1.57 1.56 4.1 0 5.66" style="fill:#fcd703"/>
  <path d="m60.28 16.44c.78-.78.78-2.05 0-2.83l-9.9-9.9c-.78-.78-2.05-.78-2.83 0l12.73 12.73"/>
  <path d="m16.44 60.28c-.78.78-2.05.78-2.83 0l-9.9-9.9c-.78-.78-.78-2.05 0-2.83l12.73 12.73"/>
  <circle cx="16.4" cy="47.51" r="4" style="fill:#fff"/>
  <path d="m16.44 43.56c1.02 0 2.05.39 2.83 1.17 1.56 1.56 1.56 4.09 0 5.66-.78.78-1.8 1.17-2.83 1.17-1.02 0-2.05-.39-2.83-1.17-1.56-1.56-1.56-4.09 0-5.66.79-.78 1.81-1.17 2.83-1.17m0-1c-1.34 0-2.59.52-3.54 1.46s-1.46 2.2-1.46 3.54c0 1.34.52 2.59 1.46 3.54.94.94 2.2 1.46 3.54 1.46 1.34 0 2.59-.52 3.54-1.46.94-.94 1.46-2.2 1.46-3.54 0-1.34-.52-2.59-1.46-3.54s-2.2-1.46-3.54-1.46z"/>
  <g style="stroke-width:.99999041">
    <path d="m12.9077 45.440052h4.5323v8h-2z" style="fill:#c4e500"/>
    <path d="m14.320857 45.437961h1.559143v2h-1z" style="fill:#f1ff33"/>
  </g>
  <path d="m12.59 46.53c-.35 1.33-.02 2.81 1.02 3.85 1.04 1.04 2.52 1.37 3.85 1.02l-4.87-4.87"/>
  <path d="m15.42 43.71l4.87 4.87c.35-1.33.02-2.81-1.02-3.85-1.04-1.05-2.52-1.38-3.85-1.02"/>
  <path d="m30.59 20.69l2.12 2.12c.39.39.39 1.02 0 1.41l-8.49 8.49c-.39.39-1.02.39-1.41 0l-2.12-2.12-.71.71 2.12 2.12c.78.78 2.05.78 2.83 0l8.49-8.49c.78-.78.78-2.05 0-2.83l-2.12-2.12-.71.71"/>
  <g style="stroke-width:.99999041">
    <path d="m22.80765 32.70271h5.39235v14h-3z" style="fill:#c4e500"/>
    <path d="m25.636 28.469272h1.704v4h-2z" style="fill:#f1ff33"/>
    <path d="m14.32195 48.267454h1.55805v2h-1z" style="opacity:.2"/>
    <path d="m24.929208 26.34315h2.060792v1h-2z" style="opacity:.2"/>
    <path d="m21.39774 29.879938h1.91226v3h-1z" style="opacity:.2"/>
    <path d="m29.17584 22.099262h1.91416v3h-1z" style="opacity:.2"/>
    <path d="m12.197416 47.555324h2.062584v1h-2z" style="opacity:.2"/>
    <path d="m15.739284 51.090824h2.060716v1h-2z" style="opacity:.2"/>
  </g>
</svg>
