<?xml version="1.0"?>
<svg xmlns="http://www.w3.org/2000/svg" xmlns:xlink="http://www.w3.org/1999/xlink" viewBox="0 0 64 64" style="enable-background:new 0 0 64 64">
  <defs>
    <linearGradient id="0" gradientUnits="userSpaceOnUse" x1="3" x2="61">
      <stop style="stop-color:#fff;stop-opacity:0"/>
      <stop offset=".2"/>
      <stop offset=".8"/>
      <stop offset="1" style="stop-color:#fff;stop-opacity:0"/>
    </linearGradient>
    <linearGradient id="1" gradientUnits="userSpaceOnUse" y1="64" x2="0" y2="6">
      <stop style="stop-color:#ff0;stop-opacity:.6"/>
      <stop offset="1" style="stop-color:#ffff64;stop-opacity:.4"/>
    </linearGradient>
    <linearGradient id="2" gradientUnits="userSpaceOnUse" y1="64" x2="0" y2="6" xlink:href="#1"/>
  </defs>
  <path d="m3 46h58v1h-58z" style="fill:url(#0)"/>
  <path d="m12.5 59.5v-45.19l19.5-9.75 19.5 9.75v45.19z" style="fill:#f0f0f0"/>
  <path d="M32,5.12l19,9.5V59H13V14.62L32,5.12 M32,4L12,14v46h40V14L32,4L32,4z" style="fill:#c8c8c8"/>
  <path d="m12.5 33.5h39v13h-39z" style="fill:#f0f0f0"/>
  <path d="m51 34v12h-38v-12h38m1-1h-40v14h40v-14z" style="fill:#c8c8c8"/>
  <path d="m12.5 20.5h39v13h-39z" style="fill:#f0f0f0"/>
  <path d="m51 21v12h-38v-12h38m1-1h-40v14h40v-14z" style="fill:#c8c8c8"/>
  <path d="m17.43 23.43h5.13v6.13h-5.13z" style="fill:#f0f0f0"/>
  <path d="m22.13 23.87v5.27h-4.27v-5.27h4.27m.87-.87h-6v7h6v-7z" style="fill:#c8c8c8"/>
  <path d="m22.43 23.43h5.13v6.13h-5.13z" style="fill:#f0f0f0"/>
  <path d="m27.13 23.87v5.27h-4.27v-5.27h4.27m.87-.87h-6v7h6v-7z" style="fill:#c8c8c8"/>
  <path d="m40.5 36.5h6v10h-6z" style="fill:#f0f0f0"/>
  <path d="m46 37v9h-5v-9h5m1-1h-7v11h7v-11z" style="fill:#c8c8c8"/>
  <path d="m31.43 23.43h5.13v6.13h-5.13z" style="fill:#f0f0f0"/>
  <path d="m36.13 23.87v5.27h-4.27v-5.27h4.27m.87-.87h-6v7h6v-7z" style="fill:#c8c8c8"/>
  <path d="m17.43 36.43h5.13v6.13h-5.13z" style="fill:#f0f0f0"/>
  <path d="m22.13 36.87v5.27h-4.27v-5.27h4.27m.87-.87h-6v7h6v-7z" style="fill:#c8c8c8"/>
  <path d="m22.43 36.43h5.13v6.13h-5.13z" style="fill:#f0f0f0"/>
  <path d="m27.13 36.87v5.27h-4.27v-5.27h4.27m.87-.87h-6v7h6v-7z" style="fill:#c8c8c8"/>
  <path d="m31.43 36.43h5.13v6.13h-5.13z" style="fill:#f0f0f0"/>
  <path d="m36.13 36.87v5.27h-4.27v-5.27h4.27m.87-.87h-6v7h6v-7z" style="fill:#c8c8c8"/>
  <path d="m40.47 23.47h6.06v6.06h-6.06z" style="fill:#f0f0f0"/>
  <g style="fill:#c8c8c8">
    <path d="m46.06 23.94v5.13h-5.13v-5.13h5.13m.94-.94h-7v7h7v-7z"/>
    <path d="m44 41h1v1h-1z"/>
  </g>
  <path d="m12.5 20.5v-6.19l19.5-9.75 19.5 9.75v6.19z" style="fill:#f0f0f0"/>
  <path d="M32,5.12l19,9.5V20H13v-5.38L32,5.12 M32,4L12,14v7h40v-7L32,4L32,4z" style="fill:#c8c8c8"/>
  <path d="m25.5 12.5h5v5h-5z" style="fill:#f0f0f0"/>
  <path d="m30 13v4h-4v-4h4m1-1h-6v6h6v-6z" style="fill:#c8c8c8"/>
  <path d="m33.5 12.5h5v5h-5z" style="fill:#f0f0f0"/>
  <path d="m38 13v4h-4v-4h4m1-1h-6v6h6v-6z" style="fill:#c8c8c8"/>
  <path d="m20 64l-8-49 18-9-6 58z" style="fill:url(#1)"/>
  <path d="m44 64l8-49-18-9 6 58z" style="fill:url(#2)"/>
  <path d="m58 17.5l-26-13-26 13" style="fill:none;stroke-miterlimit:10;stroke:#2e7de5;stroke-width:1.5"/>
</svg>
