<?xml version="1.0"?>
<svg xmlns="http://www.w3.org/2000/svg" xmlns:xlink="http://www.w3.org/1999/xlink" viewBox="0 0 64 64" style="enable-background:new 0 0 64 64">
  <defs>
    <path id="0" d="m38.7 24.9c0 0 3.3 9.8 3.3 13.1 0-3.4 3.3-13.1 3.3-13.1h-6.6"/>
    <clipPath id="1">
      <use xlink:href="#0"/>
    </clipPath>
  </defs>
  <path d="m28.5 53.5c-1.1 0-2-.9-2-2v-4.5h4v4.5c0 1.1-.9 2-2 2" style="fill:#e7b48f"/>
  <path d="m30 47.5v4c0 .9-.7 1.5-1.5 1.5-.8 0-1.5-.7-1.5-1.5v-4h3m1-1h-5v5c0 1.4 1.1 2.5 2.5 2.5 1.4 0 2.5-1.1 2.5-2.5v-5z" style="fill:#d89f79"/>
  <path d="m55.5 53.5c-1.1 0-2-.9-2-2v-4.5h4v4.5c0 1.1-.9 2-2 2" style="fill:#e7b48f"/>
  <path d="m57 47.5v4c0 .9-.7 1.5-1.5 1.5-.8 0-1.5-.7-1.5-1.5v-4h3m1-1h-5v5c0 1.4 1.1 2.5 2.5 2.5 1.4 0 2.5-1.1 2.5-2.5v-5z" style="fill:#d89f79"/>
  <path d="m46.7 24h-9.3c-6.3 0-11.3 5.2-11.3 11.5v.8c0 .2-.1.4-.1.6v12.1h4.9v-6.7-4.8c0-1.5.5-2.8 1.3-3.9v15.4h19.7v-15.5c.6.9 1.1 2 1.2 3.2 0 .1 0 .1 0 .2v12.1h4.9v-11.4-.7-1.3c0-6.4-5.1-11.6-11.3-11.6" style="fill:#00783c"/>
  <ellipse cx="42" cy="24.4" rx="4.3" ry="2.5" style="fill:#fff"/>
  <path d="m41 30h1v19h-1z" style="opacity:.2"/>
  <path d="m42.5 39c-.3 0-.5.2-.5.5 0 .3.2.5.5.5.3 0 .5-.2.5-.5 0-.3-.2-.5-.5-.5" style="opacity:.2"/>
  <path d="m42.5 42c-.3 0-.5.2-.5.5 0 .3.2.5.5.5.3 0 .5-.2.5-.5 0-.3-.2-.5-.5-.5" style="opacity:.2"/>
  <path d="m42.5 45c-.3 0-.5.2-.5.5 0 .3.2.5.5.5.3 0 .5-.2.5-.5 0-.3-.2-.5-.5-.5" style="opacity:.2"/>
  <path d="m38.7 24.9c0 0 3.3 9.8 3.3 13.1 0-3.4 3.3-13.1 3.3-13.1h-6.6" style="clip-path:url(#1);fill:#fff"/>
  <path d="m39.5 24.4l1.9 2.5-1.9 3.7 2.5 7.4 2.4-7.4-1.8-3.7 1.8-2.5z" style="clip-path:url(#1);fill:#e70003"/>
  <g style="fill:#fff">
    <path d="m42.8029 24.56356h4.2971v1.8h-4.1z"/>
    <path d="m37.34303 23.17076h3.65697v1.8h-4.1z"/>
  </g>
  <path d="m42 23.5c-5.2 0-9.5-4.3-9.5-9.5s4.3-9.5 9.5-9.5 9.5 4.3 9.5 9.5-4.3 9.5-9.5 9.5" style="fill:#e7b48f"/>
  <path d="m42 5c5 0 9 4 9 9s-4 9-9 9-9-4-9-9 4-9 9-9m0-1c-5.5 0-10 4.5-10 10 0 5.5 4.5 10 10 10s10-4.5 10-10c0-5.5-4.5-10-10-10z" style="fill:#d89f79"/>
  <path d="m32.5 14c0-5.2 4.3-9.5 9.5-9.5s9.5 4.3 9.5 9.5c0 0 0 0 0 0-1.4-1.3-2.4-2.8-3-4.6l-.1-.4h-.4c-.7.1-1.4.1-2 .1-1 0-1.9-.1-2.8-.2l-2.7-.4 2.4 1.3c.6.3 1.1.6 1.6.8-.8.1-1.5.1-2.3.1-2.5 0-4.7-.4-6.6-1.1l-.5-.2-.2.5c-.6 1.7-1.4 3-2.4 4 0 .2 0 .1 0 .1" style="fill:#edda7b"/>
  <path d="m42 5c4.5 0 8.3 3.3 8.9 7.7-.9-1-1.5-2.2-1.9-3.4l-.3-.7-.8.1c-.7.1-1.4.1-2 .1-.9 0-1.9-.1-2.7-.2l-5.4-.8 4.7 2.6c-.1 0-.2 0-.4 0-2.4 0-4.6-.4-6.4-1l-.9-.4-.3.9c-.4 1-.8 1.9-1.3 2.6.6-4.2 4.3-7.5 8.8-7.5m0-1c-5.5 0-10 4.5-10 10 0 .4 0 .8.1 1.2 1.1-.9 2.4-2.4 3.3-4.9 1.8.7 4 1.1 6.8 1.1 1.3 0 2.7-.1 4.2-.3 0 0-1.6-.6-3.3-1.5.9.1 1.8.2 2.9.2.7 0 1.4 0 2.1-.1.7 1.9 1.9 3.8 3.9 5.5 0-.4.1-.7.1-1.1-.1-5.6-4.6-10.1-10.1-10.1z" style="fill:#ccb966"/>
  <path d="m22 32.9c-4.9 0-9.5-1.7-12.8-4.8 2.5-1 4.1-2.8 4.3-4.9h16.9c.2 2.1 1.9 3.9 4.3 4.9-3.2 3-7.8 4.8-12.7 4.8" style="fill:#1c1914"/>
  <path d="m30 23.7c.4 1.9 1.8 3.5 3.8 4.5-3.1 2.7-7.4 4.2-11.9 4.2s-8.7-1.5-11.9-4.2c2.1-1 3.5-2.7 3.8-4.5h16.2m1-1h-17.9c0 0 0 0 0 0 0 2.3-2 4.3-4.8 5.2 3.3 3.4 8.2 5.5 13.7 5.5 5.5 0 10.4-2.1 13.7-5.5-2.8-.9-4.7-2.9-4.7-5.2z" style="fill:#0a0907"/>
  <path d="m35.5 59.5c-1.1 0-2-.9-2-2v-14.7c-.2-1.3-.6-2.4-1.2-3.3l-.3-.5-10 8-9.9-8-.3.4c-.8 1.2-1.3 2.6-1.3 4.2v13.9c0 1.1-.9 2-2 2-1.1 0-2-.9-2-2v-15.3c4.4-.2 5.6-3.6 6.6-6.6.9-2.5 1.7-4.7 4.2-4.7h9.3c2.6 0 3.3 2.2 4.2 4.7 1.1 3 2.2 6.3 6.6 6.6v15.3c.1 1.1-.8 2-1.9 2" style="fill:#a55d2b"/>
  <path d="m26.7 31.4c2.1 0 2.8 1.6 3.8 4.4.3.9.7 1.9 1.2 2.9l-.4.3-9.3 7.4-9.2-7.4-.4-.3c.5-.9.8-1.9 1.2-2.9 1-2.8 1.7-4.4 3.8-4.4h9.3m-16.4 10c-.2.7-.3 1.4-.3 2.2v13.9c0 .8-.7 1.5-1.5 1.5-.8 0-1.5-.7-1.5-1.5v-14.8c1.4-.2 2.4-.6 3.3-1.3m23.5 0c.8.6 1.9 1.1 3.2 1.2v14.9c0 .8-.7 1.5-1.5 1.5-.8 0-1.5-.7-1.5-1.5v-14.5-.3-.1-.1c-.1-.3-.1-.7-.2-1.1m-7.1-11h-9.3c-6.3 0-3.1 11.3-11.4 11.3v15.8c0 1.4 1.1 2.5 2.5 2.5 1.4 0 2.5-1.1 2.5-2.5v-13.9c0-1.4.4-2.8 1.2-3.9l9.8 7.9 9.9-7.9c.6.9 1 1.9 1.1 3v.3 14.5c0 1.4 1.2 2.5 2.5 2.5 1.4 0 2.5-1.1 2.5-2.5v-15.8c-8.2 0-5.1-11.3-11.3-11.3z" style="fill:#89471b"/>
  <g style="fill:#bd0926">
    <path d="m33.1 56h-11.1v-14.5c3.9-3.9 5.3-7.2 5.9-9.4.1-.3.1-.6.2-.8 0-.3.1-.5.1-.8 6.1 0 9.8 9.3 9.8 11.2l-4.9 1.9c0-1.4-.5-2.8-1.2-3.9l-2.4 7.9 2.5 3.7 1.1 4.7"/>
    <path d="m10.9 56h11.1v-14.5c-3.9-3.9-5.3-7.2-5.9-9.4-.1-.3-.1-.6-.2-.8 0-.3-.1-.5-.1-.8-6.1 0-9.8 9.3-9.8 11.2l4.9 1.9c0-1.4.5-2.8 1.2-3.9l2.4 7.9-2.5 3.7-1.1 4.7"/>
  </g>
  <path d="m22 29.5c-5.2 0-9.5-4.3-9.5-9.5s4.3-9.5 9.5-9.5 9.5 4.3 9.5 9.5-4.3 9.5-9.5 9.5" style="fill:#a55d2b"/>
  <path d="m22 11c5 0 9 4 9 9s-4 9-9 9-9-4-9-9 4-9 9-9m0-1c-5.5 0-10 4.5-10 10 0 5.5 4.5 10 10 10s10-4.5 10-10c0-5.5-4.5-10-10-10z" style="fill:#89471b"/>
  <path d="m12.7 21.9c-.1-.6-.2-1.3-.2-1.9 0-5.2 4.3-9.5 9.5-9.5s9.5 4.3 9.5 9.5c0 .2 0 .4 0 .7v-.1l-.1-.1c-1.1-1.2-2.1-2.8-2.9-4.8l-.2-.4-.4.1c-.7.2-1.6.3-2.5.3-1.5 0-3.2-.3-5-.9l-3-1 2.6 1.9c1.2.9 2.3 1.4 3.3 1.7-.3 0-.7 0-1 0-2.3 0-4.5-.5-6.5-1.5l-.5-.2-.2.5c-.7 2.1-1.5 4-2.4 5.7" style="fill:#1c1914"/>
  <path d="m22 11c4.7 0 8.6 3.6 9 8.2-.8-1-1.4-2.3-2.1-3.8l-.3-.8-.9.3c-.7.2-1.5.3-2.3.3-1.4 0-3-.3-4.8-.9l-4.1-1.4c1.5-1.2 3.4-1.9 5.5-1.9m-6.1 2.4l3.7 2.7c.4.3.8.6 1.2.8-1.7-.2-3.3-.6-4.9-1.4l-.9-.5-.4 1.1c-.5 1.4-1 2.8-1.6 4.1 0-.1 0-.1 0-.2 0-2.6 1.1-5 2.9-6.6m6.1-3.4c-5.5 0-10 4.5-10 10 0 1.1.2 2.2.5 3.3.1-.2.2-.3.3-.5 1.2-2.1 2-4.3 2.7-6.4 1.8.9 4.1 1.5 6.7 1.5 1.3 0 2.7-.2 4.1-.5 0 0 0 0-.1 0-.5 0-3.2-.1-6.1-2.2 1.6.5 3.4.9 5.1.9.9 0 1.8-.1 2.6-.4.8 1.9 1.8 3.6 3 5 .2.8.3 1.5.5 2.2.5-.9.7-1.9.7-2.9 0-5.5-4.5-10-10-10z" style="fill:#0a0907"/>
  <path d="m18.3 30.4c0 0 0 6.2 3.7 6.2 3.7 0 3.7-6.2 3.7-6.2" style="fill:none;stroke-miterlimit:10;stroke:#e5ae00"/>
  <path d="m30.6 50.1h-17.2l1.2-2.4h14.8z" style="fill:#660619"/>
</svg>
