<?xml version="1.0"?>
<svg xmlns="http://www.w3.org/2000/svg" viewBox="0 0 64 64" style="enable-background:new 0 0 64 64">
  <path d="M32,59.5C16.8,59.5,4.5,47.2,4.5,32S16.8,4.5,32,4.5S59.5,16.8,59.5,32S47.2,59.5,32,59.5z" style="fill:#f5f5f5"/>
  <path d="M32,5c14.9,0,27,12.1,27,27S46.9,59,32,59S5,46.9,5,32S17.1,5,32,5 M32,4C16.6,4,4,16.6,4,32s12.6,28,28,28  s28-12.6,28-28S47.4,4,32,4z" style="fill:#c8c8c8"/>
  <g style="fill:#dcdcdc">
    <path d="m43.1 14.9l-.9.5-3.5 1.9-.9.5.5.9 5.1 9.7.5.9.9-.5 3.5-1.9.9-.5-.5-.9-5.1-9.7-.5-.9"/>
    <path d="m20.9 14.9l-.5.9-5.1 9.7-.5.9.9.5 3.5 1.9.9.5.5-.9 5.1-9.7.5-.9-.9-.5-3.5-1.9-.9-.5"/>
    <path d="m35 37h-1-4-1v1 12 1h1 4 1v-1-12-1"/>
  </g>
  <g style="fill:#212121">
    <path d="m21.3 16.2l3.5 1.9-5.1 9.7-3.5-1.9 5.1-9.7"/>
    <path d="m42.7 16.2l5.1 9.7-3.5 1.9-5.1-9.7 3.5-1.9"/>
    <path d="m34 38v12h-4v-12h4"/>
  </g>
</svg>
