<?xml version="1.0"?>
<svg xmlns="http://www.w3.org/2000/svg" viewBox="0 0 64 64" style="enable-background:new 0 0 64 64">
  <path d="m15.9 53.5l-.1-.1c-7.1-5-11.3-13-11.3-21.4s4.2-16.4 11.3-21.4l.1-.1h32.1l.1.1c7.1 5 11.3 13 11.3 21.4s-4.2 16.4-11.3 21.4l-.1.1h-32.1" style="fill:#f5f5f5"/>
  <path d="m47.9 11c6.7 4.7 11.1 12.4 11.1 21 0 8.6-4.4 16.3-11.1 21h-31.8c-6.7-4.7-11.1-12.4-11.1-21 0-8.6 4.4-16.3 11.1-21h31.8m.3-1h-.3-31.8-.3l-.3.2c-7.2 5.1-11.5 13.2-11.5 21.8 0 8.6 4.3 16.7 11.5 21.8l.3.2h.3 31.8.3l.3-.2c7.2-5.1 11.5-13.2 11.5-21.8 0-8.6-4.3-16.7-11.5-21.8l-.3-.2z" style="fill:#c8c8c8"/>
  <path d="m19.5 19.5h4v14h-4z" style="fill:#212121"/>
  <path d="m23 20v13h-3v-13h3m1-1h-1-3-1v1 13 1h1 3 1v-1-13-1z" style="fill:#dcdcdc"/>
  <path d="m39.5 21.5h4v11h-4z" style="fill:#212121"/>
  <path d="m43 22v10h-3v-10h3m1-1h-1-3-1v1 10 1h1 3 1v-1-10-1z" style="fill:#dcdcdc"/>
  <path d="m26.5 49.5v-5c0-2.8 2.2-5 5-5s5 2.2 5 5v5h-10" style="fill:#212121"/>
  <path d="m31.5 40c2.5 0 4.5 2 4.5 4.5v4.5h-9v-4.5c0-2.5 2-4.5 4.5-4.5m0-1c-3 0-5.5 2.5-5.5 5.5v4.5 1h1 9 1v-1-4.5c0-3-2.5-5.5-5.5-5.5z" style="fill:#dcdcdc"/>
</svg>
