<?xml version="1.0"?>
<svg xmlns="http://www.w3.org/2000/svg" xmlns:xlink="http://www.w3.org/1999/xlink" viewBox="0 0 64 64" style="enable-background:new 0 0 64 64">
  <defs>
    <circle id="0" cx="32" cy="32" r="27"/>
    <clipPath id="1">
      <use xlink:href="#0"/>
    </clipPath>
  </defs>
  <path d="M32,59.5C16.8,59.5,4.5,47.2,4.5,32S16.8,4.5,32,4.5S59.5,16.8,59.5,32S47.2,59.5,32,59.5z" style="fill:#ebebeb"/>
  <path d="m32 5c14.9 0 27 12.1 27 27s-12.1 27-27 27-27-12.1-27-27 12.1-27 27-27m0-1c-15.4 0-28 12.6-28 28s12.6 28 28 28 28-12.6 28-28-12.6-28-28-28z" style="fill:#c8c8c8"/>
  <g style="fill:#212121;stroke-miterlimit:10;stroke:#dcdcdc">
    <circle cx="22" cy="32" r="3.5"/>
    <circle cx="42" cy="32" r="3.5"/>
  </g>
  <g style="fill:#8c8c8c">
    <path d="m30 5h4v4.9h-4z" style="clip-path:url(#1)"/>
    <path d="m30 54h4v4.9h-4z" style="clip-path:url(#1)"/>
  </g>
  <g style="clip-path:url(#1)">
    <g>
      <path d="m-.5 34.5h11v29h-11z" style="fill:#f5f5f5"/>
      <path d="m10 35v28h-10v-28h10m1-1h-1-10-1v1 28 1h1 10 1v-1-28-1z" style="fill:#c8c8c8"/>
    </g>
    <g>
      <path d="m-.5.5h11v29h-11z" style="fill:#f5f5f5"/>
      <path d="m10 1v28h-10v-28h10m1-1h-1-10-1v1 28 1h1 10 1v-1-28-1z" style="fill:#c8c8c8"/>
    </g>
  </g>
  <g style="clip-path:url(#1)">
    <g>
      <path d="m53.5 34.5h11v29h-11z" style="fill:#f5f5f5"/>
      <path d="m64 35v28h-10v-28h10m1-1h-1-10-1v1 28 1h1 10 1v-1-28-1z" style="fill:#c8c8c8"/>
    </g>
    <g>
      <path d="m53.5.5h11v29h-11z" style="fill:#f5f5f5"/>
      <path d="m64 1v28h-10v-28h10m1-1h-1-10-1v1 28 1h1 10 1v-1-28-1z" style="fill:#c8c8c8"/>
    </g>
  </g>
</svg>
