<?xml version="1.0"?>
<svg xmlns="http://www.w3.org/2000/svg" viewBox="0 0 64 64" style="enable-background:new 0 0 64 64">
  <path d="M32,61.5C15.7,61.5,2.5,48.3,2.5,32S15.7,2.5,32,2.5S61.5,15.7,61.5,32S48.3,61.5,32,61.5z" style="fill:#f0f0f0"/>
  <path d="m32 3c16 0 29 13 29 29s-13 29-29 29-29-13-29-29 13-29 29-29m0-1c-16.6 0-30 13.4-30 30s13.4 30 30 30 30-13.4 30-30-13.4-30-30-30z" style="fill:#b4b4b4"/>
  <g style="fill:#1a171b">
    <path d="m11 28.7l20.6 5.8c0-.2.2-2.3.3-2.5s.4-2.2.5-2.4l-21.4-.9"/>
    <ellipse transform="matrix(.1565-.9877.9877.1565-4.6124 58.5995)" cx="32" cy="32" rx="2.5" ry="2.5"/>
  </g>
  <g style="fill:none;stroke-miterlimit:10;stroke:#1a171b;stroke-width:2">
    <path d="m47.6 47.6c4-4 6.4-9.5 6.4-15.6 0-12.2-9.8-22-22-22s-22 9.8-22 22c0 6.1 2.5 11.6 6.4 15.6" style="opacity:.6"/>
    <path d="m54 32h3" style="opacity:.6"/>
    <path d="m7 32h3" style="opacity:.6"/>
    <path d="m47.5 16.5l2.2-2.2" style="opacity:.6"/>
    <path d="m14.3 49.7l2.2-2.2" style="opacity:.6"/>
    <path d="m32 10v-3" style="opacity:.6"/>
    <path d="m16.5 16.5l-2.2-2.2" style="opacity:.6"/>
    <path d="m49.7 49.7l-2.2-2.2" style="opacity:.6"/>
  </g>
  <g style="opacity:.6">
    <path d="m29.1 48.8h1.3v.8c.2-.4.5-.6.8-.8.3-.2.7-.2 1.1-.2.5 0 .9.1 1.3.3.4.2.7.4.9.7.2.3.4.7.5 1 .1.4.2.8.2 1.3 0 .4-.1.8-.2 1.2-.1.4-.3.7-.5 1-.2.3-.5.5-.8.7-.3.2-.7.3-1.2.3-.2 0-.4 0-.6-.1-.2 0-.4-.1-.6-.2-.2-.1-.4-.2-.5-.3-.2-.1-.3-.3-.4-.4v3.1h-1.4v-8.4zm4.8 3.1c0-.3 0-.6-.1-.8-.1-.3-.2-.5-.3-.7s-.3-.4-.5-.5c-.2-.1-.5-.2-.7-.2-.6 0-1 .2-1.3.6-.3.4-.4.9-.4 1.6 0 .3 0 .6.1.9.1.3.2.5.3.7.2.2.3.3.5.5.2.1.5.2.7.2.3 0 .6-.1.8-.2.2-.1.4-.3.5-.5.1-.2.2-.4.3-.7s.1-.6.1-.9" style="fill:#1a171b"/>
  </g>
</svg>
