<?xml version="1.0"?>
<svg xmlns="http://www.w3.org/2000/svg" viewBox="0 0 64 64" style="enable-background:new 0 0 64 64">
  <defs>
    <linearGradient id="0" gradientUnits="userSpaceOnUse" x1="3" x2="61">
      <stop style="stop-color:#fff;stop-opacity:0"/>
      <stop offset=".2"/>
      <stop offset=".8"/>
      <stop offset="1" style="stop-color:#fff;stop-opacity:0"/>
    </linearGradient>
  </defs>
  <path d="m3 46h58v1h-58z" style="fill:url(#0)"/>
  <path d="m12.5 59.5v-45.2l19.5-9.7 19.5 9.7v45.2z" style="fill:#c8ffc8"/>
  <path d="M32,5.1l19,9.5V59H13V14.6L32,5.1 M32,4L12,14v46h40V14L32,4L32,4z" style="fill:#52cc78"/>
  <path d="m12.5 33.5h39v13h-39z" style="fill:#c8ffc8"/>
  <path d="m51 34v12h-38v-12h38m1-1h-40v14h40v-14z" style="fill:#52cc78"/>
  <path d="m12.5 20.5h39v13h-39z" style="fill:#c8ffc8"/>
  <path d="m51 21v12h-38v-12h38m1-1h-40v14h40v-14z" style="fill:#52cc78"/>
  <path d="m17.5 23.5h5v6h-5z" style="fill:#c8ffc8"/>
  <path d="m22 24v5h-4v-5h4m1-1h-6v7h6v-7z" style="fill:#52cc78"/>
  <path d="m22.5 23.5h5v6h-5z" style="fill:#c8ffc8"/>
  <path d="m27 24v5h-4v-5h4m1-1h-6v7h6v-7z" style="fill:#52cc78"/>
  <path d="m40.5 36.5h6v10h-6z" style="fill:#c8ffc8"/>
  <path d="m46 37v9h-5v-9h5m1-1h-7v11h7v-11z" style="fill:#52cc78"/>
  <path d="m31.5 23.5h5v6h-5z" style="fill:#c8ffc8"/>
  <path d="m36 24v5h-4v-5h4m1-1h-6v7h6v-7z" style="fill:#52cc78"/>
  <path d="m17.5 36.5h5v6h-5z" style="fill:#c8ffc8"/>
  <path d="m22 37v5h-4v-5h4m1-1h-6v7h6v-7z" style="fill:#52cc78"/>
  <path d="m22.5 36.5h5v6h-5z" style="fill:#c8ffc8"/>
  <path d="m27 37v5h-4v-5h4m1-1h-6v7h6v-7z" style="fill:#52cc78"/>
  <path d="m31.5 36.5h5v6h-5z" style="fill:#c8ffc8"/>
  <path d="m36 37v5h-4v-5h4m1-1h-6v7h6v-7z" style="fill:#52cc78"/>
  <path d="m40.5 23.5h6v6h-6z" style="fill:#c8ffc8"/>
  <path d="m46 24v5h-5v-5h5m1-1h-7v7h7v-7z" style="fill:#52cc78"/>
  <g style="fill:#c8ffc8">
    <path d="m44 41h1v1h-1z" style="stroke-miterlimit:10;stroke:#52cc78"/>
    <path d="m12.5 20.5v-6.2l19.5-9.7 19.5 9.7v6.2z"/>
  </g>
  <path d="m32 5.1l19 9.5v5.4h-38v-5.4l19-9.5m0-1.1l-20 10v7h40v-7l-20-10z" style="fill:#52cc78"/>
  <path d="m58 17.5l-26-13-26 13" style="fill:none;stroke-miterlimit:10;stroke:#2e7de5;stroke-width:1.5"/>
  <path d="m25.5 12.5h5v5h-5z" style="fill:#c8ffc8"/>
  <path d="m30 13v4h-4v-4h4m1-1h-6v6h6v-6z" style="fill:#52cc78"/>
  <path d="m33.5 12.5h5v5h-5z" style="fill:#c8ffc8"/>
  <path d="m38 13v4h-4v-4h4m1-1h-6v6h6v-6z" style="fill:#52cc78"/>
</svg>
