<?xml version="1.0"?>
<svg xmlns="http://www.w3.org/2000/svg" viewBox="0 0 64 64" style="enable-background:new 0 0 64 64">
  <path d="m18 24h18v4h-18z" style="fill:#633833"/>
  <g style="fill:#fff">
    <circle cx="51" cy="36" r="2"/>
    <circle cx="51" cy="36" r="2"/>
  </g>
  <circle cx="51.75" cy="36.75" r=".75"/>
  <circle cx="51.75" cy="36.75" r=".75"/>
  <path d="m10.26 59.5c-2.12-3.15-3.03-8.19-3.42-11.9l-.02-.15-.1-.12c-2.11-2.52-3.22-5.4-3.22-8.33 0-2.47.76-4.84 2.26-7.06l.23-.34-.28-.29c-.55-.56-1.21-1.42-1.21-2.31 0-.95.51-1.58 1.08-1.97-.31.55-.53 1.21-.39 1.82.16.65.67 1.12 1.53 1.38l.3.09.21-.23c4.37-4.75 11.75-7.59 19.77-7.59 6.31 0 12.24 1.74 16.69 4.9l.34.24.3-.29c2.45-2.38 4.64-3.68 6.53-3.87-.75.99-1.69 2.82-1.42 5.65l.03.27.24.12c3.68 1.88 6.52 5.4 8.25 8.03l.16.25.3-.03c.46-.04.92-.06 1.37-.06 1.75 0 2.35.38 2.55.61.09.1.2.28.16.62-.3 2.43-2.6 10.66-19.47 14.63l-.45.1.83 5.83-7.06-.04c-.37-.46-1.41-1.88-2.19-4.03l-.13-.37-.39.04c-1 .11-1.97.2-2.93.27l.07-.05-1.72.1c-.68.05-1.36.08-2.06.08-3.24 0-6.38-.46-9.34-1.36l-.24-.07-.97.73 1.02 4.63-7.21.07m40.74-26c-1.38 0-2.5 1.12-2.5 2.5s1.12 2.5 2.5 2.5 2.5-1.12 2.5-2.5-1.12-2.5-2.5-2.5m-24-9.72c-3.01 0-5.94.54-8.47 1.56-.64.26-.95.99-.69 1.63.19.47.65.78 1.16.78.16 0 .32-.03.47-.09 2.24-.9 4.84-1.38 7.53-1.38s5.29.48 7.53 1.38c.15.06.31.09.47.09.51 0 .97-.31 1.16-.78.26-.64-.05-1.37-.69-1.63-2.53-1.02-5.46-1.56-8.47-1.56" style="fill:#f9b1a2"/>
  <path d="m27 23c6.21 0 12.04 1.71 16.4 4.8l.68.48.6-.58c1.87-1.81 3.61-3 5.14-3.49-.59 1.14-1.08 2.78-.87 4.96l.05.55.49.25c3.58 1.83 6.36 5.28 8.06 7.86l.33.5.59-.05c.48-.04.92-.06 1.32-.06 1.7 0 2.11.37 2.18.44.02.02.06.07.04.23-.29 2.35-2.54 10.31-19.09 14.2l-.89.21.13.91.69 4.8-6.24-.03c-.43-.57-1.3-1.85-1.96-3.7l-.27-.74-.78.08c-.37.04-.75.08-1.11.11l-3.45.21c-.74.04-1.4.06-2.04.06-3.19 0-6.29-.45-9.2-1.34l-.49-.15-.41.3-.5.39-.52.39.14.63.82 3.71-6.31.07c-1.56-2.46-2.66-6.4-3.2-11.45l-.03-.3-.2-.23c-2.03-2.44-3.1-5.21-3.1-8.02 0-2.37.73-4.65 2.18-6.78l.46-.68-.57-.58c-.25-.26-.53-.59-.74-.94.28.27.69.51 1.25.69l.6.19.43-.47c4.26-4.65 11.51-7.43 19.39-7.43m-8 5.25c.23 0 .45-.04.66-.13 2.18-.88 4.72-1.35 7.34-1.35s5.17.47 7.35 1.35c.21.08.43.13.65.13.72 0 1.35-.43 1.62-1.09.36-.89-.07-1.92-.97-2.28-2.59-1.05-5.58-1.6-8.66-1.6s-6.07.55-8.66 1.6c-.89.36-1.33 1.38-.97 2.28.29.66.92 1.09 1.64 1.09m32 10.75c1.65 0 3-1.35 3-3s-1.35-3-3-3-3 1.35-3 3 1.35 3 3 3m-24-17c-8.44 0-15.85 3.09-20.13 7.75-2.83-.88.13-3.75.13-3.75-.83 0-3 .83-3 3 0 1.01.65 1.94 1.35 2.66-1.51 2.22-2.35 4.71-2.35 7.34 0 3.16 1.22 6.11 3.34 8.65.44 4.12 1.43 9.2 3.66 12.35l8.08-.08-1.08-4.92.51-.38c2.91.89 6.12 1.38 9.49 1.38.71 0 1.4-.03 2.09-.07l-.09.07c1.65-.1 3.21-.24 4.7-.4 1 2.77 2.42 4.35 2.42 4.35l7.88.05-.85-5.95c17.02-4 19.51-12.34 19.85-15.05.17-1.39-1.36-1.79-3.21-1.79-.46 0-.93.02-1.41.07-1.68-2.55-4.61-6.24-8.44-8.2-.41-4.21 2.06-6.08 2.06-6.08-.22-.03-.44-.05-.66-.05-2.5 0-5.15 1.89-7.36 4.03-4.34-3.07-10.35-4.98-16.98-4.98zm-8 5.25c-.3 0-.58-.18-.69-.47-.16-.38.03-.82.41-.98 2.52-1.02 5.4-1.53 8.28-1.53s5.76.51 8.28 1.53c.38.16.57.59.41.98-.12.29-.4.47-.7.47-.09 0-.19-.02-.28-.05-2.34-.95-5.03-1.42-7.72-1.42s-5.38.47-7.72 1.42c-.08.03-.18.05-.27.05m32 10.75c-1.1 0-2-.9-2-2 0-1.1.9-2 2-2s2 .9 2 2c0 1.1-.9 2-2 2" style="fill:#cc7266"/>
  <path d="m27 18.5c-4.69 0-8.5-3.81-8.5-8.5s3.81-8.5 8.5-8.5 8.5 3.81 8.5 8.5-3.81 8.5-8.5 8.5" style="fill:#eec165"/>
  <path d="m27 2c4.42 0 8 3.58 8 8s-3.58 8-8 8-8-3.58-8-8 3.58-8 8-8m0-1c-4.96 0-9 4.04-9 9s4.04 9 9 9 9-4.04 9-9-4.04-9-9-9z" style="fill:#eda526"/>
  <path d="m27 15.5c-3.03 0-5.5-2.47-5.5-5.5s2.47-5.5 5.5-5.5 5.5 2.47 5.5 5.5-2.47 5.5-5.5 5.5" style="fill:#b2b2b2"/>
  <path d="m27 5c2.76 0 5 2.24 5 5s-2.24 5-5 5-5-2.24-5-5 2.24-5 5-5m0-1c-3.31 0-6 2.69-6 6s2.69 6 6 6 6-2.69 6-6-2.69-6-6-6z" style="fill:#8c8c8c"/>
  <g style="font-family:'TimesNewRomanPS-BoldItalicMT'">
    <text transform="translate(21 15)" style="font-size:12;opacity:.2">1</text>
    <text transform="translate(28 12)" style="font-size:2;opacity:.2">EURO</text>
  </g>
  <path d="m53 45c0 0 1.33 2 4 2" style="fill:none;stroke-miterlimit:10;stroke:#cc7266"/>
</svg>
