<?xml version="1.0"?>
<svg xmlns="http://www.w3.org/2000/svg" viewBox="0 0 64 64" style="enable-background:new 0 0 64 64">
  <path d="m32 60.29c-.4 0-.78-.16-1.06-.44l-27.16-28.78c-.53-.53-.52-1.2-.33-1.65.19-.45.65-.93 1.39-.93h9.16c1.38 0 2.5-1.12 2.5-2.5v-19.99c0-.83.67-1.5 1.5-1.5h28c.83 0 1.5.67 1.5 1.5v20c0 1.38 1.12 2.5 2.5 2.5h9.17c.74 0 1.2.48 1.39.93.19.45.2 1.11-.33 1.63l-27.18 28.8c-.27.28-.65.43-1.05.43" style="fill:#36aeff"/>
  <path d="m46 5c.55 0 1 .45 1 1v20c0 1.65 1.35 3 3 3h9.17c.62 0 .86.47.92.62.06.14.22.65-.24 1.11l-27.14 28.77c-.19.19-.44.29-.71.29s-.52-.1-.69-.27l-27.19-28.81c-.44-.44-.28-.94-.22-1.09.06-.15.31-.62.93-.62h9.17c1.65 0 3-1.35 3-3v-20c0-.55.45-1 1-1h28m0-1h-28c-1.1 0-2 .9-2 2v20c0 1.1-.9 2-2 2h-9.17c-1.78 0-2.67 2.15-1.41 3.41l27.17 28.79c.39.39.9.59 1.41.59s1.02-.2 1.41-.59l27.17-28.79c1.26-1.26.37-3.41-1.41-3.41h-9.17c-1.1 0-2-.9-2-2v-20c0-1.1-.9-2-2-2z" style="fill:#2b8ed8"/>
</svg>
