<?xml version="1.0"?>
<svg xmlns="http://www.w3.org/2000/svg" viewBox="0 0 64 64" style="enable-background:new 0 0 64 64">
  <path d="m32 29c-2.8 2.51-4.82 5.88-5.62 9.7 1.77.58 3.65.91 5.62.91s3.85-.33 5.62-.91c-.8-3.82-2.82-7.18-5.62-9.7" style="fill:#fff"/>
  <path d="m32 39.61c-1.96 0-3.84-.32-5.61-.9-.25 1.18-.39 2.42-.39 3.68 0 5.32 2.33 10.09 6 13.39 3.67-3.3 6-8.07 6-13.39 0-1.27-.14-2.5-.39-3.69-1.77.58-3.65.91-5.61.91" style="fill:#f0f"/>
  <path d="m26 42.39c0-1.27.13-2.5.38-3.69-6.05-1.99-10.67-7.09-11.99-13.41-7.19 2.36-12.39 9.12-12.39 17.1 0 9.94 8.06 18 18 18 4.62 0 8.81-1.75 12-4.61-3.67-3.29-6-8.06-6-13.39" style="fill:#f00"/>
  <path d="m32 3.61c-9.94 0-18 8.06-18 18 0 1.27.14 2.5.39 3.69 1.77-.58 3.65-.9 5.61-.9 4.62 0 8.81 1.75 12 4.61 3.19-2.86 7.38-4.61 12-4.61 1.96 0 3.85.33 5.62.91.25-1.19.38-2.43.38-3.69 0-9.95-8.06-18.01-18-18.01" style="fill:#0f0"/>
  <path d="m44 24.39c-4.62 0-8.81 1.75-12 4.61 2.8 2.51 4.82 5.88 5.62 9.7 6.05-1.99 10.68-7.08 12-13.4-1.77-.58-3.66-.91-5.62-.91" style="fill:#0ff"/>
  <path d="m49.62 25.3c-1.32 6.32-5.96 11.42-12.01 13.4.25 1.19.39 2.43.39 3.69 0 5.32-2.33 10.09-6 13.39 3.19 2.86 7.38 4.61 12 4.61 9.94 0 18-8.06 18-18 0-7.98-5.19-14.73-12.38-17.09" style="fill:#00f"/>
  <path d="m32 29c-3.19-2.86-7.38-4.61-12-4.61-1.96 0-3.85.33-5.62.91 1.32 6.32 5.96 11.41 12 13.4.8-3.82 2.82-7.19 5.62-9.7" style="fill:#ff0"/>
</svg>
