<?xml version="1.0"?>
<svg xmlns="http://www.w3.org/2000/svg" viewBox="0 0 64 64" style="enable-background:new 0 0 64 64">
  <path d="m29.97 59.5c-.91 0-1.65-.74-1.65-1.65l-.01-2.58c-.01-1.41-1.07-2.84-2.42-3.26l-3.58-1.45c-.39-.21-.92-.34-1.48-.34-.95 0-1.87.36-2.47.97l-1.83 1.84c-.31.31-.73.49-1.17.49-.44 0-.85-.17-1.16-.48l-3.07-3.03c-.64-.64-.65-1.69-.01-2.34l1.82-1.84c.99-.98 1.24-2.79.57-4.02l-1.48-3.55c-.41-1.3-1.84-2.35-3.25-2.35l-2.59.01c-.92 0-1.66-.74-1.66-1.65l-.03-4.3c0-.91.73-1.66 1.65-1.66l2.59-.01c1.41-.01 2.84-1.07 3.26-2.42l1.45-3.58c.65-1.2.38-2.96-.63-3.96l-1.83-1.82c-.31-.31-.49-.73-.49-1.17 0-.44.17-.86.48-1.17l3.03-3.06c.31-.31.73-.49 1.17-.49.44 0 .85.17 1.16.48l1.85 1.82c.6.59 1.51.95 2.45.95.57 0 1.11-.13 1.56-.37l3.55-1.48c1.31-.41 2.36-1.85 2.35-3.27l-.01-2.58c0-.91.74-1.66 1.65-1.66l4.31-.02c.92 0 1.66.74 1.66 1.65l.01 2.58c.01 1.39 1.09 2.85 2.42 3.26l3.56 1.45c.4.21.93.34 1.48.34.95 0 1.88-.36 2.48-.97l1.83-1.84c.31-.31.73-.49 1.17-.49.44 0 .85.17 1.16.48l3.07 3.03c.65.64.65 1.69.01 2.34l-1.83 1.84c-.99 1.01-1.24 2.77-.57 4.01l1.48 3.55c.41 1.3 1.85 2.35 3.25 2.35l2.59-.01c.92 0 1.66.74 1.66 1.64l.02 4.31c0 .44-.17.86-.48 1.17-.31.31-.73.49-1.17.49l-2.58.01c-1.39.01-2.85 1.09-3.26 2.42l-1.45 3.57c-.63 1.19-.36 2.99.63 3.96l1.85 1.82c.65.64.65 1.69.01 2.34l-3.04 3.06c-.31.31-.73.49-1.17.49-.44 0-.85-.17-1.16-.48l-1.84-1.82c-.6-.59-1.52-.94-2.45-.94-.57 0-1.11.13-1.56.38l-3.56 1.48c-1.31.42-2.36 1.86-2.35 3.27l.01 2.58c0 .44-.17.85-.48 1.17-.31.31-.73.49-1.17.49l-4.31.02m1.99-38.77c-6.21.03-11.24 5.11-11.22 11.32.03 6.18 5.08 11.21 11.27 11.21 6.27-.03 11.3-5.11 11.27-11.32-.03-6.18-5.08-11.21-11.26-11.21h-.06" style="fill:#8b96ac"/>
  <path d="m34.03 4v1c.63 0 1.15.52 1.16 1.15l.01 2.58c.01 1.61 1.2 3.23 2.73 3.72l3.53 1.43c.5.26 1.1.39 1.71.39 1.09 0 2.15-.42 2.83-1.12l1.83-1.84c.22-.22.51-.34.82-.34.31 0 .59.12.81.33l3.07 3.03c.45.45.45 1.18.01 1.63l-1.83 1.84c-1.12 1.14-1.42 3.13-.68 4.55l1.47 3.52c.51 1.52 2.13 2.7 3.75 2.7l2.59-.01c.63 0 1.15.51 1.15 1.15l.01 4.32c0 .31-.12.6-.34.82-.22.22-.51.34-.81.34l-2.58.01c-1.6.01-3.23 1.2-3.72 2.73l-1.43 3.53c-.73 1.43-.41 3.42.73 4.55l1.84 1.82c.45.45.46 1.18.01 1.64l-3.04 3.06c-.22.22-.51.34-.82.34-.31 0-.6-.12-.81-.33l-1.84-1.83c-.69-.68-1.74-1.09-2.8-1.09-.63 0-1.24.14-1.75.41l-3.52 1.47c-1.52.51-2.7 2.14-2.69 3.74l.01 2.58c0 .3-.12.59-.34.81-.22.22-.51.34-.81.34l-4.32.03c-.63 0-1.15-.51-1.16-1.15l-.01-2.58c-.01-1.6-1.2-3.23-2.73-3.72l-3.54-1.43c-.5-.26-1.09-.4-1.71-.4-1.08 0-2.14.42-2.83 1.11l-1.83 1.84c-.22.22-.51.34-.82.34-.31 0-.59-.12-.81-.33l-3.06-3.03c-.45-.45-.45-1.18-.01-1.64l1.82-1.84c1.14-1.14 1.44-3.13.69-4.56l-1.47-3.52c-.5-1.52-2.13-2.7-3.74-2.7l-2.59.01c-.63 0-1.15-.52-1.15-1.15l-.02-4.28c0-.64.51-1.15 1.15-1.16l2.59-.01c1.6-.01 3.22-1.2 3.72-2.73l1.43-3.53c.73-1.43.42-3.42-.73-4.55l-1.84-1.83c-.22-.22-.34-.5-.34-.81 0-.31.12-.6.33-.82l3.03-3.06c.22-.22.5-.34.81-.34.31 0 .59.12.81.33l1.85 1.82c.69.68 1.74 1.09 2.8 1.09.63 0 1.23-.14 1.75-.41l3.52-1.46c1.52-.5 2.7-2.14 2.69-3.75l-.01-2.58c0-.31.12-.59.34-.82.22-.22.51-.34.81-.34l4.32-.01v-1m-2.02 39.76h.06c6.49-.03 11.74-5.33 11.71-11.82-.03-6.46-5.31-11.71-11.76-11.71h-.06c-3.14.01-6.1 1.25-8.31 3.48-2.21 2.23-3.42 5.19-3.41 8.34.03 6.46 5.31 11.71 11.77 11.71m2.02-39.76c0 0-.01 0-.01 0l-4.31.02c-1.18.01-2.14.98-2.14 2.17l.01 2.58c.01 1.19-.91 2.45-2.04 2.8l-3.6 1.5c-.39.21-.85.31-1.32.31-.78 0-1.57-.28-2.1-.8l-1.85-1.82c-.42-.41-.97-.62-1.51-.62-.55 0-1.11.21-1.53.64l-3.03 3.06c-.84.84-.83 2.21.01 3.05l1.83 1.82c.84.83 1.08 2.37.52 3.42l-1.46 3.62c-.35 1.13-1.6 2.06-2.78 2.07l-2.59.01c-1.17-.01-2.14.96-2.13 2.15l.02 4.31c.01 1.18.98 2.15 2.15 2.15 0 0 .01 0 .01 0l2.59-.01c0 0 0 0 .01 0 1.18 0 2.44.92 2.79 2.04l1.5 3.6c.57 1.04.35 2.59-.49 3.43l-1.82 1.84c-.83.84-.83 2.21.01 3.05l3.06 3.03c.42.41.96.62 1.51.62.55 0 1.11-.21 1.53-.63l1.83-1.84c.52-.53 1.33-.82 2.12-.82.46 0 .91.1 1.29.3l3.62 1.47c1.13.35 2.06 1.6 2.07 2.78l.01 2.58c.01 1.18.98 2.14 2.16 2.14 0 0 .01 0 .01 0l4.31-.02c1.19-.01 2.15-.98 2.15-2.16l-.01-2.58c-.01-1.18.92-2.44 2.04-2.8l3.6-1.5c.39-.21.85-.32 1.32-.32.78 0 1.58.28 2.1.8l1.84 1.83c.42.41.97.62 1.51.62.55 0 1.11-.21 1.53-.63l3.04-3.06c.83-.84.83-2.21-.01-3.05l-1.85-1.82c-.84-.83-1.07-2.37-.52-3.42l1.47-3.61c.35-1.13 1.61-2.06 2.79-2.07l2.58-.01c1.19-.01 2.15-.98 2.14-2.16l-.02-4.31c-.01-1.18-.97-2.14-2.15-2.14 0 0-.01 0-.01 0l-2.58.01c0 0-.01 0-.01 0-1.18 0-2.44-.92-2.79-2.04l-1.5-3.6c-.56-1.04-.34-2.58.49-3.42l1.83-1.84c.83-.84.83-2.22-.01-3.05l-3.07-3.03c-.42-.41-.97-.62-1.51-.62-.55 0-1.11.21-1.53.64l-1.83 1.84c-.52.53-1.33.82-2.12.82-.46 0-.91-.1-1.29-.3l-3.61-1.46c-1.13-.34-2.06-1.6-2.07-2.78l-.01-2.58c-.04-1.23-1.01-2.2-2.19-2.2m-2.02 38.76c-5.93 0-10.74-4.78-10.77-10.71-.03-5.95 4.77-10.79 10.72-10.82.02 0 .03 0 .05 0 5.92 0 10.74 4.79 10.76 10.71.03 5.95-4.77 10.79-10.71 10.82-.02 0-.04 0-.05 0" style="fill:#676b72"/>
</svg>
