<?xml version="1.0"?>
<svg xmlns="http://www.w3.org/2000/svg" viewBox="0 0 64 64" style="enable-background:new 0 0 64 64">
  <g style="opacity:.5">
    <path d="m31.7 62.4c-15.38-11.55-24.2-29.19-24.2-48.4 0-.25.01-.5.02-.75.01-.17.02-.91.02-.91l.39-.08c8.74-1.79 16.73-5.37 23.77-10.66l.3-.23.3.23c7.04 5.29 15.03 8.87 23.76 10.65l.39.08c0 0 .02.74.02.91.01.25.02.5.02.75 0 19.21-8.82 36.85-24.2 48.4l-.29.23-.3-.22" style="fill:#fff"/>
    <path d="m32 2c6.96 5.23 15.12 8.94 23.96 10.74.01.42.04.84.04 1.26 0 19.63-9.43 37.05-24 48-14.57-10.95-24-28.37-24-48 0-.42.03-.84.04-1.26 8.84-1.8 17-5.51 23.96-10.74m0-1.25l-.6.45c-6.98 5.24-14.9 8.79-23.56 10.56l-.78.16-.02.8c0 .17-.01.33-.02.5-.01.26-.02.52-.02.78 0 19.37 8.89 37.15 24.4 48.8l.6.45.6-.45c15.51-11.65 24.4-29.44 24.4-48.8 0-.26-.01-.52-.02-.78-.01-.17-.01-.33-.02-.5l-.02-.8-.78-.16c-8.66-1.77-16.58-5.32-23.56-10.56l-.6-.45z" style="fill:#c8c8c8"/>
  </g>
  <path d="m32 58.37c-13.41-10.22-21.1-25.71-21.1-42.57 0-.22.01-.43.02-.64v-.08c7.72-1.63 14.81-4.81 21.08-9.45 6.27 4.64 13.36 7.82 21.08 9.45v.08c.01.21.02.43.02.64 0 16.86-7.69 32.35-21.1 42.57" style="fill:#c80028"/>
  <path d="m32 6.24c6.15 4.49 13.07 7.6 20.59 9.24 0 .11.01.21.01.32 0 16.57-7.5 31.82-20.6 41.94-13.1-10.12-20.6-25.37-20.6-41.94 0-.11 0-.21.01-.32 7.52-1.64 14.44-4.74 20.59-9.24m0-1.24c-6.27 4.71-13.6 8.04-21.57 9.67-.01.38-.03.75-.03 1.13 0 17.67 8.48 33.35 21.6 43.2 13.12-9.85 21.6-25.53 21.6-43.2 0-.38-.03-.75-.03-1.13-7.97-1.63-15.3-4.96-21.57-9.67z" style="fill:#990025"/>
</svg>
