<?xml version="1.0"?>
<svg xmlns="http://www.w3.org/2000/svg" viewBox="0 0 64 64" style="enable-background:new 0 0 64 64">
  <path d="m6 58.5c-.83 0-1.5-.67-1.5-1.5v-4.15c0-.83.67-1.5 1.5-1.5h52c.83 0 1.5.67 1.5 1.5v4.15c0 .83-.67 1.5-1.5 1.5h-52" style="fill:#afafaf"/>
  <path d="m58 51.86c.55 0 1 .45 1 1v4.14c0 .55-.45 1-1 1h-52c-.55 0-1-.45-1-1v-4.15c0-.55.45-1 1-1h52m0-.99h-52c-1.1 0-2 .9-2 2v4.14c0 1.1.9 2 2 2h52c1.1 0 2-.9 2-2v-4.15c0-1.1-.9-1.99-2-1.99z" style="fill:#787878"/>
  <path d="m8.42 50.5l.06-.55c.41-3.83.75-7.97 1.08-11.99 1.25-15.24 2.43-29.63 7.3-31.43 5.26-1.95 14.12-2.03 15.11-2.03 1.04 0 9.91.08 15.17 2.03 4.87 1.81 6.05 16.2 7.3 31.43.33 4.01.67 8.16 1.08 11.99l.06.55h-47.16" style="fill:#c6c6c6"/>
  <path d="m32.02 5c.51 0 9.68.04 14.95 2 5.83 2.17 6.17 25.33 8.05 43h-8.78-14.22-.05-14.21-8.78c1.88-17.67 2.22-40.84 8.05-43 5.27-1.96 14.45-2 14.95-2 0 0 .02 0 .02 0s.02 0 .02 0m0-1v1l-.02-1c-1.03 0-9.97.07-15.32 2.06-5.17 1.92-6.3 15.8-7.62 31.86-.33 4.01-.67 8.15-1.07 11.97l-.13 1.11h1.11 8.78 14.22 14.27 8.78 1.11l-.12-1.11c-.41-3.82-.75-7.96-1.07-11.97-1.32-16.07-2.45-29.94-7.62-31.86-5.36-1.99-14.29-2.06-15.3-2.06z" style="fill:#999"/>
  <path d="m32.01 6.99c0 0-10.38-.94-14.01 2.01-4.92 4-6.08 22.75-7 39h21.01v-41.01" style="fill:#f2f2f2"/>
</svg>
