<?xml version="1.0"?>
<svg xmlns="http://www.w3.org/2000/svg" viewBox="0 0 64 64" style="enable-background:new 0 0 64 64">
  <path d="m32 2.5c.98 0 1.76.79 1.76 1.76v8.25l2.82-4.09c.35-.5.9-.77 1.47-.76.34 0 .68.11.98.31.8.55 1.01 1.65.45 2.45l-5.73 8.31v3.56 6.66l8.85-5.11 4.33-9.11c.42-.88 1.47-1.25 2.35-.84.33.16.59.4.76.7.29.49.33 1.1.07 1.65l-2.13 4.49 7.15-4.13c.85-.49 1.92-.2 2.41.65.49.85.2 1.92-.65 2.41l-7.15 4.13 4.96.4c.61.05 1.12.4 1.4.89.17.3.25.64.22 1.01-.08.97-.92 1.69-1.9 1.62l-10.06-.8-8.84 5.09 5.77 3.33 3.08 1.78 10.06-.8c.97-.08 1.82.64 1.9 1.62.03.36-.05.71-.22 1.01-.28.49-.79.84-1.4.89l-4.96.4 7.15 4.13c.85.49 1.13 1.56.65 2.41-.49.85-1.56 1.13-2.41.64l-7.15-4.13 2.13 4.49c.26.55.22 1.17-.07 1.65-.17.29-.43.54-.76.69-.88.42-1.93.05-2.35-.83l-4.33-9.11-8.85-5.11v6.66 3.56l5.73 8.31c.55.8.35 1.9-.45 2.45-.3.21-.64.31-.98.31-.57.01-1.12-.26-1.47-.76l-2.82-4.09v8.25c0 .98-.79 1.76-1.76 1.76-.98 0-1.76-.79-1.76-1.76v-8.25l-2.82 4.09c-.35.5-.9.77-1.47.76-.34 0-.68-.11-.98-.31-.8-.55-1.01-1.65-.45-2.45l5.73-8.31v-3.56-6.66l-5.77 3.33-3.08 1.78-4.33 9.11c-.42.88-1.47 1.25-2.35.83-.33-.16-.59-.4-.76-.69-.29-.49-.33-1.1-.07-1.65l2.14-4.49-7.15 4.13c-.85.49-1.92.2-2.41-.64-.49-.85-.2-1.92.64-2.41l7.15-4.13-4.96-.4c-.61-.05-1.12-.4-1.4-.89-.17-.3-.25-.64-.22-1.01.08-.97.92-1.69 1.9-1.62l10.06.8 3.08-1.78 5.75-3.33-8.85-5.11-10.06.8c-.97.08-1.82-.64-1.9-1.62-.03-.36.05-.71.22-1.01.28-.49.79-.84 1.4-.89l4.96-.4-7.15-4.11c-.85-.49-1.13-1.56-.64-2.41.49-.85 1.56-1.13 2.41-.65l7.15 4.13-2.14-4.49c-.26-.55-.22-1.17.07-1.65.17-.29.43-.54.76-.7.88-.42 1.93-.05 2.35.84l4.33 9.11 8.85 5.11v-6.66-3.56l-5.73-8.31c-.55-.8-.35-1.9.45-2.45.3-.21.64-.31.98-.31.57-.01 1.12.26 1.47.76l2.82 4.09v-8.25c.01-.97.79-1.76 1.77-1.76" style="fill:#dae1e4"/>
</svg>
