<?xml version="1.0"?>
<svg enable-background="new 0 0 64 64" viewBox="0 0 64 64" xmlns="http://www.w3.org/2000/svg">
  <path d="m27.92 51.29c-.43 0-.79-.15-1.11-.47l-10.99-11.32h-8.74c-.43 0-.79-.15-1.11-.47s-.47-.68-.47-1.11v-11.84c0-.43.15-.79.47-1.11s.68-.47 1.11-.47h8.74l10.99-11.33c.31-.31.68-.47 1.11-.47s.79.15 1.11.47.47.68.47 1.11v35.42c0 .43-.15.79-.47 1.11-.32.33-.68.48-1.11.48z" fill="#dcdcdc"/>
  <path d="m27.92 13.21c.3 0 .53.1.76.33.22.22.32.45.32.75v35.42c0 .3-.1.53-.33.76s-.46.33-.76.33-.53-.1-.75-.31l-10.83-11.19-.29-.3h-.42-8.54c-.3 0-.53-.1-.76-.33-.22-.22-.32-.45-.32-.75v-11.84c0-.3.1-.53.33-.76.22-.22.45-.32.75-.32h8.53.42l.29-.3 10.83-11.16c.23-.23.47-.33.77-.33m0-1c-.56 0-1.05.21-1.46.62l-10.85 11.17h-8.53c-.56 0-1.05.21-1.46.62s-.62.9-.62 1.46v11.83c0 .56.21 1.05.62 1.46s.9.63 1.46.63h8.53l10.84 11.17c.41.41.9.62 1.46.62s1.05-.21 1.46-.62.63-.9.63-1.46v-35.42c0-.56-.21-1.05-.62-1.46-.41-.42-.9-.62-1.46-.62z" fill="#aaa"/>
  <path d="m37.18 39.26c-.43 0-.79-.15-1.11-.46-.31-.3-.46-.67-.46-1.11 0-.34.09-.61.27-.83.22-.27.5-.51.82-.7.38-.23.76-.49 1.13-.77.43-.31.79-.76 1.09-1.32.29-.57.44-1.26.44-2.08s-.15-1.51-.44-2.08c-.29-.56-.66-1.01-1.09-1.32-.38-.28-.76-.53-1.13-.77-.32-.2-.59-.43-.82-.7-.18-.22-.27-.49-.27-.83 0-.45.15-.81.46-1.11.32-.31.68-.46 1.11-.46.24 0 .44.04.58.11 1.45.56 2.59 1.51 3.44 2.83.86 1.33 1.3 2.79 1.3 4.32s-.44 2.98-1.29 4.31c-.85 1.32-2 2.27-3.41 2.83-.18.11-.38.14-.62.14z" fill="#1e82ff"/>
  <path d="m37.18 25.24c.22 0 .33.04.36.06l.04.02.04.02c1.32.51 2.35 1.36 3.16 2.62.82 1.26 1.22 2.58 1.22 4.04s-.4 2.77-1.21 4.03c-.81 1.25-1.85 2.11-3.17 2.64l-.04.02-.04.02c-.03.02-.14.06-.36.06-.3 0-.53-.1-.76-.31-.22-.21-.31-.44-.31-.76 0-.29.09-.43.16-.51.19-.23.42-.43.69-.6.39-.24.78-.5 1.17-.79.49-.36.9-.86 1.23-1.49.33-.64.5-1.41.5-2.31 0-.89-.17-1.67-.5-2.31-.33-.63-.74-1.13-1.23-1.49-.39-.28-.78-.55-1.17-.79-.27-.17-.51-.37-.69-.6-.07-.08-.16-.22-.16-.51 0-.31.1-.55.31-.76.22-.21.46-.3.76-.3m0-1c-.56 0-1.05.2-1.46.6s-.61.89-.61 1.47c0 .45.13.84.39 1.15s.57.58.94.81.73.47 1.1.74.68.65.94 1.15.39 1.11.39 1.84-.13 1.35-.39 1.84c-.26.5-.57.88-.94 1.15s-.73.52-1.1.74c-.37.23-.68.5-.94.81s-.39.7-.39 1.15c0 .58.2 1.07.61 1.47s.89.6 1.46.6c.32 0 .59-.05.81-.16 1.51-.6 2.72-1.61 3.64-3.02s1.37-2.94 1.37-4.58-.46-3.17-1.37-4.59c-.92-1.42-2.13-2.43-3.64-3.01-.22-.11-.49-.16-.81-.16z" fill="#1271d8"/>
  <path d="m40.16 46.9c-.45 0-.82-.15-1.13-.47-.32-.31-.47-.68-.47-1.1 0-.65.31-1.12.99-1.46 1.24-.64 2.07-1.12 2.53-1.47 1.65-1.2 2.96-2.74 3.88-4.56.93-1.82 1.4-3.79 1.4-5.84s-.47-4.02-1.4-5.84-2.23-3.35-3.89-4.56c-.45-.34-1.28-.82-2.52-1.46-.68-.35-.99-.81-.99-1.46 0-.43.15-.79.47-1.1.31-.32.68-.47 1.1-.47.22 0 .44.04.66.13 2.9 1.22 5.27 3.21 7.04 5.91s2.67 5.68 2.67 8.86-.9 6.17-2.67 8.86c-1.77 2.7-4.14 4.68-7.06 5.91-.2.07-.41.12-.61.12z" fill="#1e82ff"/>
  <path d="m40.13 17.6c.16 0 .32.03.45.08 2.82 1.19 5.12 3.11 6.83 5.72 1.72 2.62 2.59 5.51 2.59 8.6s-.87 5.98-2.59 8.59c-1.71 2.61-4.01 4.54-6.8 5.71-.16.06-.32.1-.45.1-.32 0-.56-.1-.78-.32s-.32-.45-.32-.75c0-.34.09-.7.72-1.02 1.27-.66 2.12-1.15 2.59-1.5 1.72-1.25 3.08-2.85 4.04-4.74s1.45-3.93 1.45-6.07-.49-4.17-1.45-6.07c-.96-1.89-2.32-3.48-4.03-4.73-.48-.36-1.33-.85-2.6-1.51-.63-.32-.72-.68-.72-1.02 0-.3.1-.53.32-.75s.46-.32.75-.32m0-1c-.56 0-1.05.2-1.46.61s-.61.89-.61 1.46c0 .84.42 1.48 1.26 1.91 1.21.63 2.03 1.1 2.46 1.42 1.6 1.16 2.84 2.63 3.74 4.38.89 1.76 1.34 3.63 1.34 5.61s-.45 3.85-1.34 5.61-2.14 3.22-3.74 4.38c-.43.32-1.25.8-2.46 1.42-.84.43-1.26 1.07-1.26 1.91 0 .56.2 1.05.61 1.46s.91.61 1.49.61c.26 0 .53-.05.81-.16 3.02-1.27 5.45-3.3 7.28-6.1 1.83-2.77 2.75-5.82 2.75-9.12s-.92-6.35-2.75-9.14-4.26-4.83-7.28-6.1c-.28-.1-.56-.16-.84-.16z" fill="#1271d8"/>
</svg>
