<?xml version="1.0"?>
<svg enable-background="new 0 0 64 64" viewBox="0 0 64 64" xmlns="http://www.w3.org/2000/svg">
  <path d="m27.92 51.29c-.43 0-.79-.15-1.11-.47l-10.99-11.32h-8.74c-.43 0-.79-.15-1.11-.47s-.47-.68-.47-1.11v-11.84c0-.43.15-.79.47-1.11s.68-.47 1.11-.47h8.74l10.99-11.33c.31-.31.68-.47 1.11-.47s.79.15 1.11.47.47.68.47 1.11v35.42c0 .43-.15.79-.47 1.11-.32.33-.68.48-1.11.48z" fill="#dcdcdc"/>
  <path d="m27.92 13.21c.3 0 .53.1.76.33.22.22.32.45.32.75v35.42c0 .3-.1.53-.33.76s-.46.33-.76.33-.53-.1-.75-.31l-10.83-11.19-.29-.3h-.42-8.54c-.3 0-.53-.1-.76-.33-.22-.22-.32-.45-.32-.75v-11.84c0-.3.1-.53.33-.76.22-.22.45-.32.75-.32h8.53.42l.29-.3 10.83-11.16c.23-.23.47-.33.77-.33m0-1c-.56 0-1.05.21-1.46.62l-10.85 11.17h-8.53c-.56 0-1.05.21-1.46.62s-.62.9-.62 1.46v11.83c0 .56.21 1.05.62 1.46s.9.63 1.46.63h8.53l10.84 11.17c.41.41.9.62 1.46.62s1.05-.21 1.46-.62.63-.9.63-1.46v-35.42c0-.56-.21-1.05-.62-1.46-.41-.42-.9-.62-1.46-.62z" fill="#aaa"/>
</svg>
