<?xml version="1.0"?>
<svg xmlns="http://www.w3.org/2000/svg" xmlns:xlink="http://www.w3.org/1999/xlink" viewBox="0 0 64 64" style="enable-background:new 0 0 64 64">
  <defs>
    <linearGradient id="6" gradientUnits="userSpaceOnUse" y1="61" x2="0" y2="13.3611">
      <stop style="stop-color:#a35c48"/>
      <stop offset="1" style="stop-color:#cd814c"/>
    </linearGradient>
    <linearGradient id="5" gradientUnits="userSpaceOnUse" x1="25.2326" x2="34.6551">
      <stop style="stop-color:#4d2c19"/>
      <stop offset="1" style="stop-color:#793b20"/>
    </linearGradient>
    <linearGradient id="7" gradientUnits="userSpaceOnUse" y1="53.4891" x2="0" y2="52.1296" xlink:href="#5"/>
    <linearGradient id="4" gradientUnits="userSpaceOnUse" y1="46.4858" x2="0" y2="45.1296" xlink:href="#5"/>
    <linearGradient id="3" gradientUnits="userSpaceOnUse" y1="40.4859" x2="0" y2="39.2037" xlink:href="#5"/>
    <linearGradient id="0" gradientUnits="userSpaceOnUse" y1="34.4779" x2="0" y2="33.2037" xlink:href="#5"/>
    <linearGradient id="2" gradientUnits="userSpaceOnUse" y1="28.4897" x2="0" y2="27.2407" xlink:href="#5"/>
    <linearGradient id="1" gradientUnits="userSpaceOnUse" y1="23.484" x2="0" y2="22.2407" xlink:href="#5"/>
  </defs>
  <g style="stroke-miterlimit:10">
    <path d="m29 16.36c0 0-4.38 42.56-3 44s5 0 5 0 1.44 1.06 1-15c-.44-16.06 2-32 2-32l-5 3z" style="fill:url(#6);stroke:url(#5)"/>
    <g style="fill:none">
      <path d="m26 53c0 0 3.92-.83 6 0" style="stroke:url(#7)"/>
      <path d="m26 46c0 0 3.42-.83 6 0" style="stroke:url(#4)"/>
      <path d="m27 40c0 0 2.75-.67 4 0" style="stroke:url(#3)"/>
      <path d="m28 34c0 0 2.17-.67 3 0" style="stroke:url(#0)"/>
      <path d="m28 28c0 0 2.83-.58 4 0" style="stroke:url(#2)"/>
      <path d="m29 23c0 0 2.25-.58 3 0" style="stroke:url(#1)"/>
    </g>
  </g>
  <path d="m38.92 33.12c-1.26-1.19-2.42-2.53-3.45-3.98l.77-2.06-1.56.89c-4.05-6.31-4.55-12.56-4.55-12.62l-.01-.09-5.22-1.04-.02.13c-1.29 8.39-9.35 13.06-10.73 13.8.11-1.15.25-2.29.41-3.39l1.53-1.3.39-.34-1.73.43c1.76-10.42 5.27-12.05 5.31-12.07l.46-.2-.5-.04c-.44-.03-.88-.05-1.32-.05-5.06 0-9.84 2.12-11.3 2.84 5.27-7.34 11.54-7.54 11.6-7.54l13.96 4.99 6.08-2c10.33.39 12.43 9.35 12.77 11.46-.51-.62-1.03-1.22-1.58-1.82l-.11-.77-.04-.24-.41.41c-6.75-7.07-12.03-7.28-12.61-7.28h-.17l-.01.17c1.39 4.26 2.21 8.61 2.46 12.92l-1.66 1.11 1.73.34c.01.41.02.8.02 1.18l-1.8.36 1.78.89c-.09 2.57-.38 4.32-.49 4.91" style="fill:#063"/>
  <path d="m18.96 6.61l13.95 4.98.09.04.08-.03 5.96-1.99c9.75.38 12.07 8.21 12.58 10.89-.4-.48-.81-.95-1.24-1.42l-.13-.77-.08-.48-.34.34-.15.15c-6.75-7.02-12.03-7.22-12.61-7.22h-.08l-.33.02.1.31c1.38 4.23 2.2 8.54 2.45 12.81l-1.35.9-.5.33.59.12 1.33.27c.01.33.01.66.01.97l-1.35.27-.71.14.65.33 1.38.69c-.07 2.25-.3 3.86-.43 4.59-1.17-1.13-2.26-2.39-3.23-3.75l.63-1.67.24-.65-.6.34-1.16.66c-3.97-6.24-4.46-12.4-4.47-12.46l-.01-.19-.19-.04-5-1-.26-.05-.04.26c-1.23 7.99-8.64 12.58-10.46 13.6.1-1.04.23-2.07.37-3.06l1.5-1.31.78-.68-1 .25-1.04.26c1.75-10.12 5.17-11.77 5.2-11.79l.92-.4-1.01-.08c-.43-.03-.88-.05-1.33-.05-4.65 0-9.06 1.78-10.9 2.64 4.96-6.55 10.64-7.04 11.19-7.07m.04-.25c0 0-6.56.12-12 8 0 0 5.61-3.05 11.69-3.05.43 0 .87.02 1.31.05 0 0-3.63 1.58-5.41 12.35l1.41-.35-1.57 1.37c-.16 1.12-.31 2.32-.43 3.63 0 0 9.56-4.69 11-14l5 1c0 0 .46 6.34 4.64 12.78l1.36-.78-.67 1.79c1.02 1.44 2.23 2.86 3.67 4.21 0 0 .44-1.94.53-5.24l-1.53-.76 1.55-.31c0-.44 0-.9-.02-1.39l-1.53-.3 1.47-.98c-.2-3.58-.85-8.03-2.47-13.02 0 0 .02 0 .06 0 .63 0 5.86.22 12.61 7.33l.33-.33.14.84c.61.66 1.23 1.38 1.86 2.16 0 0-1.06-11.56-13-12l-6 2-14-5z" style="fill:#009949"/>
  <path d="m61.64 21.84c-.87-.81-3-2.64-6.12-4.34l-.43-3.41-2.16 2.16c-.68-.29-1.41-.57-2.15-.83l.4-2.42-1.94 1.94c-.7-.2-1.41-.38-2.13-.53v-3.35l-2.89 2.89c-1.02-.11-2.05-.16-3.08-.16-1.71 0-3.45.15-5.18.45-2.83.49-5 .74-6.43.74-1.65 0-1.97-.33-2.02-.53-.18-.71 2.07-2.2 3.53-2.98.09-.08 5.85-5.74 12.97-5.74 7.11 0 13.03 5.42 17.63 16.11" style="fill:#083"/>
  <path d="m44.02 5.86c6.92 0 12.73 5.21 17.27 15.5-1.05-.92-2.99-2.47-5.66-3.93l-.39-3.1-.06-.51-.36.36-1.92 1.92c-.64-.27-1.3-.53-1.98-.77l.32-1.93.13-.77-.55.55-1.61 1.61c-.65-.18-1.3-.35-1.97-.49v-2.94-.6l-.43.43-2.63 2.63c-1-.1-2.02-.16-3.03-.16-1.72 0-3.47.15-5.2.45-2.83.49-4.98.74-6.41.74-1.66 0-1.88-.33-1.9-.44-.13-.54 1.7-1.89 3.47-2.84l.03-.02.03-.03c.06-.04 5.79-5.66 12.85-5.66m0-.25c-7.25 0-13.02 5.75-13.02 5.75s-7.04 3.74-1.45 3.74c1.34 0 3.4-.21 6.45-.74 1.79-.31 3.51-.45 5.15-.45 1.08 0 2.12.06 3.13.17l2.72-2.72v3.15c.79.16 1.55.35 2.29.56l1.71-1.71-.36 2.14c.81.28 1.59.58 2.32.9l2.04-2.04.4 3.22c4.22 2.28 6.6 4.78 6.6 4.78-5.49-13.1-12.2-16.75-17.98-16.75z" style="fill:#2aaa00"/>
  <path d="m22.71 10.64c-4.16 0-8.33-.39-12.4-1.17l2.27-2.59-3.98 2.28c-.71-.19-1.43-.36-2.09-.53l1.95-3.91-3.47 3.5c-1.45-.43-2.42-.77-2.78-.91 2.76-3.24 6.19-4.89 10.18-4.89 8.01 0 15.94 6.64 17.32 7.84-2.31.26-4.66.38-7 .38" style="fill:#083"/>
  <path d="m12.39 2.55c7.61 0 15.18 6.05 17.02 7.63-2.21.23-4.46.35-6.7.35-4.08 0-8.17-.38-12.16-1.12l1.64-1.87.98-1.12-1.29.74-3.26 1.84c-.66-.14-1.31-.3-1.93-.45l1.54-3.07.7-1.4-1.1 1.11-2.87 2.88c-1.23-.36-2.1-.66-2.54-.82 2.72-3.12 6.07-4.7 9.97-4.7m0-.25c-3.62 0-7.27 1.33-10.39 5.06 0 0 1.08.44 3.03.99l2.97-2.99-1.67 3.35c.7.18 1.48.37 2.34.56l3.33-1.91-1.92 2.2c3.4.66 7.71 1.21 12.63 1.21 2.31 0 4.75-.12 7.29-.41 0 0-8.7-8.06-17.61-8.06z" style="fill:#2aaa00"/>
  <path d="m16.13 41.18c.52-25.53 12.32-30.18 13.76-30.65.37 4.48.2 8.63-.5 12.35l-3.67 1.47 2.9 1.74c-.79 2.71-1.91 5.17-3.34 7.32l-3.6-2.41 2.17 4.35c-.17.21-.35.41-.52.61l-2.49-1.86.39 3.94c-2.38 2.04-4.51 2.92-5.1 3.14" style="fill:#16bf2e"/>
  <path d="m29.78 10.7c.35 4.38.18 8.44-.5 12.08l-3.37 1.35-.47.19.43.26 2.6 1.56c-.77 2.62-1.86 5-3.22 7.09l-3.11-2.07-.78-.52.42.84 1.93 3.86c-.13.16-.26.31-.39.46l-2.17-1.62-.45-.34.06.57.36 3.59c-2.16 1.85-4.1 2.73-4.85 3.03.54-24.56 11.58-29.64 13.51-30.33m.22-.34c0 0-13.5 3.38-14 31 0 0 2.48-.78 5.37-3.28-.2-2.01-.37-3.72-.37-3.72l2.35 1.76c.22-.24.43-.5.65-.76l-2-4 3.32 2.21c1.34-2 2.56-4.49 3.45-7.55l-2.77-1.66 3.5-1.4c.67-3.52.91-7.68.5-12.6z" style="fill:#2aaa00"/>
  <path d="m48.13 36.94c-.02-1.4-.26-2.9-.73-4.45l1.87-2.25h-2.68c-.43-1.02-.96-2.08-1.57-3.15l2.35-4.12-3.46 2.31c-.29-.45-.59-.89-.9-1.33l2.29-2.75-3.92.56c-4.15-5.29-8.95-9.37-10.07-10.29.31-.02.84-.05 1.53-.05 3.52 0 12.12.78 16.05 8.01 4.45 8.19.29 15.81-.76 17.51" style="fill:#00a532"/>
  <path d="m32.84 11.53c3.49 0 12.04.77 15.94 7.95 4.15 7.65.75 14.8-.54 17.03-.06-1.27-.29-2.61-.71-3.99l1.66-1.99.34-.41h-.53-2.33c-.42-.98-.92-2-1.51-3.03l2.06-3.6.53-.92-.88.59-2.92 1.94c-.26-.4-.52-.78-.77-1.15l2.02-2.43.42-.5-.64.09-3.52.5c-3.9-4.95-8.35-8.84-9.8-10.05.28-.01.69-.03 1.18-.03m0-.25c-1.14 0-1.84.08-1.84.08s5.57 4.44 10.33 10.52l3.67-.52-2.14 2.57c.35.5.69 1 1.02 1.51l3.12-2.08-2.13 3.72c.61 1.07 1.17 2.17 1.63 3.28h2.5l-1.75 2.1c.5 1.64.78 3.28.75 4.9 0 0 6.12-8.56 1-18-3.93-7.23-12.41-8.08-16.16-8.08z" style="fill:#2aaa00"/>
  <path d="m4.18 31.96c1.19-8.55 5.33-22.37 19.7-22.37 2.43 0 4.42.43 5.41.69-2.08.31-5.14 2.17-9.12 5.52l-1.29-.64v1.76c-.56.5-1.13 1.01-1.69 1.53l-1.24-2.48-.73 4.38c-.92.86-1.86 1.79-2.76 2.7l-2.69-2.02 1.19 3.56-.49.51-1.52-2.03-.95 4.67c-1.85 1.98-3.25 3.57-3.82 4.22" style="fill:#00a532"/>
  <path d="m23.88 9.72c2.04 0 3.76.3 4.84.55-2.07.52-4.94 2.33-8.57 5.39l-1.04-.52-.36-.18v.4 1.5c-.51.45-1.02.91-1.53 1.38l-1-1.99-.34-.69-.13.76-.65 3.92c-.87.84-1.76 1.72-2.67 2.64l-2.28-1.71-.64-.48.25.76 1.04 3.11-.33.35-1.27-1.7-.34-.45-.11.55-.87 4.33c-1.6 1.73-2.85 3.15-3.53 3.92 1.19-8.18 3.92-14.16 8.13-17.79 3.12-2.69 6.95-4.05 11.4-4.05m0-.25c-6.85 0-17.33 3.33-19.88 22.89 0 0 1.64-1.91 4.12-4.6l.88-4.4 1.44 1.92c.21-.22.43-.44.64-.67l-1.08-3.25 2.46 1.84c.93-.94 1.89-1.9 2.87-2.85l.67-4 1.14 2.29c.62-.57 1.24-1.13 1.86-1.68v-1.61l1.18.59c3.78-3.2 7.38-5.59 9.7-5.59.04 0 .08 0 .12 0 0 .01-2.58-.88-6.12-.88z" style="fill:#2aaa00"/>
</svg>
