<?xml version="1.0"?>
<svg xmlns="http://www.w3.org/2000/svg" viewBox="0 0 64 64" style="enable-background:new 0 0 64 64">
  <path d="m32 25c0 0-.37-2.34 1.8-4.19 2.05-1.74 1.15-4 0-5.15s-4.1-.99-4.76 1.92" style="fill:none;stroke-miterlimit:10;stroke:#b4b4b4;stroke-linecap:round;stroke-linejoin:round;stroke-width:1.5"/>
  <path d="m23.57 31.64c0 0-1.56 1.78-11.78 5.77s-9.74 7.2-9.74 7.2-.53 3.5 2.24 1.48c2.77-2.02 24.53-15.08 27.71-15.08v-5.99h-2.47c0 0-1.8-.38-2.78 2.63s-3.18 3.99-3.18 3.99"/>
  <path d="m40.43 31.64c0 0 1.56 1.78 11.78 5.77s9.74 7.2 9.74 7.2.53 3.5-2.24 1.48c-2.77-2.02-24.53-15.08-27.71-15.08v-5.99h2.47c0 0 1.8-.38 2.78 2.63s3.18 3.99 3.18 3.99"/>
</svg>
