<?xml version="1.0"?>
<svg xmlns="http://www.w3.org/2000/svg" viewBox="0 0 64 64" style="enable-background:new 0 0 64 64">
  <path d="m30.4 61.5c-.2 0-.5-.1-.8-.1-.6-.1-1.2-.1-1.7-.3h-.1c-8.6-1.5-15.9-10.2-16.3-19.3v-2.7c.3-1.7.6-3.5 1.3-5.2.8-1.5 1.4-2.8 2.2-4l2.6-3.7c6.2-7.6 11-14.9 14.6-22.5l.6 1.3c3.5 8.9 9.3 16.4 13.9 22 .6.9 1.2 1.8 1.9 2.6 1 1.5 2 3.2 2.8 5 .5 1.3.9 2.9 1.1 4.6v2.5c-.1.3-.1.6-.1.8 0 .3 0 .5-.1.7v.1.1c-.9 8.4-8 16.1-16.1 17.5h-.1c-.5.2-1.1.3-1.7.3-.3 0-.6.1-.8.1h-3.2z" style="fill:#1e82ff"/>
  <path d="m32.2 4.9l.2.4c3.6 8.9 9.3 16.5 13.9 22.1.6.9 1.3 1.8 1.9 2.6 1 1.5 2 3.2 2.8 4.9.5 1.3.8 2.8 1 4.5v2.4c-.1.3-.1.6-.1.9 0 .2 0 .4-.1.6l-.1.1v.1c-.9 8.2-7.8 15.7-15.6 17.1h-.1-.1c-.5.2-1 .2-1.6.3-.3 0-.6.1-.8.1h-3c-.3 0-.5-.1-.8-.1-.6-.1-1.2-.1-1.6-.3h-.1-.1c-8.4-1.5-15.5-9.9-15.9-18.7v-2.6c.3-1.7.6-3.4 1.3-5.1.7-1.3 1.4-2.7 2.2-3.9l2.6-3.6c5.9-7.4 10.5-14.6 14.1-21.8m0-2.4c-3.9 8.4-9.1 16.2-15 23.4l-2.6 3.7c-.8 1.3-1.5 2.7-2.3 4.1-.7 1.7-1.1 3.6-1.3 5.4v2.7c.4 9.2 7.7 18.1 16.7 19.7.8.3 1.8.3 2.7.5h3.2c.9-.1 1.9-.1 2.7-.5 8.3-1.5 15.5-9.3 16.5-18 .2-.5.1-1.2.2-1.7v-2.6c-.2-1.6-.5-3.2-1.1-4.8-.8-1.8-1.8-3.5-2.9-5.1-.7-.9-1.3-1.7-1.9-2.6-5.6-6.7-10.6-13.8-13.8-21.9l-1.1-2.3z" style="fill:#1271d8"/>
</svg>
