<?xml version="1.0"?>
<svg xmlns="http://www.w3.org/2000/svg" viewBox="0 0 64 64" style="enable-background:new 0 0 64 64">
  <path d="m61.55 22.14c-3.06-.84-7.3-2.16-9.33-3.51-3.39-2.25-4.77-2.26-7.12-3.02-2.35-.76-4.78-2.08-4.78-2.08s-2.57-2.17-6.5-2.77c-3.92-.6-5.65-2.61-5.65-2.61s-.6-1.38-2.2-1.96c-2.54-1.01-6.25 2.29-8.28 7.38-2.03 5.09-1.61 10.04.94 11.05 0 0 6.32 2.52 10.66 2.08 4.34-.44 7.8.39 7.8.39s3.64.85 7.37.58c3.72-.27 6.09.62 6.09.62s2.41.67 10.18.27c.31-.43.57-.91.77-1.43.67-1.69.64-3.47.05-4.99z" style="fill:#db5336;stroke-miterlimit:10;stroke:#db5336"/>
  <ellipse transform="matrix(-.929-.37.37-.929 37.3113 37.9507)" cx="22.3" cy="15.4" rx="4.96" ry="9.92" style="fill:#ca2a14"/>
  <g style="fill:#fff">
    <path d="m61.55 22.14c-1.77-.48-3.92-1.13-5.82-1.84.77 1.74.88 3.69.16 5.5-.46 1.15-1.2 2.1-2.12 2.84 1.58.07 3.84.09 6.97-.07.31-.43.57-.91.77-1.43.66-1.7.63-3.48.04-5"/>
    <path d="m50.1 17.36c-1.98-1.03-3.21-1.17-5-1.75-.5-.16-1.01-.35-1.49-.54 1.27 2.47 1.49 5.53.35 8.41-.67 1.68-1.73 3.09-3.01 4.15 1.08.08 2.29.12 3.51.03 1.07-.08 2.02-.06 2.84.01 1.21-.93 2.19-2.2 2.8-3.73.89-2.21.82-4.56 0-6.58"/>
    <path d="m37.81 12c-1.06-.5-2.42-1-3.99-1.24-.84-.13-1.57-.32-2.22-.54 1.6 2.52 1.73 6.77.05 10.99-.89 2.24-2.16 4.14-3.59 5.53.42 0 .83-.01 1.23-.05 1.8-.18 3.45-.15 4.76-.04 1.75-1.09 3.32-2.98 4.29-5.4 1.4-3.53 1.1-7.14-.53-9.25"/>
    <path d="m24.53 15.02c-1.09 2.73-1.32 5.44-.8 7.43 1.21-1.31 2.34-3.11 3.18-5.22 1.08-2.72 1.47-5.4 1.2-7.46-1.4 1.19-2.7 3.02-3.58 5.25"/>
  </g>
  <g style="fill:none;stroke-miterlimit:10;stroke:#1a171b">
    <path d="m13.55 10.5l4.7 2.19"/>
    <path d="m13.55 10.5l13.28-3.87"/>
    <path d="m13.55 10.5l8.74 13.45"/>
    <path d="M 13.55,10.5 7,9"/>
  </g>
  <path d="M4.5,59.5V9c0-1.38,1.12-2.5,2.5-2.5S9.5,7.62,9.5,9c0,1.21-0.86,2.22-2,2.45V59.5H4.5z" style="fill:#8b96ac"/>
  <path d="m7 7c1.1 0 2 .9 2 2 0 1.1-.9 2-2 2v48h-2v-30-20c0-1.1.9-2 2-2m0-1c-1.65 0-3 1.35-3 3v20 30 1h1 2 1v-1-47.17c1.16-.41 2-1.52 2-2.83 0-1.65-1.35-3-3-3z" style="fill:#676b72"/>
</svg>
