<?xml version="1.0"?>
<svg xmlns="http://www.w3.org/2000/svg" viewBox="0 0 64 64" style="enable-background:new 0 0 64 64">
  <path d="m32 18.9c-3.9 0-7.5-1.4-10.2-3.8 1.9-.8 3.2-2.3 3.4-3.9h13.5c.2 1.7 1.5 3.1 3.4 3.9-2.5 2.4-6.2 3.8-10.1 3.8" style="fill:#e67831"/>
  <path d="m38.4 11.7c.3 1.4 1.4 2.7 2.9 3.5-2.5 2-5.8 3.1-9.3 3.1s-6.8-1.1-9.3-3.1c1.5-.8 2.6-2.1 2.9-3.5h12.8m.9-1h-14.5c0 0 0 0 0 0 0 1.9-1.6 3.5-3.9 4.2 2.7 2.7 6.6 4.5 11.1 4.5s8.5-1.7 11.1-4.5c-2.2-.7-3.8-2.3-3.8-4.2z" style="fill:#dd6022"/>
  <path d="m27.5 63.5c-1.7 0-3-1.3-3-3v-20c0-1.7 1.3-3 3-3s3 1.3 3 3v20c0 1.7-1.3 3-3 3" style="fill:#f4d0b1"/>
  <path d="m27.5 38c1.4 0 2.5 1.1 2.5 2.5v20c0 1.4-1.1 2.5-2.5 2.5s-2.5-1.1-2.5-2.5v-20c0-1.4 1.1-2.5 2.5-2.5m0-1c-1.9 0-3.5 1.6-3.5 3.5v20c0 1.9 1.6 3.5 3.5 3.5s3.5-1.6 3.5-3.5v-20c0-1.9-1.5-3.5-3.5-3.5z" style="fill:#e5b795"/>
  <path d="m36.5 63.5c-1.7 0-3-1.3-3-3v-20c0-1.7 1.3-3 3-3s3 1.3 3 3v20c0 1.7-1.3 3-3 3" style="fill:#f4d0b1"/>
  <path d="m36.5 38c1.4 0 2.5 1.1 2.5 2.5v20c0 1.4-1.1 2.5-2.5 2.5s-2.5-1.1-2.5-2.5v-20c0-1.4 1.1-2.5 2.5-2.5m0-1c-1.9 0-3.5 1.6-3.5 3.5v20c0 1.9 1.6 3.5 3.5 3.5s3.5-1.6 3.5-3.5v-20c0-1.9-1.5-3.5-3.5-3.5z" style="fill:#e5b795"/>
  <path d="m43 40.5c-.8 0-1.5-.7-1.5-1.5v-12c-.1-1-.5-1.9-1-2.7l-.3-.4-8.2 6.5-8.1-6.5-.3.4c-.7 1-1.1 2.2-1.1 3.4v11.3c0 .8-.7 1.5-1.5 1.5s-1.5-.7-1.5-1.5v-11.8-.1-.1-.1-.3c3.5-.2 4.5-3.1 5.3-5.4.8-2.3 1.4-3.8 3.3-3.8h7.5c1.9 0 2.5 1.4 3.3 3.8.8 2.3 1.8 5.1 5.3 5.4v12.4c.3.8-.4 1.5-1.2 1.5" style="fill:#f4d0b1"/>
  <path d="m35.8 18c1.5 0 2 1.1 2.9 3.4.2.7.5 1.5.9 2.2l-.2.1-7.4 6-7.3-5.9-.2-.1c.4-.8.6-1.5.9-2.2.8-2.4 1.4-3.4 2.9-3.4h7.5m6.1 8.3c.6.4 1.3.6 2.1.7v.1.6 2.2 9c0 .6-.4 1-1 1-.6 0-1-.4-1-1v-9-2.8-.2-.1c-.1-.2-.1-.3-.1-.5m-19.7 0c-.1.4-.1.9-.1 1.3v2.3 9c0 .6-.4 1-1 1-.6 0-1-.4-1-1v-11.7-.1c0 0 0 0 0 0 .8-.2 1.5-.4 2.1-.8m13.6-9.4h-7.5c-5.1 0-2.5 9.2-9.2 9.2v.6c0 .1 0 .1 0 .2v12c0 1.1.9 2 2 2 1.1 0 2-.9 2-2v-9-2.3c0-1.2.4-2.2 1-3.1l8 6.4 8-6.4c.5.7.8 1.5.9 2.4v.2 2.8 9c0 1.1.9 2 2 2 1.1 0 2-.9 2-2v-9-2.2-.6-.2-.8c-6.7 0-4.1-9.2-9.2-9.2z" style="fill:#e5b795"/>
  <g style="fill:#bd0926">
    <path d="m41 38h-9v-12c3.1-3.1 4.3-5.8 4.8-7.6.1-.2.1-.4.1-.7 0-.2.1-.4.1-.6 5 0 7.9 7.6 7.9 9.1l-3.9 1.5c0-1.2-.4-2.2-1-3.1l-2 6.4 2 3 1 4"/>
    <path d="m23 38h9v-12c-3.1-3.1-4.3-5.8-4.8-7.6-.1-.2-.1-.4-.1-.7 0-.2-.1-.4-.1-.6-5 0-7.9 7.6-7.9 9.1l3.9 1.5c0-1.2.4-2.2 1-3.1l2 6.4-2 3-1 4"/>
  </g>
  <g style="fill:#660619">
    <path d="m30 60v.5c0 1.4-1.1 2.5-2.5 2.5s-2.5-1.1-2.5-2.5v-.5h5m1-1h-7v1.5c0 1.9 1.6 3.5 3.5 3.5s3.5-1.6 3.5-3.5v-1.5z"/>
    <path d="m39 60v.5c0 1.4-1.1 2.5-2.5 2.5s-2.5-1.1-2.5-2.5v-.5h5m1-1h-7v1.5c0 1.9 1.6 3.5 3.5 3.5s3.5-1.6 3.5-3.5v-1.5z"/>
  </g>
  <path d="m32 16.8c-4.1 0-7.5-3.4-7.5-7.5s3.4-7.5 7.5-7.5 7.5 3.4 7.5 7.5-3.3 7.5-7.5 7.5" style="fill:#f4d0b1"/>
  <path d="m32 2.3c3.9 0 7 3.1 7 7s-3.1 7-7 7-7-3.1-7-7 3.2-7 7-7m0-1c-4.4 0-8 3.6-8 8 0 4.4 3.6 8 8 8s8-3.6 8-8c0-4.4-3.6-8-8-8z" style="fill:#e5b795"/>
  <path d="m24.6 10.5c-.1-.4-.1-.8-.1-1.2 0-4.1 3.4-7.5 7.5-7.5s7.5 3.4 7.5 7.5c0 .1 0 .2 0 .2-.8-.9-1.6-2.2-2.3-3.8l-.2-.4-.4.1c-.6.2-1.2.3-1.9.3-1.2 0-2.5-.2-3.9-.7l-3-1 2.6 1.9c.8.6 1.5.9 2.2 1.2-.1 0-.2 0-.3 0-1.8 0-3.6-.4-5.2-1.2l-.5-.2-.2.5c-.5 1.6-1.1 3-1.8 4.3" style="fill:#e67831"/>
  <path d="m32 2.3c2.1 0 4 1 5.3 2.5l-.8.2c-.5.2-1.1.2-1.8.2-1.1 0-2.4-.2-3.8-.7l-3-1c1.2-.7 2.6-1.2 4.1-1.2m-4.8 1.9l2.8 2.1c.1 0 .1.1.2.1-1-.2-2-.5-2.9-.9l-.9-.4c.3-.3.5-.6.8-.9m10.2.6c.7.9 1.2 1.9 1.5 3-.4-.7-.8-1.4-1.1-2.3l-.4-.7m-11.3.8l-.2.5c-.3.8-.5 1.5-.8 2.2.1-1 .5-1.9 1-2.7m5.9-4.3c-4.4 0-8 3.6-8 8 0 .9.2 1.8.4 2.6.1-.1.2-.3.2-.4.9-1.7 1.6-3.5 2.2-5.1 1.5.7 3.3 1.2 5.4 1.2 1 0 2.1-.1 3.3-.4 0 0 0 0-.1 0-.4 0-2.6-.1-4.9-1.7 1.3.4 2.7.7 4.1.7.7 0 1.4-.1 2.1-.3.6 1.5 1.4 2.9 2.4 4 .1.6.3 1.2.4 1.7.2-.8.4-1.6.4-2.4.1-4.3-3.5-7.9-7.9-7.9z" style="fill:#dd6022"/>
  <path d="m37 52v-7l1-4v11h2v-5l1-9h-18l1 9v5z" style="fill:#bd0926"/>
  <path d="m29 17c0 0 0 5 3 5 3 0 3-5 3-5" style="fill:none;stroke-miterlimit:10;stroke:#e5ae00"/>
  <path d="m39 33h-14l1-2h12z" style="fill:#660619"/>
</svg>
