<?xml version="1.0"?>
<svg xmlns="http://www.w3.org/2000/svg" xmlns:xlink="http://www.w3.org/1999/xlink" viewBox="0 0 64 64" style="enable-background:new 0 0 64 64">
  <defs>
    <linearGradient id="0" gradientUnits="userSpaceOnUse" x1="16.2146" x2="20.5046" y1="20.5098" y2="16.2198">
      <stop style="stop-color:#82828c"/>
      <stop offset=".5" style="stop-color:#ccd3e7"/>
      <stop offset="1" style="stop-color:#82828c"/>
    </linearGradient>
    <linearGradient id="1" gradientUnits="userSpaceOnUse" x1="8.5" x2="39.5" xlink:href="#0"/>
    <radialGradient id="2" cx="24" cy="24" r="11.5" gradientUnits="userSpaceOnUse">
      <stop offset=".5" style="stop-color:#d2faff"/>
      <stop offset="1" style="stop-color:#b4c8e6"/>
    </radialGradient>
  </defs>
  <path d="m52.8 55.8c-.8 0-1.6-.3-2.1-.9l-19.8-19.7c-.6-.6-.9-1.4-.9-2.2s.3-1.6.9-2.1c.6-.6 1.3-.9 2.1-.9s1.6.3 2.1.9l19.7 19.7c.6.6.9 1.3.9 2.1s-.3 1.6-.9 2.1c-.5.7-1.2 1-2 1" style="fill:url(#0)"/>
  <path d="m33 30.5c.7 0 1.3.3 1.8.7l19.8 19.8c1 1 1 2.6 0 3.6-.5.5-1.1.7-1.8.7s-1.3-.3-1.8-.7l-19.8-19.8c-1-1-1-2.6 0-3.6.5-.4 1.1-.7 1.8-.7m0-1c-.9 0-1.8.3-2.5 1-1.4 1.4-1.4 3.6 0 5l19.7 19.7c.7.7 1.6 1 2.5 1s1.8-.3 2.5-1c1.4-1.4 1.4-3.6 0-5l-19.7-19.7c-.7-.7-1.6-1-2.5-1z" style="fill:#6a6a72"/>
  <path d="m24 39.5c-8.5 0-15.5-7-15.5-15.5s7-15.5 15.5-15.5 15.5 7 15.5 15.5-7 15.5-15.5 15.5" style="fill:url(#1)"/>
  <path d="m24 9c8.3 0 15 6.7 15 15s-6.7 15-15 15-15-6.7-15-15 6.7-15 15-15m0-1c-8.8 0-16 7.2-16 16s7.2 16 16 16 16-7.2 16-16-7.2-16-16-16z" style="fill:#6a6a72"/>
  <path d="M24,35.5c-6.3,0-11.5-5.2-11.5-11.5S17.7,12.5,24,12.5S35.5,17.7,35.5,24S30.3,35.5,24,35.5z" style="fill:url(#2)"/>
  <path d="m24 13c6.1 0 11 4.9 11 11s-4.9 11-11 11-11-4.9-11-11 4.9-11 11-11m0-1c-6.6 0-12 5.4-12 12s5.4 12 12 12 12-5.4 12-12-5.4-12-12-12z" style="fill:#6a6a72"/>
</svg>
