<?xml version="1.0" encoding="UTF-8"?>
<svg width="88px" height="130px" viewBox="0 0 88 130" version="1.1" xmlns="http://www.w3.org/2000/svg" xmlns:xlink="http://www.w3.org/1999/xlink">
    <!-- Generator: sketchtool 54.1 (76490) - https://sketchapp.com -->
    <title>A0924594-7213-430D-A943-FE07E1B6E747</title>
    <desc>Created with sketchtool.</desc>
    <defs>
        <polygon id="path-1" points="0.110730673 0.170093458 86.2396006 0.170093458 86.2396006 129.793739 0.110730673 129.793739"></polygon>
        <polygon id="path-3" points="0.325427204 0.129727087 48.7098019 0.129727087 48.7098019 56.2562126 0.325427204 56.2562126"></polygon>
        <path d="M0.196850252,0.568317324 L0.196850252,4.99144282 C0.196850252,5.15434811 0.336285847,5.2833148 0.506637026,5.28578306 L0.506637026,5.28578306 L8.31313756,5.35242613 C8.48285781,5.35242613 8.6222934,5.22099118 8.6222934,5.06055415 L8.6222934,5.06055415 L8.6222934,0.645450511 C8.6222934,0.488098809 8.48285781,0.362834513 8.31313756,0.35913212 L8.31313756,0.35913212 L0.506637026,0.280764802 C0.336285847,0.28508426 0.196850252,0.412199753 0.196850252,0.568317324 L0.196850252,0.568317324 Z" id="path-5"></path>
        <path d="M0.196850252,0.568317324 L0.196850252,4.99144282 C0.196850252,5.15434811 0.336285847,5.2833148 0.506637026,5.28578306 L0.506637026,5.28578306 L8.31313756,5.35242613 C8.48285781,5.35242613 8.6222934,5.22099118 8.6222934,5.06055415 L8.6222934,5.06055415 L8.6222934,0.645450511 C8.6222934,0.488098809 8.48285781,0.362834513 8.31313756,0.35913212 L8.31313756,0.35913212 L0.506637026,0.280764802 C0.336285847,0.28508426 0.196850252,0.412199753 0.196850252,0.568317324" id="path-7"></path>
        <polygon id="path-9" points="0.363135436 4.99082575 1.58601855 4.98835749 1.58601855 0.284467195 0.363135436 0.271508819"></polygon>
    </defs>
    <g id="1---CONSOMMATION" stroke="none" stroke-width="1" fill="none" fill-rule="evenodd">
        <g id="1-SDM---J-5.1---Pmax-Tableau" transform="translate(-354.000000, -281.000000)">
            <g id="Emilie-/-SDM-/-Compteur-Nav-gauche" transform="translate(265.000000, 265.000000)">
                <g id="Group-3">
                    <g id="Atome-/-illustration-/-Compteur-/-Linky" transform="translate(87.000000, 16.000000)">
                        <g id="Group-61" transform="translate(2.816327, 0.000000)">
                            <g id="Group-10">
                                <g id="Group-3">
                                    <mask id="mask-2" fill="white">
                                        <use xlink:href="#path-1"></use>
                                    </mask>
                                    <g id="Clip-2"></g>
                                    <path d="M86.2396006,125.153794 C86.2396006,127.724636 83.7948891,129.804028 80.7559186,129.793701 L5.57894389,129.683748 C2.56124301,129.681318 0.110730673,127.59585 0.110730673,125.035944 L0.110730673,4.80052336 C0.110730673,2.2412243 2.56124301,0.156364486 5.57894389,0.169728972 L80.7559186,0.277859813 C83.7948891,0.292439252 86.2396006,2.36757944 86.2396006,4.92748598 L86.2396006,125.153794 Z" id="Fill-1" fill="#CCD41F" mask="url(#mask-2)"></path>
                                </g>
                                <path d="M68.6672615,86.6276869 C68.6672615,89.3388551 66.0730185,91.5373131 62.8761376,91.5415654 L18.4530282,91.4692757 C15.2548582,91.4692757 12.6515917,89.2550234 12.6515917,86.5353505 L12.6515917,31.9049766 C12.6515917,29.1871262 15.2548582,26.9825935 18.4530282,26.9917056 L62.8761376,27.0573131 C66.0730185,27.0621729 68.6672615,29.268528 68.6672615,31.9948832 L68.6672615,86.6276869 Z" id="Fill-4" fill="#B7C243"></path>
                                <path d="M68.6672615,86.6276869 C68.6672615,89.3388551 66.0730185,91.5373131 62.8761376,91.5415654 L18.4530282,91.4692757 C15.2548582,91.4692757 12.6515917,89.2550234 12.6515917,86.5353505 L12.6515917,31.9049766 C12.6515917,29.1871262 15.2548582,26.9825935 18.4530282,26.9917056 L62.8761376,27.0573131 C66.0730185,27.0621729 68.6672615,29.268528 68.6672615,31.9948832 L68.6672615,86.6276869 Z" id="Stroke-6" stroke="#B7C243" stroke-width="0.365"></path>
                                <path d="M69.6296774,82.3895654 C69.6296774,84.9537243 67.1765869,87.0227897 64.1530852,87.0312944 L22.1966015,86.9650794 C19.1730998,86.9602196 16.7129195,84.8729299 16.7129195,82.3008738 L16.7129195,30.7012009 C16.7129195,28.1346121 19.1730998,26.0527897 22.1966015,26.0588645 L64.1530852,26.1208271 C67.1765869,26.1226495 69.6296774,28.2069019 69.6296774,30.7844252 L69.6296774,82.3895654 Z" id="Fill-8" fill="#CFCEC4"></path>
                            </g>
                            <g id="Group-13" transform="translate(18.647495, 27.318841)">
                                <mask id="mask-4" fill="white">
                                    <use xlink:href="#path-3"></use>
                                </mask>
                                <g id="Clip-12"></g>
                                <path d="M48.7098019,51.988681 C48.7098019,54.3470215 46.4711985,56.2519292 43.7082957,56.2562126 L5.33952434,56.2029755 C2.57855861,56.1937967 0.32510436,54.2711434 0.32510436,51.9066837 L0.32510436,4.40576441 C0.32510436,2.03946891 2.57855861,0.129665895 5.33952434,0.129665895 L43.7082957,0.190245997 C46.4711985,0.19820096 48.7098019,2.11228742 48.7098019,4.4810306 L48.7098019,51.988681 Z" id="Fill-11" fill="#F9F9F7" mask="url(#mask-4)"></path>
                            </g>
                            <g id="Group-26" transform="translate(16.684601, 25.434783)">
                                <polygon id="Stroke-14" stroke="#7F8074" stroke-width="0.219" points="25.6782204 61.0846162 12.9698822 61.1106135 12.9698822 53.2775704 25.6782204 53.2449227"></polygon>
                                <polygon id="Stroke-16" stroke="#7F8074" stroke-width="0.219" points="42.2035583 61.1719792 29.5067872 61.2028132 29.5067872 53.3540508 42.2035583 53.3365178"></polygon>
                                <polygon id="Fill-18" fill="#9AA3AB" points="9.48357167 28.6337747 9.48357167 40.2285647 45.1190989 40.2811639 45.1190989 28.6797234"></polygon>
                                <path d="M9.48357167,52.0046103 C9.48357167,52.6950498 10.1551035,53.2579213 10.9673678,53.2645718 L43.6301618,53.3099159 C44.4507801,53.3147526 45.1190989,52.7409985 45.1190989,52.0439085 L45.1190989,40.281043 L9.48357167,40.2284438 L9.48357167,52.0046103 Z" id="Fill-20" fill="#4F4F4F"></path>
                                <path d="M45.1191631,17.4799108 C45.1191631,16.7767748 44.4508444,16.2157171 43.6302261,16.2247859 L10.9667895,16.1746051 C10.1551678,16.1613042 9.48299332,16.739895 9.48299332,17.4363804 L9.48299332,28.6339561 L45.1191631,28.6799048 L45.1191631,17.4799108 Z" id="Fill-22" fill="#4F4F4F"></path>
                                <path d="M53.3570915,56.6051023 C53.3570915,59.1570685 50.9113019,61.2162955 47.8967987,61.2247597 L6.0651855,61.1588596 C3.05068234,61.1540229 0.59782398,59.0766583 0.59782398,56.5168324 L0.59782398,5.16251708 C0.59782398,2.60813248 3.05068234,0.53620916 6.0651855,0.542255041 L47.8967987,0.603923024 C50.9113019,0.605736788 53.3570915,2.68007846 53.3570915,5.24534564 L53.3570915,56.6051023 Z" id="Stroke-24" stroke="#B7C243" stroke-width="0.365"></path>
                            </g>
                            <g id="Group-33" transform="translate(38.276438, 114.927536)">
                                <g id="Group-29">
                                    <mask id="mask-6" fill="white">
                                        <use xlink:href="#path-5"></use>
                                    </mask>
                                    <g id="Clip-28"></g>
                                    <path d="M8.62172556,5.06061586 C8.62172556,5.22105289 8.4829209,5.35248784 8.31320065,5.35248784 L0.506069189,5.28584476 C0.33634894,5.2833765 0.196282415,5.15440981 0.196282415,4.99150452 L0.196282415,0.56837903 C0.196282415,0.412261459 0.33634894,0.285763032 0.506069189,0.280826508 L8.31320065,0.359193827 C8.4829209,0.363513285 8.62172556,0.488160516 8.62172556,0.646746349 L8.62172556,5.06061586 Z" id="Fill-27" fill="#4F4F4F" mask="url(#mask-6)"></path>
                                </g>
                                <g id="Group-32">
                                    <mask id="mask-8" fill="white">
                                        <use xlink:href="#path-7"></use>
                                    </mask>
                                    <g id="Clip-31"></g>
                                    <path d="M6.60445213,-0.206716942 L5.19432293,-0.220292383 L5.19432293,0.573253848 C5.19432293,1.10578137 4.84100196,1.53711016 4.40250541,1.5290883 C3.97410374,1.5290883 3.6214137,1.09158887 3.6214137,0.563997865 L3.6214137,-0.240655544 L2.2093917,-0.255465116 C2.12043053,-0.249294461 2.03525494,-0.187587911 2.03525494,-0.0931768902 L2.03525494,2.39606533 C2.03525494,2.47813504 2.12043053,2.55650236 2.2093917,2.55650236 L6.60445213,2.59414335 C6.70035354,2.59414335 6.77606517,2.52256376 6.77606517,2.4287698 L6.77606517,-0.0505993709 C6.77606517,-0.138222672 6.70035354,-0.206716942 6.60445213,-0.206716942" id="Fill-30" fill="#FEFEFE" mask="url(#mask-8)"></path>
                                </g>
                            </g>
                            <polygon id="Fill-34" fill="#4F4F4F" points="42.2022263 113.967631 42.2022263 109.275362 44.1651206 109.275362 44.1651206 113.985507"></polygon>
                            <g id="Group-38" transform="translate(42.202226, 119.637681)">
                                <mask id="mask-10" fill="white">
                                    <use xlink:href="#path-9"></use>
                                </mask>
                                <g id="Clip-37"></g>
                                <polygon id="Fill-36" mask="url(#mask-10)" points="0.363135436 4.99082575 1.58601855 4.98835749 1.58601855 0.284467195 0.363135436 0.271508819"></polygon>
                            </g>
                        </g>
                    </g>
                </g>
            </g>
        </g>
    </g>
</svg>