<svg version="1.2" width="52.876" height="26.86mm" viewBox="9750 7056 1399 2686" preserveAspectRatio="xMidYMid"
   fill-rule="evenodd" stroke-width="28.222" stroke-linejoin="round" xmlns="http://www.w3.org/2000/svg">
   <defs class="prefix__ClipPathGroup">
      <clipPath id="prefix__a" clipPathUnits="userSpaceOnUse">
         <path d="M9750 7056h1399v2686H9750z" />
      </clipPath>
   </defs>
   <g class="prefix__SlideGroup">
      <g class="prefix__Slide" clip-path="url(#prefix__a)">
         <g class="prefix__Page">
            <g class="prefix__com_sun_star_drawing_ClosedBezierShape">
               <path class="prefix__BoundingBox" fill="none" d="M9750 7056h1400v2687H9750z" />
               <path fill="#143A79"
                  d="M9957 7056h985c115 0 207 93 207 207v2272c0 114-92 207-207 207h-985c-115 0-207-93-207-207V7263c0-114 92-207 207-207z" />
            </g>
            <g class="prefix__com_sun_star_drawing_ClosedBezierShape">
               <path class="prefix__BoundingBox" fill="none" d="M9965 7201h461v551h-461z" />
               <path fill="#FFF"
                  d="M9965 7562c0 113 102 189 229 189 128 0 230-76 230-189v-361h-98v352c0 75-58 115-132 115s-131-40-131-115v-352h-98v361z" />
            </g>
            <g class="prefix__com_sun_star_drawing_PolyPolygonShape">
               <path class="prefix__BoundingBox" fill="none" d="M10469 7201h502v546h-502z" />
               <path fill="#FFF" d="M10681 7746h77l212-545h-103l-147 415h-2l-146-415h-103l212 545z" />
            </g>
            <g class="prefix__com_sun_star_drawing_PolyPolygonShape">
               <path class="prefix__BoundingBox" fill="none" d="M9979 7807h33v217h-33z" />
               <path fill="#FFF" d="M9979 8023h32v-216h-32v216z" />
            </g>
            <g class="prefix__com_sun_star_drawing_PolyPolygonShape">
               <path class="prefix__BoundingBox" fill="none" d="M10097 7807h155v217h-155z" />
               <path fill="#FFF" d="M10097 8023h32v-153h1l92 153h29v-216h-31v154l-92-154h-31v216z" />
            </g>
            <g class="prefix__com_sun_star_drawing_ClosedBezierShape">
               <path class="prefix__BoundingBox" fill="none" d="M10337 7807h146v217h-146z" />
               <path fill="#FFF"
                  d="M10337 8023h70c31 0 52-16 64-36 9-15 11-23 11-72 0-45-1-53-11-72-13-24-35-36-62-36h-72v216zm32-186h37c17 0 27 5 36 20 9 11 9 21 9 59 0 40 0 46-7 57-8 13-21 19-38 19h-37v-155z" />
            </g>
            <g class="prefix__com_sun_star_drawing_PolyPolygonShape">
               <path class="prefix__BoundingBox" fill="none" d="M10562 7807h132v217h-132z" />
               <path fill="#FFF" d="M10562 8023h131v-31h-100v-63h85v-29h-85v-63h100v-30h-131v216z" />
            </g>
            <g class="prefix__com_sun_star_drawing_PolyPolygonShape">
               <path class="prefix__BoundingBox" fill="none" d="M10741 7807h162v217h-162z" />
               <path fill="#FFF" d="M10866 8023h35l-63-111 59-105h-35l-42 75-40-75h-35l58 105-62 111h35l44-80 46 80z" />
            </g>
            <g class="prefix__com_sun_star_drawing_ClosedBezierShape">
               <path class="prefix__BoundingBox" fill="none" d="M9973 8110h960v1527h-960z" />
               <path fill="#F28C00"
                  d="M10037 8922c-43 77-64 164-64 253 0 284 234 461 466 461 249 0 493-138 493-485 0-293-187-420-399-420-40 0-91 6-127 19h-4l352-640h-268l-449 812zm416 0c132 0 240 79 240 249 0 180-129 248-240 248-145 0-239-79-239-248 0-170 108-249 239-249z" />
            </g>
         </g>
      </g>
   </g>
</svg>