<?xml version="1.0" encoding="UTF-8"?>
<svg id="good-air-quality" width="1024pt" height="1024pt" viewBox="0 0 650 650" version="1.1" xmlns="http://www.w3.org/2000/svg">
  <path fill="#00e400" stroke="#00e400" stroke-width="2" opacity="1.00" d="M 306.143 12.125 C 349.223 9.135 392.903 15.025 433.623 29.385 C 471.263 42.665 506.383 63.115 536.423 89.395 C 593.563 138.785 632.063 209.375 641.783 284.345 C 650.263 346.445 639.623 411.065 611.263 466.985 C 588.543 512.235 554.663 551.805 513.573 581.365 C 465.893 615.905 408.383 636.675 349.623 640.475 C 307.233 643.405 264.223 637.835 224.063 623.905 C 153.253 599.745 91.793 549.415 54.083 484.805 C 33.383 449.715 19.703 410.505 14.083 370.155 C 7.803 325.485 11.193 279.455 24.183 236.255 C 35.883 197.155 55.413 160.445 81.143 128.775 C 109.873 93.325 146.343 64.175 187.283 44.015 C 224.303 25.725 264.943 14.805 306.143 12.125 M 256.393 98.485 C 231.103 104.515 208.583 119.915 192.323 140.045 C 175.843 160.115 165.253 184.365 158.433 209.235 C 157.343 213.885 155.703 218.405 155.603 223.245 C 153.403 236.825 155.313 250.535 156.203 264.135 C 157.733 278.795 160.913 293.215 163.223 307.765 C 164.383 318.965 166.643 330.075 168.173 341.255 C 164.183 344.785 159.333 347.335 155.763 351.325 C 152.073 355.435 153.433 361.265 153.563 366.265 C 155.443 382.635 161.873 397.965 167.473 413.325 C 169.643 419.515 173.303 425.215 178.413 429.365 C 184.623 435.015 192.703 437.605 200.493 440.235 C 217.353 475.275 238.823 508.805 268.133 534.745 C 275.113 540.525 281.793 546.995 290.313 550.495 C 305.483 556.815 322.313 557.785 338.553 556.995 C 353.393 556.165 368.733 552.605 380.683 543.335 C 415.123 516.455 439.753 479.195 458.553 440.215 C 468.003 437.385 477.563 433.455 484.183 425.835 C 490.383 419.355 492.363 410.345 495.623 402.265 C 500.903 387.505 506.543 372.205 505.603 356.265 C 503.893 348.845 495.933 345.985 490.873 341.205 C 494.603 317.035 499.053 292.765 498.213 268.205 C 498.253 254.515 496.033 240.965 493.023 227.655 L 492.483 227.165 C 489.283 211.515 485.763 195.795 479.993 180.855 C 475.643 170.025 470.963 158.665 462.073 150.695 C 455.643 140.715 446.953 132.375 437.523 125.245 C 420.383 112.515 400.393 104.085 379.743 99.055 C 339.363 89.145 297.033 91.595 256.393 98.485 Z"/>
  <path fill="#555" stroke="#555" stroke-width="5" opacity="1.00" d="M 254.845 96.98 C 266.968 94.65 279.335 94.2 291.608 93.16 C 322.469 91.88 354.045 95.17 383.031 106.58 C 405.86 115.729 427.428 130.169 441.234 150.908 C 453.285 163.028 458.63 179.828 463.719 195.687 C 466.63 206.457 471.188 216.887 472.511 228.016 C 473.977 232.846 474.595 237.936 474.533 242.996 C 474.696 243.456 475.023 244.356 475.197 244.806 C 476.208 269.045 476.572 293.654 471.189 317.404 C 468.175 326.273 466.835 335.603 464.833 344.743 C 460.622 365.972 456.31 387.192 452.68 408.531 C 452.07 407.251 451.481 405.971 450.901 404.691 C 448.31 385.812 445.779 366.932 443.427 348.023 C 442.7 328.333 436.621 308.474 424.334 292.794 C 411.3 276.215 392.509 264.185 372.13 259.045 C 381.141 272.525 395.187 281.325 407.127 291.914 C 399.591 292.534 392.215 290.394 385.225 287.765 C 371.064 282.335 357.699 275.015 344.671 267.285 C 326.058 256.225 308.225 243.916 290.621 231.316 C 293.759 237.746 298.559 243.156 303.378 248.376 C 319.725 265.295 338.513 279.585 357.1 293.914 C 348.068 294.924 339.092 292.864 330.404 290.544 C 311.843 285.035 294.388 276.435 277.28 267.475 C 251.736 253.666 227.08 238.226 203.236 221.646 C 201.42 239.626 197.102 257.225 192.812 274.725 C 187.463 289.565 184.99 305.264 183.547 320.934 C 181.442 349.603 182.828 378.472 186.451 407.011 C 187.144 412.801 187.628 418.621 187.771 424.461 C 187.766 425.091 187.755 426.341 187.75 426.971 C 187.585 426.341 187.246 425.071 187.071 424.441 C 185.812 419.201 184.273 414.031 182.815 408.841 C 176.914 387.432 170.785 366.082 164.395 344.823 C 162.971 340.193 161.556 335.563 159.982 330.983 C 153.161 312.194 149.454 292.484 146.646 272.785 C 145.307 266.175 145.257 259.415 144.547 252.736 C 143.191 238.586 143.332 224.056 147.129 210.307 C 153.308 185.987 163.051 162.248 178.281 142.209 C 196.531 118.049 224.032 99.38 254.845 96.98 Z" style="" transform="matrix(0.999972, 0.007475, -0.007475, 0.999972, 1.951674, -2.308377)"/>
  <path fill="#00e400" stroke="#00e400" stroke-width="5" opacity="1.00" d="M 202.369 221.696 C 226.213 238.275 250.869 253.715 276.413 267.525 C 293.521 276.484 310.975 285.084 329.537 290.594 C 338.225 292.914 347.2 294.974 356.233 293.964 C 337.646 279.634 318.858 265.345 302.511 248.425 C 297.692 243.205 292.892 237.795 289.753 231.366 C 307.358 243.965 325.191 256.275 343.804 267.335 C 356.832 275.064 370.197 282.384 384.358 287.814 C 391.348 290.444 398.724 292.584 406.26 291.964 C 394.32 281.374 380.274 272.574 371.263 259.095 C 391.642 264.235 410.432 276.264 423.467 292.844 C 435.754 308.523 441.833 328.383 442.56 348.072 C 444.911 366.982 447.443 385.861 450.034 404.741 C 450.188 406.691 450.283 408.641 450.408 410.611 C 445.991 408.381 441.604 406.101 437.177 403.901 C 425.426 429.18 413.024 454.369 396.642 476.999 C 385.122 493.058 371.492 507.738 355.589 519.538 C 331.276 533.877 299.004 533.817 274.565 519.288 C 258.727 507.548 245.018 493.088 233.389 477.209 C 216.63 454.549 203.781 429.34 191.641 404.021 C 189.609 405.011 187.596 406.021 185.584 407.061 C 181.96 378.521 180.575 349.652 182.68 320.983 C 184.123 305.314 186.596 289.614 191.945 274.774 C 196.234 257.275 200.553 239.675 202.369 221.696 M 340.816 313.193 C 359.611 311.043 378.64 310.903 397.468 313.143 C 382.446 298.274 355.749 298.764 340.816 313.193 M 229.923 313.143 C 248.867 310.983 268.047 310.923 286.996 313.373 C 271.796 298.644 245.004 298.444 229.923 313.143 M 356.804 330.203 C 353.026 333.113 353 339.023 356.185 342.432 C 365.461 348.502 379.584 347.552 386.265 338.183 C 385.629 334.763 383.984 331.423 380.979 329.493 C 373.794 324.723 363.656 325.093 356.804 330.203 M 241.361 334.293 C 242.559 339.383 246.154 343.952 251.384 345.242 C 260.832 347.692 270.963 343.732 277.794 337.203 C 272.524 330.503 264.129 325.883 255.485 326.753 C 249.939 327.193 245.021 330.263 241.361 334.293 M 293.685 396.081 C 306.648 401.811 321.798 401.711 334.768 396.311 C 322.049 389.811 306.43 390.021 293.685 396.081 M 267.056 439.21 C 271.91 455.789 283.02 471.769 299.668 478.079 C 312.181 482.469 326.814 481.439 338.01 474.229 C 350.321 466.329 358.343 453.099 362.269 439.2 C 330.579 436.67 298.718 436.62 267.056 439.21 Z" style="" transform="matrix(0.999972, 0.007475, -0.007475, 0.999972, 2.819187, -2.351964)"/>
  <path fill="#555" stroke="#555" stroke-width="5" opacity="1.00" d="M 341.325 313.592 C 356.258 299.162 382.955 298.672 397.977 313.542 C 379.149 311.302 360.12 311.442 341.325 313.592 Z" style="" transform="matrix(0.999972, 0.007475, -0.007475, 0.999972, 2.313265, -2.754535)"/>
  <path fill="#555" stroke="#555" stroke-width="5" opacity="1.00" d="M 230.434 312.715 C 245.515 298.015 272.307 298.215 287.507 312.945 C 268.559 310.495 249.379 310.555 230.434 312.715 Z" style="" transform="matrix(0.999972, 0.007475, -0.007475, 0.999972, 2.30482, -1.927218)"/>
  <path fill="#555" stroke="#555" stroke-width="5" opacity="1.00" d="M 463.57 344.932 C 465.572 335.792 466.913 326.463 469.926 317.593 C 469.802 322.313 468.676 326.923 468.121 331.602 C 471.868 332.582 475.626 333.532 479.383 334.492 C 483.07 342.142 483.856 350.882 482.317 359.142 C 480.157 369.831 476.354 380.081 473.242 390.521 C 470.174 401.59 464.385 412.43 454.876 419.22 C 450.092 422.77 444.285 424.58 438.442 425.47 C 423.167 458.389 403.903 489.988 377.581 515.227 C 371.482 520.767 365.526 526.667 358.256 530.697 C 342.742 539.507 324.244 541.177 306.684 539.987 C 297.668 539.237 288.481 538.287 280.054 534.727 C 264.204 528.127 251.563 515.897 240.407 503.158 C 219.106 480.418 203.472 453.159 189.764 425.39 C 188.943 425.21 187.32 424.83 186.509 424.65 C 186.365 418.81 185.881 412.99 185.188 407.2 C 187.2 406.16 189.213 405.15 191.246 404.16 C 203.385 429.48 216.234 454.689 232.994 477.348 C 244.623 493.228 258.331 507.687 274.17 519.427 C 298.609 533.957 330.88 534.017 355.194 519.677 C 371.096 507.877 384.727 493.198 396.247 477.138 C 412.628 454.509 425.03 429.32 436.782 404.04 C 441.208 406.24 445.595 408.52 450.012 410.75 C 449.887 408.78 449.793 406.83 449.638 404.88 C 450.218 406.16 450.807 407.44 451.417 408.72 L 451.57 409.14 C 464.279 390.191 469.69 367.531 473.223 345.242 C 470.002 345.102 466.781 345.002 463.57 344.932 Z" style="" transform="matrix(0.999972, 0.007475, -0.007475, 0.999972, 3.215811, -2.485598)"/>
  <path fill="#555" stroke="#555" stroke-width="5" opacity="1.00" d="M 357.1 330.608 C 363.952 325.498 374.089 325.128 381.275 329.898 C 384.28 331.828 385.925 335.168 386.56 338.588 C 379.88 347.957 365.757 348.907 356.481 342.838 C 353.296 339.428 353.321 333.518 357.1 330.608 Z" style="" transform="matrix(0.999972, 0.007475, -0.007475, 0.999972, 2.526449, -2.759088)"/>
  <path fill="#555" stroke="#555" stroke-width="5" opacity="1.00" d="M 241.659 333.872 C 245.319 329.842 250.237 326.772 255.783 326.332 C 264.427 325.462 272.822 330.082 278.092 336.782 C 271.261 343.312 261.13 347.272 251.682 344.822 C 246.452 343.532 242.857 338.962 241.659 333.872 Z" style="" transform="matrix(0.999972, 0.007475, -0.007475, 0.999972, 2.518041, -1.933186)"/>
  <path fill="#555" stroke="#555" stroke-width="5" opacity="1.00" d="M 159.106 329.907 C 160.68 334.487 162.094 339.116 163.519 343.746 C 160.378 343.586 157.227 343.456 154.086 343.356 C 158.04 366.566 164.305 390.085 178.022 409.665 C 179.317 409.025 180.633 408.395 181.938 407.765 C 183.397 412.954 184.936 418.124 186.195 423.364 C 173.793 420.494 163.242 411.064 158.773 399.175 C 155.007 389.015 151.58 378.745 148.074 368.506 C 144.119 357.186 143.083 344.396 148.02 333.267 C 151.692 332.087 155.639 331.667 159.106 329.907 Z" style="" transform="matrix(0.999972, 0.007475, -0.007475, 0.999972, 2.819973, -1.226198)"/>
  <path fill="#00e400" stroke="#00e400" stroke-width="5" opacity="1.00" d="M 154.087 343.376 C 157.228 343.476 160.379 343.606 163.52 343.766 C 169.909 365.026 176.039 386.375 181.939 407.784 C 180.634 408.414 179.318 409.044 178.023 409.684 C 164.306 390.105 158.04 366.586 154.087 343.376 Z" style="" transform="matrix(0.999972, 0.007475, -0.007475, 0.999972, 2.819256, -1.245378)"/>
  <path fill="#00e400" stroke="#00e400" stroke-width="5" opacity="1.00" d="M 463.955 345.889 C 467.166 345.959 470.386 346.059 473.608 346.199 C 470.074 368.488 464.663 391.148 451.955 410.097 L 451.802 409.677 C 455.432 388.338 459.744 367.118 463.955 345.889 Z" style="" transform="matrix(0.999972, 0.007475, -0.007475, 0.999972, 2.838425, -3.44816)"/>
  <path fill="#555" stroke="#555" stroke-width="5" opacity="1.00" d="M 293.536 396.067 C 306.281 390.007 321.899 389.797 334.618 396.297 C 321.648 401.697 306.499 401.797 293.536 396.067 Z" style="" transform="matrix(0.999972, 0.007475, -0.007475, 0.999972, 2.968232, -2.336665)"/>
  <path fill="#555" stroke="#555" stroke-width="5" opacity="1.00" d="M 266.436 439.198 C 298.097 436.609 329.959 436.659 361.648 439.188 C 357.722 453.088 349.701 466.318 337.39 474.217 C 326.193 481.427 311.56 482.457 299.047 478.067 C 282.4 471.758 271.29 455.778 266.436 439.198 M 278.081 446.488 C 282.901 455.898 289.759 464.908 299.523 469.538 C 306.178 472.827 313.826 472.448 321.002 471.938 C 334.657 469.848 344.351 458.288 350.023 446.488 C 326.038 445.968 302.057 445.978 278.081 446.488 Z" style="" transform="matrix(0.999972, 0.007475, -0.007475, 0.999972, 3.439647, -2.334642)"/>
  <path fill="#00e400" stroke="#00e400" stroke-width="5" opacity="1.00" d="M 278.079 446.488 C 302.056 445.978 326.037 445.968 350.021 446.488 C 344.349 458.288 334.655 469.847 321 471.937 C 313.824 472.447 306.177 472.827 299.522 469.537 C 289.757 464.907 282.9 455.898 278.079 446.488 Z" style="" transform="matrix(0.999972, 0.007475, -0.007475, 0.999972, 3.441201, -2.334695)"/>
</svg>