<?xml version="1.0" encoding="UTF-8"?>
<svg id="hazardous-air-quality" width="1024pt" height="1024pt" viewBox="0 0 650 650" version="1.1" xmlns="http://www.w3.org/2000/svg">
  <path fill="#7e0023" stroke="#7e0023" stroke-width="5" opacity="1.00" d="M 320.535 11.437 C 368.105 10.307 415.935 20.007 459.205 39.827 C 528.185 71.007 585.215 127.827 616.325 196.867 C 648.905 267.857 653.145 351.227 628.275 425.237 C 610.775 478.107 578.695 525.997 536.765 562.607 C 498.645 596.107 452.345 620.217 403.025 632.177 C 364.565 641.537 324.365 643.647 285.135 638.387 C 209.845 628.687 138.755 590.487 88.865 533.307 C 62.515 503.427 41.945 468.457 28.625 430.907 C 11.745 383.477 6.735 331.947 13.795 282.117 C 20.125 237.037 36.525 193.397 61.475 155.307 C 99.975 95.917 159.025 50.147 226.205 27.827 C 256.555 17.577 288.505 12.067 320.535 11.437 M 261.945 105.867 C 230.365 111.887 202.875 132.667 185.655 159.447 C 174.545 176.627 166.695 195.867 162.005 215.747 C 158.225 244.567 164.245 273.407 169.825 301.557 C 169.605 310.327 172.155 318.877 173.015 327.577 C 168.095 333.187 162.545 338.477 159.035 345.137 C 157.675 353.507 160.275 361.917 162.355 369.977 C 166.375 382.077 169.655 394.507 175.275 405.997 C 177.965 411.567 182.145 416.477 187.495 419.637 C 195.835 424.627 204.575 429.217 211.475 436.207 C 200.285 442.467 189.045 448.637 177.855 454.887 C 183.715 475.157 194.575 493.377 204.135 512.037 C 212.965 529.067 221.585 546.237 231.485 562.687 C 238.515 559.987 245.745 557.727 252.435 554.207 C 264.345 548.747 275.415 541.597 287.155 535.817 C 302.195 537.177 316.855 542.287 332.095 541.497 C 344.655 540.427 356.925 537.357 369.385 535.607 C 377.185 539.767 384.865 544.137 392.605 548.407 C 403.005 554.207 413.985 558.847 425.245 562.697 C 444.085 527.267 465.075 492.707 478.765 454.837 C 468.555 449.007 458.115 443.617 447.615 438.337 C 448.865 434.957 449.215 431.047 451.125 428.027 C 458.985 424.397 467.965 422.397 474.375 416.187 C 479.125 411.817 481.105 405.497 483.945 399.897 C 490.115 385.797 494.065 370.857 497.715 355.947 C 498.795 351.797 498.465 347.307 496.555 343.457 C 493.275 337.327 488.165 332.447 483.685 327.207 C 485.275 315.737 487.895 304.347 487.995 292.737 C 490.925 274.337 490.465 255.497 488.365 237.037 C 485.575 217.917 481.365 198.847 474.085 180.897 C 470.565 172.687 466.655 164.337 460.185 157.997 C 457.285 155.167 455.235 151.637 452.535 148.637 C 446.395 141.707 439.265 135.677 431.605 130.507 C 402.075 110.857 366.185 103.077 331.155 101.897 C 308.015 100.687 284.855 102.717 261.945 105.867 Z"/>
  <path fill="#000" stroke="#000" stroke-width="5" opacity="1.00" d="M 261.945 105.867 C 284.855 102.717 308.015 100.687 331.155 101.897 C 366.185 103.077 402.075 110.857 431.605 130.507 C 439.265 135.677 446.395 141.707 452.535 148.637 C 455.235 151.637 457.285 155.167 460.185 157.997 C 466.655 164.337 470.565 172.687 474.085 180.897 C 481.365 198.847 485.575 217.917 488.365 237.037 C 490.465 255.497 490.925 274.337 487.995 292.737 C 485.815 302.907 482.575 312.807 480.055 322.907 C 478.085 330.507 476.315 338.157 474.475 345.797 C 470.595 361.457 467.165 377.237 463.395 392.927 C 461.075 372.117 457.855 351.397 456.175 330.517 C 455.365 319.917 453.285 309.107 447.955 299.787 C 443.065 287.837 433.845 278.097 423.735 270.317 C 412.825 262.347 400.465 256.157 387.285 253.047 C 396.535 265.577 409.855 274.157 422.075 283.487 C 414.195 283.987 406.515 281.747 399.195 279.097 C 380.995 272.317 364.005 262.737 347.355 252.847 C 333.475 244.627 320.155 235.537 306.665 226.707 C 314.425 239.517 326.205 249.167 337.575 258.637 C 348.475 267.697 359.985 275.967 371.495 284.237 C 352.795 285.497 335.005 278.077 318.035 271.147 C 283.745 256.197 251.465 237.017 220.135 216.667 C 218.985 227.657 216.045 238.327 213.215 248.977 C 211.535 254.917 210.155 260.967 207.935 266.737 C 201.275 283.327 198.665 301.217 197.545 318.967 C 196.935 333.247 196.385 347.597 197.635 361.867 C 198.145 375.347 200.905 388.667 200.605 402.197 C 195.145 383.307 190.015 364.337 184.335 345.517 C 179.895 330.747 175.785 315.807 169.825 301.557 C 164.245 273.407 158.225 244.567 162.005 215.747 C 166.695 195.867 174.545 176.627 185.655 159.447 C 202.875 132.667 230.365 111.887 261.945 105.867 Z"/>
  <path fill="#7e0023" stroke="#7e0023" stroke-width="5" opacity="1.00" d="M 220.135 216.667 C 251.465 237.017 283.745 256.197 318.035 271.147 C 335.005 278.077 352.795 285.497 371.495 284.237 C 359.985 275.967 348.475 267.697 337.575 258.637 C 326.205 249.167 314.425 239.517 306.665 226.707 C 320.155 235.537 333.475 244.627 347.355 252.847 C 364.005 262.737 380.995 272.317 399.195 279.097 C 406.515 281.747 414.195 283.987 422.075 283.487 C 409.855 274.157 396.535 265.577 387.285 253.047 C 400.465 256.157 412.825 262.347 423.735 270.317 C 433.845 278.097 443.065 287.837 447.955 299.787 C 448.355 310.507 451.865 320.787 456.175 330.517 C 457.855 351.397 461.075 372.117 463.395 392.927 C 467.165 377.237 470.595 361.457 474.475 345.797 C 478.915 346.407 483.365 346.897 487.825 347.407 C 484.035 369.287 476.295 390.217 467.355 410.467 C 461.425 409.057 455.485 407.707 449.565 406.267 C 445.515 414.737 441.545 423.257 437.605 431.777 C 428.225 432.437 418.865 433.227 409.485 433.757 C 398.135 416.227 385.455 399.277 369.515 385.627 C 360.355 377.307 350.095 369.527 337.985 366.217 C 330.135 364.297 321.425 364.167 314.075 367.897 C 296.375 375.497 281.735 388.667 269.415 403.227 C 261.155 412.807 254.355 423.487 247.045 433.777 C 237.755 433.227 228.495 432.367 219.215 431.807 C 215.155 423.317 211.215 414.777 207.175 406.277 C 201.235 407.697 195.285 409.077 189.335 410.457 C 180.385 390.067 172.545 369.037 168.735 347.027 C 173.945 346.647 179.135 346.087 184.335 345.517 C 190.015 364.337 195.145 383.307 200.605 402.197 C 200.905 388.667 198.145 375.347 197.635 361.867 C 196.385 347.597 196.935 333.247 197.545 318.967 C 198.665 301.217 201.275 283.327 207.935 266.737 C 210.155 260.967 211.535 254.917 213.215 248.977 C 216.045 238.327 218.985 227.657 220.135 216.667 M 243.695 306.947 C 262.215 315.227 283.945 314.707 302.685 307.417 C 283.255 303.507 263.215 303.767 243.695 306.947 M 353.885 307.497 C 372.545 314.847 393.765 314.437 412.635 308.007 C 402.945 305.817 393.065 304.817 383.165 304.437 C 373.325 304.637 363.565 305.797 353.885 307.497 M 257.635 331.277 C 257.575 335.617 257.515 339.967 257.485 344.317 C 269.265 348.937 283.225 347.127 293.025 338.957 C 287.925 334.967 283.415 329.777 277.105 327.697 C 270.505 327.927 264.015 329.617 257.635 331.277 M 377.525 328.417 C 372.265 330.957 368.495 335.587 364.225 339.437 C 367.785 341.797 371.445 344.117 375.585 345.327 C 383.245 347.827 391.565 346.927 399.105 344.437 C 399.305 339.927 399.305 335.417 399.265 330.907 C 394.625 329.857 389.985 328.787 385.275 328.167 C 382.705 327.907 379.915 326.997 377.525 328.417 Z"/>
  <path fill="#000" stroke="#000" stroke-width="5" opacity="1.00" d="M 480.055 322.907 C 482.575 312.807 485.815 302.907 487.995 292.737 C 487.895 304.347 485.275 315.737 483.685 327.207 C 488.165 332.447 493.275 337.327 496.555 343.457 C 498.465 347.307 498.795 351.797 497.715 355.947 C 494.065 370.857 490.115 385.797 483.945 399.897 C 481.105 405.497 479.125 411.817 474.375 416.187 C 467.965 422.397 458.985 424.397 451.125 428.027 C 449.215 431.047 448.865 434.957 447.615 438.337 C 458.115 443.617 468.555 449.007 478.765 454.837 C 465.075 492.707 444.085 527.267 425.245 562.697 C 413.985 558.847 403.005 554.207 392.605 548.407 C 384.865 544.137 377.185 539.767 369.385 535.607 C 356.925 537.357 344.655 540.427 332.095 541.497 C 316.855 542.287 302.195 537.177 287.155 535.817 C 275.415 541.597 264.345 548.747 252.435 554.207 C 245.745 557.727 238.515 559.987 231.485 562.687 C 221.585 546.237 212.965 529.067 204.135 512.037 C 194.575 493.377 183.715 475.157 177.855 454.887 C 189.045 448.637 200.285 442.467 211.475 436.207 C 204.575 429.217 195.835 424.627 187.495 419.637 C 182.145 416.477 177.965 411.567 175.275 405.997 C 169.655 394.507 166.375 382.077 162.355 369.977 C 160.275 361.917 157.675 353.507 159.035 345.137 C 162.545 338.477 168.095 333.187 173.015 327.577 C 172.155 318.877 169.605 310.327 169.825 301.557 C 175.785 315.807 179.895 330.747 184.335 345.517 C 179.135 346.087 173.945 346.647 168.735 347.027 C 172.545 369.037 180.385 390.067 189.335 410.457 C 195.285 409.077 201.235 407.697 207.175 406.277 C 211.215 414.777 215.155 423.317 219.215 431.807 C 228.495 432.367 237.755 433.227 247.045 433.777 C 254.355 423.487 261.155 412.807 269.415 403.227 C 281.735 388.667 296.375 375.497 314.075 367.897 C 321.425 364.167 330.135 364.297 337.985 366.217 C 350.095 369.527 360.355 377.307 369.515 385.627 C 385.455 399.277 398.135 416.227 409.485 433.757 C 418.865 433.227 428.225 432.437 437.605 431.777 C 441.545 423.257 445.515 414.737 449.565 406.267 C 455.485 407.707 461.425 409.057 467.355 410.467 C 476.295 390.217 484.035 369.287 487.825 347.407 C 483.365 346.897 478.915 346.407 474.475 345.797 C 476.315 338.157 478.085 330.507 480.055 322.907 M 317.365 375.117 C 303.055 381.917 290.665 392.227 280.065 403.907 C 269.225 415.537 260.625 428.937 251.665 441.997 C 265.435 469.187 279.115 496.407 292.485 523.797 C 313.035 533.347 338.005 535.597 358.865 525.757 C 361.925 523.927 366.085 522.807 367.315 519.067 C 378.385 492.707 392.065 467.567 404.815 442.007 C 394.575 425.827 383.135 410.257 369.215 397.037 C 361.375 389.367 353.035 381.927 343.275 376.777 C 335.435 372.757 325.445 370.557 317.365 375.117 M 229.485 440.377 C 221.485 442.477 214.475 447.157 206.725 449.977 C 222.265 480.567 237.745 511.197 253.715 541.567 C 262.215 536.987 272.595 534.467 278.555 526.317 C 282.335 521.347 280.225 514.777 277.405 509.907 C 266.775 487.867 256.435 465.577 243.065 445.027 C 240.115 440.747 234.445 438.887 229.485 440.377 M 401.195 464.987 C 396.605 474.647 391.485 484.037 386.665 493.587 C 382.665 501.117 378.345 508.637 376.265 516.967 C 374.345 523.147 378.815 529.117 383.715 532.397 C 389.775 536.247 396.515 538.857 402.845 542.237 C 418.555 511.367 435.025 480.877 450.015 449.647 C 439.625 445.727 429.715 438.667 418.095 439.827 C 410.755 446.937 405.875 456.017 401.195 464.987 M 189.075 458.537 C 195.165 472.897 202.095 486.877 209.265 500.727 C 218.005 517.427 226.615 534.197 235.685 550.707 C 239.665 549.347 243.705 548.117 247.745 546.927 C 232.395 515.977 216.655 485.227 200.915 454.477 C 196.965 455.827 193.035 457.207 189.075 458.537 M 409.265 546.857 C 413.225 547.997 417.165 549.177 421.105 550.397 C 436.545 520.117 452.805 490.237 466.955 459.327 C 463.335 457.717 459.715 456.127 456.105 454.517 C 440.395 485.247 424.215 515.737 409.265 546.857 Z"/>
  <path fill="#000" stroke="#000" stroke-width="5" opacity="1.00" d="M 447.955 299.787 C 453.285 309.107 455.365 319.917 456.175 330.517 C 451.865 320.787 448.355 310.507 447.955 299.787 Z"/>
  <path fill="#000" stroke="#000" stroke-width="5" opacity="1.00" d="M 243.695 306.947 C 263.215 303.767 283.255 303.507 302.685 307.417 C 283.945 314.707 262.215 315.227 243.695 306.947 Z"/>
  <path fill="#000" stroke="#000" stroke-width="5" opacity="1.00" d="M 353.885 307.497 C 363.565 305.797 373.325 304.637 383.165 304.437 C 393.065 304.817 402.945 305.817 412.635 308.007 C 393.765 314.437 372.545 314.847 353.885 307.497 Z"/>
  <path fill="#000" stroke="#000" stroke-width="5" opacity="1.00" d="M 257.635 331.277 C 264.015 329.617 270.505 327.927 277.105 327.697 C 283.415 329.777 287.925 334.967 293.025 338.957 C 283.225 347.127 269.265 348.937 257.485 344.317 C 257.515 339.967 257.575 335.617 257.635 331.277 Z"/>
  <path fill="#000" stroke="#000" stroke-width="5" opacity="1.00" d="M 377.525 328.417 C 379.915 326.997 382.705 327.907 385.275 328.167 C 389.985 328.787 394.625 329.857 399.265 330.907 C 399.305 335.417 399.305 339.927 399.105 344.437 C 391.565 346.927 383.245 347.827 375.585 345.327 C 371.445 344.117 367.785 341.797 364.225 339.437 C 368.495 335.587 372.265 330.957 377.525 328.417 Z"/>
  <path fill="#7e0023" stroke="#7e0023" stroke-width="5" opacity="1.00" d="M 317.365 375.117 C 325.445 370.557 335.435 372.757 343.275 376.777 C 353.035 381.927 361.375 389.367 369.215 397.037 C 383.135 410.257 394.575 425.827 404.815 442.007 C 392.065 467.567 378.385 492.707 367.315 519.067 C 366.085 522.807 361.925 523.927 358.865 525.757 C 338.005 535.597 313.035 533.347 292.485 523.797 C 279.115 496.407 265.435 469.187 251.665 441.997 C 260.625 428.937 269.225 415.537 280.065 403.907 C 290.665 392.227 303.055 381.917 317.365 375.117 M 320.585 420.607 C 300.445 423.987 284.615 442.777 283.845 463.017 C 283.675 478.547 291.975 493.777 304.935 502.287 C 312.395 507.087 321.225 510.327 330.215 509.817 C 346.125 509.357 360.925 499.297 368.605 485.577 C 373.325 477.247 374.655 467.337 373.195 457.947 C 370.625 433.597 344.345 415.307 320.585 420.607 Z"/>
  <path fill="#000" stroke="#000" stroke-width="5" opacity="1.00" d="M 320.585 420.607 C 344.345 415.307 370.625 433.597 373.195 457.947 C 374.655 467.337 373.325 477.247 368.605 485.577 C 360.925 499.297 346.125 509.357 330.215 509.817 C 321.225 510.327 312.395 507.087 304.935 502.287 C 291.975 493.777 283.675 478.547 283.845 463.017 C 284.615 442.777 300.445 423.987 320.585 420.607 M 324.485 443.417 C 318.515 445.217 312.265 448.637 309.715 454.647 C 306.965 460.877 307.365 468.147 309.705 474.437 C 311.695 479.817 316.675 483.737 322.185 485.057 C 329.725 487.477 338.355 485.337 344.265 480.177 C 348.745 476.087 350.055 469.727 350.495 463.937 C 350.315 451.247 336.815 440.787 324.485 443.417 Z"/>
  <path fill="#7e0023" stroke="#7e0023" stroke-width="5" opacity="1.00" d="M 229.485 440.377 C 234.445 438.887 240.115 440.747 243.065 445.027 C 256.435 465.577 266.775 487.867 277.405 509.907 C 280.225 514.777 282.335 521.347 278.555 526.317 C 272.595 534.467 262.215 536.987 253.715 541.567 C 237.745 511.197 222.265 480.567 206.725 449.977 C 214.475 447.157 221.485 442.477 229.485 440.377 Z"/>
  <path fill="#7e0023" stroke="#7e0023" stroke-width="5" opacity="1.00" d="M 401.195 464.987 C 405.875 456.017 410.755 446.937 418.095 439.827 C 429.715 438.667 439.625 445.727 450.015 449.647 C 435.025 480.877 418.555 511.367 402.845 542.237 C 396.515 538.857 389.775 536.247 383.715 532.397 C 378.815 529.117 374.345 523.147 376.265 516.967 C 378.345 508.637 382.665 501.117 386.665 493.587 C 391.485 484.037 396.605 474.647 401.195 464.987 Z"/>
  <path fill="#7e0023" stroke="#7e0023" stroke-width="5" opacity="1.00" d="M 324.485 443.417 C 336.815 440.787 350.315 451.247 350.495 463.937 C 350.055 469.727 348.745 476.087 344.265 480.177 C 338.355 485.337 329.725 487.477 322.185 485.057 C 316.675 483.737 311.695 479.817 309.705 474.437 C 307.365 468.147 306.965 460.877 309.715 454.647 C 312.265 448.637 318.515 445.217 324.485 443.417 Z"/>
  <path fill="#7e0023" stroke="#7e0023" stroke-width="5" opacity="1.00" d="M 189.075 458.537 C 193.035 457.207 196.965 455.827 200.915 454.477 C 216.655 485.227 232.395 515.977 247.745 546.927 C 243.705 548.117 239.665 549.347 235.685 550.707 C 226.615 534.197 218.005 517.427 209.265 500.727 C 202.095 486.877 195.165 472.897 189.075 458.537 Z"/>
  <path fill="#7e0023" stroke="#7e0023" stroke-width="5" opacity="1.00" d="M 409.265 546.857 C 424.215 515.737 440.395 485.247 456.105 454.517 C 459.715 456.127 463.335 457.717 466.955 459.327 C 452.805 490.237 436.545 520.117 421.105 550.397 C 417.165 549.177 413.225 547.997 409.265 546.857 Z"/>
</svg>