<?xml version="1.0" encoding="UTF-8"?>
<svg id="moderate-air-quality" width="1024pt" height="1024pt" viewBox="0 0 650 650" version="1.1" xmlns="http://www.w3.org/2000/svg">
  <path fill="#ffff00" stroke="#ffff00" stroke-width="2" opacity="1.00" d="M 306.143 12.125 C 349.223 9.135 392.903 15.025 433.623 29.385 C 471.263 42.665 506.383 63.115 536.423 89.395 C 593.563 138.785 632.063 209.375 641.783 284.345 C 650.263 346.445 639.623 411.065 611.263 466.985 C 588.543 512.235 554.663 551.805 513.573 581.365 C 465.893 615.905 408.383 636.675 349.623 640.475 C 307.233 643.405 264.223 637.835 224.063 623.905 C 153.253 599.745 91.793 549.415 54.083 484.805 C 33.383 449.715 19.703 410.505 14.083 370.155 C 7.803 325.485 11.193 279.455 24.183 236.255 C 35.883 197.155 55.413 160.445 81.143 128.775 C 109.873 93.325 146.343 64.175 187.283 44.015 C 224.303 25.725 264.943 14.805 306.143 12.125 M 256.393 98.485 C 231.103 104.515 208.583 119.915 192.323 140.045 C 175.843 160.115 165.253 184.365 158.433 209.235 C 157.343 213.885 155.703 218.405 155.603 223.245 C 153.403 236.825 155.313 250.535 156.203 264.135 C 157.733 278.795 160.913 293.215 163.223 307.765 C 164.383 318.965 166.643 330.075 168.173 341.255 C 164.183 344.785 159.333 347.335 155.763 351.325 C 152.073 355.435 153.433 361.265 153.563 366.265 C 155.443 382.635 161.873 397.965 167.473 413.325 C 169.643 419.515 173.303 425.215 178.413 429.365 C 184.623 435.015 192.703 437.605 200.493 440.235 C 217.353 475.275 238.823 508.805 268.133 534.745 C 275.113 540.525 281.793 546.995 290.313 550.495 C 305.483 556.815 322.313 557.785 338.553 556.995 C 353.393 556.165 368.733 552.605 380.683 543.335 C 415.123 516.455 439.753 479.195 458.553 440.215 C 468.003 437.385 477.563 433.455 484.183 425.835 C 490.383 419.355 492.363 410.345 495.623 402.265 C 500.903 387.505 506.543 372.205 505.603 356.265 C 503.893 348.845 495.933 345.985 490.873 341.205 C 494.603 317.035 499.053 292.765 498.213 268.205 C 498.253 254.515 496.033 240.965 493.023 227.655 L 492.483 227.165 C 489.283 211.515 485.763 195.795 479.993 180.855 C 475.643 170.025 470.963 158.665 462.073 150.695 C 455.643 140.715 446.953 132.375 437.523 125.245 C 420.383 112.515 400.393 104.085 379.743 99.055 C 339.363 89.145 297.033 91.595 256.393 98.485 Z"/>
  <path fill="#555" stroke="#555" stroke-width="2" opacity="1.00" d="M 256.393 98.485 C 297.033 91.595 339.363 89.145 379.743 99.055 C 400.393 104.085 420.383 112.515 437.523 125.245 C 446.953 132.375 455.643 140.715 462.073 150.695 C 470.963 158.665 475.643 170.025 479.993 180.855 C 485.763 195.795 489.283 211.515 492.483 227.165 C 492.783 232.225 493.873 237.195 494.483 242.215 C 495.883 258.845 497.463 275.595 495.413 292.255 C 494.653 307.635 489.383 322.215 486.323 337.195 C 484.933 343.775 483.543 350.365 482.153 356.945 C 478.373 375.115 474.383 393.265 471.163 411.535 C 467.903 391.795 466.073 371.865 463.153 352.075 C 462.423 346.205 462.743 340.195 461.343 334.415 C 458.113 325.155 456.093 315.495 452.453 306.375 C 444.903 291.125 432.313 278.715 417.753 270.085 C 409.073 265.065 399.823 260.655 389.963 258.625 C 393.763 264.695 399.283 269.435 404.533 274.215 C 411.163 279.975 418.163 285.305 425.203 290.555 L 425.443 291.565 C 413.923 292.155 403.093 287.315 392.673 283.025 C 365.803 270.735 340.863 254.665 316.513 238.035 C 313.383 235.935 310.473 233.465 307.033 231.875 C 307.783 234.345 309.303 236.475 310.803 238.555 C 321.223 251.285 333.873 261.915 346.563 272.305 C 355.533 279.535 364.763 286.435 374.093 293.205 C 366.163 294.485 358.253 292.625 350.493 291.155 C 326.223 284.575 303.583 273.235 281.533 261.355 C 259.063 249.045 237.313 235.485 216.043 221.225 C 215.233 231.455 212.693 241.445 210.663 251.485 C 208.323 259.905 206.893 268.575 204.033 276.855 C 199.353 289.185 197.333 302.285 195.443 315.285 C 194.193 331.565 192.893 347.905 193.883 364.245 C 194.563 374.615 194.953 385.015 196.013 395.365 C 197.043 402.945 198.023 410.535 198.213 418.195 C 197.863 418.645 197.163 419.555 196.813 420.005 C 191.053 399.015 185.103 378.095 178.913 357.225 C 176.073 347.485 173.133 337.765 169.803 328.185 C 167.973 322.805 166.063 317.425 164.903 311.845 C 164.633 310.375 164.013 309.005 163.223 307.765 C 160.913 293.215 157.733 278.795 156.203 264.135 C 155.313 250.535 153.403 236.825 155.603 223.245 C 155.703 218.405 157.343 213.885 158.433 209.235 C 165.253 184.365 175.843 160.115 192.323 140.045 C 208.583 119.915 231.103 104.515 256.393 98.485 Z"/>
  <path fill="#ffff00" stroke="#ffff00" stroke-width="2" opacity="1.00" d="M 216.043 221.225 C 237.313 235.485 259.063 249.045 281.533 261.355 C 303.583 273.235 326.223 284.575 350.493 291.155 C 358.253 292.625 366.163 294.485 374.093 293.205 C 364.763 286.435 355.533 279.535 346.563 272.305 C 333.873 261.915 321.223 251.285 310.803 238.555 C 312.663 238.075 314.593 237.985 316.513 238.035 C 340.863 254.665 365.803 270.735 392.673 283.025 C 403.093 287.315 413.923 292.155 425.443 291.565 L 425.203 290.555 C 418.163 285.305 411.163 279.975 404.533 274.215 C 399.283 269.435 393.763 264.695 389.963 258.625 C 399.823 260.655 409.073 265.065 417.753 270.085 C 432.313 278.715 444.903 291.125 452.453 306.375 C 456.093 315.495 458.113 325.155 461.343 334.415 C 462.743 340.195 462.423 346.205 463.153 352.075 C 466.073 371.865 467.903 391.795 471.163 411.535 C 474.383 393.265 478.373 375.115 482.153 356.945 C 486.953 357.055 491.763 357.215 496.573 357.415 C 491.993 380.715 487.673 405.715 471.553 424.205 C 466.643 422.325 461.813 420.245 456.893 418.415 C 444.513 445.885 431.043 473.215 412.223 496.925 C 403.443 507.755 394.043 518.145 383.593 527.385 C 376.153 534.455 367.353 540.215 357.663 543.655 C 345.053 547.645 331.543 548.365 318.443 547.185 C 306.403 545.975 294.553 542.065 284.623 535.065 C 249.783 507.735 225.163 469.595 207.103 429.625 C 205.283 425.925 203.993 421.925 201.863 418.415 C 201.073 418.745 199.513 419.415 198.723 419.745 C 198.593 419.355 198.343 418.585 198.213 418.195 C 198.023 410.535 197.043 402.945 196.013 395.365 C 194.953 385.015 194.563 374.615 193.883 364.245 C 192.893 347.905 194.193 331.565 195.443 315.285 C 197.333 302.285 199.353 289.185 204.033 276.855 C 206.893 268.575 208.323 259.905 210.663 251.485 C 212.693 241.445 215.233 231.455 216.043 221.225 M 242.153 316.475 C 248.643 320.145 256.073 321.845 263.413 322.875 C 275.963 324.215 289.053 322.625 300.463 317.035 L 300.613 316.335 C 281.183 314.445 261.573 314.395 242.153 316.475 M 358.043 316.575 C 367.033 321.405 377.493 323.015 387.613 323.295 C 397.613 323.095 408.063 321.565 416.823 316.505 C 397.293 314.345 377.573 314.515 358.043 316.575 M 264.893 339.775 C 261.573 340.625 258.853 342.865 255.953 344.595 C 253.473 348.035 255.793 352.645 258.593 355.115 C 261.203 357.885 265.223 357.055 268.523 358.265 C 276.563 359.445 284.073 354.695 289.213 348.915 C 289.863 347.875 291.753 347.285 291.283 345.835 C 283.043 342.295 274.123 337.285 264.893 339.775 M 368.093 345.375 C 368.863 349.305 372.593 351.825 375.623 354.165 C 381.783 357.845 389.593 359.485 396.503 357.025 C 401.263 355.275 404.143 350.395 404.353 345.465 C 400.223 340.825 393.693 338.815 387.583 339.255 C 380.633 339.515 374.333 342.635 368.093 345.375 M 308.583 406.395 C 312.153 409.815 316.703 412.115 321.523 413.145 C 330.843 415.315 340.343 413.025 349.403 410.745 C 349.393 410.485 349.383 409.955 349.383 409.695 C 336.563 403.885 322.183 406.175 308.583 406.395 M 283.243 463.925 C 293.423 466.725 303.983 467.775 314.523 467.565 C 331.213 467.455 347.983 468.315 364.603 466.405 C 368.153 465.415 372.283 465.295 375.463 463.655 C 367.893 460.435 359.653 459.575 351.533 459.025 C 336.543 458.865 321.563 458.815 306.573 459.045 C 298.663 459.775 290.503 460.385 283.243 463.925 M 313.333 482.135 C 313.663 484.975 314.063 487.795 314.453 490.625 C 322.003 490.625 329.633 490.795 337.123 489.635 C 341.413 488.675 346.253 487.405 349.413 484.345 C 337.483 482.415 325.383 482.365 313.333 482.135 Z"/>
  <path fill="#555" stroke="#555" stroke-width="2" opacity="1.00" d="M 492.483 227.165 L 493.023 227.655 C 496.033 240.965 498.253 254.515 498.213 268.205 C 499.053 292.765 494.603 317.035 490.873 341.205 C 495.933 345.985 503.893 348.845 505.603 356.265 C 506.543 372.205 500.903 387.505 495.623 402.265 C 492.363 410.345 490.383 419.355 484.183 425.835 C 477.563 433.455 468.003 437.385 458.553 440.215 C 439.753 479.195 415.123 516.455 380.683 543.335 C 368.733 552.605 353.393 556.165 338.553 556.995 C 322.313 557.785 305.483 556.815 290.313 550.495 C 281.793 546.995 275.113 540.525 268.133 534.745 C 238.823 508.805 217.353 475.275 200.493 440.235 C 192.703 437.605 184.623 435.015 178.413 429.365 C 173.303 425.215 169.643 419.515 167.473 413.325 C 161.873 397.965 155.443 382.635 153.563 366.265 C 153.433 361.265 152.073 355.435 155.763 351.325 C 159.333 347.335 164.183 344.785 168.173 341.255 C 166.643 330.075 164.383 318.965 163.223 307.765 C 164.013 309.005 164.633 310.375 164.903 311.845 C 166.063 317.425 167.973 322.805 169.803 328.185 C 173.133 337.765 176.073 347.485 178.913 357.225 C 173.373 357.075 167.843 356.735 162.303 356.615 C 165.873 374.065 168.823 391.975 176.683 408.115 C 179.613 413.925 183.273 419.325 187.583 424.205 C 190.583 422.705 194.253 422.185 196.813 420.005 C 197.163 419.555 197.863 418.645 198.213 418.195 C 198.343 418.585 198.593 419.355 198.723 419.745 C 199.513 419.415 201.073 418.745 201.863 418.415 C 203.993 421.925 205.283 425.925 207.103 429.625 C 225.163 469.595 249.783 507.735 284.623 535.065 C 294.553 542.065 306.403 545.975 318.443 547.185 C 331.543 548.365 345.053 547.645 357.663 543.655 C 367.353 540.215 376.153 534.455 383.593 527.385 C 394.043 518.145 403.443 507.755 412.223 496.925 C 431.043 473.215 444.513 445.885 456.893 418.415 C 461.813 420.245 466.643 422.325 471.553 424.205 C 487.673 405.715 491.993 380.715 496.573 357.415 C 491.763 357.215 486.953 357.055 482.153 356.945 C 483.543 350.365 484.933 343.775 486.323 337.195 C 489.383 322.215 494.653 307.635 495.413 292.255 C 497.463 275.595 495.883 258.845 494.483 242.215 C 493.873 237.195 492.783 232.225 492.483 227.165 M 197.593 420.415 C 196.903 421.595 197.003 424.205 198.193 424.865 C 198.543 423.615 199.423 420.645 197.593 420.415 Z"/>
  <path fill="#555" stroke="#555" stroke-width="2" opacity="1.00" d="M 307.033 231.875 C 310.473 233.465 313.383 235.935 316.513 238.035 C 314.593 237.985 312.663 238.075 310.803 238.555 C 309.303 236.475 307.783 234.345 307.033 231.875 Z"/>
  <path fill="#555" stroke="#555" stroke-width="2" opacity="1.00" d="M 242.153 316.475 C 261.573 314.395 281.183 314.445 300.613 316.335 L 300.463 317.035 C 289.053 322.625 275.963 324.215 263.413 322.875 C 256.073 321.845 248.643 320.145 242.153 316.475 Z"/>
  <path fill="#555" stroke="#555" stroke-width="2" opacity="1.00" d="M 358.043 316.575 C 377.573 314.515 397.293 314.345 416.823 316.505 C 408.063 321.565 397.613 323.095 387.613 323.295 C 377.493 323.015 367.033 321.405 358.043 316.575 Z"/>
  <path fill="#555" stroke="#555" stroke-width="2" opacity="1.00" d="M 264.893 339.775 C 274.123 337.285 283.043 342.295 291.283 345.835 C 291.753 347.285 289.863 347.875 289.213 348.915 C 284.073 354.695 276.563 359.445 268.523 358.265 C 265.223 357.055 261.203 357.885 258.593 355.115 C 255.793 352.645 253.473 348.035 255.953 344.595 C 258.853 342.865 261.573 340.625 264.893 339.775 Z"/>
  <path fill="#555" stroke="#555" stroke-width="2" opacity="1.00" d="M 368.093 345.375 C 374.333 342.635 380.633 339.515 387.583 339.255 C 393.693 338.815 400.223 340.825 404.353 345.465 C 404.143 350.395 401.263 355.275 396.503 357.025 C 389.593 359.485 381.783 357.845 375.623 354.165 C 372.593 351.825 368.863 349.305 368.093 345.375 Z"/>
  <path fill="#ffff00" stroke="#ffff00" stroke-width="2" opacity="1.00" d="M 162.303 356.615 C 167.843 356.735 173.373 357.075 178.913 357.225 C 185.103 378.095 191.053 399.015 196.813 420.005 C 194.253 422.185 190.583 422.705 187.583 424.205 C 183.273 419.325 179.613 413.925 176.683 408.115 C 168.823 391.975 165.873 374.065 162.303 356.615 Z"/>
  <path fill="#555" stroke="#555" stroke-width="2" opacity="1.00" d="M 308.583 406.395 C 322.183 406.175 336.563 403.885 349.383 409.695 C 349.383 409.955 349.393 410.485 349.403 410.745 C 340.343 413.025 330.843 415.315 321.523 413.145 C 316.703 412.115 312.153 409.815 308.583 406.395 Z"/>
  <path fill="#555" stroke="#555" stroke-width="2" opacity="1.00" d="M 197.593 420.415 C 199.423 420.645 198.543 423.615 198.193 424.865 C 197.003 424.205 196.903 421.595 197.593 420.415 Z"/>
  <path fill="#555" stroke="#555" stroke-width="2" opacity="1.00" d="M 283.243 463.925 C 290.503 460.385 298.663 459.775 306.573 459.045 C 321.563 458.815 336.543 458.865 351.533 459.025 C 359.653 459.575 367.893 460.435 375.463 463.655 C 372.283 465.295 368.153 465.415 364.603 466.405 C 347.983 468.315 331.213 467.455 314.523 467.565 C 303.983 467.775 293.423 466.725 283.243 463.925 Z"/>
  <path fill="#555" stroke="#555" stroke-width="2" opacity="1.00" d="M 313.333 482.135 C 325.383 482.365 337.483 482.415 349.413 484.345 C 346.253 487.405 341.413 488.675 337.123 489.635 C 329.633 490.795 322.003 490.625 314.453 490.625 C 314.063 487.795 313.663 484.975 313.333 482.135 Z"/>
</svg>