<?xml version="1.0" encoding="UTF-8"?>
<svg id="unhealthy-air-quality" width="1024pt" height="1024pt" viewBox="0 0 650 650" version="1.1" xmlns="http://www.w3.org/2000/svg">
  <path fill="#ff0000" stroke="#ff0000" stroke-width="5" opacity="1.00" d="M 303.023 8.993 C 349.903 5.933 397.483 13.243 441.123 30.683 C 515.803 60.023 578.303 118.983 611.753 191.933 C 645.123 263.373 649.693 347.603 624.553 422.303 C 607.123 474.953 575.213 522.623 533.553 559.183 C 494.063 593.983 445.783 618.773 394.413 630.293 C 317.923 647.853 234.993 635.933 166.883 596.823 C 100.763 559.523 48.853 497.613 24.213 425.763 C 7.893 378.993 3.173 328.313 10.073 279.293 C 16.463 233.443 33.323 189.123 58.903 150.553 C 78.103 121.503 102.133 95.633 129.743 74.393 C 179.253 35.943 240.463 12.863 303.023 8.993 M 251.533 117.223 C 232.073 121.183 213.863 130.603 199.063 143.803 C 174.963 165.113 160.223 195.183 152.533 226.023 C 149.973 243.353 151.333 261.003 153.923 278.243 C 154.813 285.863 156.613 293.353 157.213 301.023 C 158.493 315.503 161.273 329.793 163.343 344.173 C 159.383 347.803 154.563 350.533 151.213 354.783 C 148.013 358.843 148.963 364.313 149.213 369.093 C 150.783 383.533 156.013 397.213 160.913 410.783 C 163.203 417.553 165.983 424.453 171.333 429.433 C 177.603 435.933 186.163 439.283 194.603 441.953 C 202.633 458.533 211.333 474.823 221.513 490.203 C 232.373 506.593 245.393 521.483 259.663 534.993 C 270.073 544.623 282.533 552.893 296.843 554.963 C 316.423 557.973 337.293 558.373 355.823 550.433 C 365.003 546.653 372.503 540.003 379.763 533.413 C 407.303 507.973 427.503 475.663 443.373 441.953 C 448.383 440.103 453.613 438.693 458.193 435.863 C 465.503 431.613 471.683 425.123 474.623 417.103 C 478.023 408.133 481.243 399.083 484.223 389.963 C 486.953 379.943 489.873 369.623 488.743 359.143 C 486.923 352.013 479.513 348.843 474.633 344.073 C 478.263 320.603 482.493 297.043 481.893 273.193 C 481.913 256.623 479.053 240.163 474.443 224.283 C 470.303 207.713 465.613 190.893 456.383 176.343 C 453.423 171.423 448.713 167.953 445.593 163.153 C 434.143 148.663 418.373 138.153 401.763 130.433 C 401.673 129.983 401.483 129.073 401.393 128.623 C 399.743 129.023 398.063 128.983 396.533 128.233 C 381.453 121.783 365.393 117.993 349.243 115.433 C 316.803 111.073 283.833 112.403 251.533 117.223 Z"/>
  <path fill="#555" stroke="#555" stroke-width="5" opacity="1.00" d="M 251.533 117.223 C 283.833 112.403 316.803 111.073 349.243 115.433 C 365.393 117.993 381.453 121.783 396.533 128.233 C 398.063 128.983 399.743 129.023 401.393 128.623 C 401.483 129.073 401.673 129.983 401.763 130.433 C 418.373 138.153 434.143 148.663 445.593 163.153 C 448.713 167.953 453.423 171.423 456.383 176.343 C 465.613 190.893 470.303 207.713 474.443 224.283 C 479.053 240.163 481.913 256.623 481.893 273.193 C 482.493 297.043 478.263 320.603 474.633 344.073 C 479.513 348.843 486.923 352.013 488.743 359.143 C 489.873 369.623 486.953 379.943 484.223 389.963 C 481.243 399.083 478.023 408.133 474.623 417.103 C 471.683 425.123 465.503 431.613 458.193 435.863 C 453.613 438.693 448.383 440.103 443.373 441.953 C 427.503 475.663 407.303 507.973 379.763 533.413 C 372.503 540.003 365.003 546.653 355.823 550.433 C 337.293 558.373 316.423 557.973 296.843 554.963 C 282.533 552.893 270.073 544.623 259.663 534.993 C 245.393 521.483 232.373 506.593 221.513 490.203 C 211.333 474.823 202.633 458.533 194.603 441.953 C 186.163 439.283 177.603 435.933 171.333 429.433 C 165.983 424.453 163.203 417.553 160.913 410.783 C 156.013 397.213 150.783 383.533 149.213 369.093 C 148.963 364.313 148.013 358.843 151.213 354.783 C 154.563 350.533 159.383 347.803 163.343 344.173 C 161.273 329.793 158.493 315.503 157.213 301.023 C 156.613 293.353 154.813 285.863 153.923 278.243 C 151.333 261.003 149.973 243.353 152.533 226.023 C 160.223 195.183 174.963 165.113 199.063 143.803 C 213.863 130.603 232.073 121.183 251.533 117.223 M 210.493 227.813 C 209.643 236.653 207.483 245.283 205.263 253.863 C 202.683 263.083 200.683 272.503 196.983 281.373 C 191.973 295.273 189.443 309.983 188.343 324.693 C 186.223 350.823 187.293 377.173 191.053 403.083 C 194.163 413.243 198.593 422.943 202.463 432.833 C 226.413 425.023 246.353 409.083 267.823 396.463 C 279.353 389.893 291.393 383.763 304.533 381.243 C 320.323 377.783 336.923 380.633 351.623 386.953 C 380.983 399.633 404.823 422.833 435.473 432.833 C 439.953 421.133 444.593 409.493 449.013 397.773 C 450.073 394.313 451.903 390.883 451.553 387.163 C 450.183 371.103 447.083 355.203 446.453 339.083 C 444.833 331.173 441.663 323.673 439.673 315.853 C 436.823 303.603 428.173 293.793 419.093 285.553 C 407.183 275.473 392.933 267.933 377.733 264.283 C 386.883 276.813 400.213 285.363 412.413 294.623 C 407.233 295.133 402.103 294.133 397.133 292.743 C 383.463 288.773 370.623 282.393 358.103 275.693 C 340.363 266.113 323.273 255.383 306.533 244.163 C 304.793 242.763 302.523 243.073 300.463 243.073 C 305.193 249.653 311.183 255.173 317.093 260.663 C 331.263 273.173 346.433 284.493 361.863 295.403 C 347.333 296.653 333.163 291.893 319.723 286.943 C 297.583 278.413 276.493 267.413 255.883 255.723 C 240.503 246.833 225.263 237.673 210.493 227.813 M 164.053 355.223 C 162.073 361.963 160.363 369.023 161.323 376.083 C 162.393 382.283 164.683 388.183 166.503 394.183 C 169.683 404.133 173.133 414.523 180.533 422.213 C 183.243 425.173 186.693 427.283 190.143 429.283 C 181.953 404.423 174.343 379.323 164.053 355.223 M 447.743 429.243 C 454.513 424.973 461.633 420.023 464.783 412.353 C 468.583 402.043 472.753 391.833 475.543 381.193 C 477.663 372.583 477.343 363.353 473.863 355.143 C 463.073 379.063 455.713 404.293 447.743 429.243 M 290.893 394.553 C 261.713 408.423 236.703 430.043 206.293 441.473 C 223.603 476.883 245.893 511.023 277.543 535.253 C 303.003 551.233 338.133 550.963 362.823 533.523 C 393.043 509.153 414.813 476.033 431.633 441.423 C 404.793 431.363 382.083 413.373 357.133 399.693 C 349.933 395.973 342.743 392.013 334.823 390.083 C 320.253 386.333 304.393 387.923 290.893 394.553 Z"/>
  <path fill="#ff0000" stroke="#ff0000" stroke-width="5" opacity="1.00" d="M 210.493 227.813 C 225.263 237.673 240.503 246.833 255.883 255.723 C 276.493 267.413 297.583 278.413 319.723 286.943 C 333.163 291.893 347.333 296.653 361.863 295.403 C 346.433 284.493 331.263 273.173 317.093 260.663 C 311.183 255.173 305.193 249.653 300.463 243.073 C 302.523 243.073 304.793 242.763 306.533 244.163 C 323.273 255.383 340.363 266.113 358.103 275.693 C 370.623 282.393 383.463 288.773 397.133 292.743 C 402.103 294.133 407.233 295.133 412.413 294.623 C 400.213 285.363 386.883 276.813 377.733 264.283 C 392.933 267.933 407.183 275.473 419.093 285.553 C 428.173 293.793 436.823 303.603 439.673 315.853 C 441.663 323.673 444.833 331.173 446.453 339.083 C 447.083 355.203 450.183 371.103 451.553 387.163 C 451.903 390.883 450.073 394.313 449.013 397.773 C 444.593 409.493 439.953 421.133 435.473 432.833 C 404.823 422.833 380.983 399.633 351.623 386.953 C 336.923 380.633 320.323 377.783 304.533 381.243 C 291.393 383.763 279.353 389.893 267.823 396.463 C 246.353 409.083 226.413 425.023 202.463 432.833 C 198.593 422.943 194.163 413.243 191.053 403.083 C 187.293 377.173 186.223 350.823 188.343 324.693 C 189.443 309.983 191.973 295.273 196.983 281.373 C 200.683 272.503 202.683 263.083 205.263 253.863 C 207.483 245.283 209.643 236.653 210.493 227.813 M 233.533 320.473 C 250.363 328.833 269.573 325.373 287.613 325.633 C 287.743 323.333 287.883 321.033 288.033 318.743 C 269.853 318.703 251.603 318.003 233.533 320.473 M 350.343 318.793 C 350.293 321.093 350.253 323.393 350.213 325.703 C 368.443 325.833 386.793 326.603 404.863 323.573 C 387.623 316.153 368.533 319.023 350.343 318.793 M 248.953 347.643 C 246.223 350.563 247.123 355.233 249.623 357.993 C 254.273 360.823 260.043 361.503 265.363 360.633 C 272.443 359.443 278.533 355.003 283.023 349.553 C 276.613 346.913 270.403 343.363 263.453 342.393 C 258.243 342.193 252.573 343.723 248.953 347.643 M 355.533 348.993 C 360.833 358.343 373.133 363.653 383.243 359.113 C 388.493 357.083 391.873 352.203 393.523 347.013 C 381.483 341.523 366.833 341.793 355.533 348.993 Z"/>
  <path fill="#555" stroke="#555" stroke-width="5" opacity="1.00" d="M 233.533 320.473 C 251.603 318.003 269.853 318.703 288.033 318.743 C 287.883 321.033 287.743 323.333 287.613 325.633 C 269.573 325.373 250.363 328.833 233.533 320.473 Z"/>
  <path fill="#555" stroke="#555" stroke-width="5" opacity="1.00" d="M 350.343 318.793 C 368.533 319.023 387.623 316.153 404.863 323.573 C 386.793 326.603 368.443 325.833 350.213 325.703 C 350.253 323.393 350.293 321.093 350.343 318.793 Z"/>
  <path fill="#555" stroke="#555" stroke-width="5" opacity="1.00" d="M 248.953 347.643 C 252.573 343.723 258.243 342.193 263.453 342.393 C 270.403 343.363 276.613 346.913 283.023 349.553 C 278.533 355.003 272.443 359.443 265.363 360.633 C 260.043 361.503 254.273 360.823 249.623 357.993 C 247.123 355.233 246.223 350.563 248.953 347.643 Z"/>
  <path fill="#555" stroke="#555" stroke-width="5" opacity="1.00" d="M 355.533 348.993 C 366.833 341.793 381.483 341.523 393.523 347.013 C 391.873 352.203 388.493 357.083 383.243 359.113 C 373.133 363.653 360.833 358.343 355.533 348.993 Z"/>
  <path fill="#ff0000" stroke="#ff0000" stroke-width="5" opacity="1.00" d="M 164.053 355.223 C 174.343 379.323 181.953 404.423 190.143 429.283 C 186.693 427.283 183.243 425.173 180.533 422.213 C 173.133 414.523 169.683 404.133 166.503 394.183 C 164.683 388.183 162.393 382.283 161.323 376.083 C 160.363 369.023 162.073 361.963 164.053 355.223 Z"/>
  <path fill="#ff0000" stroke="#ff0000" stroke-width="5" opacity="1.00" d="M 447.743 429.243 C 455.713 404.293 463.073 379.063 473.863 355.143 C 477.343 363.353 477.663 372.583 475.543 381.193 C 472.753 391.833 468.583 402.043 464.783 412.353 C 461.633 420.023 454.513 424.973 447.743 429.243 Z"/>
  <path fill="#ff0000" stroke="#ff0000" stroke-width="5" opacity="1.00" d="M 290.893 394.553 C 304.393 387.923 320.253 386.333 334.823 390.083 C 342.743 392.013 349.933 395.973 357.133 399.693 C 382.083 413.373 404.793 431.363 431.633 441.423 C 414.813 476.033 393.043 509.153 362.823 533.523 C 338.133 550.963 303.003 551.233 277.543 535.253 C 245.893 511.023 223.603 476.883 206.293 441.473 C 236.703 430.043 261.713 408.423 290.893 394.553 M 273.033 447.823 C 283.293 453.293 295.283 452.943 306.573 452.953 C 326.123 452.673 345.903 453.823 365.173 449.763 C 359.523 445.593 352.593 443.473 345.603 443.333 C 330.583 443.123 315.543 443.663 300.523 443.193 C 291.183 442.983 281.623 443.913 273.033 447.823 M 280.833 464.783 C 278.863 467.923 276.873 471.053 274.893 474.193 C 304.223 476.393 333.693 476.403 363.023 474.153 C 361.023 471.013 359.023 467.883 356.993 464.773 C 331.613 464.803 306.223 464.773 280.833 464.783 M 271.573 491.723 C 301.863 490.923 332.173 491.793 362.463 490.773 C 354.723 488.243 346.573 487.443 338.473 487.243 C 327.503 487.183 316.523 487.013 305.543 487.083 C 294.113 487.183 282.413 487.713 271.573 491.723 M 280.083 493.493 C 280.033 495.003 279.993 496.523 279.963 498.043 C 307.443 496.733 335.473 501.683 362.463 494.403 C 335.013 493.183 307.533 494.363 280.083 493.493 Z"/>
  <path fill="#555" stroke="#555" stroke-width="5" opacity="1.00" d="M 273.033 447.823 C 281.623 443.913 291.183 442.983 300.523 443.193 C 315.543 443.663 330.583 443.123 345.603 443.333 C 352.593 443.473 359.523 445.593 365.173 449.763 C 345.903 453.823 326.123 452.673 306.573 452.953 C 295.283 452.943 283.293 453.293 273.033 447.823 Z"/>
  <path fill="#555" stroke="#555" stroke-width="5" opacity="1.00" d="M 280.833 464.783 C 306.223 464.773 331.613 464.803 356.993 464.773 C 359.023 467.883 361.023 471.013 363.023 474.153 C 333.693 476.403 304.223 476.393 274.893 474.193 C 276.873 471.053 278.863 467.923 280.833 464.783 Z"/>
  <path fill="#555" stroke="#555" stroke-width="5" opacity="1.00" d="M 271.573 491.723 C 282.413 487.713 294.113 487.183 305.543 487.083 C 316.523 487.013 327.503 487.183 338.473 487.243 C 346.573 487.443 354.723 488.243 362.463 490.773 C 332.173 491.793 301.863 490.923 271.573 491.723 Z"/>
  <path fill="#555" stroke="#555" stroke-width="5" opacity="1.00" d="M 280.083 493.493 C 307.533 494.363 335.013 493.183 362.463 494.403 C 335.473 501.683 307.443 496.733 279.963 498.043 C 279.993 496.523 280.033 495.003 280.083 493.493 Z"/>
</svg>