<?xml version="1.0" encoding="UTF-8"?>
<svg id="unhealthy-quality" width="1024pt" height="1024pt" viewBox="0 0 650 650" version="1.1" xmlns="http://www.w3.org/2000/svg">
  <path fill="#ff7e00" stroke="#ff7e00" stroke-width="2" opacity="1.00" d="M 316.007 10.138 C 365.027 8.368 414.467 18.068 459.067 38.548 C 527.987 69.788 584.957 126.638 615.997 195.688 C 648.837 267.368 652.787 351.658 627.067 426.158 C 609.427 478.148 577.627 525.168 536.297 561.258 C 494.117 598.318 441.897 623.838 386.707 634.208 C 347.267 641.698 306.427 641.658 266.997 634.138 C 227.337 626.568 189.137 611.328 155.237 589.408 C 91.907 548.938 43.757 485.178 22.867 412.928 C 9.577 367.808 6.837 319.678 14.507 273.288 C 22.177 226.838 40.597 182.208 67.887 143.848 C 105.807 90.048 160.967 48.618 223.237 27.278 C 253.057 16.948 284.457 11.178 316.007 10.138 M 255.587 118.688 C 224.477 124.618 197.317 144.868 180.077 171.088 C 168.797 188.048 161.007 207.168 155.977 226.868 C 153.627 240.738 154.337 254.918 155.677 268.868 C 157.787 285.748 160.497 302.648 165.477 318.958 C 168.377 327.558 171.397 336.118 173.957 344.828 C 170.237 347.618 166.507 350.398 162.767 353.138 C 163.757 371.798 169.497 389.818 176.717 406.928 C 178.677 412.158 181.347 417.278 185.567 421.048 C 191.317 426.668 199.077 429.348 206.767 431.078 C 220.607 458.998 237.387 485.888 259.667 507.888 C 269.417 517.388 279.667 527.128 292.637 531.998 C 310.907 538.938 331.087 538.488 350.027 534.928 C 361.767 533.168 371.887 526.298 380.857 518.908 C 408.707 495.088 429.427 464.048 445.367 431.298 C 452.687 429.408 460.147 427.018 465.887 421.868 C 470.687 417.958 473.577 412.328 475.707 406.628 C 482.027 391.298 487.707 375.428 489.347 358.838 C 488.787 350.678 480.767 346.408 475.227 341.608 C 476.447 333.658 477.377 325.668 478.877 317.768 C 481.317 306.898 483.257 295.858 483.427 284.688 C 483.907 256.938 479.977 229.018 471.117 202.678 C 466.737 190.428 461.587 177.848 451.917 168.768 C 444.337 158.048 434.357 149.218 423.387 142.098 C 394.167 123.378 359.097 115.848 324.787 114.718 C 301.647 113.508 278.497 115.558 255.587 118.688 Z"/>
  <path fill="#555" stroke="#555" stroke-width="2" opacity="1.00" d="M 255.587 118.688 C 278.497 115.558 301.647 113.508 324.787 114.718 C 359.097 115.848 394.167 123.378 423.387 142.098 C 434.357 149.218 444.337 158.048 451.917 168.768 C 461.587 177.848 466.737 190.428 471.117 202.678 C 479.977 229.018 483.907 256.938 483.427 284.688 C 483.257 295.858 481.317 306.898 478.877 317.768 C 477.377 325.668 476.447 333.658 475.227 341.608 C 480.767 346.408 488.787 350.678 489.347 358.838 C 487.707 375.428 482.027 391.298 475.707 406.628 C 473.577 412.328 470.687 417.958 465.887 421.868 C 460.147 427.018 452.687 429.408 445.367 431.298 C 429.427 464.048 408.707 495.088 380.857 518.908 C 371.887 526.298 361.767 533.168 350.027 534.928 C 331.087 538.488 310.907 538.938 292.637 531.998 C 279.667 527.128 269.417 517.388 259.667 507.888 C 237.387 485.888 220.607 458.998 206.767 431.078 C 199.077 429.348 191.317 426.668 185.567 421.048 C 181.347 417.278 178.677 412.158 176.717 406.928 C 169.497 389.818 163.757 371.798 162.767 353.138 C 166.507 350.398 170.237 347.618 173.957 344.828 C 171.397 336.118 168.377 327.558 165.477 318.958 C 160.497 302.648 157.787 285.748 155.677 268.868 C 154.337 254.918 153.627 240.738 155.977 226.868 C 161.007 207.168 168.797 188.048 180.077 171.088 C 197.317 144.868 224.477 124.618 255.587 118.688 M 213.767 229.428 C 212.917 238.278 210.747 246.918 208.537 255.508 C 205.977 264.718 203.937 274.118 200.267 282.968 C 191.987 305.938 190.597 330.668 190.637 354.878 C 190.187 364.538 191.397 374.148 191.827 383.788 C 193.027 393.998 194.377 404.228 194.217 414.538 C 188.537 395.428 183.287 376.178 177.687 357.038 C 176.237 357.148 174.787 357.288 173.337 357.418 C 177.017 378.618 182.937 400.058 195.787 417.688 C 199.167 415.808 202.307 413.478 205.837 411.888 C 209.217 411.298 210.897 414.948 212.197 417.398 C 219.497 432.458 226.687 447.648 235.977 461.618 C 247.227 479.218 260.827 495.288 276.347 509.268 C 288.657 521.228 305.857 527.158 322.817 527.628 C 337.567 528.238 352.557 524.818 365.357 517.388 C 399.227 492.628 422.317 456.188 439.537 418.528 C 440.837 415.858 442.077 411.808 445.777 412.088 C 449.927 412.568 453.307 415.388 456.617 417.708 C 469.367 400.028 475.387 378.618 478.967 357.388 C 475.457 357.248 471.947 357.128 468.447 357.048 C 464.537 373.278 460.837 389.558 457.067 405.818 C 454.517 384.878 451.837 363.908 449.487 342.978 C 444.507 331.258 441.297 318.928 437.587 306.788 C 435.817 300.178 430.587 295.388 426.057 290.588 C 413.577 278.618 397.787 269.978 380.987 265.928 C 390.167 278.428 403.487 286.898 415.597 296.258 C 409.847 296.828 404.217 295.438 398.727 293.908 C 382.877 288.868 368.047 281.118 353.577 273.008 C 335.267 262.778 317.817 251.108 300.337 239.538 C 305.417 248.368 312.937 255.398 320.347 262.258 C 334.507 274.778 349.687 286.088 365.117 297.008 C 350.907 298.278 337.017 293.648 323.847 288.878 C 300.297 279.878 277.927 268.108 256.097 255.578 C 241.777 247.198 227.547 238.658 213.767 229.428 Z"/>
  <path fill="#ff7e00" stroke="#ff7e00" stroke-width="2" opacity="1.00" d="M 213.767 229.428 C 227.547 238.658 241.777 247.198 256.097 255.578 C 277.927 268.108 300.297 279.878 323.847 288.878 C 337.017 293.648 350.907 298.278 365.117 297.008 C 349.687 286.088 334.507 274.778 320.347 262.258 C 312.937 255.398 305.417 248.368 300.337 239.538 C 317.817 251.108 335.267 262.778 353.577 273.008 C 368.047 281.118 382.877 288.868 398.727 293.908 C 404.217 295.438 409.847 296.828 415.597 296.258 C 403.487 286.898 390.167 278.428 380.987 265.928 C 397.787 269.978 413.577 278.618 426.057 290.588 C 430.587 295.388 435.817 300.178 437.587 306.788 C 441.297 318.928 444.507 331.258 449.487 342.978 C 451.837 363.908 454.517 384.878 457.067 405.818 C 460.837 389.558 464.537 373.278 468.447 357.048 C 471.947 357.128 475.457 357.248 478.967 357.388 C 475.387 378.618 469.367 400.028 456.617 417.708 C 453.307 415.388 449.927 412.568 445.777 412.088 C 442.077 411.808 440.837 415.858 439.537 418.528 C 422.317 456.188 399.227 492.628 365.357 517.388 C 352.557 524.818 337.567 528.238 322.817 527.628 C 305.857 527.158 288.657 521.228 276.347 509.268 C 260.827 495.288 247.227 479.218 235.977 461.618 C 226.687 447.648 219.497 432.458 212.197 417.398 C 210.897 414.948 209.217 411.298 205.837 411.888 C 202.307 413.478 199.167 415.808 195.787 417.688 C 182.937 400.058 177.017 378.618 173.337 357.418 C 174.787 357.288 176.237 357.148 177.687 357.038 C 183.287 376.178 188.537 395.428 194.217 414.538 C 194.377 404.228 193.027 393.998 191.827 383.788 C 191.397 374.148 190.187 364.538 190.637 354.878 C 190.597 330.668 191.987 305.938 200.267 282.968 C 203.937 274.118 205.977 264.718 208.537 255.508 C 210.747 246.918 212.917 238.278 213.767 229.428 M 353.377 306.828 C 353.787 312.018 356.257 316.998 360.497 320.108 C 367.557 325.448 376.287 327.918 384.707 330.218 C 393.307 332.498 403.637 332.038 410.137 325.228 C 390.197 323.228 370.427 317.548 353.377 306.828 M 242.157 325.388 C 249.517 332.278 260.507 332.448 269.707 329.828 C 278.177 327.268 286.757 324.288 293.927 318.958 C 297.427 316.398 298.407 311.868 297.447 307.808 C 280.747 318.018 261.497 323.288 242.157 325.388 M 360.847 346.958 C 364.727 352.768 370.837 357.288 377.867 358.218 C 383.897 359.168 390.097 356.548 394.327 352.328 C 397.347 346.888 391.447 341.228 386.317 340.188 C 377.197 336.748 368.547 342.818 360.847 346.958 M 258.357 345.288 C 255.937 347.838 257.647 351.728 259.807 353.838 C 263.557 358.018 269.587 358.578 274.857 358.458 C 281.887 357.678 287.117 352.278 291.877 347.538 C 285.827 343.598 279.337 339.448 271.857 339.378 C 266.697 339.188 262.147 342.108 258.357 345.288 M 306.407 404.408 C 318.897 409.698 333.187 409.168 345.737 404.368 C 333.757 397.708 318.307 397.458 306.407 404.408 M 296.117 451.248 C 289.937 454.298 285.107 459.638 282.497 465.998 C 290.487 463.408 298.177 460.058 305.927 456.878 C 315.207 453.068 325.637 451.878 335.427 454.328 C 345.637 457.148 355.007 462.238 365.047 465.538 C 363.967 460.968 361.677 456.588 357.737 453.868 C 349.627 448.028 339.347 446.728 329.717 445.308 C 318.327 445.238 306.437 445.938 296.117 451.248 M 314.597 468.138 C 313.317 470.968 311.987 473.778 310.647 476.578 C 321.977 476.488 333.407 476.588 344.547 474.188 C 336.007 467.768 324.747 468.198 314.597 468.138 Z"/>
  <path fill="#555" stroke="#555" stroke-width="2" opacity="1.00" d="M 353.377 306.828 C 370.427 317.548 390.197 323.228 410.137 325.228 C 403.637 332.038 393.307 332.498 384.707 330.218 C 376.287 327.918 367.557 325.448 360.497 320.108 C 356.257 316.998 353.787 312.018 353.377 306.828 Z"/>
  <path fill="#555" stroke="#555" stroke-width="2" opacity="1.00" d="M 242.157 325.388 C 261.497 323.288 280.747 318.018 297.447 307.808 C 298.407 311.868 297.427 316.398 293.927 318.958 C 286.757 324.288 278.177 327.268 269.707 329.828 C 260.507 332.448 249.517 332.278 242.157 325.388 Z"/>
  <path fill="#555" stroke="#555" stroke-width="2" opacity="1.00" d="M 360.847 346.958 C 368.547 342.818 377.197 336.748 386.317 340.188 C 391.447 341.228 397.347 346.888 394.327 352.328 C 390.097 356.548 383.897 359.168 377.867 358.218 C 370.837 357.288 364.727 352.768 360.847 346.958 Z"/>
  <path fill="#555" stroke="#555" stroke-width="2" opacity="1.00" d="M 258.357 345.288 C 262.147 342.108 266.697 339.188 271.857 339.378 C 279.337 339.448 285.827 343.598 291.877 347.538 C 287.117 352.278 281.887 357.678 274.857 358.458 C 269.587 358.578 263.557 358.018 259.807 353.838 C 257.647 351.728 255.937 347.838 258.357 345.288 Z"/>
  <path fill="#555" stroke="#555" stroke-width="2" opacity="1.00" d="M 306.407 404.408 C 318.307 397.458 333.757 397.708 345.737 404.368 C 333.187 409.168 318.897 409.698 306.407 404.408 Z"/>
  <path fill="#555" stroke="#555" stroke-width="2" opacity="1.00" d="M 296.117 451.248 C 306.437 445.938 318.327 445.238 329.717 445.308 C 339.347 446.728 349.627 448.028 357.737 453.868 C 361.677 456.588 363.967 460.968 365.047 465.538 C 355.007 462.238 345.637 457.148 335.427 454.328 C 325.637 451.878 315.207 453.068 305.927 456.878 C 298.177 460.058 290.487 463.408 282.497 465.998 C 285.107 459.638 289.937 454.298 296.117 451.248 Z"/>
  <path fill="#555" stroke="#555" stroke-width="2" opacity="1.00" d="M 314.597 468.138 C 324.747 468.198 336.007 467.768 344.547 474.188 C 333.407 476.588 321.977 476.488 310.647 476.578 C 311.987 473.778 313.317 470.968 314.597 468.138 Z"/>
</svg>