<?xml version="1.0" encoding="UTF-8"?>
<svg id="very-unhealthy-air-quality" width="1024pt" height="1024pt" viewBox="0 0 650 650" version="1.1" xmlns="http://www.w3.org/2000/svg">
  <path fill="#8f3f97" stroke="#8f3f97" stroke-width="5" opacity="1.00" d="M 300.083 11.549 C 347.253 8.309 395.173 15.619 439.103 33.159 C 514.263 62.689 577.103 122.209 610.383 195.809 C 643.173 266.889 647.513 350.449 622.613 424.629 C 606.063 474.649 576.483 520.209 537.843 555.989 C 497.623 593.389 447.513 620.139 393.953 632.419 C 317.053 650.489 233.473 638.689 164.913 599.319 C 98.763 562.009 46.833 500.079 22.193 428.189 C 6.673 383.679 1.643 335.599 7.173 288.809 C 13.093 237.599 32.123 188.019 61.783 145.879 C 82.163 116.789 107.493 91.169 136.343 70.459 C 183.983 36.019 241.423 15.349 300.083 11.549 M 249.023 119.819 C 217.703 126.189 190.603 147.069 173.613 173.779 C 162.863 190.519 155.313 209.219 150.543 228.499 C 147.973 245.849 149.343 263.519 151.933 280.779 C 153.663 294.469 156.893 307.909 160.213 321.289 C 160.563 329.609 162.703 337.709 163.933 345.919 C 160.273 346.809 156.623 347.719 152.973 348.629 C 151.123 352.809 149.393 357.129 149.183 361.759 C 148.183 373.589 153.473 384.539 156.943 395.529 C 160.213 404.479 162.293 414.209 168.503 421.739 C 174.643 429.729 184.133 434.769 194.123 435.819 C 195.883 439.569 197.633 443.309 199.393 447.059 C 189.283 452.009 178.803 456.389 169.703 463.129 C 167.823 472.959 174.333 481.389 178.453 489.709 C 189.523 510.279 200.563 530.869 211.643 551.439 C 213.813 555.219 215.863 559.159 218.823 562.399 C 221.183 565.019 225.113 565.869 228.393 564.599 C 245.273 558.149 261.143 549.289 276.383 539.629 C 300.873 547.699 327.633 547.929 352.523 541.469 C 354.323 541.039 356.253 540.469 358.063 541.239 C 364.713 543.359 370.823 546.829 376.793 550.389 C 388.273 557.189 400.373 564.749 414.233 564.369 C 420.103 556.959 424.893 548.789 429.073 540.319 C 433.413 531.689 438.233 523.299 442.653 514.709 C 450.453 500.119 459.193 485.919 465.153 470.449 C 465.973 465.309 462.283 460.629 458.153 458.049 C 450.973 453.669 442.633 451.669 435.423 447.329 C 437.173 443.499 438.943 439.689 440.743 435.889 C 448.463 433.639 457.183 432.189 462.933 426.069 C 473.333 413.899 477.103 397.929 482.043 383.089 C 483.723 377.379 486.513 371.779 486.153 365.679 C 486.163 359.759 484.203 354.089 482.083 348.629 C 478.383 347.709 474.673 346.789 470.973 345.879 C 472.823 334.399 475.513 322.969 475.993 311.339 C 479.283 290.599 479.173 269.359 476.173 248.589 C 473.573 229.899 469.403 211.289 462.133 193.819 C 458.673 185.849 454.793 177.779 448.493 171.629 C 445.623 168.809 443.573 165.289 440.883 162.309 C 430.373 150.439 417.063 141.329 402.883 134.399 C 383.013 124.839 361.333 119.429 339.483 116.979 C 309.373 113.789 278.913 115.269 249.023 119.819 Z"/>
  <path fill="#555" stroke="#555" stroke-width="5" opacity="1.00" d="M 249.023 119.819 C 278.913 115.269 309.373 113.789 339.483 116.979 C 361.333 119.429 383.013 124.839 402.883 134.399 C 417.063 141.329 430.373 150.439 440.883 162.309 C 443.573 165.289 445.623 168.809 448.493 171.629 C 454.793 177.779 458.673 185.849 462.133 193.819 C 469.403 211.289 473.573 229.899 476.173 248.589 C 479.173 269.359 479.283 290.599 475.993 311.339 C 470.223 326.619 467.053 342.729 463.063 358.529 C 459.103 374.529 455.583 390.639 451.763 406.669 C 449.353 384.999 446.003 363.419 444.293 341.689 C 443.703 338.669 442.523 335.829 441.513 332.949 C 439.073 326.289 437.333 319.399 435.233 312.639 C 432.863 304.199 426.733 297.569 420.773 291.449 C 408.273 279.429 392.443 270.879 375.633 266.719 C 384.893 279.259 398.223 287.859 410.463 297.189 C 400.983 297.729 391.843 294.519 383.163 291.099 C 359.233 281.269 337.073 267.719 315.363 253.789 C 310.383 250.849 305.823 245.919 299.473 247.059 C 309.493 259.269 321.893 269.189 334.203 278.969 C 342.573 285.549 351.253 291.719 359.893 297.939 C 341.113 299.189 323.253 291.719 306.223 284.759 C 272.003 269.809 239.763 250.689 208.503 230.339 C 206.573 246.459 201.813 262.079 197.313 277.629 C 192.083 290.439 188.913 303.999 187.213 317.719 C 185.143 337.949 184.553 358.389 186.193 378.669 C 186.893 391.129 189.253 403.469 188.993 415.989 C 183.523 396.949 178.313 377.839 172.613 358.869 C 168.733 346.269 165.513 333.389 160.213 321.289 C 156.893 307.909 153.663 294.469 151.933 280.779 C 149.343 263.519 147.973 245.849 150.543 228.499 C 155.313 209.219 162.863 190.519 173.613 173.779 C 190.603 147.069 217.703 126.189 249.023 119.819 Z"/>
  <path fill="#8f3f97" stroke="#8f3f97" stroke-width="5" opacity="1.00" d="M 208.503 230.339 C 239.763 250.689 272.003 269.809 306.223 284.759 C 323.253 291.719 341.113 299.189 359.893 297.939 C 351.253 291.719 342.573 285.549 334.203 278.969 C 321.893 269.189 309.493 259.269 299.473 247.059 C 305.823 245.919 310.383 250.849 315.363 253.789 C 337.073 267.719 359.233 281.269 383.163 291.099 C 391.843 294.519 400.983 297.729 410.463 297.189 C 398.223 287.859 384.893 279.259 375.633 266.719 C 392.443 270.879 408.273 279.429 420.773 291.449 C 426.733 297.569 432.863 304.199 435.233 312.639 C 437.333 319.399 439.073 326.289 441.513 332.949 C 442.523 335.829 443.703 338.669 444.293 341.689 C 446.003 363.419 449.353 384.999 451.763 406.669 C 455.583 390.639 459.103 374.529 463.063 358.529 C 467.343 358.489 471.633 358.459 475.913 358.459 C 473.013 381.029 466.753 403.889 452.703 422.219 C 448.333 420.059 443.963 417.889 439.603 415.729 C 434.833 424.119 430.433 432.709 426.253 441.419 C 417.003 441.799 407.783 442.559 398.593 443.699 C 389.763 431.309 381.043 418.759 370.313 407.899 C 359.843 397.019 347.773 387.579 334.253 380.789 C 324.943 376.319 313.743 375.419 304.073 379.269 C 286.643 386.819 271.753 399.259 259.273 413.429 C 250.723 422.889 243.483 433.399 235.953 443.669 C 226.903 442.629 217.843 441.769 208.743 441.339 C 204.473 432.629 199.973 424.029 195.153 415.609 C 190.833 417.799 186.523 420.009 182.213 422.209 C 168.103 403.889 162.193 380.929 158.693 358.469 C 163.333 358.579 167.973 358.719 172.613 358.869 C 178.313 377.839 183.523 396.949 188.993 415.989 C 189.253 403.469 186.893 391.129 186.193 378.669 C 184.553 358.389 185.143 337.949 187.213 317.719 C 188.913 303.999 192.083 290.439 197.313 277.629 C 201.813 262.079 206.573 246.459 208.503 230.339 M 234.203 320.169 C 237.943 323.989 243.113 326.109 248.453 326.229 C 258.123 326.549 267.843 326.839 277.503 326.039 C 282.443 325.689 287.103 323.639 290.893 320.499 C 272.053 318.679 253.063 318.749 234.203 320.169 M 344.613 320.389 C 348.133 323.749 352.733 325.879 357.623 326.139 C 366.903 326.779 376.213 326.499 385.513 326.289 C 391.133 326.319 396.773 324.369 400.593 320.129 C 381.963 318.769 363.223 318.729 344.613 320.389 M 247.853 347.059 C 245.843 349.249 245.823 352.989 248.113 354.999 C 256.863 362.969 272.733 361.829 279.123 351.399 C 274.653 338.879 255.993 337.739 247.853 347.059 M 360.933 344.029 C 356.753 346.619 355.923 353.219 359.693 356.499 C 368.973 362.419 383.073 361.259 389.633 351.779 C 388.003 346.079 382.853 342.119 377.073 341.309 C 371.633 340.429 365.683 341.089 360.933 344.029 Z"/>
  <path fill="#555" stroke="#555" stroke-width="5" opacity="1.00" d="M 463.063 358.529 C 467.053 342.729 470.223 326.619 475.993 311.339 C 475.513 322.969 472.823 334.399 470.973 345.879 C 474.673 346.789 478.383 347.709 482.083 348.629 C 484.203 354.089 486.163 359.759 486.153 365.679 C 486.513 371.779 483.723 377.379 482.043 383.089 C 477.103 397.929 473.333 413.899 462.933 426.069 C 457.183 432.189 448.463 433.639 440.743 435.889 C 438.943 439.689 437.173 443.499 435.423 447.329 C 442.633 451.669 450.973 453.669 458.153 458.049 C 462.283 460.629 465.973 465.309 465.153 470.449 C 459.193 485.919 450.453 500.119 442.653 514.709 C 438.233 523.299 433.413 531.689 429.073 540.319 C 424.893 548.789 420.103 556.959 414.233 564.369 C 400.373 564.749 388.273 557.189 376.793 550.389 C 370.823 546.829 364.713 543.359 358.063 541.239 C 356.253 540.469 354.323 541.039 352.523 541.469 C 327.633 547.929 300.873 547.699 276.383 539.629 C 261.143 549.289 245.273 558.149 228.393 564.599 C 225.113 565.869 221.183 565.019 218.823 562.399 C 215.863 559.159 213.813 555.219 211.643 551.439 C 200.563 530.869 189.523 510.279 178.453 489.709 C 174.333 481.389 167.823 472.959 169.703 463.129 C 178.803 456.389 189.283 452.009 199.393 447.059 C 197.633 443.309 195.883 439.569 194.123 435.819 C 184.133 434.769 174.643 429.729 168.503 421.739 C 162.293 414.209 160.213 404.479 156.943 395.529 C 153.473 384.539 148.183 373.589 149.183 361.759 C 149.393 357.129 151.123 352.809 152.973 348.629 C 156.623 347.719 160.273 346.809 163.933 345.919 C 162.703 337.709 160.563 329.609 160.213 321.289 C 165.513 333.389 168.733 346.269 172.613 358.869 C 167.973 358.719 163.333 358.579 158.693 358.469 C 162.193 380.929 168.103 403.889 182.213 422.209 C 186.523 420.009 190.833 417.799 195.153 415.609 C 199.973 424.029 204.473 432.629 208.743 441.339 C 217.843 441.769 226.903 442.629 235.953 443.669 C 243.483 433.399 250.723 422.889 259.273 413.429 C 271.753 399.259 286.643 386.819 304.073 379.269 C 313.743 375.419 324.943 376.319 334.253 380.789 C 347.773 387.579 359.843 397.019 370.313 407.899 C 381.043 418.759 389.763 431.309 398.593 443.699 C 407.783 442.559 417.003 441.799 426.253 441.419 C 430.433 432.709 434.833 424.119 439.603 415.729 C 443.963 417.889 448.333 420.059 452.703 422.219 C 466.753 403.889 473.013 381.029 475.913 358.459 C 471.633 358.459 467.343 358.489 463.063 358.529 M 298.463 390.529 C 274.033 405.129 255.543 427.709 240.823 451.699 C 246.073 461.639 251.233 471.639 256.883 481.359 C 265.553 496.429 273.713 511.979 278.303 528.839 C 302.823 540.149 332.173 540.199 356.663 528.779 C 361.093 511.329 369.763 495.399 378.683 479.889 C 384.033 470.719 388.843 461.249 393.793 451.869 C 381.893 430.849 365.293 412.809 346.773 397.449 C 337.943 390.769 327.983 384.119 316.503 383.959 C 309.833 383.639 303.933 387.169 298.463 390.529 M 196.013 458.459 C 211.563 488.339 226.933 518.329 244.073 547.339 C 249.953 544.159 256.043 541.339 261.793 537.919 C 266.833 534.869 271.103 529.249 270.133 523.079 C 266.983 515.199 263.033 507.649 259.043 500.159 C 251.843 486.749 244.923 473.189 237.323 459.999 C 234.463 454.879 230.193 450.549 224.793 448.149 C 214.573 449.559 205.363 454.389 196.013 458.459 M 405.723 449.769 C 397.523 456.799 393.213 467.059 388.213 476.369 C 380.673 491.429 371.533 505.709 365.253 521.379 C 362.693 527.749 366.873 534.619 372.303 537.949 C 378.343 541.619 384.843 544.479 391.163 547.659 C 398.893 533.579 406.643 519.519 414.383 505.449 C 422.673 489.769 430.753 473.979 438.943 458.249 C 433.303 455.989 427.823 453.379 422.253 450.969 C 417.103 448.969 410.993 447.499 405.723 449.769 M 444.903 462.209 C 429.983 492.229 411.743 520.599 399.013 551.689 C 402.663 553.099 406.323 554.489 410.003 555.859 C 425.213 526.849 440.563 497.899 456.023 469.019 C 452.323 466.739 448.623 464.459 444.903 462.209 M 178.223 466.099 C 191.563 496.969 209.003 525.779 224.683 555.469 C 228.933 554.359 233.173 553.249 237.423 552.139 C 222.553 522.089 206.343 492.739 190.843 463.009 C 186.633 464.029 182.423 465.059 178.223 466.099 Z"/>
  <path fill="#555" stroke="#555" stroke-width="5" opacity="1.00" d="M 234.203 320.169 C 253.063 318.749 272.053 318.679 290.893 320.499 C 287.103 323.639 282.443 325.689 277.503 326.039 C 267.843 326.839 258.123 326.549 248.453 326.229 C 243.113 326.109 237.943 323.989 234.203 320.169 Z"/>
  <path fill="#555" stroke="#555" stroke-width="5" opacity="1.00" d="M 344.613 320.389 C 363.223 318.729 381.963 318.769 400.593 320.129 C 396.773 324.369 391.133 326.319 385.513 326.289 C 376.213 326.499 366.903 326.779 357.623 326.139 C 352.733 325.879 348.133 323.749 344.613 320.389 Z"/>
  <path fill="#555" stroke="#555" stroke-width="5" opacity="1.00" d="M 247.853 347.059 C 255.993 337.739 274.653 338.879 279.123 351.399 C 272.733 361.829 256.863 362.969 248.113 354.999 C 245.823 352.989 245.843 349.249 247.853 347.059 Z"/>
  <path fill="#555" stroke="#555" stroke-width="5" opacity="1.00" d="M 360.933 344.029 C 365.683 341.089 371.633 340.429 377.073 341.309 C 382.853 342.119 388.003 346.079 389.633 351.779 C 383.073 361.259 368.973 362.419 359.693 356.499 C 355.923 353.219 356.753 346.619 360.933 344.029 Z"/>
  <path fill="#8f3f97" stroke="#8f3f97" stroke-width="5" opacity="1.00" d="M 298.463 390.529 C 303.933 387.169 309.833 383.639 316.503 383.959 C 327.983 384.119 337.943 390.769 346.773 397.449 C 365.293 412.809 381.893 430.849 393.793 451.869 C 388.843 461.249 384.033 470.719 378.683 479.889 C 369.763 495.399 361.093 511.329 356.663 528.779 C 332.173 540.199 302.823 540.149 278.303 528.839 C 273.713 511.979 265.553 496.429 256.883 481.359 C 251.233 471.639 246.073 461.639 240.823 451.699 C 255.543 427.709 274.033 405.129 298.463 390.529 M 310.003 430.329 C 295.753 433.049 282.913 442.809 276.953 456.099 C 273.643 463.299 273.063 471.489 273.963 479.279 C 277.963 503.119 304.253 520.699 327.793 514.839 C 340.503 511.489 351.913 502.939 358.153 491.299 C 363.253 481.889 363.353 470.549 360.783 460.379 C 354.493 439.599 331.083 426.479 310.003 430.329 Z"/>
  <path fill="#555" stroke="#555" stroke-width="5" opacity="1.00" d="M 310.003 430.329 C 331.083 426.479 354.493 439.599 360.783 460.379 C 363.353 470.549 363.253 481.889 358.153 491.299 C 351.913 502.939 340.503 511.489 327.793 514.839 C 304.253 520.699 277.963 503.119 273.963 479.279 C 273.063 471.489 273.643 463.299 276.953 456.099 C 282.913 442.809 295.753 433.049 310.003 430.329 M 312.873 452.229 C 307.023 454.129 300.883 457.529 298.453 463.509 C 296.103 469.269 296.403 475.869 298.443 481.679 C 300.213 486.889 304.903 490.749 310.113 492.249 C 318.233 494.889 327.833 493.169 334.083 487.219 C 338.033 483.119 339.353 477.169 339.703 471.679 C 339.173 458.859 325.063 449.339 312.873 452.229 Z"/>
  <path fill="#8f3f97" stroke="#8f3f97" stroke-width="5" opacity="1.00" d="M 196.013 458.459 C 205.363 454.389 214.573 449.559 224.793 448.149 C 230.193 450.549 234.463 454.879 237.323 459.999 C 244.923 473.189 251.843 486.749 259.043 500.159 C 263.033 507.649 266.983 515.199 270.133 523.079 C 271.103 529.249 266.833 534.869 261.793 537.919 C 256.043 541.339 249.953 544.159 244.073 547.339 C 226.933 518.329 211.563 488.339 196.013 458.459 Z"/>
  <path fill="#8f3f97" stroke="#8f3f97" stroke-width="5" opacity="1.00" d="M 405.723 449.769 C 410.993 447.499 417.103 448.969 422.253 450.969 C 427.823 453.379 433.303 455.989 438.943 458.249 C 430.753 473.979 422.673 489.769 414.383 505.449 C 406.643 519.519 398.893 533.579 391.163 547.659 C 384.843 544.479 378.343 541.619 372.303 537.949 C 366.873 534.619 362.693 527.749 365.253 521.379 C 371.533 505.709 380.673 491.429 388.213 476.369 C 393.213 467.059 397.523 456.799 405.723 449.769 Z"/>
  <path fill="#8f3f97" stroke="#8f3f97" stroke-width="5" opacity="1.00" d="M 312.873 452.229 C 325.063 449.339 339.173 458.859 339.703 471.679 C 339.353 477.169 338.033 483.119 334.083 487.219 C 327.833 493.169 318.233 494.889 310.113 492.249 C 304.903 490.749 300.213 486.889 298.443 481.679 C 296.403 475.869 296.103 469.269 298.453 463.509 C 300.883 457.529 307.023 454.129 312.873 452.229 Z"/>
  <path fill="#8f3f97" stroke="#8f3f97" stroke-width="5" opacity="1.00" d="M 444.903 462.209 C 448.623 464.459 452.323 466.739 456.023 469.019 C 440.563 497.899 425.213 526.849 410.003 555.859 C 406.323 554.489 402.663 553.099 399.013 551.689 C 411.743 520.599 429.983 492.229 444.903 462.209 Z"/>
  <path fill="#8f3f97" stroke="#8f3f97" stroke-width="5" opacity="1.00" d="M 178.223 466.099 C 182.423 465.059 186.633 464.029 190.843 463.009 C 206.343 492.739 222.553 522.089 237.423 552.139 C 233.173 553.249 228.933 554.359 224.683 555.469 C 209.003 525.779 191.563 496.969 178.223 466.099 Z"/>
</svg>