<svg width="10" height="10" xmlns="http://www.w3.org/2000/svg">
   <path
      d="M4.895 9.79H0V0h9.79v9.79zm0-.392h4.63V.392H.265v9.006zm-.156-.783c-.268 0-.602-.318-.742-.707-.157-.431-.162-.926-.014-1.272.133-.312.244-1.756.246-3.21.004-2.38.057-2.643.534-2.643.475 0 .529.261.529 2.55 0 1.404.141 2.887.314 3.297.247.586.24.88-.032 1.366-.19.34-.566.619-.835.619zm.024-6.266c.145 0 .264-.264.264-.587 0-.323-.119-.587-.264-.587-.146 0-.265.264-.265.587 0 .323.119.587.265.587z" />
   <path
      d="M.28 4.873V.397H9.5V9.35H.28zm5.078 3.421c.208-.216.339-.425.399-.64.093-.332.088-.367-.162-1.244-.141-.495-.228-1.565-.293-3.608-.034-1.081-.082-1.757-.132-1.85-.161-.298-.667-.278-.815.033-.06.125-.104.78-.142 2.151-.06 2.115-.13 2.954-.298 3.612-.123.48-.087.887.117 1.316.182.382.41.551.746.551.236 0 .31-.041.58-.32z"
      fill="#b3b3b3" />
   <path d="M4.668 2.214c-.218-.242-.09-1.134.143-.99.125.077.204.486.145.748-.074.328-.15.393-.288.242z"
      fill="#b3b3b3" />
</svg>