<svg width="10" height="10" xmlns="http://www.w3.org/2000/svg">
   <path
      d="M4.895 9.79H0V0h9.79v9.79zm0-.392h4.63V.392H.265v9.006zm-.15-.392c-.264 0-.535-.132-.6-.293-.067-.162-.057-1.924.02-3.916.125-3.196.2-3.622.634-3.622.43 0 .493.325.493 2.57 0 1.415.127 2.924.283 3.354.206.57.197.936-.033 1.345-.173.31-.532.562-.796.562zm.018-3.524c.145 0 .264-.88.264-1.958 0-1.077-.119-1.958-.264-1.958-.146 0-.265.881-.265 1.958s.119 1.958.265 1.958z" />
   <path
      d="M.28 4.873V.397H9.5V9.35H.28zM5.266 8.8c.289-.253.49-.656.492-.986 0-.129-.059-.444-.132-.7-.164-.573-.257-1.685-.325-3.91-.056-1.816-.085-1.97-.39-2.047-.361-.09-.516.156-.617.979-.102.843-.204 3.369-.205 5.089v1.515l.176.139c.281.22.697.189 1.001-.079z"
      opacity=".19" fill="teal" />
   <path
      d="M.29 4.877V.436h9.166v8.882H.29zM5.031 8.97c.209-.087.58-.52.668-.78.098-.288.091-.449-.046-1.042-.157-.682-.244-1.662-.306-3.428-.054-1.538-.11-2.214-.199-2.41-.065-.143-.323-.228-.494-.163-.375.143-.515 1.49-.569 5.478-.027 2.022-.024 2.106.061 2.182a.834.834 0 00.885.163z"
      fill="#b3b3b3" />
   <path
      d="M4.713 5.397c-.1-.276-.135-.633-.157-1.612-.024-1.092.02-1.766.134-2.064.046-.12.053-.122.112-.042.248.339.248 3.365 0 3.703-.054.072-.068.075-.09.015z"
      fill="#b3b3b3" />
</svg>