<svg width="10" height="10" xmlns="http://www.w3.org/2000/svg">
   <path
      d="M0 4.895V0h9.79v9.79H0zm9.525 0V.392H.265v2.18c0 2.075.028 2.168.595 1.925.327-.14.933-.61 1.346-1.042l.75-.787.646.898c.86 1.196 2.253 1.198 3.112.004.548-.763.676-.807.867-.302.124.326.582.869 1.018 1.205.444.343.605.614.366.615-.235.002-.74-.363-1.124-.809l-.697-.812-.697.812c-.868 1.01-1.578 1.024-2.655.053-.828-.748-.85-.748-1.842.001-.552.417-1.157.758-1.344.758-.237 0-.341.657-.341 2.153v2.154h9.26zM7.844 6.632c-.641-.747-.74-.762-1.285-.196-.81.838-2.38.774-3.156-.129-.625-.728-.648-.728-1.255 0-.34.408-.874.738-1.185.733-.392-.006-.22-.242.558-.764.619-.416 1.125-.956 1.125-1.201 0-.245.366.01.814.568 1.07 1.333 2.24 1.332 3.18-.002.674-.955.727-.97.878-.265.089.414.547 1.036 1.018 1.383.472.347.665.642.43.656-.236.014-.74-.339-1.122-.783z" />
   <path
      d="M.299 7.53c.02-1.002.07-1.93.11-2.062.062-.208.137-.273.556-.483.266-.133.782-.453 1.145-.711.363-.258.73-.47.813-.47.084 0 .283.105.442.234 1.161.938 1.39 1.06 1.906 1.02.462-.037.767-.248 1.37-.95l.488-.565.226.247c.744.817.899.967 1.186 1.15.359.227.478.248.537.095.028-.074-.15-.291-.589-.719-.42-.407-.696-.741-.828-.998-.27-.526-.393-.506-.933.152-.533.65-.912.888-1.468.923-.729.047-1.172-.232-1.848-1.163-.225-.309-.425-.562-.445-.562-.02 0-.354.31-.744.687C1.198 4.351.657 4.678.425 4.445.327 4.348.31 4.092.289 2.365L.265.397h9.236V9.35H.26zm8.799-.201c-.003-.115-.168-.295-.606-.664-.468-.394-.822-.912-.963-1.407-.146-.513-.267-.507-.674.033-.5.662-.837.99-1.196 1.16-.71.337-1.235.133-2.174-.847-.35-.365-.683-.664-.739-.664-.055 0-.136.099-.18.22-.1.275-.458.627-1.203 1.183-.637.475-.792.737-.436.734.35-.003.77-.26 1.257-.77.262-.274.52-.498.575-.498.053 0 .289.193.523.43.582.587 1.05.797 1.775.798.649 0 1.094-.177 1.626-.65.193-.171.399-.31.459-.31s.342.239.627.531c.285.293.619.594.741.668.248.152.591.182.588.053z"
      fill="#b3b3b3" />
</svg>