<svg xmlns="http://www.w3.org/2000/svg" height="600" width="600" data-name="Calque 1">
   <path fill="#005892" d="M0 0h600v600H0z" />
   <rect x="220.481" y="111.57" width="159.038" height="159.038" rx="12.759" ry="12.759" fill="#fff" />
   <path fill="#005891" d="M334.557 134.05l17.013 17.697-24.152 6.152z" />
   <path
      d="M357.95 191.089a57.646 57.646 0 00-10.178-32.81l-5.164 1.974a56.05 56.05 0 0110.253 30.836 53.165 53.165 0 01-45.57 52.329 210.152 210.152 0 01-1.747-104.81 55.443 55.443 0 0119.747 6l1.291-4.861a57.57 57.57 0 00-19.747-6.152 150.684 150.684 0 018.127-22.025h-7.595a164.05 164.05 0 00-7.595 21.645 57.95 57.95 0 000 115.823h1.975c1.975 7.063 4.253 14.278 7.063 21.646h7.063c-2.886-7.595-5.392-15.19-7.595-22.254a57.95 57.95 0 0049.671-57.341z"
      fill="#005891" />
   <path d="M298.633 130.405h-7.063" fill="#fff" />
   <g fill="#fff">
      <path
         d="M123.418 315.342h22.025l14.582 44.126 14.05-44.126h22.102l7.975 76.48H182.05l-3.266-38.278-11.317 38.279h-15.873l-11.317-38.279-4.48 38.279H114zM268.405 372.608h-34.709v-10.254h26.279V346.33H233.24v-11.544h35.164v-19.443h-56.278v76.48h56.278zM403.975 372.608H369.19v-10.254h26.278V346.33h-26.734v-11.544h35.24v-19.443H347.62v76.48h56.355zM297.038 391.823h21.19v-57.038h18.76v-19.443h-59.165v19.443h19.215zM448.101 314.658a37.975 37.975 0 1037.975 37.975 37.975 37.975 0 00-37.975-37.975zm0 57.494a19.443 19.443 0 1119.443-19.443 19.443 19.443 0 01-19.443 19.443zM134.962 464.127h23.696v-14.81h-23.696v-14.963h30.684v-18.607H114v72.607h20.962zM213.57 458.81s10.936-1.215 10.936-21.19a19.519 19.519 0 00-18.835-21.873h-34.86v72.607h17.695V461.62h6.532l11.165 26.734h20.886zm-11.848-11.544h-13.52v-17.469h13.52a9.494 9.494 0 010 17.469zM274.025 415.747h-16.253l-27.418 72.607h20.735l5.392-13.519h19.975l4.557 13.52h19.822zm-15.19 45.114l6.988-19.52 6.987 19.52zM321.494 449.316l26.05 39.038h16.785v-72.607h-18.911v42.456l-24.152-42.456h-18.38v72.607h18.608zM418.253 465.038a18.38 18.38 0 11-.987-26.43l11.848-13.292a36.076 36.076 0 100 53.773zM486 470.127h-33.038v-9.722h24.987V445.14h-25.443v-10.936H486V415.67h-53.544v72.76H486z" />
   </g>
</svg>