<?xml version="1.0" encoding="utf-8"?>
<svg enable-background="new 0 0 64 64" viewBox="0 0 64 64" xmlns="http://www.w3.org/2000/svg">
  <ellipse style="stroke-width: 0px; stroke: rgb(0, 0, 0); fill:#3d3c3c;" cx="32" cy="32" rx="30" ry="30"/>
  <g transform="matrix(0.109429, 0, 0, 0.095795, 3.683853, 5.87504)" style="">
    <polygon style="fill:#FFDA44;" points="225.584 244.867 174.304 380.884 268.543 380.884 209.837 509.421 367.316 333.616 271.782 333.616 303.985 244.867"/>
    <polygon style="fill:#CCA400;" points="304.519 244.867 226.118 244.867 207.482 294.3 286.581 294.3"/>
    <path style="fill:#B8D6FD;" d="M 459.559 266.555 C 488.522 266.555 512.001 243.077 512.001 214.113 C 512.001 185.149 488.523 161.671 459.559 161.671 C 450.829 161.671 442.605 163.816 435.364 167.589 C 428.157 153.316 416.099 141.917 401.341 135.574 C 401.341 135.443 401.351 135.316 401.351 135.185 C 401.351 62.632 342.535 3.817 269.982 3.817 C 209.899 3.817 159.273 44.169 143.634 99.239 C 109.041 105.309 81.724 132.452 75.398 166.956 C 68.464 163.574 60.675 161.671 52.44 161.671 C 23.479 161.672 0 185.15 0 214.114 C 0 243.078 23.479 266.556 52.442 266.556 L 459.559 266.556 L 459.559 266.555 Z"/>
    <path style="opacity:0.41;fill:#6AB3EA;enable-background:new    ;" d="M 458.404 160.434 C 449.674 160.434 441.45 162.579 434.209 166.352 C 427.002 152.079 414.944 140.68 400.186 134.337 C 400.186 134.206 400.196 134.079 400.196 133.948 C 400.196 61.395 341.38 2.58 268.827 2.58 C 257.171 2.58 245.875 4.105 235.117 6.955 C 291.333 21.84 332.772 73.052 332.772 133.95 C 332.772 134.081 332.763 134.208 332.762 134.339 C 347.519 140.681 359.578 152.081 366.785 166.354 C 374.026 162.58 382.25 160.436 390.98 160.436 C 419.943 160.436 443.422 183.914 443.422 212.878 C 443.422 241.841 419.944 265.32 390.98 265.32 L 458.404 265.32 C 487.367 265.32 510.846 241.841 510.846 212.878 C 510.846 183.912 487.367 160.434 458.404 160.434 Z"/>
    <g style="opacity:0.41;">
      <path style="fill:#6AB3EA;" d="M258.252,34.812c0,3.364-2.216,6.456-5.612,7.421c-40.109,11.389-68.121,48.482-68.121,90.201 c0,4.264-3.455,7.718-7.718,7.718s-7.718-3.455-7.718-7.718c0-48.587,32.626-91.785,79.341-105.052 c4.1-1.165,8.369,1.216,9.534,5.316C258.157,33.404,258.252,34.114,258.252,34.812z"/>
    </g>
  </g>
</svg>