<svg xmlns="http://www.w3.org/2000/svg" viewBox="0 0 169.18 36.997" height="139.83" width="639.422"><path d="M70.658 31.467h-2.855c.01.426.142.751.394.978.253.226.579.34.98.34.437 0 .82-.068 1.147-.203l.13.529c-.387.173-.846.26-1.374.26-.613 0-1.1-.182-1.465-.545-.363-.363-.544-.847-.544-1.448 0-.603.174-1.107.523-1.513.349-.407.816-.61 1.404-.61.543 0 .959.18 1.249.542.29.362.435.806.435 1.329 0 .149-.008.263-.024.34zm-2.847-.545h2.14c0-.339-.087-.612-.263-.82-.174-.207-.424-.31-.746-.31-.307 0-.56.103-.761.31-.201.208-.324.481-.37.82zm3.782 2.36v-2.856c0-.436-.01-.797-.032-1.082h.658l.058.643c.292-.488.72-.732 1.285-.732.26 0 .492.07.694.211.202.141.355.336.46.586.323-.531.773-.797 1.351-.797.39 0 .712.148.964.443.252.296.378.728.378 1.298v2.285h-.74v-2.195c0-.392-.075-.691-.225-.9-.15-.209-.366-.313-.645-.313a.89.89 0 00-.644.278.957.957 0 00-.284.714v2.416h-.74v-2.326c0-.334-.075-.598-.224-.792a.73.73 0 00-.614-.29c-.252 0-.474.106-.668.317a1.06 1.06 0 00-.292.74v2.351zm7.004 1.61v-4.254c0-.529-.01-.96-.033-1.294h.676l.04.684h.016c.328-.516.817-.773 1.464-.773.494 0 .905.185 1.232.558.329.373.493.852.493 1.435 0 .648-.176 1.163-.53 1.546a1.73 1.73 0 01-1.325.577 1.66 1.66 0 01-.737-.163 1.23 1.23 0 01-.523-.464h-.017v2.147h-.756zm.756-3.872v.634c0 .318.112.584.332.799.222.215.487.324.8.324.379 0 .68-.136.902-.406.222-.269.333-.633.333-1.09 0-.413-.11-.753-.33-1.022a1.074 1.074 0 00-.873-.402 1.11 1.11 0 00-.643.2 1.067 1.067 0 00-.407.492 1.37 1.37 0 00-.114.471zm7.769.252c0 .423-.089.793-.265 1.11a1.811 1.811 0 01-.74.732c-.317.171-.66.257-1.029.257-.575 0-1.049-.189-1.424-.564-.374-.376-.56-.863-.56-1.462 0-.637.193-1.145.58-1.523.386-.38.873-.567 1.461-.567.586 0 1.062.187 1.428.562.366.376.549.861.549 1.455zm-3.246.049c0 .43.115.786.346 1.067.23.28.52.421.866.421.355 0 .652-.14.89-.423.237-.281.355-.645.355-1.09 0-.41-.109-.759-.327-1.047-.218-.29-.516-.433-.894-.433-.382 0-.683.142-.904.428-.22.286-.332.645-.332 1.077zm3.644-1.976h.773c.515 1.908.792 2.987.83 3.237h.016c.03-.212.366-1.291 1.008-3.237h.643c.583 1.824.909 2.903.976 3.237h.017c.075-.407.17-.806.284-1.196l.594-2.041h.748l-1.301 3.936h-.7c-.447-1.377-.699-2.16-.756-2.35a10.208 10.208 0 01-.195-.797h-.017c-.09.409-.207.826-.353 1.252l-.656 1.895h-.699l-1.212-3.936zm9.843 2.122h-2.856c.011.426.143.751.395.978.252.226.579.34.98.34.437 0 .82-.068 1.147-.203l.13.529c-.388.173-.846.26-1.374.26-.613 0-1.101-.181-1.465-.545-.363-.363-.544-.846-.544-1.448 0-.603.174-1.107.523-1.513.348-.407.816-.61 1.404-.61.543 0 .959.18 1.249.542.29.362.435.806.435 1.329 0 .149-.008.263-.024.34zm-2.847-.545h2.14c0-.339-.088-.612-.263-.82-.174-.207-.424-.31-.747-.31-.306 0-.56.103-.76.31-.201.208-.324.481-.37.82zm3.782 2.36v-2.685c0-.51-.011-.927-.032-1.252h.667l.048.789c.1-.277.254-.493.46-.648a1.097 1.097 0 01.874-.215v.716a1.235 1.235 0 00-.26-.025.924.924 0 00-.705.322c-.197.214-.295.519-.295.915v2.082h-.757zm3.522 0h-.756v-3.937h.756zm.106-5.134c0 .136-.045.25-.134.342a.47.47 0 01-.354.139.46.46 0 01-.346-.139.472.472 0 01-.134-.342c0-.132.046-.245.137-.336a.473.473 0 01.351-.136.465.465 0 01.48.472zm1.107 5.133v-2.855c0-.436-.012-.797-.033-1.081h.667l.065.667c.124-.229.308-.412.549-.55a1.57 1.57 0 01.793-.207c.412 0 .755.145 1.03.436.273.292.41.719.41 1.28v2.31h-.757v-2.229c0-.371-.08-.66-.24-.865-.16-.204-.392-.306-.695-.306-.271 0-.511.102-.72.305a.997.997 0 00-.313.744v2.351zm8.167-2.871v2.285c0 .858-.187 1.454-.558 1.79-.371.336-.877.504-1.517.504-.57 0-1.028-.114-1.375-.34l.188-.579c.35.217.75.325 1.203.325.42 0 .744-.116.97-.35.227-.232.34-.574.34-1.023l-.016-.432c-.286.45-.719.675-1.302.675-.496 0-.908-.184-1.238-.552-.33-.367-.494-.823-.494-1.368 0-.631.181-1.139.544-1.52.361-.38.792-.57 1.294-.57.596 0 1.027.227 1.294.683l.032-.593h.667c-.022.235-.032.59-.032 1.065zm-.757 1.155v-.643c0-.293-.099-.546-.297-.76-.198-.214-.457-.322-.777-.322a1.08 1.08 0 00-.866.403c-.225.269-.338.622-.338 1.061 0 .404.109.735.324.995.215.258.506.388.872.388.29 0 .543-.104.759-.312.215-.209.323-.48.323-.81zm3.904-2.953l.74-.22v.953h1.05v.577h-1.05v2.05c0 .273.045.47.134.59.088.121.227.182.42.182.176 0 .32-.016.43-.048l.033.569c-.187.07-.412.106-.675.106-.72 0-1.082-.45-1.082-1.35v-2.1h-.618v-.576h.618zm2.628 4.67V27.49h.756v2.48h.017c.132-.222.318-.397.555-.524.237-.127.48-.191.73-.191.406 0 .745.145 1.016.436.272.292.408.719.408 1.28v2.31h-.757v-2.229c0-.371-.08-.66-.24-.865-.16-.204-.392-.306-.696-.306-.257 0-.493.096-.709.29a.964.964 0 00-.324.751v2.36zm7.955-1.815h-2.855c.01.426.143.751.395.978.252.226.578.34.98.34.436 0 .819-.068 1.146-.203l.13.529c-.387.173-.845.26-1.374.26-.613 0-1.1-.181-1.464-.545-.364-.363-.545-.846-.545-1.448 0-.603.174-1.107.523-1.513.349-.407.816-.61 1.405-.61.542 0 .958.18 1.248.542.29.362.435.806.435 1.329 0 .149-.008.263-.024.34zm-2.847-.545h2.14c0-.339-.087-.612-.262-.82-.175-.207-.424-.31-.747-.31-.307 0-.56.103-.76.31-.202.208-.324.481-.371.82zm5.28 2.172l.178-.578c.32.196.65.293.992.293.244 0 .433-.051.566-.154a.498.498 0 00.199-.415.535.535 0 00-.164-.405c-.11-.105-.302-.202-.576-.295-.722-.246-1.082-.618-1.082-1.114 0-.33.128-.609.385-.834.256-.225.596-.337 1.022-.337.397 0 .732.081 1.009.244l-.187.545a1.68 1.68 0 00-.846-.236c-.201 0-.36.049-.476.147a.48.48 0 00-.175.381c0 .14.05.255.149.35.099.095.304.198.615.31.38.135.653.295.818.48.165.186.248.42.248.7 0 .357-.135.646-.408.865-.272.22-.644.33-1.113.33-.43 0-.816-.092-1.155-.277zm3.618.187v-2.855c0-.436-.01-.797-.032-1.081h.659l.057.642c.292-.488.721-.732 1.285-.732.26 0 .493.07.694.211.202.141.356.336.461.586.323-.531.772-.797 1.35-.797.39 0 .713.148.964.443.253.296.378.728.378 1.298v2.285h-.739v-2.195c0-.392-.075-.691-.225-.9-.15-.209-.367-.313-.646-.313a.888.888 0 00-.643.278.957.957 0 00-.284.714v2.416h-.74v-2.326c0-.334-.075-.598-.224-.792a.73.73 0 00-.614-.29c-.253 0-.475.106-.668.317a1.058 1.058 0 00-.292.74v2.351zm9.883-2.383v1.44c0 .39.023.705.066.943h-.692l-.089-.504c-.296.396-.71.594-1.244.594-.375 0-.674-.111-.9-.332a1.078 1.078 0 01-.337-.799c0-.477.207-.842.622-1.094.416-.252 1.022-.378 1.818-.378v-.074c0-.279-.076-.497-.229-.653-.153-.155-.38-.233-.682-.233-.4 0-.759.1-1.073.301l-.171-.496c.38-.239.832-.358 1.359-.358.511 0 .9.14 1.161.423.261.281.391.688.391 1.22zm-.74 1.04v-.65c-.634 0-1.074.077-1.322.228-.246.152-.37.36-.37.627 0 .209.063.37.186.488a.676.676 0 00.49.178c.287 0 .528-.09.724-.266.195-.179.293-.379.293-.604zm1.92 1.343v-2.684c0-.51-.01-.927-.032-1.252h.667l.048.789c.1-.277.254-.493.46-.648a1.098 1.098 0 01.875-.215v.716a1.247 1.247 0 00-.26-.025.925.925 0 00-.706.322c-.196.214-.295.519-.295.915v2.082h-.757zm3.116-4.669l.74-.22v.953h1.05v.577h-1.05v2.05c0 .273.045.47.133.59.088.121.228.182.42.182.176 0 .32-.016.43-.048l.034.569c-.188.07-.412.106-.675.106-.722 0-1.082-.45-1.082-1.35v-2.1h-.619v-.576h.619zm4.4 4.67V27.49h.758v2.48h.015a1.41 1.41 0 01.556-.524 1.53 1.53 0 01.73-.191c.406 0 .745.145 1.016.436.272.292.407.719.407 1.28v2.31h-.756v-2.229c0-.371-.08-.66-.24-.865-.16-.204-.392-.306-.696-.306a1.04 1.04 0 00-.71.29.966.966 0 00-.322.751v2.36zm8.387-2.01c0 .423-.088.793-.265 1.11a1.811 1.811 0 01-.74.732c-.318.171-.66.257-1.028.257-.576 0-1.05-.189-1.425-.564-.374-.376-.56-.863-.56-1.462 0-.637.193-1.145.58-1.523.386-.379.873-.567 1.461-.567.586 0 1.062.187 1.427.562.367.376.55.861.55 1.455zm-3.246.049c0 .43.115.786.346 1.067.23.28.52.421.867.421.355 0 .651-.14.889-.423.237-.281.355-.645.355-1.09 0-.41-.11-.759-.327-1.047-.218-.29-.516-.433-.893-.433-.383 0-.683.142-.905.428-.22.286-.332.645-.332 1.077zm4.165 1.96v-2.855c0-.436-.011-.797-.032-1.081h.658l.058.642c.292-.488.72-.732 1.284-.732.261 0 .493.07.694.211.203.141.356.336.462.586.322-.531.772-.797 1.35-.797.39 0 .712.148.964.443.252.296.378.728.378 1.298v2.285h-.74v-2.195c0-.392-.075-.691-.225-.9-.151-.209-.366-.313-.646-.313a.891.891 0 00-.644.278.958.958 0 00-.282.714v2.416h-.741v-2.326c0-.334-.075-.598-.224-.792a.731.731 0 00-.614-.29c-.252 0-.474.106-.668.317a1.06 1.06 0 00-.292.74v2.351zm10.29-1.814H166.3c.01.426.142.751.394.978.253.226.58.34.98.34.436 0 .82-.068 1.147-.203l.13.529c-.387.173-.845.26-1.374.26-.613 0-1.1-.181-1.464-.545-.363-.363-.545-.846-.545-1.448 0-.603.175-1.107.523-1.513.349-.407.817-.61 1.404-.61.543 0 .959.18 1.249.542.29.362.435.806.435 1.329 0 .149-.008.263-.025.34zm-2.847-.545h2.139c0-.339-.087-.612-.262-.82-.175-.207-.424-.31-.747-.31-.306 0-.56.103-.76.31-.2.208-.324.481-.37.82z" clip-rule="evenodd" fill="#989898" fill-rule="evenodd"/><g clip-rule="evenodd" fill-rule="evenodd"><path d="M1.914 26.411L16.39 11.925l2.108-2.108 2.108 2.108L31.292 22.61l-.016.054-.21.621-.24.606-.269.592-.296.577-.269.467-11.494-11.494L3.452 29.09c-.579-.853-1.117-1.732-1.538-2.679z" fill="#e64a19"/><path d="M18.498 0c10.19 0 18.498 8.31 18.498 18.498 0 10.189-8.309 18.499-18.498 18.499-5.565 0-10.569-2.482-13.964-6.393l.653-.656.475-.475.475-.475.476-.476.02-.02c2.852 3.379 7.114 5.531 11.865 5.531 8.557 0 15.535-6.978 15.535-15.535S27.055 2.963 18.498 2.963 2.963 9.941 2.963 18.498c0 1.153.128 2.276.368 3.358l-1.03 1.033-1.376 1.377A18.378 18.378 0 010 18.498C0 8.31 8.31 0 18.498 0z" fill="#474747"/></g><path d="M156.694 16.156v6.789h4.443l.264-.002.255-.005.244-.008.234-.012.225-.015.215-.018.206-.021.195-.025.186-.027.175-.03.166-.034.155-.036.145-.038.133-.04.125-.044.11-.043.223-.104.21-.116.197-.127.187-.14.173-.152.163-.166.152-.179.142-.193.13-.204.11-.205.093-.21.076-.213.06-.217.042-.223.024-.228.01-.233-.013-.288-.035-.276-.06-.265-.082-.255-.106-.248-.13-.24-.156-.232-.18-.225-.2-.211-.22-.195-.24-.178-.258-.161-.28-.145-.3-.129-.322-.111-.346-.094-.117-.026-.134-.025-.146-.024-.16-.022-.174-.021-.185-.019-.198-.017-.21-.016-.225-.013-.235-.012-.247-.01-.26-.008-.272-.006-.283-.005-.295-.003h-3.399zm0-8.45v5.518h3.103l.252-.001.241-.004.233-.008.223-.01.214-.014.205-.016.197-.019.185-.022.178-.024.168-.028.158-.03.147-.032.14-.035.128-.036.118-.04.107-.04.213-.093.198-.104.185-.114.173-.126.161-.138.152-.149.14-.162.13-.175.117-.183.101-.186.084-.192.07-.196.054-.2.04-.209.023-.214.008-.22-.014-.295-.038-.271-.064-.25-.086-.23-.111-.215-.135-.197-.16-.186-.19-.175-.096-.073-.11-.073-.12-.069-.128-.065-.14-.06-.148-.058-.157-.051-.168-.047-.18-.042-.187-.037-.198-.031-.209-.026-.217-.02-.227-.015-.238-.009-.249-.003h-4.276zm5.377-2.74l.26.026.253.03.245.035.236.04.229.044.22.05.214.054.204.06.198.065.19.071.185.077.34.164.325.188.307.21.29.229.269.252.25.273.231.292.209.309.1.164.09.164.086.166.08.169.072.17.067.173.06.175.054.177.047.18.041.18.035.183.028.185.022.187.016.187.009.19.004.196-.012.357-.033.354-.057.345-.079.34-.102.33-.124.323-.146.314-.168.307-.193.296-.213.28-.234.266-.255.25-.275.235-.143.107.266.117.332.163.31.17.289.177.266.184.246.193.224.2.21.21.197.22.185.231.172.24.16.25.148.261.137.272.12.28.105.285.088.292.073.297.055.303.04.308.024.313.008.319-.008.321-.021.316-.038.31-.053.307-.067.3-.083.293-.097.288-.113.282-.128.275-.143.269-.157.261-.173.256-.186.248-.2.241-.216.234-.23.229-.244.219-.255.203-.265.19-.275.177-.284.161-.294.147-.304.134-.312.119-.323.104-.33.09-.34.076-.348.063-.357.047-.365.034-.374.02-.379.008h-8.378V4.91h6.833l.298.002.293.007.285.01.276.017.268.02zm-47.325-.053h2.926v8.422h9.308V4.913h2.917v20.986h-2.917v-9.678h-9.308v9.678h-2.926zm23.606 13.236h7.125l-3.551-7.538zm8.435 2.86h-9.753l-2.316 4.883h-3.24l9.917-20.982h1.07l9.776 20.982h-3.143l-.837-1.755z" clip-rule="evenodd" fill="#474747" fill-rule="evenodd"/><path d="M50.546 9.667l.437.01.43.03.42.05.413.07.404.091.396.112.386.132.377.152.367.172.358.193.348.213.339.232.327.252.318.273.308.29.299.313.257.299.24.304.224.312.208.32.191.327.175.333.158.34.142.349.125.354.108.36.091.367.075.373.058.38.041.385.025.39.008.398-.009.398-.026.393-.044.387-.061.382-.08.375-.097.37-.115.364-.132.357-.15.351-.168.344-.184.337-.203.331-.22.324-.236.316-.253.31-.272.303-.286.292-.298.274-.309.256-.319.238-.33.219-.339.2-.35.18-.36.163-.37.143-.378.124-.388.104-.397.086-.407.065-.415.047-.425.03-.432.009-.436-.01-.426-.028-.417-.048-.408-.065-.399-.086-.39-.104-.379-.124-.37-.143-.36-.162-.35-.181-.34-.2-.328-.22-.32-.237-.307-.256-.298-.275-.285-.291-.27-.304-.255-.309-.236-.316-.22-.324-.202-.33-.184-.338-.167-.345-.15-.35-.132-.357-.114-.364-.097-.37-.079-.376-.06-.382-.045-.387-.026-.392-.008-.398.008-.396.025-.389.04-.384.06-.378.073-.372.092-.366.108-.36.125-.352.141-.347.159-.34.174-.334.192-.325.208-.32.224-.311.24-.305.257-.298.298-.313.307-.293.318-.274.328-.253.338-.235.349-.213.358-.194.368-.173.377-.154.387-.132.395-.112.405-.091.413-.072.422-.05.43-.03.439-.01zm0 2.736l-.269.006-.262.019-.256.03-.251.044-.246.056-.24.068-.237.08-.23.093-.228.105-.221.117-.219.13-.213.144-.21.156-.206.17-.203.182-.197.196-.19.204-.177.21-.164.213-.151.218-.14.224-.126.228-.115.232-.102.239-.09.243-.08.248-.065.254-.055.26-.043.265-.03.271-.018.278-.006.286.002.182.009.182.013.18.02.178.025.177.03.175.036.173.042.173.046.17.053.17.058.167.063.166.07.165.074.164.08.162.085.159.186.312.2.29.214.27.23.252.245.233.26.215.276.197.297.181.147.08.152.078.154.07.157.067.157.061.16.055.16.05.164.046.164.04.168.034.168.03.17.023.173.019.176.013.177.008.179.003.18-.003.18-.008.178-.013.174-.019.172-.024.17-.03.17-.034.166-.04.163-.044.162-.05.16-.057.158-.06.156-.066.156-.071.153-.077.146-.08.291-.18.274-.198.258-.215.243-.233.228-.252.214-.27.2-.291.186-.312.083-.157.08-.163.074-.163.069-.165.062-.167.058-.168.053-.17.046-.17.041-.172.036-.174.03-.176.026-.176.019-.179.014-.18.008-.182.003-.181-.006-.285-.019-.278-.03-.272-.043-.265-.055-.26-.067-.254-.079-.248-.09-.243-.104-.238-.114-.233-.128-.228-.139-.223-.152-.22-.164-.213-.177-.209L54.23 14l-.198-.196-.203-.182-.206-.17-.21-.156-.214-.143-.218-.13-.222-.118-.226-.105-.231-.093-.236-.08-.24-.068-.245-.056-.251-.043-.256-.031-.261-.019-.267-.006zm43.86 9.28l-.212.371-.221.353-.23.334-.241.315-.25.298-.26.278-.27.259-.276.24-.284.227-.294.21-.302.196-.311.181-.32.167-.327.15-.334.136-.174.063-.174.059-.177.054-.18.05-.181.047-.184.042-.187.038-.19.035-.192.03-.194.026-.197.022-.199.019-.202.013-.203.01-.206.007-.211.002-.458-.01-.448-.03-.437-.047-.426-.067-.414-.087-.403-.106-.39-.127-.379-.145-.366-.166-.354-.186-.341-.206-.328-.224-.316-.245-.301-.264-.288-.283-.273-.3-.257-.31-.239-.314-.223-.32-.206-.325-.191-.331-.174-.337-.158-.342-.141-.346-.125-.353-.108-.357-.092-.363-.074-.367-.058-.372-.042-.376-.024-.381-.008-.384.006-.364.022-.359.034-.354.05-.35.063-.345.077-.34.092-.336.106-.33.12-.326.134-.32.148-.316.163-.309.175-.305.19-.3.203-.293.218-.29.288-.351.304-.332.317-.31.33-.288.342-.265.356-.242.368-.22.381-.196.393-.174.405-.15.416-.127.429-.103.438-.08.45-.057.46-.034.47-.011.481.011.47.035.46.058.45.083.437.105.426.13.416.153.403.178.39.2.379.225.365.248.353.271.34.294.327.317.314.339.3.361.203.27.191.278.179.286.165.295.15.302.14.31.125.32.113.326.098.333.086.341.073.348.06.357.047.362.034.37.02.378.019.837H82.036l.01.132.033.282.045.276.055.267.067.26.077.252.088.245.099.238.11.23.12.223.132.218.143.21.153.204.165.198.177.192.184.183.189.17.193.158.198.146.203.133.208.123.213.11.218.099.223.087.228.075.234.064.24.053.246.04.252.03.258.018.264.006.26-.006.258-.017.255-.029.253-.039.25-.051.25-.062.247-.074.244-.085.24-.096.233-.103.221-.11.212-.116.202-.123.192-.13.182-.135.172-.141.167-.155.174-.18.181-.206.188-.233.193-.26.2-.287.203-.312.435-.702 2.337 1.25-.404.776zm-2.914-7.046l-.147-.23-.155-.208-.169-.196-.183-.189-.196-.18-.21-.17-.225-.161-.239-.152-.253-.143-.271-.134-.137-.061-.138-.059-.14-.054-.14-.05-.141-.046-.142-.042-.142-.038-.144-.034-.144-.03-.145-.026-.145-.022-.148-.018-.147-.014-.148-.01-.15-.006-.148-.002-.25.005-.24.015-.238.025-.231.035-.227.044-.222.056-.217.064-.213.074-.21.084-.202.094-.2.104-.196.114-.192.124-.188.134-.184.145-.18.155-.123.116-.12.124-.118.132-.113.14-.11.147-.107.155-.104.163-.1.171-.097.18-.092.187-.09.195-.085.204-.082.212-.041.115h9.663l-.038-.122-.113-.31-.122-.288-.131-.269-.14-.25zm-22.555-4.97l.438.01.429.03.42.05.413.07.404.091.396.112.386.132.377.152.367.172.358.193.349.213.338.232.328.252.317.273.308.29.299.313.257.299.24.304.225.312.207.32.191.327.175.333.159.34.141.349.125.354.108.36.091.367.075.373.058.38.042.385.024.39.009.398-.01.398-.026.393-.044.387-.061.382-.08.375-.097.37-.114.364-.133.357-.15.351-.168.344-.184.337-.203.331-.22.324-.236.316-.253.31-.271.303-.287.292-.298.274-.309.256-.318.238-.33.219-.34.2-.35.18-.359.163-.37.143-.379.124-.388.104-.397.086-.407.065-.415.047-.424.03-.433.009-.436-.01-.426-.028-.417-.048-.408-.065-.399-.086-.39-.104-.379-.124-.37-.143-.36-.162-.35-.181-.34-.2-.328-.22-.32-.237-.307-.256-.007-.007v7.453h-2.82V17.718h.001l.006-.27.025-.39.041-.384.058-.378.075-.372.09-.366.11-.36.124-.352.141-.347.159-.34.175-.334.191-.325.208-.32.224-.311.24-.305.257-.298.298-.313.308-.293.317-.274.328-.253.338-.235.349-.213.358-.194.368-.173.377-.154.387-.132.395-.112.405-.091.413-.072.422-.05.43-.03.44-.01zM63.7 18.055v-.304l.003-.165.018-.278.03-.27.043-.266.055-.26.066-.254.078-.248.091-.243.102-.239.115-.232.127-.228.14-.224.15-.218.164-.214.177-.209.19-.204.198-.196.202-.182.206-.17.21-.156.214-.143.218-.13.221-.118.228-.105.23-.093.237-.08.24-.068.246-.056.251-.043.257-.031.262-.019.268-.006.267.006.261.019.256.03.25.044.246.056.24.068.236.08.231.093.226.105.222.117.218.131.215.143.21.156.206.17.202.182.198.196.19.204.176.21.165.213.151.219.14.223.127.228.115.233.103.238.09.243.08.248.066.255.055.26.043.264.03.272.019.278.006.285-.003.181-.008.182-.014.18-.02.179-.024.176-.03.176-.037.174-.04.172-.047.17-.053.17-.057.168-.063.167-.069.165-.074.163-.08.163-.083.157-.186.312-.2.29-.213.271-.229.252-.243.233-.258.215-.274.197-.29.181-.147.08-.153.077-.155.07-.156.067-.159.06-.16.056-.162.05-.163.046-.166.04-.17.033-.17.03-.172.024-.174.019-.178.013-.179.008-.18.003-.18-.003-.177-.008-.176-.013-.172-.019-.17-.024-.17-.03-.167-.034-.164-.04-.163-.044-.162-.05-.159-.056-.157-.061-.156-.066-.155-.071-.152-.077-.147-.08-.296-.182-.277-.197-.26-.215-.245-.233-.23-.252-.214-.27-.2-.29-.186-.312-.084-.159-.08-.162-.075-.164-.07-.165-.063-.166-.058-.167-.053-.17-.046-.17-.042-.173-.036-.173-.03-.175-.025-.177-.02-.179-.013-.18-.008-.18zm40.82-8.365c-1.223 0-2.852.294-3.9.899-1.06.612-1.828 1.45-2.283 2.487-.447 1.025-.665 2.558-.665 4.69v8.13h2.765v-7.567c0-1.7.072-2.84.214-3.394.214-.908.611-1.522 1.217-1.885.628-.376 1.371-.688 2.651-.688 1.28 0 2.009.314 2.637.69.606.363 1.003.978 1.217 1.886.142.552.213 1.694.213 3.393v7.567h2.766v-8.13c0-2.131-.218-3.665-.666-4.69-.455-1.037-1.222-1.874-2.282-2.487-1.048-.605-2.661-.901-3.884-.901z" clip-rule="evenodd" fill="#e64a19" fill-rule="evenodd"/></svg>