<svg height="64" width="64" viewBox="0 0 36 36" xmlns="http://www.w3.org/2000/svg">
   <path fill="#ffd983" d="M36 18H0C0 8.059 8.059 0 18 0s18 8.059 18 18z" />
   <path fill="#66757f" d="M18 36C8.059 36 0 27.941 0 18h36c0 9.941-8.059 18-18 18z" />
   <circle fill="#ffcc4d" cx="10.5" cy="-27.5" r="3.5" transform="rotate(90)" />
   <circle fill="#5b6876" cx="24" cy="-20" r="3" transform="rotate(90)" />
   <circle fill="#5b6876" cx="22.5" cy="-8.5" r="3.5" transform="rotate(90)" />
   <circle fill="#5b6876" cx="21" cy="-30" r="2" transform="rotate(90)" />
   <circle fill="#ffcc4d" cx="3" cy="-18" r="1" transform="rotate(90)" />
   <circle fill="#5b6876" cx="30" cy="-27" r="1" transform="rotate(90)" />
   <circle fill="#ffcc4d" cx="15" cy="-5" r="1" transform="rotate(90)" />
   <circle fill="#5b6876" cx="32" cy="-17" r="2" transform="rotate(90)" />
   <circle fill="#ffcc4d" cx="10" cy="-13" r="2" transform="rotate(90)" />
</svg>