<svg height="64" width="64" xmlns="http://www.w3.org/2000/svg" viewBox="0 0 496.159 496.159">
	<path
		d="M248.083.003C111.071.003 0 111.063 0 248.085c0 137.001 111.07 248.07 248.083 248.07 137.006 0 248.076-111.069 248.076-248.07C496.159 111.062 385.089.003 248.083.003z"
		fill="#f2b12f" />
	<path
		d="M444.762 177.718C425.032 85.898 315 116.252 315 116.252c-47.807 11.383-56.913 65.26-56.913 65.26 1.518 16.188 38.954 37.942 38.954 37.942 18.719 7.588 24.282-9.106 24.282-9.106l14.67-26.812c18.213-24.789 36.425-18.718 36.425-18.718 0 8.6 11.129 53.625 11.129 53.625 7.588 20.236 2.023 64.249 2.023 64.249-2.024 24.283 16.188 22.259 16.188 22.259 7.588-6.071 16.903-19.489 20.235-23.777.425-.546.917-1.035 1.364-1.563 30.247-35.812 21.405-101.893 21.405-101.893z"
		fill="#6d6256" />
	<g fill="#847664">
		<path
			d="M375.21 302.167c-3.541 15.682 15.095 26.805 26.307 6.323 13.153-24.029 60.453-41.988 60.453-41.988-62.73-.759-85.755 31.216-86.76 35.665zM444.762 177.718C425.032 85.898 315 116.252 315 116.252c-47.807 11.383-56.913 65.26-56.913 65.26 1.518 16.188 38.954 37.942 38.954 37.942 18.719 7.588 24.282-9.106 24.282-9.106l14.67-26.812c18.213-24.789 32.631-18.718 36.425-18.718 30.858 0 48.059 30.101 61.718 30.101 13.66-.001 10.626-17.201 10.626-17.201z" />
	</g>
	<path
		d="M181.881 116.252S71.85 85.898 52.12 177.718c0 0-8.844 66.081 21.402 101.893.445.527.938 1.016 1.362 1.563 8.355 10.772 12.647 17.706 20.235 23.777 0 0 18.213 2.024 16.19-22.259 0 0-5.566-44.012 2.022-64.249 0 0 11.131-45.024 11.131-53.625 0 0 18.212-6.07 36.424 18.718l14.67 26.812s5.565 16.694 24.284 9.106c0 0 37.436-21.754 38.954-37.942-.001 0-9.107-53.877-56.913-65.26z"
		fill="#6d6256" />
	<g fill="#847664">
		<path
			d="M120.95 302.167c-1.005-4.449-24.03-36.424-86.76-35.665 0 0 47.3 17.959 60.453 41.988 11.212 20.483 29.848 9.36 26.307-6.323zM181.881 116.252S71.85 85.898 52.12 177.718c0 0-3.036 17.2 10.624 17.2 13.659 0 30.859-30.101 61.719-30.101 3.793 0 18.212-6.07 36.424 18.718l14.67 26.812s5.565 16.694 24.284 9.106c0 0 37.436-21.754 38.954-37.942-.002.001-9.108-53.876-56.914-65.259z" />
	</g>
	<path
		d="M322.772 247.38s9.486-19.35 3.794-28.457c0 0-6.83-5.312-17.074-6.83 0 0-26.488-14.923-46.881-30.733-3.725-2.889-10.014-3.034-13.795-3.035h-.031c-3.782.001-10.071.146-13.796 3.035-20.393 15.81-46.881 30.733-46.881 30.733-10.244 1.518-17.074 6.83-17.074 6.83-5.691 9.106 3.795 28.457 3.795 28.457 1.896 7.588-1.897 23.524-1.897 23.524-4.173 27.698 9.865 35.666 9.865 35.666 10.624 6.83 13.658 29.595 13.658 29.595 1.518 11.382 6.83 28.835 6.83 28.835 3.035 5.312 30.354 32.63 30.354 32.63 6.762 9.016 14.999 6.877 15.161 6.833.164.044 8.401 2.182 15.162-6.833 0 0 27.319-27.318 30.354-32.63 0 0 5.313-17.453 6.831-28.835 0 0 3.034-22.765 13.658-29.595 0 0 14.039-7.968 9.865-35.666-.001 0-3.795-15.936-1.898-23.524z"
		fill="#b79563" />
	<path
		d="M248.816 178.326h-.031c-3.782.001-10.071.146-13.796 3.035-20.393 15.81-46.881 30.733-46.881 30.733-10.244 1.518-17.074 6.83-17.074 6.83-5.691 9.106 3.795 28.457 3.795 28.457 1.896 7.588-1.897 23.524-1.897 23.524-4.173 27.698 9.865 35.666 9.865 35.666 10.624 6.83 13.658 29.595 13.658 29.595 1.518 11.382 6.83 28.835 6.83 28.835 3.035 5.312 30.354 32.63 30.354 32.63 6.762 9.016 14.999 6.877 15.161 6.833.164.043-.015-226.138.016-226.138z"
		fill="#aa885b" />
	<path
		d="M247.709 304.556c-48.099 0-51.254 31.608-51.254 31.608 1.518 11.382 6.83 28.835 6.83 28.835 3.035 5.312 30.354 32.63 30.354 32.63 6.762 9.016 14.999 6.877 15.161 6.833.164.044 8.401 2.182 15.162-6.833 0 0 27.319-27.318 30.354-32.63 0 0 5.313-17.453 6.831-28.835-.002 0-5.339-31.608-53.438-31.608z"
		fill="#e0c199" />
	<path
		d="M248.785 387.421c-29.595 0-45.5-22.422-45.5-22.422 3.035 5.312 30.354 32.63 30.354 32.63 6.762 9.016 14.999 6.877 15.161 6.833.164.044 8.401 2.182 15.162-6.833 0 0 27.319-27.318 30.354-32.63-.001 0-15.936 22.422-45.531 22.422z"
		fill="#9e7f56" />
	<g fill="#494949">
		<path
			d="M191.65 228.409l-22.006-.759s-1.518 1.645-.253 9.612c1.265 7.968 5.439 10.118 5.439 10.118l29.72 12.648 1.771-3.036-14.671-28.583zM327.957 227.65l-22.006.759-14.671 28.583 1.771 3.036 29.72-12.648s4.173-2.149 5.438-10.118c1.267-7.968-.252-9.612-.252-9.612zM280.332 332.534c-14.991-7.623-30.614-9.561-31.272-9.639-.088-.012-.172.019-.261.023-.087-.004-.171-.035-.26-.023-.657.078-16.281 2.016-31.271 9.639a1.52 1.52 0 00-.83 1.302 1.521 1.521 0 00.74 1.355l30.764 18.339c.24.143.508.214.777.214.027 0 .054-.009.08-.01.027.001.054.01.082.01.268 0 .537-.071.777-.214l30.764-18.339a1.519 1.519 0 00-.09-2.657z" />
		<path
			d="M327.957 227.65l-.042.002c.407 1.254.674 2.605.796 4.014-.015-3.204-.754-4.016-.754-4.016zM281.348 364.701a1.622 1.622 0 00-2.136-.832c-10.592 4.661-18.443 5.263-23.34 1.787-4.046-2.872-5.281-8.063-5.635-11.596.168-2.229.031-3.815.014-3.993a1.616 1.616 0 00-1.587-1.46l-.014-.002a1.616 1.616 0 00-1.747 1.485c-.015.178-.131 1.778.069 4.022-.304 3.5-1.461 8.609-5.427 11.489-4.874 3.537-12.816 2.954-23.607-1.735a1.617 1.617 0 00-2.132.841 1.619 1.619 0 00.84 2.132c6.543 2.844 12.212 4.267 16.967 4.267 3.904 0 7.191-.959 9.837-2.88 2.56-1.858 4.174-4.37 5.193-6.931 1.057 2.591 2.719 5.132 5.337 6.995 2.639 1.878 5.888 2.817 9.726 2.817 4.726 0 10.344-1.424 16.812-4.27a1.62 1.62 0 00.83-2.136z" />
	</g>
</svg>