<svg height="64" width="64" xmlns="http://www.w3.org/2000/svg" viewBox="0 0 496.159 496.159">
	<path
		d="M248.083.003C111.071.003 0 111.063 0 248.085c0 137.001 111.07 248.071 248.083 248.071 137.006 0 248.076-111.07 248.076-248.071C496.159 111.063 385.089.003 248.083.003z"
		fill="#f2b12f" />
	<path
		d="M398.941 294.253l36.136 1.853c-14.825-48.181-51.887-44.475-51.887-44.475l38.915-37.988c-39.842-1.853-49.107-25.943-49.107-25.943l20.384-22.238c-2.78-7.412-31.503-11.118-31.503-11.118 4.633-4.633 3.707-26.87 3.707-26.87-11.119 1.854-37.062-3.707-37.062-3.707 5.559-8.338 18.531-6.485 18.531-6.485-20.384-22.237-64.859-5.559-64.859-5.559-1.236-13.282 4.325-20.693 4.325-20.693-21.002-5.56-33.356 16.06-33.356 16.06l-6.794-21.001-3.706 21.001c-11.119-2.471-25.943-26.561-25.943-26.561-11.119 9.884 3.088 38.916 3.088 38.916-27.797-24.708-62.389-14.208-62.389-14.208 0 16.06 25.944 37.681 25.944 37.681-23.472-19.15-67.948-9.266-67.948-9.266 4.942 17.295 16.678 22.237 16.678 22.237l-42.005 58.68c-39.534 21.62-27.179 72.891-27.179 72.891 16.678-21.62 42.815-12.973 42.815-12.973-7.219 4.942-27.991 9.884-27.991 9.884 6.177 2.472 13.589 5.56 13.589 5.56-22.855 8.03-22.237 37.063-22.237 37.063 11.118-4.324 36.639-.618 36.639-.618-6.601-.618-20.578 15.442-20.578 15.442 8.03 4.324 30.267 6.177 30.267 6.177-21.002 12.973-12.972 29.65-12.972 29.65 10.501-5.56 27.797-8.647 27.797-8.647 11.736 1.234 19.149 3.706 19.149 3.706 0 16.678 11.119 32.12 11.119 32.12 0-12.972 11.737-14.207 11.737-14.207 3.088 19.767 11.736 17.296 11.736 17.296 1.235-9.266 12.354-8.03 12.354-8.03-2.471 1.853-4.016 8.338-4.016 8.338 24.091 6.486 45.401-8.338 45.401-8.338l-.926 15.751c0-8.339 16.679-7.413 16.679-7.413 12.044 10.192 34.282 4.634 34.282 4.634-10.192-4.634-.927-16.679-.927-16.679 29.65 16.679 52.814-1.853 52.814-1.853-10.192 0-20.384-8.34-20.384-8.34l50.961 1.854-25.943-15.751c16.678 7.412 41.694-7.413 41.694-7.413l-18.53-8.339c9.265-7.412 29.649 1.854 29.649 1.854.927-15.752-12.972-32.43-12.972-32.43 15.752 2.779 27.796 14.825 27.796 14.825 7.412-37.064-12.972-46.33-12.972-46.33z"
		fill="#7a582b" />
	<path
		d="M328.513 203.984c10.954-25.878-28.438-65.434-85.661-52.739-57.222-12.694-98.714 26.861-87.762 52.739 3.415 8.066-17.117 54.272 8.553 82.144 5.622 6.103 28.21 70.716 28.21 70.716.79 1.381 25.19 6.627 48.714 7.004v.023c.411-.001.823-.007 1.234-.011.411.004.824.01 1.234.011v-.023c23.524-.377 47.925-5.623 48.714-7.004 0 0 22.59-64.613 28.211-70.716 25.671-27.872 5.139-74.078 8.553-82.144z"
		fill="#d6953e" />
	<path
		d="M242.852 151.245c-57.222-12.694-98.714 26.861-87.762 52.739 3.415 8.066-17.117 54.272 8.553 82.144 5.622 6.103 28.21 70.716 28.21 70.716.79 1.381 25.19 6.627 48.714 7.004v.023c.411-.001.823-.007 1.234-.011.411.004.824.01 1.234.011v-.023l-.183-212.603z"
		fill="#c18236" />
	<path
		d="M255.313 361.594l-12.461-8.826-12.716 8.901-36.815-4.826c3.339 5.845 20.203 24.079 20.203 24.079 12.828 15.134 45.832 14.034 59.74 0 0 0 16.864-18.234 20.203-24.079l-38.154 4.751z"
		fill="#d6953e" />
	<path
		d="M280.533 283.009c-16.379-13.906-16.29-45.451-32.789-53.355-1.579-.758-7.148-.796-8.644-.104-16.458 7.605-16.557 39.491-33.01 53.46-29.153 24.754-38.872 53.174-16.501 75.359 9.91 9.829 43.455 12.377 43.455 12.377s8.906-10.815 9.086-10.863c.165.044 2.2.044 2.364 0 .181.048 9.085 10.863 9.085 10.863s33.546-2.548 43.456-12.377c22.37-22.186 12.651-50.606-16.502-75.36z"
		fill="#bc7928" />
	<path
		d="M277.639 288.567c-15.106-12.825-15.023-54.343-30.24-61.634-1.457-.698-6.592-.733-7.972-.097-15.179 7.015-15.27 48.847-30.442 61.73-26.887 22.828-35.849 49.039-15.219 69.5 9.139 9.063 40.076 11.414 40.076 11.414s8.213-9.975 8.379-10.02c.151.041 2.029.041 2.181 0 .167.045 8.379 10.02 8.379 10.02s30.937-2.351 40.077-11.414c20.63-20.46 11.667-46.671-15.219-69.499z"
		fill="#d6953e" />
	<path
		d="M242.852 226.239c-1.638-.016-2.735.279-3.425.598-15.179 7.015-15.27 48.847-30.442 61.73-26.887 22.828-35.849 49.039-15.219 69.5 9.139 9.063 40.076 11.414 40.076 11.414s8.213-9.975 8.379-10.02c.079.021.627.031 1.156.03.485 0-.525-133.252-.525-133.252z"
		fill="#c18236" />
	<g fill="#3f2308">
		<path
			d="M278.084 321.127c-16.492-8.386-33.68-10.519-34.403-10.604-.098-.014-.189.021-.287.024-.096-.004-.188-.038-.286-.024-.723.085-17.912 2.218-34.403 10.604a1.672 1.672 0 00-.099 2.923l33.845 20.175c.264.157.559.235.854.235.03 0 .06-.009.088-.011.03.002.059.011.09.011.295 0 .591-.078.855-.235l33.845-20.175c.521-.312.833-.883.814-1.49a1.673 1.673 0 00-.913-1.433z" />
		<path
			d="M279.202 365.409a1.782 1.782 0 00-2.35-.915c-11.653 5.127-20.291 5.79-25.677 1.966-4.451-3.159-5.81-8.87-6.199-12.757.185-2.452.034-11.09.016-11.285a1.777 1.777 0 00-1.746-1.606l-.016-.003a1.779 1.779 0 00-1.922 1.634c-.016.196-.144 8.851.077 11.319-.334 3.851-1.607 9.471-5.971 12.639-5.362 3.891-14.099 3.25-25.971-1.909a1.78 1.78 0 00-2.346.925 1.783 1.783 0 00.924 2.347c7.199 3.128 13.436 4.693 18.666 4.693 4.295 0 7.912-1.056 10.822-3.169 2.816-2.044 4.593-4.808 5.713-7.625 1.163 2.851 2.991 5.646 5.872 7.696 2.902 2.065 6.477 3.099 10.699 3.099 5.199 0 11.38-1.566 18.495-4.697a1.786 1.786 0 00.914-2.352z" />
	</g>
	<g fill="#282727">
		<path
			d="M173.911 208.384c12.468 46.939 50.606 9.534 50.606 9.534-21.819 5.134-50.606-9.534-50.606-9.534zM261.654 217.918s38.138 37.405 50.606-9.534c.001 0-28.787 14.668-50.606 9.534z" />
	</g>
	<path
		d="M236.435 207.65c-.55-2.2-2.75-3.851-2.75-3.851s-7.701 5.318-13.202 5.501c-10.339.345-24.937-4.033-34.288-5.501-9.351-1.467-16.319 0-16.319 0s14.486 21.82 54.641 15.586c5.429-.844 8.067-4.034 10.359-7.06.001.001 2.11-2.475 1.559-4.675z"
		fill="#6d4d25" />
	<path
		d="M299.975 203.799c-9.351 1.468-23.949 5.846-34.288 5.501-5.5-.183-13.202-5.501-13.202-5.501s-2.2 1.65-2.75 3.851 1.559 4.676 1.559 4.676c2.292 3.025 4.93 6.216 10.359 7.06 40.155 6.234 54.641-15.586 54.641-15.586s-6.967-1.468-16.319-.001z"
		fill="#7a582b" />
	<path
		d="M154.794 162.576c-18.826-14.1-43.06-13.548-54.13 1.233-11.07 14.78-4.783 38.191 14.044 52.29 18.826 14.101 58.912-39.423 40.086-53.523z"
		fill="#d6953e" />
	<path
		d="M162.791 185.09c-14.671-16.132-35.12-24.449-45.675-18.578-10.555 5.87-7.216 23.706 7.456 39.838s52.892-5.128 38.219-21.26z"
		fill="#c98431" />
	<path
		d="M385.22 163.809c-11.069-14.781-35.304-15.333-54.129-1.233-18.826 14.101 21.26 67.624 40.086 53.523 18.826-14.099 25.113-37.51 14.043-52.29z"
		fill="#d6953e" />
	<path
		d="M374.918 170.547c-5.87-10.555-23.706-7.216-39.838 7.456s5.128 52.892 21.26 38.219c16.132-14.671 24.45-35.12 18.578-45.675z"
		fill="#c98431" />
	<g fill="#7a582b">
		<path
			d="M351.088 191.13c-5.039-2.063-14.349-17.636-14.349-17.636l22.825-3.075c-11.118-14.354-55.595-14.257-55.595-14.257 12.244 15.584 27.98 68.96 27.98 68.96 6.259 3.868 10.151 8.729 10.151 8.729 5.676-7.479-.81-25.166-.81-25.166l9.364-5.316-10.38-8.17c0 .001 15.853-2.007 10.814-4.069zM274.586 136.141l-67.047 4.117 6.47 17.056 14.702 8.822 3.53-9.41s9.999 7.057 9.999 10.586l8.822-18.82 7.057 10.587 6.47-7.059 2.94 12.352 10.586-9.41-3.529-18.821zM172.615 163.105c-14.123-4.762-50.211 8.168-50.211 8.168l10.445 11.566c-8.953.681-22.383 21.769-22.383 21.769 1.492 6.123 24.373 4.082 24.373 4.082l-10.445 6.803c4.974 8.164 25.614 7.213 25.614 7.213l14.675-25.58 11.439-17.689-3.507-16.332z" />
	</g>
	<g fill="#8c5519">
		<ellipse cx="290.22" cy="328.39" rx="4.125" ry="2.475" />
		<ellipse cx="276.2" cy="341.32" rx="4.125" ry="2.476" />
		<ellipse cx="292.7" cy="348.74" rx="4.125" ry="2.475" />
		<ellipse cx="196.71" cy="328.39" rx="4.125" ry="2.475" />
		<ellipse cx="210.74" cy="341.32" rx="4.125" ry="2.476" />
		<ellipse cx="194.24" cy="348.74" rx="4.125" ry="2.475" />
	</g>
</svg>