<svg height="64" width="64" xmlns="http://www.w3.org/2000/svg" viewBox="0 0 496.158 496.158">
	<path
		d="M248.082.003C111.07.003 0 111.063 0 248.085c0 137.001 111.07 248.07 248.082 248.07 137.006 0 248.076-111.069 248.076-248.07C496.158 111.062 385.088.003 248.082.003z"
		fill="#58d1dd" />
	<g fill="#c14e00">
		<path
			d="M298.486 105.655c-1.959-.735-50.152-18.669-79.666-17.209-18.338.888-31.063 20.819-31.599 21.667a2.845 2.845 0 00-.192 2.659 2.842 2.842 0 002.1 1.645l105.969 18.924a2.832 2.832 0 002.226-.542 2.833 2.833 0 001.101-2.011l1.894-22.234a2.84 2.84 0 00-1.833-2.899zM283.058 233.673l-13.998-31.527a2.634 2.634 0 00-3.348-1.39l-50.24 19.25a2.631 2.631 0 00-1.692 2.407 2.636 2.636 0 001.592 2.473c1.312.563 32.471 13.788 65.386 12.488a2.632 2.632 0 002.3-3.701z" />
	</g>
	<path
		d="M397.451 226.358l-10.256-61.663 10.256-62.25c.184-1.105-.52-2.174-1.686-2.564s-2.475.006-3.141.949c-13.955 19.732-39.832 49.62-49.864 49.62-8.78 0-29.989-11.148-39.31-18.193-19.637-14.841-46.532-26.955-78.326-26.955-57.056 0-123.479 31.723-126.447 58.422l38.072 14.726-37.086-6.98c8.959 24.991 71.413 54.073 125.461 54.073 35.691 0 67.545-17.124 86.577-32.429 6.176-4.967 22.864-14.757 31.059-14.757 9.61 0 35.69 29.896 49.872 49.635.498.691 1.342 1.083 2.214 1.083.311 0 .626-.049.93-.152 1.161-.395 1.859-1.463 1.675-2.565z"
		fill="#e85e00" />
	<circle cx="166.159" cy="142.019" r="11.852" fill="#42423f" />
	<circle cx="169.229" cy="137.189" r="4.829" fill="#fff" />
	<g fill="#c14e00">
		<path
			d="M308.936 280.446c-.535-.848-13.261-20.779-31.599-21.667-29.514-1.46-77.707 16.474-79.666 17.209a2.838 2.838 0 00-1.831 2.898l1.894 22.234a2.831 2.831 0 001.101 2.011 2.827 2.827 0 002.226.542l105.968-18.924a2.838 2.838 0 001.907-4.303zM280.685 390.34l-50.24-19.25a2.634 2.634 0 00-3.348 1.39l-13.998 31.527a2.631 2.631 0 002.3 3.701c32.915 1.3 64.074-11.924 65.386-12.488a2.639 2.639 0 001.592-2.473 2.631 2.631 0 00-1.692-2.407z" />
	</g>
	<path
		d="M397.48 334.056c-2.968-26.699-69.392-58.422-126.447-58.422-31.794 0-58.689 12.114-78.326 26.955-9.32 7.045-30.529 18.193-39.31 18.193-10.032 0-35.909-29.888-49.864-49.62-.665-.943-1.975-1.34-3.141-.949s-1.869 1.459-1.686 2.564l10.256 62.25-10.256 61.663c-.184 1.103.514 2.17 1.675 2.563.304.104.619.152.93.152.872 0 1.716-.392 2.214-1.083 14.182-19.738 40.262-49.635 49.872-49.635 8.194 0 24.883 9.79 31.06 14.757 19.031 15.305 50.885 32.429 86.576 32.429 54.049 0 116.502-29.082 125.461-54.073l-37.086 6.98 38.072-14.724z"
		fill="#e85e00" />
	<circle cx="329.999" cy="312.349" r="11.852" fill="#42423f" />
	<circle cx="326.929" cy="307.519" r="4.829" fill="#fff" />
</svg>