<svg xmlns="http://www.w3.org/2000/svg" viewBox="0 0 496.158 496.158">
	<path
		d="M248.082.003C111.07.003 0 111.063 0 248.085c0 137.001 111.07 248.07 248.082 248.07 137.006 0 248.076-111.069 248.076-248.07C496.158 111.062 385.088.003 248.082.003z"
		fill="#f9dc5f" />
	<g fill="#4c4c48">
		<path d="M243.029 157.629h10.938v202.92h-10.938z" />
		<path
			d="M268.272 386.501c0-46.279-19.353-45.438-19.353-45.438s-19.353-.842-19.353 45.438c0 0 5.049 17.67-78.253 17.67v8.414h195.211v-8.414c-83.299 0-78.252-17.67-78.252-17.67zM248.499 123.134c-4.628 0-10.813 9.808-10.813 31.73s22.467 21.922 22.467 0c0-21.923-7.026-31.73-11.654-31.73z" />
	</g>
	<g fill="#6d6d68">
		<path
			d="M369.949 191.075a3.37 3.37 0 00-4.385 1.853l-36.903 111.909c-.594 1.723.109 3.686 1.569 4.385.352.169.714.248 1.072.248 1.126 0 2.193-.793 2.645-2.1l37.854-111.91a3.364 3.364 0 00-1.852-4.385zM423.451 304.837l-36.925-111.909a3.366 3.366 0 10-6.238 2.532l37.877 111.91c.449 1.307 1.517 2.1 2.644 2.1.357 0 .721-.079 1.073-.248 1.46-.7 2.162-2.663 1.569-4.385z" />
		<path d="M327.975 304s.714 48.485 48.497 48.485S424.255 304 424.255 304h-96.28z" />
	</g>
	<path
		d="M386.404 170.553c-.007.033-.02.066-.027.101-1.459-2.901-4.23-5.341-7.836-6.499-6.525-2.098-13.289.783-15.104 6.432-1.816 5.651 2.002 11.932 8.527 14.028.158.051.316.086.474.131a18.536 18.536 0 01-9.968-.383c-4.939-1.588-13.397-11.229-31.094-16.917-14.019-4.506-45.148-5.23-85.213-18.106l-4.248 13.218c32.111 10.32 64.651 10.515 78.967 14.627 26.484 7.608 32.892 14.99 39.777 20.148 6.885 5.159 23.311 3.092 27.221-9.075a23.05 23.05 0 00-1.476-17.705z"
		fill="#4c4c48" />
	<g fill="#6d6d68">
		<path
			d="M168.885 224.837l-38.291-111.909a3.366 3.366 0 10-6.238 2.532l39.088 111.91c.463 1.307 1.562 2.1 2.721 2.1.368 0 .742-.079 1.104-.248 1.502-.7 2.225-2.663 1.616-4.385zM114.017 111.075a3.37 3.37 0 00-4.385 1.853L71.323 224.837c-.611 1.723.112 3.686 1.615 4.385.362.169.735.248 1.104.248 1.159 0 2.258-.793 2.722-2.1l39.104-111.91a3.365 3.365 0 00-1.851-4.385z" />
		<path d="M70.495 224s0 48.485 49.18 48.485c49.181 0 49.914-48.485 49.914-48.485H70.495z" />
	</g>
	<path
		d="M166.357 114.409c-17.696-5.688-30.188-2.778-35.127-4.366a18.53 18.53 0 01-8.324-5.496c.154.055.303.119.461.17 6.525 2.097 13.288-.782 15.104-6.434 1.816-5.648-2.002-11.93-8.527-14.026-3.605-1.159-7.281-.793-10.156.717.014-.033.023-.067.037-.099a23.057 23.057 0 00-11.516 13.529c-3.91 12.166 8.236 23.416 16.838 23.234 8.602-.18 18.109-2.447 44.066 6.8 14.031 4.997 40.592 23.797 72.703 34.118l4.248-13.218c-40.064-12.876-65.787-30.423-79.807-34.929z"
		fill="#4c4c48" />
</svg>