<?xml version="1.0" encoding="utf-8"?>
<!-- Generator: Adobe Illustrator 19.1.0, SVG Export Plug-In . SVG Version: 6.00 Build 0)  -->
<svg xmlns="http://www.w3.org/2000/svg" xmlns:xlink="http://www.w3.org/1999/xlink" version="1.1" id="Ebene_1" x="0px" y="0px" width="64px" height="64px" viewBox="0 0 64 64" enable-background="new 0 0 64 64" xml:space="preserve">
<g>
	<path fill="#F5F5F5" d="M32,59.5C16.8,59.5,4.5,47.2,4.5,32S16.8,4.5,32,4.5S59.5,16.8,59.5,32S47.2,59.5,32,59.5z"/>
	<g>
		<path fill="#C8C8C8" d="M32,5c14.9,0,27,12.1,27,27S46.9,59,32,59S5,46.9,5,32S17.1,5,32,5 M32,4C16.6,4,4,16.6,4,32    s12.6,28,28,28s28-12.6,28-28S47.4,4,32,4L32,4z"/>
	</g>
</g>
<g>
	<g>
		<rect x="41" y="16" transform="matrix(-0.8851 0.4655 -0.4655 -0.8851 92.2406 21.2231)" fill="#212121" width="5" height="12"/>
		<g>
			<path fill="#DCDCDC" d="M42.7,16.2l5.1,9.7l-3.5,1.9l-5.1-9.7L42.7,16.2 M43.1,14.9l-0.9,0.5l-3.5,1.9l-0.9,0.5l0.5,0.9l5.1,9.7     l0.5,0.9l0.9-0.5l3.5-1.9l0.9-0.5l-0.5-0.9l-5.1-9.7L43.1,14.9L43.1,14.9z"/>
		</g>
	</g>
	<g>
		
			<rect x="14.5" y="19.5" transform="matrix(-0.4655 0.8851 -0.8851 -0.4655 49.5138 14.0974)" fill="#212121" width="12" height="5"/>
		<g>
			<path fill="#DCDCDC" d="M21.3,16.2l3.5,1.9l-5.1,9.7l-3.5-1.9L21.3,16.2 M20.9,14.9l-0.5,0.9l-5.1,9.7l-0.5,0.9l0.9,0.5l3.5,1.9     l0.9,0.5l0.5-0.9l5.1-9.7l0.5-0.9l-0.9-0.5l-3.5-1.9L20.9,14.9L20.9,14.9z"/>
		</g>
	</g>
	<g>
		<rect x="29.5" y="37.5" fill="#212121" width="5" height="13"/>
		<g>
			<path fill="#DCDCDC" d="M34,38v12h-4V38H34 M35,37h-1h-4h-1v1v12v1h1h4h1v-1V38V37L35,37z"/>
		</g>
	</g>
</g>
</svg>
