<?xml version="1.0" encoding="utf-8"?>
<!-- Generator: Adobe Illustrator 19.1.0, SVG Export Plug-In . SVG Version: 6.00 Build 0)  -->
<svg xmlns="http://www.w3.org/2000/svg" xmlns:xlink="http://www.w3.org/1999/xlink" version="1.1" id="Ebene_1" x="0px" y="0px" width="64px" height="64px" viewBox="0 0 64 64" enable-background="new 0 0 64 64" xml:space="preserve">
<g>
	<g>
		<path fill="#EBEBEB" d="M32,59.5C16.8,59.5,4.5,47.2,4.5,32S16.8,4.5,32,4.5S59.5,16.8,59.5,32S47.2,59.5,32,59.5z"/>
		<path fill="#C8C8C8" d="M32,5c14.9,0,27,12.1,27,27S46.9,59,32,59S5,46.9,5,32S17.1,5,32,5 M32,4C16.6,4,4,16.6,4,32    s12.6,28,28,28s28-12.6,28-28S47.4,4,32,4L32,4z"/>
	</g>
	<circle fill="#212121" stroke="#DCDCDC" stroke-miterlimit="10" cx="22" cy="32" r="3.5"/>
	<circle fill="#212121" stroke="#DCDCDC" stroke-miterlimit="10" cx="42" cy="32" r="3.5"/>
	<g>
		<defs>
			<circle id="SVGID_1_" cx="32" cy="32" r="27"/>
		</defs>
		<clipPath id="SVGID_2_">
			<use xlink:href="#SVGID_1_" overflow="visible"/>
		</clipPath>
		<rect x="30" y="5" clip-path="url(#SVGID_2_)" fill="#8C8C8C" width="4" height="4.9"/>
		<rect x="30" y="54" clip-path="url(#SVGID_2_)" fill="#8C8C8C" width="4" height="4.9"/>
		<g clip-path="url(#SVGID_2_)">
			<g>
				<rect x="-0.5" y="34.5" fill="#F5F5F5" width="11" height="29"/>
				<path fill="#C8C8C8" d="M10,35v28H0V35H10 M11,34h-1H0h-1v1v28v1h1h10h1v-1V35V34L11,34z"/>
			</g>
			<g>
				<rect x="-0.5" y="0.5" fill="#F5F5F5" width="11" height="29"/>
				<path fill="#C8C8C8" d="M10,1v28H0V1H10 M11,0h-1H0h-1v1v28v1h1h10h1v-1V1V0L11,0z"/>
			</g>
		</g>
		<g clip-path="url(#SVGID_2_)">
			<g>
				<rect x="53.5" y="34.5" fill="#F5F5F5" width="11" height="29"/>
				<path fill="#C8C8C8" d="M64,35v28H54V35H64 M65,34h-1H54h-1v1v28v1h1h10h1v-1V35V34L65,34z"/>
			</g>
			<g>
				<rect x="53.5" y="0.5" fill="#F5F5F5" width="11" height="29"/>
				<path fill="#C8C8C8" d="M64,1v28H54V1H64 M65,0h-1H54h-1v1v28v1h1h10h1v-1V1V0L65,0z"/>
			</g>
		</g>
	</g>
</g>
</svg>
