<?xml version="1.0" encoding="utf-8"?>
<!-- Generator: Adobe Illustrator 19.1.0, SVG Export Plug-In . SVG Version: 6.00 Build 0)  -->
<svg xmlns="http://www.w3.org/2000/svg" xmlns:xlink="http://www.w3.org/1999/xlink" version="1.1" id="Ebene_1" x="0px" y="0px" width="64px" height="64px" viewBox="0 0 64 64" enable-background="new 0 0 64 64" xml:space="preserve">
<g>
	<rect x="4.5" y="4.5" fill="#F5F5F5" width="55" height="55"/>
	<g>
		<path fill="#C8C8C8" d="M59,5v54H5V5H59 M60,4h-1H5H4v1v54v1h1h54h1v-1V5V4L60,4z"/>
	</g>
</g>
<g>
	<rect x="13.5" y="42.5" fill="#212121" width="10" height="6"/>
	<g>
		<path fill="#DCDCDC" d="M23,43v5h-9v-5H23 M24,42h-1h-9h-1v1v5v1h1h9h1v-1v-5V42L24,42z"/>
	</g>
</g>
<g>
	<rect x="40.5" y="42.5" fill="#212121" width="10" height="6"/>
	<g>
		<path fill="#DCDCDC" d="M50,43v5h-9v-5H50 M51,42h-1h-9h-1v1v5v1h1h9h1v-1v-5V42L51,42z"/>
	</g>
</g>
<g>
	<rect x="29.5" y="12.5" fill="#212121" width="5" height="11"/>
	<g>
		<path fill="#DCDCDC" d="M34,13v10h-4V13H34 M35,12h-1h-4h-1v1v10v1h1h4h1v-1V13V12L35,12z"/>
	</g>
</g>
</svg>
