<?xml version="1.0" encoding="utf-8"?>
<!-- Generator: Adobe Illustrator 19.1.0, SVG Export Plug-In . SVG Version: 6.00 Build 0)  -->
<svg xmlns="http://www.w3.org/2000/svg" xmlns:xlink="http://www.w3.org/1999/xlink" version="1.1" id="Ebene_1" x="0px" y="0px" width="64px" height="64px" viewBox="0 0 64 64" enable-background="new 0 0 64 64" xml:space="preserve">
<g>
	<path fill="#F5F5F5" d="M15.9,53.5l-0.1-0.1c-7.1-5-11.3-13-11.3-21.4s4.2-16.4,11.3-21.4l0.1-0.1h32.1l0.1,0.1   c7.1,5,11.3,13,11.3,21.4s-4.2,16.4-11.3,21.4l-0.1,0.1H15.9z"/>
	<path fill="#C8C8C8" d="M47.9,11C54.6,15.7,59,23.4,59,32c0,8.6-4.4,16.3-11.1,21H16.1C9.4,48.3,5,40.6,5,32   c0-8.6,4.4-16.3,11.1-21H47.9 M48.2,10h-0.3H16.1h-0.3l-0.3,0.2C8.3,15.3,4,23.4,4,32c0,8.6,4.3,16.7,11.5,21.8l0.3,0.2h0.3h31.8   h0.3l0.3-0.2C55.7,48.7,60,40.6,60,32c0-8.6-4.3-16.7-11.5-21.8L48.2,10L48.2,10z"/>
</g>
<g>
	<rect x="19.5" y="19.5" fill="#212121" width="4" height="14"/>
	<path fill="#DCDCDC" d="M23,20v13h-3V20H23 M24,19h-1h-3h-1v1v13v1h1h3h1v-1V20V19L24,19z"/>
</g>
<g>
	<rect x="39.5" y="21.5" fill="#212121" width="4" height="11"/>
	<path fill="#DCDCDC" d="M43,22v10h-3V22H43 M44,21h-1h-3h-1v1v10v1h1h3h1v-1V22V21L44,21z"/>
</g>
<g>
	<path fill="#212121" d="M26.5,49.5v-5c0-2.8,2.2-5,5-5s5,2.2,5,5v5H26.5z"/>
	<path fill="#DCDCDC" d="M31.5,40c2.5,0,4.5,2,4.5,4.5V49h-9v-4.5C27,42,29,40,31.5,40 M31.5,39c-3,0-5.5,2.5-5.5,5.5V49v1h1h9h1v-1   v-4.5C37,41.5,34.5,39,31.5,39L31.5,39z"/>
</g>
</svg>
