<?xml version="1.0" encoding="UTF-8" standalone="no"?>
<!-- Created with Inkscape (http://www.inkscape.org/) -->
<svg id="svg2" xmlns:rdf="http://www.w3.org/1999/02/22-rdf-syntax-ns#" xmlns="http://www.w3.org/2000/svg" height="64" width="64" version="1.1" xmlns:cc="http://creativecommons.org/ns#" xmlns:xlink="http://www.w3.org/1999/xlink" xmlns:dc="http://purl.org/dc/elements/1.1/">
 <defs id="defs4">
  <linearGradient id="linearGradient4101">
   <stop id="stop4103" stop-color="#919191" offset="0"/>
   <stop id="stop4105" stop-color="#e4e4e4" offset="1"/>
  </linearGradient>
  <linearGradient id="linearGradient3805" y2="70.362" gradientUnits="userSpaceOnUse" x2="40" gradientTransform="matrix(1.9998887,0,0,1.2424276,-47.993281,955.21738)" y1="73.362" x1="40">
   <stop id="stop3801" stop-color="#FFF" offset="0"/>
   <stop id="stop3803" stop-color="#CCC" offset="1"/>
  </linearGradient>
  <linearGradient id="linearGradient3822" y2="70.362" gradientUnits="userSpaceOnUse" y1="73.362" gradientTransform="matrix(1.9998887,0,0,2.0000677,-47.871459,861.62697)" x2="40" x1="40">
   <stop id="stop3801-8" stop-color="#FFF" offset="0"/>
   <stop id="stop3803-5" stop-color="#cdcdcd" offset="1"/>
  </linearGradient>
  <linearGradient id="linearGradient3961" y2="51.362" gradientUnits="userSpaceOnUse" x2="33" gradientTransform="matrix(1.9998887,0,0,1.3168561,-47.993281,934.69788)" y1="48.362" x1="33">
   <stop id="stop3957" stop-color="#a6a6a6" offset="0"/>
   <stop id="stop3959" stop-color="#828282" stop-opacity="0" offset="1"/>
  </linearGradient>
  <radialGradient id="radialGradient3087" xlink:href="#linearGradient4101" gradientUnits="userSpaceOnUse" cy="62.362" cx="39" gradientTransform="matrix(1.9998887,0,0,2.0000677,-46.099351,898.87761)" r="7"/>
 </defs>
 <metadata id="metadata7">
  <rdf:RDF>
   <cc:Work rdf:about="">
    <dc:format>image/svg+xml</dc:format>
    <dc:type rdf:resource="http://purl.org/dc/dcmitype/StillImage"/>
    <dc:title/>
    <dc:creator>
     <cc:Agent>
      <dc:title>Simon Buttazzi</dc:title>
     </cc:Agent>
    </dc:creator>
   </cc:Work>
  </rdf:RDF>
 </metadata>
 <g id="layer3" transform="translate(0,-988.36218)">
  <path id="path4045" style="baseline-shift:baseline;block-progression:tb;color:#000000;direction:ltr;text-indent:0;text-align:start;enable-background:accumulate;text-transform:none;" d="m12.253,994.45,9.187,0,30.498,0,0,51.689-39.685,0z" fill-rule="nonzero" fill="#FFF"/>
  <path id="path4080" d="m45.896,1023.6c0,7.7323-6.2677,14-13.999,14-7.7316,0-13.999-6.268-13.999-14s6.2677-14.001,13.999-14.001c7.7316,0,13.999,6.2687,13.999,14.001z" fill="url(#radialGradient3087)"/>
  <path id="rect4107" fill="#d3d3d3" d="m34,996.36,4,0,0,4-4,0z"/>
  <path id="rect4109" fill="#d3d3d3" d="m40,996.36,4,0,0,4-4,0z"/>
  <path id="rect4111" fill="#d3d3d3" d="m46,996.36,4,0,0,4-4,0z"/>
  <path id="path4167" d="m45.896,1023.6c0,7.7323-6.2677,14-13.999,14-7.7316,0-13.999-6.268-13.999-14s6.2677-14.001,13.999-14.001c7.7316,0,13.999,6.2687,13.999,14.001z" fill="url(#radialGradient3087)"/>
 </g>
 <g id="layer1" transform="translate(0,-988.36218)">
  <path id="rect3841-1-6-0-2" fill="#c4c4c4" d="m22,994.36,2,0,0,8-2,0z"/>
  <path id="rect3797-0" fill="url(#linearGradient3822)" d="m12,1002.4,40,0,0,6-40,0z"/>
  <path id="rect3797" fill="url(#linearGradient3805)" d="m12,1042.4,40,0,0,4-40,0z"/>
  <path id="path3879" d="m46,62.362c0,3.866-3.134,7-7,7s-7-3.134-7-7,3.134-7,7-7,7,3.134,7,7z" transform="matrix(1.9998887,0,0,2.0000677,-46.099351,898.87761)" stroke="#c0c0c0" fill="none"/>
  <path id="rect3841-1-6-0" fill="url(#linearGradient3961)" d="m14,998.36,6,0,0,4-6,0z"/>
  <path id="rect3018" style="baseline-shift:baseline;block-progression:tb;color:#000000;direction:ltr;text-indent:0;text-align:start;enable-background:accumulate;text-transform:none;" d="m10,992.36,0,56,44,0,0.000001-56zm2,2,40,0,0,52-40,0z" fill-rule="nonzero" fill="#969696"/>
  <path id="path4043" style="baseline-shift:baseline;block-progression:tb;color:#000000;direction:ltr;text-indent:0;text-align:start;enable-background:accumulate;text-transform:none;" d="m10.316,992.45,0,1,0,53.689,0,0.9999,0.93745,0,41.685,0,0.99994,0,0-0.9999,0-53.689,0-1-0.99994,0-31.498,0-10.187,0zm1.9374,2.0001,9.187,0,30.498,0,0,51.689-39.685,0z" fill="none"/>
  <path id="path4169" d="m46,62.362c0,3.866-3.134,7-7,7s-7-3.134-7-7,3.134-7,7-7,7,3.134,7,7z" transform="matrix(1.9998887,0,0,2.0000677,-46.099351,898.87761)" stroke="#c0c0c0" fill="none"/>
  <path id="path4181" d="m46,62.362c0,3.866-3.134,7-7,7s-7-3.134-7-7,3.134-7,7-7,7,3.134,7,7z" transform="matrix(1.9998887,0,0,2.0000677,-46.099351,898.87761)" stroke="#4c4c4c" fill="none"/>
  <path id="rect3881" fill="#939393" d="m17,1020.4,5,0,0,6-5,0z"/>
  <rect id="rect4203" height="64.002" width="63.996" y="988.36" x="0.0040502" fill="none"/>
 </g>
</svg>
