<?xml version="1.0" encoding="UTF-8" standalone="no"?>
<!-- Created with Inkscape (http://www.inkscape.org/) -->

<svg
   xmlns:dc="http://purl.org/dc/elements/1.1/"
   xmlns:cc="http://creativecommons.org/ns#"
   xmlns:rdf="http://www.w3.org/1999/02/22-rdf-syntax-ns#"
   xmlns:svg="http://www.w3.org/2000/svg"
   xmlns="http://www.w3.org/2000/svg"
   xmlns:sodipodi="http://sodipodi.sourceforge.net/DTD/sodipodi-0.dtd"
   xmlns:inkscape="http://www.inkscape.org/namespaces/inkscape"
   version="1.1"
   width="357.98874"
   height="209.74985"
   viewBox="0 0 357.98874 209.74985"
   id="svg2"
   inkscape:version="0.91 r13725"
   sodipodi:docname="logoFARBE.svg">
  <sodipodi:namedview
     pagecolor="#ffffff"
     bordercolor="#666666"
     borderopacity="1"
     objecttolerance="10"
     gridtolerance="10"
     guidetolerance="10"
     inkscape:pageopacity="0"
     inkscape:pageshadow="2"
     inkscape:window-width="944"
     inkscape:window-height="1002"
     id="namedview30"
     showgrid="false"
     inkscape:zoom="0.96371746"
     inkscape:cx="178.99437"
     inkscape:cy="103.83728"
     inkscape:window-x="960"
     inkscape:window-y="0"
     inkscape:window-maximized="0"
     inkscape:current-layer="svg2" />
  <defs
     id="defs4">
    <clipPath
       id="clipPath3058">
      <path
         d="m 0,0 2863.91,0 0,1678 L 0,1678 0,0 z"
         id="path3060" />
    </clipPath>
    <clipPath
       id="clipPath18"
       clipPathUnits="userSpaceOnUse">
      <path
         id="path20"
         d="m 0,0 2863.9,0 0,1678 L 0,1678 0,0 Z"
         inkscape:connector-curvature="0" />
    </clipPath>
  </defs>
  <metadata
     id="metadata7">
    <rdf:RDF>
      <cc:Work
         rdf:about="">
        <dc:format>image/svg+xml</dc:format>
        <dc:type
           rdf:resource="http://purl.org/dc/dcmitype/StillImage" />
        <dc:title></dc:title>
      </cc:Work>
    </rdf:RDF>
  </metadata>
  <g
     id="g10"
     transform="matrix(1.25,0,0,-1.25,0,277.74985)">
    <g
       id="g12"
       transform="matrix(0.1,0,0,0.1,0,54.4)">
      <g
         id="g14">
        <g
           id="g16"
           clip-path="url(#clipPath18)"
           style="fill-rule:nonzero">
          <path
             id="path22"
             d="m 1742.7,916.66 c -57.27,189.25 -186.71,325.74 -312.71,398.73 -263.04,148.69 -458.92,77.73 -451.69,77.64 -3.473,-18.3 188.74,29.09 424.88,-120.73 88.55,-56.9 176.97,-147.64 234.77,-266.31 19.74,-188.63 -164.02,-223.1 -214.26,-67.459 -57.96,179.55 -104.94,258.75 -173.84,249.53 -65.78,-7.13 -121.42,-183.59 -145.87,-259.48 -24.5,-75.94 -84.6,-294.63 -129.68,-393.35 -45.08,-98.68 -115.14,-142.36 -182.38,-140.66 -67.234,1.7 -120.82,45.993 -178.62,154.31 -19.129,3.457 -71.215,12.238 -71.215,12.238 27.344,-137.96 145.75,-291.33 264.21,-289.68 118.48,1.649 177.05,81.739 239.3,252.63 62.24,170.92 110.76,347.4 219.15,351.37 87.25,5.273 100.6,-108.04 124.21,-190.72 23.57,-82.734 66.78,-235.72 180.06,-236.36 43.81,0 77.03,27.821 101.56,64.723 -19.1,-57.92 -46.4,-114.24 -82.6,-166.39 -117.1,-169.47 -306.4,-267.49 -483.8,-279.23 -178.74,-15.43 -339.1,45.08 -447.68,126.05 -221.84,169.23 -247.77,364.82 -262.23,355.46 -4.02,6.38 1.17,-201.18 231.31,-395.68 112.55,-92.451 286.37,-164.98 483.4,-151.77 195.77,9.0312 408.12,115.93 538,304.29 130.46,187.88 155.12,424.46 95.59,610.8"
             inkscape:connector-curvature="0"
             style="fill:#66c430" />
          <path
             id="path24"
             d="m 367.15,633.2 -346.39,0 C 8.734,633.2 0,641.94 0,653.97 l 0,734.3 c 0,12.02 8.7344,20.76 20.762,20.76 l 346.39,0 c 12.016,0 20.762,-8.74 20.762,-20.76 l 0,-45.89 c 0,-12.03 -8.746,-20.77 -20.762,-20.77 l -274.27,0 0,-251.32 252.42,0 c 12.015,0 20.765,-8.74 20.765,-20.76 l 0,-45.9 c 0,-12.017 -8.75,-20.759 -20.765,-20.759 l -252.42,0 0,-262.24 274.27,0 c 12.016,0 20.762,-8.75 20.762,-20.77 l 0,-45.89 c 0,-12.028 -8.746,-20.77 -20.762,-20.77"
             inkscape:connector-curvature="0"
             style="fill:#5b5f63" />
          <path
             id="path26"
             d="m 690.6,622.28 c -86.328,0 -159.54,20.758 -159.54,20.758 -13.106,3.281 -20.766,9.84 -20.766,21.852 l 0,49.171 c 0,12.028 8.75,16.399 20.766,14.211 0,0 95.062,-18.574 157.35,-18.574 90.696,0 138.78,46.981 138.78,123.47 l 0,46.992 c 0,76.477 -48.086,112.55 -131.13,112.55 l -110.36,0 c -12.015,0 -20.761,8.739 -20.761,20.759 l 0,45.9 c 0,12.01 8.746,20.76 20.761,20.76 l 88.504,0 c 83.047,0 131.13,36.05 131.13,112.54 l 0,24.04 c 0,76.49 -45.891,115.83 -123.48,115.83 -62.278,0 -150.79,-18.57 -150.79,-18.57 -12.016,-2.19 -20.766,3.28 -20.766,15.3 l 0,49.16 c 0,12.03 5.473,17.49 20.766,20.76 0,0 64.472,20.76 152.98,20.76 137.68,0 214.17,-62.28 214.17,-203.24 l 0,-24.04 c 0,-71.02 -28.406,-119.1 -75.391,-149.7 59.008,-28.41 97.258,-81.943 97.258,-162.81 l 0,-46.992 c 0,-143.14 -81.965,-210.89 -229.48,-210.89"
             inkscape:connector-curvature="0"
             style="fill:#5b5f63" />
          <path
             id="path28"
             d="m 2272.9,1157.7 c 0,84.14 -39.34,163.9 -147.51,163.9 l -147.53,0 0,-600.98 147.53,0 c 108.17,0 147.51,79.762 147.51,163.9 l 0,273.18 z m -147.51,-524.51 -219.64,0 c -12.03,0 -20.76,8.742 -20.76,20.77 l 0,734.3 c 0,12.02 8.73,20.76 20.76,20.76 l 219.64,0 c 167.17,0 240.38,-105.99 240.38,-251.32 l 0,-273.18 c 0,-145.34 -73.21,-251.33 -240.38,-251.33"
             inkscape:connector-curvature="0"
             style="fill:#5b5f63" />
          <path
             id="path30"
             d="m 2837.8,633.2 c 0,0 -60.09,-10.918 -114.73,-10.918 -159.54,0 -231.65,105.99 -231.65,251.32 l 0,295.02 c 0,145.34 71.02,251.32 231.65,251.32 59,0 114.73,-12.01 114.73,-12.01 13.12,-3.28 19.67,-8.75 19.67,-20.76 l 0,-48.08 c 0,-12.03 -8.74,-17.49 -20.75,-16.4 0,0 -61.2,9.84 -110.37,9.84 -102.72,0 -142.06,-79.77 -142.06,-163.91 l 0,-295.02 c 0,-84.136 38.24,-163.91 142.06,-163.91 43.71,0 110.37,9.832 110.37,9.832 12.01,1.098 20.75,-4.379 20.75,-16.39 l 0,-49.172 c 0,-12.028 -6.55,-17.481 -19.67,-20.77"
             inkscape:connector-curvature="0"
             style="fill:#5b5f63" />
          <path
             id="path32"
             d="m 1059.6,1500.7 -78.255,0 c -2.71,0 -4.683,1.97 -4.683,4.69 l 0,165.88 c 0,2.71 1.973,4.68 4.683,4.68 l 78.255,0 c 2.72,0 4.7,-1.97 4.7,-4.68 l 0,-10.37 c 0,-2.72 -1.98,-4.69 -4.7,-4.69 l -61.958,0 0,-56.78 57.018,0 c 2.72,0 4.7,-1.97 4.7,-4.69 l 0,-10.36 c 0,-2.72 -1.98,-4.69 -4.7,-4.69 l -57.018,0 0,-59.25 61.958,0 c 2.72,0 4.7,-1.97 4.7,-4.69 l 0,-10.36 c 0,-2.72 -1.98,-4.69 -4.7,-4.69"
             inkscape:connector-curvature="0"
             style="fill:#5b5f63" />
          <path
             id="path34"
             d="m 1210.1,1500.7 -13.08,0 c -2.72,0 -4.45,2.22 -5.69,4.69 l -64.18,124.65 0,-124.65 c 0,-2.72 -1.97,-4.69 -4.68,-4.69 l -11.61,0 c -2.72,0 -4.69,1.97 -4.69,4.69 l 0,165.88 c 0,2.71 1.97,4.68 4.69,4.68 l 12.85,0 c 3.2,0 4.43,-1.72 5.67,-4.19 l 64.43,-125.15 0,124.66 c 0,2.71 1.97,4.68 4.69,4.68 l 11.6,0 c 2.72,0 4.69,-1.97 4.69,-4.68 l 0,-165.88 c 0,-2.72 -1.97,-4.69 -4.69,-4.69"
             inkscape:connector-curvature="0"
             style="fill:#5b5f63" />
          <path
             id="path36"
             d="m 1344.5,1500.7 -78.26,0 c -2.71,0 -4.68,1.97 -4.68,4.69 l 0,165.88 c 0,2.71 1.97,4.68 4.68,4.68 l 78.26,0 c 2.72,0 4.69,-1.97 4.69,-4.68 l 0,-10.37 c 0,-2.72 -1.97,-4.69 -4.69,-4.69 l -61.96,0 0,-56.78 57.02,0 c 2.72,0 4.69,-1.97 4.69,-4.69 l 0,-10.36 c 0,-2.72 -1.97,-4.69 -4.69,-4.69 l -57.02,0 0,-59.25 61.96,0 c 2.72,0 4.69,-1.97 4.69,-4.69 l 0,-10.36 c 0,-2.72 -1.97,-4.69 -4.69,-4.69"
             inkscape:connector-curvature="0"
             style="fill:#5b5f63" />
          <path
             id="path38"
             d="m 1440.5,1656.2 -28.38,0 0,-61.71 28.38,0 c 21.99,0 33.34,11.84 33.34,30.85 0,19.01 -11.35,30.86 -33.34,30.86 z m 55.8,-155.51 -15.3,0 c -2.97,0 -4.7,2.46 -6.18,4.69 l -41.21,69.36 -21.49,0 0,-69.36 c 0,-2.72 -1.97,-4.69 -4.69,-4.69 l -11.6,0 c -2.71,0 -4.69,1.97 -4.69,4.69 l 0,165.88 c 0,2.71 1.98,4.68 4.69,4.68 l 44.67,0 c 35.56,0 54.32,-17.77 54.32,-50.6 0,-27.4 -12.83,-44.18 -37.52,-49.11 l 42.2,-70.85 c 1.49,-2.23 -0.49,-4.69 -3.2,-4.69"
             inkscape:connector-curvature="0"
             style="fill:#5b5f63" />
          <path
             id="path40"
             d="m 1591,1498.2 c -37.77,0 -54.3,23.94 -54.3,56.78 l 0,61.71 c 0,37.51 18.76,61.7 59.24,61.7 21.97,0 39.99,-5.67 39.99,-5.67 2.96,-0.74 4.44,-1.98 4.44,-4.69 l 0,-11.11 c 0,-2.72 -1.98,-4.2 -4.7,-3.71 0,0 -22.21,5.44 -39.73,5.44 -27.39,0 -38.27,-18.27 -38.27,-41.96 l 0,-61.71 c 0,-19.01 8.89,-37.04 33.33,-37.04 20.74,0 33.33,6.91 33.33,6.91 l 0,52.34 -32.34,0 c -2.72,0 -4.69,1.98 -4.69,4.69 l 0,10.37 c 0,2.72 1.97,4.69 4.69,4.69 l 48.63,0 c 2.72,0 4.69,-1.97 4.69,-4.69 l 0,-79.24 c 0,0 -16.55,-14.81 -54.31,-14.81"
             inkscape:connector-curvature="0"
             style="fill:#5b5f63" />
          <path
             id="path42"
             d="m 1745.2,1561.2 0,-55.78 c 0,-2.72 -1.97,-4.69 -4.69,-4.69 l -11.6,0 c -2.72,0 -4.7,1.97 -4.7,4.69 l 0,55.78 -49.61,109.86 c -1.24,2.46 0.49,4.92 3.21,4.92 l 14.07,0 c 2.71,0 4.93,-2.22 5.92,-4.68 l 37.03,-85.41 36.78,85.41 c 0.98,2.46 3.21,4.68 5.93,4.68 l 14.07,0 c 2.72,0 4.43,-2.46 3.21,-4.92 L 1745.2,1561.2"
             inkscape:connector-curvature="0"
             style="fill:#5b5f63" />
          <path
             id="path44"
             d="m 1951.9,1498.2 c -19,0 -38.02,5.18 -38.02,5.18 -3.2,0.74 -4.68,2.23 -4.68,4.93 l 0,11.36 c 0,2.72 1.48,4.2 4.68,3.71 0,0 21.49,-5.44 36.05,-5.44 18.76,0 32.09,7.67 32.09,27.66 l 0,7.41 c 0,16.52 -8.88,21.71 -23.46,26.9 l -16.04,5.68 c -16.54,5.92 -32.08,15.04 -32.08,41.46 l 0,6.17 c 0,30.12 20.72,45.17 50.1,45.17 18.27,0 35.3,-4.19 35.3,-4.19 3.21,-0.74 4.69,-2.22 4.69,-4.94 l 0,-10.86 c 0,-2.71 -1.48,-4.2 -4.69,-3.69 0,0 -18.76,3.94 -34.8,3.94 -18.77,0 -29.63,-8.15 -29.63,-25.43 l 0,-6.17 c 0,-12.09 8.4,-18.02 19.75,-21.97 l 15.8,-5.68 c 18.02,-6.41 36.04,-16.29 36.04,-46.39 l 0,-7.41 c 0,-34.81 -20.74,-47.4 -51.1,-47.4"
             inkscape:connector-curvature="0"
             style="fill:#5b5f63" />
          <path
             id="path46"
             d="m 2138.9,1656.2 -39.01,0 0,-150.82 c 0,-2.72 -1.97,-4.69 -4.69,-4.69 l -11.6,0 c -2.72,0 -4.69,1.97 -4.69,4.69 l 0,150.82 -39.26,0 c -2.71,0 -4.68,1.97 -4.68,4.69 l 0,10.37 c 0,2.71 1.97,4.68 4.68,4.68 l 99.25,0 c 2.71,0 4.68,-1.97 4.68,-4.68 l 0,-10.37 c 0,-2.72 -1.97,-4.69 -4.68,-4.69"
             inkscape:connector-curvature="0"
             style="fill:#5b5f63" />
          <path
             id="path48"
             d="m 2258.3,1621.6 c 0,19.01 -8.89,37.03 -33.33,37.03 -24.45,0 -33.33,-18.02 -33.33,-37.03 l 0,-66.64 c 0,-19.01 8.88,-37.04 33.33,-37.04 24.44,0 33.33,18.03 33.33,37.04 l 0,66.64 z m -33.33,-123.42 c -37.76,0 -54.31,23.94 -54.31,56.78 l 0,66.64 c 0,32.83 16.55,56.77 54.31,56.77 37.76,0 54.3,-23.94 54.3,-56.77 l 0,-66.64 c 0,-32.84 -16.54,-56.78 -54.3,-56.78"
             inkscape:connector-curvature="0"
             style="fill:#5b5f63" />
          <path
             id="path50"
             d="m 2375.4,1656.2 -28.38,0 0,-61.71 28.38,0 c 21.99,0 33.33,11.84 33.33,30.85 0,19.01 -11.34,30.86 -33.33,30.86 z m 55.81,-155.51 -15.31,0 c -2.97,0 -4.7,2.46 -6.18,4.69 l -41.21,69.36 -21.49,0 0,-69.36 c 0,-2.72 -1.97,-4.69 -4.69,-4.69 l -11.6,0 c -2.71,0 -4.69,1.97 -4.69,4.69 l 0,165.88 c 0,2.71 1.98,4.68 4.69,4.68 l 44.67,0 c 35.56,0 54.32,-17.77 54.32,-50.6 0,-27.4 -12.83,-44.18 -37.51,-49.11 l 42.19,-70.85 c 1.49,-2.23 -0.49,-4.69 -3.19,-4.69"
             inkscape:connector-curvature="0"
             style="fill:#5b5f63" />
          <path
             id="path52"
             d="m 2525.4,1642.1 -27.16,-87.13 54.07,0 -26.91,87.13 z m 60.97,-141.44 -13.58,0 c -2.71,0 -4.44,1.97 -5.17,4.69 l -9.14,29.86 -66.4,0 -9.14,-29.86 c -0.74,-2.72 -2.47,-4.69 -5.19,-4.69 l -13.57,0 c -2.72,0 -4.2,1.97 -3.45,4.69 l 52.57,165.88 c 0.74,2.71 2.71,4.68 5.43,4.68 l 13.08,0 c 2.72,0 4.7,-1.97 5.44,-4.68 l 52.57,-165.88 c 0.75,-2.72 -0.74,-4.69 -3.45,-4.69"
             inkscape:connector-curvature="0"
             style="fill:#5b5f63" />
          <path
             id="path54"
             d="m 2675.2,1498.2 c -37.77,0 -54.31,23.94 -54.31,56.78 l 0,61.71 c 0,37.51 18.77,61.7 59.25,61.7 21.97,0 39.99,-5.67 39.99,-5.67 2.96,-0.74 4.43,-1.98 4.43,-4.69 l 0,-11.11 c 0,-2.72 -1.97,-4.2 -4.69,-3.71 0,0 -22.21,5.44 -39.73,5.44 -27.4,0 -38.27,-18.27 -38.27,-41.96 l 0,-61.71 c 0,-19.01 8.88,-37.04 33.33,-37.04 20.73,0 33.33,6.91 33.33,6.91 l 0,52.34 -32.35,0 c -2.71,0 -4.69,1.98 -4.69,4.69 l 0,10.37 c 0,2.72 1.98,4.69 4.69,4.69 l 48.64,0 c 2.71,0 4.68,-1.97 4.68,-4.69 l 0,-79.24 c 0,0 -16.54,-14.81 -54.3,-14.81"
             inkscape:connector-curvature="0"
             style="fill:#5b5f63" />
          <path
             id="path56"
             d="m 2859.2,1500.7 -78.25,0 c -2.73,0 -4.7,1.97 -4.7,4.69 l 0,165.88 c 0,2.71 1.97,4.68 4.7,4.68 l 78.25,0 c 2.71,0 4.69,-1.97 4.69,-4.68 l 0,-10.37 c 0,-2.72 -1.98,-4.69 -4.69,-4.69 l -61.96,0 0,-56.78 57.02,0 c 2.71,0 4.68,-1.97 4.68,-4.69 l 0,-10.36 c 0,-2.72 -1.97,-4.69 -4.68,-4.69 l -57.02,0 0,-59.25 61.96,0 c 2.71,0 4.69,-1.97 4.69,-4.69 l 0,-10.36 c 0,-2.72 -1.98,-4.69 -4.69,-4.69"
             inkscape:connector-curvature="0"
             style="fill:#5b5f63" />
        </g>
      </g>
    </g>
  </g>
</svg>
