<?xml version="1.0"?>
<svg xmlns="http://www.w3.org/2000/svg" viewBox="0 0 64 64" style="enable-background:new 0 0 64 64">
  <defs>
    <linearGradient id="0" gradientUnits="userSpaceOnUse" y1="26.1191" x2="0" y2="46.5">
      <stop style="stop-color:#fafafa"/>
      <stop offset="1" style="stop-color:#dcdcdc"/>
    </linearGradient>
  </defs>
  <path d="m3.12 24.88v-1.88c0-2.14 1.74-3.88 3.88-3.88h6c1.03 0 1.88.84 1.88 1.88v.88h-1.75v-.38c0-.34-.28-.62-.62-.62h-5.51c-1.17 0-2.12.95-2.12 2.12v1.88h-1.76" style="fill:#c5c6c8"/>
  <path d="m13 19.25c.96 0 1.75.79 1.75 1.75v.75h-1.5v-.25c0-.41-.34-.75-.75-.75h-5.5c-1.24 0-2.25 1.01-2.25 2.25v1.75h-1.5v-1.75c0-2.07 1.68-3.75 3.75-3.75h6m0-.25h-6c-2.2 0-4 1.8-4 4v2h2v-2c0-1.1.9-2 2-2h5.5c.28 0 .5.22.5.5v.5h2v-1c0-1.1-.9-2-2-2z" style="fill:#8c8c8c"/>
  <path d="m13.7 46.5c-9.6 0-11.72-16.74-12.04-19.96l60.67-.42c-.17 1.57-.96 6.5-4.36 12.71-3.97 7.25-9 7.65-9.21 7.67h-35.06" style="fill:url(#0)"/>
  <path d="m61.77 26.62c-.28 1.95-1.21 6.44-4.23 11.97-3.88 7.08-8.6 7.4-8.76 7.41h-35.08c-8.72 0-11.01-14.82-11.48-18.96l59.55-.42m1.11-1.01l-61.76.44c0 0 1.43 20.95 12.58 20.95s35.07 0 35.07 0 5.39-.18 9.63-7.93c4.25-7.74 4.48-13.46 4.48-13.46z" style="fill:#b4b4b4"/>
  <path d="m1 26.58c-.28 0-.5-.22-.5-.5v-1.58h63v1.58c0 .28-.22.5-.5.5h-62" style="fill:#f0f0f0"/>
  <path d="m63 25v1.08h-62v-1.08h62m1-1h-64v2.08c0 .55.45 1 1 1h62c.55 0 1-.45 1-1v-2.08z" style="fill:#b4b4b4"/>
</svg>
