<?xml version="1.0"?>
<svg xmlns="http://www.w3.org/2000/svg" viewBox="0 0 64 64" style="enable-background:new 0 0 64 64">
  <path d="m47.5 58.5v-51h-31v51h-4v-55h39v55z" style="fill:#ececed"/>
  <path d="M51,4v54h-3V8V7h-1H17h-1v1v50h-3V4H51 M52,3H12v56h5V8h30v51h5V3L52,3z" style="fill:#9b9c9e"/>
  <path d="m17.5 8.5h29v50h-29z" style="fill:#f0f0f0"/>
  <g style="fill:#646464">
    <path d="m46 9v49h-28v-49h28m1-1h-30v51h30v-51z"/>
    <circle cx="43" cy="37" r="1"/>
    <path d="m39.5 32h4c.28 0 .5.22.5.5 0 .28-.22.5-.5.5h-4c-.28 0-.5-.22-.5-.5 0-.28.22-.5.5-.5"/>
  </g>
</svg>
