<?xml version="1.0"?>
<svg xmlns="http://www.w3.org/2000/svg" viewBox="0 0 64 64" style="enable-background:new 0 0 64 64">
  <path d="m9.5 14.5h15v4h-15z" style="fill:#282828"/>
  <path d="m24 15v3h-14v-3h14m1-1h-1-14-1v1 3 1h1 14 1v-1-3-1z" style="fill:#3c3c3c"/>
  <path d="m24.5 14.5h15v4h-15z" style="fill:#282828"/>
  <path d="m39 15v3h-14v-3h14m1-1h-1-14-1v1 3 1h1 14 1v-1-3-1z" style="fill:#3c3c3c"/>
  <path d="m39.5 14.5h15v4h-15z" style="fill:#282828"/>
  <path d="m54 15v3h-14v-3h14m1-1h-1-14-1v1 3 1h1 14 1v-1-3-1z" style="fill:#3c3c3c"/>
  <path d="m9.5 18.5h15v11h-15z" style="fill:#282828"/>
  <path d="m24 19v10h-14v-10h14m1-1h-1-14-1v1 10 1h1 14 1v-1-10-1z" style="fill:#3c3c3c"/>
  <path d="m24.5 18.5h15v11h-15z" style="fill:#282828"/>
  <path d="m39 19v10h-14v-10h14m1-1h-1-14-1v1 10 1h1 14 1v-1-10-1z" style="fill:#3c3c3c"/>
  <path d="m39.5 18.5h15v11h-15z" style="fill:#282828"/>
  <path d="m54 19v10h-14v-10h14m1-1h-1-14-1v1 10 1h1 14 1v-1-10-1z" style="fill:#3c3c3c"/>
  <path d="m9.5 29.5h15v11h-15z" style="fill:#282828"/>
  <path d="m24 30v10h-14v-10h14m1-1h-1-14-1v1 10 1h1 14 1v-1-10-1z" style="fill:#3c3c3c"/>
  <path d="m24.5 29.5h15v11h-15z" style="fill:#282828"/>
  <path d="m39 30v10h-14v-10h14m1-1h-1-14-1v1 10 1h1 14 1v-1-10-1z" style="fill:#3c3c3c"/>
  <path d="m39.5 29.5h15v11h-15z" style="fill:#282828"/>
  <path d="m54 30v10h-14v-10h14m1-1h-1-14-1v1 10 1h1 14 1v-1-10-1z" style="fill:#3c3c3c"/>
  <path d="m55.5 53.5v-35h-47v35h-5v-40h57v40z" style="fill:#f0f0f0"/>
  <path d="m60 14v4 35h-4v-35h-48v35h-4v-35-4h4 48 4m1-1h-1-4-48-4-1v1 4 35 1h1 4 1v-1-34h46v34 1h1 4 1v-1-35-4-1z" style="fill:#c8c8c8"/>
</svg>
