<?xml version="1.0"?>
<svg xmlns="http://www.w3.org/2000/svg" viewBox="0 0 64 64" style="enable-background:new 0 0 64 64">
  <path d="m9.5 15.5h15v7h-15z" style="fill:#282828"/>
  <path d="m24 16v6h-14v-6h14m1-1h-1-14-1v1 6 1h1 14 1v-1-6-1z" style="fill:#3c3c3c"/>
  <path d="m24.5 15.5h15v7h-15z" style="fill:#282828"/>
  <path d="m39 16v6h-14v-6h14m1-1h-1-14-1v1 6 1h1 14 1v-1-6-1z" style="fill:#3c3c3c"/>
  <path d="m39.5 15.5h15v7h-15z" style="fill:#282828"/>
  <path d="m54 16v6h-14v-6h14m1-1h-1-14-1v1 6 1h1 14 1v-1-6-1z" style="fill:#3c3c3c"/>
  <path d="m9.5 22.5h15v11h-15z" style="fill:#282828"/>
  <path d="m24 23v10h-14v-10h14m1-1h-1-14-1v1 10 1h1 14 1v-1-10-1z" style="fill:#3c3c3c"/>
  <path d="m24.5 22.5h15v11h-15z" style="fill:#282828"/>
  <path d="m39 23v10h-14v-10h14m1-1h-1-14-1v1 10 1h1 14 1v-1-10-1z" style="fill:#3c3c3c"/>
  <path d="m39.5 22.5h15v11h-15z" style="fill:#282828"/>
  <path d="m54 23v10h-14v-10h14m1-1h-1-14-1v1 10 1h1 14 1v-1-10-1z" style="fill:#3c3c3c"/>
  <path d="m9.5 33.5h15v11h-15z" style="fill:#282828"/>
  <path d="m24 34v10h-14v-10h14m1-1h-1-14-1v1 10 1h1 14 1v-1-10-1z" style="fill:#3c3c3c"/>
  <path d="m24.5 33.5h15v11h-15z" style="fill:#282828"/>
  <path d="m39 34v10h-14v-10h14m1-1h-1-14-1v1 10 1h1 14 1v-1-10-1z" style="fill:#3c3c3c"/>
  <path d="m39.5 33.5h15v11h-15z" style="fill:#282828"/>
  <path d="m54 34v10h-14v-10h14m1-1h-1-14-1v1 10 1h1 14 1v-1-10-1z" style="fill:#3c3c3c"/>
  <path d="m55.5 53.5v-35h-47v35h-5v-40h57v40z" style="fill:#f0f0f0"/>
  <path d="m60 14v4 35h-4v-35h-48v35h-4v-35-4h4 48 4m1-1h-1-4-48-4-1v1 4 35 1h1 4 1v-1-34h46v34 1h1 4 1v-1-35-4-1z" style="fill:#c8c8c8"/>
</svg>
