<?xml version="1.0"?>
<svg xmlns="http://www.w3.org/2000/svg" viewBox="0 0 64 64" style="enable-background:new 0 0 64 64">
  <defs>
    <linearGradient id="0" gradientUnits="userSpaceOnUse" x1="3" x2="61">
      <stop style="stop-color:#1d1a1e"/>
      <stop offset=".0305" style="stop-color:#444145"/>
      <stop offset=".0676" style="stop-color:#242424"/>
      <stop offset=".2319"/>
      <stop offset=".4164" style="stop-color:#282629"/>
      <stop offset="1" style="stop-color:#38373a"/>
    </linearGradient>
  </defs>
  <g style="stroke-miterlimit:10;stroke:#000;stroke-width:.5">
    <path d="m5.24 29.78l-.19 3.41.01.15.52 5.6c0 0-.09 1.81 2.94 1.81h44.97c0 0 3.66.12 4.31-.84s.94-4.59.94-4.59v-5.16l-53.5-.38z" style="fill:#212121"/>
    <path d="m3.49 23.28l-.42 8.67c0 0-.59 1.97 1.77 2.59s30.59 3.93 41.15 3.84 13.67-2.86 13.67-2.86 1.5-.65 1.33-4.38l-.51-8.54c0 0-6.78-1.99-18.78-1.54s-38.21 2.22-38.21 2.22z" style="fill:url(#0)"/>
  </g>
  <path d="m29 41h8v2h-8z"/>
  <path d="m51 41h2v1h-2z"/>
  <circle cx="56" cy="35.08" r="1"/>
  <path d="m47 36.88c-3.79 0-6.88-3.08-6.88-6.88s3.08-6.88 6.88-6.88 6.88 3.08 6.88 6.88-3.09 6.88-6.88 6.88" style="fill:#222"/>
  <path d="m47 23.25c3.72 0 6.75 3.03 6.75 6.75s-3.03 6.75-6.75 6.75-6.75-3.03-6.75-6.75 3.03-6.75 6.75-6.75m0-.25c-3.87 0-7 3.13-7 7s3.13 7 7 7 7-3.13 7-7-3.13-7-7-7z"/>
  <path d="m47 34.87c-2.69 0-4.88-2.19-4.88-4.87s2.19-4.87 4.88-4.87 4.88 2.19 4.88 4.87-2.19 4.87-4.88 4.87" style="fill:#dadada"/>
  <path d="m47 25.25c2.62 0 4.75 2.13 4.75 4.75s-2.13 4.75-4.75 4.75-4.75-2.13-4.75-4.75 2.13-4.75 4.75-4.75m0-.25c-2.76 0-5 2.24-5 5s2.24 5 5 5 5-2.24 5-5-2.24-5-5-5z" style="fill:#6d6d6d"/>
  <path d="m47 32.88c-1.59 0-2.88-1.29-2.88-2.88s1.29-2.88 2.88-2.88 2.88 1.29 2.88 2.88-1.29 2.88-2.88 2.88" style="fill:#797689"/>
  <path d="m47 27.25c1.52 0 2.75 1.23 2.75 2.75s-1.23 2.75-2.75 2.75-2.75-1.23-2.75-2.75 1.23-2.75 2.75-2.75m0-.25c-1.66 0-3 1.34-3 3s1.34 3 3 3 3-1.34 3-3-1.34-3-3-3z"/>
  <circle cx="47" cy="30" r="1.75" style="fill:#4f3542"/>
  <circle cx="47" cy="30" r="1.05"/>
  <g style="fill:#c8c8c8">
    <path d="m13.7 28.01c-.52 0-.89.38-.89.93v.06c0 .55.38.91.97.91.13 0 .45 0 .75-.23v-.41c-.25.19-.41.21-.62.21-.31 0-.51-.12-.55-.4h1.2c0-.03 0-.06 0-.09.02-.63-.38-.98-.86-.98m-.32.73c.03-.16.15-.28.31-.28.16 0 .28.12.31.28h-.62"/>
    <path d="m15.79 28.02c-.22 0-.39.09-.56.29v-.24h-.54v1.79h.54v-1.12c.14-.23.24-.3.38-.3.15 0 .27.1.27.36v1.06h.54v-1.15c0-.53-.36-.69-.63-.69"/>
    <path d="m12.45 28.88c.15-.08.24-.22.24-.4 0-.26-.18-.37-.35-.43-.1-.03-.18-.03-.29-.03h-1.05v1.85h1.09c.15 0 .3-.01.45-.12.16-.12.2-.29.2-.42 0-.17-.08-.28-.16-.35-.03-.05-.08-.07-.13-.1m-.93-.42h.41c.09 0 .22.02.22.14 0 .14-.13.14-.22.14h-.41v-.28m.45 1h-.45v-.37h.45c.11 0 .22.05.22.19 0 .14-.11.18-.22.18"/>
    <path d="m17.95 29.82c.32-.12.54-.43.54-.86 0-.71-.55-.96-.98-.96-.52 0-.99.33-.99.95 0 .57.42.95.99.95.08.1.54.49 1.24.27l.08-.59c-.34.28-.81.26-.88.24m-.17-.45c-.07.09-.18.13-.29.13-.14 0-.25-.07-.33-.18-.06-.09-.09-.21-.09-.33 0-.16.05-.3.14-.4.08-.09.16-.13.28-.13.08 0 .16.02.22.07.12.1.19.27.19.46.01.14-.04.29-.12.38"/>
  </g>
  <path d="m47 29h1v1h-1z" style="fill:#fff"/>
</svg>
